<svg xmlns="http://www.w3.org/2000/svg" xmlns:xlink="http://www.w3.org/1999/xlink" contentStyleType="text/css" data-diagram-type="DESCRIPTION" height="2417px" preserveAspectRatio="none" style="width:1329px;height:2417px;background:#FFFFFF;" version="1.1" viewBox="0 0 1329 2417" width="1329px" zoomAndPan="magnify"><?plantuml 1.2026.3beta6?><defs/><g><!--cluster Syst?me Steam--><g class="cluster" data-qualified-name="Syst.me Steam" data-source-line="13" id="ent0007"><rect fill="none" height="1777" rx="5" ry="5" style="stroke:#181818;stroke-width:1;" width="1053.16" x="261.9" y="257.69"/><text fill="#000000" font-family="sans-serif" font-size="14" font-weight="700" lengthAdjust="spacing" textLength="122.9922" x="726.9839" y="272.6851">Syst&#232;me Steam</text></g><!--cluster Magasin--><g class="cluster" data-qualified-name="Syst.me Steam.Magasin" data-source-line="15" id="ent0008"><rect fill="none" height="714" rx="5" ry="5" style="stroke:#181818;stroke-width:1;" width="737.21" x="295.43" y="1021.69"/><text fill="#000000" font-family="sans-serif" font-size="14" font-weight="700" lengthAdjust="spacing" textLength="65.9463" x="631.0619" y="1036.6851">Magasin</text></g><!--cluster Biblioth?que--><g class="cluster" data-qualified-name="Syst.me Steam.Biblioth.que" data-source-line="30" id="ent0021"><rect fill="none" height="348" rx="5" ry="5" style="stroke:#181818;stroke-width:1;" width="1005.16" x="285.9" y="300.69"/><text fill="#000000" font-family="sans-serif" font-size="14" font-weight="700" lengthAdjust="spacing" textLength="100.3447" x="738.3076" y="315.6851">Biblioth&#232;que</text></g><!--cluster Communaut?--><g class="cluster" data-qualified-name="Syst.me Steam.Communaut." data-source-line="39" id="ent0028"><rect fill="none" height="325" rx="5" ry="5" style="stroke:#181818;stroke-width:1;" width="690.35" x="306.02" y="672.69"/><text fill="#000000" font-family="sans-serif" font-size="14" font-weight="700" lengthAdjust="spacing" textLength="104.6035" x="598.8932" y="687.6851">Communaut&#233;</text></g><!--cluster Gestion & Mod?ration--><g class="cluster" data-qualified-name="Syst.me Steam.Gestion . Mod.ration" data-source-line="47" id="ent0034"><rect fill="none" height="251" rx="5" ry="5" style="stroke:#181818;stroke-width:1;" width="649.9" x="310.11" y="1759.69"/><text fill="#000000" font-family="sans-serif" font-size="14" font-weight="700" lengthAdjust="spacing" textLength="172.8467" x="548.6367" y="1774.6851">Gestion &amp; Mod&#233;ration</text></g><!--entity UC1--><g class="entity" data-qualified-name="Syst.me Steam.Magasin.UC1" data-source-line="16" id="ent0009"><ellipse cx="437.3561" cy="1454.6932" fill="#F1F1F1" rx="90.0661" ry="20.4132" style="stroke:#181818;stroke-width:0.5;"/><text fill="#000000" font-family="sans-serif" font-size="14" lengthAdjust="spacing" textLength="153.8906" x="360.4108" y="1459.3417">Parcourir le catalogue</text></g><!--entity UC1b--><g class="entity" data-qualified-name="Syst.me Steam.Magasin.UC1b" data-source-line="17" id="ent0010"><ellipse cx="437.3557" cy="1529.6891" fill="#F1F1F1" rx="83.8457" ry="19.1691" style="stroke:#181818;stroke-width:0.5;"/><text fill="#000000" font-family="sans-serif" font-size="14" lengthAdjust="spacing" textLength="139.6582" x="367.5266" y="1534.3376">Filtrer par cat&#233;gorie</text></g><!--entity UC1c--><g class="entity" data-qualified-name="Syst.me Steam.Magasin.UC1c" data-source-line="18" id="ent0011"><ellipse cx="437.3606" cy="1606.6941" fill="#F1F1F1" rx="99.8706" ry="22.3741" style="stroke:#181818;stroke-width:0.5;"/><text fill="#000000" font-family="sans-serif" font-size="14" lengthAdjust="spacing" textLength="175.7725" x="349.4744" y="1611.3426">Afficher le d&#233;tail d'un jeu</text></g><!--entity UC1d--><g class="entity" data-qualified-name="Syst.me Steam.Magasin.UC1d" data-source-line="19" id="ent0012"><ellipse cx="437.3559" cy="1309.6872" fill="#F1F1F1" rx="76.2359" ry="17.6472" style="stroke:#181818;stroke-width:0.5;"/><text fill="#000000" font-family="sans-serif" font-size="14" lengthAdjust="spacing" textLength="121.7139" x="376.4989" y="1314.3356">Ajouter au panier</text></g><!--entity UC1e--><g class="entity" data-qualified-name="Syst.me Steam.Magasin.UC1e" data-source-line="20" id="ent0013"><ellipse cx="437.3597" cy="1380.6859" fill="#F1F1F1" rx="78.7797" ry="18.1559" style="stroke:#181818;stroke-width:0.5;"/><text fill="#000000" font-family="sans-serif" font-size="14" lengthAdjust="spacing" textLength="127.791" x="373.4642" y="1385.3344">Acc&#233;der au panier</text></g><!--entity UC1f--><g class="entity" data-qualified-name="Syst.me Steam.Magasin.UC1f" data-source-line="21" id="ent0014"><ellipse cx="437.3631" cy="1081.6926" fill="#F1F1F1" rx="113.6131" ry="25.1226" style="stroke:#181818;stroke-width:0.5;"/><text fill="#000000" font-family="sans-serif" font-size="14" lengthAdjust="spacing" textLength="205.6729" x="334.5267" y="1086.3411">Acc&#233;der &#224; la liste de souhaits</text></g><!--entity UC2--><g class="entity" data-qualified-name="Syst.me Steam.Magasin.UC2" data-source-line="22" id="ent0015"><ellipse cx="437.3567" cy="1157.6853" fill="#F1F1F1" rx="68.5267" ry="16.1053" style="stroke:#181818;stroke-width:0.5;"/><text fill="#000000" font-family="sans-serif" font-size="14" lengthAdjust="spacing" textLength="102.6416" x="386.0359" y="1162.3338">Acheter un jeu</text></g><!--entity UC3--><g class="entity" data-qualified-name="Syst.me Steam.Magasin.UC3" data-source-line="23" id="ent0016"><ellipse cx="857.2414" cy="1157.6863" fill="#F1F1F1" rx="91.4314" ry="20.6863" style="stroke:#181818;stroke-width:0.5;"/><text fill="#000000" font-family="sans-serif" font-size="14" lengthAdjust="spacing" textLength="156.9736" x="778.7545" y="1162.3347">Effectuer un paiement</text></g><!--entity UC4--><g class="entity" data-qualified-name="Syst.me Steam.Magasin.UC4" data-source-line="24" id="ent0017"><ellipse cx="857.2413" cy="1601.6883" fill="#F1F1F1" rx="63.4413" ry="15.0883" style="stroke:#181818;stroke-width:0.5;"/><text fill="#000000" font-family="sans-serif" font-size="14" lengthAdjust="spacing" textLength="89.291" x="812.5958" y="1606.3367">V&#233;rifier l'&#226;ge</text></g><!--entity UC5--><g class="entity" data-qualified-name="Syst.me Steam.Magasin.UC5" data-source-line="25" id="ent0018"><ellipse cx="437.3598" cy="1691.686" fill="#F1F1F1" rx="125.9298" ry="27.586" style="stroke:#181818;stroke-width:0.5;"/><text fill="#000000" font-family="sans-serif" font-size="14" lengthAdjust="spacing" textLength="231.9639" x="321.3779" y="1696.3344">Consulter actualit&#233;s/classements</text></g><!--entity UC7--><g class="entity" data-qualified-name="Syst.me Steam.Magasin.UC7" data-source-line="26" id="ent0019"><ellipse cx="437.3607" cy="1232.6881" fill="#F1F1F1" rx="107.6407" ry="23.9281" style="stroke:#181818;stroke-width:0.5;"/><text fill="#000000" font-family="sans-serif" font-size="14" lengthAdjust="spacing" textLength="192.7666" x="340.9774" y="1237.3366">Acc&#233;der boutique de points</text></g><!--entity UC6--><g class="entity" data-qualified-name="Syst.me Steam.Magasin.UC6" data-source-line="27" id="ent0020"><ellipse cx="857.2388" cy="1685.6918" fill="#F1F1F1" rx="159.4088" ry="34.2818" style="stroke:#181818;stroke-width:0.5;"/><text fill="#000000" font-family="sans-serif" font-size="14" lengthAdjust="spacing" textLength="302.0186" x="706.2296" y="1690.3402">Recevoir recommandations personnalis&#233;es</text></g><!--entity UC8--><g class="entity" data-qualified-name="Syst.me Steam.Biblioth.que.UC8" data-source-line="31" id="ent0022"><ellipse cx="437.3642" cy="358.6908" fill="#F1F1F1" rx="102.7042" ry="22.9408" style="stroke:#181818;stroke-width:0.5;"/><text fill="#000000" font-family="sans-serif" font-size="14" lengthAdjust="spacing" textLength="182" x="346.3642" y="363.3393">Acc&#233;der &#224; sa biblioth&#232;que</text></g><!--entity UC9--><g class="entity" data-qualified-name="Syst.me Steam.Biblioth.que.UC9" data-source-line="32" id="ent0023"><ellipse cx="857.2409" cy="352.6942" fill="#F1F1F1" rx="69.2709" ry="16.2542" style="stroke:#181818;stroke-width:0.5;"/><text fill="#000000" font-family="sans-serif" font-size="14" lengthAdjust="spacing" textLength="104.5352" x="804.9733" y="357.3426">Installer un jeu</text></g><!--entity UC10--><g class="entity" data-qualified-name="Syst.me Steam.Biblioth.que.UC10" data-source-line="33" id="ent0024"><ellipse cx="1209.3488" cy="352.6918" fill="#F1F1F1" rx="65.7088" ry="15.5418" style="stroke:#181818;stroke-width:0.5;"/><text fill="#000000" font-family="sans-serif" font-size="14" lengthAdjust="spacing" textLength="95.3408" x="1161.6784" y="357.3402">Lancer un jeu</text></g><!--entity UC11--><g class="entity" data-qualified-name="Syst.me Steam.Biblioth.que.UC11" data-source-line="34" id="ent0025"><ellipse cx="437.3565" cy="438.6873" fill="#F1F1F1" rx="99.8365" ry="22.3673" style="stroke:#181818;stroke-width:0.5;"/><text fill="#000000" font-family="sans-serif" font-size="14" lengthAdjust="spacing" textLength="175.6973" x="349.5079" y="443.3357">Consulter succ&#232;s/activit&#233;</text></g><!--entity UC13--><g class="entity" data-qualified-name="Syst.me Steam.Biblioth.que.UC13" data-source-line="35" id="ent0026"><ellipse cx="437.3649" cy="517.689" fill="#F1F1F1" rx="97.5449" ry="21.909" style="stroke:#181818;stroke-width:0.5;"/><text fill="#000000" font-family="sans-serif" font-size="14" lengthAdjust="spacing" textLength="170.6318" x="352.0489" y="522.3374">G&#233;rer inventaire &amp; profil</text></g><!--entity UC12--><g class="entity" data-qualified-name="Syst.me Steam.Biblioth.que.UC12" data-source-line="36" id="ent0027"><ellipse cx="437.3623" cy="603.6925" fill="#F1F1F1" rx="135.4623" ry="29.4925" style="stroke:#181818;stroke-width:0.5;"/><text fill="#000000" font-family="sans-serif" font-size="14" lengthAdjust="spacing" textLength="252.082" x="311.3213" y="608.3409">Synchroniser les sauvegardes cloud</text></g><!--entity UC17--><g class="entity" data-qualified-name="Syst.me Steam.Communaut..UC17" data-source-line="40" id="ent0029"><ellipse cx="437.3603" cy="730.6941" fill="#F1F1F1" rx="102.4703" ry="22.8941" style="stroke:#181818;stroke-width:0.5;"/><text fill="#000000" font-family="sans-serif" font-size="14" lengthAdjust="spacing" textLength="181.4873" x="346.6166" y="735.3425">Participer aux discussions</text></g><!--entity UC18--><g class="entity" data-qualified-name="Syst.me Steam.Communaut..UC18" data-source-line="41" id="ent0030"><ellipse cx="437.357" cy="813.6894" fill="#F1F1F1" rx="115.347" ry="25.4694" style="stroke:#181818;stroke-width:0.5;"/><text fill="#000000" font-family="sans-serif" font-size="14" lengthAdjust="spacing" textLength="209.3984" x="332.6578" y="818.3378">Acc&#233;der au Workshop/March&#233;</text></g><!--entity UC21--><g class="entity" data-qualified-name="Syst.me Steam.Communaut..UC21" data-source-line="42" id="ent0031"><ellipse cx="437.3615" cy="893.6923" fill="#F1F1F1" rx="85.3115" ry="19.4623" style="stroke:#181818;stroke-width:0.5;"/><text fill="#000000" font-family="sans-serif" font-size="14" lengthAdjust="spacing" textLength="143.042" x="365.8405" y="898.3407">Rejoindre un groupe</text></g><!--entity UC22--><g class="entity" data-qualified-name="Syst.me Steam.Communaut..UC22" data-source-line="43" id="ent0032"><ellipse cx="437.3624" cy="964.6945" fill="#F1F1F1" rx="71.0724" ry="16.6145" style="stroke:#181818;stroke-width:0.5;"/><text fill="#000000" font-family="sans-serif" font-size="14" lengthAdjust="spacing" textLength="109.0674" x="382.8287" y="969.3429">R&#233;diger un avis</text></g><!--entity UC23--><g class="entity" data-qualified-name="Syst.me Steam.Communaut..UC23" data-source-line="44" id="ent0033"><ellipse cx="857.2379" cy="946.6876" fill="#F1F1F1" rx="123.1379" ry="27.0276" style="stroke:#181818;stroke-width:0.5;"/><text fill="#000000" font-family="sans-serif" font-size="14" lengthAdjust="spacing" textLength="226.0371" x="744.2194" y="951.336">Signaler un contenu inappropri&#233;</text></g><!--entity UC27--><g class="entity" data-qualified-name="Syst.me Steam.Gestion . Mod.ration.UC27" data-source-line="48" id="ent0035"><ellipse cx="437.3561" cy="1969.6912" fill="#F1F1F1" rx="111.2561" ry="24.6512" style="stroke:#181818;stroke-width:0.5;"/><text fill="#000000" font-family="sans-serif" font-size="14" lengthAdjust="spacing" textLength="200.5938" x="337.0593" y="1974.3397">Publier / Mettre &#224; jour un jeu</text></g><!--entity UC29--><g class="entity" data-qualified-name="Syst.me Steam.Gestion . Mod.ration.UC29" data-source-line="49" id="ent0036"><ellipse cx="437.3633" cy="1813.6907" fill="#F1F1F1" rx="82.5533" ry="18.9107" style="stroke:#181818;stroke-width:0.5;"/><text fill="#000000" font-family="sans-serif" font-size="14" lengthAdjust="spacing" textLength="136.6572" x="369.0347" y="1818.3391">Mod&#233;rer le contenu</text></g><!--entity UC30--><g class="entity" data-qualified-name="Syst.me Steam.Gestion . Mod.ration.UC30" data-source-line="50" id="ent0037"><ellipse cx="437.3562" cy="1888.6932" fill="#F1F1F1" rx="93.7662" ry="21.1532" style="stroke:#181818;stroke-width:0.5;"/><text fill="#000000" font-family="sans-serif" font-size="14" lengthAdjust="spacing" textLength="162.2168" x="356.2478" y="1893.3417">G&#233;rer les signalements</text></g><!--entity UC31--><g class="entity" data-qualified-name="Syst.me Steam.Gestion . Mod.ration.UC31" data-source-line="51" id="ent0038"><ellipse cx="857.2438" cy="1967.6948" fill="#F1F1F1" rx="86.7738" ry="19.7548" style="stroke:#181818;stroke-width:0.5;"/><text fill="#000000" font-family="sans-serif" font-size="14" lengthAdjust="spacing" textLength="146.3984" x="784.0446" y="1972.3432">Analyser statistiques</text></g><!--entity V--><g class="entity" data-qualified-name="V" data-source-line="6" id="ent0002"><ellipse cx="32.6909" cy="1541.04" fill="#F1F1F1" rx="8" ry="8" style="stroke:#181818;stroke-width:0.5;"/><path d="M32.6909,1549.04 L32.6909,1576.04 M19.6909,1557.04 L45.6909,1557.04 M32.6909,1576.04 L19.6909,1591.04 M32.6909,1576.04 L45.6909,1591.04" fill="none" style="stroke:#181818;stroke-width:0.5;"/><text fill="#000000" font-family="sans-serif" font-size="14" lengthAdjust="spacing" textLength="53.3818" x="6" y="1605.5351">Visiteur</text></g><!--entity J--><g class="entity" data-qualified-name="J" data-source-line="7" id="ent0003"><ellipse cx="167.6448" cy="784.04" fill="#F1F1F1" rx="8" ry="8" style="stroke:#181818;stroke-width:0.5;"/><path d="M167.6448,792.04 L167.6448,819.04 M154.6448,800.04 L180.6448,800.04 M167.6448,819.04 L154.6448,834.04 M167.6448,819.04 L180.6448,834.04" fill="none" style="stroke:#181818;stroke-width:0.5;"/><text fill="#000000" font-family="sans-serif" font-size="14" lengthAdjust="spacing" textLength="44.8096" x="145.24" y="848.5351">Joueur</text></g><!--entity D--><g class="entity" data-qualified-name="D" data-source-line="8" id="ent0004"><ellipse cx="167.6454" cy="1927.04" fill="#F1F1F1" rx="8" ry="8" style="stroke:#181818;stroke-width:0.5;"/><path d="M167.6454,1935.04 L167.6454,1962.04 M154.6454,1943.04 L180.6454,1943.04 M167.6454,1962.04 L154.6454,1977.04 M167.6454,1962.04 L180.6454,1977.04" fill="none" style="stroke:#181818;stroke-width:0.5;"/><text fill="#000000" font-family="sans-serif" font-size="14" lengthAdjust="spacing" textLength="44.5908" x="145.35" y="1991.5351">Studio</text></g><!--entity A--><g class="entity" data-qualified-name="A" data-source-line="9" id="ent0005"><ellipse cx="167.6403" cy="1816.04" fill="#F1F1F1" rx="8" ry="8" style="stroke:#181818;stroke-width:0.5;"/><path d="M167.6403,1824.04 L167.6403,1851.04 M154.6403,1832.04 L180.6403,1832.04 M167.6403,1851.04 L154.6403,1866.04 M167.6403,1851.04 L180.6403,1866.04" fill="none" style="stroke:#181818;stroke-width:0.5;"/><text fill="#000000" font-family="sans-serif" font-size="14" lengthAdjust="spacing" textLength="94.5205" x="120.38" y="1880.5351">Admin Steam</text></g><!--reverse link V to J--><g class="link" data-entity-1="ent0002" data-entity-2="ent0003" data-link-type="extension" data-source-line="11" id="lnk6"><path d="M43.5827,1514.3812 C66.3827,1384.5212 137.09,981.93 159.88,852.19" fill="none" id="V-backto-J" style="stroke:#181818;stroke-width:1;"/><polygon fill="none" points="40.47,1532.11,49.4923,1515.4188,37.6731,1513.3436,40.47,1532.11" style="stroke:#181818;stroke-width:1;"/></g><!--link V to UC1--><g class="link" data-entity-1="ent0002" data-entity-2="ent0009" data-link-type="dependency" data-source-line="56" id="lnk39"><path d="M59.6,1547.7 C68.58,1540.57 79.01,1533.15 89.38,1527.69 C102.19,1520.94 106.37,1521.33 120.38,1517.69 C202.94,1496.22 293.3594,1479.0018 357.7494,1467.7618" fill="none" id="V-to-UC1" style="stroke:#181818;stroke-width:1;"/><polygon fill="#181818" points="363.66,1466.73,354.1062,1464.3372,358.7345,1467.5898,355.4819,1472.2181,363.66,1466.73" style="stroke:#181818;stroke-width:1;"/></g><!--link V to UC1b--><g class="link" data-entity-1="ent0002" data-entity-2="ent0010" data-link-type="dependency" data-source-line="57" id="lnk40"><path d="M59.73,1561.4 C68.98,1558.46 79.54,1555.51 89.38,1553.69 C178.6,1537.21 276.6217,1531.9508 347.3317,1530.2908" fill="none" id="V-to-UC1b" style="stroke:#181818;stroke-width:1;"/><polygon fill="#181818" points="353.33,1530.15,344.2386,1526.3623,348.3314,1530.2673,344.4264,1534.3601,353.33,1530.15" style="stroke:#181818;stroke-width:1;"/></g><!--link V to UC1c--><g class="link" data-entity-1="ent0002" data-entity-2="ent0011" data-link-type="dependency" data-source-line="58" id="lnk41"><path d="M59.8,1573.02 C116.27,1578.07 246.0839,1589.6754 338.2039,1597.9154" fill="none" id="V-to-UC1c" style="stroke:#181818;stroke-width:1;"/><polygon fill="#181818" points="344.18,1598.45,335.5722,1593.6641,339.1999,1598.0045,334.8594,1601.6323,344.18,1598.45" style="stroke:#181818;stroke-width:1;"/></g><!--link V to UC5--><g class="link" data-entity-1="ent0002" data-entity-2="ent0018" data-link-type="dependency" data-source-line="59" id="lnk42"><path d="M59.88,1580.59 C100.89,1595.9 182.92,1625.73 253.9,1646.69 C284.57,1655.74 312.6584,1663.0484 342.8584,1670.3584" fill="none" id="V-to-UC5" style="stroke:#181818;stroke-width:1;"/><polygon fill="#181818" points="348.69,1671.77,340.8836,1665.7649,343.8303,1670.5937,339.0016,1673.5404,348.69,1671.77" style="stroke:#181818;stroke-width:1;"/></g><!--link V to UC6--><g class="link" data-entity-1="ent0002" data-entity-2="ent0020" data-link-type="dependency" data-source-line="60" id="lnk43"><path d="M35.22,1609.18 C40,1707.11 58.26,1961.57 120.38,2012.69 C220.39,2094.98 224.43,2402.18 667.83,2010.69 C706.8,1976.28 669.15,1822.05 697.83,1778.69 C716.3,1750.76 740.9079,1732.8021 769.8379,1718.1421" fill="none" id="V-to-UC6" style="stroke:#181818;stroke-width:1;"/><polygon fill="#181818" points="775.19,1715.43,765.3538,1715.9301,770.73,1717.6901,768.97,1723.0662,775.19,1715.43" style="stroke:#181818;stroke-width:1;"/></g><!--link J to UC1d--><g class="link" data-entity-1="ent0003" data-entity-2="ent0012" data-link-type="dependency" data-source-line="63" id="lnk44"><path d="M170.38,852.31 C175.67,951.95 195.02,1214.12 253.9,1273.69 C281.82,1301.93 319.0399,1311.0054 356.4099,1313.1554" fill="none" id="J-to-UC1d" style="stroke:#181818;stroke-width:1;"/><polygon fill="#181818" points="362.4,1313.5,353.6446,1308.9897,357.4083,1313.2128,353.1851,1316.9765,362.4,1313.5" style="stroke:#181818;stroke-width:1;"/></g><!--link J to UC1e--><g class="link" data-entity-1="ent0003" data-entity-2="ent0013" data-link-type="dependency" data-source-line="64" id="lnk45"><path d="M169.32,852.13 C172.06,962.02 185.82,1274.14 253.9,1344.69 C281.03,1372.8 317.2915,1382.0095 354.3015,1384.2995" fill="none" id="J-to-UC1e" style="stroke:#181818;stroke-width:1;"/><polygon fill="#181818" points="360.29,1384.67,351.5542,1380.1218,355.2995,1384.3612,351.0602,1388.1066,360.29,1384.67" style="stroke:#181818;stroke-width:1;"/></g><!--link J to UC1f--><g class="link" data-entity-1="ent0003" data-entity-2="ent0014" data-link-type="dependency" data-source-line="65" id="lnk46"><path d="M177.92,852.1 C189.53,892.87 213.02,956.91 253.9,997.69 C284.39,1028.11 322.2806,1046.6991 359.1806,1059.8991" fill="none" id="J-to-UC1f" style="stroke:#181818;stroke-width:1;"/><polygon fill="#181818" points="364.83,1061.92,357.7032,1055.1223,360.1222,1060.2359,355.0086,1062.6549,364.83,1061.92" style="stroke:#181818;stroke-width:1;"/></g><!--link J to UC2--><g class="link" data-entity-1="ent0003" data-entity-2="ent0015" data-link-type="dependency" data-source-line="66" id="lnk47"><path d="M174.04,852.26 C185.31,927.09 213.68,1087.89 253.9,1124.69 C285.13,1153.27 326.4218,1161.0424 365.0318,1161.9924" fill="none" id="J-to-UC2" style="stroke:#181818;stroke-width:1;"/><polygon fill="#181818" points="371.03,1162.14,362.1311,1157.9198,366.0315,1162.017,361.9343,1165.9174,371.03,1162.14" style="stroke:#181818;stroke-width:1;"/></g><!--link J to UC7--><g class="link" data-entity-1="ent0003" data-entity-2="ent0019" data-link-type="dependency" data-source-line="67" id="lnk48"><path d="M172.17,852.24 C180.85,938.64 206.13,1143.96 253.9,1191.69 C274.34,1212.11 296.7467,1222.0633 324.9467,1227.9533" fill="none" id="J-to-UC7" style="stroke:#181818;stroke-width:1;"/><polygon fill="#181818" points="330.82,1229.18,322.8279,1223.4244,325.9256,1228.1577,321.1923,1231.2554,330.82,1229.18" style="stroke:#181818;stroke-width:1;"/></g><!--link J to UC8--><g class="link" data-entity-1="ent0003" data-entity-2="ent0022" data-link-type="dependency" data-source-line="68" id="lnk49"><path d="M171.3,775.21 C178.46,682.78 201.33,451.96 253.9,398.69 C275.2,377.11 299.3795,367.038 328.9895,361.578" fill="none" id="J-to-UC8" style="stroke:#181818;stroke-width:1;"/><polygon fill="#181818" points="334.89,360.49,325.3139,358.1884,329.9729,361.3967,326.7646,366.0557,334.89,360.49" style="stroke:#181818;stroke-width:1;"/></g><!--link J to UC9--><g class="link" data-entity-1="ent0003" data-entity-2="ent0023" data-link-type="dependency" data-source-line="69" id="lnk50"><path d="M168.22,775.38 C167.85,659.52 173.67,316.66 253.9,248.69 C431.03,98.64 740.1992,277.7212 827.8892,333.9512" fill="none" id="J-to-UC9" style="stroke:#181818;stroke-width:1;"/><polygon fill="#181818" points="832.94,337.19,827.523,328.9647,828.731,334.491,823.2046,335.6991,832.94,337.19" style="stroke:#181818;stroke-width:1;"/></g><!--link J to UC10--><g class="link" data-entity-1="ent0003" data-entity-2="ent0024" data-link-type="dependency" data-source-line="70" id="lnk51"><path d="M168.22,775.38 C167.85,659.52 173.67,316.66 253.9,248.69 C540.38,6 1056.4025,267.9907 1177.5025,335.1307" fill="none" id="J-to-UC10" style="stroke:#181818;stroke-width:1;"/><polygon fill="#181818" points="1182.75,338.04,1176.8183,330.1777,1178.3771,335.6156,1172.9393,337.1744,1182.75,338.04" style="stroke:#181818;stroke-width:1;"/></g><!--link J to UC11--><g class="link" data-entity-1="ent0003" data-entity-2="ent0025" data-link-type="dependency" data-source-line="71" id="lnk52"><path d="M173.37,775.06 C183.83,696.01 211.41,519.78 253.9,478.69 C276.28,457.05 301.6209,447.0504 331.9509,441.7104" fill="none" id="J-to-UC11" style="stroke:#181818;stroke-width:1;"/><polygon fill="#181818" points="337.86,440.67,328.3027,438.2912,332.9357,441.537,329.6899,446.17,337.86,440.67" style="stroke:#181818;stroke-width:1;"/></g><!--link J to UC12--><g class="link" data-entity-1="ent0003" data-entity-2="ent0027" data-link-type="dependency" data-source-line="72" id="lnk53"><path d="M188.65,775.12 C203.76,748.93 226.55,714.97 253.9,691.69 C285.91,664.45 322.2416,645.7536 357.8116,631.1136" fill="none" id="J-to-UC12" style="stroke:#181818;stroke-width:1;"/><polygon fill="#181818" points="363.36,628.83,353.5149,628.5565,358.7363,630.733,356.5598,635.9544,363.36,628.83" style="stroke:#181818;stroke-width:1;"/></g><!--link J to UC13--><g class="link" data-entity-1="ent0003" data-entity-2="ent0026" data-link-type="dependency" data-source-line="73" id="lnk54"><path d="M169.99,775.06 C174.15,718.43 190.53,613.46 253.9,556.69 C277.43,535.61 303.5827,525.9326 334.2827,520.7826" fill="none" id="J-to-UC13" style="stroke:#181818;stroke-width:1;"/><polygon fill="#181818" points="340.2,519.79,330.6623,517.3341,335.2689,520.6172,331.9858,525.2238,340.2,519.79" style="stroke:#181818;stroke-width:1;"/></g><!--link J to UC17--><g class="link" data-entity-1="ent0003" data-entity-2="ent0029" data-link-type="dependency" data-source-line="74" id="lnk55"><path d="M190.4,800.79 C207.24,791.29 231.41,778.68 253.9,770.69 C285.83,759.34 316.2177,751.7724 347.9577,745.3924" fill="none" id="J-to-UC17" style="stroke:#181818;stroke-width:1;"/><polygon fill="#181818" points="353.84,744.21,344.2282,742.062,348.938,745.1953,345.8048,749.9052,353.84,744.21" style="stroke:#181818;stroke-width:1;"/></g><!--link J to UC18--><g class="link" data-entity-1="ent0003" data-entity-2="ent0030" data-link-type="dependency" data-source-line="75" id="lnk56"><path d="M190.1,813.69 C218.89,813.69 266.15,813.69 315.79,813.69" fill="none" id="J-to-UC18" style="stroke:#181818;stroke-width:1;"/><polygon fill="#181818" points="321.79,813.69,312.79,809.69,316.79,813.69,312.79,817.69,321.79,813.69" style="stroke:#181818;stroke-width:1;"/></g><!--link J to UC21--><g class="link" data-entity-1="ent0003" data-entity-2="ent0031" data-link-type="dependency" data-source-line="76" id="lnk57"><path d="M190.37,826.69 C207.19,836.24 231.35,848.87 253.9,856.69 C289.18,868.91 323.8484,876.6138 357.7784,882.5038" fill="none" id="J-to-UC21" style="stroke:#181818;stroke-width:1;"/><polygon fill="#181818" points="363.69,883.53,355.5068,878.0496,358.7637,882.6748,354.1385,885.9317,363.69,883.53" style="stroke:#181818;stroke-width:1;"/></g><!--link J to UC22--><g class="link" data-entity-1="ent0003" data-entity-2="ent0032" data-link-type="dependency" data-source-line="77" id="lnk58"><path d="M186.81,852.14 C201.27,878.45 224.03,911.85 253.9,930.69 C287.15,951.66 324.1762,959.7994 360.0862,963.1694" fill="none" id="J-to-UC22" style="stroke:#181818;stroke-width:1;"/><polygon fill="#181818" points="366.06,963.73,357.4731,958.9066,361.0819,963.2628,356.7256,966.8716,366.06,963.73" style="stroke:#181818;stroke-width:1;"/></g><!--link J to UC23--><g class="link" data-entity-1="ent0003" data-entity-2="ent0033" data-link-type="dependency" data-source-line="78" id="lnk59"><path d="M169.18,775.4 C171.56,669.76 184.42,378.21 253.9,319.69 C394.61,201.18 531.96,195.65 667.83,319.69 C722.04,369.19 676.85,578.34 697.83,648.69 C729.8,755.93 798.841,864.0856 833.571,914.6056" fill="none" id="J-to-UC23" style="stroke:#181818;stroke-width:1;"/><polygon fill="#181818" points="836.97,919.55,835.1677,909.8674,834.1375,915.4297,828.5752,914.3995,836.97,919.55" style="stroke:#181818;stroke-width:1;"/></g><!--link UC2 to UC3--><g class="link" data-entity-1="ent0015" data-entity-2="ent0016" data-link-type="dependency" data-source-line="81" id="lnk60"><path d="M505.97,1157.69 C576.42,1157.69 681.23,1157.69 759.32,1157.69" fill="none" id="UC2-to-UC3" style="stroke:#181818;stroke-width:1;stroke-dasharray:7,7;"/><polygon fill="#181818" points="765.32,1157.69,756.32,1153.69,760.32,1157.69,756.32,1161.69,765.32,1157.69" style="stroke:#181818;stroke-width:1;"/><text fill="#000000" font-family="sans-serif" font-size="13" lengthAdjust="spacing" textLength="63.0068" x="603.83" y="1153.7569">&#171;include&#187;</text></g><!--link UC1c to UC4--><g class="link" data-entity-1="ent0011" data-entity-2="ent0017" data-link-type="dependency" data-source-line="82" id="lnk61"><path d="M537.39,1605.5 C616.8,1604.55 719.8104,1603.3217 787.5904,1602.5117" fill="none" id="UC1c-to-UC4" style="stroke:#181818;stroke-width:1;stroke-dasharray:7,7;"/><polygon fill="#181818" points="793.59,1602.44,784.5428,1598.5478,788.5904,1602.4997,784.6384,1606.5473,793.59,1602.44" style="stroke:#181818;stroke-width:1;"/><text fill="#000000" font-family="sans-serif" font-size="13" lengthAdjust="spacing" textLength="63.0068" x="603.83" y="1600.7569">&#171;include&#187;</text></g><!--link UC8 to UC9--><g class="link" data-entity-1="ent0022" data-entity-2="ent0023" data-link-type="dependency" data-source-line="83" id="lnk62"><path d="M540.32,357.23 C617.15,356.12 714.4106,354.7266 781.6306,353.7566" fill="none" id="UC8-to-UC9" style="stroke:#181818;stroke-width:1;stroke-dasharray:7,7;"/><polygon fill="#181818" points="787.63,353.67,778.5732,349.8003,782.6305,353.7421,778.6887,357.7994,787.63,353.67" style="stroke:#181818;stroke-width:1;"/><text fill="#000000" font-family="sans-serif" font-size="13" lengthAdjust="spacing" textLength="63.0068" x="603.83" y="351.7569">&#171;include&#187;</text></g><!--link UC9 to UC10--><g class="link" data-entity-1="ent0023" data-entity-2="ent0024" data-link-type="dependency" data-source-line="84" id="lnk63"><path d="M926.99,352.69 C989.72,352.69 1075.76,352.69 1137.31,352.69" fill="none" id="UC9-to-UC10" style="stroke:#181818;stroke-width:1;stroke-dasharray:7,7;"/><polygon fill="#181818" points="1143.31,352.69,1134.31,348.69,1138.31,352.69,1134.31,356.69,1143.31,352.69" style="stroke:#181818;stroke-width:1;"/><text fill="#000000" font-family="sans-serif" font-size="13" lengthAdjust="spacing" textLength="63.0068" x="1049.64" y="348.7569">&#171;include&#187;</text></g><!--link UC1 to UC6--><g class="link" data-entity-1="ent0009" data-entity-2="ent0020" data-link-type="dependency" data-source-line="85" id="lnk64"><path d="M519.98,1463.01 C539.58,1468.67 558.86,1477.86 572.83,1492.69 C615.56,1538.06 558.79,1585.57 602.83,1629.69 C628.85,1655.76 658.252,1669.5053 694.172,1678.0253" fill="none" id="UC1-to-UC6" style="stroke:#181818;stroke-width:1;stroke-dasharray:7,7;"/><polygon fill="#181818" points="700.01,1679.41,692.1761,1673.4409,695.145,1678.256,690.3298,1681.2249,700.01,1679.41" style="stroke:#181818;stroke-width:1;"/><text fill="#000000" font-family="sans-serif" font-size="13" lengthAdjust="spacing" textLength="61.1851" x="604.83" y="1625.7569">&#171;extend&#187;</text></g><!--link UC22 to UC23--><g class="link" data-entity-1="ent0032" data-entity-2="ent0033" data-link-type="dependency" data-source-line="86" id="lnk65"><path d="M507.37,961.72 C569.38,959.05 655.8255,955.3179 729.9755,952.1279" fill="none" id="UC22-to-UC23" style="stroke:#181818;stroke-width:1;stroke-dasharray:7,7;"/><polygon fill="#181818" points="735.97,951.87,726.8064,948.2605,730.9746,952.0849,727.1502,956.2531,735.97,951.87" style="stroke:#181818;stroke-width:1;"/><text fill="#000000" font-family="sans-serif" font-size="13" lengthAdjust="spacing" textLength="63.0068" x="603.83" y="951.7569">&#171;include&#187;</text></g><!--link D to UC27--><g class="link" data-entity-1="ent0004" data-entity-2="ent0035" data-link-type="dependency" data-source-line="89" id="lnk66"><path d="M190.1,1957.73 C220.13,1959.19 270.7971,1961.6485 322.1971,1964.1485" fill="none" id="D-to-UC27" style="stroke:#181818;stroke-width:1;"/><polygon fill="#181818" points="328.19,1964.44,319.3949,1960.0075,323.1959,1964.1971,319.0063,1967.9981,328.19,1964.44" style="stroke:#181818;stroke-width:1;"/></g><!--link UC27 to UC31--><g class="link" data-entity-1="ent0035" data-entity-2="ent0038" data-link-type="dependency" data-source-line="90" id="lnk67"><path d="M548.98,1969.16 C618.25,1968.83 700.2101,1968.439 764.2401,1968.129" fill="none" id="UC27-to-UC31" style="stroke:#181818;stroke-width:1;stroke-dasharray:7,7;"/><polygon fill="#181818" points="770.24,1968.1,761.2207,1964.1436,765.2401,1968.1242,761.2595,1972.1435,770.24,1968.1" style="stroke:#181818;stroke-width:1;"/><text fill="#000000" font-family="sans-serif" font-size="13" lengthAdjust="spacing" textLength="63.0068" x="603.83" y="1964.7569">&#171;include&#187;</text></g><!--link A to UC29--><g class="link" data-entity-1="ent0005" data-entity-2="ent0036" data-link-type="dependency" data-source-line="93" id="lnk68"><path d="M215.28,1840.12 C256.1,1835.24 310.1424,1828.772 357.3324,1823.132" fill="none" id="A-to-UC29" style="stroke:#181818;stroke-width:1;"/><polygon fill="#181818" points="363.29,1822.42,353.8789,1819.5163,358.3253,1823.0134,354.8283,1827.4598,363.29,1822.42" style="stroke:#181818;stroke-width:1;"/></g><!--link A to UC30--><g class="link" data-entity-1="ent0005" data-entity-2="ent0037" data-link-type="dependency" data-source-line="94" id="lnk69"><path d="M215.28,1853.18 C255.13,1859.58 307.3161,1867.9576 353.9661,1875.4576" fill="none" id="A-to-UC30" style="stroke:#181818;stroke-width:1;"/><polygon fill="#181818" points="359.89,1876.41,351.639,1871.0321,354.9534,1875.6163,350.3692,1878.9307,359.89,1876.41" style="stroke:#181818;stroke-width:1;"/></g><!--link A to UC31--><g class="link" data-entity-1="ent0005" data-entity-2="ent0038" data-link-type="dependency" data-source-line="95" id="lnk70"><path d="M203.83,1884.07 C207.87,1889.44 211.69,1895.05 214.9,1900.69 C240.82,1946.1 214.06,1977.83 253.9,2011.69 C373.92,2113.68 445.93,2059.86 602.83,2073.69 C631.6,2076.23 639.88,2081.01 667.83,2073.69 C732.09,2056.85 792.7593,2016.2291 827.0393,1990.5291" fill="none" id="A-to-UC31" style="stroke:#181818;stroke-width:1;"/><polygon fill="#181818" points="831.84,1986.93,822.2396,1989.1282,827.8394,1989.9293,827.0384,1995.5291,831.84,1986.93" style="stroke:#181818;stroke-width:1;"/></g><!--link UC30 to UC23--><g class="link" data-entity-1="ent0037" data-entity-2="ent0033" data-link-type="dependency" data-source-line="96" id="lnk71"><path d="M510.28,1875.12 C531.37,1869.25 553.84,1861.04 572.83,1849.69 C624.61,1818.71 643.85,1808.07 667.83,1752.69 C699.28,1680.02 657.21,1108.66 697.83,1040.69 C717.84,1007.2 749.2822,986.7282 782.4422,971.9082" fill="none" id="UC30-to-UC23" style="stroke:#181818;stroke-width:1;stroke-dasharray:7,7;"/><polygon fill="#181818" points="787.92,969.46,778.0712,969.4804,783.3552,971.5001,781.3354,976.7841,787.92,969.46" style="stroke:#181818;stroke-width:1;"/><text fill="#000000" font-family="sans-serif" font-size="13" lengthAdjust="spacing" textLength="63.0068" x="603.83" y="1748.7569">&#171;include&#187;</text></g><?plantuml-src TLNDJjj04BxxALOSoec6c9QG2Y6bb5P5ZLGHbPutwxKziDar-vCMqRvBrHDv3hzOPzTP6piDfs7d-yOpt_n4yDmIguY6ehGa0ysP1IKJSm-oefgkI4NPFItumZuAJhoRoaBm5m1Jqapz05cGd0hpqgELanbJMd9DniT9GfbLcXpSWW7BdJuWr93R-7gjN7oxZcyBwp9GuUr3V9jbAv1aOJbT1SSiIMx9-Q-Z8wGbRNx8VJIsVbxn27rA4XAB8GTpMb03qZyJ_7E6Cshm_IlLJ3aDcc0CHYqLgd0yVEZRvRYF_GZ2QYmDY_NGUbCe3IrssGVFyXnOoKFShDvO2e9aXqwIE-uYXGqeTyfPP527dv30TSHb0nnZzIRx7v3l0TP_YA14WB6O32T6kPA2DP6M3sabztdqaatxcAiyH-bTWweey1MNTWizwKDlwus67BmKX_NV8Whsfe-wLD8u4Sh7k5G0wcj6J51ZGkoOxDiz9IvHEtXmeRvAGKUOz0atdF6rmdxZwAZLYigC-WKmfEBQA2dnowRUyCW-HVRltYIzXwK0PSlw-S4FojD-oGqbopuuX3phCpvBWrCdXdfF-wWlLB8X15TiZuJ6OHhFPeHImjeh6Hc3YVw4hK4uo3KgJF4Oa5UaqYe74Gc3NYuU9Ikrac32P1kiqQrvGNM6DXFAPP6OxWXtYN8xILr8PtSDBJ2emb3_nBjac3F6zoN6c-pVWUzAtvjILQCvBdFP5NisxFmTpaM6HQAA1TwgAdOa7SXoWw6XQEIcQuWvf8CTM421uzB0c9AMIuTIqWeLh3IqUQGdEr9yuiOF7QezLtWST1Z1NL4S3W-67v4vjtXv_4pXYHWkva2P9c9pUBPPHUJqlzqFRMnAURbe9uFfcY7WqRSTnzNY9V7BrcB7eKGiyf3SSB7Tg7ZtyLuV7Ls4UzfQoyvahVcsjKxxaPhVYkGwKhBEv9sPjsRQMfFMEckjQKSvxinnPtPqdF_Mx4ADkrXfHqix6hOSy_yicN1uZaRawYUs8KlGGLw_ze0JyewSdqC3kBX8l0nRrviTrzdMCztnJBUUyV5klAthD7XuI20uqfX3Eam2Ksv-W9CFiOw99qnYqkDTmejVvsGMMTFMn25gpN7Y_z_pyNy0?></g></svg>