<?plantuml 1.2026.2?><svg xmlns="http://www.w3.org/2000/svg" xmlns:xlink="http://www.w3.org/1999/xlink" contentStyleType="text/css" data-diagram-type="DESCRIPTION" height="1003px" preserveAspectRatio="none" style="width:1842px;height:1003px;background:#FFFFFF;" version="1.1" viewBox="0 0 1842 1003" width="1842px" zoomAndPan="magnify"><defs/><g><!--cluster Syst?me VAPEUR--><g class="cluster" data-qualified-name="Syst.me VAPEUR" data-source-line="13" id="ent0004"><rect fill="none" height="865" rx="2.5" ry="2.5" style="stroke:#181818;stroke-width:1;" width="1650.93" x="185.19" y="132.2518"/><text fill="#000000" font-family="sans-serif" font-size="14" font-weight="bold" lengthAdjust="spacing" textLength="136.3291" x="942.4904" y="147.2469">Syst&#232;me VAPEUR</text></g><!--cluster Gestion de Biblioth?que--><g class="cluster" data-qualified-name="Syst.me VAPEUR.Gestion de Biblioth.que" data-source-line="19" id="ent0006"><rect fill="none" height="257" rx="2.5" ry="2.5" style="stroke:#181818;stroke-width:1;" width="250.94" x="1206.13" y="447.2518"/><text fill="#000000" font-family="sans-serif" font-size="14" font-weight="bold" lengthAdjust="spacing" textLength="190.0049" x="1236.5976" y="462.2469">Gestion de Biblioth&#232;que</text></g><!--cluster Magasin & Achats--><g class="cluster" data-qualified-name="Syst.me VAPEUR.Magasin . Achats" data-source-line="26" id="ent0010"><rect fill="none" height="248" rx="2.5" ry="2.5" style="stroke:#181818;stroke-width:1;" width="1256.75" x="209.19" y="175.2518"/><text fill="#000000" font-family="sans-serif" font-size="14" font-weight="bold" lengthAdjust="spacing" textLength="141.4766" x="766.8267" y="190.2469">Magasin &amp; Achats</text></g><!--cluster Espace Communautaire--><g class="cluster" data-qualified-name="Syst.me VAPEUR.Espace Communautaire" data-source-line="39" id="ent0018"><rect fill="none" height="245" rx="2.5" ry="2.5" style="stroke:#181818;stroke-width:1;" width="597.15" x="1214.97" y="728.2518"/><text fill="#000000" font-family="sans-serif" font-size="14" font-weight="bold" lengthAdjust="spacing" textLength="185.7871" x="1420.6514" y="743.2469">Espace Communautaire</text></g><!--entity UC_Login--><g class="entity" data-qualified-name="Syst.me VAPEUR.UC_Login" data-source-line="16" id="ent0005"><ellipse cx="1686.5286" cy="682.2475" fill="#E0FFFF" rx="65.4286" ry="15.4857" style="stroke:#2F4F4F;stroke-width:0.5;"/><text fill="#000000" font-family="sans-serif" font-size="14" lengthAdjust="spacing" textLength="94.6025" x="1639.2274" y="686.8959">S'authentifier</text></g><!--entity UC_Parcourir_Bibli--><g class="entity" data-qualified-name="Syst.me VAPEUR.Gestion de Biblioth.que.UC_Parcourir_Bibli" data-source-line="20" id="ent0007"><ellipse cx="1331.6007" cy="583.2479" fill="#E0FFFF" rx="98.1807" ry="22.0361" style="stroke:#2F4F4F;stroke-width:0.5;"/><text fill="#000000" font-family="sans-serif" font-size="14" lengthAdjust="spacing" textLength="172.04" x="1245.5807" y="587.8963">Parcourir la biblioth&#232;que</text></g><!--entity UC_AjoutBiblio--><g class="entity" data-qualified-name="Syst.me VAPEUR.Gestion de Biblioth.que.UC_AjoutBiblio" data-source-line="21" id="ent0008"><ellipse cx="1331.5976" cy="504.2553" fill="#E0FFFF" rx="98.5176" ry="22.1035" style="stroke:#2F4F4F;stroke-width:0.5;"/><text fill="#000000" font-family="sans-serif" font-size="14" lengthAdjust="spacing" textLength="172.7852" x="1245.205" y="508.9037">Ajouter le jeu au compte</text></g><!--entity UC_Install--><g class="entity" data-qualified-name="Syst.me VAPEUR.Gestion de Biblioth.que.UC_Install" data-source-line="22" id="ent0009"><ellipse cx="1331.6026" cy="664.2563" fill="#E0FFFF" rx="109.4726" ry="24.2945" style="stroke:#2F4F4F;stroke-width:0.5;"/><text fill="#000000" font-family="sans-serif" font-size="14" lengthAdjust="spacing" textLength="196.7383" x="1233.2335" y="668.9047">T&#233;l&#233;charger / Installer le jeu</text></g><!--entity UC_Parcourir--><g class="entity" data-qualified-name="Syst.me VAPEUR.Magasin . Achats.UC_Parcourir" data-source-line="27" id="ent0011"><ellipse cx="318.9561" cy="277.255" fill="#E0FFFF" rx="90.0661" ry="20.4132" style="stroke:#2F4F4F;stroke-width:0.5;"/><text fill="#000000" font-family="sans-serif" font-size="14" lengthAdjust="spacing" textLength="153.8906" x="242.0108" y="281.9034">Parcourir le catalogue</text></g><!--entity UC_Filtrer--><g class="entity" data-qualified-name="Syst.me VAPEUR.Magasin . Achats.UC_Filtrer" data-source-line="28" id="ent0012"><ellipse cx="632.8737" cy="231.2505" fill="#E0FFFF" rx="92.8937" ry="20.9787" style="stroke:#2F4F4F;stroke-width:0.5;"/><text fill="#000000" font-family="sans-serif" font-size="14" lengthAdjust="spacing" textLength="160.2617" x="552.7429" y="235.8989">Filtrer (Prix, Cat&#233;gorie)</text></g><!--entity UC_Consulter--><g class="entity" data-qualified-name="Syst.me VAPEUR.Magasin . Achats.UC_Consulter" data-source-line="29" id="ent0013"><ellipse cx="318.9562" cy="372.255" fill="#E0FFFF" rx="93.7662" ry="21.1532" style="stroke:#2F4F4F;stroke-width:0.5;"/><text fill="#000000" font-family="sans-serif" font-size="14" lengthAdjust="spacing" textLength="162.2168" x="237.8478" y="376.9034">Consulter une fiche jeu</text></g><!--entity UC_AgeCheck--><g class="entity" data-qualified-name="Syst.me VAPEUR.Magasin . Achats.UC_AgeCheck" data-source-line="30" id="ent0014"><ellipse cx="632.8661" cy="386.249" fill="#E0FFFF" rx="90.5861" ry="20.5172" style="stroke:#2F4F4F;stroke-width:0.5;"/><text fill="#000000" font-family="sans-serif" font-size="14" lengthAdjust="spacing" textLength="155.0664" x="555.3329" y="390.8974">V&#233;rifier la limite d'&#226;ge</text></g><!--entity UC_Ajout_Jeu--><g class="entity" data-qualified-name="Syst.me VAPEUR.Magasin . Achats.UC_Ajout_Jeu" data-source-line="31" id="ent0015"><ellipse cx="632.871" cy="309.25" fill="#E0FFFF" rx="97.141" ry="21.8282" style="stroke:#2F4F4F;stroke-width:0.5;"/><text fill="#000000" font-family="sans-serif" font-size="14" lengthAdjust="spacing" textLength="169.7363" x="548.0029" y="313.8984">Ajouter un jeu au panier</text></g><!--entity UC_Achat--><g class="entity" data-qualified-name="Syst.me VAPEUR.Magasin . Achats.UC_Achat" data-source-line="32" id="ent0016"><ellipse cx="970.6379" cy="371.2473" fill="#E0FFFF" rx="117.6279" ry="25.9256" style="stroke:#2F4F4F;stroke-width:0.5;"/><text fill="#000000" font-family="sans-serif" font-size="14" lengthAdjust="spacing" textLength="214.2861" x="863.4949" y="375.8958">Finaliser la commande (Achat)</text></g><!--entity UC_Paiement--><g class="entity" data-qualified-name="Syst.me VAPEUR.Magasin . Achats.UC_Paiement" data-source-line="33" id="ent0017"><ellipse cx="1331.5975" cy="371.2493" fill="#E0FFFF" rx="118.3375" ry="26.0675" style="stroke:#2F4F4F;stroke-width:0.5;"/><text fill="#000000" font-family="sans-serif" font-size="14" lengthAdjust="spacing" textLength="215.8037" x="1223.6956" y="375.8977">Proc&#233;der au paiement en ligne</text></g><!--entity UC_Ajout_Contact--><g class="entity" data-qualified-name="Syst.me VAPEUR.Espace Communautaire.UC_Ajout_Contact" data-source-line="40" id="ent0019"><ellipse cx="1331.5989" cy="858.2475" fill="#E0FFFF" rx="79.6289" ry="18.3258" style="stroke:#2F4F4F;stroke-width:0.5;"/><text fill="#000000" font-family="sans-serif" font-size="14" lengthAdjust="spacing" textLength="129.8008" x="1266.6985" y="862.896">Ajouter un contact</text></g><!--entity UC_Avis--><g class="entity" data-qualified-name="Syst.me VAPEUR.Espace Communautaire.UC_Avis" data-source-line="41" id="ent0020"><ellipse cx="1331.5979" cy="934.2473" fill="#E0FFFF" rx="100.6279" ry="22.5256" style="stroke:#2F4F4F;stroke-width:0.5;"/><text fill="#000000" font-family="sans-serif" font-size="14" lengthAdjust="spacing" textLength="177.4404" x="1242.8777" y="938.8958">Publier un avis sur un jeu</text></g><!--entity UC_CheckPossession--><g class="entity" data-qualified-name="Syst.me VAPEUR.Espace Communautaire.UC_CheckPossession" data-source-line="42" id="ent0021"><ellipse cx="1686.5326" cy="922.2503" fill="#E0FFFF" rx="109.5926" ry="24.3185" style="stroke:#2F4F4F;stroke-width:0.5;"/><text fill="#000000" font-family="sans-serif" font-size="14" lengthAdjust="spacing" textLength="196.998" x="1588.0336" y="926.8987">V&#233;rifier la possession du jeu</text></g><!--entity UC_Signaler--><g class="entity" data-qualified-name="Syst.me VAPEUR.Espace Communautaire.UC_Signaler" data-source-line="43" id="ent0022"><ellipse cx="1331.5984" cy="784.2554" fill="#E0FFFF" rx="92.3184" ry="20.8637" style="stroke:#2F4F4F;stroke-width:0.5;"/><text fill="#000000" font-family="sans-serif" font-size="14" lengthAdjust="spacing" textLength="158.9697" x="1252.1135" y="788.9039">Signaler un avis abusif</text></g><!--entity PaymentAPI--><g class="entity" data-qualified-name="PaymentAPI" data-source-line="9" id="ent0002"><ellipse cx="1331.5987" cy="32.5986" fill="#F1F1F1" rx="8" ry="8" style="stroke:#181818;stroke-width:0.5;"/><path d="M1331.5987,40.5986 L1331.5987,67.5986 M1318.5987,48.5986 L1344.5987,48.5986 M1331.5987,67.5986 L1318.5987,82.5986 M1331.5987,67.5986 L1344.5987,82.5986" fill="none" style="stroke:#181818;stroke-width:0.5;"/><text fill="#000000" font-family="sans-serif" font-size="14" lengthAdjust="spacing" textLength="153.3574" x="1254.92" y="97.0938">Syst&#232;me de Paiement</text><text fill="#000000" font-family="sans-serif" font-size="14" lengthAdjust="spacing" textLength="133.6289" x="1254.92" y="113.3906">(ex: Stripe, PayPal)</text><text fill="#000000" font-family="sans-serif" font-size="14" font-style="italic" lengthAdjust="spacing" textLength="127.7979" x="1267.6998" y="20.7969">&#171;Service Externe&#187;</text></g><!--entity Joueur--><g class="entity" data-qualified-name="Joueur" data-source-line="10" id="ent0003"><ellipse cx="72.0967" cy="634.6018" fill="#F1F1F1" rx="8" ry="8" style="stroke:#181818;stroke-width:0.5;"/><path d="M72.0967,642.6018 L72.0967,669.6018 M59.0967,650.6018 L85.0967,650.6018 M72.0967,669.6018 L59.0967,684.6018 M72.0967,669.6018 L85.0967,684.6018" fill="none" style="stroke:#181818;stroke-width:0.5;"/><text fill="#000000" font-family="sans-serif" font-size="14" lengthAdjust="spacing" textLength="132.1934" x="6" y="699.0969">Utilisateur (Joueur)</text></g><!--link Joueur to UC_Parcourir--><g class="link" data-entity-1="ent0003" data-entity-2="ent0011" data-link-type="association" data-source-line="50" id="lnk23"><path d="M74.79,625.7818 C79.8,558.0818 99.51,416.9018 177.19,333.2518 C196.52,312.4418 224.6,299.2218 250.6,290.8918" fill="none" id="Joueur-UC_Parcourir" style="stroke:#181818;stroke-width:1;"/></g><!--link Joueur to UC_Consulter--><g class="link" data-entity-1="ent0003" data-entity-2="ent0013" data-link-type="association" data-source-line="51" id="lnk24"><path d="M105.36,625.7818 C157.7,563.3718 259.36,442.1318 300.27,393.3418" fill="none" id="Joueur-UC_Consulter" style="stroke:#181818;stroke-width:1;"/></g><!--link Joueur to UC_Install--><g class="link" data-entity-1="ent0003" data-entity-2="ent0009" data-link-type="association" data-source-line="52" id="lnk25"><path d="M138.57,664.2518 C187.89,664.2518 257.17,664.2518 317.96,664.2518 C317.96,664.2518 317.96,664.2518 971.64,664.2518 C1055.61,664.2518 1150.64,664.2518 1221.82,664.2518" fill="none" id="Joueur-UC_Install" style="stroke:#181818;stroke-width:1;"/></g><!--link Joueur to UC_Avis--><g class="link" data-entity-1="ent0003" data-entity-2="ent0020" data-link-type="association" data-source-line="53" id="lnk26"><path d="M87.85,702.6318 C118.63,775.4018 197.02,926.2518 317.96,926.2518 C317.96,926.2518 317.96,926.2518 971.64,926.2518 C1059.53,926.2518 1159.5,928.6818 1231.58,930.8618" fill="none" id="Joueur-UC_Avis" style="stroke:#181818;stroke-width:1;"/></g><!--link Joueur to UC_Signaler--><g class="link" data-entity-1="ent0003" data-entity-2="ent0022" data-link-type="association" data-source-line="54" id="lnk27"><path d="M138.6,697.2218 C186.92,718.5018 254.94,742.2518 317.96,742.2518 C317.96,742.2518 317.96,742.2518 971.64,742.2518 C1072.03,742.2518 1187.15,758.6618 1259.38,770.9618" fill="none" id="Joueur-UC_Signaler" style="stroke:#181818;stroke-width:1;"/></g><!--link Joueur to UC_Parcourir_Bibli--><g class="link" data-entity-1="ent0003" data-entity-2="ent0007" data-link-type="association" data-source-line="55" id="lnk28"><path d="M138.69,632.1318 C187.05,611.3918 255.09,588.2518 317.96,588.2518 C317.96,588.2518 317.96,588.2518 971.64,588.2518 C1060.3,588.2518 1161.26,586.7118 1233.48,585.3318" fill="none" id="Joueur-UC_Parcourir_Bibli" style="stroke:#181818;stroke-width:1;"/></g><!--link Joueur to UC_Ajout_Contact--><g class="link" data-entity-1="ent0003" data-entity-2="ent0019" data-link-type="association" data-source-line="56" id="lnk29"><path d="M104.28,702.8818 C146.98,751.0818 228.59,827.2518 317.96,827.2518 C317.96,827.2518 317.96,827.2518 971.64,827.2518 C1073.13,827.2518 1190.16,839.7018 1262.27,848.8218" fill="none" id="Joueur-UC_Ajout_Contact" style="stroke:#181818;stroke-width:1;"/></g><!--reverse link UC_Parcourir to UC_Filtrer--><g class="link" data-entity-1="ent0011" data-entity-2="ent0012" data-link-type="dependency" data-source-line="62" id="lnk30"><path d="M401.3959,265.2371 C449.4459,258.1571 505.59,249.8718 554.07,242.7218" fill="none" id="UC_Parcourir-backto-UC_Filtrer" style="stroke:#181818;stroke-width:1;stroke-dasharray:7,7;"/><polygon fill="#181818" points="395.46,266.1118,404.947,268.7571,400.4066,265.3829,403.7808,260.8425,395.46,266.1118" style="stroke:#181818;stroke-width:1;"/><text fill="#000000" font-family="sans-serif" font-size="13" lengthAdjust="spacing" textLength="61.1851" x="443.73" y="246.1987">&#171;extend&#187;</text></g><!--reverse link UC_Consulter to UC_AgeCheck--><g class="link" data-entity-1="ent0013" data-entity-2="ent0014" data-link-type="dependency" data-source-line="63" id="lnk31"><path d="M417.424,376.6305 C459.134,378.5005 502.31,380.4318 543.61,382.2918" fill="none" id="UC_Consulter-backto-UC_AgeCheck" style="stroke:#181818;stroke-width:1;stroke-dasharray:7,7;"/><polygon fill="#181818" points="411.43,376.3618,420.2418,380.7608,416.425,376.5857,420.6001,372.7689,411.43,376.3618" style="stroke:#181818;stroke-width:1;"/><text fill="#000000" font-family="sans-serif" font-size="13" lengthAdjust="spacing" textLength="61.1851" x="443.73" y="374.0687">&#171;extend&#187;</text></g><!--reverse link UC_Consulter to UC_Ajout_Jeu--><g class="link" data-entity-1="ent0013" data-entity-2="ent0015" data-link-type="dependency" data-source-line="64" id="lnk32"><path d="M395.8413,356.9243 C446.3113,346.7343 508.37,334.2018 559.39,323.8918" fill="none" id="UC_Consulter-backto-UC_Ajout_Jeu" style="stroke:#181818;stroke-width:1;stroke-dasharray:7,7;"/><polygon fill="#181818" points="389.96,358.1118,399.5736,360.2515,394.8611,357.1222,397.9903,352.4097,389.96,358.1118" style="stroke:#181818;stroke-width:1;"/><text fill="#000000" font-family="sans-serif" font-size="13" lengthAdjust="spacing" textLength="61.1851" x="443.73" y="331.1787">&#171;extend&#187;</text></g><!--reverse link UC_Ajout_Jeu to UC_Achat--><g class="link" data-entity-1="ent0015" data-entity-2="ent0016" data-link-type="dependency" data-source-line="65" id="lnk33"><path d="M687.0184,330.7864 C719.2384,343.7164 751.83,356.4518 760.01,358.2518 C789.66,364.7618 822.19,368.4118 852.6,370.3818" fill="none" id="UC_Ajout_Jeu-backto-UC_Achat" style="stroke:#181818;stroke-width:1;stroke-dasharray:7,7;"/><polygon fill="#181818" points="681.45,328.5518,688.3128,335.6159,686.0903,330.4139,691.2923,328.1914,681.45,328.5518" style="stroke:#181818;stroke-width:1;"/><text fill="#000000" font-family="sans-serif" font-size="13" lengthAdjust="spacing" textLength="61.1851" x="761.01" y="354.3187">&#171;extend&#187;</text></g><!--link UC_Ajout_Jeu to UC_Login--><g class="link" data-entity-1="ent0015" data-entity-2="ent0005" data-link-type="dependency" data-source-line="72" id="lnk34"><path d="M694.34,292.0118 C840.21,254.1318 1218.19,178.3118 1473.94,327.2518 C1609.1,405.9718 1666.0641,602.2261 1680.4241,660.4861" fill="none" id="UC_Ajout_Jeu-to-UC_Login" style="stroke:#181818;stroke-width:1;stroke-dasharray:7,7;"/><polygon fill="#181818" points="1681.86,666.3118,1683.5899,656.616,1680.6634,661.4571,1675.8224,658.5306,1681.86,666.3118" style="stroke:#181818;stroke-width:1;"/><text fill="#000000" font-family="sans-serif" font-size="13" lengthAdjust="spacing" textLength="63.0068" x="1119.26" y="235.4287">&#171;include&#187;</text></g><!--link UC_Install to UC_Login--><g class="link" data-entity-1="ent0009" data-entity-2="ent0005" data-link-type="dependency" data-source-line="73" id="lnk35"><path d="M1438.49,669.6518 C1498.29,672.7018 1565.0378,676.1063 1616.0478,678.7063" fill="none" id="UC_Install-to-UC_Login" style="stroke:#181818;stroke-width:1;stroke-dasharray:7,7;"/><polygon fill="#181818" points="1622.04,679.0118,1613.2553,674.5588,1617.0465,678.7572,1612.8481,682.5484,1622.04,679.0118" style="stroke:#181818;stroke-width:1;"/><text fill="#000000" font-family="sans-serif" font-size="13" lengthAdjust="spacing" textLength="63.0068" x="1482.94" y="668.2387">&#171;include&#187;</text></g><!--link UC_Avis to UC_Login--><g class="link" data-entity-1="ent0020" data-entity-2="ent0005" data-link-type="dependency" data-source-line="74" id="lnk36"><path d="M1405.47,918.6118 C1428,912.4718 1452.51,904.4118 1473.94,894.2518 C1509.7,877.2918 1523.56,875.1818 1546.94,843.2518 C1573.34,807.1818 1549.28,782.3718 1576.94,747.2518 C1595.84,723.2618 1620.7496,708.6041 1644.5796,697.9841" fill="none" id="UC_Avis-to-UC_Login" style="stroke:#181818;stroke-width:1;stroke-dasharray:7,7;"/><polygon fill="#181818" points="1650.06,695.5418,1640.2111,695.5517,1645.493,697.5771,1643.4677,702.8589,1650.06,695.5418" style="stroke:#181818;stroke-width:1;"/><text fill="#000000" font-family="sans-serif" font-size="13" lengthAdjust="spacing" textLength="63.0068" x="1482.94" y="839.3187">&#171;include&#187;</text></g><!--link UC_Signaler to UC_Login--><g class="link" data-entity-1="ent0022" data-entity-2="ent0005" data-link-type="dependency" data-source-line="75" id="lnk37"><path d="M1389.7,767.7518 C1460.81,747.2018 1574.8358,714.2372 1637.9658,695.9972" fill="none" id="UC_Signaler-to-UC_Login" style="stroke:#181818;stroke-width:1;stroke-dasharray:7,7;"/><polygon fill="#181818" points="1643.73,694.3318,1633.9734,692.9871,1638.9265,695.7196,1636.194,700.6727,1643.73,694.3318" style="stroke:#181818;stroke-width:1;"/><text fill="#000000" font-family="sans-serif" font-size="13" lengthAdjust="spacing" textLength="63.0068" x="1482.94" y="720.1787">&#171;include&#187;</text></g><!--link UC_Parcourir_Bibli to UC_Login--><g class="link" data-entity-1="ent0007" data-entity-2="ent0005" data-link-type="dependency" data-source-line="76" id="lnk38"><path d="M1395.25,600.4318 C1419.8,607.1918 1448.2,615.0518 1473.94,622.2518 C1532.77,638.7118 1594.9503,656.3852 1637.6303,668.5652" fill="none" id="UC_Parcourir_Bibli-to-UC_Login" style="stroke:#181818;stroke-width:1;stroke-dasharray:7,7;"/><polygon fill="#181818" points="1643.4,670.2118,1635.8432,663.8955,1638.592,668.8396,1633.6478,671.5884,1643.4,670.2118" style="stroke:#181818;stroke-width:1;"/><text fill="#000000" font-family="sans-serif" font-size="13" lengthAdjust="spacing" textLength="63.0068" x="1482.94" y="621.5087">&#171;include&#187;</text></g><!--link UC_Achat to UC_Paiement--><g class="link" data-entity-1="ent0016" data-entity-2="ent0017" data-link-type="dependency" data-source-line="79" id="lnk39"><path d="M1085.68,377.2318 C1096.69,377.6418 1107.69,378.0018 1118.26,378.2518 C1149.98,379.0118 1178.3433,378.6606 1210.0033,377.6106" fill="none" id="UC_Achat-to-UC_Paiement" style="stroke:#181818;stroke-width:1;stroke-dasharray:7,7;"/><polygon fill="#181818" points="1216,377.4118,1206.8724,373.7123,1211.0027,377.5775,1207.1375,381.7079,1216,377.4118" style="stroke:#181818;stroke-width:1;"/><text fill="#000000" font-family="sans-serif" font-size="13" lengthAdjust="spacing" textLength="63.0068" x="1119.26" y="374.3187">&#171;include&#187;</text></g><!--link UC_Achat to UC_AjoutBiblio--><g class="link" data-entity-1="ent0016" data-entity-2="ent0008" data-link-type="dependency" data-source-line="80" id="lnk40"><path d="M1032.12,393.6618 C1101.46,419.3518 1208.2839,458.9269 1273.5639,483.1169" fill="none" id="UC_Achat-to-UC_AjoutBiblio" style="stroke:#181818;stroke-width:1;stroke-dasharray:7,7;"/><polygon fill="#181818" points="1279.19,485.2018,1272.1407,478.3238,1274.5015,483.4644,1269.3609,485.8253,1279.19,485.2018" style="stroke:#181818;stroke-width:1;"/><text fill="#000000" font-family="sans-serif" font-size="13" lengthAdjust="spacing" textLength="63.0068" x="1119.26" y="421.9087">&#171;include&#187;</text></g><!--link UC_Avis to UC_CheckPossession--><g class="link" data-entity-1="ent0020" data-entity-2="ent0021" data-link-type="dependency" data-source-line="83" id="lnk41"><path d="M1432.4,932.4818 C1468.49,931.7018 1509.56,930.6318 1546.94,929.2518 C1557.53,928.8618 1562.5862,928.6735 1573.6162,928.1735" fill="none" id="UC_Avis-to-UC_CheckPossession" style="stroke:#181818;stroke-width:1;stroke-dasharray:7,7;"/><polygon fill="#181818" points="1579.61,927.9018,1570.4381,924.3134,1574.6151,928.1282,1570.8004,932.3052,1579.61,927.9018" style="stroke:#181818;stroke-width:1;"/><text fill="#000000" font-family="sans-serif" font-size="13" lengthAdjust="spacing" textLength="63.0068" x="1482.94" y="925.3187">&#171;include&#187;</text></g><!--reverse link UC_Ajout_Contact to UC_Login--><g class="link" data-entity-1="ent0019" data-entity-2="ent0005" data-link-type="dependency" data-source-line="84" id="lnk42"><path d="M1402.4929,846.0215 C1427.3629,840.4115 1449.76,833.6118 1473.94,822.2518 C1525.19,798.1618 1529.71,778.4918 1576.94,747.2518 C1604.61,728.9518 1637.42,709.6218 1659.68,696.8518" fill="none" id="UC_Ajout_Contact-backto-UC_Login" style="stroke:#181818;stroke-width:1;stroke-dasharray:7,7;"/><polygon fill="#181818" points="1396.64,847.3418,1406.2996,849.2633,1401.5174,846.2415,1404.5392,841.4594,1396.64,847.3418" style="stroke:#181818;stroke-width:1;"/><text fill="#000000" font-family="sans-serif" font-size="13" lengthAdjust="spacing" textLength="63.0068" x="1482.94" y="767.1887">&#171;include&#187;</text></g><!--link UC_Paiement to PaymentAPI--><g class="link" data-entity-1="ent0017" data-entity-2="ent0002" data-link-type="dependency" data-source-line="89" id="lnk43"><path d="M1331.6,344.7018 C1331.6,268.8418 1331.6,198.9918 1331.6,123.1418" fill="none" id="UC_Paiement-to-PaymentAPI" style="stroke:#181818;stroke-width:1;"/><polygon fill="#181818" points="1331.6,117.1418,1327.6,126.1418,1331.6,122.1418,1335.6,126.1418,1331.6,117.1418" style="stroke:#181818;stroke-width:1;"/></g><?plantuml-src fLRDRjj64BxpAGO-L38GkVV0DU0eRf30HeMepgc0CIP7rCQhNNL_30j5NgOdwpduOfrTSYbIOgBOrK6YThxv--PdAMdXm6amebmwA8IXt0cjCliWr1eDhc2D-GEMD7SRIH34g4f97O2tbACb-2S3_hnZU6cqLyLKIstWEXYURb3LKcqAChNaFPg7kKH77mnkiczPDeB9P0ANkIDlR7ZEC7SCF9blhAkULmG5mGm5hKYvlzIOdjx2t1cnfZTyl9cXF3q1jE4v82vd7-7y7EPa7aLESFNao2Y2YujazjO9AIm6Tp3-f3t_rWRgvopBcjmx4Novd5tTVZvfaerV8vYoJZ7oZJcc3tAzMda5unllFF9fjJsDsCJLoNo4tYqvIh4GPABNs-dTjIw5oXghWOmRNNYc_PsubqAxPVNyjwV8J82qqNqW6xqMUyWKPi_p34sklH469C9z7rv7qIBkehL34vTVjMSoWIFxIXxGXtpNhZKGvNKaXyf_LbjPRVCbcf9D_0eVbNKePMik6MdEeu5l0vpSO8bMg4Csak0NRgKbEdkC1O8SsPCk1nWuLFnTI6SusF7CYAStN7fNRKjj19qcvGPng3hLodePYFFSXmkHBti9j-93pI_LriH62JMJOYKSpyAe-hVSKLxIT4dvm_UBnUtO56kDgjDpKNxtYVnGhYeqR-qsj3GgRh5nfBLDD_uR8DZelDhoiDSUww45KXn-gJf4ru9KvO4wJ-CeyRHKsyDQNrb-x62G5zXWlJiiv5evtW3z_AVruK0UdjkuLiH7OS7wH6LhW8-Fb6ojhILhuupwNir3pMQjzD3CdDb2sV6FzzwAHT9FueQ_k4H_--aFWp-JZ1ihBJsON0oii_5xdbX9YZisLCkUlinDCZtfprRlUDVzlUEq1Ng7aV7UISl3iAjcaVMDzEh-UjxuYY6-MbJ1DmkC_rY7KqMIDnlRBaJpDp1sZR2GrNCO-xKMYcVuaVYYYml8XkLzpoL_MI3T9E7yxAopV-1jBxIiot62fgtnKzYq9mR0Era2XwMm3_nV70kLIrzGJJ8NiqIdUTYFyneLxKjzpxdXcLHUEltypiuksekwpcyNMBRhrwEuqC97GUtm7mFkDVgFyO4n5eGtYM9KR--sOerYMik3aNU1dPl-Htvw-ta__RqTEEYpEwkfnxwRtIkR31yfRzy-cxT5-ufnRAYR65wbkrVH_m00?></g></svg>