<?plantuml 1.2026.2?><svg xmlns="http://www.w3.org/2000/svg" xmlns:xlink="http://www.w3.org/1999/xlink" contentStyleType="text/css" data-diagram-type="ACTIVITY" height="668px" preserveAspectRatio="none" style="width:695px;height:668px;background:#FFFFFF;" version="1.1" viewBox="0 0 695 668" width="695px" zoomAndPan="magnify"><title>Diagramme d'Activit&#233; : G&#233;n&#233;ration des Recommandations Personnelles</title><defs/><g><g class="title" data-source-line="1"><text fill="#000000" font-family="sans-serif" font-size="14" font-weight="bold" lengthAdjust="spacing" textLength="563.6504" x="64.2854" y="32.9951">Diagramme d'Activit&#233; : G&#233;n&#233;ration des Recommandations Personnelles</text></g><ellipse cx="348.062" cy="57.2969" fill="#222222" rx="10" ry="10" style="stroke:#222222;stroke-width:1;"/><rect fill="#F1F1F1" height="33.9688" rx="12.5" ry="12.5" style="stroke:#181818;stroke-width:0.5;" width="202.1738" x="246.9751" y="87.2969"/><text fill="#000000" font-family="sans-serif" font-size="12" lengthAdjust="spacing" textLength="182.1738" x="256.9751" y="108.4355">Identifier l'utilisateur (User ID)</text><rect fill="#F1F1F1" height="33.9688" rx="12.5" ry="12.5" style="stroke:#181818;stroke-width:0.5;" width="370.25" x="162.937" y="141.2656"/><text fill="#000000" font-family="sans-serif" font-size="12" lengthAdjust="spacing" textLength="350.25" x="172.937" y="162.4043">R&#233;cup&#233;rer l'historique des jeux poss&#233;d&#233;s (Library Service)</text><rect fill="#555555" height="6" rx="2.5" ry="2.5" style="stroke:#555555;stroke-width:1;" width="673.2212" x="11" y="195.2344"/><rect fill="#F1F1F1" height="33.9688" rx="12.5" ry="12.5" style="stroke:#181818;stroke-width:0.5;" width="282.1309" x="23.9028" y="221.2344"/><text fill="#000000" font-family="sans-serif" font-size="12" lengthAdjust="spacing" textLength="262.1309" x="33.9028" y="242.373">Analyser les genres/tags des jeux poss&#233;d&#233;s</text><rect fill="#F1F1F1" height="33.9688" rx="12.5" ry="12.5" style="stroke:#181818;stroke-width:0.5;" width="221.0938" x="54.4214" y="275.2031"/><text fill="#000000" font-family="sans-serif" font-size="12" lengthAdjust="spacing" textLength="201.0938" x="64.4214" y="296.3418">Identifier les succ&#232;s d&#233;verrouill&#233;s</text><rect fill="#F1F1F1" height="33.9688" rx="12.5" ry="12.5" style="stroke:#181818;stroke-width:0.5;" width="308.9844" x="348.6353" y="221.2344"/><text fill="#000000" font-family="sans-serif" font-size="12" lengthAdjust="spacing" textLength="288.9844" x="358.6353" y="242.373">Analyser les groupes/amis (Community Service)</text><rect fill="#F1F1F1" height="33.9688" rx="12.5" ry="12.5" style="stroke:#181818;stroke-width:0.5;" width="338.1875" x="334.0337" y="275.2031"/><text fill="#000000" font-family="sans-serif" font-size="12" lengthAdjust="spacing" textLength="318.1875" x="344.0337" y="296.3418">Identifier les jeux populaires chez les amis communs</text><rect fill="#555555" height="6" rx="2.5" ry="2.5" style="stroke:#555555;stroke-width:1;" width="673.2212" x="11" y="329.1719"/><rect fill="#F1F1F1" height="33.9688" rx="12.5" ry="12.5" style="stroke:#181818;stroke-width:0.5;" width="274.2969" x="210.9136" y="355.1719"/><text fill="#000000" font-family="sans-serif" font-size="12" lengthAdjust="spacing" textLength="254.2969" x="220.9136" y="376.3105">Fusionner les donn&#233;es (Weighted Scoring)</text><polygon fill="#F1F1F1" points="282.7764,409.1406,413.3477,409.1406,425.3477,421.1406,413.3477,433.1406,282.7764,433.1406,270.7764,421.1406,282.7764,409.1406" style="stroke:#181818;stroke-width:0.5;"/><text fill="#000000" font-family="sans-serif" font-size="11" lengthAdjust="spacing" textLength="130.5713" x="282.7764" y="424.9487">Score &gt; Seuil_Minimum</text><text fill="#000000" font-family="sans-serif" font-size="11" lengthAdjust="spacing" textLength="16.7578" x="254.0186" y="418.5464">oui</text><text fill="#000000" font-family="sans-serif" font-size="11" lengthAdjust="spacing" textLength="20.6733" x="425.3477" y="418.5464">non</text><rect fill="#F1F1F1" height="33.9688" rx="12.5" ry="12.5" style="stroke:#181818;stroke-width:0.5;" width="319.7012" x="25.1621" y="443.1406"/><text fill="#000000" font-family="sans-serif" font-size="12" lengthAdjust="spacing" textLength="299.7012" x="35.1621" y="464.2793">Indexer les jeux potentiels dans le Search Service</text><rect fill="#F1F1F1" height="33.9688" rx="12.5" ry="12.5" style="stroke:#181818;stroke-width:0.5;" width="324.0254" x="23" y="497.1094"/><text fill="#000000" font-family="sans-serif" font-size="12" lengthAdjust="spacing" textLength="304.0254" x="33" y="518.248">Mettre en cache les Top N pour la semaine (Redis)</text><rect fill="#F1F1F1" height="33.9688" rx="12.5" ry="12.5" style="stroke:#181818;stroke-width:0.5;" width="288.1719" x="367.0254" y="443.1406"/><text fill="#000000" font-family="sans-serif" font-size="12" lengthAdjust="spacing" textLength="264.3574" x="377.0254" y="464.2793">Retourner liste vide ou g&#233;n&#233;rique (Fallback)</text><polygon fill="#F1F1F1" points="348.062,537.0781,360.062,549.0781,348.062,561.0781,336.062,549.0781,348.062,537.0781" style="stroke:#181818;stroke-width:0.5;"/><rect fill="#F1F1F1" height="33.9688" rx="12.5" ry="12.5" style="stroke:#181818;stroke-width:0.5;" width="382.9063" x="156.6089" y="581.0781"/><text fill="#000000" font-family="sans-serif" font-size="12" lengthAdjust="spacing" textLength="362.9063" x="166.6089" y="602.2168">Pr&#233;senter les r&#233;sultats au Frontend (via Discovery Endpoint)</text><ellipse cx="348.062" cy="646.0469" fill="none" rx="11" ry="11" style="stroke:#222222;stroke-width:1;"/><ellipse cx="348.062" cy="646.0469" fill="#222222" rx="6" ry="6" style="stroke:#222222;stroke-width:1;"/><line style="stroke:#181818;stroke-width:1;" x1="348.062" x2="348.062" y1="67.2969" y2="87.2969"/><polygon fill="#181818" points="344.062,77.2969,348.062,87.2969,352.062,77.2969,348.062,81.2969" style="stroke:#181818;stroke-width:1;"/><line style="stroke:#181818;stroke-width:1;" x1="348.062" x2="348.062" y1="121.2656" y2="141.2656"/><polygon fill="#181818" points="344.062,131.2656,348.062,141.2656,352.062,131.2656,348.062,135.2656" style="stroke:#181818;stroke-width:1;"/><line style="stroke:#181818;stroke-width:1;" x1="164.9683" x2="164.9683" y1="255.2031" y2="275.2031"/><polygon fill="#181818" points="160.9683,265.2031,164.9683,275.2031,168.9683,265.2031,164.9683,269.2031" style="stroke:#181818;stroke-width:1;"/><line style="stroke:#181818;stroke-width:1;" x1="503.1274" x2="503.1274" y1="255.2031" y2="275.2031"/><polygon fill="#181818" points="499.1274,265.2031,503.1274,275.2031,507.1274,265.2031,503.1274,269.2031" style="stroke:#181818;stroke-width:1;"/><line style="stroke:#181818;stroke-width:1;" x1="164.9683" x2="164.9683" y1="201.2344" y2="221.2344"/><polygon fill="#181818" points="160.9683,211.2344,164.9683,221.2344,168.9683,211.2344,164.9683,215.2344" style="stroke:#181818;stroke-width:1;"/><line style="stroke:#181818;stroke-width:1;" x1="503.1274" x2="503.1274" y1="201.2344" y2="221.2344"/><polygon fill="#181818" points="499.1274,211.2344,503.1274,221.2344,507.1274,211.2344,503.1274,215.2344" style="stroke:#181818;stroke-width:1;"/><line style="stroke:#181818;stroke-width:1;" x1="164.9683" x2="164.9683" y1="309.1719" y2="329.1719"/><polygon fill="#181818" points="160.9683,319.1719,164.9683,329.1719,168.9683,319.1719,164.9683,323.1719" style="stroke:#181818;stroke-width:1;"/><line style="stroke:#181818;stroke-width:1;" x1="503.1274" x2="503.1274" y1="309.1719" y2="329.1719"/><polygon fill="#181818" points="499.1274,319.1719,503.1274,329.1719,507.1274,319.1719,503.1274,323.1719" style="stroke:#181818;stroke-width:1;"/><line style="stroke:#181818;stroke-width:1;" x1="348.062" x2="348.062" y1="175.2344" y2="195.2344"/><polygon fill="#181818" points="344.062,185.2344,348.062,195.2344,352.062,185.2344,348.062,189.2344" style="stroke:#181818;stroke-width:1;"/><line style="stroke:#181818;stroke-width:1;" x1="348.062" x2="348.062" y1="335.1719" y2="355.1719"/><polygon fill="#181818" points="344.062,345.1719,348.062,355.1719,352.062,345.1719,348.062,349.1719" style="stroke:#181818;stroke-width:1;"/><line style="stroke:#181818;stroke-width:1;" x1="185.0127" x2="185.0127" y1="477.1094" y2="497.1094"/><polygon fill="#181818" points="181.0127,487.1094,185.0127,497.1094,189.0127,487.1094,185.0127,491.1094" style="stroke:#181818;stroke-width:1;"/><line style="stroke:#181818;stroke-width:1;" x1="270.7764" x2="185.0127" y1="421.1406" y2="421.1406"/><line style="stroke:#181818;stroke-width:1;" x1="185.0127" x2="185.0127" y1="421.1406" y2="443.1406"/><polygon fill="#181818" points="181.0127,433.1406,185.0127,443.1406,189.0127,433.1406,185.0127,437.1406" style="stroke:#181818;stroke-width:1;"/><line style="stroke:#181818;stroke-width:1;" x1="425.3477" x2="511.1113" y1="421.1406" y2="421.1406"/><line style="stroke:#181818;stroke-width:1;" x1="511.1113" x2="511.1113" y1="421.1406" y2="443.1406"/><polygon fill="#181818" points="507.1113,433.1406,511.1113,443.1406,515.1113,433.1406,511.1113,437.1406" style="stroke:#181818;stroke-width:1;"/><line style="stroke:#181818;stroke-width:1;" x1="185.0127" x2="185.0127" y1="531.0781" y2="549.0781"/><line style="stroke:#181818;stroke-width:1;" x1="185.0127" x2="336.062" y1="549.0781" y2="549.0781"/><polygon fill="#181818" points="326.062,545.0781,336.062,549.0781,326.062,553.0781,330.062,549.0781" style="stroke:#181818;stroke-width:1;"/><line style="stroke:#181818;stroke-width:1;" x1="511.1113" x2="511.1113" y1="477.1094" y2="549.0781"/><line style="stroke:#181818;stroke-width:1;" x1="511.1113" x2="360.062" y1="549.0781" y2="549.0781"/><polygon fill="#181818" points="370.062,545.0781,360.062,549.0781,370.062,553.0781,366.062,549.0781" style="stroke:#181818;stroke-width:1;"/><line style="stroke:#181818;stroke-width:1;" x1="348.062" x2="348.062" y1="389.1406" y2="409.1406"/><polygon fill="#181818" points="344.062,399.1406,348.062,409.1406,352.062,399.1406,348.062,403.1406" style="stroke:#181818;stroke-width:1;"/><line style="stroke:#181818;stroke-width:1;" x1="348.062" x2="348.062" y1="561.0781" y2="581.0781"/><polygon fill="#181818" points="344.062,571.0781,348.062,581.0781,352.062,571.0781,348.062,575.0781" style="stroke:#181818;stroke-width:1;"/><line style="stroke:#181818;stroke-width:1;" x1="348.062" x2="348.062" y1="615.0469" y2="635.0469"/><polygon fill="#181818" points="344.062,625.0469,348.062,635.0469,352.062,625.0469,348.062,629.0469" style="stroke:#181818;stroke-width:1;"/><?plantuml-src RP91Rjim44NtEiNi8g-wTu02GLCN0PeYi5jqMJ3aM9g68bLoQCGzKNKENQnVj0gaWBKIfU7_R_wCYdgcUp5TCiF0v6xkhCf9T9veIv_cASnJCYenaEDCUxPn64nmzLEc9quvXi3USswQh2Pfitrm75IEmedyJL7naeroITH-o_ZsSB-vRRRxUR9bX7YjwYLhJFAhSBNvoUMLnfZpFBbvojH-bkTaqfaEd4vY6GBDCQQNXl1ixuBnvqKP4DHnI9pVgUdoDQdRovMtY2ZAnThv3oxCqubJYaMyhyMB2PdEIBXcXS8HNcOG87v0C2M8leMyvhK2ZSKR0IdPdd_N7rN6LXKuSt1KMsoskv9b2Vbot-5rdl3IVcVfUcL71uliGWT3ELAxd9ZU0mDj_7YK84CPDgGz1shHscR52evV_sVI1PGzF0ncYxqui4cs_zVGsiyZgy80QjO0lWfyZIDzWGA6x0rb7f0OKxjd9nbOqCGfnB1wxrbHMZl2u9bEufXYeUwoRtKFsftn_jdObmtLDEI8A9uInWBAbNiv5Qz6aLwXNOhuWzpQanZiTBOHqppJn-36A441WYqR_m80?></g></svg>