<?plantuml 1.2026.2?><svg xmlns="http://www.w3.org/2000/svg" xmlns:xlink="http://www.w3.org/1999/xlink" contentStyleType="text/css" data-diagram-type="ACTIVITY" height="678px" preserveAspectRatio="none" style="width:662px;height:678px;background:#FFFFFF;" version="1.1" viewBox="0 0 662 678" width="662px" zoomAndPan="magnify"><title>Diagramme d'Activit&#233; : Onboarding Utilisateur</title><defs/><g><g class="title" data-source-line="1"><text fill="#000000" font-family="sans-serif" font-size="14" font-weight="bold" lengthAdjust="spacing" textLength="367.0146" x="146.1167" y="32.9951">Diagramme d'Activit&#233; : Onboarding Utilisateur</text></g><ellipse cx="316.0962" cy="57.2969" fill="#222222" rx="10" ry="10" style="stroke:#222222;stroke-width:1;"/><rect fill="#F1F1F1" height="33.9688" rx="12.5" ry="12.5" style="stroke:#181818;stroke-width:0.5;" width="212.7441" x="209.7241" y="87.2969"/><text fill="#000000" font-family="sans-serif" font-size="12" lengthAdjust="spacing" textLength="192.7441" x="219.7241" y="108.4355">Utilisateur acc&#232;de &#224; l'inscription</text><rect fill="#F1F1F1" height="33.9688" rx="12.5" ry="12.5" style="stroke:#181818;stroke-width:0.5;" width="294.541" x="168.8257" y="141.2656"/><text fill="#000000" font-family="sans-serif" font-size="12" lengthAdjust="spacing" textLength="274.541" x="178.8257" y="162.4043">Remplir formulaire (Email, Pseudo, Password)</text><rect fill="#F1F1F1" height="33.9688" rx="12.5" ry="12.5" style="stroke:#181818;stroke-width:0.5;" width="159.1484" x="236.522" y="195.2344"/><text fill="#000000" font-family="sans-serif" font-size="12" lengthAdjust="spacing" textLength="139.1484" x="246.522" y="216.373">Soumettre les donn&#233;es</text><rect fill="none" height="428.1094" style="stroke:#000000;stroke-width:1.5;" width="640.248" x="11" y="239.2031"/><path d="M146.6309,239.2031 L146.6309,248.5 L136.6309,258.5 L11,258.5" fill="none" style="stroke:#000000;stroke-width:1.5;"/><text fill="#000000" font-family="sans-serif" font-size="14" lengthAdjust="spacing" textLength="125.6309" x="14" y="253.1982">Syst&#232;me Backend</text><rect fill="#F1F1F1" height="33.9688" rx="12.5" ry="12.5" style="stroke:#181818;stroke-width:0.5;" width="199.2441" x="216.4741" y="275.5"/><text fill="#000000" font-family="sans-serif" font-size="12" lengthAdjust="spacing" textLength="179.2441" x="226.4741" y="296.6387">API Gateway re&#231;oit la requ&#234;te</text><rect fill="#F1F1F1" height="33.9688" rx="12.5" ry="12.5" style="stroke:#181818;stroke-width:0.5;" width="255.7168" x="188.2378" y="329.4688"/><text fill="#000000" font-family="sans-serif" font-size="12" lengthAdjust="spacing" textLength="235.7168" x="198.2378" y="350.6074">V&#233;rification de l'unicit&#233; (Email, Pseudo)</text><polygon fill="#F1F1F1" points="279.5969,383.4375,352.5955,383.4375,364.5955,395.4375,352.5955,407.4375,279.5969,407.4375,267.5969,395.4375,279.5969,383.4375" style="stroke:#181818;stroke-width:0.5;"/><text fill="#000000" font-family="sans-serif" font-size="11" lengthAdjust="spacing" textLength="72.9985" x="279.5969" y="399.2456">Email existe?</text><text fill="#000000" font-family="sans-serif" font-size="11" lengthAdjust="spacing" textLength="18.686" x="248.9109" y="392.8433">Oui</text><text fill="#000000" font-family="sans-serif" font-size="11" lengthAdjust="spacing" textLength="21.9302" x="364.5955" y="392.8433">Non</text><rect fill="#F1F1F1" height="33.9688" rx="12.5" ry="12.5" style="stroke:#181818;stroke-width:0.5;" width="268.0684" x="23" y="417.4375"/><text fill="#000000" font-family="sans-serif" font-size="12" lengthAdjust="spacing" textLength="248.0684" x="33" y="438.5762">Retourner Erreur "Utilisateur d&#233;j&#224; inscrit"</text><ellipse cx="157.0342" cy="482.4063" fill="none" rx="11" ry="11" style="stroke:#222222;stroke-width:1;"/><ellipse cx="157.0342" cy="482.4063" fill="#222222" rx="6" ry="6" style="stroke:#222222;stroke-width:1;"/><rect fill="#F1F1F1" height="33.9688" rx="12.5" ry="12.5" style="stroke:#181818;stroke-width:0.5;" width="157.1855" x="396.5654" y="417.4375"/><text fill="#000000" font-family="sans-serif" font-size="12" lengthAdjust="spacing" textLength="137.1855" x="406.5654" y="438.5762">Hashe le mot de passe</text><rect fill="#F1F1F1" height="33.9688" rx="12.5" ry="12.5" style="stroke:#181818;stroke-width:0.5;" width="328.1797" x="311.0684" y="471.4063"/><text fill="#000000" font-family="sans-serif" font-size="12" lengthAdjust="spacing" textLength="308.1797" x="321.0684" y="492.5449">Cr&#233;er un enregistrement utilisateur (Statut: Activ&#233;)</text><rect fill="#F1F1F1" height="33.9688" rx="12.5" ry="12.5" style="stroke:#181818;stroke-width:0.5;" width="195.834" x="377.2412" y="525.375"/><text fill="#000000" font-family="sans-serif" font-size="12" lengthAdjust="spacing" textLength="175.834" x="387.2412" y="546.5137">Envoyer email de v&#233;rification</text><rect fill="#F1F1F1" height="33.9688" rx="12.5" ry="12.5" style="stroke:#181818;stroke-width:0.5;" width="165.6348" x="392.3408" y="579.3438"/><text fill="#000000" font-family="sans-serif" font-size="12" lengthAdjust="spacing" textLength="145.6348" x="402.3408" y="600.4824">Cr&#233;er un JWT de session</text><ellipse cx="475.1582" cy="644.3125" fill="none" rx="11" ry="11" style="stroke:#222222;stroke-width:1;"/><ellipse cx="475.1582" cy="644.3125" fill="#222222" rx="6" ry="6" style="stroke:#222222;stroke-width:1;"/><line style="stroke:#181818;stroke-width:1;" x1="316.0962" x2="316.0962" y1="67.2969" y2="87.2969"/><polygon fill="#181818" points="312.0962,77.2969,316.0962,87.2969,320.0962,77.2969,316.0962,81.2969" style="stroke:#181818;stroke-width:1;"/><line style="stroke:#181818;stroke-width:1;" x1="316.0962" x2="316.0962" y1="121.2656" y2="141.2656"/><polygon fill="#181818" points="312.0962,131.2656,316.0962,141.2656,320.0962,131.2656,316.0962,135.2656" style="stroke:#181818;stroke-width:1;"/><line style="stroke:#181818;stroke-width:1;" x1="316.0962" x2="316.0962" y1="175.2344" y2="195.2344"/><polygon fill="#181818" points="312.0962,185.2344,316.0962,195.2344,320.0962,185.2344,316.0962,189.2344" style="stroke:#181818;stroke-width:1;"/><line style="stroke:#181818;stroke-width:1;" x1="316.0962" x2="316.0962" y1="309.4688" y2="329.4688"/><polygon fill="#181818" points="312.0962,319.4688,316.0962,329.4688,320.0962,319.4688,316.0962,323.4688" style="stroke:#181818;stroke-width:1;"/><line style="stroke:#181818;stroke-width:1;" x1="157.0342" x2="157.0342" y1="451.4063" y2="471.4063"/><polygon fill="#181818" points="153.0342,461.4063,157.0342,471.4063,161.0342,461.4063,157.0342,465.4063" style="stroke:#181818;stroke-width:1;"/><line style="stroke:#181818;stroke-width:1;" x1="475.1582" x2="475.1582" y1="451.4063" y2="471.4063"/><polygon fill="#181818" points="471.1582,461.4063,475.1582,471.4063,479.1582,461.4063,475.1582,465.4063" style="stroke:#181818;stroke-width:1;"/><line style="stroke:#181818;stroke-width:1;" x1="475.1582" x2="475.1582" y1="505.375" y2="525.375"/><polygon fill="#181818" points="471.1582,515.375,475.1582,525.375,479.1582,515.375,475.1582,519.375" style="stroke:#181818;stroke-width:1;"/><line style="stroke:#181818;stroke-width:1;" x1="475.1582" x2="475.1582" y1="559.3438" y2="579.3438"/><polygon fill="#181818" points="471.1582,569.3438,475.1582,579.3438,479.1582,569.3438,475.1582,573.3438" style="stroke:#181818;stroke-width:1;"/><line style="stroke:#181818;stroke-width:1;" x1="475.1582" x2="475.1582" y1="613.3125" y2="633.3125"/><polygon fill="#181818" points="471.1582,623.3125,475.1582,633.3125,479.1582,623.3125,475.1582,627.3125" style="stroke:#181818;stroke-width:1;"/><line style="stroke:#181818;stroke-width:1;" x1="267.5969" x2="157.0342" y1="395.4375" y2="395.4375"/><line style="stroke:#181818;stroke-width:1;" x1="157.0342" x2="157.0342" y1="395.4375" y2="417.4375"/><polygon fill="#181818" points="153.0342,407.4375,157.0342,417.4375,161.0342,407.4375,157.0342,411.4375" style="stroke:#181818;stroke-width:1;"/><line style="stroke:#181818;stroke-width:1;" x1="364.5955" x2="475.1582" y1="395.4375" y2="395.4375"/><line style="stroke:#181818;stroke-width:1;" x1="475.1582" x2="475.1582" y1="395.4375" y2="417.4375"/><polygon fill="#181818" points="471.1582,407.4375,475.1582,417.4375,479.1582,407.4375,475.1582,411.4375" style="stroke:#181818;stroke-width:1;"/><line style="stroke:#181818;stroke-width:1;" x1="316.0962" x2="316.0962" y1="363.4375" y2="383.4375"/><polygon fill="#181818" points="312.0962,373.4375,316.0962,383.4375,320.0962,373.4375,316.0962,377.4375" style="stroke:#181818;stroke-width:1;"/><line style="stroke:#181818;stroke-width:1;" x1="316.0962" x2="316.0962" y1="229.2031" y2="275.5"/><polygon fill="#181818" points="312.0962,265.5,316.0962,275.5,320.0962,265.5,316.0962,269.5" style="stroke:#181818;stroke-width:1;"/><?plantuml-src RP5BJiCm48RtESMecpOI9qWNY4V5Oq4HvR4syRGTSEmm7XSgn5tOqN0DNmmdHJILyCOF_VFFFv-5n22SabgmgYe4FJmgXLOaiO42flRHATPa5t0dPCWhmS1PvaMnP4Nl3LHPner6Y9zWXcHzoLGBEJlEYXkiQaCCSyTLC8eOOJIf59a3kFOOj4kxylxLiSwJVEP2XI99PT23TjR61lquo-hKb5fF6CpMNk8cvJrMvJDQFO3t3D8gZgulu2mbUbLhO8nVZWICIiUN4By5nrlLVMoOvbIgpYsbDiDWgUocte-MRoje_liE-4PUy307MQA5qJHGtYawtniK5zWYmuIvfJBe8zAnUKfujd1aCFwhy-BgxeB69pPNplOypvLVjYYWSj96hHCgtDKM9vpmC0GBQ1aNAHrZXLOWz5gFPg8aI07TxyOcxnbCxCgjamDsywKEgpwTVpjTFjosGe_UxqbsWrXDy-pZ1m00?></g></svg>