<?xml version="1.0" encoding="utf-8"?>
<!-- Generated by Mocodo 4.3.3 -->
<svg width="850" height="582" viewBox="0 0 850 582" xmlns="http://www.w3.org/2000/svg">
<rect x="0" y="0" width="850" height="582" fill="#fefeec" stroke="none" stroke-width="0"/>

<!-- Association CONTIENIR -->
<g>
	<line x1="55" y1="309" x2="55" y2="125" stroke="#060100" stroke-width="1"/>
	<line x1="207" y1="125" x2="55" y2="125" stroke="#060100" stroke-width="1"/>
	<g>
		<path d="M87 99 a14 14 90 0 1 14 14 V125 h-92 V113 a14 14 90 0 1 14 -14" fill="#081a84" stroke="#081a84" stroke-width="0"/>
		<path d="M101 125 v12 a14 14 90 0 1 -14 14 H23 a14 14 90 0 1 -14 -14 V125 H92" fill="#fefeec" stroke="#fefeec" stroke-width="0"/>
		<rect x="9" y="99" width="92" height="52" fill="none" rx="14" stroke="#060100" stroke-width="1.5"/>
		<line x1="9" y1="125" x2="101" y2="125" stroke="#060100" stroke-width="1"/>
		<text x="17" y="117.6" fill="#fefeec" font-family="Courier New" font-size="14">Contienir</text>
	</g>
	<text x="60" y="275" fill="#060100" font-family="Courier New" font-size="12">1,N</text>
	<text x="106" y="141" fill="#060100" font-family="Courier New" font-size="12">1,N</text>
</g>

<!-- Association DISCUTER -->
<g>
	<line x1="490" y1="125" x2="354" y2="125" stroke="#060100" stroke-width="1"/>
	<line x1="207" y1="125" x2="354" y2="125" stroke="#060100" stroke-width="1"/>
	<g>
		<path d="M381 99 a14 14 90 0 1 14 14 V125 h-82 V113 a14 14 90 0 1 14 -14" fill="#081a84" stroke="#081a84" stroke-width="0"/>
		<path d="M395 125 v12 a14 14 90 0 1 -14 14 H327 a14 14 90 0 1 -14 -14 V125 H82" fill="#fefeec" stroke="#fefeec" stroke-width="0"/>
		<rect x="313" y="99" width="82" height="52" fill="none" rx="14" stroke="#060100" stroke-width="1.5"/>
		<line x1="313" y1="125" x2="395" y2="125" stroke="#060100" stroke-width="1"/>
		<text x="320" y="117.6" fill="#fefeec" font-family="Courier New" font-size="14">Discuter</text>
	</g>
	<text x="402" y="141" fill="#060100" font-family="Courier New" font-size="12">1,1</text>
	<text x="285" y="141" fill="#060100" font-family="Courier New" font-size="12">1,1</text>
</g>

<!-- Association REGROUPER -->
<g>
	<line x1="490" y1="125" x2="629" y2="125" stroke="#060100" stroke-width="1"/>
	<line x1="768" y1="125" x2="629" y2="125" stroke="#060100" stroke-width="1"/>
	<g>
		<path d="M661 99 a14 14 90 0 1 14 14 V125 h-92 V113 a14 14 90 0 1 14 -14" fill="#081a84" stroke="#081a84" stroke-width="0"/>
		<path d="M675 125 v12 a14 14 90 0 1 -14 14 H597 a14 14 90 0 1 -14 -14 V125 H92" fill="#fefeec" stroke="#fefeec" stroke-width="0"/>
		<rect x="583" y="99" width="92" height="52" fill="none" rx="14" stroke="#060100" stroke-width="1.5"/>
		<line x1="583" y1="125" x2="675" y2="125" stroke="#060100" stroke-width="1"/>
		<text x="591" y="117.6" fill="#fefeec" font-family="Courier New" font-size="14">Regrouper</text>
	</g>
	<text x="555" y="117" fill="#060100" font-family="Courier New" font-size="12">1,N</text>
	<text x="680" y="141" fill="#060100" font-family="Courier New" font-size="12">1,N</text>
</g>

<!-- Association DEBLOQUER -->
<g>
	<line x1="207" y1="125" x2="207" y2="309" stroke="#060100" stroke-width="1"/>
	<line x1="354" y1="309" x2="207" y2="309" stroke="#060100" stroke-width="1"/>
	<g>
		<path d="M239 283 a14 14 90 0 1 14 14 V309 h-92 V297 a14 14 90 0 1 14 -14" fill="#081a84" stroke="#081a84" stroke-width="0"/>
		<path d="M253 309 v12 a14 14 90 0 1 -14 14 H175 a14 14 90 0 1 -14 -14 V309 H92" fill="#fefeec" stroke="#fefeec" stroke-width="0"/>
		<rect x="161" y="283" width="92" height="52" fill="none" rx="14" stroke="#060100" stroke-width="1.5"/>
		<line x1="161" y1="309" x2="253" y2="309" stroke="#060100" stroke-width="1"/>
		<text x="169" y="301.6" fill="#fefeec" font-family="Courier New" font-size="14">Débloquer</text>
	</g>
	<text x="212" y="257" fill="#060100" font-family="Courier New" font-size="12">1,N</text>
	<text x="270" y="325" fill="#060100" font-family="Courier New" font-size="12">1,1</text>
</g>

<!-- Association REALISER -->
<g>
	<line x1="490" y1="475" x2="490" y2="309" stroke="#060100" stroke-width="1"/>
	<line x1="354" y1="309" x2="490" y2="309" stroke="#060100" stroke-width="1"/>
	<g>
		<path d="M517 283 a14 14 90 0 1 14 14 V309 h-82 V297 a14 14 90 0 1 14 -14" fill="#081a84" stroke="#081a84" stroke-width="0"/>
		<path d="M531 309 v12 a14 14 90 0 1 -14 14 H463 a14 14 90 0 1 -14 -14 V309 H82" fill="#fefeec" stroke="#fefeec" stroke-width="0"/>
		<rect x="449" y="283" width="82" height="52" fill="none" rx="14" stroke="#060100" stroke-width="1.5"/>
		<line x1="449" y1="309" x2="531" y2="309" stroke="#060100" stroke-width="1"/>
		<text x="456" y="301.6" fill="#fefeec" font-family="Courier New" font-size="14">Réaliser</text>
	</g>
	<text x="462" y="369" fill="#060100" font-family="Courier New" font-size="12">1,N</text>
	<text x="415" y="325" fill="#060100" font-family="Courier New" font-size="12">1,N</text>
</g>

<!-- Association APPARTENIR -->
<g>
	<line x1="490" y1="475" x2="629" y2="309" stroke="#060100" stroke-width="1"/>
	<line x1="490" y1="125" x2="629" y2="309" stroke="#060100" stroke-width="1"/>
	<g>
		<path d="M665 283 a14 14 90 0 1 14 14 V309 h-100 V297 a14 14 90 0 1 14 -14" fill="#081a84" stroke="#081a84" stroke-width="0"/>
		<path d="M679 309 v12 a14 14 90 0 1 -14 14 H593 a14 14 90 0 1 -14 -14 V309 H100" fill="#fefeec" stroke="#fefeec" stroke-width="0"/>
		<rect x="579" y="283" width="100" height="52" fill="none" rx="14" stroke="#060100" stroke-width="1.5"/>
		<line x1="579" y1="309" x2="679" y2="309" stroke="#060100" stroke-width="1"/>
		<text x="587" y="301.6" fill="#fefeec" font-family="Courier New" font-size="14">Appartenir</text>
	</g>
	<text x="550.25" y="369" fill="#060100" font-family="Courier New" font-size="12">1,N</text>
	<text x="514.53" y="203" fill="#060100" font-family="Courier New" font-size="12">1,N</text>
</g>

<!-- Association CONTENIR -->
<g>
	<line x1="768" y1="125" x2="768" y2="309" stroke="#060100" stroke-width="1"/>
	<line x1="768" y1="475" x2="768" y2="309" stroke="#060100" stroke-width="1"/>
	<g>
		<path d="M795 283 a14 14 90 0 1 14 14 V309 h-82 V297 a14 14 90 0 1 14 -14" fill="#081a84" stroke="#081a84" stroke-width="0"/>
		<path d="M809 309 v12 a14 14 90 0 1 -14 14 H741 a14 14 90 0 1 -14 -14 V309 H82" fill="#fefeec" stroke="#fefeec" stroke-width="0"/>
		<rect x="727" y="283" width="82" height="52" fill="none" rx="14" stroke="#060100" stroke-width="1.5"/>
		<line x1="727" y1="309" x2="809" y2="309" stroke="#060100" stroke-width="1"/>
		<text x="734" y="301.6" fill="#fefeec" font-family="Courier New" font-size="14">Contenir</text>
	</g>
	<text x="773" y="194" fill="#060100" font-family="Courier New" font-size="12">1,N</text>
	<text x="773" y="423" fill="#060100" font-family="Courier New" font-size="12">1,N</text>
</g>

<!-- Association POSSEDER -->
<g>
	<line x1="490" y1="475" x2="55" y2="475" stroke="#060100" stroke-width="1"/>
	<line x1="55" y1="309" x2="55" y2="475" stroke="#060100" stroke-width="1"/>
	<g>
		<path d="M82 449 a14 14 90 0 1 14 14 V475 h-82 V463 a14 14 90 0 1 14 -14" fill="#081a84" stroke="#081a84" stroke-width="0"/>
		<path d="M96 475 v12 a14 14 90 0 1 -14 14 H28 a14 14 90 0 1 -14 -14 V475 H82" fill="#fefeec" stroke="#fefeec" stroke-width="0"/>
		<rect x="14" y="449" width="82" height="52" fill="none" rx="14" stroke="#060100" stroke-width="1.5"/>
		<line x1="14" y1="475" x2="96" y2="475" stroke="#060100" stroke-width="1"/>
		<text x="21" y="467.6" fill="#fefeec" font-family="Courier New" font-size="14">Posséder</text>
	</g>
	<text x="359" y="491" fill="#060100" font-family="Courier New" font-size="12">1,1</text>
	<text x="60" y="351" fill="#060100" font-family="Courier New" font-size="12">1,1</text>
</g>

<!-- Entity JEU -->
<g>
	<g>
		<rect x="134" y="9" width="146" height="26" fill="#c6281b" stroke="none" stroke-width="0" opacity="1"/>
		<rect x="134" y="35" width="146" height="206" fill="#fced5f" stroke="none" stroke-width="0" opacity="1"/>
		<rect x="134" y="9" width="146" height="232" fill="none" stroke="#060100" stroke-width="1.5" opacity="1"/>
		<line x1="134" y1="35" x2="280" y2="35" stroke="#060100" stroke-width="1"/>
	</g>
	<text x="194" y="27.6" fill="#fefeec" font-family="Courier New" font-size="14">JEU</text>
	<text x="139" y="53.6" fill="#060100" font-family="Courier New" font-size="14">id</text>
	<line x1="139" y1="56" x2="157" y2="56" stroke="#060100" stroke-width="1"/>
	<text x="139" y="71.6" fill="#060100" font-family="Courier New" font-size="14">titre</text>
	<text x="139" y="89.6" fill="#060100" font-family="Courier New" font-size="14">description</text>
	<text x="139" y="107.6" fill="#060100" font-family="Courier New" font-size="14">prix</text>
	<text x="139" y="125.6" fill="#060100" font-family="Courier New" font-size="14">editeur</text>
	<text x="139" y="143.6" fill="#060100" font-family="Courier New" font-size="14">age_minimum</text>
	<text x="139" y="161.6" fill="#060100" font-family="Courier New" font-size="14">taille_go</text>
	<text x="139" y="179.6" fill="#060100" font-family="Courier New" font-size="14">note_moyenne</text>
	<text x="139" y="197.6" fill="#060100" font-family="Courier New" font-size="14">nbr_avis</text>
	<text x="139" y="215.6" fill="#060100" font-family="Courier New" font-size="14">image_couverture</text>
	<text x="139" y="233.6" fill="#060100" font-family="Courier New" font-size="14">date_publication</text>
</g>

<!-- Entity COMMUNAUTE -->
<g>
	<g>
		<rect x="430" y="63" width="120" height="26" fill="#c6281b" stroke="none" stroke-width="0" opacity="1"/>
		<rect x="430" y="89" width="120" height="98" fill="#fced5f" stroke="none" stroke-width="0" opacity="1"/>
		<rect x="430" y="63" width="120" height="124" fill="none" stroke="#060100" stroke-width="1.5" opacity="1"/>
		<line x1="430" y1="89" x2="550" y2="89" stroke="#060100" stroke-width="1"/>
	</g>
	<text x="448" y="81.6" fill="#fefeec" font-family="Courier New" font-size="14">COMMUNAUTE</text>
	<text x="435" y="107.6" fill="#060100" font-family="Courier New" font-size="14">id</text>
	<line x1="435" y1="110" x2="453" y2="110" stroke="#060100" stroke-width="1"/>
	<text x="435" y="125.6" fill="#060100" font-family="Courier New" font-size="14">nom</text>
	<text x="435" y="143.6" fill="#060100" font-family="Courier New" font-size="14">description</text>
	<text x="435" y="161.6" fill="#060100" font-family="Courier New" font-size="14">est_public</text>
	<text x="435" y="179.6" fill="#060100" font-family="Courier New" font-size="14">date_creation</text>
</g>

<!-- Entity DISCUSSION -->
<g>
	<g>
		<rect x="708" y="72" width="120" height="26" fill="#c6281b" stroke="none" stroke-width="0" opacity="1"/>
		<rect x="708" y="98" width="120" height="80" fill="#fced5f" stroke="none" stroke-width="0" opacity="1"/>
		<rect x="708" y="72" width="120" height="106" fill="none" stroke="#060100" stroke-width="1.5" opacity="1"/>
		<line x1="708" y1="98" x2="828" y2="98" stroke="#060100" stroke-width="1"/>
	</g>
	<text x="726" y="90.6" fill="#fefeec" font-family="Courier New" font-size="14">DISCUSSION</text>
	<text x="713" y="116.6" fill="#060100" font-family="Courier New" font-size="14">id</text>
	<line x1="713" y1="119" x2="731" y2="119" stroke="#060100" stroke-width="1"/>
	<text x="713" y="134.6" fill="#060100" font-family="Courier New" font-size="14">titre</text>
	<text x="713" y="152.6" fill="#060100" font-family="Courier New" font-size="14">statut</text>
	<text x="713" y="170.6" fill="#060100" font-family="Courier New" font-size="14">date_creation</text>
</g>

<!-- Entity LIBRAIRIE -->
<g>
	<g>
		<rect x="11" y="283" width="88" height="26" fill="#c6281b" stroke="none" stroke-width="0" opacity="1"/>
		<rect x="11" y="309" width="88" height="26" fill="#fced5f" stroke="none" stroke-width="0" opacity="1"/>
		<rect x="11" y="283" width="88" height="52" fill="none" stroke="#060100" stroke-width="1.5" opacity="1"/>
		<line x1="11" y1="309" x2="99" y2="309" stroke="#060100" stroke-width="1"/>
	</g>
	<text x="17" y="301.6" fill="#fefeec" font-family="Courier New" font-size="14">LIBRAIRIE</text>
	<text x="16" y="327.6" fill="#060100" font-family="Courier New" font-size="14">id</text>
	<line x1="16" y1="330" x2="34" y2="330" stroke="#060100" stroke-width="1"/>
</g>

<!-- Entity SUCCES -->
<g>
	<g>
		<rect x="298" y="265" width="112" height="26" fill="#c6281b" stroke="none" stroke-width="0" opacity="1"/>
		<rect x="298" y="291" width="112" height="62" fill="#fced5f" stroke="none" stroke-width="0" opacity="1"/>
		<rect x="298" y="265" width="112" height="88" fill="none" stroke="#060100" stroke-width="1.5" opacity="1"/>
		<line x1="298" y1="291" x2="410" y2="291" stroke="#060100" stroke-width="1"/>
	</g>
	<text x="328" y="283.6" fill="#fefeec" font-family="Courier New" font-size="14">SUCCES</text>
	<text x="303" y="309.6" fill="#060100" font-family="Courier New" font-size="14">id</text>
	<line x1="303" y1="312" x2="321" y2="312" stroke="#060100" stroke-width="1"/>
	<text x="303" y="327.6" fill="#060100" font-family="Courier New" font-size="14">nom</text>
	<text x="303" y="345.6" fill="#060100" font-family="Courier New" font-size="14">est_debloque</text>
</g>

<!-- Entity UTILISATEUR -->
<g>
	<g>
		<rect x="387" y="377" width="206" height="26" fill="#c6281b" stroke="none" stroke-width="0" opacity="1"/>
		<rect x="387" y="403" width="206" height="170" fill="#fced5f" stroke="none" stroke-width="0" opacity="1"/>
		<rect x="387" y="377" width="206" height="196" fill="none" stroke="#060100" stroke-width="1.5" opacity="1"/>
		<line x1="387" y1="403" x2="593" y2="403" stroke="#060100" stroke-width="1"/>
	</g>
	<text x="443" y="395.6" fill="#fefeec" font-family="Courier New" font-size="14">UTILISATEUR</text>
	<text x="392" y="421.6" fill="#060100" font-family="Courier New" font-size="14">id</text>
	<line x1="392" y1="424" x2="410" y2="424" stroke="#060100" stroke-width="1"/>
	<text x="392" y="439.6" fill="#060100" font-family="Courier New" font-size="14">pseudo</text>
	<text x="392" y="457.6" fill="#060100" font-family="Courier New" font-size="14">email</text>
	<text x="392" y="475.6" fill="#060100" font-family="Courier New" font-size="14">tag</text>
	<text x="392" y="493.6" fill="#060100" font-family="Courier New" font-size="14">password_hash</text>
	<text x="392" y="511.6" fill="#060100" font-family="Courier New" font-size="14">biographie</text>
	<text x="392" y="529.6" fill="#060100" font-family="Courier New" font-size="14">date_derniere_connexion</text>
	<text x="392" y="547.6" fill="#060100" font-family="Courier New" font-size="14">date_creation</text>
	<text x="392" y="565.6" fill="#060100" font-family="Courier New" font-size="14">date_modification</text>
</g>

<!-- Entity COMMENTAIRE -->
<g>
	<g>
		<rect x="695" y="431" width="146" height="26" fill="#c6281b" stroke="none" stroke-width="0" opacity="1"/>
		<rect x="695" y="457" width="146" height="62" fill="#fced5f" stroke="none" stroke-width="0" opacity="1"/>
		<rect x="695" y="431" width="146" height="88" fill="none" stroke="#060100" stroke-width="1.5" opacity="1"/>
		<line x1="695" y1="457" x2="841" y2="457" stroke="#060100" stroke-width="1"/>
	</g>
	<text x="721" y="449.6" fill="#fefeec" font-family="Courier New" font-size="14">COMMENTAIRE</text>
	<text x="700" y="475.6" fill="#060100" font-family="Courier New" font-size="14">id</text>
	<line x1="700" y1="478" x2="718" y2="478" stroke="#060100" stroke-width="1"/>
	<text x="700" y="493.6" fill="#060100" font-family="Courier New" font-size="14">contenu</text>
	<text x="700" y="511.6" fill="#060100" font-family="Courier New" font-size="14">date_publication</text>
</g>
</svg>