<?plantuml 1.2026.2?><svg xmlns="http://www.w3.org/2000/svg" xmlns:xlink="http://www.w3.org/1999/xlink" contentStyleType="text/css" data-diagram-type="SEQUENCE" height="465px" preserveAspectRatio="none" style="width:1342px;height:465px;background:#FFFFFF;" version="1.1" viewBox="0 0 1342 465" width="1342px" zoomAndPan="magnify"><title>Diagramme de S&#233;quence : Soumission d'un Avis Utilisateur</title><defs/><g><text fill="#000000" font-family="sans-serif" font-size="14" font-weight="bold" lengthAdjust="spacing" textLength="467.7012" x="438.7263" y="27.9951">Diagramme de S&#233;quence : Soumission d'un Avis Utilisateur</text><g><title>ApiGateway</title><rect fill="#FFFFFF" height="196.7969" style="stroke:#181818;stroke-width:1;" width="10" x="693.5488" y="178.8594"/></g><g><title>ReviewService</title><rect fill="#FFFFFF" height="100.3984" style="stroke:#181818;stroke-width:1;" width="10" x="912.9829" y="207.9922"/></g><g class="participant-lifeline" data-entity-uid="part1" data-qualified-name="Utilisateur" id="part1-lifeline"><g><title>Utilisateur</title><rect fill="#000000" fill-opacity="0.00000" height="266.0625" width="8" x="40.0049" y="118.5938"/><line style="stroke:#181818;stroke-width:0.5;stroke-dasharray:5,5;" x1="44" x2="44" y1="118.5938" y2="384.6563"/></g></g><g class="participant-lifeline" data-entity-uid="part2" data-qualified-name="WebClient" id="part2-lifeline"><g><title>WebClient</title><rect fill="#000000" fill-opacity="0.00000" height="266.0625" width="8" x="355.9146" y="118.5938"/><line style="stroke:#181818;stroke-width:0.5;stroke-dasharray:5,5;" x1="358.978" x2="358.978" y1="118.5938" y2="384.6563"/></g></g><g class="participant-lifeline" data-entity-uid="part3" data-qualified-name="ApiGateway" id="part3-lifeline"><g><title>ApiGateway</title><rect fill="#000000" fill-opacity="0.00000" height="266.0625" width="8" x="694.5488" y="118.5938"/><line style="stroke:#181818;stroke-width:0.5;stroke-dasharray:5,5;" x1="698.4497" x2="698.4497" y1="118.5938" y2="384.6563"/></g></g><g class="participant-lifeline" data-entity-uid="part4" data-qualified-name="ReviewService" id="part4-lifeline"><g><title>ReviewService</title><rect fill="#000000" fill-opacity="0.00000" height="266.0625" width="8" x="913.9829" y="118.5938"/><line style="stroke:#181818;stroke-width:0.5;stroke-dasharray:5,5;" x1="917.8228" x2="917.8228" y1="118.5938" y2="384.6563"/></g></g><g class="participant-lifeline" data-entity-uid="part5" data-qualified-name="MongoDB" id="part5-lifeline"><g><title>MongoDB</title><rect fill="#000000" fill-opacity="0.00000" height="266.0625" width="8" x="1300.4766" y="118.5938"/><line style="stroke:#181818;stroke-width:0.5;stroke-dasharray:5,5;" x1="1303.7993" x2="1303.7993" y1="118.5938" y2="384.6563"/></g></g><g class="participant participant-head" data-entity-uid="part1" data-qualified-name="Utilisateur" id="part1-head"><text fill="#000000" font-family="sans-serif" font-size="14" lengthAdjust="spacing" textLength="72.0098" x="5" y="115.292">Utilisateur</text><ellipse cx="44.0049" cy="50.7969" fill="#E2E2F0" rx="8" ry="8" style="stroke:#181818;stroke-width:0.5;"/><path d="M44.0049,58.7969 L44.0049,85.7969 M31.0049,66.7969 L57.0049,66.7969 M44.0049,85.7969 L31.0049,100.7969 M44.0049,85.7969 L57.0049,100.7969" fill="none" style="stroke:#181818;stroke-width:0.5;"/></g><g class="participant participant-tail" data-entity-uid="part1" data-qualified-name="Utilisateur" id="part1-tail"><text fill="#000000" font-family="sans-serif" font-size="14" lengthAdjust="spacing" textLength="72.0098" x="5" y="396.6514">Utilisateur</text><ellipse cx="44.0049" cy="408.4531" fill="#E2E2F0" rx="8" ry="8" style="stroke:#181818;stroke-width:0.5;"/><path d="M44.0049,416.4531 L44.0049,443.4531 M31.0049,424.4531 L57.0049,424.4531 M44.0049,443.4531 L31.0049,458.4531 M44.0049,443.4531 L57.0049,458.4531" fill="none" style="stroke:#181818;stroke-width:0.5;"/></g><g class="participant participant-head" data-entity-uid="part2" data-qualified-name="WebClient" id="part2-head"><rect fill="#E2E2F0" height="30.2969" rx="2.5" ry="2.5" style="stroke:#181818;stroke-width:0.5;" width="85.873" x="316.978" y="87.2969"/><text fill="#000000" font-family="sans-serif" font-size="14" lengthAdjust="spacing" textLength="71.873" x="323.978" y="107.292">WebClient</text></g><g class="participant participant-tail" data-entity-uid="part2" data-qualified-name="WebClient" id="part2-tail"><rect fill="#E2E2F0" height="30.2969" rx="2.5" ry="2.5" style="stroke:#181818;stroke-width:0.5;" width="85.873" x="316.978" y="383.6563"/><text fill="#000000" font-family="sans-serif" font-size="14" lengthAdjust="spacing" textLength="71.873" x="323.978" y="403.6514">WebClient</text></g><g class="participant participant-head" data-entity-uid="part3" data-qualified-name="ApiGateway" id="part3-head"><rect fill="#E2E2F0" height="30.2969" rx="2.5" ry="2.5" style="stroke:#181818;stroke-width:0.5;" width="98.1982" x="649.4497" y="87.2969"/><text fill="#000000" font-family="sans-serif" font-size="14" lengthAdjust="spacing" textLength="84.1982" x="656.4497" y="107.292">ApiGateway</text></g><g class="participant participant-tail" data-entity-uid="part3" data-qualified-name="ApiGateway" id="part3-tail"><rect fill="#E2E2F0" height="30.2969" rx="2.5" ry="2.5" style="stroke:#181818;stroke-width:0.5;" width="98.1982" x="649.4497" y="383.6563"/><text fill="#000000" font-family="sans-serif" font-size="14" lengthAdjust="spacing" textLength="84.1982" x="656.4497" y="403.6514">ApiGateway</text></g><g class="participant participant-head" data-entity-uid="part4" data-qualified-name="ReviewService" id="part4-head"><rect fill="#E2E2F0" height="30.2969" rx="2.5" ry="2.5" style="stroke:#181818;stroke-width:0.5;" width="116.3203" x="859.8228" y="87.2969"/><text fill="#000000" font-family="sans-serif" font-size="14" lengthAdjust="spacing" textLength="102.3203" x="866.8228" y="107.292">ReviewService</text></g><g class="participant participant-tail" data-entity-uid="part4" data-qualified-name="ReviewService" id="part4-tail"><rect fill="#E2E2F0" height="30.2969" rx="2.5" ry="2.5" style="stroke:#181818;stroke-width:0.5;" width="116.3203" x="859.8228" y="383.6563"/><text fill="#000000" font-family="sans-serif" font-size="14" lengthAdjust="spacing" textLength="102.3203" x="866.8228" y="403.6514">ReviewService</text></g><g class="participant participant-head" data-entity-uid="part5" data-qualified-name="MongoDB" id="part5-head"><text fill="#000000" font-family="sans-serif" font-size="14" lengthAdjust="spacing" textLength="67.3545" x="1267.7993" y="115.292">MongoDB</text><path d="M1286.4766,66.2969 C1286.4766,56.2969 1304.4766,56.2969 1304.4766,56.2969 C1304.4766,56.2969 1322.4766,56.2969 1322.4766,66.2969 L1322.4766,92.2969 C1322.4766,102.2969 1304.4766,102.2969 1304.4766,102.2969 C1304.4766,102.2969 1286.4766,102.2969 1286.4766,92.2969 L1286.4766,66.2969" fill="#E2E2F0" style="stroke:#181818;stroke-width:0.5;"/><path d="M1286.4766,66.2969 C1286.4766,76.2969 1304.4766,76.2969 1304.4766,76.2969 C1304.4766,76.2969 1322.4766,76.2969 1322.4766,66.2969" fill="none" style="stroke:#181818;stroke-width:0.5;"/></g><g class="participant participant-tail" data-entity-uid="part5" data-qualified-name="MongoDB" id="part5-tail"><text fill="#000000" font-family="sans-serif" font-size="14" lengthAdjust="spacing" textLength="67.3545" x="1267.7993" y="396.6514">MongoDB</text><path d="M1286.4766,409.9531 C1286.4766,399.9531 1304.4766,399.9531 1304.4766,399.9531 C1304.4766,399.9531 1322.4766,399.9531 1322.4766,409.9531 L1322.4766,435.9531 C1322.4766,445.9531 1304.4766,445.9531 1304.4766,445.9531 C1304.4766,445.9531 1286.4766,445.9531 1286.4766,435.9531 L1286.4766,409.9531" fill="#E2E2F0" style="stroke:#181818;stroke-width:0.5;"/><path d="M1286.4766,409.9531 C1286.4766,419.9531 1304.4766,419.9531 1304.4766,419.9531 C1304.4766,419.9531 1322.4766,419.9531 1322.4766,409.9531" fill="none" style="stroke:#181818;stroke-width:0.5;"/></g><g><title>ApiGateway</title><rect fill="#FFFFFF" height="196.7969" style="stroke:#181818;stroke-width:1;" width="10" x="693.5488" y="178.8594"/></g><g><title>ReviewService</title><rect fill="#FFFFFF" height="100.3984" style="stroke:#181818;stroke-width:1;" width="10" x="912.9829" y="207.9922"/></g><g class="message" data-entity-1="part1" data-entity-2="part2" id="msg1"><polygon fill="#181818" points="347.9146,145.7266,357.9146,149.7266,347.9146,153.7266,351.9146,149.7266" style="stroke:#181818;stroke-width:1;"/><line style="stroke:#181818;stroke-width:1;" x1="44.0049" x2="353.9146" y1="149.7266" y2="149.7266"/><text fill="#000000" font-family="sans-serif" font-size="13" lengthAdjust="spacing" textLength="291.9097" x="51.0049" y="144.6606">Clique sur "Laisser un avis" sur la page Jeu X</text></g><g class="message" data-entity-1="part2" data-entity-2="part3" id="msg2"><polygon fill="#181818" points="681.5488,174.8594,691.5488,178.8594,681.5488,182.8594,685.5488,178.8594" style="stroke:#181818;stroke-width:1;"/><line style="stroke:#181818;stroke-width:1;" x1="359.9146" x2="687.5488" y1="178.8594" y2="178.8594"/><text fill="#000000" font-family="sans-serif" font-size="13" lengthAdjust="spacing" textLength="314.6343" x="366.9146" y="173.7935">POST /api/v1/reviews (GameID, Rating, Content)</text></g><g class="message" data-entity-1="part3" data-entity-2="part4" id="msg3"><polygon fill="#181818" points="900.9829,203.9922,910.9829,207.9922,900.9829,211.9922,904.9829,207.9922" style="stroke:#181818;stroke-width:1;"/><line style="stroke:#181818;stroke-width:1;" x1="703.5488" x2="906.9829" y1="207.9922" y2="207.9922"/><text fill="#000000" font-family="sans-serif" font-size="13" lengthAdjust="spacing" textLength="116.0732" x="710.5488" y="202.9263">Soumission d'avis</text></g><g class="message" data-entity-1="part4" data-entity-2="part4" id="msg4"><line style="stroke:#181818;stroke-width:1;" x1="922.9829" x2="964.9829" y1="237.125" y2="237.125"/><line style="stroke:#181818;stroke-width:1;" x1="964.9829" x2="964.9829" y1="237.125" y2="250.125"/><line style="stroke:#181818;stroke-width:1;" x1="923.9829" x2="964.9829" y1="250.125" y2="250.125"/><polygon fill="#181818" points="933.9829,246.125,923.9829,250.125,933.9829,254.125,929.9829,250.125" style="stroke:#181818;stroke-width:1;"/><text fill="#000000" font-family="sans-serif" font-size="13" lengthAdjust="spacing" textLength="318.8555" x="929.9829" y="232.0591">Validation pr&#233;liminaire (Longueur, Spoiler check)</text></g><g class="message" data-entity-1="part4" data-entity-2="part5" id="msg5"><polygon fill="#181818" points="1292.4766,275.2578,1302.4766,279.2578,1292.4766,283.2578,1296.4766,279.2578" style="stroke:#181818;stroke-width:1;"/><line style="stroke:#181818;stroke-width:1;" x1="922.9829" x2="1298.4766" y1="279.2578" y2="279.2578"/><text fill="#000000" font-family="sans-serif" font-size="13" lengthAdjust="spacing" textLength="357.4937" x="929.9829" y="274.1919">Sauvegarde l'avis (Statut: "En attente de mod&#233;ration")</text></g><g class="message" data-entity-1="part4" data-entity-2="part3" id="msg6"><polygon fill="#181818" points="714.5488,304.3906,704.5488,308.3906,714.5488,312.3906,710.5488,308.3906" style="stroke:#181818;stroke-width:1;"/><line style="stroke:#181818;stroke-width:1;stroke-dasharray:2,2;" x1="708.5488" x2="916.9829" y1="308.3906" y2="308.3906"/><text fill="#000000" font-family="sans-serif" font-size="13" lengthAdjust="spacing" textLength="185.4341" x="720.5488" y="303.3247">AVIS_ACCEPT&#201;_EN_ATTENTE</text></g><g class="message" data-entity-1="part3" data-entity-2="part2" id="msg7"><polygon fill="#181818" points="370.9146,333.5234,360.9146,337.5234,370.9146,341.5234,366.9146,337.5234" style="stroke:#181818;stroke-width:1;"/><line style="stroke:#181818;stroke-width:1;stroke-dasharray:2,2;" x1="364.9146" x2="692.5488" y1="337.5234" y2="337.5234"/><text fill="#000000" font-family="sans-serif" font-size="13" lengthAdjust="spacing" textLength="84.335" x="376.9146" y="332.4575">Confirmation</text></g><g class="message" data-entity-1="part2" data-entity-2="part1" id="msg8"><polygon fill="#181818" points="55.0049,362.6563,45.0049,366.6563,55.0049,370.6563,51.0049,366.6563" style="stroke:#181818;stroke-width:1;"/><line style="stroke:#181818;stroke-width:1;stroke-dasharray:2,2;" x1="49.0049" x2="358.9146" y1="366.6563" y2="366.6563"/><text fill="#000000" font-family="sans-serif" font-size="13" lengthAdjust="spacing" textLength="173.5957" x="61.0049" y="361.5903">Message de remerciement</text></g><?plantuml-src RPBFRi8m3CRlVGgBoq1YGhjocDH1XPY08ThzkI7JUfsrDkcIj6YFi4VXENYnkTK6BTkbQPpuyy-VuzXb15F6r62U4oG4uV7mKPAA2SOGwZ9dQrahIAvA1Nx55XuTPspHKMay3sEdJITKe74SSu7AmJFj9XcJSfseN_1CxkxninFUKCMq3ybK79ENeCCTMeAbLgcUtdbUgmXStvwrno2h88ELWzu21PWC22qARQ-9PWW5fWJtLCABTygiPSumOrW_X16CiE1HTJCo3Ow5_Wnpca-7i477AXt2H2idoOEwTwuajztG-RSMxxHqOMTDTvReDj_P_IFqX1cBGRLGOOw7Z7DMo8QWln2tId5e266XEHCZuZUAtmT_9Nzy5IeiAqhHoEopXWhweKDNYh6zG5nqTRVDqyXrSZoOfcvlu2Lqel-TqKMH2tlzftcuzIUJO1qTlxR1Qkj7KR2AWhPIruUscnSZr-gLJTwmj0SgjrhlP0nBihQUlD0Roid4B5_blW40?></g></svg>