<?plantuml 1.2026.2?><svg xmlns="http://www.w3.org/2000/svg" xmlns:xlink="http://www.w3.org/1999/xlink" contentStyleType="text/css" data-diagram-type="SEQUENCE" height="594px" preserveAspectRatio="none" style="width:1323px;height:594px;background:#FFFFFF;" version="1.1" viewBox="0 0 1323 594" width="1323px" zoomAndPan="magnify"><title>Diagramme de S&#233;quence : Achat d'un Jeu</title><defs/><g><text fill="#000000" font-family="sans-serif" font-size="14" font-weight="bold" lengthAdjust="spacing" textLength="326.2451" x="500.2893" y="27.9951">Diagramme de S&#233;quence : Achat d'un Jeu</text><g><title>PaymentGateway</title><rect fill="#FFFFFF" height="225.9297" style="stroke:#181818;stroke-width:1;" width="10" x="1011.5566" y="279.2578"/></g><g><title>PaymentGateway</title><rect fill="#FFFFFF" height="29.1328" style="stroke:#181818;stroke-width:1;" width="10" x="1016.5566" y="308.3906"/></g><g class="participant-lifeline" data-entity-uid="part1" data-qualified-name="Utilisateur" id="part1-lifeline"><g><title>Utilisateur</title><rect fill="#000000" fill-opacity="0.00000" height="395.5938" width="8" x="40.0049" y="118.5938"/><line style="stroke:#181818;stroke-width:0.5;stroke-dasharray:5,5;" x1="44" x2="44" y1="118.5938" y2="514.1875"/></g></g><g class="participant-lifeline" data-entity-uid="part2" data-qualified-name="WebClient" id="part2-lifeline"><g><title>WebClient</title><rect fill="#000000" fill-opacity="0.00000" height="395.5938" width="8" x="314.6548" y="118.5938"/><line style="stroke:#181818;stroke-width:0.5;stroke-dasharray:5,5;" x1="317.7183" x2="317.7183" y1="118.5938" y2="514.1875"/></g></g><g class="participant-lifeline" data-entity-uid="part3" data-qualified-name="ApiGateway" id="part3-lifeline"><g><title>ApiGateway</title><rect fill="#000000" fill-opacity="0.00000" height="395.5938" width="8" x="550.895" y="118.5938"/><line style="stroke:#181818;stroke-width:0.5;stroke-dasharray:5,5;" x1="554.7959" x2="554.7959" y1="118.5938" y2="514.1875"/></g></g><g class="participant-lifeline" data-entity-uid="part4" data-qualified-name="OrderService" id="part4-lifeline"><g><title>OrderService</title><rect fill="#000000" fill-opacity="0.00000" height="395.5938" width="8" x="758.5581" y="118.5938"/><line style="stroke:#181818;stroke-width:0.5;stroke-dasharray:5,5;" x1="761.6719" x2="761.6719" y1="118.5938" y2="514.1875"/></g></g><g class="participant-lifeline" data-entity-uid="part5" data-qualified-name="PaymentGateway" id="part5-lifeline"><g><title>PaymentGateway</title><rect fill="#000000" fill-opacity="0.00000" height="395.5938" width="8" x="1012.5566" y="118.5938"/><line style="stroke:#181818;stroke-width:0.5;stroke-dasharray:5,5;" x1="1015.6743" x2="1015.6743" y1="118.5938" y2="514.1875"/></g></g><g class="participant-lifeline" data-entity-uid="part6" data-qualified-name="PostgreSQL" id="part6-lifeline"><g><title>PostgreSQL</title><rect fill="#000000" fill-opacity="0.00000" height="395.5938" width="8" x="1275.4473" y="118.5938"/><line style="stroke:#181818;stroke-width:0.5;stroke-dasharray:5,5;" x1="1279.0708" x2="1279.0708" y1="118.5938" y2="514.1875"/></g></g><g class="participant participant-head" data-entity-uid="part1" data-qualified-name="Utilisateur" id="part1-head"><text fill="#000000" font-family="sans-serif" font-size="14" lengthAdjust="spacing" textLength="72.0098" x="5" y="115.292">Utilisateur</text><ellipse cx="44.0049" cy="50.7969" fill="#E2E2F0" rx="8" ry="8" style="stroke:#181818;stroke-width:0.5;"/><path d="M44.0049,58.7969 L44.0049,85.7969 M31.0049,66.7969 L57.0049,66.7969 M44.0049,85.7969 L31.0049,100.7969 M44.0049,85.7969 L57.0049,100.7969" fill="none" style="stroke:#181818;stroke-width:0.5;"/></g><g class="participant participant-tail" data-entity-uid="part1" data-qualified-name="Utilisateur" id="part1-tail"><text fill="#000000" font-family="sans-serif" font-size="14" lengthAdjust="spacing" textLength="72.0098" x="5" y="526.1826">Utilisateur</text><ellipse cx="44.0049" cy="537.9844" fill="#E2E2F0" rx="8" ry="8" style="stroke:#181818;stroke-width:0.5;"/><path d="M44.0049,545.9844 L44.0049,572.9844 M31.0049,553.9844 L57.0049,553.9844 M44.0049,572.9844 L31.0049,587.9844 M44.0049,572.9844 L57.0049,587.9844" fill="none" style="stroke:#181818;stroke-width:0.5;"/></g><g class="participant participant-head" data-entity-uid="part2" data-qualified-name="WebClient" id="part2-head"><rect fill="#E2E2F0" height="30.2969" rx="2.5" ry="2.5" style="stroke:#181818;stroke-width:0.5;" width="85.873" x="275.7183" y="87.2969"/><text fill="#000000" font-family="sans-serif" font-size="14" lengthAdjust="spacing" textLength="71.873" x="282.7183" y="107.292">WebClient</text></g><g class="participant participant-tail" data-entity-uid="part2" data-qualified-name="WebClient" id="part2-tail"><rect fill="#E2E2F0" height="30.2969" rx="2.5" ry="2.5" style="stroke:#181818;stroke-width:0.5;" width="85.873" x="275.7183" y="513.1875"/><text fill="#000000" font-family="sans-serif" font-size="14" lengthAdjust="spacing" textLength="71.873" x="282.7183" y="533.1826">WebClient</text></g><g class="participant participant-head" data-entity-uid="part3" data-qualified-name="ApiGateway" id="part3-head"><rect fill="#E2E2F0" height="30.2969" rx="2.5" ry="2.5" style="stroke:#181818;stroke-width:0.5;" width="98.1982" x="505.7959" y="87.2969"/><text fill="#000000" font-family="sans-serif" font-size="14" lengthAdjust="spacing" textLength="84.1982" x="512.7959" y="107.292">ApiGateway</text></g><g class="participant participant-tail" data-entity-uid="part3" data-qualified-name="ApiGateway" id="part3-tail"><rect fill="#E2E2F0" height="30.2969" rx="2.5" ry="2.5" style="stroke:#181818;stroke-width:0.5;" width="98.1982" x="505.7959" y="513.1875"/><text fill="#000000" font-family="sans-serif" font-size="14" lengthAdjust="spacing" textLength="84.1982" x="512.7959" y="533.1826">ApiGateway</text></g><g class="participant participant-head" data-entity-uid="part4" data-qualified-name="OrderService" id="part4-head"><rect fill="#E2E2F0" height="30.2969" rx="2.5" ry="2.5" style="stroke:#181818;stroke-width:0.5;" width="105.7725" x="709.6719" y="87.2969"/><text fill="#000000" font-family="sans-serif" font-size="14" lengthAdjust="spacing" textLength="91.7725" x="716.6719" y="107.292">OrderService</text></g><g class="participant participant-tail" data-entity-uid="part4" data-qualified-name="OrderService" id="part4-tail"><rect fill="#E2E2F0" height="30.2969" rx="2.5" ry="2.5" style="stroke:#181818;stroke-width:0.5;" width="105.7725" x="709.6719" y="513.1875"/><text fill="#000000" font-family="sans-serif" font-size="14" lengthAdjust="spacing" textLength="91.7725" x="716.6719" y="533.1826">OrderService</text></g><g class="participant participant-head" data-entity-uid="part5" data-qualified-name="PaymentGateway" id="part5-head"><rect fill="#E2E2F0" height="30.2969" rx="2.5" ry="2.5" style="stroke:#181818;stroke-width:0.5;" width="137.7646" x="947.6743" y="87.2969"/><text fill="#000000" font-family="sans-serif" font-size="14" lengthAdjust="spacing" textLength="123.7646" x="954.6743" y="107.292">PaymentGateway</text></g><g class="participant participant-tail" data-entity-uid="part5" data-qualified-name="PaymentGateway" id="part5-tail"><rect fill="#E2E2F0" height="30.2969" rx="2.5" ry="2.5" style="stroke:#181818;stroke-width:0.5;" width="137.7646" x="947.6743" y="513.1875"/><text fill="#000000" font-family="sans-serif" font-size="14" lengthAdjust="spacing" textLength="123.7646" x="954.6743" y="533.1826">PaymentGateway</text></g><g class="participant participant-head" data-entity-uid="part6" data-qualified-name="PostgreSQL" id="part6-head"><text fill="#000000" font-family="sans-serif" font-size="14" lengthAdjust="spacing" textLength="80.7529" x="1236.0708" y="115.292">PostgreSQL</text><path d="M1261.4473,66.2969 C1261.4473,56.2969 1279.4473,56.2969 1279.4473,56.2969 C1279.4473,56.2969 1297.4473,56.2969 1297.4473,66.2969 L1297.4473,92.2969 C1297.4473,102.2969 1279.4473,102.2969 1279.4473,102.2969 C1279.4473,102.2969 1261.4473,102.2969 1261.4473,92.2969 L1261.4473,66.2969" fill="#E2E2F0" style="stroke:#181818;stroke-width:0.5;"/><path d="M1261.4473,66.2969 C1261.4473,76.2969 1279.4473,76.2969 1279.4473,76.2969 C1279.4473,76.2969 1297.4473,76.2969 1297.4473,66.2969" fill="none" style="stroke:#181818;stroke-width:0.5;"/></g><g class="participant participant-tail" data-entity-uid="part6" data-qualified-name="PostgreSQL" id="part6-tail"><text fill="#000000" font-family="sans-serif" font-size="14" lengthAdjust="spacing" textLength="80.7529" x="1236.0708" y="526.1826">PostgreSQL</text><path d="M1261.4473,539.4844 C1261.4473,529.4844 1279.4473,529.4844 1279.4473,529.4844 C1279.4473,529.4844 1297.4473,529.4844 1297.4473,539.4844 L1297.4473,565.4844 C1297.4473,575.4844 1279.4473,575.4844 1279.4473,575.4844 C1279.4473,575.4844 1261.4473,575.4844 1261.4473,565.4844 L1261.4473,539.4844" fill="#E2E2F0" style="stroke:#181818;stroke-width:0.5;"/><path d="M1261.4473,539.4844 C1261.4473,549.4844 1279.4473,549.4844 1279.4473,549.4844 C1279.4473,549.4844 1297.4473,549.4844 1297.4473,539.4844" fill="none" style="stroke:#181818;stroke-width:0.5;"/></g><g><title>PaymentGateway</title><rect fill="#FFFFFF" height="225.9297" style="stroke:#181818;stroke-width:1;" width="10" x="1011.5566" y="279.2578"/></g><g><title>PaymentGateway</title><rect fill="#FFFFFF" height="29.1328" style="stroke:#181818;stroke-width:1;" width="10" x="1016.5566" y="308.3906"/></g><g class="message" data-entity-1="part1" data-entity-2="part2" id="msg1"><polygon fill="#181818" points="306.6548,145.7266,316.6548,149.7266,306.6548,153.7266,310.6548,149.7266" style="stroke:#181818;stroke-width:1;"/><line style="stroke:#181818;stroke-width:1;" x1="44.0049" x2="312.6548" y1="149.7266" y2="149.7266"/><text fill="#000000" font-family="sans-serif" font-size="13" lengthAdjust="spacing" textLength="250.6499" x="51.0049" y="144.6606">Clique sur "Acheter" (GameID, UserID)</text></g><g class="message" data-entity-1="part2" data-entity-2="part3" id="msg2"><polygon fill="#181818" points="542.895,174.8594,552.895,178.8594,542.895,182.8594,546.895,178.8594" style="stroke:#181818;stroke-width:1;"/><line style="stroke:#181818;stroke-width:1;" x1="318.6548" x2="548.895" y1="178.8594" y2="178.8594"/><text fill="#000000" font-family="sans-serif" font-size="13" lengthAdjust="spacing" textLength="212.2402" x="325.6548" y="173.7935">POST /api/v1/checkout (Payload)</text></g><g class="message" data-entity-1="part3" data-entity-2="part4" id="msg3"><polygon fill="#181818" points="750.5581,203.9922,760.5581,207.9922,750.5581,211.9922,754.5581,207.9922" style="stroke:#181818;stroke-width:1;"/><line style="stroke:#181818;stroke-width:1;" x1="554.895" x2="756.5581" y1="207.9922" y2="207.9922"/><text fill="#000000" font-family="sans-serif" font-size="13" lengthAdjust="spacing" textLength="138.6519" x="561.895" y="202.9263">Cr&#233;er Pr&#233;-commande</text></g><g class="message" data-entity-1="part4" data-entity-2="part4" id="msg4"><line style="stroke:#181818;stroke-width:1;" x1="762.5581" x2="804.5581" y1="237.125" y2="237.125"/><line style="stroke:#181818;stroke-width:1;" x1="804.5581" x2="804.5581" y1="237.125" y2="250.125"/><line style="stroke:#181818;stroke-width:1;" x1="763.5581" x2="804.5581" y1="250.125" y2="250.125"/><polygon fill="#181818" points="773.5581,246.125,763.5581,250.125,773.5581,254.125,769.5581,250.125" style="stroke:#181818;stroke-width:1;"/><text fill="#000000" font-family="sans-serif" font-size="13" lengthAdjust="spacing" textLength="181.1558" x="769.5581" y="232.0591">V&#233;rifie l'inventaire et le prix</text></g><g class="message" data-entity-1="part4" data-entity-2="part6" id="msg5"><polygon fill="#181818" points="1267.4473,275.2578,1277.4473,279.2578,1267.4473,283.2578,1271.4473,279.2578" style="stroke:#181818;stroke-width:1;"/><line style="stroke:#181818;stroke-width:1;" x1="762.5581" x2="1273.4473" y1="279.2578" y2="279.2578"/><text fill="#000000" font-family="sans-serif" font-size="13" lengthAdjust="spacing" textLength="265.6748" x="769.5581" y="274.1919">Bloque les fonds / Cr&#233;e l'Ordre (Pending)</text></g><g class="message" data-entity-1="part4" data-entity-2="part5" id="msg6"><polygon fill="#181818" points="1004.5566,304.3906,1014.5566,308.3906,1004.5566,312.3906,1008.5566,308.3906" style="stroke:#181818;stroke-width:1;"/><line style="stroke:#181818;stroke-width:1;" x1="762.5581" x2="1010.5566" y1="308.3906" y2="308.3906"/><text fill="#000000" font-family="sans-serif" font-size="13" lengthAdjust="spacing" textLength="219.2925" x="769.5581" y="303.3247">Initier Paiement (Montant, Token)</text></g><g class="message" data-entity-1="part5" data-entity-2="part4" id="msg7"><polygon fill="#181818" points="773.5581,333.5234,763.5581,337.5234,773.5581,341.5234,769.5581,337.5234" style="stroke:#181818;stroke-width:1;"/><line style="stroke:#181818;stroke-width:1;stroke-dasharray:2,2;" x1="767.5581" x2="1010.5566" y1="337.5234" y2="337.5234"/><text fill="#000000" font-family="sans-serif" font-size="13" lengthAdjust="spacing" textLength="210.3359" x="779.5581" y="332.4575">R&#233;ponse Succ&#232;s (TransactionID)</text></g><g class="message" data-entity-1="part4" data-entity-2="part4" id="msg8"><line style="stroke:#181818;stroke-width:1;" x1="762.5581" x2="804.5581" y1="366.6563" y2="366.6563"/><line style="stroke:#181818;stroke-width:1;" x1="804.5581" x2="804.5581" y1="366.6563" y2="379.6563"/><line style="stroke:#181818;stroke-width:1;" x1="763.5581" x2="804.5581" y1="379.6563" y2="379.6563"/><polygon fill="#181818" points="773.5581,375.6563,763.5581,379.6563,773.5581,383.6563,769.5581,379.6563" style="stroke:#181818;stroke-width:1;"/><text fill="#000000" font-family="sans-serif" font-size="13" lengthAdjust="spacing" textLength="239.9985" x="769.5581" y="361.5903">Met &#224; jour l'&#233;tat de l'Ordre en "Pay&#233;"</text></g><g class="message" data-entity-1="part4" data-entity-2="part6" id="msg9"><polygon fill="#181818" points="1267.4473,404.7891,1277.4473,408.7891,1267.4473,412.7891,1271.4473,408.7891" style="stroke:#181818;stroke-width:1;"/><line style="stroke:#181818;stroke-width:1;" x1="762.5581" x2="1273.4473" y1="408.7891" y2="408.7891"/><text fill="#000000" font-family="sans-serif" font-size="13" lengthAdjust="spacing" textLength="492.8892" x="769.5581" y="403.7231">Confirme la transaction et cr&#233;dite le jeu dans la biblioth&#232;que de l'utilisateur</text></g><g class="message" data-entity-1="part4" data-entity-2="part3" id="msg10"><polygon fill="#181818" points="565.895,433.9219,555.895,437.9219,565.895,441.9219,561.895,437.9219" style="stroke:#181818;stroke-width:1;"/><line style="stroke:#181818;stroke-width:1;stroke-dasharray:2,2;" x1="559.895" x2="761.5581" y1="437.9219" y2="437.9219"/><text fill="#000000" font-family="sans-serif" font-size="13" lengthAdjust="spacing" textLength="183.6631" x="571.895" y="432.856">Confirmation de Commande</text></g><g class="message" data-entity-1="part3" data-entity-2="part2" id="msg11"><polygon fill="#181818" points="329.6548,463.0547,319.6548,467.0547,329.6548,471.0547,325.6548,467.0547" style="stroke:#181818;stroke-width:1;"/><line style="stroke:#181818;stroke-width:1;stroke-dasharray:2,2;" x1="323.6548" x2="553.895" y1="467.0547" y2="467.0547"/><text fill="#000000" font-family="sans-serif" font-size="13" lengthAdjust="spacing" textLength="45.5571" x="335.6548" y="461.9888">Succ&#232;s</text></g><g class="message" data-entity-1="part2" data-entity-2="part1" id="msg12"><polygon fill="#181818" points="55.0049,492.1875,45.0049,496.1875,55.0049,500.1875,51.0049,496.1875" style="stroke:#181818;stroke-width:1;"/><line style="stroke:#181818;stroke-width:1;stroke-dasharray:2,2;" x1="49.0049" x2="317.6548" y1="496.1875" y2="496.1875"/><text fill="#000000" font-family="sans-serif" font-size="13" lengthAdjust="spacing" textLength="183.8916" x="61.0049" y="491.1216">Affichage de la confirmation</text></g><?plantuml-src ZLFBRjj03BphAmXVB0CnZ5nrA93QGE2YGTJAQS_qBkKmMUqggvNR_4sFqNVenyhDev9YjEXf8P4p70x9mC4GR1WF7gkAG1CKVVVGabK46LoeMmoWvws5JzGc2QhWFDm4DjnWeDOdDVh0Yckq0RxJVcsOR9ZylQZvKd9_uEFazxNNv0loHrOq2UJuM0d76qPZm3qs1Bbhmi5JyULpaemKmFB3K3W3UKKzD1AOYNeAv6UGNc95syqPt3Jajvj5yWSGqOF03FBhOWShh7brF5y9NDsxDa0gcen3lKY6t8WSzo2bVT-HXroUfN9LXLPJCauvXNphEyyb4vWvswFeGVO45426Kdl-UG8VJCZWet6nLKCDbCxg1bOl4eHCOCAJvcGrsyCYpesFelkzkIVqat06Myk1Oq_850EGNZaHQSCPxDmzsRypJpzXUTBwrxwhdPMv5grI_LC3wSwZRIAVit56clvNzPJuIkphVy6TanKmyxuBSOC7KyZ2JFZwRlPFSzVEbkpb8Wn268J5sIWnMNE8piCTjQ0b6jFsl3Vimct_5CVoNB8TNSgedydkJrMysyTN6VXSMoZNRtirNiJf1RpwETvnIHXTZ9nrMR9Szk559O8QLVaD?></g></svg>