<?plantuml 1.2026.2?><svg xmlns="http://www.w3.org/2000/svg" xmlns:xlink="http://www.w3.org/1999/xlink" contentStyleType="text/css" data-diagram-type="SEQUENCE" height="539px" preserveAspectRatio="none" style="width:1395px;height:539px;background:#FFFFFF;" version="1.1" viewBox="0 0 1395 539" width="1395px" zoomAndPan="magnify"><title>Diagramme de S&#233;quence : Consultation du Catalogue et Recherche</title><defs/><g><text fill="#000000" font-family="sans-serif" font-size="14" font-weight="bold" lengthAdjust="spacing" textLength="530.6533" x="433.7864" y="27.9951">Diagramme de S&#233;quence : Consultation du Catalogue et Recherche</text><g><title>ApiGateway</title><rect fill="#FFFFFF" height="233.0625" style="stroke:#181818;stroke-width:1;" width="10" x="567.6685" y="178.8594"/></g><g><title>SearchService</title><rect fill="#FFFFFF" height="174.7969" style="stroke:#181818;stroke-width:1;" width="10" x="819.814" y="207.9922"/></g><g><title>CatalogService</title><rect fill="#FFFFFF" height="87.3984" style="stroke:#181818;stroke-width:1;" width="10" x="1043.1855" y="266.2578"/></g><g><title>MongoDB</title><rect fill="#FFFFFF" height="154.6641" style="stroke:#181818;stroke-width:1;" width="10" x="1352.5488" y="295.3906"/></g><g class="participant-lifeline" data-entity-uid="part1" data-qualified-name="Utilisateur" id="part1-lifeline"><g><title>Utilisateur</title><rect fill="#000000" fill-opacity="0.00000" height="340.4609" width="8" x="40.0049" y="118.5938"/><line style="stroke:#181818;stroke-width:0.5;stroke-dasharray:5,5;" x1="44" x2="44" y1="118.5938" y2="459.0547"/></g></g><g class="participant-lifeline" data-entity-uid="part2" data-qualified-name="WebClient" id="part2-lifeline"><g><title>WebClient</title><rect fill="#000000" fill-opacity="0.00000" height="340.4609" width="8" x="363.9443" y="118.5938"/><line style="stroke:#181818;stroke-width:0.5;stroke-dasharray:5,5;" x1="367.0078" x2="367.0078" y1="118.5938" y2="459.0547"/></g></g><g class="participant-lifeline" data-entity-uid="part3" data-qualified-name="ApiGateway" id="part3-lifeline"><g><title>ApiGateway</title><rect fill="#000000" fill-opacity="0.00000" height="340.4609" width="8" x="568.6685" y="118.5938"/><line style="stroke:#181818;stroke-width:0.5;stroke-dasharray:5,5;" x1="572.5693" x2="572.5693" y1="118.5938" y2="459.0547"/></g></g><g class="participant-lifeline" data-entity-uid="part4" data-qualified-name="SearchService" id="part4-lifeline"><g><title>SearchService</title><rect fill="#000000" fill-opacity="0.00000" height="340.4609" width="8" x="820.814" y="118.5938"/><line style="stroke:#181818;stroke-width:0.5;stroke-dasharray:5,5;" x1="824.7407" x2="824.7407" y1="118.5938" y2="459.0547"/></g></g><g class="participant-lifeline" data-entity-uid="part5" data-qualified-name="CatalogService" id="part5-lifeline"><g><title>CatalogService</title><rect fill="#000000" fill-opacity="0.00000" height="340.4609" width="8" x="1044.1855" y="118.5938"/><line style="stroke:#181818;stroke-width:0.5;stroke-dasharray:5,5;" x1="1047.4326" x2="1047.4326" y1="118.5938" y2="459.0547"/></g></g><g class="participant-lifeline" data-entity-uid="part6" data-qualified-name="Redis" id="part6-lifeline"><g><title>Redis</title><rect fill="#000000" fill-opacity="0.00000" height="340.4609" width="8" x="1136.144" y="118.5938"/><line style="stroke:#181818;stroke-width:0.5;stroke-dasharray:5,5;" x1="1139.9385" x2="1139.9385" y1="118.5938" y2="459.0547"/></g></g><g class="participant-lifeline" data-entity-uid="part7" data-qualified-name="MongoDB" id="part7-lifeline"><g><title>MongoDB</title><rect fill="#000000" fill-opacity="0.00000" height="340.4609" width="8" x="1353.5488" y="118.5938"/><line style="stroke:#181818;stroke-width:0.5;stroke-dasharray:5,5;" x1="1356.8716" x2="1356.8716" y1="118.5938" y2="459.0547"/></g></g><g class="participant participant-head" data-entity-uid="part1" data-qualified-name="Utilisateur" id="part1-head"><text fill="#000000" font-family="sans-serif" font-size="14" lengthAdjust="spacing" textLength="72.0098" x="5" y="115.292">Utilisateur</text><ellipse cx="44.0049" cy="50.7969" fill="#E2E2F0" rx="8" ry="8" style="stroke:#181818;stroke-width:0.5;"/><path d="M44.0049,58.7969 L44.0049,85.7969 M31.0049,66.7969 L57.0049,66.7969 M44.0049,85.7969 L31.0049,100.7969 M44.0049,85.7969 L57.0049,100.7969" fill="none" style="stroke:#181818;stroke-width:0.5;"/></g><g class="participant participant-tail" data-entity-uid="part1" data-qualified-name="Utilisateur" id="part1-tail"><text fill="#000000" font-family="sans-serif" font-size="14" lengthAdjust="spacing" textLength="72.0098" x="5" y="471.0498">Utilisateur</text><ellipse cx="44.0049" cy="482.8516" fill="#E2E2F0" rx="8" ry="8" style="stroke:#181818;stroke-width:0.5;"/><path d="M44.0049,490.8516 L44.0049,517.8516 M31.0049,498.8516 L57.0049,498.8516 M44.0049,517.8516 L31.0049,532.8516 M44.0049,517.8516 L57.0049,532.8516" fill="none" style="stroke:#181818;stroke-width:0.5;"/></g><g class="participant participant-head" data-entity-uid="part2" data-qualified-name="WebClient" id="part2-head"><rect fill="#E2E2F0" height="30.2969" rx="2.5" ry="2.5" style="stroke:#181818;stroke-width:0.5;" width="85.873" x="325.0078" y="87.2969"/><text fill="#000000" font-family="sans-serif" font-size="14" lengthAdjust="spacing" textLength="71.873" x="332.0078" y="107.292">WebClient</text></g><g class="participant participant-tail" data-entity-uid="part2" data-qualified-name="WebClient" id="part2-tail"><rect fill="#E2E2F0" height="30.2969" rx="2.5" ry="2.5" style="stroke:#181818;stroke-width:0.5;" width="85.873" x="325.0078" y="458.0547"/><text fill="#000000" font-family="sans-serif" font-size="14" lengthAdjust="spacing" textLength="71.873" x="332.0078" y="478.0498">WebClient</text></g><g class="participant participant-head" data-entity-uid="part3" data-qualified-name="ApiGateway" id="part3-head"><rect fill="#E2E2F0" height="30.2969" rx="2.5" ry="2.5" style="stroke:#181818;stroke-width:0.5;" width="98.1982" x="523.5693" y="87.2969"/><text fill="#000000" font-family="sans-serif" font-size="14" lengthAdjust="spacing" textLength="84.1982" x="530.5693" y="107.292">ApiGateway</text></g><g class="participant participant-tail" data-entity-uid="part3" data-qualified-name="ApiGateway" id="part3-tail"><rect fill="#E2E2F0" height="30.2969" rx="2.5" ry="2.5" style="stroke:#181818;stroke-width:0.5;" width="98.1982" x="523.5693" y="458.0547"/><text fill="#000000" font-family="sans-serif" font-size="14" lengthAdjust="spacing" textLength="84.1982" x="530.5693" y="478.0498">ApiGateway</text></g><g class="participant participant-head" data-entity-uid="part4" data-qualified-name="SearchService" id="part4-head"><rect fill="#E2E2F0" height="30.2969" rx="2.5" ry="2.5" style="stroke:#181818;stroke-width:0.5;" width="114.1465" x="767.7407" y="87.2969"/><text fill="#000000" font-family="sans-serif" font-size="14" lengthAdjust="spacing" textLength="100.1465" x="774.7407" y="107.292">SearchService</text></g><g class="participant participant-tail" data-entity-uid="part4" data-qualified-name="SearchService" id="part4-tail"><rect fill="#E2E2F0" height="30.2969" rx="2.5" ry="2.5" style="stroke:#181818;stroke-width:0.5;" width="114.1465" x="767.7407" y="458.0547"/><text fill="#000000" font-family="sans-serif" font-size="14" lengthAdjust="spacing" textLength="100.1465" x="774.7407" y="478.0498">SearchService</text></g><g class="participant participant-head" data-entity-uid="part5" data-qualified-name="CatalogService" id="part5-head"><rect fill="#E2E2F0" height="30.2969" rx="2.5" ry="2.5" style="stroke:#181818;stroke-width:0.5;" width="119.5059" x="988.4326" y="87.2969"/><text fill="#000000" font-family="sans-serif" font-size="14" lengthAdjust="spacing" textLength="105.5059" x="995.4326" y="107.292">CatalogService</text></g><g class="participant participant-tail" data-entity-uid="part5" data-qualified-name="CatalogService" id="part5-tail"><rect fill="#E2E2F0" height="30.2969" rx="2.5" ry="2.5" style="stroke:#181818;stroke-width:0.5;" width="119.5059" x="988.4326" y="458.0547"/><text fill="#000000" font-family="sans-serif" font-size="14" lengthAdjust="spacing" textLength="105.5059" x="995.4326" y="478.0498">CatalogService</text></g><g class="participant participant-head" data-entity-uid="part6" data-qualified-name="Redis" id="part6-head"><text fill="#000000" font-family="sans-serif" font-size="14" lengthAdjust="spacing" textLength="38.4111" x="1117.9385" y="115.292">Redis</text><path d="M1122.144,66.2969 C1122.144,56.2969 1140.144,56.2969 1140.144,56.2969 C1140.144,56.2969 1158.144,56.2969 1158.144,66.2969 L1158.144,92.2969 C1158.144,102.2969 1140.144,102.2969 1140.144,102.2969 C1140.144,102.2969 1122.144,102.2969 1122.144,92.2969 L1122.144,66.2969" fill="#E2E2F0" style="stroke:#181818;stroke-width:0.5;"/><path d="M1122.144,66.2969 C1122.144,76.2969 1140.144,76.2969 1140.144,76.2969 C1140.144,76.2969 1158.144,76.2969 1158.144,66.2969" fill="none" style="stroke:#181818;stroke-width:0.5;"/></g><g class="participant participant-tail" data-entity-uid="part6" data-qualified-name="Redis" id="part6-tail"><text fill="#000000" font-family="sans-serif" font-size="14" lengthAdjust="spacing" textLength="38.4111" x="1117.9385" y="471.0498">Redis</text><path d="M1122.144,484.3516 C1122.144,474.3516 1140.144,474.3516 1140.144,474.3516 C1140.144,474.3516 1158.144,474.3516 1158.144,484.3516 L1158.144,510.3516 C1158.144,520.3516 1140.144,520.3516 1140.144,520.3516 C1140.144,520.3516 1122.144,520.3516 1122.144,510.3516 L1122.144,484.3516" fill="#E2E2F0" style="stroke:#181818;stroke-width:0.5;"/><path d="M1122.144,484.3516 C1122.144,494.3516 1140.144,494.3516 1140.144,494.3516 C1140.144,494.3516 1158.144,494.3516 1158.144,484.3516" fill="none" style="stroke:#181818;stroke-width:0.5;"/></g><g class="participant participant-head" data-entity-uid="part7" data-qualified-name="MongoDB" id="part7-head"><text fill="#000000" font-family="sans-serif" font-size="14" lengthAdjust="spacing" textLength="67.3545" x="1320.8716" y="115.292">MongoDB</text><path d="M1339.5488,66.2969 C1339.5488,56.2969 1357.5488,56.2969 1357.5488,56.2969 C1357.5488,56.2969 1375.5488,56.2969 1375.5488,66.2969 L1375.5488,92.2969 C1375.5488,102.2969 1357.5488,102.2969 1357.5488,102.2969 C1357.5488,102.2969 1339.5488,102.2969 1339.5488,92.2969 L1339.5488,66.2969" fill="#E2E2F0" style="stroke:#181818;stroke-width:0.5;"/><path d="M1339.5488,66.2969 C1339.5488,76.2969 1357.5488,76.2969 1357.5488,76.2969 C1357.5488,76.2969 1375.5488,76.2969 1375.5488,66.2969" fill="none" style="stroke:#181818;stroke-width:0.5;"/></g><g class="participant participant-tail" data-entity-uid="part7" data-qualified-name="MongoDB" id="part7-tail"><text fill="#000000" font-family="sans-serif" font-size="14" lengthAdjust="spacing" textLength="67.3545" x="1320.8716" y="471.0498">MongoDB</text><path d="M1339.5488,484.3516 C1339.5488,474.3516 1357.5488,474.3516 1357.5488,474.3516 C1357.5488,474.3516 1375.5488,474.3516 1375.5488,484.3516 L1375.5488,510.3516 C1375.5488,520.3516 1357.5488,520.3516 1357.5488,520.3516 C1357.5488,520.3516 1339.5488,520.3516 1339.5488,510.3516 L1339.5488,484.3516" fill="#E2E2F0" style="stroke:#181818;stroke-width:0.5;"/><path d="M1339.5488,484.3516 C1339.5488,494.3516 1357.5488,494.3516 1357.5488,494.3516 C1357.5488,494.3516 1375.5488,494.3516 1375.5488,484.3516" fill="none" style="stroke:#181818;stroke-width:0.5;"/></g><g><title>ApiGateway</title><rect fill="#FFFFFF" height="233.0625" style="stroke:#181818;stroke-width:1;" width="10" x="567.6685" y="178.8594"/></g><g><title>SearchService</title><rect fill="#FFFFFF" height="174.7969" style="stroke:#181818;stroke-width:1;" width="10" x="819.814" y="207.9922"/></g><g><title>CatalogService</title><rect fill="#FFFFFF" height="87.3984" style="stroke:#181818;stroke-width:1;" width="10" x="1043.1855" y="266.2578"/></g><g><title>MongoDB</title><rect fill="#FFFFFF" height="154.6641" style="stroke:#181818;stroke-width:1;" width="10" x="1352.5488" y="295.3906"/></g><g class="message" data-entity-1="part1" data-entity-2="part2" id="msg1"><polygon fill="#181818" points="355.9443,145.7266,365.9443,149.7266,355.9443,153.7266,359.9443,149.7266" style="stroke:#181818;stroke-width:1;"/><line style="stroke:#181818;stroke-width:1;" x1="44.0049" x2="361.9443" y1="149.7266" y2="149.7266"/><text fill="#000000" font-family="sans-serif" font-size="13" lengthAdjust="spacing" textLength="299.9395" x="51.0049" y="144.6606">Acc&#232;de &#224; /store?genre=RPG&amp;sort=best_seller</text></g><g class="message" data-entity-1="part2" data-entity-2="part3" id="msg2"><polygon fill="#181818" points="555.6685,174.8594,565.6685,178.8594,555.6685,182.8594,559.6685,178.8594" style="stroke:#181818;stroke-width:1;"/><line style="stroke:#181818;stroke-width:1;" x1="367.9443" x2="561.6685" y1="178.8594" y2="178.8594"/><text fill="#000000" font-family="sans-serif" font-size="13" lengthAdjust="spacing" textLength="180.7241" x="374.9443" y="173.7935">GET /api/v1/store?params...</text></g><g class="message" data-entity-1="part3" data-entity-2="part4" id="msg3"><polygon fill="#181818" points="807.814,203.9922,817.814,207.9922,807.814,211.9922,811.814,207.9922" style="stroke:#181818;stroke-width:1;"/><line style="stroke:#181818;stroke-width:1;" x1="577.6685" x2="813.814" y1="207.9922" y2="207.9922"/><text fill="#000000" font-family="sans-serif" font-size="13" lengthAdjust="spacing" textLength="223.1455" x="584.6685" y="202.9263">Requis de recherche (Param&#232;tres)</text></g><g class="message" data-entity-1="part4" data-entity-2="part6" id="msg4"><polygon fill="#181818" points="1128.144,233.125,1138.144,237.125,1128.144,241.125,1132.144,237.125" style="stroke:#181818;stroke-width:1;"/><line style="stroke:#181818;stroke-width:1;" x1="829.814" x2="1134.144" y1="237.125" y2="237.125"/><text fill="#000000" font-family="sans-serif" font-size="13" lengthAdjust="spacing" textLength="240.7983" x="836.814" y="232.0591">V&#233;rifie le cache des tendances/filtres</text></g><g class="message" data-entity-1="part4" data-entity-2="part5" id="msg5"><polygon fill="#181818" points="1031.1855,262.2578,1041.1855,266.2578,1031.1855,270.2578,1035.1855,266.2578" style="stroke:#181818;stroke-width:1;"/><line style="stroke:#181818;stroke-width:1;" x1="829.814" x2="1037.1855" y1="266.2578" y2="266.2578"/><text fill="#000000" font-family="sans-serif" font-size="13" lengthAdjust="spacing" textLength="194.3716" x="836.814" y="261.1919">Demande les donn&#233;es filtr&#233;es</text></g><g class="message" data-entity-1="part5" data-entity-2="part7" id="msg6"><polygon fill="#181818" points="1340.5488,291.3906,1350.5488,295.3906,1340.5488,299.3906,1344.5488,295.3906" style="stroke:#181818;stroke-width:1;"/><line style="stroke:#181818;stroke-width:1;" x1="1053.1855" x2="1346.5488" y1="295.3906" y2="295.3906"/><text fill="#000000" font-family="sans-serif" font-size="13" lengthAdjust="spacing" textLength="280.3633" x="1060.1855" y="290.3247">Requ&#234;te de m&#233;tadonn&#233;es (Filtres, Listings)</text></g><g class="message" data-entity-1="part7" data-entity-2="part5" id="msg7"><polygon fill="#181818" points="1064.1855,320.5234,1054.1855,324.5234,1064.1855,328.5234,1060.1855,324.5234" style="stroke:#181818;stroke-width:1;"/><line style="stroke:#181818;stroke-width:1;stroke-dasharray:2,2;" x1="1058.1855" x2="1351.5488" y1="324.5234" y2="324.5234"/><text fill="#000000" font-family="sans-serif" font-size="13" lengthAdjust="spacing" textLength="121.5957" x="1070.1855" y="319.4575">Jeu matching JSON</text></g><g class="message" data-entity-1="part5" data-entity-2="part4" id="msg8"><polygon fill="#181818" points="840.814,349.6563,830.814,353.6563,840.814,357.6563,836.814,353.6563" style="stroke:#181818;stroke-width:1;"/><line style="stroke:#181818;stroke-width:1;stroke-dasharray:2,2;" x1="834.814" x2="1047.1855" y1="353.6563" y2="353.6563"/><text fill="#000000" font-family="sans-serif" font-size="13" lengthAdjust="spacing" textLength="118.9106" x="846.814" y="348.5903">Liste des r&#233;sultats</text></g><g class="message" data-entity-1="part4" data-entity-2="part3" id="msg9"><polygon fill="#181818" points="588.6685,378.7891,578.6685,382.7891,588.6685,386.7891,584.6685,382.7891" style="stroke:#181818;stroke-width:1;"/><line style="stroke:#181818;stroke-width:1;stroke-dasharray:2,2;" x1="582.6685" x2="823.814" y1="382.7891" y2="382.7891"/><text fill="#000000" font-family="sans-serif" font-size="13" lengthAdjust="spacing" textLength="129.689" x="594.6685" y="377.7231">Liste finale des jeux</text></g><g class="message" data-entity-1="part3" data-entity-2="part2" id="msg10"><polygon fill="#181818" points="378.9443,407.9219,368.9443,411.9219,378.9443,415.9219,374.9443,411.9219" style="stroke:#181818;stroke-width:1;"/><line style="stroke:#181818;stroke-width:1;stroke-dasharray:2,2;" x1="372.9443" x2="571.6685" y1="411.9219" y2="411.9219"/><text fill="#000000" font-family="sans-serif" font-size="13" lengthAdjust="spacing" textLength="122.4526" x="384.9443" y="406.856">Envoi des donn&#233;es</text></g><g class="message" data-entity-1="part2" data-entity-2="part1" id="msg11"><polygon fill="#181818" points="55.0049,437.0547,45.0049,441.0547,55.0049,445.0547,51.0049,441.0547" style="stroke:#181818;stroke-width:1;"/><line style="stroke:#181818;stroke-width:1;stroke-dasharray:2,2;" x1="49.0049" x2="366.9443" y1="441.0547" y2="441.0547"/><text fill="#000000" font-family="sans-serif" font-size="13" lengthAdjust="spacing" textLength="190.5947" x="61.0049" y="435.9888">Affichage des r&#233;sultats filtr&#233;s</text></g><?plantuml-src TPBTRfj048NlUOgvgXAfiTLRfBHAxTHIbAHHt9_BQhmCU2fOdDt1RT-cbt5VWnVhh361jTiBn2wm7-USES9I4imP2uTLHP0HBDlTKqFM4AGmgwrlIa7XsaBMm0m5oxfe24ZWaSoQd5v9WaPg1v-5I_OerBXaWqxOy0Qjm5TQpKecAz7JgmqlzDiV-2jwl2HKvfBSbWr5Rmu_xrzbkbsX9zMHiH-sTxKjwldx91d9WOktWueKhenfdzLg-nkcNfNJkuAieyl7XyKhNpkvN96NRvxAabpoSYv01j4fBAu_mHGtFDs-EL1KBLP-Cfc4G7Yh7uvT3ij0YdocQkAfOH_oTtsiSFOGUEspEFBd0p9EADe5y3wE5BwqEySv4-Xy3GPSHXw4R8OwMp_DkGpSq_Dnp2dCgKAR1OxAgwrjTxhOdmwhGTRHUE9j01y6qtbj_yY-RLMx4tp1ddteLBs6M_R2jXZxxWTxkCF5FyJUK0CLYbdhMRXPVhm_qN4QVVXLbuuwwkgkTQB_6JiAxAWK7IndYsN7_4xDpp4jdjwu4t57h-ssvZsXJsTC6TLgr4ybZ4glFSzpDciiZjtru_D_0G00?></g></svg>