<?plantuml 1.2026.2?><svg xmlns="http://www.w3.org/2000/svg" xmlns:xlink="http://www.w3.org/1999/xlink" contentStyleType="text/css" data-diagram-type="SEQUENCE" height="744px" preserveAspectRatio="none" style="width:1671px;height:744px;background:#FFFFFF;" version="1.1" viewBox="0 0 1671 744" width="1671px" zoomAndPan="magnify"><title>Diagramme de S&#233;quence : Achat d'un Jeu</title><defs/><g><text fill="#000000" font-family="sans-serif" font-size="14" font-weight="bold" lengthAdjust="spacing" textLength="326.2451" x="673.8108" y="27.9951">Diagramme de S&#233;quence : Achat d'un Jeu</text><g><title>WebClient</title><rect fill="#FFFFFF" height="503.9297" style="stroke:#181818;stroke-width:1;" width="10" x="341.7002" y="149.7266"/></g><g><title>ApiGateway</title><rect fill="#FFFFFF" height="299.3281" style="stroke:#181818;stroke-width:1;" width="10" x="635.2588" y="178.8594"/></g><g><title>OrderController</title><rect fill="#FFFFFF" height="29.1328" style="stroke:#181818;stroke-width:1;" width="10" x="890.8584" y="207.9922"/></g><g><title>PaiementTiers</title><rect fill="#FFFFFF" height="285" style="stroke:#181818;stroke-width:1;" width="10" x="1338.5996" y="266.2578"/></g><g><title>PaiementTiers</title><rect fill="#FFFFFF" height="53.2656" style="stroke:#181818;stroke-width:1;" width="10" x="1343.5996" y="295.3906"/></g><rect fill="#ADD8E6" height="336.2656" style="stroke:#000000;stroke-width:1.5;" width="1654.8667" x="10" y="310.3906"/><rect fill="#FFC0CB" height="131.3359" style="stroke:none;stroke-width:1;" width="1654.8667" x="10" y="515.3203"/><g class="participant-lifeline" data-entity-uid="part1" data-qualified-name="Utilisateur" id="part1-lifeline"><g><title>Utilisateur</title><rect fill="#000000" fill-opacity="0.00000" height="545.0625" width="8" x="55.0049" y="118.5938"/><line style="stroke:#181818;stroke-width:0.5;stroke-dasharray:5,5;" x1="59" x2="59" y1="118.5938" y2="663.6563"/></g></g><g class="participant-lifeline" data-entity-uid="part2" data-qualified-name="WebClient" id="part2-lifeline"><g><title>WebClient</title><rect fill="#000000" fill-opacity="0.00000" height="545.0625" width="8" x="342.7002" y="118.5938"/><line style="stroke:#181818;stroke-width:0.5;stroke-dasharray:5,5;" x1="345.7637" x2="345.7637" y1="118.5938" y2="663.6563"/></g></g><g class="participant-lifeline" data-entity-uid="part3" data-qualified-name="ApiGateway" id="part3-lifeline"><g><title>ApiGateway</title><rect fill="#000000" fill-opacity="0.00000" height="545.0625" width="8" x="636.2588" y="118.5938"/><line style="stroke:#181818;stroke-width:0.5;stroke-dasharray:5,5;" x1="640.1597" x2="640.1597" y1="118.5938" y2="663.6563"/></g></g><g class="participant-lifeline" data-entity-uid="part4" data-qualified-name="OrderController" id="part4-lifeline"><g><title>OrderController</title><rect fill="#000000" fill-opacity="0.00000" height="545.0625" width="8" x="891.8584" y="118.5938"/><line style="stroke:#181818;stroke-width:0.5;stroke-dasharray:5,5;" x1="895.2563" x2="895.2563" y1="118.5938" y2="663.6563"/></g></g><g class="participant-lifeline" data-entity-uid="part5" data-qualified-name="OrderService" id="part5-lifeline"><g><title>OrderService</title><rect fill="#000000" fill-opacity="0.00000" height="545.0625" width="8" x="1072.5557" y="118.5938"/><line style="stroke:#181818;stroke-width:0.5;stroke-dasharray:5,5;" x1="1075.6694" x2="1075.6694" y1="118.5938" y2="663.6563"/></g></g><g class="participant-lifeline" data-entity-uid="part6" data-qualified-name="PaiementTiers" id="part6-lifeline"><g><title>PaiementTiers</title><rect fill="#000000" fill-opacity="0.00000" height="545.0625" width="8" x="1339.5996" y="118.5938"/><line style="stroke:#181818;stroke-width:0.5;stroke-dasharray:5,5;" x1="1343.4785" x2="1343.4785" y1="118.5938" y2="663.6563"/></g></g><g class="participant-lifeline" data-entity-uid="part7" data-qualified-name="PostgreSQL" id="part7-lifeline"><g><title>PostgreSQL</title><rect fill="#000000" fill-opacity="0.00000" height="545.0625" width="8" x="1607.4902" y="118.5938"/><line style="stroke:#181818;stroke-width:0.5;stroke-dasharray:5,5;" x1="1611.1138" x2="1611.1138" y1="118.5938" y2="663.6563"/></g></g><g class="participant participant-head" data-entity-uid="part1" data-qualified-name="Utilisateur" id="part1-head"><text fill="#000000" font-family="sans-serif" font-size="14" lengthAdjust="spacing" textLength="72.0098" x="20" y="115.292">Utilisateur</text><ellipse cx="59.0049" cy="50.7969" fill="#E2E2F0" rx="8" ry="8" style="stroke:#181818;stroke-width:0.5;"/><path d="M59.0049,58.7969 L59.0049,85.7969 M46.0049,66.7969 L72.0049,66.7969 M59.0049,85.7969 L46.0049,100.7969 M59.0049,85.7969 L72.0049,100.7969" fill="none" style="stroke:#181818;stroke-width:0.5;"/></g><g class="participant participant-tail" data-entity-uid="part1" data-qualified-name="Utilisateur" id="part1-tail"><text fill="#000000" font-family="sans-serif" font-size="14" lengthAdjust="spacing" textLength="72.0098" x="20" y="675.6514">Utilisateur</text><ellipse cx="59.0049" cy="687.4531" fill="#E2E2F0" rx="8" ry="8" style="stroke:#181818;stroke-width:0.5;"/><path d="M59.0049,695.4531 L59.0049,722.4531 M46.0049,703.4531 L72.0049,703.4531 M59.0049,722.4531 L46.0049,737.4531 M59.0049,722.4531 L72.0049,737.4531" fill="none" style="stroke:#181818;stroke-width:0.5;"/></g><g class="participant participant-head" data-entity-uid="part2" data-qualified-name="WebClient" id="part2-head"><rect fill="#E2E2F0" height="30.2969" rx="2.5" ry="2.5" style="stroke:#181818;stroke-width:0.5;" width="85.873" x="303.7637" y="87.2969"/><text fill="#000000" font-family="sans-serif" font-size="14" lengthAdjust="spacing" textLength="71.873" x="310.7637" y="107.292">WebClient</text></g><g class="participant participant-tail" data-entity-uid="part2" data-qualified-name="WebClient" id="part2-tail"><rect fill="#E2E2F0" height="30.2969" rx="2.5" ry="2.5" style="stroke:#181818;stroke-width:0.5;" width="85.873" x="303.7637" y="662.6563"/><text fill="#000000" font-family="sans-serif" font-size="14" lengthAdjust="spacing" textLength="71.873" x="310.7637" y="682.6514">WebClient</text></g><g class="participant participant-head" data-entity-uid="part3" data-qualified-name="ApiGateway" id="part3-head"><rect fill="#E2E2F0" height="30.2969" rx="2.5" ry="2.5" style="stroke:#181818;stroke-width:0.5;" width="98.1982" x="591.1597" y="87.2969"/><text fill="#000000" font-family="sans-serif" font-size="14" lengthAdjust="spacing" textLength="84.1982" x="598.1597" y="107.292">ApiGateway</text></g><g class="participant participant-tail" data-entity-uid="part3" data-qualified-name="ApiGateway" id="part3-tail"><rect fill="#E2E2F0" height="30.2969" rx="2.5" ry="2.5" style="stroke:#181818;stroke-width:0.5;" width="98.1982" x="591.1597" y="662.6563"/><text fill="#000000" font-family="sans-serif" font-size="14" lengthAdjust="spacing" textLength="84.1982" x="598.1597" y="682.6514">ApiGateway</text></g><g class="participant participant-head" data-entity-uid="part4" data-qualified-name="OrderController" id="part4-head"><rect fill="#E2E2F0" height="30.2969" rx="2.5" ry="2.5" style="stroke:#181818;stroke-width:0.5;" width="123.2041" x="834.2563" y="87.2969"/><text fill="#000000" font-family="sans-serif" font-size="14" lengthAdjust="spacing" textLength="109.2041" x="841.2563" y="107.292">OrderController</text></g><g class="participant participant-tail" data-entity-uid="part4" data-qualified-name="OrderController" id="part4-tail"><rect fill="#E2E2F0" height="30.2969" rx="2.5" ry="2.5" style="stroke:#181818;stroke-width:0.5;" width="123.2041" x="834.2563" y="662.6563"/><text fill="#000000" font-family="sans-serif" font-size="14" lengthAdjust="spacing" textLength="109.2041" x="841.2563" y="682.6514">OrderController</text></g><g class="participant participant-head" data-entity-uid="part5" data-qualified-name="OrderService" id="part5-head"><rect fill="#E2E2F0" height="30.2969" rx="2.5" ry="2.5" style="stroke:#181818;stroke-width:0.5;" width="105.7725" x="1023.6694" y="87.2969"/><text fill="#000000" font-family="sans-serif" font-size="14" lengthAdjust="spacing" textLength="91.7725" x="1030.6694" y="107.292">OrderService</text></g><g class="participant participant-tail" data-entity-uid="part5" data-qualified-name="OrderService" id="part5-tail"><rect fill="#E2E2F0" height="30.2969" rx="2.5" ry="2.5" style="stroke:#181818;stroke-width:0.5;" width="105.7725" x="1023.6694" y="662.6563"/><text fill="#000000" font-family="sans-serif" font-size="14" lengthAdjust="spacing" textLength="91.7725" x="1030.6694" y="682.6514">OrderService</text></g><g class="participant participant-head" data-entity-uid="part6" data-qualified-name="PaiementTiers" id="part6-head"><rect fill="#E2E2F0" height="30.2969" rx="2.5" ry="2.5" style="stroke:#181818;stroke-width:0.5;" width="114.2422" x="1286.4785" y="87.2969"/><text fill="#000000" font-family="sans-serif" font-size="14" lengthAdjust="spacing" textLength="100.2422" x="1293.4785" y="107.292">PaiementTiers</text></g><g class="participant participant-tail" data-entity-uid="part6" data-qualified-name="PaiementTiers" id="part6-tail"><rect fill="#E2E2F0" height="30.2969" rx="2.5" ry="2.5" style="stroke:#181818;stroke-width:0.5;" width="114.2422" x="1286.4785" y="662.6563"/><text fill="#000000" font-family="sans-serif" font-size="14" lengthAdjust="spacing" textLength="100.2422" x="1293.4785" y="682.6514">PaiementTiers</text></g><g class="participant participant-head" data-entity-uid="part7" data-qualified-name="PostgreSQL" id="part7-head"><text fill="#000000" font-family="sans-serif" font-size="14" lengthAdjust="spacing" textLength="80.7529" x="1568.1138" y="115.292">PostgreSQL</text><path d="M1593.4902,66.2969 C1593.4902,56.2969 1611.4902,56.2969 1611.4902,56.2969 C1611.4902,56.2969 1629.4902,56.2969 1629.4902,66.2969 L1629.4902,92.2969 C1629.4902,102.2969 1611.4902,102.2969 1611.4902,102.2969 C1611.4902,102.2969 1593.4902,102.2969 1593.4902,92.2969 L1593.4902,66.2969" fill="#E2E2F0" style="stroke:#181818;stroke-width:0.5;"/><path d="M1593.4902,66.2969 C1593.4902,76.2969 1611.4902,76.2969 1611.4902,76.2969 C1611.4902,76.2969 1629.4902,76.2969 1629.4902,66.2969" fill="none" style="stroke:#181818;stroke-width:0.5;"/></g><g class="participant participant-tail" data-entity-uid="part7" data-qualified-name="PostgreSQL" id="part7-tail"><text fill="#000000" font-family="sans-serif" font-size="14" lengthAdjust="spacing" textLength="80.7529" x="1568.1138" y="675.6514">PostgreSQL</text><path d="M1593.4902,688.9531 C1593.4902,678.9531 1611.4902,678.9531 1611.4902,678.9531 C1611.4902,678.9531 1629.4902,678.9531 1629.4902,688.9531 L1629.4902,714.9531 C1629.4902,724.9531 1611.4902,724.9531 1611.4902,724.9531 C1611.4902,724.9531 1593.4902,724.9531 1593.4902,714.9531 L1593.4902,688.9531" fill="#E2E2F0" style="stroke:#181818;stroke-width:0.5;"/><path d="M1593.4902,688.9531 C1593.4902,698.9531 1611.4902,698.9531 1611.4902,698.9531 C1611.4902,698.9531 1629.4902,698.9531 1629.4902,688.9531" fill="none" style="stroke:#181818;stroke-width:0.5;"/></g><g><title>WebClient</title><rect fill="#FFFFFF" height="503.9297" style="stroke:#181818;stroke-width:1;" width="10" x="341.7002" y="149.7266"/></g><g><title>ApiGateway</title><rect fill="#FFFFFF" height="299.3281" style="stroke:#181818;stroke-width:1;" width="10" x="635.2588" y="178.8594"/></g><g><title>OrderController</title><rect fill="#FFFFFF" height="29.1328" style="stroke:#181818;stroke-width:1;" width="10" x="890.8584" y="207.9922"/></g><g><title>PaiementTiers</title><rect fill="#FFFFFF" height="285" style="stroke:#181818;stroke-width:1;" width="10" x="1338.5996" y="266.2578"/></g><g><title>PaiementTiers</title><rect fill="#FFFFFF" height="53.2656" style="stroke:#181818;stroke-width:1;" width="10" x="1343.5996" y="295.3906"/></g><g class="message" data-entity-1="part1" data-entity-2="part2" id="msg1"><polygon fill="#181818" points="329.7002,145.7266,339.7002,149.7266,329.7002,153.7266,333.7002,149.7266" style="stroke:#181818;stroke-width:1;"/><line style="stroke:#181818;stroke-width:1;" x1="59.0049" x2="335.7002" y1="149.7266" y2="149.7266"/><text fill="#000000" font-family="sans-serif" font-size="13" font-weight="bold" lengthAdjust="spacing" textLength="9.0454" x="66.0049" y="144.6606">1</text><text fill="#000000" font-family="sans-serif" font-size="13" lengthAdjust="spacing" textLength="250.6499" x="79.0503" y="144.6606">Clique sur "Acheter" (GameID, UserID)</text></g><g class="message" data-entity-1="part2" data-entity-2="part3" id="msg2"><polygon fill="#181818" points="623.2588,174.8594,633.2588,178.8594,623.2588,182.8594,627.2588,178.8594" style="stroke:#181818;stroke-width:1;"/><line style="stroke:#181818;stroke-width:1;" x1="351.7002" x2="629.2588" y1="178.8594" y2="178.8594"/><text fill="#000000" font-family="sans-serif" font-size="13" font-weight="bold" lengthAdjust="spacing" textLength="9.0454" x="358.7002" y="173.7935">2</text><text fill="#000000" font-family="sans-serif" font-size="13" lengthAdjust="spacing" textLength="251.5132" x="371.7456" y="173.7935">POST /api/v1/order/checkout (Payload)</text></g><g class="message" data-entity-1="part3" data-entity-2="part4" id="msg3"><polygon fill="#181818" points="878.8584,203.9922,888.8584,207.9922,878.8584,211.9922,882.8584,207.9922" style="stroke:#181818;stroke-width:1;"/><line style="stroke:#181818;stroke-width:1;" x1="645.2588" x2="884.8584" y1="207.9922" y2="207.9922"/><text fill="#000000" font-family="sans-serif" font-size="13" font-weight="bold" lengthAdjust="spacing" textLength="9.0454" x="652.2588" y="202.9263">3</text><text fill="#000000" font-family="sans-serif" font-size="13" lengthAdjust="spacing" textLength="213.5542" x="665.3042" y="202.9263">Routage de la requ&#234;te /checkout</text></g><g class="message" data-entity-1="part4" data-entity-2="part5" id="msg4"><polygon fill="#181818" points="1064.5557,233.125,1074.5557,237.125,1064.5557,241.125,1068.5557,237.125" style="stroke:#181818;stroke-width:1;"/><line style="stroke:#181818;stroke-width:1;" x1="895.8584" x2="1070.5557" y1="237.125" y2="237.125"/><text fill="#000000" font-family="sans-serif" font-size="13" font-weight="bold" lengthAdjust="spacing" textLength="9.0454" x="902.8584" y="232.0591">4</text><text fill="#000000" font-family="sans-serif" font-size="13" lengthAdjust="spacing" textLength="138.6519" x="915.9038" y="232.0591">Cr&#233;er Pr&#233;-commande</text></g><g class="message" data-entity-1="part5" data-entity-2="part7" id="msg5"><polygon fill="#181818" points="1599.4902,262.2578,1609.4902,266.2578,1599.4902,270.2578,1603.4902,266.2578" style="stroke:#181818;stroke-width:1;"/><line style="stroke:#181818;stroke-width:1;" x1="1076.5557" x2="1605.4902" y1="266.2578" y2="266.2578"/><text fill="#000000" font-family="sans-serif" font-size="13" font-weight="bold" lengthAdjust="spacing" textLength="9.0454" x="1083.5557" y="261.1919">5</text><text fill="#000000" font-family="sans-serif" font-size="13" lengthAdjust="spacing" textLength="265.6748" x="1096.6011" y="261.1919">Bloque les fonds / Cr&#233;e l'Ordre (Pending)</text></g><g class="message" data-entity-1="part5" data-entity-2="part6" id="msg6"><polygon fill="#181818" points="1331.5996,291.3906,1341.5996,295.3906,1331.5996,299.3906,1335.5996,295.3906" style="stroke:#181818;stroke-width:1;"/><line style="stroke:#181818;stroke-width:1;" x1="1076.5557" x2="1337.5996" y1="295.3906" y2="295.3906"/><text fill="#000000" font-family="sans-serif" font-size="13" font-weight="bold" lengthAdjust="spacing" textLength="9.0454" x="1083.5557" y="290.3247">6</text><text fill="#000000" font-family="sans-serif" font-size="13" lengthAdjust="spacing" textLength="219.2925" x="1096.6011" y="290.3247">Initier Paiement (Montant, Token)</text></g><path d="M10,310.3906 L74.4429,310.3906 L74.4429,317.5234 L64.4429,327.5234 L10,327.5234 L10,310.3906" fill="#EEEEEE" style="stroke:#000000;stroke-width:1.5;"/><rect fill="none" height="336.2656" style="stroke:#000000;stroke-width:1.5;" width="1654.8667" x="10" y="310.3906"/><text fill="#000000" font-family="sans-serif" font-size="13" font-weight="bold" lengthAdjust="spacing" textLength="19.4429" x="25" y="323.4575">alt</text><text fill="#000000" font-family="sans-serif" font-size="11" font-weight="bold" lengthAdjust="spacing" textLength="131.2266" x="89.4429" y="322.6011">[Paiement approuv&#233;]</text><g class="message" data-entity-1="part6" data-entity-2="part5" id="msg7"><polygon fill="#181818" points="1087.5557,344.6563,1077.5557,348.6563,1087.5557,352.6563,1083.5557,348.6563" style="stroke:#181818;stroke-width:1;"/><line style="stroke:#181818;stroke-width:1;stroke-dasharray:2,2;" x1="1081.5557" x2="1337.5996" y1="348.6563" y2="348.6563"/><text fill="#000000" font-family="sans-serif" font-size="13" font-weight="bold" lengthAdjust="spacing" textLength="9.0454" x="1093.5557" y="343.5903">7</text><text fill="#000000" font-family="sans-serif" font-size="13" lengthAdjust="spacing" textLength="210.3359" x="1106.6011" y="343.5903">R&#233;ponse Succ&#232;s (TransactionID)</text></g><g class="message" data-entity-1="part5" data-entity-2="part5" id="msg8"><line style="stroke:#181818;stroke-width:1;" x1="1076.5557" x2="1118.5557" y1="377.7891" y2="377.7891"/><line style="stroke:#181818;stroke-width:1;" x1="1118.5557" x2="1118.5557" y1="377.7891" y2="390.7891"/><line style="stroke:#181818;stroke-width:1;" x1="1077.5557" x2="1118.5557" y1="390.7891" y2="390.7891"/><polygon fill="#181818" points="1087.5557,386.7891,1077.5557,390.7891,1087.5557,394.7891,1083.5557,390.7891" style="stroke:#181818;stroke-width:1;"/><text fill="#000000" font-family="sans-serif" font-size="13" font-weight="bold" lengthAdjust="spacing" textLength="9.0454" x="1083.5557" y="372.7231">8</text><text fill="#000000" font-family="sans-serif" font-size="13" lengthAdjust="spacing" textLength="239.9985" x="1096.6011" y="372.7231">Met &#224; jour l'&#233;tat de l'Ordre en "Pay&#233;"</text></g><g class="message" data-entity-1="part5" data-entity-2="part7" id="msg9"><polygon fill="#181818" points="1594.4902,415.9219,1604.4902,419.9219,1594.4902,423.9219,1598.4902,419.9219" style="stroke:#181818;stroke-width:1;"/><line style="stroke:#181818;stroke-width:1;" x1="1076.5557" x2="1600.4902" y1="419.9219" y2="419.9219"/><text fill="#000000" font-family="sans-serif" font-size="13" font-weight="bold" lengthAdjust="spacing" textLength="9.0454" x="1083.5557" y="414.856">9</text><text fill="#000000" font-family="sans-serif" font-size="13" lengthAdjust="spacing" textLength="492.8892" x="1096.6011" y="414.856">Confirme la transaction et cr&#233;dite le jeu dans la biblioth&#232;que de l'utilisateur</text></g><g class="message" data-entity-1="part5" data-entity-2="part3" id="msg10"><polygon fill="#181818" points="656.2588,445.0547,646.2588,449.0547,656.2588,453.0547,652.2588,449.0547" style="stroke:#181818;stroke-width:1;"/><line style="stroke:#181818;stroke-width:1;stroke-dasharray:2,2;" x1="650.2588" x2="1075.5557" y1="449.0547" y2="449.0547"/><text fill="#000000" font-family="sans-serif" font-size="13" font-weight="bold" lengthAdjust="spacing" textLength="18.0908" x="662.2588" y="443.9888">10</text><text fill="#000000" font-family="sans-serif" font-size="13" lengthAdjust="spacing" textLength="183.6631" x="684.3496" y="443.9888">Confirmation de Commande</text></g><g class="message" data-entity-1="part3" data-entity-2="part2" id="msg11"><polygon fill="#181818" points="362.7002,474.1875,352.7002,478.1875,362.7002,482.1875,358.7002,478.1875" style="stroke:#181818;stroke-width:1;"/><line style="stroke:#181818;stroke-width:1;stroke-dasharray:2,2;" x1="356.7002" x2="639.2588" y1="478.1875" y2="478.1875"/><text fill="#000000" font-family="sans-serif" font-size="13" font-weight="bold" lengthAdjust="spacing" textLength="18.0908" x="368.7002" y="473.1216">11</text><text fill="#000000" font-family="sans-serif" font-size="13" lengthAdjust="spacing" textLength="147.8813" x="390.791" y="473.1216">Success (200 Success)</text></g><g class="message" data-entity-1="part2" data-entity-2="part1" id="msg12"><polygon fill="#181818" points="70.0049,503.3203,60.0049,507.3203,70.0049,511.3203,66.0049,507.3203" style="stroke:#181818;stroke-width:1;"/><line style="stroke:#181818;stroke-width:1;stroke-dasharray:2,2;" x1="64.0049" x2="340.7002" y1="507.3203" y2="507.3203"/><text fill="#000000" font-family="sans-serif" font-size="13" font-weight="bold" lengthAdjust="spacing" textLength="18.0908" x="76.0049" y="502.2544">12</text><text fill="#000000" font-family="sans-serif" font-size="13" lengthAdjust="spacing" textLength="183.8916" x="98.0957" y="502.2544">Affichage de la confirmation</text></g><line style="stroke:#000000;stroke-width:1;stroke-dasharray:2,2;" x1="10" x2="1664.8667" y1="516.3203" y2="516.3203"/><text fill="#000000" font-family="sans-serif" font-size="11" font-weight="bold" lengthAdjust="spacing" textLength="112.1216" x="15" y="526.5308">[Paiement refus&#233;]</text><g class="message" data-entity-1="part6" data-entity-2="part5" id="msg13"><polygon fill="#181818" points="1087.5557,547.2578,1077.5557,551.2578,1087.5557,555.2578,1083.5557,551.2578" style="stroke:#181818;stroke-width:1;"/><line style="stroke:#181818;stroke-width:1;stroke-dasharray:2,2;" x1="1081.5557" x2="1342.5996" y1="551.2578" y2="551.2578"/><text fill="#000000" font-family="sans-serif" font-size="13" font-weight="bold" lengthAdjust="spacing" textLength="18.0908" x="1093.5557" y="546.1919">13</text><text fill="#000000" font-family="sans-serif" font-size="13" lengthAdjust="spacing" textLength="201.3984" x="1115.6465" y="546.1919">R&#233;ponse Refus (TransactionID)</text></g><g class="message" data-entity-1="part5" data-entity-2="part3" id="msg14"><polygon fill="#181818" points="651.2588,576.3906,641.2588,580.3906,651.2588,584.3906,647.2588,580.3906" style="stroke:#181818;stroke-width:1;"/><line style="stroke:#181818;stroke-width:1;stroke-dasharray:2,2;" x1="645.2588" x2="1075.5557" y1="580.3906" y2="580.3906"/><text fill="#000000" font-family="sans-serif" font-size="13" font-weight="bold" lengthAdjust="spacing" textLength="18.0908" x="657.2588" y="575.3247">14</text><text fill="#000000" font-family="sans-serif" font-size="13" lengthAdjust="spacing" textLength="122.9604" x="679.3496" y="575.3247">Refus de paiement</text></g><g class="message" data-entity-1="part3" data-entity-2="part2" id="msg15"><polygon fill="#181818" points="362.7002,605.5234,352.7002,609.5234,362.7002,613.5234,358.7002,609.5234" style="stroke:#181818;stroke-width:1;"/><line style="stroke:#181818;stroke-width:1;stroke-dasharray:2,2;" x1="356.7002" x2="639.2588" y1="609.5234" y2="609.5234"/><text fill="#000000" font-family="sans-serif" font-size="13" font-weight="bold" lengthAdjust="spacing" textLength="18.0908" x="368.7002" y="604.4575">15</text><text fill="#000000" font-family="sans-serif" font-size="13" lengthAdjust="spacing" textLength="152.8516" x="390.791" y="604.4575">Failure (403 Forbidden)</text></g><g class="message" data-entity-1="part2" data-entity-2="part1" id="msg16"><polygon fill="#181818" points="70.0049,634.6563,60.0049,638.6563,70.0049,642.6563,66.0049,638.6563" style="stroke:#181818;stroke-width:1;"/><line style="stroke:#181818;stroke-width:1;stroke-dasharray:2,2;" x1="64.0049" x2="340.7002" y1="638.6563" y2="638.6563"/><text fill="#000000" font-family="sans-serif" font-size="13" font-weight="bold" lengthAdjust="spacing" textLength="18.0908" x="76.0049" y="633.5903">16</text><text fill="#000000" font-family="sans-serif" font-size="13" lengthAdjust="spacing" textLength="201.8872" x="98.0957" y="633.5903">Affichage du message de refus</text></g><?plantuml-src hLHDJzj04BtxLup2WI21GZzEELIY811L4Ia9wddidOI1zQvPxwRYt_H8-ZVynpeRadYTq5PLcukT7S-RcVVcBGPlJIXpSfbdhmdE66SEov904OoRnMCWKn0CuQIuGmzgFnZuH27BiF3MmQrdpJLw2Ywhq7akk4BZuIlbfvh9-CxfISKNykqtVEeSNpj5xjGQxwpMv7PZOt9pBgWJ625JAGKcJAxE57hCiIOOsThF78s_VCwof3au-j3sD0Hvoc1GIw0dWv4druF-1PPqUNO8jpMvoxE3E2BF9JsPPlCM0TjnXZ2w7azWW1KFvcy6DZOz4DpYmGOF_H4-QOigGKoOQ5yZvXONGloDGE1igOT6SFGOcX-2i85lGRTvtCPQmw_e51fSiv3paJoE2bkMQ1HbYduFkCgEQ2tPG_YeRQHKKmrJQrGDWnTuqFkIvaXO8AFOp0xI2ebSxLb7sPsQQNG8buOznnbMnz2_advbGGvXOX_87FmA5xM7FSspEv_hq0O1gyhPC6yM6SYlamD7EmpUD8lA6jcxSIYAvhc6_iIXgMDDQ-8EHP1qtauFCRWzNnV_YZmqt-7UogRg_MRXemTRJib0JvQhMVIMMA_H-bgDL3UHTygkN2wNRti7ALo8Vefz51NkAO2IQFmivropzNVDSrHysKv8xe7TYbjUMPN4PHr9FrslNinCxT0rRQIOQg7uxV7n-iyEmOcnOYJngu0b5u9SQDCfovssSLQHT9MH5attAZOFxMOuceRwR_VY9YRzwrPiyVU2ALrNgxm_47UEh4DquFlZTt1kNSvAHMVy3-e2b2B3YiKbGvdOFBNu1kSd?></g></svg>