<svg xmlns="http://www.w3.org/2000/svg" xmlns:xlink="http://www.w3.org/1999/xlink" xmlns:lucid="lucid" width="1777.5" height="1892.53"><g transform="translate(-978 -349.46875)" lucid:page-tab-id="0_0"><path d="M500 0h2500v2500H500z" fill="#fff"/><path d="M980 472a12 12 0 0 1 12-12h1749.5a12 12 0 0 1 12 12v1756a12 12 0 0 1-12 12H992a12 12 0 0 1-12-12z" stroke="#979ea8" stroke-width="4" fill="#fff"/><path d="M980 363.47a12 12 0 0 1 12-12h374.6a12 12 0 0 1 12 12V436a12 12 0 0 1-12 12H992a12 12 0 0 1-12-12z" stroke="#979ea8" stroke-width="4" fill="#979ea8"/><use xlink:href="#a" transform="matrix(1,0,0,1,996,367.46875) translate(0 51.90104166666667)"/><use xlink:href="#b" transform="matrix(1,0,0,1,996,367.46875) translate(212.99479166666666 51.90104166666667)"/><use xlink:href="#c" transform="matrix(1,0,0,1,996,367.46875) translate(291.04166666666663 51.90104166666667)"/><path d="M1020 1168a8 8 0 0 1 8-8h84a8 8 0 0 1 8 8v4.93a17.07 17.07 0 0 1-5 12.07 17.07 17.07 0 0 1-12.07 5H1028a8 8 0 0 1-8-8z" fill="#fff"/><path d="M1120 1160v20l-10 10h-90" stroke="#000" stroke-width="2" fill="none"/><path d="M1020 1168a8 8 0 0 1 8-8h1551a8 8 0 0 1 8 8v784a8 8 0 0 1-8 8H1028a8 8 0 0 1-8-8zM1020 1537.27h20m15 0h20m15 0h20m15 0h20m15 0h20m15 0h20m15 0h20m15 0h20m15 0h20m15 0h20m15 0h20m15 0h20m15 0h20m15 0h20m15 0h20m15 0h20m15 0h20m15 0h20m15 0h20m15 0h20m15 0h20m15 0h20m15 0h20m15 0h20m15 0h20m15 0h20m15 0h20m15 0h20m15 0h20m15 0h20m15 0h20m15 0h20m15 0h20m15 0h20m15 0h20m15 0h20m15 0h20m15 0h20m15 0h20m15 0h20m15 0h20m15 0h20m15 0h20m15 0h20m15 0h20" stroke="#000" stroke-width="2" fill="none"/><use xlink:href="#d" transform="matrix(1,0,0,1,1028,1160) translate(-4.77783203125 21.5478515625)"/><use xlink:href="#e" transform="matrix(1,0,0,1,1032,1198) translate(6.9853515625 21.5478515625)"/><use xlink:href="#f" transform="matrix(1,0,0,1,1032,1198) translate(32.2978515625 21.5478515625)"/><use xlink:href="#g" transform="matrix(1,0,0,1,1032,1198) translate(58.0322265625 21.5478515625)"/><use xlink:href="#h" transform="matrix(1,0,0,1,1032,1198) translate(142.0380859375 21.5478515625)"/><use xlink:href="#i" transform="matrix(1,0,0,1,1032,1545.2727272727273) translate(8.4384765625 21.5478515625)"/><use xlink:href="#g" transform="matrix(1,0,0,1,1032,1545.2727272727273) translate(34.1728515625 21.5478515625)"/><use xlink:href="#j" transform="matrix(1,0,0,1,1032,1545.2727272727273) translate(118.1787109375 21.5478515625)"/><use xlink:href="#k" transform="matrix(1,0,0,1,1032,1545.2727272727273) translate(164.892578125 21.5478515625)"/><use xlink:href="#l" transform="matrix(1,0,0,1,1032,1545.2727272727273) translate(200.7607421875 21.5478515625)"/><path d="M993.5 928a8 8 0 0 1 8-8h84a8 8 0 0 1 8 8v4.93a17.07 17.07 0 0 1-5 12.07 17.07 17.07 0 0 1-12.07 5h-74.93a8 8 0 0 1-8-8z" fill="#fff"/><path d="M1093.5 920v20l-10 10h-90" stroke="#000" stroke-width="2" fill="none"/><path d="M993.5 928a8 8 0 0 1 8-8h1604a8 8 0 0 1 8 8v1084a8 8 0 0 1-8 8h-1604a8 8 0 0 1-8-8zM993.5 1045h20m15 0h20m15 0h20m15 0h20m15 0h20m15 0h20m15 0h20m15 0h20m15 0h20m15 0h20m15 0h20m15 0h20m15 0h20m15 0h20m15 0h20m15 0h20m15 0h20m15 0h20m15 0h20m15 0h20m15 0h20m15 0h20m15 0h20m15 0h20m15 0h20m15 0h20m15 0h20m15 0h20m15 0h20m15 0h20m15 0h20m15 0h20m15 0h20m15 0h20m15 0h20m15 0h20m15 0h20m15 0h20m15 0h20m15 0h20m15 0h20m15 0h20m15 0h20m15 0h20m15 0h20m15 0h20m15 0h10" stroke="#000" stroke-width="2" fill="none"/><use xlink:href="#d" transform="matrix(1,0,0,1,1001.5042148944044,920) translate(-4.77783203125 21.5478515625)"/><use xlink:href="#m" transform="matrix(1,0,0,1,1005.5042148944044,958) translate(10.83544921875 21.5478515625)"/><use xlink:href="#j" transform="matrix(1,0,0,1,1005.5042148944044,958) translate(67.25244140625 21.5478515625)"/><use xlink:href="#k" transform="matrix(1,0,0,1,1005.5042148944044,958) translate(113.96630859375 21.5478515625)"/><use xlink:href="#n" transform="matrix(1,0,0,1,1005.5042148944044,958) translate(149.83447265625 21.5478515625)"/><use xlink:href="#m" transform="matrix(1,0,0,1,1005.5042148944044,1053) translate(6.6533203125 21.5478515625)"/><use xlink:href="#o" transform="matrix(1,0,0,1,1005.5042148944044,1053) translate(63.0703125 21.5478515625)"/><use xlink:href="#n" transform="matrix(1,0,0,1,1005.5042148944044,1053) translate(94.0166015625 21.5478515625)"/><path d="M1177.36 667.57h-11.5m-11.5 0h-11.5a5 5 0 0 0-5 5v10.02m0 10v20.04m0 10.02v20.03m0 10v20.04m0 10.02v20.03m0 10v20.04m0 10.02v20.03m0 10v20.04m0 10.02V923m0 10v20.04m0 10.02v20.04m0 10v20.04m0 10.02v20.04m0 10v20.05m0 10v20.05m0 10v20.05m0 10v20.05m0 10v20.05m0 10.02v20.03m0 10.02v20.03m0 10.02v20.03m0 10.02v20.03m0 10.02v20.03m0 10.02v20.03m0 10.02v20.03m0 10.02v20.03m0 10.02v20.03m0 10.02v20.03m0 10.02V1524m0 10.02v20.04m0 10v20.05m0 10.02v20.04m0 10v20.05m0 10.02v20.04m0 10.02v20.03m0 10.03v20.03m0 10.02v20.03m0 10.03v20.03m0 10.02v20.03m0 10.03v20.03m0 10.02v20.03m0 10.03v20.03m0 10.02v20.03m0 10.03v20.03m0 10.02v20.04m0 10v20.05m0 10v20.05m0 10v20.05m0 10V2115a5 5 0 0 0 5 5H1153M1177.35 667.57h3.5M1153 2120h.5M1491.83 661.5v10.05m0 10.06v20.12m0 10.05v20.1m0 10.06v20.1m0 10.07v20.1m0 10.06v20.1m0 10.06v20.1m0 10.07v20.1m0 10.05v20.1m0 10.06v20.12m0 10.06v20.1m0 10.06v20.1m0 10.06v20.1m0 10.07v20.1m0 10.06v20.1m0 10.07v20.1m0 10.06v20.1m0 10.06v20.1m0 10.06v20.1m0 10.07v20.1m0 10.06v20.12m0 10.05v20.1m0 10.07v20.1m0 10.06v20.1m0 10.06v20.1m0 10.07v20.1m0 10.06v20.1m0 10.05v20.1m0 10.07v20.1m0 10.06v20.1m0 10.06v20.1m0 10.07v20.12m0 10.05v20.1m0 10.06v20.1m0 10.07v20.1m0 10.06v20.1m0 10.06v20.1m0 10.07v20.1m0 10.05v20.1m0 10.06v20.12m0 10.06v20.1m0 10.06v20.1m0 10.06v20.1m0 10.07v20.1m0 10.06v20.1m0 10.06v20.1m0 10.06v20.1m0 10.06v20.1m0 10.06v20.1m0 10.07v10.05" stroke="#333" fill="none"/><path d="M1492.3 661.5h-.95v-.5h.95z" stroke="#333" stroke-width=".05" fill="#333"/><path d="M1491.83 2139.5v.5M1852.66 661.5v10.06m0 10.05v20.13m0 10.05v20.12m0 10.05v20.12m0 10.05v20.12m0 10.05v20.1m0 10.07v20.1m0 10.06v20.12m0 10.05v20.12m0 10.06v20.1m0 10.06v20.12m0 10.06v20.1m0 10.07v20.1m0 10.06v20.1m0 10.07v20.1m0 10.07v20.1m0 10.07v20.1m0 10.07v20.1m0 10.07v20.12m0 10.06v20.1m0 10.07v20.1m0 10.07v20.1m0 10.07v20.1m0 10.06v20.1m0 10.07v20.1m0 10.07v20.1m0 10.07v20.1m0 10.07v20.1m0 10.07v20.12m0 10.06v20.1m0 10.07v20.1m0 10.07v20.1m0 10.07v20.1m0 10.06v20.1m0 10.07v20.1m0 10.07v20.1m0 10.07v20.1m0 10.07v20.12m0 10.05v20.13m0 10.05v20.12m0 10.05v20.12m0 10.05v20.12m0 10.05v20.1m0 10.06v20.12m0 10.05v20.12m0 10.05v20.12m0 10.05v20.12m0 10.04v10.06" stroke="#333" fill="none"/><path d="M1853.13 661.5h-.95v-.5h.95z" stroke="#333" stroke-width=".05" fill="#333"/><path d="M1852.66 2079.5v.5M2213.5 661.5v10.06m0 10.05v20.13m0 10.05v20.12m0 10.05v20.12m0 10.05v20.12m0 10.05v20.1m0 10.07v20.1m0 10.06v20.12m0 10.05v20.12m0 10.06v20.1m0 10.06v20.12m0 10.06v20.1m0 10.07v20.1m0 10.06v20.1m0 10.07v20.1m0 10.07v20.1m0 10.07v20.1m0 10.07v20.1m0 10.07v20.12m0 10.06v20.1m0 10.07v20.1m0 10.07v20.1m0 10.07v20.1m0 10.06v20.1m0 10.07v20.1m0 10.07v20.1m0 10.07v20.1m0 10.07v20.1m0 10.07v20.12m0 10.06v20.1m0 10.07v20.1m0 10.07v20.1m0 10.07v20.1m0 10.06v20.1m0 10.07v20.1m0 10.07v20.1m0 10.07v20.1m0 10.07v20.12m0 10.05v20.13m0 10.05v20.12m0 10.05v20.12m0 10.05v20.12m0 10.05v20.1m0 10.06v20.12m0 10.05v20.12m0 10.05v20.12m0 10.05v20.12m0 10.04v10.06" stroke="#333" fill="none"/><path d="M2213.97 661.5h-.95v-.5h.95z" stroke="#333" stroke-width=".05" fill="#333"/><path d="M2213.5 2079.5v.5M2199 1105.54h-345.84" stroke="#333" fill="none"/><path d="M2212.5 1105.54l-13 7.5v-15z" stroke="#333" fill="#333"/><path d="M1853.17 1105.54h-.5" stroke="#333" fill="none"/><use xlink:href="#p" transform="matrix(1,0,0,1,1889.0408490735185,1079.7613805129542) translate(0.0049999999999954525 17.4375)"/><use xlink:href="#q" transform="matrix(1,0,0,1,1889.0408490735185,1079.7613805129542) translate(45.681757812499995 17.4375)"/><use xlink:href="#r" transform="matrix(1,0,0,1,1889.0408490735185,1079.7613805129542) translate(82.51671875 17.4375)"/><use xlink:href="#s" transform="matrix(1,0,0,1,1889.0408490735185,1079.7613805129542) translate(182.553828125 17.4375)"/><use xlink:href="#t" transform="matrix(1,0,0,1,1889.0408490735185,1079.7613805129542) translate(209.131953125 17.4375)"/><path d="M1757.62 548a8 8 0 0 1 8-8h174.08a8 8 0 0 1 8 8v105a8 8 0 0 1-8 8h-174.08a8 8 0 0 1-8-8z" stroke="#000" stroke-opacity="0" fill="#6db1ff"/><use xlink:href="#u" transform="matrix(1,0,0,1,1765.6213870944853,548) translate(53.609895833333326 58.51432291666667)"/><path d="M2118.45 548a8 8 0 0 1 8-8h174.08a8 8 0 0 1 8 8v105a8 8 0 0 1-8 8h-174.08a8 8 0 0 1-8-8z" stroke="#000" stroke-opacity="0" fill="#6db1ff"/><use xlink:href="#v" transform="matrix(1,0,0,1,2126.4553854227047,548) translate(19.36458333333333 58.51432291666667)"/><use xlink:href="#w" transform="matrix(1,0,0,1,2126.4553854227047,548) translate(83.12447916666667 58.51432291666667)"/><path d="M1158.1 591.8v-.2a19.75 19.75 0 0 1 19.76-19.76 19.75 19.75 0 0 1 19.75 19.75 19.75 19.75 0 0 1-19.74 19.74 19.75 19.75 0 0 1-19.75-19.75v-.2" stroke="#333" fill="#fff"/><path d="M1137.86 579.84a8 8 0 0 1 8-8h64a8 8 0 0 1 8 8v142a8 8 0 0 1-8 8h-64a8 8 0 0 1-8-8z" fill="none"/><path d="M1177.86 611.34v55.3l40 63.2m-40-63.2l-40 63.2m0-98.75h80" stroke="#333" fill="none"/><use xlink:href="#x" transform="matrix(1,0,0,1,1057.862006372005,729.8370265082585) translate(80.68893229166666 17.014322916666668)"/><path d="M1180.7 815.67H1456M1180.7 815.67h-.5" stroke="#333" fill="none"/><path d="M1470.78 815.67l-14.27 4.63v-9.27z" stroke="#333" fill="#333"/><use xlink:href="#y" transform="matrix(1,0,0,1,1254.8434187124376,819.6655519423589) translate(0.0049999999999954525 16.01666666666667)"/><use xlink:href="#z" transform="matrix(1,0,0,1,1254.8434187124376,819.6655519423589) translate(54.27921875 16.01666666666667)"/><use xlink:href="#A" transform="matrix(1,0,0,1,1254.8434187124376,819.6655519423589) translate(83.6565625 16.01666666666667)"/><path d="M1869.04 1191.36h10.43m10.42 0h20.83m10.43 0H1942m10.42 0h20.85m10.42 0h20.84m10.42 0h20.85m10.43 0h20.84m10.43 0h20.84m10.43 0h20.84m10.43 0h20.85m10.42 0h20.85m10.42 0H2213" stroke="#333" fill="none"/><path d="M1854.28 1191.36l14.26-4.63v9.27z" stroke="#333" fill="#333"/><path d="M2212.98 1191.36h.5" stroke="#333" fill="none"/><use xlink:href="#B" transform="matrix(1,0,0,1,1922.6062787610185,1195.3603110776871) translate(0.0049999999999954525 17.4375)"/><use xlink:href="#C" transform="matrix(1,0,0,1,1922.6062787610185,1195.3603110776871) translate(115.2735546875 17.4375)"/><use xlink:href="#t" transform="matrix(1,0,0,1,1922.6062787610185,1195.3603110776871) translate(142.00109375 17.4375)"/><path d="M1513.9 845.63h322.38M1513.9 845.63h-.5" stroke="#333" fill="none"/><path d="M1851.04 845.63l-14.26 4.63V841z" stroke="#333" fill="#333"/><use xlink:href="#D" transform="matrix(1,0,0,1,1595.3246085977948,821.6250031955857) translate(0.0049999999999954525 16.01666666666667)"/><use xlink:href="#E" transform="matrix(1,0,0,1,1595.3246085977948,821.6250031955857) translate(69.11723958333334 16.01666666666667)"/><use xlink:href="#F" transform="matrix(1,0,0,1,1595.3246085977948,821.6250031955857) translate(97.17869791666668 16.01666666666667)"/><path d="M1396.8 548a8 8 0 0 1 8-8h174.06a8 8 0 0 1 8 8v105a8 8 0 0 1-8 8H1404.8a8 8 0 0 1-8-8z" stroke="#000" stroke-opacity="0" fill="#6db1ff"/><use xlink:href="#G" transform="matrix(1,0,0,1,1404.787388766265,548) translate(52.657291666666666 58.51432291666667)"/><path d="M1587.36 600.5h72.57a.25.25 0 0 0 .25-.25.25.25 0 0 1 .25-.25h56.7" stroke="#3a414a" fill="none"/><path d="M1587.38 600.98h-.52V600h.52z" stroke="#3a414a" stroke-width=".05" fill="#3a414a"/><path d="M1731.9 600l-14.28 4.63v-9.26z" stroke="#3a414a" fill="#3a414a"/><path d="M2574.33 661.5v9.85m0 9.85v19.7m0 9.84v19.7m0 9.84v19.7m0 9.85v19.7m0 9.84v19.7m0 9.84v19.7m0 9.86v19.7m0 9.84v19.7m0 9.84v19.7m0 9.85v19.68m0 9.85v19.7m0 9.84v19.7m0 9.85v19.7m0 9.84v19.7m0 9.85v19.7m0 9.85v19.7m0 9.84v19.7m0 9.84v19.7m0 9.84v19.7m0 9.84v19.7m0 9.85v19.7m0 9.84v19.7m0 9.85v19.7m0 9.85v19.7m0 9.84v9.85a.4.4 0 0 1-.4.4.4.4 0 0 0-.43.4v9.86m0 9.85v19.7m0 9.85v19.7m0 9.84v19.7m0 9.84v19.7m0 9.84v19.7m0 9.85v19.7m0 9.84v19.7m0 9.84v19.7m0 9.86v19.7m0 9.84v19.7m0 9.84v19.7m0 9.85v19.68m0 9.85v19.7m0 9.84v19.7m0 9.85v19.7m0 9.84v19.7m0 9.84v19.7m0 9.85v19.7m0 9.84v19.7m0 9.83v19.7m0 9.85v19.7m0 9.84v19.7m0 9.85v19.7m0 9.84v19.7m0 9.85v9.85" stroke="#333" fill="none"/><path d="M2574.8 661.5h-.95v-.5h.95z" stroke="#333" stroke-width=".05" fill="#333"/><path d="M2573.5 2139.5v.5" stroke="#333" fill="none"/><path d="M2479.3 548a8 8 0 0 1 8-8h174.06a8 8 0 0 1 8 8v105a8 8 0 0 1-8 8H2487.3a8 8 0 0 1-8-8z" stroke="#000" stroke-opacity="0" fill="#6db1ff"/><use xlink:href="#H" transform="matrix(1,0,0,1,2487.289383750924,548) translate(50.538151041666666 58.51432291666667)"/><path d="M1867.15 893.32h20.5a5 5 0 0 0 5-5v-13.84a5 5 0 0 0-5-5h-20.5" stroke="#333" fill="none"/><path d="M1853.66 893.32l13-7.5v15zM1853.66 869.48l13-7.5v15z" stroke="#333" fill="#333"/><use xlink:href="#I" transform="matrix(1,0,0,1,1900.6590061594086,871.4009925798039) translate(0.0049999999999954525 16.01666666666667)"/><use xlink:href="#J" transform="matrix(1,0,0,1,1900.6590061594086,871.4009925798039) translate(55.110729166666665 16.01666666666667)"/><use xlink:href="#K" transform="matrix(1,0,0,1,1900.6590061594086,871.4009925798039) translate(180.93520833333335 16.01666666666667)"/><path d="M1853.16 1328.92h704.78M1853.17 1328.92h-.5" stroke="#333" fill="none"/><path d="M2572.7 1328.92l-14.26 4.64v-9.27z" stroke="#333" fill="#333"/><use xlink:href="#L" transform="matrix(1,0,0,1,2107.2288443313782,1303.1439767861903) translate(0.0049999999999954525 17.4375)"/><use xlink:href="#M" transform="matrix(1,0,0,1,2107.2288443313782,1303.1439767861903) translate(98.0294140625 17.4375)"/><use xlink:href="#N" transform="matrix(1,0,0,1,2107.2288443313782,1303.1439767861903) translate(117.5587109375 17.4375)"/><path d="M1853.16 1288.07h704.78M1853.17 1288.07h-.5" stroke="#333" fill="none"/><path d="M2572.7 1288.07l-14.26 4.64v-9.26z" stroke="#333" fill="#333"/><use xlink:href="#O" transform="matrix(1,0,0,1,2026.4925162063782,1262.2919454735131) translate(0.0049999999999954525 17.4375)"/><use xlink:href="#P" transform="matrix(1,0,0,1,2026.4925162063782,1262.2919454735131) translate(59.489374999999995 17.4375)"/><use xlink:href="#Q" transform="matrix(1,0,0,1,2026.4925162063782,1262.2919454735131) translate(79.405390625 17.4375)"/><use xlink:href="#R" transform="matrix(1,0,0,1,2026.4925162063782,1262.2919454735131) translate(109.9649609375 17.4375)"/><use xlink:href="#M" transform="matrix(1,0,0,1,2026.4925162063782,1262.2919454735131) translate(125.1348828125 17.4375)"/><use xlink:href="#S" transform="matrix(1,0,0,1,2026.4925162063782,1262.2919454735131) translate(144.6641796875 17.4375)"/><use xlink:href="#s" transform="matrix(1,0,0,1,2026.4925162063782,1262.2919454735131) translate(254.8262890625 17.4375)"/><use xlink:href="#T" transform="matrix(1,0,0,1,2026.4925162063782,1262.2919454735131) translate(281.4044140625 17.4375)"/><path d="M1869.04 1395.62h5m5 0h10m5 0h10m5 0h10m5 0h9.98m5 0h10m5 0h10m5 0h10m5 0h10m4.98 0h10m5 0h10m5 0h10m5 0h10m5 0h9.98m5 0h10m5 0h10m5 0h10m5 0h9.98m5 0h10m5 0h10m5 0h10m5 0h10m4.98 0h10m5 0h10m5 0h10m5 0h10m5 0h9.98m5 0h10m5 0h10m5 0h10m5 0h9.98m5 0h10m5 0h10m5 0h10m5 0h10m4.98 0h10m5 0h10m5 0h10m5 0h10m4.98 0h10m5 0h10m5 0h10m5 0h10m5 0h9.98m5 0h10m5 0h10m5 0h10m5 0h5" stroke="#333" fill="none"/><path d="M1854.28 1395.62l14.26-4.63v9.26z" stroke="#333" fill="#333"/><path d="M2573.8 1395.62h.53" stroke="#333" fill="none"/><g><use xlink:href="#B" transform="matrix(1,0,0,1,2126.7537466751282,1369.8411707660707) translate(0.0049999999999954525 17.4375)"/><use xlink:href="#U" transform="matrix(1,0,0,1,2126.7537466751282,1369.8411707660707) translate(115.2735546875 17.4375)"/></g><path d="M1508.2 1449.8h5m4.98 0h9.97m4.98 0h9.97m5 0h9.96m4.98 0h9.97m5 0h9.96m5 0h9.96m4.98 0h9.97m5 0h9.96m4.98 0h9.98m5 0h9.96m4.98 0h9.97m4.98 0h9.97m4.98 0h9.97m5 0h9.96m4.98 0h9.97m5 0h9.96m5 0h9.96m4.98 0h9.97m5 0h9.96m4.98 0h9.98m5 0h9.95m5 0h9.96m4.97 0h5" stroke="#333" fill="none"/><path d="M1493.44 1449.8l14.27-4.62v9.27z" stroke="#333" fill="#333"/><path d="M1852.15 1449.8h.5" stroke="#333" fill="none"/><g><use xlink:href="#B" transform="matrix(1,0,0,1,1582.8836085577984,1424.0326408747237) translate(0.0049999999999954525 17.4375)"/><use xlink:href="#V" transform="matrix(1,0,0,1,1582.8836085577984,1424.0326408747237) translate(115.2735546875 17.4375)"/></g><path d="M1154.25 1491.5h5.1m5.1 0h10.22m5.1 0H1190m5.1 0h10.22m5.1 0h10.22m5.1 0h10.22m5.1 0h10.22m5.1 0h10.23m5.1 0h10.23m5.1 0h10.22m5.1 0h10.22m5.1 0h10.22m5.1 0h10.2m5.12 0h10.22m5.1 0h10.22m5.1 0h10.22m5.1 0h10.22m5.1 0h10.22m5.1 0h10.22m5.1 0h10.23m5.1 0h10.22m5.1 0h10.2m5.12 0h5.1" stroke="#333" fill="none"/><path d="M1139.48 1491.5l14.27-4.64v9.27z" stroke="#333" fill="#333"/><path d="M1491.3 1491.5h.53" stroke="#333" fill="none"/><g><use xlink:href="#W" transform="matrix(1,0,0,1,1182.5065930390965,1439.5832308621493) translate(0.0049999999999954525 17.4375)"/><use xlink:href="#M" transform="matrix(1,0,0,1,1182.5065930390965,1439.5832308621493) translate(65.8878125 17.4375)"/><use xlink:href="#X" transform="matrix(1,0,0,1,1182.5065930390965,1439.5832308621493) translate(85.417109375 17.4375)"/><use xlink:href="#Y" transform="matrix(1,0,0,1,1182.5065930390965,1439.5832308621493) translate(197.8204296875 17.4375)"/><use xlink:href="#P" transform="matrix(1,0,0,1,1182.5065930390965,1439.5832308621493) translate(219.2657421875 17.4375)"/><use xlink:href="#Z" transform="matrix(1,0,0,1,1182.5065930390965,1439.5832308621493) translate(239.1817578125 17.4375)"/><use xlink:href="#aa" transform="matrix(1,0,0,1,1182.5065930390965,1439.5832308621493) translate(46.863886718749995 43.572656249999994)"/><use xlink:href="#M" transform="matrix(1,0,0,1,1182.5065930390965,1439.5832308621493) translate(93.19103515625 43.572656249999994)"/><use xlink:href="#ab" transform="matrix(1,0,0,1,1182.5065930390965,1439.5832308621493) translate(112.72033203125 43.572656249999994)"/></g><path d="M1869.04 1650.34h10.43m10.42 0h20.83m10.43 0H1942m10.42 0h20.85m10.42 0h20.84m10.42 0h20.85m10.43 0h20.84m10.43 0h20.84m10.43 0h20.84m10.43 0h20.85m10.42 0h20.85m10.42 0H2213" stroke="#333" fill="none"/><path d="M1854.28 1650.34l14.26-4.63v9.28z" stroke="#333" fill="#333"/><path d="M2212.98 1650.34h.5" stroke="#333" fill="none"/><g><use xlink:href="#ac" transform="matrix(1,0,0,1,1951.4475873547685,1624.564373405702) translate(0.0049999999999954525 17.4375)"/><use xlink:href="#C" transform="matrix(1,0,0,1,1951.4475873547685,1624.564373405702) translate(57.590937499999995 17.4375)"/><use xlink:href="#t" transform="matrix(1,0,0,1,1951.4475873547685,1624.564373405702) translate(84.3184765625 17.4375)"/></g><path d="M1508.2 1724.48h10.43m10.42 0h20.85m10.42 0h20.85m10.42 0h20.84m10.42 0h20.84m10.43 0h20.84m10.42 0h20.84m10.42 0h20.85m10.43 0h20.85m10.42 0h20.85m10.42 0h20.84m10.44 0h10.42" stroke="#333" fill="none"/><path d="M1493.44 1724.48l14.27-4.63v9.27z" stroke="#333" fill="#333"/><path d="M1852.15 1724.48h.5" stroke="#333" fill="none"/><g><use xlink:href="#ad" transform="matrix(1,0,0,1,1578.1550929327984,1698.7014940894) translate(0.0049999999999954525 17.4375)"/><use xlink:href="#ae" transform="matrix(1,0,0,1,1578.1550929327984,1698.7014940894) translate(57.336054687499995 17.4375)"/><use xlink:href="#P" transform="matrix(1,0,0,1,1578.1550929327984,1698.7014940894) translate(89.319453125 17.4375)"/><use xlink:href="#t" transform="matrix(1,0,0,1,1578.1550929327984,1698.7014940894) translate(109.23546875 17.4375)"/></g><path d="M1154.25 1799.05h10.2m10.22 0h20.43m10.22 0h20.43m10.2 0h20.44m10.2 0h20.44m10.2 0h20.44m10.2 0h20.44m10.22 0h20.42m10.22 0h20.43m10.22 0h20.43m10.22 0h20.43m10.2 0h10.23" stroke="#333" fill="none"/><path d="M1139.48 1799.05l14.27-4.64v9.28z" stroke="#333" fill="#333"/><path d="M1491.3 1799.05h.53" stroke="#333" fill="none"/><g><use xlink:href="#af" transform="matrix(1,0,0,1,1191.3967297578465,1747.1345620396623) translate(9.440058593749995 17.4375)"/><use xlink:href="#ag" transform="matrix(1,0,0,1,1191.3967297578465,1747.1345620396623) translate(87.72423828125 17.4375)"/><use xlink:href="#ah" transform="matrix(1,0,0,1,1191.3967297578465,1747.1345620396623) translate(185.38830078125 17.4375)"/><use xlink:href="#ai" transform="matrix(1,0,0,1,1191.3967297578465,1747.1345620396623) translate(222.60998046875 17.4375)"/><use xlink:href="#g" transform="matrix(1,0,0,1,1191.3967297578465,1747.1345620396623) translate(0.0049999999999954525 43.572656249999994)"/><use xlink:href="#aj" transform="matrix(1,0,0,1,1191.3967297578465,1747.1345620396623) translate(84.010859375 43.572656249999994)"/><use xlink:href="#k" transform="matrix(1,0,0,1,1191.3967297578465,1747.1345620396623) translate(124.7130078125 43.572656249999994)"/><use xlink:href="#ak" transform="matrix(1,0,0,1,1191.3967297578465,1747.1345620396623) translate(160.581171875 43.572656249999994)"/><use xlink:href="#al" transform="matrix(1,0,0,1,1191.3967297578465,1747.1345620396623) translate(187.3087109375 43.572656249999994)"/></g><path d="M1154.25 1894.8h337.08" stroke="#333" fill="none"/><path d="M1139.48 1894.8l14.27-4.65v9.27z" stroke="#333" fill="#333"/><path d="M1491.3 1894.8h.53" stroke="#333" fill="none"/><g><use xlink:href="#am" transform="matrix(1,0,0,1,1175.1809094453465,1842.8720077720434) translate(0.0049999999999954525 17.4375)"/><use xlink:href="#ag" transform="matrix(1,0,0,1,1175.1809094453465,1842.8720077720434) translate(72.6641796875 17.4375)"/><use xlink:href="#ae" transform="matrix(1,0,0,1,1175.1809094453465,1842.8720077720434) translate(170.3282421875 17.4375)"/><use xlink:href="#P" transform="matrix(1,0,0,1,1175.1809094453465,1842.8720077720434) translate(202.311640625 17.4375)"/><use xlink:href="#an" transform="matrix(1,0,0,1,1175.1809094453465,1842.8720077720434) translate(222.22765625 17.4375)"/><use xlink:href="#s" transform="matrix(1,0,0,1,1175.1809094453465,1842.8720077720434) translate(86.90685546875 43.572656249999994)"/><use xlink:href="#t" transform="matrix(1,0,0,1,1175.1809094453465,1842.8720077720434) translate(113.48498046875 43.572656249999994)"/></g><path d="M1508.2 966.33h5m4.98 0h9.97m4.98 0h9.97m5 0h9.96m4.98 0h9.97m5 0h9.96m5 0h9.96m4.98 0h9.97m5 0h9.96m4.98 0h9.98m5 0h9.96m4.98 0h9.97m4.98 0h9.97m4.98 0h9.97m5 0h9.96m4.98 0h9.97m5 0h9.96m5 0h9.96m4.98 0h9.97m5 0h9.96m4.98 0h9.98m5 0h9.95m5 0h9.96m4.97 0h5" stroke="#333" fill="none"/><path d="M1493.44 966.33l14.27-4.64v9.26z" stroke="#333" fill="#333"/><path d="M1852.15 966.33h.5" stroke="#333" fill="none"/><g><use xlink:href="#ao" transform="matrix(1,0,0,1,1553.8123194952984,942.3208769751706) translate(0.0049999999999954525 16.01666666666667)"/><use xlink:href="#ap" transform="matrix(1,0,0,1,1553.8123194952984,942.3208769751706) translate(93.55395833333334 16.01666666666667)"/><use xlink:href="#aq" transform="matrix(1,0,0,1,1553.8123194952984,942.3208769751706) translate(131.05265625 16.01666666666667)"/><use xlink:href="#ar" transform="matrix(1,0,0,1,1553.8123194952984,942.3208769751706) translate(163.99822916666668 16.01666666666667)"/></g><path d="M1154.25 1020.34h337.08" stroke="#333" fill="none"/><path d="M1139.48 1020.34l14.27-4.63v9.28z" stroke="#333" fill="#333"/><path d="M1491.3 1020.34h.53" stroke="#333" fill="none"/><g><use xlink:href="#as" transform="matrix(1,0,0,1,1183.1742362682633,996.3369178747246) translate(0.0049999999999954525 16.01666666666667)"/><use xlink:href="#z" transform="matrix(1,0,0,1,1183.1742362682633,996.3369178747246) translate(66.74380208333334 16.01666666666667)"/><use xlink:href="#at" transform="matrix(1,0,0,1,1183.1742362682633,996.3369178747246) translate(96.12114583333334 16.01666666666667)"/><use xlink:href="#au" transform="matrix(1,0,0,1,1183.1742362682633,996.3369178747246) translate(114.05916666666667 16.01666666666667)"/><use xlink:href="#av" transform="matrix(1,0,0,1,1183.1742362682633,996.3369178747246) translate(158.0565625 16.01666666666667)"/><use xlink:href="#aw" transform="matrix(1,0,0,1,1183.1742362682633,996.3369178747246) translate(182.4690625 16.01666666666667)"/></g><defs><path d="M52 0l541-1490h220L1361 0h-200l-149-416H398L254 0H52zm404-582h497c-103-290-145-390-251-756-108 377-145 460-246 756" id="ax"/><path d="M613 24c-304 0-509-231-509-576 0-350 205-580 509-580 216 0 392 114 453 309l-173 49c-33-115-133-197-280-197-223 0-326 196-326 419 0 220 103 415 326 415 150 0 252-85 285-206l172 49C1010-95 832 24 613 24" id="ay"/><path d="M338-670V0H158v-1490h180v566c73-149 190-208 336-208 226 0 379 139 379 422V0H872v-695c0-172-96-275-252-275-161 0-282 109-282 300" id="az"/><path d="M628 24c-324 0-524-230-524-574 0-343 198-582 503-582 237 0 487 146 487 559v75H286c9 234 145 362 343 362 132 0 231-58 273-172l174 48C1024-91 857 24 628 24zM287-650h624c-17-190-120-322-304-322-192 0-309 151-320 322" id="aA"/><path d="M598-1118v154H368v674c0 100 37 144 132 144 23 0 62-6 92-12L629-6c-37 13-88 20-134 20-193 0-307-107-307-290v-688H20v-154h168v-266h180v266h230" id="aB"/><path d="M158 0v-1118h174v172h12c41-113 157-188 290-188 26 0 70 2 91 3v181c-11-2-60-10-108-10-161 0-279 109-279 260V0H158" id="aC"/><g id="a"><use transform="matrix(0.026041666666666668,0,0,0.026041666666666668,0,0)" xlink:href="#ax"/><use transform="matrix(0.026041666666666668,0,0,0.026041666666666668,36.796875,0)" xlink:href="#ay"/><use transform="matrix(0.026041666666666668,0,0,0.026041666666666668,67.265625,0)" xlink:href="#az"/><use transform="matrix(0.026041666666666668,0,0,0.026041666666666668,98.80208333333334,0)" xlink:href="#aA"/><use transform="matrix(0.026041666666666668,0,0,0.026041666666666668,129.89583333333334,0)" xlink:href="#aB"/><use transform="matrix(0.026041666666666668,0,0,0.026041666666666668,146.82291666666666,0)" xlink:href="#aA"/><use transform="matrix(0.026041666666666668,0,0,0.026041666666666668,177.91666666666666,0)" xlink:href="#aC"/></g><path d="M537 14c-226 0-379-139-379-422v-710h180v695c0 172 97 275 253 275 160 0 281-109 281-300v-670h181V0H879v-209C806-46 684 14 537 14" id="aD"/><path d="M338-670V0H158v-1118h173l1 207c72-158 192-221 342-221 226 0 378 139 378 422V0H872v-695c0-172-96-275-252-275-161 0-282 109-282 300" id="aE"/><g id="b"><use transform="matrix(0.026041666666666668,0,0,0.026041666666666668,0,0)" xlink:href="#aD"/><use transform="matrix(0.026041666666666668,0,0,0.026041666666666668,31.536458333333336,0)" xlink:href="#aE"/></g><path d="M157-1118h181V80c1 225-123 350-364 338V252c126 9 184-48 183-172v-1198zm91-183c-68 0-125-53-125-119s57-119 125-119c69 0 126 53 126 119s-57 119-126 119" id="aF"/><g id="c"><use transform="matrix(0.026041666666666668,0,0,0.026041666666666668,0,0)" xlink:href="#aF"/><use transform="matrix(0.026041666666666668,0,0,0.026041666666666668,12.916666666666668,0)" xlink:href="#aA"/><use transform="matrix(0.026041666666666668,0,0,0.026041666666666668,44.01041666666667,0)" xlink:href="#aD"/></g><path fill="#3a414a" d="M52 0l541-1490h220L1361 0h-200l-149-416H398L254 0H52zm404-582h497c-103-290-145-390-251-756-108 377-145 460-246 756" id="aG"/><path fill="#3a414a" d="M338-1490V0H158v-1490h180" id="aH"/><path fill="#3a414a" d="M598-1118v154H368v674c0 100 37 144 132 144 23 0 62-6 92-12L629-6c-37 13-88 20-134 20-193 0-307-107-307-290v-688H20v-154h168v-266h180v266h230" id="aI"/><path fill="#3a414a" d="M628 24c-324 0-524-230-524-574 0-343 198-582 503-582 237 0 487 146 487 559v75H286c9 234 145 362 343 362 132 0 231-58 273-172l174 48C1024-91 857 24 628 24zM287-650h624c-17-190-120-322-304-322-192 0-309 151-320 322" id="aJ"/><path fill="#3a414a" d="M158 0v-1118h174v172h12c41-113 157-188 290-188 26 0 70 2 91 3v181c-11-2-60-10-108-10-161 0-279 109-279 260V0H158" id="aK"/><path fill="#3a414a" d="M338-670V0H158v-1118h173l1 207c72-158 192-221 342-221 226 0 378 139 378 422V0H872v-695c0-172-96-275-252-275-161 0-282 109-282 300" id="aL"/><path fill="#3a414a" d="M471 26C259 26 90-98 90-318c0-256 228-303 435-329 202-27 287-16 287-108 0-139-79-219-234-219-161 0-248 86-283 164l-173-57c86-203 278-265 451-265 150 0 419 46 419 395V0H815v-152h-12C765-73 660 26 471 26zm31-159c199 0 310-134 310-271v-155c-30 35-226 55-295 64-131 17-246 59-246 186 0 116 97 176 231 176" id="aM"/><path fill="#3a414a" d="M158 0v-1118h180V0H158zm91-1301c-68 0-125-53-125-119s57-119 125-119c69 0 126 53 126 119s-57 119-126 119" id="aN"/><path fill="#3a414a" d="M481 0L54-1118h197c107 314 236 620 325 951 87-331 217-637 324-951h197L670 0H481" id="aO"/><g id="d"><use transform="matrix(0.0087890625,0,0,0.0087890625,0,0)" xlink:href="#aG"/><use transform="matrix(0.0087890625,0,0,0.0087890625,12.4189453125,0)" xlink:href="#aH"/><use transform="matrix(0.0087890625,0,0,0.0087890625,17.0419921875,0)" xlink:href="#aI"/><use transform="matrix(0.0087890625,0,0,0.0087890625,22.7548828125,0)" xlink:href="#aJ"/><use transform="matrix(0.0087890625,0,0,0.0087890625,33.2490234375,0)" xlink:href="#aK"/><use transform="matrix(0.0087890625,0,0,0.0087890625,40.306640625,0)" xlink:href="#aL"/><use transform="matrix(0.0087890625,0,0,0.0087890625,50.94140625,0)" xlink:href="#aM"/><use transform="matrix(0.0087890625,0,0,0.0087890625,61.048828125,0)" xlink:href="#aI"/><use transform="matrix(0.0087890625,0,0,0.0087890625,66.9375,0)" xlink:href="#aN"/><use transform="matrix(0.0087890625,0,0,0.0087890625,71.296875,0)" xlink:href="#aO"/><use transform="matrix(0.0087890625,0,0,0.0087890625,81.0615234375,0)" xlink:href="#aJ"/></g><path fill="#3a414a" d="M180 0v-1490h190v1322h690V0H180" id="aP"/><g id="f"><use transform="matrix(0.0087890625,0,0,0.0087890625,0,0)" xlink:href="#aP"/><use transform="matrix(0.0087890625,0,0,0.0087890625,10.177734375,0)" xlink:href="#aJ"/></g><path fill="#3a414a" d="M158 418v-1536h174v179h20c37-59 106-193 324-193 279 0 474 222 474 576 0 356-194 580-473 580-213 0-288-135-325-197h-14v591H158zm492-555c209 0 317-186 317-421 0-232-105-413-317-413-206 0-314 166-314 413 0 249 111 421 314 421" id="aQ"/><path fill="#3a414a" d="M158 0v-1118h175l1 205c55-151 181-225 313-225 147 0 245 90 285 228 53-141 190-228 352-228 194 0 352 125 352 384V0h-181v-749c0-161-105-225-225-225-151 0-243 103-243 244V0H807v-767c0-124-93-207-219-207-131 0-250 92-250 270V0H158" id="aR"/><g id="g"><use transform="matrix(0.0087890625,0,0,0.0087890625,0,0)" xlink:href="#aQ"/><use transform="matrix(0.0087890625,0,0,0.0087890625,11.197265625,0)" xlink:href="#aM"/><use transform="matrix(0.0087890625,0,0,0.0087890625,21.3046875,0)" xlink:href="#aN"/><use transform="matrix(0.0087890625,0,0,0.0087890625,25.6640625,0)" xlink:href="#aJ"/><use transform="matrix(0.0087890625,0,0,0.0087890625,36.158203125,0)" xlink:href="#aR"/><use transform="matrix(0.0087890625,0,0,0.0087890625,51.92578125,0)" xlink:href="#aJ"/><use transform="matrix(0.0087890625,0,0,0.0087890625,62.419921875,0)" xlink:href="#aL"/><use transform="matrix(0.0087890625,0,0,0.0087890625,73.0546875,0)" xlink:href="#aI"/></g><path fill="#3a414a" d="M628 24c-324 0-524-230-524-574 0-343 198-582 503-582 237 0 487 146 487 559v75H286c9 234 145 362 343 362 132 0 231-58 273-172l174 48C1024-91 857 24 628 24zM287-650h624c-17-190-120-322-304-322-192 0-309 151-320 322zm237-614l140-294h201l-194 294H524" id="aS"/><path fill="#3a414a" d="M537 14c-226 0-379-139-379-422v-710h180v695c0 172 97 275 253 275 160 0 281-109 281-300v-670h181V0H879v-209C806-46 684 14 537 14" id="aT"/><path fill="#3a414a" d="M538 24C308 24 148-78 108-271l171-41c32 123 123 178 257 178 156 0 256-77 256-169 0-77-54-128-164-154l-186-44c-203-48-300-148-300-305 0-192 176-326 414-326 230 0 351 112 402 269l-163 42c-31-80-94-158-238-158-133 0-233 69-233 162 0 83 57 129 188 160l169 40c203 48 298 149 298 302 0 196-179 339-441 339" id="aU"/><g id="h"><use transform="matrix(0.0087890625,0,0,0.0087890625,0,0)" xlink:href="#aK"/><use transform="matrix(0.0087890625,0,0,0.0087890625,6.4775390625,0)" xlink:href="#aS"/><use transform="matrix(0.0087890625,0,0,0.0087890625,16.9716796875,0)" xlink:href="#aT"/><use transform="matrix(0.0087890625,0,0,0.0087890625,27.615234375,0)" xlink:href="#aU"/><use transform="matrix(0.0087890625,0,0,0.0087890625,37.1162109375,0)" xlink:href="#aU"/><use transform="matrix(0.0087890625,0,0,0.0087890625,46.6171875,0)" xlink:href="#aN"/></g><g id="i"><use transform="matrix(0.0087890625,0,0,0.0087890625,0,0)" xlink:href="#aP"/><use transform="matrix(0.0087890625,0,0,0.0087890625,10.177734375,0)" xlink:href="#aJ"/></g><path fill="#3a414a" d="M232-923l-22-567h194l-22 567H232" id="aV"/><g id="j"><use transform="matrix(0.0087890625,0,0,0.0087890625,0,0)" xlink:href="#aL"/><use transform="matrix(0.0087890625,0,0,0.0087890625,10.634765625,0)" xlink:href="#aV"/><use transform="matrix(0.0087890625,0,0,0.0087890625,15.767578125,0)" xlink:href="#aJ"/><use transform="matrix(0.0087890625,0,0,0.0087890625,26.26171875,0)" xlink:href="#aU"/><use transform="matrix(0.0087890625,0,0,0.0087890625,35.7626953125,0)" xlink:href="#aI"/></g><g id="k"><use transform="matrix(0.0087890625,0,0,0.0087890625,0,0)" xlink:href="#aQ"/><use transform="matrix(0.0087890625,0,0,0.0087890625,11.197265625,0)" xlink:href="#aM"/><use transform="matrix(0.0087890625,0,0,0.0087890625,21.3046875,0)" xlink:href="#aU"/></g><g id="l"><use transform="matrix(0.0087890625,0,0,0.0087890625,0,0)" xlink:href="#aQ"/><use transform="matrix(0.0087890625,0,0,0.0087890625,11.197265625,0)" xlink:href="#aM"/><use transform="matrix(0.0087890625,0,0,0.0087890625,21.3046875,0)" xlink:href="#aU"/><use transform="matrix(0.0087890625,0,0,0.0087890625,30.8056640625,0)" xlink:href="#aU"/><use transform="matrix(0.0087890625,0,0,0.0087890625,40.306640625,0)" xlink:href="#aS"/></g><g id="m"><use transform="matrix(0.0087890625,0,0,0.0087890625,0,0)" xlink:href="#aP"/><use transform="matrix(0.0087890625,0,0,0.0087890625,8.54296875,0)" xlink:href="#aV"/><use transform="matrix(0.0087890625,0,0,0.0087890625,13.939453125,0)" xlink:href="#aT"/><use transform="matrix(0.0087890625,0,0,0.0087890625,24.5830078125,0)" xlink:href="#aU"/><use transform="matrix(0.0087890625,0,0,0.0087890625,34.083984375,0)" xlink:href="#aJ"/><use transform="matrix(0.0087890625,0,0,0.0087890625,44.578125,0)" xlink:href="#aK"/></g><path fill="#3a414a" d="M613 24c-304 0-509-231-509-576 0-350 205-580 509-580 216 0 392 114 453 309l-173 49c-33-115-133-197-280-197-223 0-326 196-326 419 0 220 103 415 326 415 150 0 252-85 285-206l172 49C1010-95 832 24 613 24" id="aW"/><path fill="#3a414a" d="M613 24c-304 0-509-231-509-576 0-350 205-580 509-580 305 0 511 230 511 580 0 345-206 576-511 576zm0-161c226 0 329-195 329-415 0-222-103-419-329-419-223 0-326 196-326 419 0 220 103 415 326 415" id="aX"/><g id="n"><use transform="matrix(0.0087890625,0,0,0.0087890625,0,0)" xlink:href="#aW"/><use transform="matrix(0.0087890625,0,0,0.0087890625,10.283203125,0)" xlink:href="#aX"/><use transform="matrix(0.0087890625,0,0,0.0087890625,21.076171875,0)" xlink:href="#aL"/><use transform="matrix(0.0087890625,0,0,0.0087890625,31.7109375,0)" xlink:href="#aL"/><use transform="matrix(0.0087890625,0,0,0.0087890625,42.345703125,0)" xlink:href="#aJ"/><use transform="matrix(0.0087890625,0,0,0.0087890625,52.83984375,0)" xlink:href="#aW"/><use transform="matrix(0.0087890625,0,0,0.0087890625,63.123046875,0)" xlink:href="#aI"/><use transform="matrix(0.0087890625,0,0,0.0087890625,68.8359375,0)" xlink:href="#aS"/></g><g id="o"><use transform="matrix(0.0087890625,0,0,0.0087890625,0,0)" xlink:href="#aJ"/><use transform="matrix(0.0087890625,0,0,0.0087890625,10.494140625,0)" xlink:href="#aU"/><use transform="matrix(0.0087890625,0,0,0.0087890625,19.9951171875,0)" xlink:href="#aI"/></g><path fill="#3a414a" d="M783 20c-382 0-661-292-661-764 0-473 279-766 661-766 302 0 548 182 601 489h-190c-42-204-217-313-411-313-268 0-476 208-476 590 0 381 209 588 476 588 195 0 369-110 411-313h190c-52 303-296 489-601 489" id="aY"/><g id="p"><use transform="matrix(0.0087890625,0,0,0.0087890625,0,0)" xlink:href="#aY"/><use transform="matrix(0.0087890625,0,0,0.0087890625,13.1484375,0)" xlink:href="#aK"/><use transform="matrix(0.0087890625,0,0,0.0087890625,19.6259765625,0)" xlink:href="#aS"/><use transform="matrix(0.0087890625,0,0,0.0087890625,30.1201171875,0)" xlink:href="#aJ"/></g><g id="q"><use transform="matrix(0.0087890625,0,0,0.0087890625,0,0)" xlink:href="#aT"/><use transform="matrix(0.0087890625,0,0,0.0087890625,10.6435546875,0)" xlink:href="#aL"/><use transform="matrix(0.0087890625,0,0,0.0087890625,21.2783203125,0)" xlink:href="#aJ"/></g><g id="r"><use transform="matrix(0.0087890625,0,0,0.0087890625,0,0)" xlink:href="#aI"/><use transform="matrix(0.0087890625,0,0,0.0087890625,5.888671875,0)" xlink:href="#aK"/><use transform="matrix(0.0087890625,0,0,0.0087890625,12.6650390625,0)" xlink:href="#aM"/><use transform="matrix(0.0087890625,0,0,0.0087890625,22.7724609375,0)" xlink:href="#aL"/><use transform="matrix(0.0087890625,0,0,0.0087890625,33.4072265625,0)" xlink:href="#aU"/><use transform="matrix(0.0087890625,0,0,0.0087890625,42.908203125,0)" xlink:href="#aM"/><use transform="matrix(0.0087890625,0,0,0.0087890625,53.015625,0)" xlink:href="#aW"/><use transform="matrix(0.0087890625,0,0,0.0087890625,63.298828125,0)" xlink:href="#aI"/><use transform="matrix(0.0087890625,0,0,0.0087890625,69.1875,0)" xlink:href="#aN"/><use transform="matrix(0.0087890625,0,0,0.0087890625,73.546875,0)" xlink:href="#aX"/><use transform="matrix(0.0087890625,0,0,0.0087890625,84.33984375,0)" xlink:href="#aL"/></g><path fill="#3a414a" d="M577 24c-279 0-473-224-473-580 0-354 195-576 474-576 218 0 287 134 324 193h14v-551h180V0H922v-173h-20C865-111 790 24 577 24zm27-161c203 0 314-172 314-421 0-247-108-413-314-413-212 0-317 181-317 413 0 235 108 421 317 421" id="aZ"/><g id="s"><use transform="matrix(0.0087890625,0,0,0.0087890625,0,0)" xlink:href="#aZ"/><use transform="matrix(0.0087890625,0,0,0.0087890625,11.021484375,0)" xlink:href="#aJ"/></g><g id="t"><use transform="matrix(0.0087890625,0,0,0.0087890625,0,0)" xlink:href="#aQ"/><use transform="matrix(0.0087890625,0,0,0.0087890625,11.197265625,0)" xlink:href="#aM"/><use transform="matrix(0.0087890625,0,0,0.0087890625,21.3046875,0)" xlink:href="#aN"/><use transform="matrix(0.0087890625,0,0,0.0087890625,25.6640625,0)" xlink:href="#aJ"/><use transform="matrix(0.0087890625,0,0,0.0087890625,36.158203125,0)" xlink:href="#aR"/><use transform="matrix(0.0087890625,0,0,0.0087890625,51.92578125,0)" xlink:href="#aJ"/><use transform="matrix(0.0087890625,0,0,0.0087890625,62.419921875,0)" xlink:href="#aL"/><use transform="matrix(0.0087890625,0,0,0.0087890625,73.0546875,0)" xlink:href="#aI"/></g><path fill="#333" d="M180 0v-1490h528c311 0 458 177 458 395 0 191-114 278-244 313v14c139 9 302 137 302 371 0 225-148 397-499 397H180zm190-168h350c232 0 321-102 321-231 0-149-120-277-311-277H370v508zm0-668h328c160 0 286-101 286-255 0-129-87-231-280-231H370v486" id="ba"/><path fill="#333" d="M471 26C259 26 90-98 90-318c0-256 228-303 435-329 202-27 287-16 287-108 0-139-79-219-234-219-161 0-248 86-283 164l-173-57c86-203 278-265 451-265 150 0 419 46 419 395V0H815v-152h-12C765-73 660 26 471 26zm31-159c199 0 310-134 310-271v-155c-30 35-226 55-295 64-131 17-246 59-246 186 0 116 97 176 231 176" id="bb"/><path fill="#333" d="M613 24c-304 0-509-231-509-576 0-350 205-580 509-580 216 0 392 114 453 309l-173 49c-33-115-133-197-280-197-223 0-326 196-326 419 0 220 103 415 326 415 150 0 252-85 285-206l172 49C1010-95 832 24 613 24" id="bc"/><path fill="#333" d="M158 0v-1490h180v865h22l478-493h223L593-638 1096 0H865L456-523 338-412V0H158" id="bd"/><path fill="#333" d="M628 24c-324 0-524-230-524-574 0-343 198-582 503-582 237 0 487 146 487 559v75H286c9 234 145 362 343 362 132 0 231-58 273-172l174 48C1024-91 857 24 628 24zM287-650h624c-17-190-120-322-304-322-192 0-309 151-320 322" id="be"/><path fill="#333" d="M338-670V0H158v-1118h173l1 207c72-158 192-221 342-221 226 0 378 139 378 422V0H872v-695c0-172-96-275-252-275-161 0-282 109-282 300" id="bf"/><path fill="#333" d="M577 24c-279 0-473-224-473-580 0-354 195-576 474-576 218 0 287 134 324 193h14v-551h180V0H922v-173h-20C865-111 790 24 577 24zm27-161c203 0 314-172 314-421 0-247-108-413-314-413-212 0-317 181-317 413 0 235 108 421 317 421" id="bg"/><g id="u"><use transform="matrix(0.008072916666666667,0,0,0.008072916666666667,0,0)" xlink:href="#ba"/><use transform="matrix(0.008072916666666667,0,0,0.008072916666666667,10.817708333333334,0)" xlink:href="#bb"/><use transform="matrix(0.008072916666666667,0,0,0.008072916666666667,20.1015625,0)" xlink:href="#bc"/><use transform="matrix(0.008072916666666667,0,0,0.008072916666666667,29.546875,0)" xlink:href="#bd"/><use transform="matrix(0.008072916666666667,0,0,0.008072916666666667,38.24947916666667,0)" xlink:href="#be"/><use transform="matrix(0.008072916666666667,0,0,0.008072916666666667,47.88854166666667,0)" xlink:href="#bf"/><use transform="matrix(0.008072916666666667,0,0,0.008072916666666667,57.65677083333334,0)" xlink:href="#bg"/></g><path fill="#333" d="M657 26c-323 0-524-166-541-416h195c15 169 171 246 346 246 202 0 356-106 356-265 5-203-294-238-475-293-239-73-380-191-380-389 0-252 224-419 512-419 294 0 499 171 508 396H992c-17-145-151-228-328-228-193 0-321 102-321 242 0 156 175 211 284 241l149 41c160 44 422 134 422 412 0 244-197 432-541 432" id="bh"/><path fill="#333" d="M158 0v-1118h174v172h12c41-113 157-188 290-188 26 0 70 2 91 3v181c-11-2-60-10-108-10-161 0-279 109-279 260V0H158" id="bi"/><path fill="#333" d="M481 0L54-1118h197c107 314 236 620 325 951 87-331 217-637 324-951h197L670 0H481" id="bj"/><path fill="#333" d="M158 0v-1118h180V0H158zm91-1301c-68 0-125-53-125-119s57-119 125-119c69 0 126 53 126 119s-57 119-126 119" id="bk"/><g id="v"><use transform="matrix(0.008072916666666667,0,0,0.008072916666666667,0,0)" xlink:href="#bh"/><use transform="matrix(0.008072916666666667,0,0,0.008072916666666667,10.607812500000001,0)" xlink:href="#be"/><use transform="matrix(0.008072916666666667,0,0,0.008072916666666667,20.246875000000003,0)" xlink:href="#bi"/><use transform="matrix(0.008072916666666667,0,0,0.008072916666666667,26.729427083333334,0)" xlink:href="#bj"/><use transform="matrix(0.008072916666666667,0,0,0.008072916666666667,36.02135416666667,0)" xlink:href="#bk"/><use transform="matrix(0.008072916666666667,0,0,0.008072916666666667,40.02552083333334,0)" xlink:href="#bc"/><use transform="matrix(0.008072916666666667,0,0,0.008072916666666667,49.47083333333334,0)" xlink:href="#be"/></g><path fill="#333" d="M158 418v-1536h174v179h20c37-59 106-193 324-193 279 0 474 222 474 576 0 356-194 580-473 580-213 0-288-135-325-197h-14v591H158zm492-555c209 0 317-186 317-421 0-232-105-413-317-413-206 0-314 166-314 413 0 249 111 421 314 421" id="bl"/><path fill="#333" d="M158 0v-1118h175l1 205c55-151 181-225 313-225 147 0 245 90 285 228 53-141 190-228 352-228 194 0 352 125 352 384V0h-181v-749c0-161-105-225-225-225-151 0-243 103-243 244V0H807v-767c0-124-93-207-219-207-131 0-250 92-250 270V0H158" id="bm"/><path fill="#333" d="M598-1118v154H368v674c0 100 37 144 132 144 23 0 62-6 92-12L629-6c-37 13-88 20-134 20-193 0-307-107-307-290v-688H20v-154h168v-266h180v266h230" id="bn"/><g id="w"><use transform="matrix(0.008072916666666667,0,0,0.008072916666666667,0,0)" xlink:href="#bl"/><use transform="matrix(0.008072916666666667,0,0,0.008072916666666667,10.284895833333335,0)" xlink:href="#bb"/><use transform="matrix(0.008072916666666667,0,0,0.008072916666666667,19.56875,0)" xlink:href="#bk"/><use transform="matrix(0.008072916666666667,0,0,0.008072916666666667,23.572916666666668,0)" xlink:href="#be"/><use transform="matrix(0.008072916666666667,0,0,0.008072916666666667,33.211979166666666,0)" xlink:href="#bm"/><use transform="matrix(0.008072916666666667,0,0,0.008072916666666667,47.69479166666667,0)" xlink:href="#be"/><use transform="matrix(0.008072916666666667,0,0,0.008072916666666667,57.33385416666667,0)" xlink:href="#bf"/><use transform="matrix(0.008072916666666667,0,0,0.008072916666666667,67.10208333333334,0)" xlink:href="#bn"/></g><path d="M763 24c-353 0-583-224-583-531v-983h190v968c0 214 149 370 393 370 243 0 391-156 391-370v-968h190v983c0 307-230 531-581 531" id="bo"/><path d="M158 0v-1118h180V0H158zm91-1301c-68 0-125-53-125-119s57-119 125-119c69 0 126 53 126 119s-57 119-126 119" id="bp"/><path d="M338-1490V0H158v-1490h180" id="bq"/><path d="M538 24C308 24 148-78 108-271l171-41c32 123 123 178 257 178 156 0 256-77 256-169 0-77-54-128-164-154l-186-44c-203-48-300-148-300-305 0-192 176-326 414-326 230 0 351 112 402 269l-163 42c-31-80-94-158-238-158-133 0-233 69-233 162 0 83 57 129 188 160l169 40c203 48 298 149 298 302 0 196-179 339-441 339" id="br"/><path d="M471 26C259 26 90-98 90-318c0-256 228-303 435-329 202-27 287-16 287-108 0-139-79-219-234-219-161 0-248 86-283 164l-173-57c86-203 278-265 451-265 150 0 419 46 419 395V0H815v-152h-12C765-73 660 26 471 26zm31-159c199 0 310-134 310-271v-155c-30 35-226 55-295 64-131 17-246 59-246 186 0 116 97 176 231 176" id="bs"/><g id="x"><use transform="matrix(0.008072916666666667,0,0,0.008072916666666667,0,0)" xlink:href="#bo"/><use transform="matrix(0.008072916666666667,0,0,0.008072916666666667,12.303125000000001,0)" xlink:href="#aB"/><use transform="matrix(0.008072916666666667,0,0,0.008072916666666667,17.71197916666667,0)" xlink:href="#bp"/><use transform="matrix(0.008072916666666667,0,0,0.008072916666666667,21.716145833333336,0)" xlink:href="#bq"/><use transform="matrix(0.008072916666666667,0,0,0.008072916666666667,25.720312500000002,0)" xlink:href="#bp"/><use transform="matrix(0.008072916666666667,0,0,0.008072916666666667,29.72447916666667,0)" xlink:href="#br"/><use transform="matrix(0.008072916666666667,0,0,0.008072916666666667,38.45130208333334,0)" xlink:href="#bs"/><use transform="matrix(0.008072916666666667,0,0,0.008072916666666667,47.73515625,0)" xlink:href="#aB"/><use transform="matrix(0.008072916666666667,0,0,0.008072916666666667,52.98255208333333,0)" xlink:href="#aA"/><use transform="matrix(0.008072916666666667,0,0,0.008072916666666667,62.62161458333333,0)" xlink:href="#aD"/><use transform="matrix(0.008072916666666667,0,0,0.008072916666666667,72.39791666666667,0)" xlink:href="#aC"/></g><path d="M783 20c-382 0-661-292-661-764 0-473 279-766 661-766 302 0 548 182 601 489h-190c-42-204-217-313-411-313-268 0-476 208-476 590 0 381 209 588 476 588 195 0 369-110 411-313h190c-52 303-296 489-601 489" id="bt"/><path d="M1096 418H916v-591h-14C865-111 790 24 577 24c-279 0-473-224-473-580 0-354 195-576 474-576 218 0 287 134 324 193h20v-179h174V418zM604-137c203 0 314-172 314-421 0-247-108-413-314-413-212 0-317 181-317 413 0 235 108 421 317 421" id="bu"/><g id="y"><use transform="matrix(0.008072916666666667,0,0,0.008072916666666667,0,0)" xlink:href="#bt"/><use transform="matrix(0.008072916666666667,0,0,0.008072916666666667,12.077083333333334,0)" xlink:href="#bq"/><use transform="matrix(0.008072916666666667,0,0,0.008072916666666667,16.08125,0)" xlink:href="#bp"/><use transform="matrix(0.008072916666666667,0,0,0.008072916666666667,20.085416666666667,0)" xlink:href="#bu"/><use transform="matrix(0.008072916666666667,0,0,0.008072916666666667,30.20885416666667,0)" xlink:href="#aD"/><use transform="matrix(0.008072916666666667,0,0,0.008072916666666667,39.98515625,0)" xlink:href="#aA"/></g><g id="z"><use transform="matrix(0.008072916666666667,0,0,0.008072916666666667,0,0)" xlink:href="#br"/><use transform="matrix(0.008072916666666667,0,0,0.008072916666666667,8.726822916666668,0)" xlink:href="#aD"/><use transform="matrix(0.008072916666666667,0,0,0.008072916666666667,18.503125000000004,0)" xlink:href="#aC"/></g><g id="A"><use transform="matrix(0.008072916666666667,0,0,0.008072916666666667,0,0)" xlink:href="#bs"/><use transform="matrix(0.008072916666666667,0,0,0.008072916666666667,9.283854166666668,0)" xlink:href="#ay"/><use transform="matrix(0.008072916666666667,0,0,0.008072916666666667,18.72916666666667,0)" xlink:href="#az"/><use transform="matrix(0.008072916666666667,0,0,0.008072916666666667,28.505468750000006,0)" xlink:href="#aA"/><use transform="matrix(0.008072916666666667,0,0,0.008072916666666667,38.14453125000001,0)" xlink:href="#aB"/><use transform="matrix(0.008072916666666667,0,0,0.008072916666666667,43.391927083333336,0)" xlink:href="#aA"/><use transform="matrix(0.008072916666666667,0,0,0.008072916666666667,53.03098958333334,0)" xlink:href="#aC"/></g><path fill="#3a414a" d="M678-1118v154H420V0H240v-964H20v-154h220v-149c0-194 155-293 318-293 85 0 141 18 168 30l-50 154c-19-6-47-17-97-17-111 0-159 58-159 166v109h258" id="bv"/><g id="B"><use transform="matrix(0.0087890625,0,0,0.0087890625,0,0)" xlink:href="#aY"/><use transform="matrix(0.0087890625,0,0,0.0087890625,13.1484375,0)" xlink:href="#aX"/><use transform="matrix(0.0087890625,0,0,0.0087890625,23.94140625,0)" xlink:href="#aL"/><use transform="matrix(0.0087890625,0,0,0.0087890625,34.576171875,0)" xlink:href="#bv"/><use transform="matrix(0.0087890625,0,0,0.0087890625,41.23828125,0)" xlink:href="#aN"/><use transform="matrix(0.0087890625,0,0,0.0087890625,45.59765625,0)" xlink:href="#aK"/><use transform="matrix(0.0087890625,0,0,0.0087890625,52.6552734375,0)" xlink:href="#aR"/><use transform="matrix(0.0087890625,0,0,0.0087890625,68.4228515625,0)" xlink:href="#aM"/><use transform="matrix(0.0087890625,0,0,0.0087890625,78.5302734375,0)" xlink:href="#aI"/><use transform="matrix(0.0087890625,0,0,0.0087890625,84.4189453125,0)" xlink:href="#aN"/><use transform="matrix(0.0087890625,0,0,0.0087890625,88.7783203125,0)" xlink:href="#aX"/><use transform="matrix(0.0087890625,0,0,0.0087890625,99.5712890625,0)" xlink:href="#aL"/></g><g id="C"><use transform="matrix(0.0087890625,0,0,0.0087890625,0,0)" xlink:href="#aZ"/><use transform="matrix(0.0087890625,0,0,0.0087890625,11.021484375,0)" xlink:href="#aT"/></g><path d="M180 0v-1490h510c348 0 508 194 508 460 0 198-88 351-276 417L1256 0h-220L726-579c-117 2-238 0-356 1V0H180zm190-747h312c235 0 327-108 327-283 0-177-92-293-329-293H370v576" id="bw"/><path d="M628 24c-324 0-524-230-524-574 0-343 198-582 503-582 237 0 487 146 487 559v75H286c9 234 145 362 343 362 132 0 231-58 273-172l174 48C1024-91 857 24 628 24zM287-650h624c-17-190-120-322-304-322-192 0-309 151-320 322zm172-632H282v-9l235-267h171l236 267v9H745l-142-175" id="bx"/><g id="D"><use transform="matrix(0.008072916666666667,0,0,0.008072916666666667,0,0)" xlink:href="#bw"/><use transform="matrix(0.008072916666666667,0,0,0.008072916666666667,10.397916666666667,0)" xlink:href="#aA"/><use transform="matrix(0.008072916666666667,0,0,0.008072916666666667,20.03697916666667,0)" xlink:href="#bu"/><use transform="matrix(0.008072916666666667,0,0,0.008072916666666667,30.16041666666667,0)" xlink:href="#aD"/><use transform="matrix(0.008072916666666667,0,0,0.008072916666666667,39.936718750000004,0)" xlink:href="#bx"/><use transform="matrix(0.008072916666666667,0,0,0.008072916666666667,49.575781250000006,0)" xlink:href="#aB"/><use transform="matrix(0.008072916666666667,0,0,0.008072916666666667,54.823177083333334,0)" xlink:href="#aA"/></g><path d="M158 418v-1536h174v179h20c37-59 106-193 324-193 279 0 474 222 474 576 0 356-194 580-473 580-213 0-288-135-325-197h-14v591H158zm492-555c209 0 317-186 317-421 0-232-105-413-317-413-206 0-314 166-314 413 0 249 111 421 314 421" id="by"/><g id="E"><use transform="matrix(0.008072916666666667,0,0,0.008072916666666667,0,0)" xlink:href="#bs"/><use transform="matrix(0.008072916666666667,0,0,0.008072916666666667,9.283854166666668,0)" xlink:href="#by"/><use transform="matrix(0.008072916666666667,0,0,0.008072916666666667,19.40729166666667,0)" xlink:href="#bp"/></g><path d="M692-1560L212 224H46l480-1784h166" id="bz"/><g id="F"><use transform="matrix(0.008072916666666667,0,0,0.008072916666666667,0,0)" xlink:href="#bz"/><use transform="matrix(0.008072916666666667,0,0,0.008072916666666667,5.9578125,0)" xlink:href="#by"/><use transform="matrix(0.008072916666666667,0,0,0.008072916666666667,16.08125,0)" xlink:href="#aD"/><use transform="matrix(0.008072916666666667,0,0,0.008072916666666667,25.857552083333335,0)" xlink:href="#aC"/><use transform="matrix(0.008072916666666667,0,0,0.008072916666666667,32.08177083333334,0)" xlink:href="#br"/><use transform="matrix(0.008072916666666667,0,0,0.008072916666666667,40.80859375000001,0)" xlink:href="#az"/><use transform="matrix(0.008072916666666667,0,0,0.008072916666666667,50.58489583333334,0)" xlink:href="#bs"/><use transform="matrix(0.008072916666666667,0,0,0.008072916666666667,59.868750000000006,0)" xlink:href="#br"/><use transform="matrix(0.008072916666666667,0,0,0.008072916666666667,68.59557291666667,0)" xlink:href="#aA"/></g><path fill="#333" d="M180 0v-1490h901v168H370v510h643v168H370V0H180" id="bA"/><path fill="#333" d="M613 24c-304 0-509-231-509-576 0-350 205-580 509-580 305 0 511 230 511 580 0 345-206 576-511 576zm0-161c226 0 329-195 329-415 0-222-103-419-329-419-223 0-326 196-326 419 0 220 103 415 326 415" id="bB"/><g id="G"><use transform="matrix(0.008072916666666667,0,0,0.008072916666666667,0,0)" xlink:href="#bA"/><use transform="matrix(0.008072916666666667,0,0,0.008072916666666667,9.275781250000001,0)" xlink:href="#bi"/><use transform="matrix(0.008072916666666667,0,0,0.008072916666666667,15.225520833333334,0)" xlink:href="#bB"/><use transform="matrix(0.008072916666666667,0,0,0.008072916666666667,25.1390625,0)" xlink:href="#bf"/><use transform="matrix(0.008072916666666667,0,0,0.008072916666666667,34.907291666666666,0)" xlink:href="#bn"/><use transform="matrix(0.008072916666666667,0,0,0.008072916666666667,40.154687499999994,0)" xlink:href="#be"/><use transform="matrix(0.008072916666666667,0,0,0.008072916666666667,49.793749999999996,0)" xlink:href="#bf"/><use transform="matrix(0.008072916666666667,0,0,0.008072916666666667,59.56197916666666,0)" xlink:href="#bg"/></g><path fill="#333" d="M645 0H180v-1490h484c435 0 692 280 692 742 0 466-257 748-711 748zM370-168h263c363 0 539-218 539-580 0-358-176-574-521-574H370v1154" id="bC"/><path fill="#333" d="M677 24c-213 0-288-135-325-197h-20V0H158v-1490h180v551h14c37-59 106-193 324-193 279 0 474 222 474 576 0 356-194 580-473 580zm-27-161c209 0 317-186 317-421 0-232-105-413-317-413-206 0-314 166-314 413 0 249 111 421 314 421" id="bD"/><path fill="#333" d="M538 24C308 24 148-78 108-271l171-41c32 123 123 178 257 178 156 0 256-77 256-169 0-77-54-128-164-154l-186-44c-203-48-300-148-300-305 0-192 176-326 414-326 230 0 351 112 402 269l-163 42c-31-80-94-158-238-158-133 0-233 69-233 162 0 83 57 129 188 160l169 40c203 48 298 149 298 302 0 196-179 339-441 339" id="bE"/><g id="H"><use transform="matrix(0.008072916666666667,0,0,0.008072916666666667,0,0)" xlink:href="#bC"/><use transform="matrix(0.008072916666666667,0,0,0.008072916666666667,11.931770833333335,0)" xlink:href="#bb"/><use transform="matrix(0.008072916666666667,0,0,0.008072916666666667,21.215625000000003,0)" xlink:href="#bn"/><use transform="matrix(0.008072916666666667,0,0,0.008072916666666667,26.70520833333334,0)" xlink:href="#bb"/><use transform="matrix(0.008072916666666667,0,0,0.008072916666666667,35.9890625,0)" xlink:href="#bD"/><use transform="matrix(0.008072916666666667,0,0,0.008072916666666667,46.27395833333334,0)" xlink:href="#bb"/><use transform="matrix(0.008072916666666667,0,0,0.008072916666666667,55.55781250000001,0)" xlink:href="#bE"/><use transform="matrix(0.008072916666666667,0,0,0.008072916666666667,64.28463541666667,0)" xlink:href="#be"/></g><path d="M600 0L52-1490h200c166 485 304 806 458 1336 156-533 285-846 449-1336h202L819 0H600" id="bF"/><path d="M678-1118v154H420V0H240v-964H20v-154h220v-149c0-194 155-293 318-293 85 0 141 18 168 30l-50 154c-19-6-47-17-97-17-111 0-159 58-159 166v109h258" id="bG"/><g id="I"><use transform="matrix(0.008072916666666667,0,0,0.008072916666666667,0,0)" xlink:href="#bF"/><use transform="matrix(0.008072916666666667,0,0,0.008072916666666667,10.567447916666667,0)" xlink:href="#aA"/><use transform="matrix(0.008072916666666667,0,0,0.008072916666666667,20.206510416666667,0)" xlink:href="#aC"/><use transform="matrix(0.008072916666666667,0,0,0.008072916666666667,26.6890625,0)" xlink:href="#bp"/><use transform="matrix(0.008072916666666667,0,0,0.008072916666666667,30.693229166666665,0)" xlink:href="#bG"/><use transform="matrix(0.008072916666666667,0,0,0.008072916666666667,36.81249999999999,0)" xlink:href="#bp"/><use transform="matrix(0.008072916666666667,0,0,0.008072916666666667,40.81666666666667,0)" xlink:href="#aA"/></g><path d="M613 24c-304 0-509-231-509-576 0-350 205-580 509-580 305 0 511 230 511 580 0 345-206 576-511 576zm0-161c226 0 329-195 329-415 0-222-103-419-329-419-223 0-326 196-326 419 0 220 103 415 326 415" id="bH"/><g id="J"><use transform="matrix(0.008072916666666667,0,0,0.008072916666666667,0,0)" xlink:href="#bs"/><use transform="matrix(0.008072916666666667,0,0,0.008072916666666667,9.283854166666668,0)" xlink:href="#aD"/><use transform="matrix(0.008072916666666667,0,0,0.008072916666666667,19.060156250000002,0)" xlink:href="#aB"/><use transform="matrix(0.008072916666666667,0,0,0.008072916666666667,24.46901041666667,0)" xlink:href="#az"/><use transform="matrix(0.008072916666666667,0,0,0.008072916666666667,34.245312500000004,0)" xlink:href="#aA"/><use transform="matrix(0.008072916666666667,0,0,0.008072916666666667,43.884375000000006,0)" xlink:href="#aE"/><use transform="matrix(0.008072916666666667,0,0,0.008072916666666667,53.65260416666668,0)" xlink:href="#aB"/><use transform="matrix(0.008072916666666667,0,0,0.008072916666666667,59.06145833333334,0)" xlink:href="#bp"/><use transform="matrix(0.008072916666666667,0,0,0.008072916666666667,63.06562500000001,0)" xlink:href="#bG"/><use transform="matrix(0.008072916666666667,0,0,0.008072916666666667,69.18489583333334,0)" xlink:href="#bp"/><use transform="matrix(0.008072916666666667,0,0,0.008072916666666667,73.1890625,0)" xlink:href="#ay"/><use transform="matrix(0.008072916666666667,0,0,0.008072916666666667,82.79583333333332,0)" xlink:href="#bs"/><use transform="matrix(0.008072916666666667,0,0,0.008072916666666667,92.0796875,0)" xlink:href="#aB"/><use transform="matrix(0.008072916666666667,0,0,0.008072916666666667,97.48854166666668,0)" xlink:href="#bp"/><use transform="matrix(0.008072916666666667,0,0,0.008072916666666667,101.49270833333334,0)" xlink:href="#bH"/><use transform="matrix(0.008072916666666667,0,0,0.008072916666666667,111.40625,0)" xlink:href="#aE"/></g><path d="M409 0L70-1118h191c89 329 165 560 243 925 75-353 154-601 240-925h192c85 325 161 564 235 922 77-354 157-598 244-922h191L1267 0h-179c-86-307-176-590-250-913C763-588 675-308 588 0H409" id="bI"/><g id="K"><use transform="matrix(0.008072916666666667,0,0,0.008072916666666667,0,0)" xlink:href="#aF"/><use transform="matrix(0.008072916666666667,0,0,0.008072916666666667,4.004166666666667,0)" xlink:href="#bI"/><use transform="matrix(0.008072916666666667,0,0,0.008072916666666667,17.534375,0)" xlink:href="#aB"/></g><path fill="#3a414a" d="M180 0v-1490h908v168H370v486h669v168H370v500h727V0H180" id="bJ"/><path fill="#3a414a" d="M611 442c-248 0-391-105-460-228l146-94c47 65 117 165 314 165 178 0 307-82 307-266v-224h-17C863-141 792-18 576-18c-268 0-472-195-472-546 0-346 197-568 476-568 216 0 288 133 326 193h17v-179h175V29c0 289-215 413-487 413zm-5-620c203 0 314-146 314-390 0-237-108-403-314-403-213 0-319 180-319 403 0 230 109 390 319 390" id="bK"/><g id="L"><use transform="matrix(0.0087890625,0,0,0.0087890625,0,0)" xlink:href="#bJ"/><use transform="matrix(0.0087890625,0,0,0.0087890625,10.8193359375,0)" xlink:href="#aL"/><use transform="matrix(0.0087890625,0,0,0.0087890625,21.4541015625,0)" xlink:href="#aK"/><use transform="matrix(0.0087890625,0,0,0.0087890625,27.931640625,0)" xlink:href="#aJ"/><use transform="matrix(0.0087890625,0,0,0.0087890625,38.42578125,0)" xlink:href="#bK"/><use transform="matrix(0.0087890625,0,0,0.0087890625,49.46484375,0)" xlink:href="#aN"/><use transform="matrix(0.0087890625,0,0,0.0087890625,53.82421875,0)" xlink:href="#aU"/><use transform="matrix(0.0087890625,0,0,0.0087890625,63.3251953125,0)" xlink:href="#aI"/><use transform="matrix(0.0087890625,0,0,0.0087890625,69.2138671875,0)" xlink:href="#aK"/><use transform="matrix(0.0087890625,0,0,0.0087890625,75.69140625,0)" xlink:href="#aJ"/><use transform="matrix(0.0087890625,0,0,0.0087890625,86.185546875,0)" xlink:href="#aK"/></g><g id="M"><use transform="matrix(0.0087890625,0,0,0.0087890625,0,0)" xlink:href="#aH"/><use transform="matrix(0.0087890625,0,0,0.0087890625,4.359375,0)" xlink:href="#aM"/></g><g id="N"><use transform="matrix(0.0087890625,0,0,0.0087890625,0,0)" xlink:href="#aI"/><use transform="matrix(0.0087890625,0,0,0.0087890625,5.888671875,0)" xlink:href="#aK"/><use transform="matrix(0.0087890625,0,0,0.0087890625,12.6650390625,0)" xlink:href="#aM"/><use transform="matrix(0.0087890625,0,0,0.0087890625,22.7724609375,0)" xlink:href="#aL"/><use transform="matrix(0.0087890625,0,0,0.0087890625,33.4072265625,0)" xlink:href="#aU"/><use transform="matrix(0.0087890625,0,0,0.0087890625,42.908203125,0)" xlink:href="#aM"/><use transform="matrix(0.0087890625,0,0,0.0087890625,53.015625,0)" xlink:href="#aW"/><use transform="matrix(0.0087890625,0,0,0.0087890625,63.298828125,0)" xlink:href="#aI"/><use transform="matrix(0.0087890625,0,0,0.0087890625,69.1875,0)" xlink:href="#aN"/><use transform="matrix(0.0087890625,0,0,0.0087890625,73.546875,0)" xlink:href="#aX"/><use transform="matrix(0.0087890625,0,0,0.0087890625,84.33984375,0)" xlink:href="#aL"/></g><path fill="#3a414a" d="M157-1118h181V80c1 225-123 350-364 338V252c126 9 184-48 183-172v-1198zm91-183c-68 0-125-53-125-119s57-119 125-119c69 0 126 53 126 119s-57 119-126 119" id="bL"/><g id="O"><use transform="matrix(0.0087890625,0,0,0.0087890625,0,0)" xlink:href="#aG"/><use transform="matrix(0.0087890625,0,0,0.0087890625,12.4189453125,0)" xlink:href="#bL"/><use transform="matrix(0.0087890625,0,0,0.0087890625,16.7783203125,0)" xlink:href="#aX"/><use transform="matrix(0.0087890625,0,0,0.0087890625,27.5712890625,0)" xlink:href="#aT"/><use transform="matrix(0.0087890625,0,0,0.0087890625,38.21484375,0)" xlink:href="#aI"/><use transform="matrix(0.0087890625,0,0,0.0087890625,43.927734375,0)" xlink:href="#aJ"/></g><g id="P"><use transform="matrix(0.0087890625,0,0,0.0087890625,0,0)" xlink:href="#aH"/><use transform="matrix(0.0087890625,0,0,0.0087890625,4.359375,0)" xlink:href="#aJ"/></g><g id="Q"><use transform="matrix(0.0087890625,0,0,0.0087890625,0,0)" xlink:href="#bL"/><use transform="matrix(0.0087890625,0,0,0.0087890625,4.359375,0)" xlink:href="#aJ"/><use transform="matrix(0.0087890625,0,0,0.0087890625,14.853515625,0)" xlink:href="#aT"/></g><path fill="#3a414a" d="M471 26C259 26 90-98 90-318c0-256 228-303 435-329 202-27 287-16 287-108 0-139-79-219-234-219-161 0-248 86-283 164l-173-57c86-203 278-265 451-265 150 0 419 46 419 395V0H815v-152h-12C765-73 660 26 471 26zm31-159c199 0 310-134 310-271v-155c-30 35-226 55-295 64-131 17-246 59-246 186 0 116 97 176 231 176zm-15-1131l-193-294h201l140 294H487" id="bM"/><use transform="matrix(0.0087890625,0,0,0.0087890625,0,0)" xlink:href="#bM" id="R"/><path fill="#3a414a" d="M677 24c-213 0-288-135-325-197h-20V0H158v-1490h180v551h14c37-59 106-193 324-193 279 0 474 222 474 576 0 356-194 580-473 580zm-27-161c209 0 317-186 317-421 0-232-105-413-317-413-206 0-314 166-314 413 0 249 111 421 314 421" id="bN"/><path fill="#3a414a" d="M338-670V0H158v-1490h180v566c73-149 190-208 336-208 226 0 379 139 379 422V0H872v-695c0-172-96-275-252-275-161 0-282 109-282 300" id="bO"/><path fill="#3a414a" d="M628 24c-324 0-524-230-524-574 0-343 198-582 503-582 237 0 487 146 487 559v75H286c9 234 145 362 343 362 132 0 231-58 273-172l174 48C1024-91 857 24 628 24zM287-650h624c-17-190-120-322-304-322-192 0-309 151-320 322zm245-614l-193-294h201l140 294H532" id="bP"/><path fill="#3a414a" d="M1096 418H916v-591h-14C865-111 790 24 577 24c-279 0-473-224-473-580 0-354 195-576 474-576 218 0 287 134 324 193h20v-179h174V418zM604-137c203 0 314-172 314-421 0-247-108-413-314-413-212 0-317 181-317 413 0 235 108 421 317 421" id="bQ"/><g id="S"><use transform="matrix(0.0087890625,0,0,0.0087890625,0,0)" xlink:href="#bN"/><use transform="matrix(0.0087890625,0,0,0.0087890625,11.021484375,0)" xlink:href="#aN"/><use transform="matrix(0.0087890625,0,0,0.0087890625,15.380859375,0)" xlink:href="#bN"/><use transform="matrix(0.0087890625,0,0,0.0087890625,26.40234375,0)" xlink:href="#aH"/><use transform="matrix(0.0087890625,0,0,0.0087890625,30.76171875,0)" xlink:href="#aN"/><use transform="matrix(0.0087890625,0,0,0.0087890625,35.12109375,0)" xlink:href="#aX"/><use transform="matrix(0.0087890625,0,0,0.0087890625,45.9140625,0)" xlink:href="#aI"/><use transform="matrix(0.0087890625,0,0,0.0087890625,51.802734375,0)" xlink:href="#bO"/><use transform="matrix(0.0087890625,0,0,0.0087890625,62.4462890625,0)" xlink:href="#bP"/><use transform="matrix(0.0087890625,0,0,0.0087890625,72.9404296875,0)" xlink:href="#bQ"/><use transform="matrix(0.0087890625,0,0,0.0087890625,83.9619140625,0)" xlink:href="#aT"/><use transform="matrix(0.0087890625,0,0,0.0087890625,94.60546875,0)" xlink:href="#aJ"/></g><g id="T"><use transform="matrix(0.0087890625,0,0,0.0087890625,0,0)" xlink:href="#aH"/><use transform="matrix(0.0087890625,0,0,0.0087890625,4.359375,0)" xlink:href="#aV"/><use transform="matrix(0.0087890625,0,0,0.0087890625,9.755859375,0)" xlink:href="#aT"/><use transform="matrix(0.0087890625,0,0,0.0087890625,20.3994140625,0)" xlink:href="#aI"/><use transform="matrix(0.0087890625,0,0,0.0087890625,26.2880859375,0)" xlink:href="#aN"/><use transform="matrix(0.0087890625,0,0,0.0087890625,30.6474609375,0)" xlink:href="#aH"/><use transform="matrix(0.0087890625,0,0,0.0087890625,35.0068359375,0)" xlink:href="#aN"/><use transform="matrix(0.0087890625,0,0,0.0087890625,39.3662109375,0)" xlink:href="#aU"/><use transform="matrix(0.0087890625,0,0,0.0087890625,48.8671875,0)" xlink:href="#aM"/><use transform="matrix(0.0087890625,0,0,0.0087890625,58.974609375,0)" xlink:href="#aI"/><use transform="matrix(0.0087890625,0,0,0.0087890625,64.6875,0)" xlink:href="#aJ"/><use transform="matrix(0.0087890625,0,0,0.0087890625,75.181640625,0)" xlink:href="#aT"/><use transform="matrix(0.0087890625,0,0,0.0087890625,85.8251953125,0)" xlink:href="#aK"/></g><g id="U"><use transform="matrix(0.0087890625,0,0,0.0087890625,0,0)" xlink:href="#aZ"/><use transform="matrix(0.0087890625,0,0,0.0087890625,11.021484375,0)" xlink:href="#aV"/><use transform="matrix(0.0087890625,0,0,0.0087890625,16.41796875,0)" xlink:href="#aM"/><use transform="matrix(0.0087890625,0,0,0.0087890625,26.525390625,0)" xlink:href="#bL"/><use transform="matrix(0.0087890625,0,0,0.0087890625,30.884765625,0)" xlink:href="#aX"/><use transform="matrix(0.0087890625,0,0,0.0087890625,41.677734375,0)" xlink:href="#aT"/><use transform="matrix(0.0087890625,0,0,0.0087890625,52.3212890625,0)" xlink:href="#aI"/></g><g id="V"><use transform="matrix(0.0087890625,0,0,0.0087890625,0,0)" xlink:href="#aZ"/><use transform="matrix(0.0087890625,0,0,0.0087890625,11.021484375,0)" xlink:href="#aV"/><use transform="matrix(0.0087890625,0,0,0.0087890625,16.41796875,0)" xlink:href="#aM"/><use transform="matrix(0.0087890625,0,0,0.0087890625,26.525390625,0)" xlink:href="#aW"/><use transform="matrix(0.0087890625,0,0,0.0087890625,36.80859375,0)" xlink:href="#bO"/><use transform="matrix(0.0087890625,0,0,0.0087890625,47.4521484375,0)" xlink:href="#aM"/><use transform="matrix(0.0087890625,0,0,0.0087890625,57.5595703125,0)" xlink:href="#aI"/></g><g id="W"><use transform="matrix(0.0087890625,0,0,0.0087890625,0,0)" xlink:href="#aG"/><use transform="matrix(0.0087890625,0,0,0.0087890625,12.4189453125,0)" xlink:href="#bv"/><use transform="matrix(0.0087890625,0,0,0.0087890625,18.3779296875,0)" xlink:href="#bv"/><use transform="matrix(0.0087890625,0,0,0.0087890625,25.0400390625,0)" xlink:href="#aN"/><use transform="matrix(0.0087890625,0,0,0.0087890625,29.3994140625,0)" xlink:href="#aW"/><use transform="matrix(0.0087890625,0,0,0.0087890625,39.6826171875,0)" xlink:href="#bO"/><use transform="matrix(0.0087890625,0,0,0.0087890625,50.326171875,0)" xlink:href="#aJ"/></g><g id="X"><use transform="matrix(0.0087890625,0,0,0.0087890625,0,0)" xlink:href="#aW"/><use transform="matrix(0.0087890625,0,0,0.0087890625,10.283203125,0)" xlink:href="#aX"/><use transform="matrix(0.0087890625,0,0,0.0087890625,21.076171875,0)" xlink:href="#aL"/><use transform="matrix(0.0087890625,0,0,0.0087890625,31.7109375,0)" xlink:href="#bv"/><use transform="matrix(0.0087890625,0,0,0.0087890625,38.373046875,0)" xlink:href="#aN"/><use transform="matrix(0.0087890625,0,0,0.0087890625,42.732421875,0)" xlink:href="#aK"/><use transform="matrix(0.0087890625,0,0,0.0087890625,49.7900390625,0)" xlink:href="#aR"/><use transform="matrix(0.0087890625,0,0,0.0087890625,65.5576171875,0)" xlink:href="#aM"/><use transform="matrix(0.0087890625,0,0,0.0087890625,75.6650390625,0)" xlink:href="#aI"/><use transform="matrix(0.0087890625,0,0,0.0087890625,81.5537109375,0)" xlink:href="#aN"/><use transform="matrix(0.0087890625,0,0,0.0087890625,85.9130859375,0)" xlink:href="#aX"/><use transform="matrix(0.0087890625,0,0,0.0087890625,96.7060546875,0)" xlink:href="#aL"/></g><g id="Y"><use transform="matrix(0.0087890625,0,0,0.0087890625,0,0)" xlink:href="#aJ"/><use transform="matrix(0.0087890625,0,0,0.0087890625,10.494140625,0)" xlink:href="#aI"/></g><g id="Z"><use transform="matrix(0.0087890625,0,0,0.0087890625,0,0)" xlink:href="#bL"/><use transform="matrix(0.0087890625,0,0,0.0087890625,4.359375,0)" xlink:href="#aJ"/><use transform="matrix(0.0087890625,0,0,0.0087890625,14.853515625,0)" xlink:href="#aT"/></g><g id="aa"><use transform="matrix(0.0087890625,0,0,0.0087890625,0,0)" xlink:href="#aZ"/><use transform="matrix(0.0087890625,0,0,0.0087890625,11.021484375,0)" xlink:href="#aM"/><use transform="matrix(0.0087890625,0,0,0.0087890625,21.12890625,0)" xlink:href="#aL"/><use transform="matrix(0.0087890625,0,0,0.0087890625,31.763671875,0)" xlink:href="#aU"/></g><g id="ab"><use transform="matrix(0.0087890625,0,0,0.0087890625,0,0)" xlink:href="#bN"/><use transform="matrix(0.0087890625,0,0,0.0087890625,11.021484375,0)" xlink:href="#aN"/><use transform="matrix(0.0087890625,0,0,0.0087890625,15.380859375,0)" xlink:href="#bN"/><use transform="matrix(0.0087890625,0,0,0.0087890625,26.40234375,0)" xlink:href="#aH"/><use transform="matrix(0.0087890625,0,0,0.0087890625,30.76171875,0)" xlink:href="#aN"/><use transform="matrix(0.0087890625,0,0,0.0087890625,35.12109375,0)" xlink:href="#aX"/><use transform="matrix(0.0087890625,0,0,0.0087890625,45.9140625,0)" xlink:href="#aI"/><use transform="matrix(0.0087890625,0,0,0.0087890625,51.802734375,0)" xlink:href="#bO"/><use transform="matrix(0.0087890625,0,0,0.0087890625,62.4462890625,0)" xlink:href="#bP"/><use transform="matrix(0.0087890625,0,0,0.0087890625,72.9404296875,0)" xlink:href="#bQ"/><use transform="matrix(0.0087890625,0,0,0.0087890625,83.9619140625,0)" xlink:href="#aT"/><use transform="matrix(0.0087890625,0,0,0.0087890625,94.60546875,0)" xlink:href="#aJ"/></g><g id="ac"><use transform="matrix(0.0087890625,0,0,0.0087890625,0,0)" xlink:href="#bJ"/><use transform="matrix(0.0087890625,0,0,0.0087890625,10.8193359375,0)" xlink:href="#aW"/><use transform="matrix(0.0087890625,0,0,0.0087890625,21.1025390625,0)" xlink:href="#bO"/><use transform="matrix(0.0087890625,0,0,0.0087890625,31.74609375,0)" xlink:href="#aJ"/><use transform="matrix(0.0087890625,0,0,0.0087890625,42.240234375,0)" xlink:href="#aW"/></g><g id="ad"><use transform="matrix(0.0087890625,0,0,0.0087890625,0,0)" xlink:href="#bJ"/><use transform="matrix(0.0087890625,0,0,0.0087890625,10.8193359375,0)" xlink:href="#aK"/><use transform="matrix(0.0087890625,0,0,0.0087890625,17.876953125,0)" xlink:href="#aK"/><use transform="matrix(0.0087890625,0,0,0.0087890625,24.3544921875,0)" xlink:href="#aJ"/><use transform="matrix(0.0087890625,0,0,0.0087890625,34.8486328125,0)" xlink:href="#aT"/><use transform="matrix(0.0087890625,0,0,0.0087890625,45.4921875,0)" xlink:href="#aK"/></g><g id="ae"><use transform="matrix(0.0087890625,0,0,0.0087890625,0,0)" xlink:href="#aU"/><use transform="matrix(0.0087890625,0,0,0.0087890625,9.5009765625,0)" xlink:href="#aT"/><use transform="matrix(0.0087890625,0,0,0.0087890625,20.14453125,0)" xlink:href="#aK"/></g><path fill="#3a414a" d="M180 0v-1490h510c348 0 508 209 508 474 0 266-160 477-507 477H370V0H180zm190-706h312c236 0 327-133 327-310 0-176-91-307-329-307H370v617" id="bR"/><g id="af"><use transform="matrix(0.0087890625,0,0,0.0087890625,0,0)" xlink:href="#bR"/><use transform="matrix(0.0087890625,0,0,0.0087890625,11.49609375,0)" xlink:href="#aK"/><use transform="matrix(0.0087890625,0,0,0.0087890625,17.9736328125,0)" xlink:href="#aS"/><use transform="matrix(0.0087890625,0,0,0.0087890625,28.1162109375,0)" xlink:href="#aO"/><use transform="matrix(0.0087890625,0,0,0.0087890625,38.232421875,0)" xlink:href="#aN"/><use transform="matrix(0.0087890625,0,0,0.0087890625,42.591796875,0)" xlink:href="#aJ"/><use transform="matrix(0.0087890625,0,0,0.0087890625,53.0859375,0)" xlink:href="#aL"/><use transform="matrix(0.0087890625,0,0,0.0087890625,63.720703125,0)" xlink:href="#aU"/></g><g id="ag"><use transform="matrix(0.0087890625,0,0,0.0087890625,0,0)" xlink:href="#aH"/><use transform="matrix(0.0087890625,0,0,0.0087890625,4.359375,0)" xlink:href="#aV"/><use transform="matrix(0.0087890625,0,0,0.0087890625,9.755859375,0)" xlink:href="#aT"/><use transform="matrix(0.0087890625,0,0,0.0087890625,20.3994140625,0)" xlink:href="#aI"/><use transform="matrix(0.0087890625,0,0,0.0087890625,26.2880859375,0)" xlink:href="#aN"/><use transform="matrix(0.0087890625,0,0,0.0087890625,30.6474609375,0)" xlink:href="#aH"/><use transform="matrix(0.0087890625,0,0,0.0087890625,35.0068359375,0)" xlink:href="#aN"/><use transform="matrix(0.0087890625,0,0,0.0087890625,39.3662109375,0)" xlink:href="#aU"/><use transform="matrix(0.0087890625,0,0,0.0087890625,48.8671875,0)" xlink:href="#aM"/><use transform="matrix(0.0087890625,0,0,0.0087890625,58.974609375,0)" xlink:href="#aI"/><use transform="matrix(0.0087890625,0,0,0.0087890625,64.6875,0)" xlink:href="#aJ"/><use transform="matrix(0.0087890625,0,0,0.0087890625,75.181640625,0)" xlink:href="#aT"/><use transform="matrix(0.0087890625,0,0,0.0087890625,85.8251953125,0)" xlink:href="#aK"/></g><g id="ah"><use transform="matrix(0.0087890625,0,0,0.0087890625,0,0)" xlink:href="#bQ"/><use transform="matrix(0.0087890625,0,0,0.0087890625,11.021484375,0)" xlink:href="#aT"/><use transform="matrix(0.0087890625,0,0,0.0087890625,21.6650390625,0)" xlink:href="#aJ"/></g><g id="ai"><use transform="matrix(0.0087890625,0,0,0.0087890625,0,0)" xlink:href="#aH"/><use transform="matrix(0.0087890625,0,0,0.0087890625,4.359375,0)" xlink:href="#aJ"/></g><g id="aj"><use transform="matrix(0.0087890625,0,0,0.0087890625,0,0)" xlink:href="#aL"/><use transform="matrix(0.0087890625,0,0,0.0087890625,10.634765625,0)" xlink:href="#aV"/><use transform="matrix(0.0087890625,0,0,0.0087890625,16.03125,0)" xlink:href="#aM"/><use transform="matrix(0.0087890625,0,0,0.0087890625,26.138671875,0)" xlink:href="#aU"/></g><g id="ak"><use transform="matrix(0.0087890625,0,0,0.0087890625,0,0)" xlink:href="#aQ"/><use transform="matrix(0.0087890625,0,0,0.0087890625,11.021484375,0)" xlink:href="#aT"/></g><g id="al"><use transform="matrix(0.0087890625,0,0,0.0087890625,0,0)" xlink:href="#aM"/><use transform="matrix(0.0087890625,0,0,0.0087890625,10.107421875,0)" xlink:href="#bN"/><use transform="matrix(0.0087890625,0,0,0.0087890625,21.12890625,0)" xlink:href="#aX"/><use transform="matrix(0.0087890625,0,0,0.0087890625,31.921875,0)" xlink:href="#aT"/><use transform="matrix(0.0087890625,0,0,0.0087890625,42.5654296875,0)" xlink:href="#aI"/><use transform="matrix(0.0087890625,0,0,0.0087890625,48.4541015625,0)" xlink:href="#aN"/><use transform="matrix(0.0087890625,0,0,0.0087890625,52.8134765625,0)" xlink:href="#aK"/></g><path fill="#3a414a" d="M180 0v-1490h510c348 0 508 194 508 460 0 198-88 351-276 417L1256 0h-220L726-579c-117 2-238 0-356 1V0H180zm190-747h312c235 0 327-108 327-283 0-177-92-293-329-293H370v576" id="bS"/><g id="am"><use transform="matrix(0.0087890625,0,0,0.0087890625,0,0)" xlink:href="#bS"/><use transform="matrix(0.0087890625,0,0,0.0087890625,11.3203125,0)" xlink:href="#aJ"/><use transform="matrix(0.0087890625,0,0,0.0087890625,21.814453125,0)" xlink:href="#aL"/><use transform="matrix(0.0087890625,0,0,0.0087890625,32.185546875,0)" xlink:href="#aO"/><use transform="matrix(0.0087890625,0,0,0.0087890625,41.9501953125,0)" xlink:href="#aX"/><use transform="matrix(0.0087890625,0,0,0.0087890625,52.7431640625,0)" xlink:href="#aN"/><use transform="matrix(0.0087890625,0,0,0.0087890625,57.1025390625,0)" xlink:href="#aJ"/></g><path fill="#3a414a" d="M140 405l46-156c120 36 205 19 263-150l32-93L54-1118h197c107 313 237 620 324 950 87-331 219-637 326-950h196L606 167c-68 178-176 259-334 259-64 0-113-12-132-21" id="bT"/><g id="an"><use transform="matrix(0.0087890625,0,0,0.0087890625,0,0)" xlink:href="#aR"/><use transform="matrix(0.0087890625,0,0,0.0087890625,15.767578125,0)" xlink:href="#aX"/><use transform="matrix(0.0087890625,0,0,0.0087890625,26.208984375,0)" xlink:href="#bT"/><use transform="matrix(0.0087890625,0,0,0.0087890625,35.9736328125,0)" xlink:href="#aJ"/><use transform="matrix(0.0087890625,0,0,0.0087890625,46.4677734375,0)" xlink:href="#aL"/></g><path d="M180 0v-1490h190v1322h690V0H180" id="bU"/><path d="M232-923l-22-567h194l-22 567H232" id="bV"/><g id="ao"><use transform="matrix(0.008072916666666667,0,0,0.008072916666666667,0,0)" xlink:href="#bU"/><use transform="matrix(0.008072916666666667,0,0,0.008072916666666667,7.846875000000001,0)" xlink:href="#bV"/><use transform="matrix(0.008072916666666667,0,0,0.008072916666666667,12.803645833333334,0)" xlink:href="#aD"/><use transform="matrix(0.008072916666666667,0,0,0.008072916666666667,22.57994791666667,0)" xlink:href="#aB"/><use transform="matrix(0.008072916666666667,0,0,0.008072916666666667,27.988802083333336,0)" xlink:href="#bp"/><use transform="matrix(0.008072916666666667,0,0,0.008072916666666667,31.992968750000003,0)" xlink:href="#bq"/><use transform="matrix(0.008072916666666667,0,0,0.008072916666666667,35.99713541666667,0)" xlink:href="#bp"/><use transform="matrix(0.008072916666666667,0,0,0.008072916666666667,40.00130208333334,0)" xlink:href="#br"/><use transform="matrix(0.008072916666666667,0,0,0.008072916666666667,48.72812500000001,0)" xlink:href="#bs"/><use transform="matrix(0.008072916666666667,0,0,0.008072916666666667,58.01197916666668,0)" xlink:href="#aB"/><use transform="matrix(0.008072916666666667,0,0,0.008072916666666667,63.259375000000006,0)" xlink:href="#aA"/><use transform="matrix(0.008072916666666667,0,0,0.008072916666666667,72.89843750000001,0)" xlink:href="#aD"/><use transform="matrix(0.008072916666666667,0,0,0.008072916666666667,82.67473958333332,0)" xlink:href="#aC"/></g><g id="ap"><use transform="matrix(0.008072916666666667,0,0,0.008072916666666667,0,0)" xlink:href="#aE"/><use transform="matrix(0.008072916666666667,0,0,0.008072916666666667,9.768229166666668,0)" xlink:href="#bV"/><use transform="matrix(0.008072916666666667,0,0,0.008072916666666667,14.482812500000001,0)" xlink:href="#aA"/><use transform="matrix(0.008072916666666667,0,0,0.008072916666666667,24.121875000000003,0)" xlink:href="#br"/></g><g id="aq"><use transform="matrix(0.008072916666666667,0,0,0.008072916666666667,0,0)" xlink:href="#by"/><use transform="matrix(0.008072916666666667,0,0,0.008072916666666667,10.284895833333335,0)" xlink:href="#bs"/><use transform="matrix(0.008072916666666667,0,0,0.008072916666666667,19.56875,0)" xlink:href="#br"/></g><path d="M628 24c-324 0-524-230-524-574 0-343 198-582 503-582 237 0 487 146 487 559v75H286c9 234 145 362 343 362 132 0 231-58 273-172l174 48C1024-91 857 24 628 24zM287-650h624c-17-190-120-322-304-322-192 0-309 151-320 322zm237-614l140-294h201l-194 294H524" id="bW"/><g id="ar"><use transform="matrix(0.008072916666666667,0,0,0.008072916666666667,0,0)" xlink:href="#ay"/><use transform="matrix(0.008072916666666667,0,0,0.008072916666666667,9.445312500000002,0)" xlink:href="#bH"/><use transform="matrix(0.008072916666666667,0,0,0.008072916666666667,19.358854166666667,0)" xlink:href="#aE"/><use transform="matrix(0.008072916666666667,0,0,0.008072916666666667,29.127083333333335,0)" xlink:href="#aE"/><use transform="matrix(0.008072916666666667,0,0,0.008072916666666667,38.8953125,0)" xlink:href="#aA"/><use transform="matrix(0.008072916666666667,0,0,0.008072916666666667,48.534375000000004,0)" xlink:href="#ay"/><use transform="matrix(0.008072916666666667,0,0,0.008072916666666667,57.979687500000004,0)" xlink:href="#aB"/><use transform="matrix(0.008072916666666667,0,0,0.008072916666666667,63.22708333333333,0)" xlink:href="#bW"/></g><path d="M481 0L54-1118h197c107 314 236 620 325 951 87-331 217-637 324-951h197L670 0H481" id="bX"/><g id="as"><use transform="matrix(0.008072916666666667,0,0,0.008072916666666667,0,0)" xlink:href="#bw"/><use transform="matrix(0.008072916666666667,0,0,0.008072916666666667,10.397916666666667,0)" xlink:href="#aA"/><use transform="matrix(0.008072916666666667,0,0,0.008072916666666667,20.03697916666667,0)" xlink:href="#aE"/><use transform="matrix(0.008072916666666667,0,0,0.008072916666666667,29.563020833333336,0)" xlink:href="#bX"/><use transform="matrix(0.008072916666666667,0,0,0.008072916666666667,38.53203125,0)" xlink:href="#bH"/><use transform="matrix(0.008072916666666667,0,0,0.008072916666666667,48.44557291666667,0)" xlink:href="#bp"/><use transform="matrix(0.008072916666666667,0,0,0.008072916666666667,52.44973958333334,0)" xlink:href="#aA"/></g><g id="at"><use transform="matrix(0.008072916666666667,0,0,0.008072916666666667,0,0)" xlink:href="#bq"/><use transform="matrix(0.008072916666666667,0,0,0.008072916666666667,4.004166666666667,0)" xlink:href="#bs"/></g><path d="M611 442c-248 0-391-105-460-228l146-94c47 65 117 165 314 165 178 0 307-82 307-266v-224h-17C863-141 792-18 576-18c-268 0-472-195-472-546 0-346 197-568 476-568 216 0 288 133 326 193h17v-179h175V29c0 289-215 413-487 413zm-5-620c203 0 314-146 314-390 0-237-108-403-314-403-213 0-319 180-319 403 0 230 109 390 319 390" id="bY"/><g id="au"><use transform="matrix(0.008072916666666667,0,0,0.008072916666666667,0,0)" xlink:href="#by"/><use transform="matrix(0.008072916666666667,0,0,0.008072916666666667,10.284895833333335,0)" xlink:href="#bs"/><use transform="matrix(0.008072916666666667,0,0,0.008072916666666667,19.56875,0)" xlink:href="#bY"/><use transform="matrix(0.008072916666666667,0,0,0.008072916666666667,29.708333333333336,0)" xlink:href="#aA"/></g><path d="M577 24c-279 0-473-224-473-580 0-354 195-576 474-576 218 0 287 134 324 193h14v-551h180V0H922v-173h-20C865-111 790 24 577 24zm27-161c203 0 314-172 314-421 0-247-108-413-314-413-212 0-317 181-317 413 0 235 108 421 317 421" id="bZ"/><g id="av"><use transform="matrix(0.008072916666666667,0,0,0.008072916666666667,0,0)" xlink:href="#bZ"/><use transform="matrix(0.008072916666666667,0,0,0.008072916666666667,10.123437500000001,0)" xlink:href="#aA"/></g><path d="M65 0l393-574-370-544h210c88 136 192 297 267 435 67-142 176-302 264-435h206L661-564 1053 0H844c-94-144-206-310-287-458C484-308 366-142 273 0H65" id="ca"/><g id="aw"><use transform="matrix(0.008072916666666667,0,0,0.008072916666666667,0,0)" xlink:href="#ay"/><use transform="matrix(0.008072916666666667,0,0,0.008072916666666667,9.445312500000002,0)" xlink:href="#bH"/><use transform="matrix(0.008072916666666667,0,0,0.008072916666666667,19.358854166666667,0)" xlink:href="#aE"/><use transform="matrix(0.008072916666666667,0,0,0.008072916666666667,29.127083333333335,0)" xlink:href="#aE"/><use transform="matrix(0.008072916666666667,0,0,0.008072916666666667,38.8953125,0)" xlink:href="#aA"/><use transform="matrix(0.008072916666666667,0,0,0.008072916666666667,48.163020833333334,0)" xlink:href="#ca"/><use transform="matrix(0.008072916666666667,0,0,0.008072916666666667,57.188541666666666,0)" xlink:href="#bp"/><use transform="matrix(0.008072916666666667,0,0,0.008072916666666667,61.19270833333333,0)" xlink:href="#bH"/><use transform="matrix(0.008072916666666667,0,0,0.008072916666666667,71.10625,0)" xlink:href="#aE"/></g></defs></g></svg>