<?plantuml 1.2026.2?><svg xmlns="http://www.w3.org/2000/svg" xmlns:xlink="http://www.w3.org/1999/xlink" contentStyleType="text/css" data-diagram-type="DESCRIPTION" height="1052px" preserveAspectRatio="none" style="width:1489px;height:1052px;background:#FFFFFF;" version="1.1" viewBox="0 0 1489 1052" width="1489px" zoomAndPan="magnify"><title>Architecture D&#233;taill&#233;e - Plateforme VAPEUR</title><defs/><g><g class="title" data-source-line="4"><text fill="#000000" font-family="sans-serif" font-size="14" font-weight="bold" lengthAdjust="spacing" textLength="345.3311" x="564.8345" y="22.9951">Architecture D&#233;taill&#233;e - Plateforme VAPEUR</text></g><!--cluster Point d'entr?e s?curis?--><g class="cluster" data-qualified-name="Point d.entr.e s.curis." data-source-line="8" id="ent0003"><polygon fill="#FFFFE0" points="651,192.0969,661,182.0969,1066,182.0969,1066,290.6869,1056,300.6869,651,300.6869,651,192.0969" style="stroke:#181818;stroke-width:1;"/><line style="stroke:#181818;stroke-width:1;" x1="1056" x2="1066" y1="192.0969" y2="182.0969"/><line style="stroke:#181818;stroke-width:1;" x1="651" x2="1056" y1="192.0969" y2="192.0969"/><line style="stroke:#181818;stroke-width:1;" x1="1056" x2="1056" y1="192.0969" y2="300.6869"/><text fill="#000000" font-family="sans-serif" font-size="14" font-weight="bold" lengthAdjust="spacing" textLength="183.0664" x="762.9668" y="208.092">Point d'entr&#233;e s&#233;curis&#233;</text></g><!--cluster Frontend [Django / Template Engine]--><g class="cluster" data-qualified-name="Frontend .Django . Template Engine." data-source-line="12" id="ent0008"><rect fill="#E0FFFF" height="97.3" rx="2.5" ry="2.5" style="stroke:#181818;stroke-width:1;" width="429" x="7" y="392.6869"/><text fill="#000000" font-family="sans-serif" font-size="14" font-weight="bold" lengthAdjust="spacing" textLength="293.0088" x="74.9956" y="407.682">Frontend [Django / Template Engine]</text></g><!--cluster Backend [Python / FastAPI]--><g class="cluster" data-qualified-name="Backend .Python . FastAPI." data-source-line="17" id="ent0013"><rect fill="#90EE90" height="423.6" rx="2.5" ry="2.5" style="stroke:#181818;stroke-width:1;" width="897" x="460" y="349.6869"/><text fill="#000000" font-family="sans-serif" font-size="14" font-weight="bold" lengthAdjust="spacing" textLength="215.7148" x="800.6426" y="364.682">Backend [Python / FastAPI]</text></g><!--cluster Module Biblioth?que (Library)--><g class="cluster" data-qualified-name="Backend .Python . FastAPI..Module Biblioth.que .Library." data-source-line="19" id="ent0014"><path d="M486.5,392.6869 L724.3447,392.6869 A3.75,3.75 0 0 1 726.8447,395.1869 L733.8447,414.9838 L733.5,414.9838 A2.5,2.5 0 0 1 736,417.4838 L736,746.7869 A2.5,2.5 0 0 1 733.5,749.2869 L486.5,749.2869 A2.5,2.5 0 0 1 484,746.7869 L484,395.1869 A2.5,2.5 0 0 1 486.5,392.6869" fill="none" style="stroke:#000000;stroke-width:1.5;"/><line style="stroke:#000000;stroke-width:1.5;" x1="484" x2="733.8447" y1="414.9838" y2="414.9838"/><text fill="#000000" font-family="sans-serif" font-size="14" font-weight="bold" lengthAdjust="spacing" textLength="236.8447" x="488" y="407.682">Module Biblioth&#232;que (Library)</text></g><!--cluster Module Communaut? (Commentaires)--><g class="cluster" data-qualified-name="Backend .Python . FastAPI..Module Communaut. .Commentaires." data-source-line="25" id="ent0018"><path d="M762.5,392.6869 L1062.6816,392.6869 A3.75,3.75 0 0 1 1065.1816,395.1869 L1072.1816,414.9838 L1112.5,414.9838 A2.5,2.5 0 0 1 1115,417.4838 L1115,746.7869 A2.5,2.5 0 0 1 1112.5,749.2869 L762.5,749.2869 A2.5,2.5 0 0 1 760,746.7869 L760,395.1869 A2.5,2.5 0 0 1 762.5,392.6869" fill="none" style="stroke:#000000;stroke-width:1.5;"/><line style="stroke:#000000;stroke-width:1.5;" x1="760" x2="1072.1816" y1="414.9838" y2="414.9838"/><text fill="#000000" font-family="sans-serif" font-size="14" font-weight="bold" lengthAdjust="spacing" textLength="299.1816" x="764" y="407.682">Module Communaut&#233; (Commentaires)</text></g><!--cluster Module Magasin--><g class="cluster" data-qualified-name="Backend .Python . FastAPI..Module Magasin" data-source-line="31" id="ent0022"><path d="M1141.5,392.6869 L1271.1523,392.6869 A3.75,3.75 0 0 1 1273.6523,395.1869 L1280.6523,414.9838 L1330.5,414.9838 A2.5,2.5 0 0 1 1333,417.4838 L1333,746.7869 A2.5,2.5 0 0 1 1330.5,749.2869 L1141.5,749.2869 A2.5,2.5 0 0 1 1139,746.7869 L1139,395.1869 A2.5,2.5 0 0 1 1141.5,392.6869" fill="none" style="stroke:#000000;stroke-width:1.5;"/><line style="stroke:#000000;stroke-width:1.5;" x1="1139" x2="1280.6523" y1="414.9838" y2="414.9838"/><text fill="#000000" font-family="sans-serif" font-size="14" font-weight="bold" lengthAdjust="spacing" textLength="128.6523" x="1143" y="407.682">Module Magasin</text></g><!--cluster Couche de Persistance des Donn?es--><g class="cluster" data-qualified-name="Couche de Persistance des Donn.es" data-source-line="38" id="ent0026"><path d="M663,832.2869 C663,822.2869 1067.5,822.2869 1067.5,822.2869 C1067.5,822.2869 1472,822.2869 1472,832.2869 L1472,1025.8469 C1472,1035.8469 1067.5,1035.8469 1067.5,1035.8469 C1067.5,1035.8469 663,1035.8469 663,1025.8469 L663,832.2869" fill="#FFE4E1" style="stroke:#181818;stroke-width:1;"/><path d="M663,832.2869 C663,842.2869 1067.5,842.2869 1067.5,842.2869 C1067.5,842.2869 1472,842.2869 1472,832.2869" fill="none" style="stroke:#181818;stroke-width:1;"/><text fill="#000000" font-family="sans-serif" font-size="14" font-weight="bold" lengthAdjust="spacing" textLength="285.0039" x="924.998" y="857.282">Couche de Persistance des Donn&#233;es</text></g><!--entity Gateway--><g class="entity" data-qualified-name="Point d.entr.e s.curis..Gateway" data-source-line="9" id="ent0004"><rect fill="#F1F1F1" height="62.5938" rx="2.5" ry="2.5" style="stroke:#181818;stroke-width:0.5;" width="139.873" x="667.06" y="222.0969"/><rect fill="#F1F1F1" height="10" style="stroke:#181818;stroke-width:0.5;" width="15" x="786.933" y="227.0969"/><rect fill="#F1F1F1" height="2" style="stroke:#181818;stroke-width:0.5;" width="4" x="784.933" y="229.0969"/><rect fill="#F1F1F1" height="2" style="stroke:#181818;stroke-width:0.5;" width="4" x="784.933" y="233.0969"/><text fill="#000000" font-family="sans-serif" font-size="14" lengthAdjust="spacing" textLength="88.4434" x="682.06" y="255.092">API Gateway</text><text fill="#000000" font-family="sans-serif" font-size="14" lengthAdjust="spacing" textLength="99.873" x="682.06" y="271.3889">Load Balancer</text></g><g class="entity" data-qualified-name="Point d.entr.e s.curis..GMN5" data-source-line="10" id="ent0006"><path d="M841.64,233.2569 L841.64,249.3969 L807.21,253.3969 L841.64,257.3969 L841.64,273.5225 A0,0 0 0 0 841.64,273.5225 L1050.3529,273.5225 A0,0 0 0 0 1050.3529,273.5225 L1050.3529,243.2569 L1040.3529,233.2569 L841.64,233.2569 A0,0 0 0 0 841.64,233.2569" fill="#FEFFDD" style="stroke:#181818;stroke-width:0.5;"/><path d="M1040.3529,233.2569 L1040.3529,243.2569 L1050.3529,243.2569 L1040.3529,233.2569" fill="#FEFFDD" style="stroke:#181818;stroke-width:0.5;"/><text fill="#000000" font-family="sans-serif" font-size="13" lengthAdjust="spacing" textLength="143.5269" x="847.64" y="250.3238">Routage des requ&#234;tes</text><text fill="#000000" font-family="sans-serif" font-size="13" lengthAdjust="spacing" textLength="187.7129" x="847.64" y="265.4566">et validation des Tokens JWT</text></g><!--entity UI--><g class="entity" data-qualified-name="Frontend .Django . Template Engine..UI" data-source-line="13" id="ent0009"><rect fill="#F1F1F1" height="46.2969" rx="2.5" ry="2.5" style="stroke:#181818;stroke-width:0.5;" width="208.8887" x="22.56" y="427.6869"/><rect fill="#F1F1F1" height="10" style="stroke:#181818;stroke-width:0.5;" width="15" x="211.4487" y="432.6869"/><rect fill="#F1F1F1" height="2" style="stroke:#181818;stroke-width:0.5;" width="4" x="209.4487" y="434.6869"/><rect fill="#F1F1F1" height="2" style="stroke:#181818;stroke-width:0.5;" width="4" x="209.4487" y="438.6869"/><text fill="#000000" font-family="sans-serif" font-size="14" lengthAdjust="spacing" textLength="168.8887" x="37.56" y="460.682">Interface Utilisateur (UI)</text></g><g class="entity" data-qualified-name="Frontend .Django . Template Engine..GMN10" data-source-line="14" id="ent0011"><path d="M266.3,430.7069 L266.3,446.8369 L231.62,450.8369 L266.3,454.8369 L266.3,470.9725 A0,0 0 0 0 266.3,470.9725 L419.7058,470.9725 A0,0 0 0 0 419.7058,470.9725 L419.7058,440.7069 L409.7058,430.7069 L266.3,430.7069 A0,0 0 0 0 266.3,430.7069" fill="#FEFFDD" style="stroke:#181818;stroke-width:0.5;"/><path d="M409.7058,430.7069 L409.7058,440.7069 L419.7058,440.7069 L409.7058,430.7069" fill="#FEFFDD" style="stroke:#181818;stroke-width:0.5;"/><text fill="#000000" font-family="sans-serif" font-size="13" lengthAdjust="spacing" textLength="132.4058" x="272.3" y="447.7738">Navigation Magasin,</text><text fill="#000000" font-family="sans-serif" font-size="13" lengthAdjust="spacing" textLength="122.9858" x="272.3" y="462.9066">Biblioth&#232;que, Profil</text></g><!--entity LibCtrl--><g class="entity" data-qualified-name="Backend .Python . FastAPI..Module Biblioth.que .Library..LibCtrl" data-source-line="20" id="ent0015"><rect fill="#F1F1F1" height="46.2969" rx="2.5" ry="2.5" style="stroke:#181818;stroke-width:0.5;" width="158.125" x="530.94" y="427.6869"/><rect fill="#F1F1F1" height="10" style="stroke:#181818;stroke-width:0.5;" width="15" x="669.065" y="432.6869"/><rect fill="#F1F1F1" height="2" style="stroke:#181818;stroke-width:0.5;" width="4" x="667.065" y="434.6869"/><rect fill="#F1F1F1" height="2" style="stroke:#181818;stroke-width:0.5;" width="4" x="667.065" y="438.6869"/><text fill="#000000" font-family="sans-serif" font-size="14" lengthAdjust="spacing" textLength="118.125" x="545.94" y="460.682">LibraryController</text></g><!--entity LibSvc--><g class="entity" data-qualified-name="Backend .Python . FastAPI..Module Biblioth.que .Library..LibSvc" data-source-line="21" id="ent0016"><rect fill="#F1F1F1" height="46.2969" rx="2.5" ry="2.5" style="stroke:#181818;stroke-width:0.5;" width="140.6934" x="530.65" y="558.3369"/><rect fill="#F1F1F1" height="10" style="stroke:#181818;stroke-width:0.5;" width="15" x="651.3434" y="563.3369"/><rect fill="#F1F1F1" height="2" style="stroke:#181818;stroke-width:0.5;" width="4" x="649.3434" y="565.3369"/><rect fill="#F1F1F1" height="2" style="stroke:#181818;stroke-width:0.5;" width="4" x="649.3434" y="569.3369"/><text fill="#000000" font-family="sans-serif" font-size="14" lengthAdjust="spacing" textLength="100.6934" x="545.65" y="591.332">LibraryService</text></g><!--entity LibReg--><g class="entity" data-qualified-name="Backend .Python . FastAPI..Module Biblioth.que .Library..LibReg" data-source-line="22" id="ent0017"><rect fill="#F1F1F1" height="46.2969" rx="2.5" ry="2.5" style="stroke:#181818;stroke-width:0.5;" width="146.8936" x="530.55" y="686.9869"/><rect fill="#F1F1F1" height="10" style="stroke:#181818;stroke-width:0.5;" width="15" x="657.4436" y="691.9869"/><rect fill="#F1F1F1" height="2" style="stroke:#181818;stroke-width:0.5;" width="4" x="655.4436" y="693.9869"/><rect fill="#F1F1F1" height="2" style="stroke:#181818;stroke-width:0.5;" width="4" x="655.4436" y="697.9869"/><text fill="#000000" font-family="sans-serif" font-size="14" lengthAdjust="spacing" textLength="106.8936" x="545.55" y="719.982">LibraryRegistry</text></g><!--entity ComCtrl--><g class="entity" data-qualified-name="Backend .Python . FastAPI..Module Communaut. .Commentaires..ComCtrl" data-source-line="26" id="ent0019"><rect fill="#F1F1F1" height="46.2969" rx="2.5" ry="2.5" style="stroke:#181818;stroke-width:0.5;" width="177.7646" x="776.12" y="427.6869"/><rect fill="#F1F1F1" height="10" style="stroke:#181818;stroke-width:0.5;" width="15" x="933.8846" y="432.6869"/><rect fill="#F1F1F1" height="2" style="stroke:#181818;stroke-width:0.5;" width="4" x="931.8846" y="434.6869"/><rect fill="#F1F1F1" height="2" style="stroke:#181818;stroke-width:0.5;" width="4" x="931.8846" y="438.6869"/><text fill="#000000" font-family="sans-serif" font-size="14" lengthAdjust="spacing" textLength="137.7646" x="791.12" y="460.682">CommentController</text></g><!--entity ComSvc--><g class="entity" data-qualified-name="Backend .Python . FastAPI..Module Communaut. .Commentaires..ComSvc" data-source-line="27" id="ent0020"><rect fill="#F1F1F1" height="46.2969" rx="2.5" ry="2.5" style="stroke:#181818;stroke-width:0.5;" width="160.333" x="775.83" y="558.3369"/><rect fill="#F1F1F1" height="10" style="stroke:#181818;stroke-width:0.5;" width="15" x="916.163" y="563.3369"/><rect fill="#F1F1F1" height="2" style="stroke:#181818;stroke-width:0.5;" width="4" x="914.163" y="565.3369"/><rect fill="#F1F1F1" height="2" style="stroke:#181818;stroke-width:0.5;" width="4" x="914.163" y="569.3369"/><text fill="#000000" font-family="sans-serif" font-size="14" lengthAdjust="spacing" textLength="120.333" x="790.83" y="591.332">CommentService</text></g><!--entity ComReg--><g class="entity" data-qualified-name="Backend .Python . FastAPI..Module Communaut. .Commentaires..ComReg" data-source-line="28" id="ent0021"><rect fill="#F1F1F1" height="46.2969" rx="2.5" ry="2.5" style="stroke:#181818;stroke-width:0.5;" width="166.5332" x="775.73" y="686.9869"/><rect fill="#F1F1F1" height="10" style="stroke:#181818;stroke-width:0.5;" width="15" x="922.2632" y="691.9869"/><rect fill="#F1F1F1" height="2" style="stroke:#181818;stroke-width:0.5;" width="4" x="920.2632" y="693.9869"/><rect fill="#F1F1F1" height="2" style="stroke:#181818;stroke-width:0.5;" width="4" x="920.2632" y="697.9869"/><text fill="#000000" font-family="sans-serif" font-size="14" lengthAdjust="spacing" textLength="126.5332" x="790.73" y="719.982">CommentRegistry</text></g><!--entity CatCtrl--><g class="entity" data-qualified-name="Backend .Python . FastAPI..Module Magasin.CatCtrl" data-source-line="32" id="ent0023"><rect fill="#F1F1F1" height="46.2969" rx="2.5" ry="2.5" style="stroke:#181818;stroke-width:0.5;" width="162.9375" x="1154.53" y="427.6869"/><rect fill="#F1F1F1" height="10" style="stroke:#181818;stroke-width:0.5;" width="15" x="1297.4675" y="432.6869"/><rect fill="#F1F1F1" height="2" style="stroke:#181818;stroke-width:0.5;" width="4" x="1295.4675" y="434.6869"/><rect fill="#F1F1F1" height="2" style="stroke:#181818;stroke-width:0.5;" width="4" x="1295.4675" y="438.6869"/><text fill="#000000" font-family="sans-serif" font-size="14" lengthAdjust="spacing" textLength="122.9375" x="1169.53" y="460.682">CatalogController</text></g><!--entity CatSvc--><g class="entity" data-qualified-name="Backend .Python . FastAPI..Module Magasin.CatSvc" data-source-line="33" id="ent0024"><rect fill="#F1F1F1" height="46.2969" rx="2.5" ry="2.5" style="stroke:#181818;stroke-width:0.5;" width="145.5059" x="1155.25" y="558.3369"/><rect fill="#F1F1F1" height="10" style="stroke:#181818;stroke-width:0.5;" width="15" x="1280.7559" y="563.3369"/><rect fill="#F1F1F1" height="2" style="stroke:#181818;stroke-width:0.5;" width="4" x="1278.7559" y="565.3369"/><rect fill="#F1F1F1" height="2" style="stroke:#181818;stroke-width:0.5;" width="4" x="1278.7559" y="569.3369"/><text fill="#000000" font-family="sans-serif" font-size="14" lengthAdjust="spacing" textLength="105.5059" x="1170.25" y="591.332">CatalogService</text></g><!--entity CatReg--><g class="entity" data-qualified-name="Backend .Python . FastAPI..Module Magasin.CatReg" data-source-line="34" id="ent0025"><rect fill="#F1F1F1" height="46.2969" rx="2.5" ry="2.5" style="stroke:#181818;stroke-width:0.5;" width="151.7061" x="1160.15" y="686.9869"/><rect fill="#F1F1F1" height="10" style="stroke:#181818;stroke-width:0.5;" width="15" x="1291.8561" y="691.9869"/><rect fill="#F1F1F1" height="2" style="stroke:#181818;stroke-width:0.5;" width="4" x="1289.8561" y="693.9869"/><rect fill="#F1F1F1" height="2" style="stroke:#181818;stroke-width:0.5;" width="4" x="1289.8561" y="697.9869"/><text fill="#000000" font-family="sans-serif" font-size="14" lengthAdjust="spacing" textLength="111.7061" x="1175.15" y="719.982">CatalogRegistry</text></g><!--entity Postgres--><g class="entity" data-qualified-name="Couche de Persistance des Donn.es.Postgres" data-source-line="39" id="ent0027"><rect fill="#F1F1F1" height="46.2969" rx="2.5" ry="2.5" style="stroke:#181818;stroke-width:0.5;" width="215.1299" x="684.44" y="872.2869"/><rect fill="#F1F1F1" height="10" style="stroke:#181818;stroke-width:0.5;" width="15" x="879.5699" y="877.2869"/><rect fill="#F1F1F1" height="2" style="stroke:#181818;stroke-width:0.5;" width="4" x="877.5699" y="879.2869"/><rect fill="#F1F1F1" height="2" style="stroke:#181818;stroke-width:0.5;" width="4" x="877.5699" y="883.2869"/><text fill="#000000" font-family="sans-serif" font-size="14" lengthAdjust="spacing" textLength="175.1299" x="699.44" y="905.282">PostgreSQL (Relationnel)</text></g><g class="entity" data-qualified-name="Couche de Persistance des Donn.es.GMN28" data-source-line="40" id="ent0029"><path d="M679.39,979.5769 L679.39,1019.8425 A0,0 0 0 0 679.39,1019.8425 L904.6004,1019.8425 A0,0 0 0 0 904.6004,1019.8425 L904.6004,989.5769 L894.6004,979.5769 L796,979.5769 L792,918.8769 L788,979.5769 L679.39,979.5769 A0,0 0 0 0 679.39,979.5769" fill="#FEFFDD" style="stroke:#181818;stroke-width:0.5;"/><path d="M894.6004,979.5769 L894.6004,989.5769 L904.6004,989.5769 L894.6004,979.5769" fill="#FEFFDD" style="stroke:#181818;stroke-width:0.5;"/><text fill="#000000" font-family="sans-serif" font-size="13" lengthAdjust="spacing" textLength="204.2104" x="685.39" y="996.6438">Tables: Utilisateur, Jeu, Succ&#232;s.</text><text fill="#000000" font-family="sans-serif" font-size="13" lengthAdjust="spacing" textLength="134.0815" x="685.39" y="1011.7766">Int&#233;grit&#233; des achats.</text></g><!--entity Mongo--><g class="entity" data-qualified-name="Couche de Persistance des Donn.es.Mongo" data-source-line="42" id="ent0031"><rect fill="#F1F1F1" height="46.2969" rx="2.5" ry="2.5" style="stroke:#181818;stroke-width:0.5;" width="169.4727" x="965.26" y="872.2869"/><rect fill="#F1F1F1" height="10" style="stroke:#181818;stroke-width:0.5;" width="15" x="1114.7327" y="877.2869"/><rect fill="#F1F1F1" height="2" style="stroke:#181818;stroke-width:0.5;" width="4" x="1112.7327" y="879.2869"/><rect fill="#F1F1F1" height="2" style="stroke:#181818;stroke-width:0.5;" width="4" x="1112.7327" y="883.2869"/><text fill="#000000" font-family="sans-serif" font-size="14" lengthAdjust="spacing" textLength="129.4727" x="980.26" y="905.282">MongoDB (NoSQL)</text></g><g class="entity" data-qualified-name="Couche de Persistance des Donn.es.GMN32" data-source-line="43" id="ent0033"><path d="M939.42,979.5769 L939.42,1019.8425 A0,0 0 0 0 939.42,1019.8425 L1142.5723,1019.8425 A0,0 0 0 0 1142.5723,1019.8425 L1142.5723,989.5769 L1132.5723,979.5769 L1046.7,979.5769 L1048.02,918.8769 L1038.7,979.5769 L939.42,979.5769 A0,0 0 0 0 939.42,979.5769" fill="#FEFFDD" style="stroke:#181818;stroke-width:0.5;"/><path d="M1132.5723,979.5769 L1132.5723,989.5769 L1142.5723,989.5769 L1132.5723,979.5769" fill="#FEFFDD" style="stroke:#181818;stroke-width:0.5;"/><text fill="#000000" font-family="sans-serif" font-size="13" lengthAdjust="spacing" textLength="182.1523" x="945.42" y="996.6438">Documents: Commentaires,</text><text fill="#000000" font-family="sans-serif" font-size="13" lengthAdjust="spacing" textLength="118.5234" x="945.42" y="1011.7766">Discussions, Logs.</text></g><!--entity Redis--><g class="entity" data-qualified-name="Couche de Persistance des Donn.es.Redis" data-source-line="45" id="ent0035"><rect fill="#F1F1F1" height="46.2969" rx="2.5" ry="2.5" style="stroke:#181818;stroke-width:0.5;" width="137.3232" x="1191.34" y="872.2869"/><rect fill="#F1F1F1" height="10" style="stroke:#181818;stroke-width:0.5;" width="15" x="1308.6632" y="877.2869"/><rect fill="#F1F1F1" height="2" style="stroke:#181818;stroke-width:0.5;" width="4" x="1306.6632" y="879.2869"/><rect fill="#F1F1F1" height="2" style="stroke:#181818;stroke-width:0.5;" width="4" x="1306.6632" y="883.2869"/><text fill="#000000" font-family="sans-serif" font-size="14" lengthAdjust="spacing" textLength="97.3232" x="1206.34" y="905.282">Redis (Cache)</text></g><g class="entity" data-qualified-name="Couche de Persistance des Donn.es.GMN36" data-source-line="46" id="ent0037"><path d="M1177.89,987.1469 L1177.89,1012.2797 A0,0 0 0 0 1177.89,1012.2797 L1456.1161,1012.2797 A0,0 0 0 0 1456.1161,1012.2797 L1456.1161,997.1469 L1446.1161,987.1469 L1314.38,987.1469 L1272.51,918.8769 L1306.38,987.1469 L1177.89,987.1469 A0,0 0 0 0 1177.89,987.1469" fill="#FEFFDD" style="stroke:#181818;stroke-width:0.5;"/><path d="M1446.1161,987.1469 L1446.1161,997.1469 L1456.1161,997.1469 L1446.1161,987.1469" fill="#FEFFDD" style="stroke:#181818;stroke-width:0.5;"/><text fill="#000000" font-family="sans-serif" font-size="13" lengthAdjust="spacing" textLength="257.2261" x="1183.89" y="1004.2138">Cache pour les sessions et le catalogue</text></g><!--entity User--><g class="entity" data-qualified-name="User" data-source-line="6" id="ent0002"><ellipse cx="736.997" cy="51.2969" fill="#F1F1F1" rx="8" ry="8" style="stroke:#181818;stroke-width:0.5;"/><path d="M736.997,59.2969 L736.997,86.2969 M723.997,67.2969 L749.997,67.2969 M736.997,86.2969 L723.997,101.2969 M736.997,86.2969 L749.997,101.2969" fill="none" style="stroke:#181818;stroke-width:0.5;"/><text fill="#000000" font-family="sans-serif" font-size="14" lengthAdjust="spacing" textLength="127.9141" x="673.04" y="115.792">Utilisateur (Client)</text></g><!--link User to Gateway--><g class="link" data-entity-1="ent0002" data-entity-2="ent0004" data-link-type="dependency" data-source-line="51" id="lnk39"><path d="M737,119.3569 C737,150.0269 737,186.9169 737,215.6269" fill="none" id="User-to-Gateway" style="stroke:#181818;stroke-width:1;"/><polygon fill="#181818" points="737,221.6269,741,212.6269,737,216.6269,733,212.6269,737,221.6269" style="stroke:#181818;stroke-width:1;"/><text fill="#000000" font-family="sans-serif" font-size="13" lengthAdjust="spacing" textLength="183.1553" x="738" y="162.1638">Requ&#234;tes HTTP/REST (JSON)</text></g><!--link Gateway to UI--><g class="link" data-entity-1="ent0004" data-entity-2="ent0009" data-link-type="dependency" data-source-line="54" id="lnk40"><path d="M666.68,255.1769 C568.43,258.8269 386.68,274.9869 249,341.6869 C206.21,362.4269 170.9798,397.9916 149.1098,423.1116" fill="none" id="Gateway-to-UI" style="stroke:#181818;stroke-width:1;"/><polygon fill="#181818" points="145.17,427.6369,154.0965,423.4755,148.4532,423.8658,148.0628,418.2224,145.17,427.6369" style="stroke:#181818;stroke-width:1;"/></g><!--link Gateway to LibCtrl--><g class="link" data-entity-1="ent0004" data-entity-2="ent0015" data-link-type="dependency" data-source-line="55" id="lnk41"><path d="M676.14,285.1069 C663.65,293.8269 651.69,304.3669 643,316.6869 C619.25,350.3569 612.9246,393.3399 611.0646,421.5599" fill="none" id="Gateway-to-LibCtrl" style="stroke:#181818;stroke-width:1;"/><polygon fill="#181818" points="610.67,427.5469,615.2533,418.8294,610.9988,422.5577,607.2706,418.3033,610.67,427.5469" style="stroke:#181818;stroke-width:1;"/><text fill="#000000" font-family="sans-serif" font-size="13" lengthAdjust="spacing" textLength="165.3247" x="644" y="329.7538">GET /api/users/me/library</text></g><!--link Gateway to ComCtrl--><g class="link" data-entity-1="ent0004" data-entity-2="ent0019" data-link-type="dependency" data-source-line="56" id="lnk42"><path d="M783.07,285.1469 C794.3,294.2769 805.51,305.0069 814,316.6869 C839.02,351.1369 852.028,393.5754 858.798,421.5354" fill="none" id="Gateway-to-ComCtrl" style="stroke:#181818;stroke-width:1;"/><polygon fill="#181818" points="860.21,427.3669,861.9797,417.6783,859.0333,422.5073,854.2044,419.561,860.21,427.3669" style="stroke:#181818;stroke-width:1;"/><text fill="#000000" font-family="sans-serif" font-size="13" lengthAdjust="spacing" textLength="216.3408" x="825.48" y="329.7538">POST /api/games/{id}/comments</text></g><!--link Gateway to CatCtrl--><g class="link" data-entity-1="ent0004" data-entity-2="ent0023" data-link-type="dependency" data-source-line="57" id="lnk43"><path d="M776.44,285.0869 C790.65,294.4369 807.31,303.5869 824,308.6869 C872.06,323.3769 1000.76,306.6469 1050,316.6869 C1080.33,322.8769 1088.58,325.5569 1115,341.6869 C1154.43,365.7769 1188.8765,399.0283 1211.5065,422.9483" fill="none" id="Gateway-to-CatCtrl" style="stroke:#181818;stroke-width:1;"/><polygon fill="#181818" points="1215.63,427.3069,1212.3505,418.0201,1212.1938,423.6748,1206.5391,423.5181,1215.63,427.3069" style="stroke:#181818;stroke-width:1;"/><text fill="#000000" font-family="sans-serif" font-size="13" lengthAdjust="spacing" textLength="154.978" x="1102.01" y="329.7538">GET /api/catalog/games</text></g><!--link LibCtrl to LibSvc--><g class="link" data-entity-1="ent0015" data-entity-2="ent0016" data-link-type="dependency" data-source-line="60" id="lnk44"><path d="M608.43,474.2469 C606.79,497.7169 604.6495,528.3816 602.9995,551.9216" fill="none" id="LibCtrl-to-LibSvc" style="stroke:#181818;stroke-width:1;"/><polygon fill="#181818" points="602.58,557.9069,607.1995,549.2086,602.9296,552.9191,599.2191,548.6492,602.58,557.9069" style="stroke:#181818;stroke-width:1;"/><text fill="#000000" font-family="sans-serif" font-size="13" lengthAdjust="spacing" textLength="109.0908" x="607.04" y="519.0538">Route la requ&#234;te</text></g><!--link LibSvc to LibReg--><g class="link" data-entity-1="ent0016" data-entity-2="ent0017" data-link-type="dependency" data-source-line="61" id="lnk45"><path d="M601.54,605.1269 C602.08,628.1869 602.7764,657.7086 603.3264,680.6886" fill="none" id="LibSvc-to-LibReg" style="stroke:#181818;stroke-width:1;"/><polygon fill="#181818" points="603.47,686.6869,607.2535,677.5937,603.3504,681.6883,599.2558,677.7852,603.47,686.6869" style="stroke:#181818;stroke-width:1;"/><text fill="#000000" font-family="sans-serif" font-size="13" lengthAdjust="spacing" textLength="98.395" x="603.68" y="653.0538">Logique m&#233;tier</text></g><!--link LibReg to Postgres--><g class="link" data-entity-1="ent0017" data-entity-2="ent0027" data-link-type="dependency" data-source-line="62" id="lnk46"><path d="M603.21,733.7269 C603.63,754.5269 607.23,785.2669 623,806.2869 C646.13,837.1269 677.659,855.8695 711.199,869.6295" fill="none" id="LibReg-to-Postgres" style="stroke:#181818;stroke-width:1;"/><polygon fill="#181818" points="716.75,871.9069,709.9417,864.7902,712.1242,870.0091,706.9053,872.1915,716.75,871.9069" style="stroke:#181818;stroke-width:1;"/><text fill="#000000" font-family="sans-serif" font-size="13" lengthAdjust="spacing" textLength="155.9302" x="624" y="802.3538">Requ&#234;te SQL et jointure</text></g><!--link ComCtrl to ComSvc--><g class="link" data-entity-1="ent0019" data-entity-2="ent0020" data-link-type="dependency" data-source-line="65" id="lnk47"><path d="M863.43,474.2469 C861.79,497.7169 859.6495,528.3816 857.9995,551.9216" fill="none" id="ComCtrl-to-ComSvc" style="stroke:#181818;stroke-width:1;"/><polygon fill="#181818" points="857.58,557.9069,862.1995,549.2086,857.9296,552.9191,854.2191,548.6492,857.58,557.9069" style="stroke:#181818;stroke-width:1;"/><text fill="#000000" font-family="sans-serif" font-size="13" lengthAdjust="spacing" textLength="109.0908" x="862.04" y="519.0538">Route la requ&#234;te</text></g><!--link ComSvc to ComSvc--><g class="link" data-entity-1="ent0020" data-entity-2="ent0020" data-link-type="dependency" data-source-line="66" id="lnk48"><path d="M936.46,569.1069 C956.34,569.9969 971.17,574.1269 971.17,581.4869 C971.17,588.8469 962.334,592.7085 942.454,593.5985" fill="none" id="ComSvc-to-ComSvc" style="stroke:#181818;stroke-width:1;"/><polygon fill="#181818" points="936.46,593.8669,945.6299,597.4604,941.455,593.6433,945.2721,589.4684,936.46,593.8669" style="stroke:#181818;stroke-width:1;"/><text fill="#000000" font-family="sans-serif" font-size="13" lengthAdjust="spacing" textLength="88.1182" x="999.8407" y="571.0538">R&#232;gle m&#233;tier:</text><text fill="#000000" font-family="sans-serif" font-size="13" lengthAdjust="spacing" textLength="133.4595" x="977.17" y="586.1866">V&#233;rifie si l'utilisateur</text><text fill="#000000" font-family="sans-serif" font-size="13" lengthAdjust="spacing" textLength="93.7231" x="997.0382" y="601.3194">poss&#232;de le jeu</text></g><!--link ComSvc to ComReg--><g class="link" data-entity-1="ent0020" data-entity-2="ent0021" data-link-type="dependency" data-source-line="67" id="lnk49"><path d="M856.54,605.1269 C857.08,628.1869 857.7764,657.7086 858.3264,680.6886" fill="none" id="ComSvc-to-ComReg" style="stroke:#181818;stroke-width:1;"/><polygon fill="#181818" points="858.47,686.6869,862.2535,677.5937,858.3504,681.6883,854.2558,677.7852,858.47,686.6869" style="stroke:#181818;stroke-width:1;"/><text fill="#000000" font-family="sans-serif" font-size="13" lengthAdjust="spacing" textLength="88.0928" x="858.68" y="653.0538">Validation OK</text></g><!--link ComReg to Mongo--><g class="link" data-entity-1="ent0021" data-entity-2="ent0031" data-link-type="dependency" data-source-line="68" id="lnk50"><path d="M932.63,733.6369 C962.09,745.9069 994.15,763.9069 1016,789.2869 C1036.28,812.8369 1043.6608,842.7473 1046.9708,865.8973" fill="none" id="ComReg-to-Mongo" style="stroke:#181818;stroke-width:1;"/><polygon fill="#181818" points="1047.82,871.8369,1050.5059,862.3613,1047.1123,866.8872,1042.5864,863.4936,1047.82,871.8369" style="stroke:#181818;stroke-width:1;"/><text fill="#000000" font-family="sans-serif" font-size="13" lengthAdjust="spacing" textLength="123.4556" x="1027.29" y="802.3538">INSERT (New Com)</text></g><!--link ComReg to Postgres--><g class="link" data-entity-1="ent0021" data-entity-2="ent0027" data-link-type="dependency" data-source-line="69" id="lnk51"><path d="M832.61,733.5669 C817.93,747.8269 801.03,767.6369 793,789.2869 C782.96,816.3269 784.1192,844.0919 787.0992,865.9419" fill="none" id="ComReg-to-Postgres" style="stroke:#181818;stroke-width:1;"/><polygon fill="#181818" points="787.91,871.8869,790.6571,862.4289,787.2343,866.9327,782.7305,863.51,787.91,871.8869" style="stroke:#181818;stroke-width:1;"/><text fill="#000000" font-family="sans-serif" font-size="13" lengthAdjust="spacing" textLength="217.1914" x="794" y="802.3538">(Read) V&#233;rification de possession</text></g><!--link CatCtrl to CatSvc--><g class="link" data-entity-1="ent0023" data-entity-2="ent0024" data-link-type="dependency" data-source-line="72" id="lnk52"><path d="M1234.61,474.2469 C1233.15,497.7169 1231.244,528.3785 1229.774,551.9185" fill="none" id="CatCtrl-to-CatSvc" style="stroke:#181818;stroke-width:1;"/><polygon fill="#181818" points="1229.4,557.9069,1233.9532,549.1737,1229.7116,552.9166,1225.9687,548.6751,1229.4,557.9069" style="stroke:#181818;stroke-width:1;"/><text fill="#000000" font-family="sans-serif" font-size="13" lengthAdjust="spacing" textLength="109.0908" x="1233.48" y="519.0538">Route la requ&#234;te</text></g><!--link CatSvc to CatReg--><g class="link" data-entity-1="ent0024" data-entity-2="ent0025" data-link-type="dependency" data-source-line="73" id="lnk53"><path d="M1229.43,605.1269 C1230.89,628.1869 1232.7522,657.7188 1234.2022,680.6988" fill="none" id="CatSvc-to-CatReg" style="stroke:#181818;stroke-width:1;"/><polygon fill="#181818" points="1234.58,686.6869,1238.0053,677.4528,1234.2651,681.6968,1230.0212,677.9566,1234.58,686.6869" style="stroke:#181818;stroke-width:1;"/><text fill="#000000" font-family="sans-serif" font-size="13" lengthAdjust="spacing" textLength="98.395" x="1233.48" y="653.0538">Logique m&#233;tier</text></g><!--link CatReg to Redis--><g class="link" data-entity-1="ent0025" data-entity-2="ent0035" data-link-type="dependency" data-source-line="74" id="lnk54"><path d="M1238.94,733.6069 C1243.56,768.8869 1251.6811,830.8977 1256.2911,866.1077" fill="none" id="CatReg-to-Redis" style="stroke:#181818;stroke-width:1;"/><polygon fill="#181818" points="1257.07,872.0569,1259.8678,862.6138,1256.4209,867.0992,1251.9355,863.6523,1257.07,872.0569" style="stroke:#181818;stroke-width:1;"/><text fill="#000000" font-family="sans-serif" font-size="13" lengthAdjust="spacing" textLength="43.3926" x="1249" y="802.3538">(Read)</text></g><?plantuml-src XLNBRYf74DtFLvJ8mY3XYvIb5v5im0uEneI7eyZSHJDJ36ttT7FxOGTT-NzCVcD-BDKpFMR63yKB35MdgqvNdQesZrpkc6OPn2hRAOdIpkrU8BXC_1gPD--EnOyinTAdCRPCfWAZo79BXdCTRxabgzC8W_nW6HSYFo2SmbGmYnkbCuIxy-bmEOiY5bkbeRMqN713NgUXtHUSKdTQm0mi3UeeaYf1Q4qLbnQI4t9g7z3aXzXfJlzQyCkOfrlxDmgXdk5d1FHtVpuTmHN5V6RxbHmhbi054qp6gB_xqC5LOAMoT1KV0jIcyi0Pp9IpT5L8qD1DVxZyNujc9T724nCyOPOhMJWNwX6bWUk_5j5B50e4hKkjf4MPmFtWWOgae0SBp7Q-332KAPVulQBUtpDP4H_H8RrXCKAZBijHfo2-77t2UJaYkXFsnDEIr0rBcU6okv8NV2suijlyzOV3Baorsd11B8yqB-XBmNAwjriwsuDBPYoLxutTbKQiw1KV6oKIfCRTgCHHqnive3tcQytqdbfO7Ybk5OnzAebMGeGkaBLljVW0cwD-uZ5McFbJ_04omvGRg_SLXduNc9SlQVPLbZd9dCqF93FwGL9YNADfCWsUTqp9scGQO7McP6em3P06KxBzFzFGlYOjPfbGwNjQpBwZLS8Qj9XjqYeXJLhC7ccHEaZSRCqCoQElNBprCm1Jr8PE-1agL3zGKj8a6fB93TdtCqNu8EAfCZRLEFzp3EqPYaAL4aKfuU0qHo6lbRKgyqgkVAJd1LiBD6VrCUZ2DRekp5qSvw_csqhIiEI7L7FVKy-9nLjcpRTZPUzl58tUu0BQ4qLiIWA5xRFiXODI3rJiVEieUrqeD4y3Rc9d35t7T66iKifLvfbXmWtfYXXWcQMmV9QbX59eZuMTel6cYuB1CYxGWY4Hn6MR7Ff-dC3fwIaKgu6MPe4YGnJv3KdVVgjlhMfJmU-BnRGt6yuNqBwUtquwFaorqshhCQhE-ZYqIHg_muHItAlX0dfintkESffUXZrHJc837-Q4yDFRUJYGiWnDxoTFNdfnMKtJF5EAk9uZNBuywdbV2lSFS7z_YMVDZHDL70DV4djOtWY2lMtkABW2YkHEAEeWzqihewUAqsCJ71vJKs9LKl1wfkuy-BU8NhYFn6ex9gfA4Sho5QtWQgBoLtfKArPdAtcN7pJVS7hsE8WJTvo8bTmfO_9Ncaywy83kNRpocdV7z-hsZoYOFQ8I_6Wo7yv89nDyzgSwTKoj43JBBEb0O1DNBo1u3gLwFvOaBBEewdBe-9VbA5q1zNcNWiDZgbagcVq7?></g></svg>