<?plantuml 1.2026.2?><svg xmlns="http://www.w3.org/2000/svg" xmlns:xlink="http://www.w3.org/1999/xlink" contentStyleType="text/css" data-diagram-type="DESCRIPTION" height="458px" preserveAspectRatio="none" style="width:856px;height:458px;background:#FFFFFF;" version="1.1" viewBox="0 0 856 458" width="856px" zoomAndPan="magnify"><title>C4 Niveau 1 - Diagramme de Contexte : Syst&#232;me VAPEUR</title><defs/><g><g class="title" data-source-line="13"><text fill="#000000" font-family="sans-serif" font-size="14" font-weight="bold" lengthAdjust="spacing" textLength="452.7305" x="194.8552" y="22.9951">C4 Niveau 1 - Diagramme de Contexte : Syst&#232;me VAPEUR</text></g><!--cluster VapeurSystem--><g class="cluster" data-qualified-name="VapeurSystem" data-source-line="18" id="ent0004"><rect fill="#E0FFFF" height="138.4" rx="7.5" ry="7.5" style="stroke:#4169E1;stroke-width:1;" width="389" x="15.1" y="190.0969"/><text fill="#000000" font-family="sans-serif" font-size="14" font-weight="bold" lengthAdjust="spacing" textLength="136.3291" x="141.4354" y="205.092">Syst&#232;me VAPEUR</text><text fill="#000000" font-family="sans-serif" font-size="14" font-weight="bold" lengthAdjust="spacing" textLength="146.2344" x="136.4828" y="221.3889">[Syst&#232;me Logiciel]</text></g><g class="entity" data-qualified-name="VapeurSystem.N1" data-source-line="19" id="ent0005"><path d="M39.49,249.0969 L39.49,304.4953 L360.7088,304.4953 L360.7088,259.0969 L350.7088,249.0969 L39.49,249.0969" fill="#FEFFDD" style="stroke:#181818;stroke-width:0.5;"/><path d="M350.7088,249.0969 L350.7088,259.0969 L360.7088,259.0969 L350.7088,249.0969" fill="#FEFFDD" style="stroke:#181818;stroke-width:1;"/><text fill="#000000" font-family="sans-serif" font-size="13" lengthAdjust="spacing" textLength="286.5396" x="45.49" y="266.1638">Plateforme e-commerce permettant l'achat,</text><text fill="#000000" font-family="sans-serif" font-size="13" lengthAdjust="spacing" textLength="300.2188" x="45.49" y="281.2966">la gestion et le t&#233;l&#233;chargement de jeux vid&#233;o,</text><text fill="#000000" font-family="sans-serif" font-size="13" lengthAdjust="spacing" textLength="280.7188" x="45.49" y="296.4294">ainsi que les interactions communautaires.</text></g><!--entity User--><g class="entity" data-qualified-name="User" data-source-line="15" id="ent0002"><ellipse cx="297.1048" cy="51.2969" fill="#FFE4B5" rx="8" ry="8" style="stroke:#D2691E;stroke-width:0.5;"/><path d="M297.1048,59.2969 L297.1048,86.2969 M284.1048,67.2969 L310.1048,67.2969 M297.1048,86.2969 L284.1048,101.2969 M297.1048,86.2969 L310.1048,101.2969" fill="none" style="stroke:#D2691E;stroke-width:0.5;"/><text fill="#000000" font-family="sans-serif" font-size="14" lengthAdjust="spacing" textLength="44.8096" x="274.7" y="115.792">Joueur</text></g><!--entity Admin--><g class="entity" data-qualified-name="Admin" data-source-line="16" id="ent0003"><ellipse cx="495.1018" cy="51.2969" fill="#FFE4B5" rx="8" ry="8" style="stroke:#D2691E;stroke-width:0.5;"/><path d="M495.1018,59.2969 L495.1018,86.2969 M482.1018,67.2969 L508.1018,67.2969 M495.1018,86.2969 L482.1018,101.2969 M495.1018,86.2969 L508.1018,101.2969" fill="none" style="stroke:#D2691E;stroke-width:0.5;"/><text fill="#000000" font-family="sans-serif" font-size="14" lengthAdjust="spacing" textLength="104.6035" x="442.8" y="115.792">Administrateur</text></g><!--entity PaymentSystem--><g class="entity" data-qualified-name="PaymentSystem" data-source-line="22" id="ent0006"><rect fill="#D3D3D3" height="52.5938" rx="7.5" ry="7.5" style="stroke:#4169E1;stroke-width:0.5;" width="232.208" x="7" y="399.4969"/><text fill="#000000" font-family="sans-serif" font-size="14" lengthAdjust="spacing" textLength="153.3574" x="17" y="422.492">Syst&#232;me de Paiement</text><text fill="#000000" font-family="sans-serif" font-size="14" lengthAdjust="spacing" textLength="212.208" x="17" y="438.7889">[Syst&#232;me Externe - ex: Stripe]</text></g><!--entity OAuthSystem--><g class="entity" data-qualified-name="OAuthSystem" data-source-line="23" id="ent0007"><rect fill="#D3D3D3" height="52.5938" rx="7.5" ry="7.5" style="stroke:#4169E1;stroke-width:0.5;" width="243.4258" x="274.39" y="399.4969"/><text fill="#000000" font-family="sans-serif" font-size="14" lengthAdjust="spacing" textLength="153.0088" x="284.39" y="422.492">Fournisseur d'Identit&#233;</text><text fill="#000000" font-family="sans-serif" font-size="14" lengthAdjust="spacing" textLength="223.4258" x="284.39" y="438.7889">[Syst&#232;me Externe - ex: OAuth2]</text></g><!--entity CDNSystem--><g class="entity" data-qualified-name="CDNSystem" data-source-line="24" id="ent0008"><rect fill="#D3D3D3" height="52.5938" rx="7.5" ry="7.5" style="stroke:#4169E1;stroke-width:0.5;" width="184.6436" x="554.78" y="399.4969"/><text fill="#000000" font-family="sans-serif" font-size="14" lengthAdjust="spacing" textLength="164.6436" x="564.78" y="422.492">CDN (Content Delivery)</text><text fill="#000000" font-family="sans-serif" font-size="14" lengthAdjust="spacing" textLength="130.6689" x="564.78" y="438.7889">[Syst&#232;me Externe]</text></g><!--link User to VapeurSystem--><g class="link" data-entity-1="ent0002" data-entity-2="ent0004" data-link-type="dependency" data-source-line="26" id="lnk9"><path d="M285.01,119.5069 C282.27,135.7269 282.9,153.7569 294.1,166.0969 C306.56,179.8069 363.43,161.5869 377.1,174.0969 C381.2738,177.9156 384.708,182.3344 387.5215,187.1477 C387.8732,187.7493 388.2151,188.3571 388.5477,188.9707 C388.7139,189.2775 386.1022,184.2663 386.2638,184.576" fill="none" id="User-to-VapeurSystem" style="stroke:#181818;stroke-width:1;"/><polygon fill="#181818" points="389.0394,189.8954,388.4223,180.0659,386.7264,185.4625,381.3297,183.7666,389.0394,189.8954" style="stroke:#181818;stroke-width:1;"/><text fill="#000000" font-family="sans-serif" font-size="13" lengthAdjust="spacing" textLength="156.8062" x="295.1" y="162.1638">Parcourt, ach&#232;te et joue</text></g><!--link Admin to VapeurSystem--><g class="link" data-entity-1="ent0003" data-entity-2="ent0004" data-link-type="dependency" data-source-line="27" id="lnk10"><path d="M478.35,119.4869 C471.64,134.1269 463.72,150.9969 456.1,166.0969 C443.78,190.5169 429.0525,217.4719 417.2725,238.5506 C414.3275,243.8203 411.5667,248.7227 409.0738,253.1265 C407.8274,255.3283 406.6479,257.4055 405.5459,259.3416 C405.2704,259.8256 404.9997,260.3008 404.734,260.767 C404.6012,261 404.4696,261.2308 404.3393,261.4593 C404.2741,261.5736 407.1824,256.4757 407.1179,256.5888" fill="none" id="Admin-to-VapeurSystem" style="stroke:#181818;stroke-width:1;"/><polygon fill="#181818" points="404.1448,261.8003,412.0789,255.9651,406.6224,257.4574,405.1301,252.0009,404.1448,261.8003" style="stroke:#181818;stroke-width:1;"/><text fill="#000000" font-family="sans-serif" font-size="13" lengthAdjust="spacing" textLength="187.0908" x="464.95" y="162.1638">G&#232;re le catalogue et mod&#232;re</text></g><!--link VapeurSystem to PaymentSystem--><g class="link" data-entity-1="ent0004" data-entity-2="ent0006" data-link-type="dependency" data-source-line="29" id="lnk11"><path d="M389.1666,328.6282 C389.0684,328.8396 388.969,329.0503 388.8683,329.2603 C388.4655,330.1003 388.0425,330.9289 387.5982,331.7439 C386.7097,333.374 385.7362,334.95 384.6701,336.4549 C382.5378,339.4648 380.035,342.1906 377.1,344.4969 C359.09,358.6469 191.07,341.2769 171.1,352.4969 C153.1,362.5969 143.1727,377.167 135.4627,393.567" fill="none" id="VapeurSystem-to-PaymentSystem" style="stroke:#181818;stroke-width:1;"/><polygon fill="#181818" points="132.91,398.9969,140.359,392.5539,135.0373,394.472,133.1191,389.1502,132.91,398.9969" style="stroke:#181818;stroke-width:1;"/><text fill="#000000" font-family="sans-serif" font-size="13" lengthAdjust="spacing" textLength="212.2466" x="172.1" y="365.5638">Traite les transactions bancaires</text></g><!--link VapeurSystem to OAuthSystem--><g class="link" data-entity-1="ent0004" data-entity-2="ent0007" data-link-type="dependency" data-source-line="30" id="lnk12"><path d="M393.3561,328.5715 C393.3463,328.8811 393.3365,329.1913 393.327,329.5021 C393.3078,330.1236 393.2891,330.7472 393.271,331.3727 C393.1986,333.8748 393.1349,336.4073 393.082,338.9569 C392.8706,349.155 392.8325,359.6244 393.1,369.4969 C393.36,379.1969 393.5501,383.8665 394.0801,393.2065" fill="none" id="VapeurSystem-to-OAuthSystem" style="stroke:#181818;stroke-width:1;"/><polygon fill="#181818" points="394.42,399.1969,397.9037,389.9847,394.1367,394.2049,389.9165,390.4379,394.42,399.1969" style="stroke:#181818;stroke-width:1;"/><text fill="#000000" font-family="sans-serif" font-size="13" lengthAdjust="spacing" textLength="209.4473" x="394.1" y="365.5638">D&#233;l&#232;gue l'authentification tierce</text></g><!--link VapeurSystem to CDNSystem--><g class="link" data-entity-1="ent0004" data-entity-2="ent0008" data-link-type="dependency" data-source-line="31" id="lnk13"><path d="M404.2311,278.5629 C404.5051,278.5924 404.7854,278.6229 405.072,278.6544 C405.6453,278.7174 406.2435,278.7843 406.8661,278.8554 C408.1113,278.9976 409.4538,279.1562 410.8878,279.3327 C413.756,279.6858 416.9905,280.1101 420.5456,280.6164 C434.7663,282.6416 454.1175,285.9775 475.675,291.3006 C518.79,301.9469 570.73,320.5419 608.1,352.4969 C622.52,364.8169 630.2287,378.2953 636.4787,393.7353" fill="none" id="VapeurSystem-to-CDNSystem" style="stroke:#181818;stroke-width:1;"/><polygon fill="#181818" points="638.73,399.2969,639.0608,389.4536,636.8539,394.6622,631.6453,392.4553,638.73,399.2969" style="stroke:#181818;stroke-width:1;"/><text fill="#000000" font-family="sans-serif" font-size="13" lengthAdjust="spacing" textLength="224.6309" x="623.81" y="365.5638">R&#233;cup&#232;re les fichiers de jeu lourds</text></g><?plantuml-src VLBBRXf14BpFLtJ8mOba8c4b5mwHC12KY104jYzn3ftPPXapEqFcONbbvN_WE_R7qhEBRGWaSnhrexghkbvbj526O3RiN_Kce_4Gf4RlXLyfiqQ71JYI0Ksk2Hu5yBj4kSgTZIRhMsqTZ5M-3FDLUQaZDGNMPUIQvCoMg9ypiwRB6NBG-I1-xqr16RZyz8IlLahqoXoXzvTMMes13g2aBTRMa0dpKFBMiT0NGWGL-Dz_3nDrJnYX0sqOACoveI38E6LDe8T0q8LvwKEruV1DRpgydWdHBDVwOYD5rmBqSEt9FOLxMQ6Cyi7n8hjq7HBYHRhMNvYtvljpP6np9HNf7tNh3QuP9IMfWDUrkFqIpKuQOtd3rZHnNbZ7pTHckWKvIR0c3WGU642VeLnYEByr6Y4d7vGrG1md2DLMLrlEkfmA5YbnlwFu0FSggxQMMr0Ph-1N92xte5WMnqmPmITfYsWm1bIE_BjwuKc7rJz9bP6dgEef-to7h39RW0z03onsS6fD3VSfbgduWFp8ORcF_ib6nsfx5WcoiyyProlczEy1ttenB2-Q0VN_l_3zmGJUr5vWQGQasIskV7i2lG7aycCuaTm1xVR7msDscP-Jl7uuPxilgmsVaczonwuIjM5EjOogZKk708a1jSrZtLFOBCM5EAXExOSITk7AeGhD9TcWnZzTyYSQMH_n669Vf2uCabysQIwRYXD9xuNYRPAbWahEEuPuaQKBCtPRNEzeUE3U9NVvdUz0io2P_mC0?></g></svg>