<?plantuml 1.2026.2?><svg xmlns="http://www.w3.org/2000/svg" xmlns:xlink="http://www.w3.org/1999/xlink" contentStyleType="text/css" data-diagram-type="DESCRIPTION" height="579px" preserveAspectRatio="none" style="width:1543px;height:579px;background:#FFFFFF;" version="1.1" viewBox="0 0 1543 579" width="1543px" zoomAndPan="magnify"><title>C4 Niveau 2 - Diagramme de Conteneurs : Syst&#232;me VAPEUR</title><defs/><g><g class="title" data-source-line="4"><text fill="#000000" font-family="sans-serif" font-size="14" font-weight="bold" lengthAdjust="spacing" textLength="472.1787" x="528.665" y="22.9951">C4 Niveau 2 - Diagramme de Conteneurs : Syst&#232;me VAPEUR</text></g><!--cluster Syst?me VAPEUR--><g class="cluster" data-qualified-name="Syst.me VAPEUR" data-source-line="11" id="ent0005"><rect fill="#F5F5F5" height="391.78" rx="2.5" ry="2.5" style="stroke:#181818;stroke-width:1;" width="1133" x="7" y="182.0969"/><text fill="#000000" font-family="sans-serif" font-size="14" font-weight="bold" lengthAdjust="spacing" textLength="136.3291" x="505.3354" y="197.092">Syst&#232;me VAPEUR</text></g><!--entity Gateway--><g class="entity" data-qualified-name="Syst.me VAPEUR.Gateway" data-source-line="13" id="ent0006"><rect fill="#FFFFE0" height="62.5938" rx="2.5" ry="2.5" style="stroke:#181818;stroke-width:0.5;" width="231.5225" x="451.24" y="217.0969"/><rect fill="#FFFFE0" height="10" style="stroke:#181818;stroke-width:0.5;" width="15" x="662.7625" y="222.0969"/><rect fill="#FFFFE0" height="2" style="stroke:#181818;stroke-width:0.5;" width="4" x="660.7625" y="224.0969"/><rect fill="#FFFFE0" height="2" style="stroke:#181818;stroke-width:0.5;" width="4" x="660.7625" y="228.0969"/><text fill="#000000" font-family="sans-serif" font-size="14" lengthAdjust="spacing" textLength="88.4434" x="466.24" y="250.092">API Gateway</text><text fill="#000000" font-family="sans-serif" font-size="14" lengthAdjust="spacing" textLength="191.5225" x="466.24" y="266.3889">[Conteneur : Nginx/Traefik]</text></g><!--entity WebApp--><g class="entity" data-qualified-name="Syst.me VAPEUR.WebApp" data-source-line="15" id="ent0007"><rect fill="#E0FFFF" height="62.5938" rx="2.5" ry="2.5" style="stroke:#181818;stroke-width:0.5;" width="240.1221" x="22.94" y="356.6869"/><rect fill="#E0FFFF" height="10" style="stroke:#181818;stroke-width:0.5;" width="15" x="243.0621" y="361.6869"/><rect fill="#E0FFFF" height="2" style="stroke:#181818;stroke-width:0.5;" width="4" x="241.0621" y="363.6869"/><rect fill="#E0FFFF" height="2" style="stroke:#181818;stroke-width:0.5;" width="4" x="241.0621" y="367.6869"/><text fill="#000000" font-family="sans-serif" font-size="14" lengthAdjust="spacing" textLength="114.0166" x="37.94" y="389.682">Application Web</text><text fill="#000000" font-family="sans-serif" font-size="14" lengthAdjust="spacing" textLength="200.1221" x="37.94" y="405.9789">[Conteneur : Django / HTML]</text></g><!--entity CatAuthSvc--><g class="entity" data-qualified-name="Syst.me VAPEUR.CatAuthSvc" data-source-line="16" id="ent0008"><rect fill="#90EE90" height="62.5938" rx="2.5" ry="2.5" style="stroke:#181818;stroke-width:0.5;" width="251.6816" x="872.16" y="356.6869"/><rect fill="#90EE90" height="10" style="stroke:#181818;stroke-width:0.5;" width="15" x="1103.8416" y="361.6869"/><rect fill="#90EE90" height="2" style="stroke:#181818;stroke-width:0.5;" width="4" x="1101.8416" y="363.6869"/><rect fill="#90EE90" height="2" style="stroke:#181818;stroke-width:0.5;" width="4" x="1101.8416" y="367.6869"/><text fill="#000000" font-family="sans-serif" font-size="14" lengthAdjust="spacing" textLength="167.002" x="887.16" y="389.682">Service Magasin &amp; Auth</text><text fill="#000000" font-family="sans-serif" font-size="14" lengthAdjust="spacing" textLength="211.6816" x="887.16" y="405.9789">[Conteneur : Python / FastAPI]</text></g><!--entity LibSvc--><g class="entity" data-qualified-name="Syst.me VAPEUR.LibSvc" data-source-line="17" id="ent0009"><rect fill="#90EE90" height="62.5938" rx="2.5" ry="2.5" style="stroke:#181818;stroke-width:0.5;" width="251.6816" x="585.16" y="356.6869"/><rect fill="#90EE90" height="10" style="stroke:#181818;stroke-width:0.5;" width="15" x="816.8416" y="361.6869"/><rect fill="#90EE90" height="2" style="stroke:#181818;stroke-width:0.5;" width="4" x="814.8416" y="363.6869"/><rect fill="#90EE90" height="2" style="stroke:#181818;stroke-width:0.5;" width="4" x="814.8416" y="367.6869"/><text fill="#000000" font-family="sans-serif" font-size="14" lengthAdjust="spacing" textLength="144.2656" x="600.16" y="389.682">Service Biblioth&#232;que</text><text fill="#000000" font-family="sans-serif" font-size="14" lengthAdjust="spacing" textLength="211.6816" x="600.16" y="405.9789">[Conteneur : Python / FastAPI]</text></g><!--entity ComSvc--><g class="entity" data-qualified-name="Syst.me VAPEUR.ComSvc" data-source-line="18" id="ent0010"><rect fill="#90EE90" height="62.5938" rx="2.5" ry="2.5" style="stroke:#181818;stroke-width:0.5;" width="251.6816" x="298.16" y="356.6869"/><rect fill="#90EE90" height="10" style="stroke:#181818;stroke-width:0.5;" width="15" x="529.8416" y="361.6869"/><rect fill="#90EE90" height="2" style="stroke:#181818;stroke-width:0.5;" width="4" x="527.8416" y="363.6869"/><rect fill="#90EE90" height="2" style="stroke:#181818;stroke-width:0.5;" width="4" x="527.8416" y="367.6869"/><text fill="#000000" font-family="sans-serif" font-size="14" lengthAdjust="spacing" textLength="151.1084" x="313.16" y="389.682">Service Communaut&#233;</text><text fill="#000000" font-family="sans-serif" font-size="14" lengthAdjust="spacing" textLength="211.6816" x="313.16" y="405.9789">[Conteneur : Python / FastAPI]</text></g><!--entity Postgres--><g class="entity" data-qualified-name="Syst.me VAPEUR.Postgres" data-source-line="20" id="ent0011"><path d="M420.64,506.2869 C420.64,496.2869 520.0028,496.2869 520.0028,496.2869 C520.0028,496.2869 619.3656,496.2869 619.3656,506.2869 L619.3656,547.8806 C619.3656,557.8806 520.0028,557.8806 520.0028,557.8806 C520.0028,557.8806 420.64,557.8806 420.64,547.8806 L420.64,506.2869" fill="#FFE4E1" style="stroke:#181818;stroke-width:0.5;"/><path d="M420.64,506.2869 C420.64,516.2869 520.0028,516.2869 520.0028,516.2869 C520.0028,516.2869 619.3656,516.2869 619.3656,506.2869" fill="none" style="stroke:#181818;stroke-width:0.5;"/><text fill="#000000" font-family="sans-serif" font-size="14" lengthAdjust="spacing" textLength="93.3516" x="430.64" y="533.282">DB Principale</text><text fill="#000000" font-family="sans-serif" font-size="14" lengthAdjust="spacing" textLength="178.7256" x="430.64" y="549.5789">[Conteneur : PostgreSQL]</text></g><!--entity Mongo--><g class="entity" data-qualified-name="Syst.me VAPEUR.Mongo" data-source-line="21" id="ent0012"><path d="M23.34,506.2869 C23.34,496.2869 116.0036,496.2869 116.0036,496.2869 C116.0036,496.2869 208.6671,496.2869 208.6671,506.2869 L208.6671,547.8806 C208.6671,557.8806 116.0036,557.8806 116.0036,557.8806 C116.0036,557.8806 23.34,557.8806 23.34,547.8806 L23.34,506.2869" fill="#FFE4E1" style="stroke:#181818;stroke-width:0.5;"/><path d="M23.34,506.2869 C23.34,516.2869 116.0036,516.2869 116.0036,516.2869 C116.0036,516.2869 208.6671,516.2869 208.6671,506.2869" fill="none" style="stroke:#181818;stroke-width:0.5;"/><text fill="#000000" font-family="sans-serif" font-size="14" lengthAdjust="spacing" textLength="89.6533" x="33.34" y="533.282">DB Textuelle</text><text fill="#000000" font-family="sans-serif" font-size="14" lengthAdjust="spacing" textLength="165.3271" x="33.34" y="549.5789">[Conteneur : MongoDB]</text></g><!--entity Redis--><g class="entity" data-qualified-name="Syst.me VAPEUR.Redis" data-source-line="22" id="ent0013"><path d="M869.81,506.2869 C869.81,496.2869 948.0019,496.2869 948.0019,496.2869 C948.0019,496.2869 1026.1938,496.2869 1026.1938,506.2869 L1026.1938,547.8806 C1026.1938,557.8806 948.0019,557.8806 948.0019,557.8806 C948.0019,557.8806 869.81,557.8806 869.81,547.8806 L869.81,506.2869" fill="#FFE4E1" style="stroke:#181818;stroke-width:0.5;"/><path d="M869.81,506.2869 C869.81,516.2869 948.0019,516.2869 948.0019,516.2869 C948.0019,516.2869 1026.1938,516.2869 1026.1938,506.2869" fill="none" style="stroke:#181818;stroke-width:0.5;"/><text fill="#000000" font-family="sans-serif" font-size="14" lengthAdjust="spacing" textLength="96.5713" x="879.81" y="533.282">Cache Rapide</text><text fill="#000000" font-family="sans-serif" font-size="14" lengthAdjust="spacing" textLength="136.3838" x="879.81" y="549.5789">[Conteneur : Redis]</text></g><!--entity User--><g class="entity" data-qualified-name="User" data-source-line="6" id="ent0002"><ellipse cx="567.0048" cy="51.2969" fill="#F1F1F1" rx="8" ry="8" style="stroke:#181818;stroke-width:0.5;"/><path d="M567.0048,59.2969 L567.0048,86.2969 M554.0048,67.2969 L580.0048,67.2969 M567.0048,86.2969 L554.0048,101.2969 M567.0048,86.2969 L580.0048,101.2969" fill="none" style="stroke:#181818;stroke-width:0.5;"/><text fill="#000000" font-family="sans-serif" font-size="14" lengthAdjust="spacing" textLength="44.8096" x="544.6" y="115.792">Joueur</text></g><!--entity PaymentSystem--><g class="entity" data-qualified-name="PaymentSystem" data-source-line="8" id="ent0003"><rect fill="#D3D3D3" height="36.2969" rx="2.5" ry="2.5" style="stroke:#181818;stroke-width:0.5;" width="173.3574" x="1156.32" y="508.9269"/><text fill="#000000" font-family="sans-serif" font-size="14" lengthAdjust="spacing" textLength="153.3574" x="1166.32" y="531.922">Syst&#232;me de Paiement</text></g><!--entity OAuthSystem--><g class="entity" data-qualified-name="OAuthSystem" data-source-line="9" id="ent0004"><rect fill="#D3D3D3" height="36.2969" rx="2.5" ry="2.5" style="stroke:#181818;stroke-width:0.5;" width="173.0088" x="1364.5" y="508.9269"/><text fill="#000000" font-family="sans-serif" font-size="14" lengthAdjust="spacing" textLength="153.0088" x="1374.5" y="531.922">Fournisseur d'Identit&#233;</text></g><!--link User to Gateway--><g class="link" data-entity-1="ent0002" data-entity-2="ent0006" data-link-type="dependency" data-source-line="26" id="lnk14"><path d="M567,119.4869 C567,148.8569 567,183.1769 567,210.6469" fill="none" id="User-to-Gateway" style="stroke:#181818;stroke-width:1;"/><polygon fill="#181818" points="567,216.6469,571,207.6469,567,211.6469,563,207.6469,567,216.6469" style="stroke:#181818;stroke-width:1;"/><text fill="#000000" font-family="sans-serif" font-size="13" lengthAdjust="spacing" textLength="190.2202" x="568" y="162.1638">Appels API directs (Mobile/JS)</text></g><!--link Gateway to CatAuthSvc--><g class="link" data-entity-1="ent0006" data-entity-2="ent0008" data-link-type="dependency" data-source-line="28" id="lnk15"><path d="M663.46,280.1869 C734.55,302.8769 825.1141,331.7923 896.1341,354.4623" fill="none" id="Gateway-to-CatAuthSvc" style="stroke:#181818;stroke-width:1;"/><polygon fill="#181818" points="901.85,356.2869,894.4926,349.7395,897.0868,354.7664,892.0599,357.3606,901.85,356.2869" style="stroke:#181818;stroke-width:1;"/><text fill="#000000" font-family="sans-serif" font-size="13" lengthAdjust="spacing" textLength="153.1182" x="809.3" y="322.7538">/api/auth &amp; /api/catalog</text></g><!--link Gateway to LibSvc--><g class="link" data-entity-1="ent0006" data-entity-2="ent0009" data-link-type="dependency" data-source-line="29" id="lnk16"><path d="M598.96,279.9269 C622.74,302.6469 650.7219,329.3919 674.5419,352.1519" fill="none" id="Gateway-to-LibSvc" style="stroke:#181818;stroke-width:1;"/><polygon fill="#181818" points="678.88,356.2969,675.1362,347.1873,675.2649,352.8427,669.6096,352.9714,678.88,356.2969" style="stroke:#181818;stroke-width:1;"/><text fill="#000000" font-family="sans-serif" font-size="13" lengthAdjust="spacing" textLength="70.4146" x="648.62" y="322.7538">/api/library</text></g><!--link Gateway to ComSvc--><g class="link" data-entity-1="ent0006" data-entity-2="ent0010" data-link-type="dependency" data-source-line="30" id="lnk17"><path d="M535.26,279.9269 C511.57,302.7269 483.6431,329.5963 459.9731,352.3763" fill="none" id="Gateway-to-ComSvc" style="stroke:#181818;stroke-width:1;"/><polygon fill="#181818" points="455.65,356.5369,464.9084,353.1781,459.2526,353.0697,459.361,347.4139,455.65,356.5369" style="stroke:#181818;stroke-width:1;"/><text fill="#000000" font-family="sans-serif" font-size="13" lengthAdjust="spacing" textLength="101.8989" x="505.06" y="322.7538">/api/community</text></g><!--link Gateway to WebApp--><g class="link" data-entity-1="ent0006" data-entity-2="ent0007" data-link-type="dependency" data-source-line="31" id="lnk18"><path d="M472.11,280.1869 C402.17,302.8769 313.157,331.7649 243.297,354.4349" fill="none" id="Gateway-to-WebApp" style="stroke:#181818;stroke-width:1;"/><polygon fill="#181818" points="237.59,356.2869,247.3852,357.3136,242.3459,354.7436,244.9159,349.7042,237.59,356.2869" style="stroke:#181818;stroke-width:1;"/><text fill="#000000" font-family="sans-serif" font-size="13" lengthAdjust="spacing" textLength="92.0093" x="381.39" y="322.7538">Visite (HTTPS)</text></g><!--link CatAuthSvc to Postgres--><g class="link" data-entity-1="ent0008" data-entity-2="ent0011" data-link-type="dependency" data-source-line="33" id="lnk19"><path d="M890.11,419.7769 C857.02,429.2369 820.51,439.6769 787,449.2869 C731.71,465.1369 675.7561,481.2278 625.6061,495.6578" fill="none" id="CatAuthSvc-to-Postgres" style="stroke:#181818;stroke-width:1;"/><polygon fill="#181818" points="619.84,497.3169,629.5952,498.6723,624.645,495.9343,627.383,490.9842,619.84,497.3169" style="stroke:#181818;stroke-width:1;"/><text fill="#000000" font-family="sans-serif" font-size="13" lengthAdjust="spacing" textLength="173.6909" x="788" y="462.3538">Lit/&#201;crit (Utilisateurs, Jeux)</text></g><!--link CatAuthSvc to Redis--><g class="link" data-entity-1="ent0008" data-entity-2="ent0013" data-link-type="dependency" data-source-line="34" id="lnk20"><path d="M986.78,419.7569 C978.49,442.4869 969.3053,467.6499 961.0653,490.2499" fill="none" id="CatAuthSvc-to-Redis" style="stroke:#181818;stroke-width:1;"/><polygon fill="#181818" points="959.01,495.8869,965.8509,488.8015,960.7227,491.1894,958.3349,486.0612,959.01,495.8869" style="stroke:#181818;stroke-width:1;"/><text fill="#000000" font-family="sans-serif" font-size="13" lengthAdjust="spacing" textLength="174.7446" x="976.99" y="462.3538">Lit/&#201;crit (Cache Catalogue)</text></g><!--link CatAuthSvc to OAuthSystem--><g class="link" data-entity-1="ent0008" data-entity-2="ent0004" data-link-type="dependency" data-source-line="35" id="lnk21"><path d="M1124.3,401.7569 C1185.67,410.6269 1259.67,425.3069 1323,449.2869 C1362.26,464.1469 1398.2117,487.4637 1422.9017,505.1437" fill="none" id="CatAuthSvc-to-OAuthSystem" style="stroke:#181818;stroke-width:1;"/><polygon fill="#181818" points="1427.78,508.6369,1422.7914,500.1449,1423.7148,505.7259,1418.1338,506.6492,1427.78,508.6369" style="stroke:#181818;stroke-width:1;"/><text fill="#000000" font-family="sans-serif" font-size="13" lengthAdjust="spacing" textLength="103.6191" x="1357.48" y="462.3538">Authentification</text></g><!--link CatAuthSvc to PaymentSystem--><g class="link" data-entity-1="ent0008" data-entity-2="ent0003" data-link-type="dependency" data-source-line="36" id="lnk22"><path d="M1099.39,419.7769 C1120.15,427.9669 1141.34,437.8069 1160,449.2869 C1186.75,465.7369 1208.4547,487.1865 1223.9947,504.2865" fill="none" id="CatAuthSvc-to-PaymentSystem" style="stroke:#181818;stroke-width:1;"/><polygon fill="#181818" points="1228.03,508.7269,1224.9373,499.3762,1224.6673,505.0266,1219.0169,504.7565,1228.03,508.7269" style="stroke:#181818;stroke-width:1;"/><text fill="#000000" font-family="sans-serif" font-size="13" lengthAdjust="spacing" textLength="130.749" x="1183.64" y="462.3538">Validation Paiement</text></g><!--link LibSvc to Postgres--><g class="link" data-entity-1="ent0009" data-entity-2="ent0011" data-link-type="dependency" data-source-line="38" id="lnk23"><path d="M584.71,415.8169 C553.63,425.0669 526.49,436.3969 517,449.2869 C507.27,462.4969 506.4505,474.8542 509.4005,490.2442" fill="none" id="LibSvc-to-Postgres" style="stroke:#181818;stroke-width:1;"/><polygon fill="#181818" points="510.53,496.1369,512.7642,486.5448,509.5887,491.2263,504.9072,488.0508,510.53,496.1369" style="stroke:#181818;stroke-width:1;"/><text fill="#000000" font-family="sans-serif" font-size="13" lengthAdjust="spacing" textLength="171.2979" x="518" y="462.3538">Lit (Biblioth&#232;ques Joueurs)</text></g><!--link ComSvc to Mongo--><g class="link" data-entity-1="ent0010" data-entity-2="ent0012" data-link-type="dependency" data-source-line="39" id="lnk24"><path d="M297.74,416.0669 C292.09,417.1769 286.49,418.2569 281,419.2869 C240.5,426.8869 124.68,417.8769 98,449.2869 C87.1,462.1169 88.401,474.8561 95.221,490.3361" fill="none" id="ComSvc-to-Mongo" style="stroke:#181818;stroke-width:1;"/><polygon fill="#181818" points="97.64,495.8269,97.6719,485.9781,95.6241,491.2513,90.3509,489.2035,97.64,495.8269" style="stroke:#181818;stroke-width:1;"/><text fill="#000000" font-family="sans-serif" font-size="13" lengthAdjust="spacing" textLength="190.7598" x="99" y="462.3538">Lit/&#201;crit (Commentaires/Avis)</text></g><!--link ComSvc to Postgres--><g class="link" data-entity-1="ent0010" data-entity-2="ent0011" data-link-type="dependency" data-source-line="40" id="lnk25"><path d="M325.09,419.6369 C302.87,431.7469 289.6,447.3469 304,466.2869 C318.78,485.7169 365.0991,499.2771 414.4791,509.2671" fill="none" id="ComSvc-to-Postgres" style="stroke:#181818;stroke-width:1;"/><polygon fill="#181818" points="420.36,510.4569,412.3319,504.7517,415.4593,509.4654,410.7455,512.5928,420.36,510.4569" style="stroke:#181818;stroke-width:1;"/><text fill="#000000" font-family="sans-serif" font-size="13" lengthAdjust="spacing" textLength="171.4756" x="305" y="462.3538">Lit (V&#233;rifie possession jeu)</text></g><?plantuml-src ZLJRJjj047tVhnW5gGrIaINKfpnK2acvYT0q2Q2gxSF47fmXjjVTNGSir0_edy1tvCSwlc0b3aZumLfxvvmvSxLBJb8q68ElurGdbBYfooE2B8uEbMrkK_IN659rPyXtc8GHAUNOoO_1PxZa5M46Xt00GyPGC35185SwSPHGPYpqO9fRjtwIY-l--ElLH2dqdJRGETUPM7G0BLnPCaer7g3JO8HiZ4onI2mjnvWNv-AUOjYxu73XJWpcc-1ZdPc4hHLs23wU1MBFRlrSuh_rCxVOHQiwr0tFbTeExDqisD4qrak2HmNobAycSz3fZy_W11tTO_uh-Td4Bg5VXfmyU3E3TClBtwM0sh1s_eEYID-_pfgc4VleM2TmG_CMy_1EWjNWmUbiT54nYv5WQk91ZacRSKfcnJx124EqdC07A9BH8XxdRY4UFJX6woIoYdk0hapSoc-oHlIcWoEUHwpTOltq9wDtyL_m_9tS0nt7MOAP5FHzodNy6dFv2j3X7ArKVNW4OyE9pob6EugrTQ6XwVSwp_MtXRqHMvTFjALTjXazk4oAsoORQIdRyAXYAZ_UfXcWlo2OOCf1csP20TkAf3nkalnLIXK31GS7Nvfswu7q1aKMYcODk9WM2zsHddD4tlbqNwaNomArKUuUU2B0auGlf67AipGbHZhSGjG5hAqZdXiq-JPdLOZQmY_Bo6xRfcxX7bopbQ63xkbiDYx4RGWgx9eIzCInyzR_VCCEkbUE8xR29uld4vnJzh3VHbRPsePLUHvKKMMqWzdS6RroPegDSbiFvuwshGqbeM34GJN6BvjCgJfTkx50TsjuB5HRqegeAdy5fEgRLX2IKA56AQtr-YlUHhITNA-VZKH0a6hPazOMwkues_yF?></g></svg>