<?plantuml 1.2026.2?><svg xmlns="http://www.w3.org/2000/svg" xmlns:xlink="http://www.w3.org/1999/xlink" contentStyleType="text/css" data-diagram-type="DESCRIPTION" height="671px" preserveAspectRatio="none" style="width:1258px;height:671px;background:#FFFFFF;" version="1.1" viewBox="0 0 1258 671" width="1258px" zoomAndPan="magnify"><title>C4 Niveau 3 - Diagramme de Composants : Service Communaut&#233; (FastAPI)</title><defs/><g><g class="title" data-source-line="4"><text fill="#000000" font-family="sans-serif" font-size="14" font-weight="bold" lengthAdjust="spacing" textLength="587.7197" x="328.1401" y="22.9951">C4 Niveau 3 - Diagramme de Composants : Service Communaut&#233; (FastAPI)</text></g><!--cluster Service Communaut? [Python / FastAPI]--><g class="cluster" data-qualified-name="Service Communaut. .Python . FastAPI." data-source-line="10" id="ent0005"><rect fill="#90EE90" height="392.78" rx="2.5" ry="2.5" style="stroke:#181818;stroke-width:1;" width="1245" x="7" y="153.5969"/><text fill="#000000" font-family="sans-serif" font-size="14" font-weight="bold" lengthAdjust="spacing" textLength="316.1826" x="471.4087" y="168.592">Service Communaut&#233; [Python / FastAPI]</text></g><!--entity ComCtrl--><g class="entity" data-qualified-name="Service Communaut. .Python . FastAPI..ComCtrl" data-source-line="12" id="ent0006"><rect fill="#FFFFFF" height="62.5938" rx="2.5" ry="2.5" style="stroke:#181818;stroke-width:0.5;" width="247.2451" x="322.38" y="188.5969"/><rect fill="#FFFFFF" height="10" style="stroke:#181818;stroke-width:0.5;" width="15" x="549.6251" y="193.5969"/><rect fill="#FFFFFF" height="2" style="stroke:#181818;stroke-width:0.5;" width="4" x="547.6251" y="195.5969"/><rect fill="#FFFFFF" height="2" style="stroke:#181818;stroke-width:0.5;" width="4" x="547.6251" y="199.5969"/><text fill="#000000" font-family="sans-serif" font-size="14" lengthAdjust="spacing" textLength="137.7646" x="337.38" y="221.592">CommentController</text><text fill="#000000" font-family="sans-serif" font-size="14" lengthAdjust="spacing" textLength="207.2451" x="337.38" y="237.8889">[Composant : Router FastAPI]</text></g><g class="entity" data-qualified-name="Service Communaut. .Python . FastAPI..GMN7" data-source-line="13" id="ent0008"><path d="M604.54,199.7669 L604.54,215.8969 L570.1,219.8969 L604.54,223.8969 L604.54,240.0325 A0,0 0 0 0 604.54,240.0325 L885.4511,240.0325 A0,0 0 0 0 885.4511,240.0325 L885.4511,209.7669 L875.4511,199.7669 L604.54,199.7669 A0,0 0 0 0 604.54,199.7669" fill="#FEFFDD" style="stroke:#181818;stroke-width:0.5;"/><path d="M875.4511,199.7669 L875.4511,209.7669 L885.4511,209.7669 L875.4511,199.7669" fill="#FEFFDD" style="stroke:#181818;stroke-width:0.5;"/><text fill="#000000" font-family="sans-serif" font-size="13" lengthAdjust="spacing" textLength="236.7866" x="610.54" y="216.8338">D&#233;finit les routes (POST /comments)</text><text fill="#000000" font-family="sans-serif" font-size="13" lengthAdjust="spacing" textLength="259.9111" x="610.54" y="231.9666">et valide le sch&#233;ma d'entr&#233;e (Pydantic).</text></g><!--entity ComSvc--><g class="entity" data-qualified-name="Service Communaut. .Python . FastAPI..ComSvc" data-source-line="15" id="ent0010"><rect fill="#FFFFFF" height="62.5938" rx="2.5" ry="2.5" style="stroke:#181818;stroke-width:0.5;" width="248.6123" x="321.69" y="328.1969"/><rect fill="#FFFFFF" height="10" style="stroke:#181818;stroke-width:0.5;" width="15" x="550.3023" y="333.1969"/><rect fill="#FFFFFF" height="2" style="stroke:#181818;stroke-width:0.5;" width="4" x="548.3023" y="335.1969"/><rect fill="#FFFFFF" height="2" style="stroke:#181818;stroke-width:0.5;" width="4" x="548.3023" y="339.1969"/><text fill="#000000" font-family="sans-serif" font-size="14" lengthAdjust="spacing" textLength="120.333" x="336.69" y="361.192">CommentService</text><text fill="#000000" font-family="sans-serif" font-size="14" lengthAdjust="spacing" textLength="208.6123" x="336.69" y="377.4889">[Composant : Logique M&#233;tier]</text></g><g class="entity" data-qualified-name="Service Communaut. .Python . FastAPI..GMN11" data-source-line="16" id="ent0012"><path d="M605.05,339.3569 L605.05,355.4869 L570.59,359.4869 L605.05,363.4869 L605.05,379.6225 A0,0 0 0 0 605.05,379.6225 L862.9445,379.6225 A0,0 0 0 0 862.9445,379.6225 L862.9445,349.3569 L852.9445,339.3569 L605.05,339.3569 A0,0 0 0 0 605.05,339.3569" fill="#FEFFDD" style="stroke:#181818;stroke-width:0.5;"/><path d="M852.9445,339.3569 L852.9445,349.3569 L862.9445,349.3569 L852.9445,339.3569" fill="#FEFFDD" style="stroke:#181818;stroke-width:0.5;"/><text fill="#000000" font-family="sans-serif" font-size="13" lengthAdjust="spacing" textLength="204.9341" x="611.05" y="356.4238">Applique les r&#232;gles de domaine</text><text fill="#000000" font-family="sans-serif" font-size="13" lengthAdjust="spacing" textLength="236.8945" x="611.05" y="371.5566">(ex: Mod&#233;ration, longueur du texte).</text></g><!--entity ComReg--><g class="entity" data-qualified-name="Service Communaut. .Python . FastAPI..ComReg" data-source-line="18" id="ent0014"><rect fill="#FFFFFF" height="62.5938" rx="2.5" ry="2.5" style="stroke:#181818;stroke-width:0.5;" width="348.0273" x="22.99" y="467.7869"/><rect fill="#FFFFFF" height="10" style="stroke:#181818;stroke-width:0.5;" width="15" x="351.0173" y="472.7869"/><rect fill="#FFFFFF" height="2" style="stroke:#181818;stroke-width:0.5;" width="4" x="349.0173" y="474.7869"/><rect fill="#FFFFFF" height="2" style="stroke:#181818;stroke-width:0.5;" width="4" x="349.0173" y="478.7869"/><text fill="#000000" font-family="sans-serif" font-size="14" lengthAdjust="spacing" textLength="126.5332" x="37.99" y="500.782">CommentRegistry</text><text fill="#000000" font-family="sans-serif" font-size="14" lengthAdjust="spacing" textLength="308.0273" x="37.99" y="517.0789">[Composant : Couche d'acc&#232;s aux donn&#233;es]</text></g><g class="entity" data-qualified-name="Service Communaut. .Python . FastAPI..GMN15" data-source-line="19" id="ent0016"><path d="M405.85,478.9469 L405.85,495.0869 L371.16,499.0869 L405.85,503.0869 L405.85,519.2125 A0,0 0 0 0 405.85,519.2125 L728.1479,519.2125 A0,0 0 0 0 728.1479,519.2125 L728.1479,488.9469 L718.1479,478.9469 L405.85,478.9469 A0,0 0 0 0 405.85,478.9469" fill="#FEFFDD" style="stroke:#181818;stroke-width:0.5;"/><path d="M718.1479,478.9469 L718.1479,488.9469 L728.1479,488.9469 L718.1479,478.9469" fill="#FEFFDD" style="stroke:#181818;stroke-width:0.5;"/><text fill="#000000" font-family="sans-serif" font-size="13" lengthAdjust="spacing" textLength="253.7349" x="411.85" y="496.0138">Traduit les entit&#233;s m&#233;tiers en requ&#234;tes</text><text fill="#000000" font-family="sans-serif" font-size="13" lengthAdjust="spacing" textLength="301.2979" x="411.85" y="511.1466">(SQLAlchemy pour PG, PyMongo pour Mongo).</text></g><!--entity OwnVal--><g class="entity" data-qualified-name="Service Communaut. .Python . FastAPI..OwnVal" data-source-line="21" id="ent0018"><rect fill="#FFFFFF" height="62.5938" rx="2.5" ry="2.5" style="stroke:#181818;stroke-width:0.5;" width="225.8691" x="763.07" y="467.7869"/><rect fill="#FFFFFF" height="10" style="stroke:#181818;stroke-width:0.5;" width="15" x="968.9391" y="472.7869"/><rect fill="#FFFFFF" height="2" style="stroke:#181818;stroke-width:0.5;" width="4" x="966.9391" y="474.7869"/><rect fill="#FFFFFF" height="2" style="stroke:#181818;stroke-width:0.5;" width="4" x="966.9391" y="478.7869"/><text fill="#000000" font-family="sans-serif" font-size="14" lengthAdjust="spacing" textLength="137.8672" x="778.07" y="500.782">OwnershipValidator</text><text fill="#000000" font-family="sans-serif" font-size="14" lengthAdjust="spacing" textLength="185.8691" x="778.07" y="517.0789">[Composant : V&#233;rificateur]</text></g><g class="entity" data-qualified-name="Service Communaut. .Python . FastAPI..GMN19" data-source-line="22" id="ent0020"><path d="M1023.82,478.9469 L1023.82,495.0869 L989.11,499.0869 L1023.82,503.0869 L1023.82,519.2125 A0,0 0 0 0 1023.82,519.2125 L1236.1701,519.2125 A0,0 0 0 0 1236.1701,519.2125 L1236.1701,488.9469 L1226.1701,478.9469 L1023.82,478.9469 A0,0 0 0 0 1023.82,478.9469" fill="#FEFFDD" style="stroke:#181818;stroke-width:0.5;"/><path d="M1226.1701,478.9469 L1226.1701,488.9469 L1236.1701,488.9469 L1226.1701,478.9469" fill="#FEFFDD" style="stroke:#181818;stroke-width:0.5;"/><text fill="#000000" font-family="sans-serif" font-size="13" lengthAdjust="spacing" textLength="185.0342" x="1029.82" y="496.0138">R&#232;gle critique : s'assure que</text><text fill="#000000" font-family="sans-serif" font-size="13" lengthAdjust="spacing" textLength="191.3501" x="1029.82" y="511.1466">le joueur poss&#232;de bien le jeu.</text></g><!--entity Gateway--><g class="entity" data-qualified-name="Gateway" data-source-line="6" id="ent0002"><rect fill="#FFFFE0" height="46.2969" rx="2.5" ry="2.5" style="stroke:#181818;stroke-width:0.5;" width="128.4434" x="381.78" y="44.2969"/><rect fill="#FFFFE0" height="10" style="stroke:#181818;stroke-width:0.5;" width="15" x="490.2234" y="49.2969"/><rect fill="#FFFFE0" height="2" style="stroke:#181818;stroke-width:0.5;" width="4" x="488.2234" y="51.2969"/><rect fill="#FFFFE0" height="2" style="stroke:#181818;stroke-width:0.5;" width="4" x="488.2234" y="55.2969"/><text fill="#000000" font-family="sans-serif" font-size="14" lengthAdjust="spacing" textLength="88.4434" x="396.78" y="77.292">API Gateway</text></g><!--entity Mongo--><g class="entity" data-qualified-name="Mongo" data-source-line="7" id="ent0003"><path d="M153.32,619.3769 C153.32,609.3769 196.9972,609.3769 196.9972,609.3769 C196.9972,609.3769 240.6745,609.3769 240.6745,619.3769 L240.6745,644.6738 C240.6745,654.6738 196.9972,654.6738 196.9972,654.6738 C196.9972,654.6738 153.32,654.6738 153.32,644.6738 L153.32,619.3769" fill="#FFE4E1" style="stroke:#181818;stroke-width:0.5;"/><path d="M153.32,619.3769 C153.32,629.3769 196.9972,629.3769 196.9972,629.3769 C196.9972,629.3769 240.6745,629.3769 240.6745,619.3769" fill="none" style="stroke:#181818;stroke-width:0.5;"/><text fill="#000000" font-family="sans-serif" font-size="14" lengthAdjust="spacing" textLength="67.3545" x="163.32" y="646.372">MongoDB</text></g><!--entity Postgres--><g class="entity" data-qualified-name="Postgres" data-source-line="8" id="ent0004"><path d="M825.62,619.3769 C825.62,609.3769 875.9965,609.3769 875.9965,609.3769 C875.9965,609.3769 926.3729,609.3769 926.3729,619.3769 L926.3729,644.6738 C926.3729,654.6738 875.9965,654.6738 875.9965,654.6738 C875.9965,654.6738 825.62,654.6738 825.62,644.6738 L825.62,619.3769" fill="#FFE4E1" style="stroke:#181818;stroke-width:0.5;"/><path d="M825.62,619.3769 C825.62,629.3769 875.9965,629.3769 875.9965,629.3769 C875.9965,629.3769 926.3729,629.3769 926.3729,619.3769" fill="none" style="stroke:#181818;stroke-width:0.5;"/><text fill="#000000" font-family="sans-serif" font-size="14" lengthAdjust="spacing" textLength="80.7529" x="835.62" y="646.372">PostgreSQL</text></g><!--link Gateway to ComCtrl--><g class="link" data-entity-1="ent0002" data-entity-2="ent0006" data-link-type="dependency" data-source-line="25" id="lnk22"><path d="M446,90.9769 C446,116.7969 446,153.2669 446,182.1269" fill="none" id="Gateway-to-ComCtrl" style="stroke:#181818;stroke-width:1;"/><polygon fill="#181818" points="446,188.1269,450,179.1269,446,183.1269,442,179.1269,446,188.1269" style="stroke:#181818;stroke-width:1;"/><text fill="#000000" font-family="sans-serif" font-size="13" lengthAdjust="spacing" textLength="253.646" x="447" y="133.6638">Requ&#234;te HTTP POST (Token JWT, JSON)</text></g><!--link ComCtrl to ComSvc--><g class="link" data-entity-1="ent0006" data-entity-2="ent0010" data-link-type="dependency" data-source-line="27" id="lnk23"><path d="M446,251.4369 C446,274.2369 446,299.2569 446,322.0369" fill="none" id="ComCtrl-to-ComSvc" style="stroke:#181818;stroke-width:1;"/><polygon fill="#181818" points="446,328.0369,450,319.0369,446,323.0369,442,319.0369,446,328.0369" style="stroke:#181818;stroke-width:1;"/><text fill="#000000" font-family="sans-serif" font-size="13" lengthAdjust="spacing" textLength="177.4868" x="447" y="294.2638">Passe les donn&#233;es valid&#233;es</text></g><!--link ComSvc to OwnVal--><g class="link" data-entity-1="ent0010" data-entity-2="ent0018" data-link-type="dependency" data-source-line="28" id="lnk24"><path d="M542.23,391.2869 C613.16,413.9769 703.5054,442.8884 774.3554,465.5584" fill="none" id="ComSvc-to-OwnVal" style="stroke:#181818;stroke-width:1;"/><polygon fill="#181818" points="780.07,467.3869,772.7171,460.8344,775.3078,465.8631,770.2791,468.4538,780.07,467.3869" style="stroke:#181818;stroke-width:1;"/><text fill="#000000" font-family="sans-serif" font-size="13" lengthAdjust="spacing" textLength="112.6201" x="687.74" y="433.8538">V&#233;rifie l'&#233;ligibilit&#233;</text></g><!--link OwnVal to Postgres--><g class="link" data-entity-1="ent0018" data-entity-2="ent0004" data-link-type="dependency" data-source-line="29" id="lnk25"><path d="M876,530.7869 C876,554.8269 876,581.6669 876,603.1169" fill="none" id="OwnVal-to-Postgres" style="stroke:#181818;stroke-width:1;"/><polygon fill="#181818" points="876,609.1169,880,600.1169,876,604.1169,872,600.1169,876,609.1169" style="stroke:#181818;stroke-width:1;"/><text fill="#000000" font-family="sans-serif" font-size="13" lengthAdjust="spacing" textLength="258.4702" x="877" y="575.4438">Requ&#234;te SQL de lecture (V&#233;rifie l'achat)</text></g><!--link ComSvc to ComReg--><g class="link" data-entity-1="ent0010" data-entity-2="ent0014" data-link-type="dependency" data-source-line="31" id="lnk26"><path d="M390.43,391.1969 C349.29,413.9269 298.7516,441.8551 257.6516,464.5651" fill="none" id="ComSvc-to-ComReg" style="stroke:#181818;stroke-width:1;"/><polygon fill="#181818" points="252.4,467.4669,262.212,466.6152,256.7764,465.0487,258.3429,459.6131,252.4,467.4669" style="stroke:#181818;stroke-width:1;"/><text fill="#000000" font-family="sans-serif" font-size="13" lengthAdjust="spacing" textLength="276.6182" x="337.41" y="433.8538">Demande la sauvegarde (Si validation OK)</text></g><!--link ComReg to Mongo--><g class="link" data-entity-1="ent0014" data-entity-2="ent0003" data-link-type="dependency" data-source-line="32" id="lnk27"><path d="M197,530.7869 C197,554.8269 197,581.6669 197,603.1169" fill="none" id="ComReg-to-Mongo" style="stroke:#181818;stroke-width:1;"/><polygon fill="#181818" points="197,609.1169,201,600.1169,197,604.1169,193,600.1169,197,609.1169" style="stroke:#181818;stroke-width:1;"/><text fill="#000000" font-family="sans-serif" font-size="13" lengthAdjust="spacing" textLength="235.6313" x="198" y="575.4438">Insert Document (Contenu de l'avis)</text></g><?plantuml-src VLJRJjj047ttLup2GnA9YzJsAG-LQA9IA1GtYK0Lz65O3yuMUpVi9M1L_H_It_2FTNRjM14goOEpdkivSsPj7wHQei4IX2wNMf5oCrSL1BuitYMsyovHF61EZS-GSAZoWfB4ISU6yGVu9bU47jx30KmavfnJ4cJi2cKjAcTX13CoAocYiVGAlQlNCFYCrXsdfyCawI10ZmrmWewUiEe1siqPzivbld0_g2ZqKvAXmpkq1BqBhN8z-HH3undsBgHrrLHRsWfBjNMveTdtynZPljhjuAHb2ht_WRr9AxVG2ewWHVsprq8wCKGAVYV0l_ZO8XCgy66ibJEwACZSgfjkBZoMgVQEp5P9niR-iJC5x5qlfADOKMd7im_DGDzt0IEOrEjxgQI3WgcOKCl28BsSpU58D9tjy5QHWnKMaYLXmQnOrEiI8UkprzHhueGgOpHI30ztSMY7yeh0kSxbeoUugDTEakaOp5PY9u7W7y7nSbd4z8Y_Vid3F-FCT8bISQy1FOzOrgnU6tHIgtqeM6DFta3cmT6pezsefvIpmAPw1NkilLXmdpuAKRzOGF_CJPNYUTYE0-Vkv13y8vWRp7mh0JUKl2mMocOSmS9tvj7NVraQfiFxTrnmvxA2fMOIwSa-f5Mpjz4GZszGkdnIN78XbrT1JNJwzJPTyPZalHHyOtmh1UTmzDiqMZzlOfm-22DTL6G4je_MUaF0hxUAVRzq73oti_KBgtGdcLsmapzC_YJ9vgOU77pSsj5fIn--pESfnEKSpFK3fvvTp_VXR7RvZJy0c_WsjrcFb04qkx7HfbdaS4hQg93GaMW7m3dzUbt8NDx98WYIj14XkBlwMz1O5eZNGxX0UB1L1yK2NGDmqwwJVa8bgf27OD6lA4V3RuEPR636ZONBhyEapGZ9ZTOZE5MMZ8E95ZxiAGp2DuAKZpZwk99s-0y0?></g></svg>