<?plantuml 1.2026.2?><svg xmlns="http://www.w3.org/2000/svg" xmlns:xlink="http://www.w3.org/1999/xlink" contentStyleType="text/css" data-diagram-type="DESCRIPTION" height="851px" preserveAspectRatio="none" style="width:1404px;height:851px;background:#FFFFFF;" version="1.1" viewBox="0 0 1404 851" width="1404px" zoomAndPan="magnify"><title>C4 Niveau 3 - Diagramme de Composants : Service Catalogue (FastAPI)</title><defs/><g><g class="title" data-source-line="4"><text fill="#000000" font-family="sans-serif" font-size="14" font-weight="bold" lengthAdjust="spacing" textLength="562.8779" x="413.9258" y="22.9951">C4 Niveau 3 - Diagramme de Composants : Service Catalogue (FastAPI)</text></g><!--cluster Service Catalogue [Python / FastAPI]--><g class="cluster" data-qualified-name="Service Catalogue .Python . FastAPI." data-source-line="10" id="ent0005"><rect fill="#90EE90" height="540.32" rx="2.5" ry="2.5" style="stroke:#181818;stroke-width:1;" width="592" x="46.36" y="169.8869"/><text fill="#000000" font-family="sans-serif" font-size="14" font-weight="bold" lengthAdjust="spacing" textLength="291.3408" x="196.6896" y="184.882">Service Catalogue [Python / FastAPI]</text></g><!--entity CatCtrl--><g class="entity" data-qualified-name="Service Catalogue .Python . FastAPI..CatCtrl" data-source-line="12" id="ent0006"><rect fill="#FFFFFF" height="62.5938" rx="2.5" ry="2.5" style="stroke:#181818;stroke-width:0.5;" width="247.2451" x="62.74" y="204.8869"/><rect fill="#FFFFFF" height="10" style="stroke:#181818;stroke-width:0.5;" width="15" x="289.9851" y="209.8869"/><rect fill="#FFFFFF" height="2" style="stroke:#181818;stroke-width:0.5;" width="4" x="287.9851" y="211.8869"/><rect fill="#FFFFFF" height="2" style="stroke:#181818;stroke-width:0.5;" width="4" x="287.9851" y="215.8869"/><text fill="#000000" font-family="sans-serif" font-size="14" lengthAdjust="spacing" textLength="122.9375" x="77.74" y="237.882">CatalogController</text><text fill="#000000" font-family="sans-serif" font-size="14" lengthAdjust="spacing" textLength="207.2451" x="77.74" y="254.1789">[Composant : FastAPI Router]</text></g><g class="entity" data-qualified-name="Service Catalogue .Python . FastAPI..GMN7" data-source-line="13" id="ent0008"><path d="M344.85,208.4869 L344.85,232.1869 L310.21,236.1869 L344.85,240.1869 L344.85,263.8853 A0,0 0 0 0 344.85,263.8853 L621.87,263.8853 A0,0 0 0 0 621.87,263.8853 L621.87,218.4869 L611.87,208.4869 L344.85,208.4869 A0,0 0 0 0 344.85,208.4869" fill="#FEFFDD" style="stroke:#181818;stroke-width:0.5;"/><path d="M611.87,208.4869 L611.87,218.4869 L621.87,218.4869 L611.87,208.4869" fill="#FEFFDD" style="stroke:#181818;stroke-width:0.5;"/><text fill="#000000" font-family="sans-serif" font-size="13" lengthAdjust="spacing" textLength="256.02" x="350.85" y="225.5538">Expose les routes (ex: GET /api/games)</text><text fill="#000000" font-family="sans-serif" font-size="13" lengthAdjust="spacing" textLength="233.854" x="350.85" y="240.6866">et valide les param&#232;tres de requ&#234;te</text><text fill="#000000" font-family="sans-serif" font-size="13" lengthAdjust="spacing" textLength="212.126" x="350.85" y="255.8194">(filtres, pagination) via Pydantic.</text></g><!--entity CatSvc--><g class="entity" data-qualified-name="Service Catalogue .Python . FastAPI..CatSvc" data-source-line="15" id="ent0010"><rect fill="#FFFFFF" height="62.5938" rx="2.5" ry="2.5" style="stroke:#181818;stroke-width:0.5;" width="248.6123" x="69.05" y="348.4569"/><rect fill="#FFFFFF" height="10" style="stroke:#181818;stroke-width:0.5;" width="15" x="297.6623" y="353.4569"/><rect fill="#FFFFFF" height="2" style="stroke:#181818;stroke-width:0.5;" width="4" x="295.6623" y="355.4569"/><rect fill="#FFFFFF" height="2" style="stroke:#181818;stroke-width:0.5;" width="4" x="295.6623" y="359.4569"/><text fill="#000000" font-family="sans-serif" font-size="14" lengthAdjust="spacing" textLength="105.5059" x="84.05" y="381.452">CatalogService</text><text fill="#000000" font-family="sans-serif" font-size="14" lengthAdjust="spacing" textLength="208.6123" x="84.05" y="397.7489">[Composant : Logique M&#233;tier]</text></g><g class="entity" data-qualified-name="Service Catalogue .Python . FastAPI..GMN11" data-source-line="16" id="ent0012"><path d="M352.18,344.4869 L352.18,375.7469 L317.97,379.7469 L352.18,383.7469 L352.18,415.0181 A0,0 0 0 0 352.18,415.0181 L614.5433,415.0181 A0,0 0 0 0 614.5433,415.0181 L614.5433,354.4869 L604.5433,344.4869 L352.18,344.4869 A0,0 0 0 0 352.18,344.4869" fill="#FEFFDD" style="stroke:#181818;stroke-width:0.5;"/><path d="M604.5433,344.4869 L604.5433,354.4869 L614.5433,354.4869 L604.5433,344.4869" fill="#FEFFDD" style="stroke:#181818;stroke-width:0.5;"/><text fill="#000000" font-family="sans-serif" font-size="13" lengthAdjust="spacing" textLength="213.4463" x="358.18" y="361.5538">Applique les r&#232;gles de domaine :</text><text fill="#000000" font-family="sans-serif" font-size="13" lengthAdjust="spacing" textLength="204.6167" x="358.18" y="376.6866">- V&#233;rification de l'&#226;ge minimum</text><text fill="#000000" font-family="sans-serif" font-size="13" lengthAdjust="spacing" textLength="241.3633" x="358.18" y="391.8194">- Application des r&#233;ductions en cours</text><text fill="#000000" font-family="sans-serif" font-size="13" lengthAdjust="spacing" textLength="124.2935" x="358.18" y="406.9522">- Tri de pertinence.</text></g><!--entity CacheMgr--><g class="entity" data-qualified-name="Service Catalogue .Python . FastAPI..CacheMgr" data-source-line="18" id="ent0014"><rect fill="#FFFFFF" height="62.5938" rx="2.5" ry="2.5" style="stroke:#181818;stroke-width:0.5;" width="203.9395" x="143.39" y="492.0169"/><rect fill="#FFFFFF" height="10" style="stroke:#181818;stroke-width:0.5;" width="15" x="327.3295" y="497.0169"/><rect fill="#FFFFFF" height="2" style="stroke:#181818;stroke-width:0.5;" width="4" x="325.3295" y="499.0169"/><rect fill="#FFFFFF" height="2" style="stroke:#181818;stroke-width:0.5;" width="4" x="325.3295" y="503.0169"/><text fill="#000000" font-family="sans-serif" font-size="14" lengthAdjust="spacing" textLength="104.9043" x="158.39" y="525.012">CacheManager</text><text fill="#000000" font-family="sans-serif" font-size="14" lengthAdjust="spacing" textLength="163.9395" x="158.39" y="541.3089">[Composant : Utilitaire]</text></g><g class="entity" data-qualified-name="Service Catalogue .Python . FastAPI..GMN15" data-source-line="19" id="ent0016"><path d="M382.4,495.6169 L382.4,519.3169 L347.76,523.3169 L382.4,527.3169 L382.4,551.0153 A0,0 0 0 0 382.4,551.0153 L622.3243,551.0153 A0,0 0 0 0 622.3243,551.0153 L622.3243,505.6169 L612.3243,495.6169 L382.4,495.6169 A0,0 0 0 0 382.4,495.6169" fill="#FEFFDD" style="stroke:#181818;stroke-width:0.5;"/><path d="M612.3243,495.6169 L612.3243,505.6169 L622.3243,505.6169 L612.3243,495.6169" fill="#FEFFDD" style="stroke:#181818;stroke-width:0.5;"/><text fill="#000000" font-family="sans-serif" font-size="13" lengthAdjust="spacing" textLength="176.541" x="388.4" y="512.6838">G&#232;re la strat&#233;gie de cache.</text><text fill="#000000" font-family="sans-serif" font-size="13" lengthAdjust="spacing" textLength="218.9243" x="388.4" y="527.8166">V&#233;rifie si les donn&#233;es demand&#233;es</text><text fill="#000000" font-family="sans-serif" font-size="13" lengthAdjust="spacing" textLength="182.6729" x="388.4" y="542.9494">sont fra&#238;ches et disponibles.</text></g><!--entity CatReg--><g class="entity" data-qualified-name="Service Catalogue .Python . FastAPI..CatReg" data-source-line="21" id="ent0018"><rect fill="#FFFFFF" height="62.5938" rx="2.5" ry="2.5" style="stroke:#181818;stroke-width:0.5;" width="257.1572" x="72.78" y="631.6069"/><rect fill="#FFFFFF" height="10" style="stroke:#181818;stroke-width:0.5;" width="15" x="309.9372" y="636.6069"/><rect fill="#FFFFFF" height="2" style="stroke:#181818;stroke-width:0.5;" width="4" x="307.9372" y="638.6069"/><rect fill="#FFFFFF" height="2" style="stroke:#181818;stroke-width:0.5;" width="4" x="307.9372" y="642.6069"/><text fill="#000000" font-family="sans-serif" font-size="14" lengthAdjust="spacing" textLength="111.7061" x="87.78" y="664.602">CatalogRegistry</text><text fill="#000000" font-family="sans-serif" font-size="14" lengthAdjust="spacing" textLength="217.1572" x="87.78" y="680.8989">[Composant : Repository Data]</text></g><g class="entity" data-qualified-name="Service Catalogue .Python . FastAPI..GMN19" data-source-line="22" id="ent0020"><path d="M365.25,635.2069 L365.25,658.9069 L330.29,662.9069 L365.25,666.9069 L365.25,690.6053 A0,0 0 0 0 365.25,690.6053 L611.4648,690.6053 A0,0 0 0 0 611.4648,690.6053 L611.4648,645.2069 L601.4648,635.2069 L365.25,635.2069 A0,0 0 0 0 365.25,635.2069" fill="#FEFFDD" style="stroke:#181818;stroke-width:0.5;"/><path d="M601.4648,635.2069 L601.4648,645.2069 L611.4648,645.2069 L601.4648,635.2069" fill="#FEFFDD" style="stroke:#181818;stroke-width:0.5;"/><text fill="#000000" font-family="sans-serif" font-size="13" lengthAdjust="spacing" textLength="217.312" x="371.25" y="652.2738">Construit et ex&#233;cute les requ&#234;tes</text><text fill="#000000" font-family="sans-serif" font-size="13" lengthAdjust="spacing" textLength="225.2148" x="371.25" y="667.4066">SQL (SQLAlchemy) pour interroger</text><text fill="#000000" font-family="sans-serif" font-size="13" lengthAdjust="spacing" textLength="111.5981" x="371.25" y="682.5394">la table des jeux.</text></g><!--entity Gateway--><g class="entity" data-qualified-name="Gateway" data-source-line="6" id="ent0002"><rect fill="#FFFFE0" height="62.5938" rx="2.5" ry="2.5" style="stroke:#181818;stroke-width:0.5;" width="231.5225" x="70.6" y="44.2969"/><rect fill="#FFFFE0" height="10" style="stroke:#181818;stroke-width:0.5;" width="15" x="282.1225" y="49.2969"/><rect fill="#FFFFE0" height="2" style="stroke:#181818;stroke-width:0.5;" width="4" x="280.1225" y="51.2969"/><rect fill="#FFFFE0" height="2" style="stroke:#181818;stroke-width:0.5;" width="4" x="280.1225" y="55.2969"/><text fill="#000000" font-family="sans-serif" font-size="14" lengthAdjust="spacing" textLength="88.4434" x="85.6" y="77.292">API Gateway</text><text fill="#000000" font-family="sans-serif" font-size="14" lengthAdjust="spacing" textLength="191.5225" x="85.6" y="93.5889">[Conteneur : Nginx/Traefik]</text></g><!--entity Redis--><g class="entity" data-qualified-name="Redis" data-source-line="7" id="ent0003"><path d="M768.88,642.1069 C768.88,632.1069 889.3556,632.1069 889.3556,632.1069 C889.3556,632.1069 1009.8312,632.1069 1009.8312,642.1069 L1009.8312,683.7006 C1009.8312,693.7006 889.3556,693.7006 889.3556,693.7006 C889.3556,693.7006 768.88,693.7006 768.88,683.7006 L768.88,642.1069" fill="#FFE4E1" style="stroke:#181818;stroke-width:0.5;"/><path d="M768.88,642.1069 C768.88,652.1069 889.3556,652.1069 889.3556,652.1069 C889.3556,652.1069 1009.8312,652.1069 1009.8312,642.1069" fill="none" style="stroke:#181818;stroke-width:0.5;"/><text fill="#000000" font-family="sans-serif" font-size="14" lengthAdjust="spacing" textLength="92.5518" x="778.88" y="669.102">Cluster Redis</text><text fill="#000000" font-family="sans-serif" font-size="14" lengthAdjust="spacing" textLength="220.9512" x="778.88" y="685.3989">[Conteneur : Cache In-Memory]</text></g><!--entity Postgres--><g class="entity" data-qualified-name="Postgres" data-source-line="8" id="ent0004"><path d="M115.83,783.2069 C115.83,773.2069 200.3554,773.2069 200.3554,773.2069 C200.3554,773.2069 284.8808,773.2069 284.8808,783.2069 L284.8808,824.8006 C284.8808,834.8006 200.3554,834.8006 200.3554,834.8006 C200.3554,834.8006 115.83,834.8006 115.83,824.8006 L115.83,783.2069" fill="#FFE4E1" style="stroke:#181818;stroke-width:0.5;"/><path d="M115.83,783.2069 C115.83,793.2069 200.3554,793.2069 200.3554,793.2069 C200.3554,793.2069 284.8808,793.2069 284.8808,783.2069" fill="none" style="stroke:#181818;stroke-width:0.5;"/><text fill="#000000" font-family="sans-serif" font-size="14" lengthAdjust="spacing" textLength="134.8936" x="125.83" y="810.202">Cluster PostgreSQL</text><text fill="#000000" font-family="sans-serif" font-size="14" lengthAdjust="spacing" textLength="149.0508" x="125.83" y="826.4989">[Conteneur : RDBMS]</text></g><!--link Gateway to CatCtrl--><g class="link" data-entity-1="ent0002" data-entity-2="ent0006" data-link-type="dependency" data-source-line="27" id="lnk22"><path d="M70.4,100.7069 C53.06,109.3269 37.34,121.0269 26.36,136.8869 C6,166.3169 26.9953,186.213 63.9253,202.043" fill="none" id="Gateway-to-CatCtrl" style="stroke:#181818;stroke-width:1;"/><polygon fill="#181818" points="69.44,204.4069,62.7438,197.1846,64.8444,202.437,59.592,204.5375,69.44,204.4069" style="stroke:#181818;stroke-width:1;"/><text fill="#000000" font-family="sans-serif" font-size="13" lengthAdjust="spacing" textLength="273.895" x="27.36" y="149.9538">Requ&#234;te GET (Ex: /games?category=RPG)</text></g><!--reverse link Gateway to CatCtrl--><g class="link" data-entity-1="ent0002" data-entity-2="ent0006" data-link-type="dependency" data-source-line="44" id="lnk34"><path d="M280.4523,110.5949 C292.3523,118.4249 297.96,124.8569 305.36,136.8869 C322.12,164.1769 297.3,187.4069 266.07,204.4169" fill="none" id="Gateway-backto-CatCtrl" style="stroke:#181818;stroke-width:1;"/><polygon fill="#181818" points="275.44,107.2969,280.7598,115.5854,279.6169,110.0452,285.1571,108.9024,275.44,107.2969" style="stroke:#181818;stroke-width:1;"/><text fill="#000000" font-family="sans-serif" font-size="13" lengthAdjust="spacing" textLength="145.7104" x="311.75" y="149.9538">R&#233;ponse HTTP 200 OK</text></g><!--link CatCtrl to CatSvc--><g class="link" data-entity-1="ent0006" data-entity-2="ent0010" data-link-type="dependency" data-source-line="29" id="lnk23"><path d="M124.43,267.8869 C107.63,280.6369 96.29,296.6369 105.36,314.4869 C112.13,327.8069 118.3376,335.3773 130.2776,344.5273" fill="none" id="CatCtrl-to-CatSvc" style="stroke:#181818;stroke-width:1;"/><polygon fill="#181818" points="135.04,348.1769,130.3294,339.5276,131.0713,345.1356,125.4633,345.8774,135.04,348.1769" style="stroke:#181818;stroke-width:1;"/><text fill="#000000" font-family="sans-serif" font-size="13" lengthAdjust="spacing" textLength="214.1128" x="106.36" y="310.5538">Transmet les param&#232;tres valid&#233;s</text></g><!--reverse link CatCtrl to CatSvc--><g class="link" data-entity-1="ent0006" data-entity-2="ent0010" data-link-type="dependency" data-source-line="43" id="lnk33"><path d="M299.2652,271.1573 C311.5552,278.9073 317.42,285.3869 325.36,297.4869 C339.39,318.8569 324.82,335.5569 300.96,348.1169" fill="none" id="CatCtrl-backto-CatSvc" style="stroke:#181818;stroke-width:1;"/><polygon fill="#181818" points="294.19,267.9569,299.6692,276.1409,298.4193,270.6239,303.9364,269.374,294.19,267.9569" style="stroke:#181818;stroke-width:1;"/><text fill="#000000" font-family="sans-serif" font-size="13" lengthAdjust="spacing" textLength="244.3467" x="331.85" y="310.5538">Retourne le DTO final au format JSON</text></g><!--link CatSvc to CacheMgr--><g class="link" data-entity-1="ent0010" data-entity-2="ent0014" data-link-type="dependency" data-source-line="30" id="lnk24"><path d="M156.35,411.2669 C142.66,426.3669 132.58,444.9669 142.36,462.0169 C149.16,473.8769 154.3893,480.1894 165.6993,488.1294" fill="none" id="CatSvc-to-CacheMgr" style="stroke:#181818;stroke-width:1;"/><polygon fill="#181818" points="170.61,491.5769,165.5423,483.1319,166.5178,488.704,160.9456,489.6795,170.61,491.5769" style="stroke:#181818;stroke-width:1;"/><text fill="#000000" font-family="sans-serif" font-size="13" lengthAdjust="spacing" textLength="210.1138" x="143.36" y="458.0838">Demande la liste des jeux (RPG)</text></g><!--reverse link CatSvc to CacheMgr--><g class="link" data-entity-1="ent0010" data-entity-2="ent0014" data-link-type="dependency" data-source-line="42" id="lnk32"><path d="M323.1698,412.652 C339.0898,421.462 348.12,430.0469 358.36,445.0169 C371.24,463.8569 358.57,479.4269 337.7,491.5469" fill="none" id="CatSvc-backto-CacheMgr" style="stroke:#181818;stroke-width:1;"/><polygon fill="#181818" points="317.92,409.7469,323.8579,417.6045,322.2948,412.1679,327.7314,410.6048,317.92,409.7469" style="stroke:#181818;stroke-width:1;"/><text fill="#000000" font-family="sans-serif" font-size="13" lengthAdjust="spacing" textLength="165.6675" x="364.54" y="458.0838">Retourne la liste des jeux</text></g><!--link CacheMgr to Redis--><g class="link" data-entity-1="ent0014" data-entity-2="ent0003" data-link-type="dependency" data-source-line="33" id="lnk25"><path d="M347.69,550.6869 C353.66,552.0569 359.58,553.3769 365.36,554.6069 C441.25,570.7869 461.63,567.6669 537.36,584.6069 C565.24,590.8469 571.58,594.9169 599.36,601.6069 C654.73,614.9469 710.5888,626.8389 762.8188,637.3889" fill="none" id="CacheMgr-to-Redis" style="stroke:#181818;stroke-width:1;"/><polygon fill="#181818" points="768.7,638.5769,760.6701,632.8741,763.799,637.5869,759.0862,640.7158,768.7,638.5769" style="stroke:#181818;stroke-width:1;"/><text fill="#000000" font-family="sans-serif" font-size="13" lengthAdjust="spacing" textLength="245.0259" x="600.36" y="597.6738">1. Tente de lire depuis le cache (GET)</text></g><!--link Redis to CacheMgr--><g class="link" data-entity-1="ent0003" data-entity-2="ent0014" data-link-type="dependency" data-source-line="34" id="lnk26"><path d="M1009.93,660.7869 C1105.07,655.9169 1213.72,638.9769 1161.36,584.6069 C1130.66,552.7369 409.16,560.8969 365.36,554.6069 C359.51,553.7669 359.4267,553.8656 353.4167,552.7356" fill="none" id="Redis-to-CacheMgr" style="stroke:#181818;stroke-width:1;stroke-dasharray:7,7;"/><polygon fill="#181818" points="347.52,551.6269,355.6259,557.221,352.4339,552.5508,357.1041,549.3588,347.52,551.6269" style="stroke:#181818;stroke-width:1;"/><text fill="#000000" font-family="sans-serif" font-size="13" lengthAdjust="spacing" textLength="223.3296" x="1173.4" y="597.6738">2a. Cache HIT (Donn&#233;es trouv&#233;es)</text></g><!--link CacheMgr to Redis--><g class="link" data-entity-1="ent0014" data-entity-2="ent0003" data-link-type="dependency" data-source-line="40" id="lnk31"><path d="M347.55,551.4569 C353.55,552.6369 359.52,553.6969 365.36,554.6069 C418.71,562.9169 805.28,554.8969 850.36,584.6069 C866.68,595.3569 874.5604,609.4422 880.2504,626.2922" fill="none" id="CacheMgr-to-Redis-1" style="stroke:#181818;stroke-width:1;"/><polygon fill="#181818" points="882.17,631.9769,883.0803,622.1702,880.5703,627.2397,875.5008,624.7297,882.17,631.9769" style="stroke:#181818;stroke-width:1;"/><text fill="#000000" font-family="sans-serif" font-size="13" lengthAdjust="spacing" textLength="269.1978" x="867.75" y="597.6738">6. Sauvegarde dans le cache (SET + TTL)</text></g><!--link CacheMgr to CatReg--><g class="link" data-entity-1="ent0014" data-entity-2="ent0018" data-link-type="dependency" data-source-line="36" id="lnk27"><path d="M143.07,546.0069 C123.87,554.8169 106.15,567.1969 94.36,584.6069 C81.76,603.2069 89.3422,615.8047 109.8522,628.0847" fill="none" id="CacheMgr-to-CatReg" style="stroke:#181818;stroke-width:1;"/><polygon fill="#181818" points="115,631.1669,109.333,623.1117,110.7101,628.5984,105.2235,629.9755,115,631.1669" style="stroke:#181818;stroke-width:1;"/><text fill="#000000" font-family="sans-serif" font-size="13" lengthAdjust="spacing" textLength="267.4204" x="95.36" y="597.6738">2b. Cache MISS (Si non trouv&#233; ou expir&#233;)</text></g><!--link CatReg to CacheMgr--><g class="link" data-entity-1="ent0018" data-entity-2="ent0014" data-link-type="dependency" data-source-line="39" id="lnk30"><path d="M330.17,634.0769 C344.74,625.8869 357.77,615.2969 367.36,601.6069 C380.81,582.4069 373.4047,569.8411 351.9347,557.9111" fill="none" id="CatReg-to-CacheMgr" style="stroke:#181818;stroke-width:1;"/><polygon fill="#181818" points="346.69,554.9969,352.6142,562.8648,351.0606,557.4254,356.4999,555.8718,346.69,554.9969" style="stroke:#181818;stroke-width:1;"/><text fill="#000000" font-family="sans-serif" font-size="13" lengthAdjust="spacing" textLength="154.5845" x="373.89" y="597.6738">5. Formate les r&#233;sultats</text></g><!--link CatReg to Postgres--><g class="link" data-entity-1="ent0018" data-entity-2="ent0004" data-link-type="dependency" data-source-line="37" id="lnk28"><path d="M86.56,694.6369 C73.09,702.7969 61.06,713.1369 52.36,726.2069 C31.1,758.1269 65.6905,776.0769 109.6105,787.4169" fill="none" id="CatReg-to-Postgres" style="stroke:#181818;stroke-width:1;"/><polygon fill="#181818" points="115.42,788.9169,107.7058,782.7939,110.5788,787.6669,105.7058,790.5399,115.42,788.9169" style="stroke:#181818;stroke-width:1;"/><text fill="#000000" font-family="sans-serif" font-size="13" lengthAdjust="spacing" textLength="249.2979" x="53.36" y="739.2738">3. Ex&#233;cute la requ&#234;te SQL (SELECT ...)</text></g><!--link Postgres to CatReg--><g class="link" data-entity-1="ent0004" data-entity-2="ent0018" data-link-type="dependency" data-source-line="38" id="lnk29"><path d="M278.48,772.7369 C290.02,764.8569 300.36,755.1369 307.36,743.2069 C318.87,723.5769 310.7449,710.4134 290.1649,697.7934" fill="none" id="Postgres-to-CatReg" style="stroke:#181818;stroke-width:1;stroke-dasharray:7,7;"/><polygon fill="#181818" points="285.05,694.6569,290.6313,702.7716,289.3124,697.2707,294.8134,695.9518,285.05,694.6569" style="stroke:#181818;stroke-width:1;"/><text fill="#000000" font-family="sans-serif" font-size="13" lengthAdjust="spacing" textLength="147.9004" x="312.63" y="739.2738">4. Retourne les entit&#233;s</text></g><?plantuml-src VLLDSzis4BtpL-pO1qlJYawTj0TDFyQLPCUfPAkYsaudwW4cLpHg4500K96cap-JazL3_mJ_M1SWoCXgAXyacjXTlBVlxSeyShbYcXMGgcAb94gRsAr0A0jn4PdsTCNIHvPZVQOnjKpc0gF8Sail1g_Wbg-HbV0IUZ3aBAUS0Y6Z8rVMC6aDz251lUOflMIM2PMN29qhPkpbzAORHIq0EA4NSCqilcVRXNmxKDAYn59JXTkSoytvN3DSyiS_Je2P9X1Enpn_iB-Z4EfzbD4DzymWd0n4QIngc676pK6r0KiV46vaRuA5qjkwdW-4qmatTZjJ1ZzJQwgCpJKcFuyF2iw6FqwIkao8ULOf2cs4a_zsukrqQn-KX7C8BQ4oDQLhZIZXhmZept_iTIhaEmnQ2O7Q0mej9q2X5inKIS1hP9Gpi5h0wMyFtAAlA9KbMTrbe9PjG1z66wg488Y6TXKCT73JX-lH7CxPYf_dh43JNKYqi6Q2PtMejqprP1txpDdbNLdzRN4XEqiktDilAOI4P9OhsOKrPp3TPWIOf_4nbg5f1nJ7AkVlg86JQcVv7iTadHwbwCxxSBbQ2P_kELPFkQX1PwfWN2Bq5x87lrOxpPSyzO3TgJYhFfAC1PUyA0iNukkq0QxKBYjJzwy1KYzLfJOkRgwvAx12RQcyJF7_69Cp9qoIMGub_SLomItZ6XkgBZJNnyY625AkUj84du6ncjbgbtC_fQcBY1So44Kmt3SaKr9MEz-HWidCFIwa8RF1KhFg7qeYTXPeO0WulwUKemBECATPqDi3HZEaHsvf0c58WQs257vKGNTEGqmjjhharY71JRLBoQYrdC5uX9b65JhqSIa8Sx7jmee40KwJgxNoFQQUq9WBzEhzYUKcZZv4qHdqUZsu4kK6ihDGt4bCRwEesJoztlTxCpCBj_efwOneNEen-O7SWJcH_6uslQPzrsI4xDgEjDcaAOZ8uHpvyQfs9WgXTLQhwz3huvKLrE9FBA1JttO6oJF5wzNNyL-zI-D6TyeijKDsexQkkwHUXttuAeOvQUcJ1PcFlbSbdOZW7kWGtsvKX_VYv_0kM1nkV7r3JHasjgAbLQxTa-_7tgsjkXVtJURa9ab8Gqu-a4qYg98aNt6QDWVRvxZqTldsuMLCMwmn1Miz0RKZHkFHO0vn77UZDYU03m1UnTG2IswHjQce1zm68PhhzfX-7SELqWLhB4YHfR3CciztzPiO4bQkCMVQBHqIVw-X2Hde2vZFnxLRdEpVaXltRlk4x53trbvrHh3N7XCOpkzWIKjO0FrkBprcU9FStRQs3fcDhQiTJJFz6BoUpwTmyU85tFtqBm00?></g></svg>