<?plantuml 1.2026.2?><svg xmlns="http://www.w3.org/2000/svg" xmlns:xlink="http://www.w3.org/1999/xlink" contentStyleType="text/css" data-diagram-type="SEQUENCE" height="494px" preserveAspectRatio="none" style="width:1566px;height:494px;background:#FFFFFF;" version="1.1" viewBox="0 0 1566 494" width="1566px" zoomAndPan="magnify"><title>Diagramme de S&#233;quence : Soumission d'un Avis Utilisateur</title><defs/><g><text fill="#000000" font-family="sans-serif" font-size="14" font-weight="bold" lengthAdjust="spacing" textLength="467.7012" x="551.0859" y="27.9951">Diagramme de S&#233;quence : Soumission d'un Avis Utilisateur</text><g><title>WebClient</title><rect fill="#FFFFFF" height="246.0625" style="stroke:#181818;stroke-width:1;" width="10" x="354.9146" y="149.7266"/></g><g><title>ApiGateway</title><rect fill="#FFFFFF" height="187.7969" style="stroke:#181818;stroke-width:1;" width="10" x="698.5488" y="178.8594"/></g><g><title>ReviewService</title><rect fill="#FFFFFF" height="100.3984" style="stroke:#181818;stroke-width:1;" width="10" x="1137.7021" y="237.125"/></g><g class="participant-lifeline" data-entity-uid="part1" data-qualified-name="Utilisateur" id="part1-lifeline"><g><title>Utilisateur</title><rect fill="#000000" fill-opacity="0.00000" height="295.1953" width="8" x="40.0049" y="118.5938"/><line style="stroke:#181818;stroke-width:0.5;stroke-dasharray:5,5;" x1="44" x2="44" y1="118.5938" y2="413.7891"/></g></g><g class="participant-lifeline" data-entity-uid="part2" data-qualified-name="WebClient" id="part2-lifeline"><g><title>WebClient</title><rect fill="#000000" fill-opacity="0.00000" height="295.1953" width="8" x="355.9146" y="118.5938"/><line style="stroke:#181818;stroke-width:0.5;stroke-dasharray:5,5;" x1="358.978" x2="358.978" y1="118.5938" y2="413.7891"/></g></g><g class="participant-lifeline" data-entity-uid="part3" data-qualified-name="ApiGateway" id="part3-lifeline"><g><title>ApiGateway</title><rect fill="#000000" fill-opacity="0.00000" height="295.1953" width="8" x="699.5488" y="118.5938"/><line style="stroke:#181818;stroke-width:0.5;stroke-dasharray:5,5;" x1="703.4497" x2="703.4497" y1="118.5938" y2="413.7891"/></g></g><g class="participant-lifeline" data-entity-uid="part4" data-qualified-name="ReviewController" id="part4-lifeline"><g><title>ReviewController</title><rect fill="#000000" fill-opacity="0.00000" height="295.1953" width="8" x="998.6289" y="118.5938"/><line style="stroke:#181818;stroke-width:0.5;stroke-dasharray:5,5;" x1="1001.7529" x2="1001.7529" y1="118.5938" y2="413.7891"/></g></g><g class="participant-lifeline" data-entity-uid="part5" data-qualified-name="ReviewService" id="part5-lifeline"><g><title>ReviewService</title><rect fill="#000000" fill-opacity="0.00000" height="295.1953" width="8" x="1138.7021" y="118.5938"/><line style="stroke:#181818;stroke-width:0.5;stroke-dasharray:5,5;" x1="1142.542" x2="1142.542" y1="118.5938" y2="413.7891"/></g></g><g class="participant-lifeline" data-entity-uid="part6" data-qualified-name="MongoDB" id="part6-lifeline"><g><title>MongoDB</title><rect fill="#000000" fill-opacity="0.00000" height="295.1953" width="8" x="1525.1958" y="118.5938"/><line style="stroke:#181818;stroke-width:0.5;stroke-dasharray:5,5;" x1="1528.5186" x2="1528.5186" y1="118.5938" y2="413.7891"/></g></g><g class="participant participant-head" data-entity-uid="part1" data-qualified-name="Utilisateur" id="part1-head"><text fill="#000000" font-family="sans-serif" font-size="14" lengthAdjust="spacing" textLength="72.0098" x="5" y="115.292">Utilisateur</text><ellipse cx="44.0049" cy="50.7969" fill="#E2E2F0" rx="8" ry="8" style="stroke:#181818;stroke-width:0.5;"/><path d="M44.0049,58.7969 L44.0049,85.7969 M31.0049,66.7969 L57.0049,66.7969 M44.0049,85.7969 L31.0049,100.7969 M44.0049,85.7969 L57.0049,100.7969" fill="none" style="stroke:#181818;stroke-width:0.5;"/></g><g class="participant participant-tail" data-entity-uid="part1" data-qualified-name="Utilisateur" id="part1-tail"><text fill="#000000" font-family="sans-serif" font-size="14" lengthAdjust="spacing" textLength="72.0098" x="5" y="425.7842">Utilisateur</text><ellipse cx="44.0049" cy="437.5859" fill="#E2E2F0" rx="8" ry="8" style="stroke:#181818;stroke-width:0.5;"/><path d="M44.0049,445.5859 L44.0049,472.5859 M31.0049,453.5859 L57.0049,453.5859 M44.0049,472.5859 L31.0049,487.5859 M44.0049,472.5859 L57.0049,487.5859" fill="none" style="stroke:#181818;stroke-width:0.5;"/></g><g class="participant participant-head" data-entity-uid="part2" data-qualified-name="WebClient" id="part2-head"><rect fill="#E2E2F0" height="30.2969" rx="2.5" ry="2.5" style="stroke:#181818;stroke-width:0.5;" width="85.873" x="316.978" y="87.2969"/><text fill="#000000" font-family="sans-serif" font-size="14" lengthAdjust="spacing" textLength="71.873" x="323.978" y="107.292">WebClient</text></g><g class="participant participant-tail" data-entity-uid="part2" data-qualified-name="WebClient" id="part2-tail"><rect fill="#E2E2F0" height="30.2969" rx="2.5" ry="2.5" style="stroke:#181818;stroke-width:0.5;" width="85.873" x="316.978" y="412.7891"/><text fill="#000000" font-family="sans-serif" font-size="14" lengthAdjust="spacing" textLength="71.873" x="323.978" y="432.7842">WebClient</text></g><g class="participant participant-head" data-entity-uid="part3" data-qualified-name="ApiGateway" id="part3-head"><rect fill="#E2E2F0" height="30.2969" rx="2.5" ry="2.5" style="stroke:#181818;stroke-width:0.5;" width="98.1982" x="654.4497" y="87.2969"/><text fill="#000000" font-family="sans-serif" font-size="14" lengthAdjust="spacing" textLength="84.1982" x="661.4497" y="107.292">ApiGateway</text></g><g class="participant participant-tail" data-entity-uid="part3" data-qualified-name="ApiGateway" id="part3-tail"><rect fill="#E2E2F0" height="30.2969" rx="2.5" ry="2.5" style="stroke:#181818;stroke-width:0.5;" width="98.1982" x="654.4497" y="412.7891"/><text fill="#000000" font-family="sans-serif" font-size="14" lengthAdjust="spacing" textLength="84.1982" x="661.4497" y="432.7842">ApiGateway</text></g><g class="participant participant-head" data-entity-uid="part4" data-qualified-name="ReviewController" id="part4-head"><rect fill="#E2E2F0" height="30.2969" rx="2.5" ry="2.5" style="stroke:#181818;stroke-width:0.5;" width="133.752" x="935.7529" y="87.2969"/><text fill="#000000" font-family="sans-serif" font-size="14" lengthAdjust="spacing" textLength="119.752" x="942.7529" y="107.292">ReviewController</text></g><g class="participant participant-tail" data-entity-uid="part4" data-qualified-name="ReviewController" id="part4-tail"><rect fill="#E2E2F0" height="30.2969" rx="2.5" ry="2.5" style="stroke:#181818;stroke-width:0.5;" width="133.752" x="935.7529" y="412.7891"/><text fill="#000000" font-family="sans-serif" font-size="14" lengthAdjust="spacing" textLength="119.752" x="942.7529" y="432.7842">ReviewController</text></g><g class="participant participant-head" data-entity-uid="part5" data-qualified-name="ReviewService" id="part5-head"><rect fill="#E2E2F0" height="30.2969" rx="2.5" ry="2.5" style="stroke:#181818;stroke-width:0.5;" width="116.3203" x="1084.542" y="87.2969"/><text fill="#000000" font-family="sans-serif" font-size="14" lengthAdjust="spacing" textLength="102.3203" x="1091.542" y="107.292">ReviewService</text></g><g class="participant participant-tail" data-entity-uid="part5" data-qualified-name="ReviewService" id="part5-tail"><rect fill="#E2E2F0" height="30.2969" rx="2.5" ry="2.5" style="stroke:#181818;stroke-width:0.5;" width="116.3203" x="1084.542" y="412.7891"/><text fill="#000000" font-family="sans-serif" font-size="14" lengthAdjust="spacing" textLength="102.3203" x="1091.542" y="432.7842">ReviewService</text></g><g class="participant participant-head" data-entity-uid="part6" data-qualified-name="MongoDB" id="part6-head"><text fill="#000000" font-family="sans-serif" font-size="14" lengthAdjust="spacing" textLength="67.3545" x="1492.5186" y="115.292">MongoDB</text><path d="M1511.1958,66.2969 C1511.1958,56.2969 1529.1958,56.2969 1529.1958,56.2969 C1529.1958,56.2969 1547.1958,56.2969 1547.1958,66.2969 L1547.1958,92.2969 C1547.1958,102.2969 1529.1958,102.2969 1529.1958,102.2969 C1529.1958,102.2969 1511.1958,102.2969 1511.1958,92.2969 L1511.1958,66.2969" fill="#E2E2F0" style="stroke:#181818;stroke-width:0.5;"/><path d="M1511.1958,66.2969 C1511.1958,76.2969 1529.1958,76.2969 1529.1958,76.2969 C1529.1958,76.2969 1547.1958,76.2969 1547.1958,66.2969" fill="none" style="stroke:#181818;stroke-width:0.5;"/></g><g class="participant participant-tail" data-entity-uid="part6" data-qualified-name="MongoDB" id="part6-tail"><text fill="#000000" font-family="sans-serif" font-size="14" lengthAdjust="spacing" textLength="67.3545" x="1492.5186" y="425.7842">MongoDB</text><path d="M1511.1958,439.0859 C1511.1958,429.0859 1529.1958,429.0859 1529.1958,429.0859 C1529.1958,429.0859 1547.1958,429.0859 1547.1958,439.0859 L1547.1958,465.0859 C1547.1958,475.0859 1529.1958,475.0859 1529.1958,475.0859 C1529.1958,475.0859 1511.1958,475.0859 1511.1958,465.0859 L1511.1958,439.0859" fill="#E2E2F0" style="stroke:#181818;stroke-width:0.5;"/><path d="M1511.1958,439.0859 C1511.1958,449.0859 1529.1958,449.0859 1529.1958,449.0859 C1529.1958,449.0859 1547.1958,449.0859 1547.1958,439.0859" fill="none" style="stroke:#181818;stroke-width:0.5;"/></g><g><title>WebClient</title><rect fill="#FFFFFF" height="246.0625" style="stroke:#181818;stroke-width:1;" width="10" x="354.9146" y="149.7266"/></g><g><title>ApiGateway</title><rect fill="#FFFFFF" height="187.7969" style="stroke:#181818;stroke-width:1;" width="10" x="698.5488" y="178.8594"/></g><g><title>ReviewService</title><rect fill="#FFFFFF" height="100.3984" style="stroke:#181818;stroke-width:1;" width="10" x="1137.7021" y="237.125"/></g><g class="message" data-entity-1="part1" data-entity-2="part2" id="msg1"><polygon fill="#181818" points="342.9146,145.7266,352.9146,149.7266,342.9146,153.7266,346.9146,149.7266" style="stroke:#181818;stroke-width:1;"/><line style="stroke:#181818;stroke-width:1;" x1="44.0049" x2="348.9146" y1="149.7266" y2="149.7266"/><text fill="#000000" font-family="sans-serif" font-size="13" lengthAdjust="spacing" textLength="291.9097" x="51.0049" y="144.6606">Clique sur "Laisser un avis" sur la page Jeu X</text></g><g class="message" data-entity-1="part2" data-entity-2="part3" id="msg2"><polygon fill="#181818" points="686.5488,174.8594,696.5488,178.8594,686.5488,182.8594,690.5488,178.8594" style="stroke:#181818;stroke-width:1;"/><line style="stroke:#181818;stroke-width:1;" x1="364.9146" x2="692.5488" y1="178.8594" y2="178.8594"/><text fill="#000000" font-family="sans-serif" font-size="13" lengthAdjust="spacing" textLength="314.6343" x="371.9146" y="173.7935">POST /api/v1/reviews (GameID, Rating, Content)</text></g><g class="message" data-entity-1="part3" data-entity-2="part4" id="msg3"><polygon fill="#181818" points="990.6289,203.9922,1000.6289,207.9922,990.6289,211.9922,994.6289,207.9922" style="stroke:#181818;stroke-width:1;"/><line style="stroke:#181818;stroke-width:1;" x1="708.5488" x2="996.6289" y1="207.9922" y2="207.9922"/><text fill="#000000" font-family="sans-serif" font-size="13" lengthAdjust="spacing" textLength="270.0801" x="715.5488" y="202.9263">POST /reviews (GameID, Rating, Content)</text></g><g class="message" data-entity-1="part4" data-entity-2="part5" id="msg4"><polygon fill="#181818" points="1125.7021,233.125,1135.7021,237.125,1125.7021,241.125,1129.7021,237.125" style="stroke:#181818;stroke-width:1;"/><line style="stroke:#181818;stroke-width:1;" x1="1002.6289" x2="1131.7021" y1="237.125" y2="237.125"/><text fill="#000000" font-family="sans-serif" font-size="13" lengthAdjust="spacing" textLength="116.0732" x="1009.6289" y="232.0591">Soumission d'avis</text></g><g class="message" data-entity-1="part5" data-entity-2="part5" id="msg5"><line style="stroke:#181818;stroke-width:1;" x1="1147.7021" x2="1189.7021" y1="266.2578" y2="266.2578"/><line style="stroke:#181818;stroke-width:1;" x1="1189.7021" x2="1189.7021" y1="266.2578" y2="279.2578"/><line style="stroke:#181818;stroke-width:1;" x1="1148.7021" x2="1189.7021" y1="279.2578" y2="279.2578"/><polygon fill="#181818" points="1158.7021,275.2578,1148.7021,279.2578,1158.7021,283.2578,1154.7021,279.2578" style="stroke:#181818;stroke-width:1;"/><text fill="#000000" font-family="sans-serif" font-size="13" lengthAdjust="spacing" textLength="318.8555" x="1154.7021" y="261.1919">Validation pr&#233;liminaire (Longueur, Spoiler check)</text></g><g class="message" data-entity-1="part5" data-entity-2="part6" id="msg6"><polygon fill="#181818" points="1517.1958,304.3906,1527.1958,308.3906,1517.1958,312.3906,1521.1958,308.3906" style="stroke:#181818;stroke-width:1;"/><line style="stroke:#181818;stroke-width:1;" x1="1147.7021" x2="1523.1958" y1="308.3906" y2="308.3906"/><text fill="#000000" font-family="sans-serif" font-size="13" lengthAdjust="spacing" textLength="357.4937" x="1154.7021" y="303.3247">Sauvegarde l'avis (Statut: "En attente de mod&#233;ration")</text></g><g class="message" data-entity-1="part5" data-entity-2="part3" id="msg7"><polygon fill="#181818" points="719.5488,333.5234,709.5488,337.5234,719.5488,341.5234,715.5488,337.5234" style="stroke:#181818;stroke-width:1;"/><line style="stroke:#181818;stroke-width:1;stroke-dasharray:2,2;" x1="713.5488" x2="1141.7021" y1="337.5234" y2="337.5234"/><text fill="#000000" font-family="sans-serif" font-size="13" lengthAdjust="spacing" textLength="185.4341" x="725.5488" y="332.4575">AVIS_ACCEPT&#201;_EN_ATTENTE</text></g><g class="message" data-entity-1="part3" data-entity-2="part2" id="msg8"><polygon fill="#181818" points="375.9146,362.6563,365.9146,366.6563,375.9146,370.6563,371.9146,366.6563" style="stroke:#181818;stroke-width:1;"/><line style="stroke:#181818;stroke-width:1;stroke-dasharray:2,2;" x1="369.9146" x2="702.5488" y1="366.6563" y2="366.6563"/><text fill="#000000" font-family="sans-serif" font-size="13" lengthAdjust="spacing" textLength="84.335" x="381.9146" y="361.5903">Confirmation</text></g><g class="message" data-entity-1="part2" data-entity-2="part1" id="msg9"><polygon fill="#181818" points="55.0049,391.7891,45.0049,395.7891,55.0049,399.7891,51.0049,395.7891" style="stroke:#181818;stroke-width:1;"/><line style="stroke:#181818;stroke-width:1;stroke-dasharray:2,2;" x1="49.0049" x2="358.9146" y1="395.7891" y2="395.7891"/><text fill="#000000" font-family="sans-serif" font-size="13" lengthAdjust="spacing" textLength="173.5957" x="61.0049" y="390.7231">Message de remerciement</text></g><?plantuml-src XLB1Rfj04Btp5ICkiILNLgy-LA8sYX8bQHHesfirWIaP1NRfxaAKJyYd-3lyOvr5YLb8f5vWcMNUl3VlENOrGRnZh0ms3K59a1qFVpjI1S46CjqrR2rh1ULPfo3fsS9FnpLRTDIPE8gmSDg4jQX5uxZW5fM3N_ImhPcKcrIJbi_btsTycPJlg6TwtchbZAvhCfzSPcHwBYWgqU43Me9hhIgz-nv50GFuycqSl05vYo2mSX5VeSWX0w85HKiyL6k45Yk2I-hWjnV4lU04t4ydZpoIty3jZoo7DRQyxh-kpS3Gmk8S6xhOhU0E7Qjg1LwHD2z7w601uz63prS0xpF-3_wXzGJtjhIPdLx_o6YwtidN9q3tMBDOu85QSppKtB12DWIBA_6Z4mzMaBMQFOtYaOgdvKV8D-U45NOzLMWaU_N02XQPGzU9TN4gFZclRuXceylZmGnpusLKqedzUmfcGsPk9VSNsJxPRjFR_FYwJs_sIPwdDtaQ8att49ep2vLMVzWq0vUmFt0sI8tq1ldSm3LPwnCdcWmrP0gMfmGj03fr_mC0?></g></svg>