<svg xmlns="http://www.w3.org/2000/svg" xmlns:xlink="http://www.w3.org/1999/xlink" xmlns:lucid="lucid" width="3062" height="1189.53"><g transform="translate(-619 -1251.46875)" lucid:page-tab-id="0_0"><path d="M500 1000h3500v1500H500z" fill="#fff"/><path d="M620 1388a8 8 0 0 1 8-8h1304a8 8 0 0 1 8 8v1024a8 8 0 0 1-8 8H628a8 8 0 0 1-8-8z" stroke="#000" stroke-width="2" fill-opacity="0"/><path d="M620 1279.47a8 8 0 0 1 8-8h897.48a8 8 0 0 1 8 8V1360a8 8 0 0 1-8 8H628a8 8 0 0 1-8-8z"/><use xlink:href="#a" transform="matrix(1,0,0,1,636,1287.46875) translate(0 51.90104166666667)"/><use xlink:href="#b" transform="matrix(1,0,0,1,636,1287.46875) translate(209.08854166666669 51.90104166666667)"/><use xlink:href="#c" transform="matrix(1,0,0,1,636,1287.46875) translate(287.1354166666667 51.90104166666667)"/><use xlink:href="#d" transform="matrix(1,0,0,1,636,1287.46875) translate(402.34375 51.90104166666667)"/><use xlink:href="#b" transform="matrix(1,0,0,1,636,1287.46875) translate(497.109375 51.90104166666667)"/><use xlink:href="#e" transform="matrix(1,0,0,1,636,1287.46875) translate(575.15625 51.90104166666667)"/><use xlink:href="#f" transform="matrix(1,0,0,1,636,1287.46875) translate(665.703125 51.90104166666667)"/><path d="M940 1948a8 8 0 0 1 8-8h147.04a8 8 0 0 1 8 8v15.8a8 8 0 0 1-8 8H948a8 8 0 0 1-8-8z" fill="none"/><use xlink:href="#g" transform="matrix(1,0,0,1,945,1945) translate(0 17.5478515625)"/><use xlink:href="#h" transform="matrix(1,0,0,1,945,1945) translate(84.111328125 17.5478515625)"/><use xlink:href="#i" transform="matrix(1,0,0,1,945,1945) translate(110.8388671875 17.5478515625)"/><path d="M620 1388a8 8 0 0 1 8-8h1304a8 8 0 0 1 8 8v1024a8 8 0 0 1-8 8H628a8 8 0 0 1-8-8z" stroke="#000" stroke-width="2" fill-opacity="0"/><path d="M620 1279.47a8 8 0 0 1 8-8h897.48a8 8 0 0 1 8 8V1360a8 8 0 0 1-8 8H628a8 8 0 0 1-8-8z"/><use xlink:href="#a" transform="matrix(1,0,0,1,636,1287.46875) translate(0 51.90104166666667)"/><use xlink:href="#b" transform="matrix(1,0,0,1,636,1287.46875) translate(209.08854166666669 51.90104166666667)"/><use xlink:href="#c" transform="matrix(1,0,0,1,636,1287.46875) translate(287.1354166666667 51.90104166666667)"/><use xlink:href="#d" transform="matrix(1,0,0,1,636,1287.46875) translate(402.34375 51.90104166666667)"/><use xlink:href="#b" transform="matrix(1,0,0,1,636,1287.46875) translate(497.109375 51.90104166666667)"/><use xlink:href="#e" transform="matrix(1,0,0,1,636,1287.46875) translate(575.15625 51.90104166666667)"/><use xlink:href="#f" transform="matrix(1,0,0,1,636,1287.46875) translate(665.703125 51.90104166666667)"/><path d="M940 1948a8 8 0 0 1 8-8h147.04a8 8 0 0 1 8 8v15.8a8 8 0 0 1-8 8H948a8 8 0 0 1-8-8z" fill="none"/><use xlink:href="#g" transform="matrix(1,0,0,1,945,1945) translate(0 17.5478515625)"/><use xlink:href="#h" transform="matrix(1,0,0,1,945,1945) translate(84.111328125 17.5478515625)"/><use xlink:href="#i" transform="matrix(1,0,0,1,945,1945) translate(110.8388671875 17.5478515625)"/><path d="M2340 1368a8 8 0 0 1 8-8h1324a8 8 0 0 1 8 8v1064a8 8 0 0 1-8 8H2348a8 8 0 0 1-8-8z" stroke="#000" stroke-width="2" fill-opacity="0"/><path d="M2340 1259.47a8 8 0 0 1 8-8h751a8 8 0 0 1 8 8V1340a8 8 0 0 1-8 8h-751a8 8 0 0 1-8-8z"/><use xlink:href="#j" transform="matrix(1,0,0,1,2356,1267.46875) translate(0 51.90104166666667)"/><use xlink:href="#k" transform="matrix(1,0,0,1,2356,1267.46875) translate(233.17708333333337 51.90104166666667)"/><use xlink:href="#l" transform="matrix(1,0,0,1,2356,1267.46875) translate(311.92708333333337 51.90104166666667)"/><path d="M2340 1368a8 8 0 0 1 8-8h1324a8 8 0 0 1 8 8v1064a8 8 0 0 1-8 8H2348a8 8 0 0 1-8-8z" stroke="#000" stroke-width="2" fill-opacity="0"/><path d="M2340 1259.47a8 8 0 0 1 8-8h751a8 8 0 0 1 8 8V1340a8 8 0 0 1-8 8h-751a8 8 0 0 1-8-8z"/><use xlink:href="#j" transform="matrix(1,0,0,1,2356,1267.46875) translate(0 51.90104166666667)"/><use xlink:href="#k" transform="matrix(1,0,0,1,2356,1267.46875) translate(233.17708333333337 51.90104166666667)"/><use xlink:href="#l" transform="matrix(1,0,0,1,2356,1267.46875) translate(311.92708333333337 51.90104166666667)"/><path d="M640 1802.66a8 8 0 0 1 8-8h84a8 8 0 0 1 8 8v4.93a17.07 17.07 0 0 1-5 12.06 17.07 17.07 0 0 1-12.07 5H648a8 8 0 0 1-8-8z" fill="#fff"/><path d="M740 1794.66v20l-10 10h-90" stroke="#000" stroke-width="2" fill="none"/><path d="M640 1802.66a8 8 0 0 1 8-8h1264a8 8 0 0 1 8 8v556.06a8 8 0 0 1-8 8H648a8 8 0 0 1-8-8zM640 1900h20m15 0h20m15 0h20m15 0h20m15 0h20m15 0h20m15 0h20m15 0h20m15 0h20m15 0h20m15 0h20m15 0h20m15 0h20m15 0h20m15 0h20m15 0h20m15 0h20m15 0h20m15 0h20m15 0h20m15 0h20m15 0h20m15 0h20m15 0h20m15 0h20m15 0h20m15 0h20m15 0h20m15 0h20m15 0h20m15 0h20m15 0h20m15 0h20m15 0h20m15 0h20m15 0h20m15 0h20" stroke="#000" stroke-width="2" fill="none"/><use xlink:href="#m" transform="matrix(1,0,0,1,648,1794.6630694434596) translate(-4.77783203125 21.5478515625)"/><use xlink:href="#n" transform="matrix(1,0,0,1,652,1832.6630694434596) translate(12.4072265625 21.5478515625)"/><use xlink:href="#o" transform="matrix(1,0,0,1,652,1832.6630694434596) translate(57.064453125 21.5478515625)"/><use xlink:href="#p" transform="matrix(1,0,0,1,652,1908) translate(9.44921875 21.5478515625)"/><path d="M729.63 1525.52v10.18m0 10.18v20.36m0 10.18v20.36m0 10.17v20.36m0 10.2v20.35m0 10.18v20.36m0 10.17v20.36m0 10.17v20.36m0 10.18V1780m0 10.18v20.36m0 10.18v20.36m0 10.18v20.35m0 10.2v20.35m0 10.18v20.36m0 10.17v20.36m0 10.18v20.36m0 10.18v20.36m0 10.18v20.36m0 10.18v20.36m0 10.18v20.36m0 10.17v20.35m0 10.18V2177m0 10.17v20.36m0 10.18v20.37m0 10.17v20.36m0 10.18v20.36m0 10.18v10.18M729.63 2319.5v.5M1043.6 1518.95v10.02m0 10.02v20.04m0 10.02v20.05m0 10.03v20.05m0 10.02v20.04m0 10.03v20.04m0 10.04v20.04m0 10.02v20.05m0 10.02v20.05m0 10.02v20.05m0 10v20.05m0 10.02v20.05m0 10.02v20.05m0 10v20.06m0 10.02v20.04m0 10.03V1980m0 10.02v20.04m0 10.02v20.05m0 10.02v20.05m0 10.02v20.05m0 10.02v20.03m0 10.03v20.04m0 10.02v20.05m0 10.02v20.04m0 10.02v20.05m0 10.03v20.04m0 10.03v20.04m0 10.02v10.03" stroke="#333" fill="none"/><path d="M1044.06 1518.96h-.95v-.5h.96z" stroke="#333" stroke-width=".05" fill="#333"/><path d="M1043.6 2330.77v.52" stroke="#333" fill="none"/><path d="M1404.42 1518.96v10.14m0 10.13v20.28m0 10.14v20.27m0 10.15v20.27m0 10.14v20.27m0 10.14v20.27m0 10.13v20.28m0 10.13v20.28m0 10.13v20.27m0 10.13v20.27m0 10.14v20.28m0 10.14v20.27m0 10.13V1894m0 10.13v20.28m0 10.14v20.28m0 10.13v20.27m0 10.14v20.27m0 10.14v20.27m0 10.14v20.27m0 10.14v20.26m0 10.13v20.27m0 10.13v20.28m0 10.13v20.28m0 10.14v20.27m0 10.13v20.27m0 10.14v20.27m0 10.15v20.27m0 10.14V2340" stroke="#333" stroke-linejoin="round" fill="none"/><path d="M1404.9 1518.97h-.95v-.52h.95z" stroke="#333" stroke-width=".05" fill="#333"/><path d="M1404.42 2339.98v.5M1765.26 1518.95v9.76m0 9.78V1558m0 9.77v19.52m0 9.76v19.52m0 9.77v19.52m0 9.76v19.53m0 9.76v19.53m0 9.76v19.54m0 9.76v19.53m0 9.76v19.52m0 9.76v19.53m0 9.77v19.53m0 9.76v19.53m0 9.75v19.53m0 9.76v19.53m0 9.76v19.53m0 9.76v19.53m0 9.76v19.53m0 9.77v19.52m0 9.77v19.5m0 9.78v19.52m0 9.76v19.53m0 9.75v19.53m0 9.76v19.53m0 9.76v19.53m0 9.76v19.53m0 9.76v19.54m0 9.76v19.53m0 9.76v9.75" stroke="#333" fill="none"/><path d="M1765.73 1518.96h-.95v-.5h.95z" stroke="#333" stroke-width=".05" fill="#333"/><path d="M1765.26 2339.04v.5M1404.92 1960h343.95M1404.93 1960h-.5" stroke="#333" fill="none"/><path d="M1763.64 1960l-14.27 4.63v-9.27z" stroke="#333" fill="#333"/><use xlink:href="#q" transform="matrix(1,0,0,1,1404.879615063601,1968.6347549086754) translate(0.0049999999999954525 17.4375)"/><use xlink:href="#r" transform="matrix(1,0,0,1,1404.879615063601,1968.6347549086754) translate(101.7471875 17.4375)"/><use xlink:href="#s" transform="matrix(1,0,0,1,1404.879615063601,1968.6347549086754) translate(138.9688671875 17.4375)"/><use xlink:href="#t" transform="matrix(1,0,0,1,1404.879615063601,1968.6347549086754) translate(236.6329296875 17.4375)"/><use xlink:href="#u" transform="matrix(1,0,0,1,1404.879615063601,1968.6347549086754) translate(314.5216015625 17.4375)"/><use xlink:href="#v" transform="matrix(1,0,0,1,1404.879615063601,1968.6347549086754) translate(334.4376171875 17.4375)"/><path d="M948.55 1405.45a8 8 0 0 1 8-8h174.08a8 8 0 0 1 8 8v105a8 8 0 0 1-8 8H956.55a8 8 0 0 1-8-8z" stroke="#000" stroke-opacity="0" fill="#6db1ff"/><use xlink:href="#w" transform="matrix(1,0,0,1,956.5508274182996,1405.450156647517) translate(67.34192708333333 58.51432291666667)"/><path d="M1309.38 1405.45a8 8 0 0 1 8-8h174.08a8 8 0 0 1 8 8v105a8 8 0 0 1-8 8h-174.08a8 8 0 0 1-8-8z" stroke="#000" stroke-opacity="0" fill="#6db1ff"/><use xlink:href="#x" transform="matrix(1,0,0,1,1317.3848257465197,1405.450156647517) translate(68.18958333333333 58.51432291666667)"/><path d="M1670.22 1405.45a8 8 0 0 1 8-8h174.07a8 8 0 0 1 8 8v105a8 8 0 0 1-8 8H1678.2a8 8 0 0 1-8-8z" stroke="#000" stroke-opacity="0" fill="#6db1ff"/><use xlink:href="#y" transform="matrix(1,0,0,1,1678.2188240747391,1405.450156647517) translate(70.159375 58.51432291666667)"/><path d="M709.88 1449.23v-.2a19.75 19.75 0 0 1 19.75-19.74 19.75 19.75 0 0 1 19.75 19.74 19.75 19.75 0 0 1-19.75 19.75 19.75 19.75 0 0 1-19.75-19.76v-.2" stroke="#333" fill="#fff"/><path d="M689.63 1437.3a8 8 0 0 1 8-8h64a8 8 0 0 1 8 8v142a8 8 0 0 1-8 8h-64a8 8 0 0 1-8-8z" fill="none"/><path d="M729.63 1468.8v55.3l40 63.2m-40-63.2l-40 63.2m0-98.76h80" stroke="#333" fill="none"/><use xlink:href="#z" transform="matrix(1,0,0,1,609.6254450240395,1587.2871831557754) translate(80.68893229166666 17.014322916666668)"/><path d="M732.46 1673.12h294.74M732.47 1673.12h-.5" stroke="#333" fill="none"/><path d="M1041.97 1673.12l-14.27 4.63v-9.27z" stroke="#333" fill="#333"/><use xlink:href="#A" transform="matrix(1,0,0,1,758.836885970309,1677.1157085898758) translate(0.0049999999999954525 16.01666666666667)"/><use xlink:href="#B" transform="matrix(1,0,0,1,758.836885970309,1677.1157085898758) translate(58.59822916666667 16.01666666666667)"/><use xlink:href="#C" transform="matrix(1,0,0,1,758.836885970309,1677.1157085898758) translate(103.27375 16.01666666666667)"/><use xlink:href="#D" transform="matrix(1,0,0,1,758.836885970309,1677.1157085898758) translate(132.65109375 16.01666666666667)"/><use xlink:href="#E" transform="matrix(1,0,0,1,758.836885970309,1677.1157085898758) translate(150.94432291666666 16.01666666666667)"/><use xlink:href="#F" transform="matrix(1,0,0,1,758.836885970309,1677.1157085898758) translate(192.75395833333334 16.01666666666667)"/><path d="M1764.76 2040h-10m-10 0h-19.98m-10 0h-20m-10 0h-19.98m-10 0h-19.98m-10 0h-20m-9.98 0H1573.9m-10.93 0h-21.87m-10.94 0h-21.87m-10.94 0h-21.88m-10.93 0h-21.87m-10.94 0h-10.93M1764.74 2040h.52" stroke="#333" fill="none"/><path d="M1406.04 2040l14.27-4.63v9.27z" stroke="#333" fill="#333"/><use xlink:href="#G" transform="matrix(1,0,0,1,1505.8082116254252,2043.999998749237) translate(0.0049999999999954525 17.4375)"/><use xlink:href="#H" transform="matrix(1,0,0,1,1505.8082116254252,2043.999998749237) translate(73.6221875 17.4375)"/><use xlink:href="#I" transform="matrix(1,0,0,1,1505.8082116254252,2043.999998749237) translate(100.2003125 17.4375)"/><use xlink:href="#J" transform="matrix(1,0,0,1,1505.8082116254252,2043.999998749237) translate(119.729609375 17.4375)"/><path d="M1044.1 1707.8h343.94M1044.1 1707.8h-.5" stroke="#333" fill="none"/><path d="M1402.8 1707.8l-14.26 4.62v-9.27z" stroke="#333" fill="#333"/><use xlink:href="#K" transform="matrix(1,0,0,1,1101.4020602306664,1711.7865627733256) translate(0.0049999999999954525 16.01666666666667)"/><use xlink:href="#L" transform="matrix(1,0,0,1,1101.4020602306664,1711.7865627733256) translate(77.8440625 16.01666666666667)"/><use xlink:href="#M" transform="matrix(1,0,0,1,1101.4020602306664,1711.7865627733256) translate(108.90057291666668 16.01666666666667)"/><use xlink:href="#N" transform="matrix(1,0,0,1,1101.4020602306664,1711.7865627733256) translate(158.03234375 16.01666666666667)"/><use xlink:href="#O" transform="matrix(1,0,0,1,1101.4020602306664,1711.7865627733256) translate(185.05239583333332 16.01666666666667)"/><path d="M1404.92 1740.6H1498a12 12 0 0 1 12 12v10.5a12 12 0 0 1-12 12h-77.2M1404.93 1740.6h-.5" stroke="#3a414a" fill="none"/><path d="M1406.04 1775.1l14.27-4.62v9.27z" stroke="#3a414a" fill="#3a414a"/><use xlink:href="#n" transform="matrix(1,0,0,1,1513.5941057846505,1767.0157692423816) translate(0.005000000000002558 17.4375)"/><use xlink:href="#P" transform="matrix(1,0,0,1,1513.5941057846505,1767.0157692423816) translate(44.6622265625 17.4375)"/><path d="M1404.92 2120h343.95M1404.93 2120h-.5" stroke="#333" fill="none"/><path d="M1763.64 2120l-14.27 4.63v-9.27z" stroke="#333" fill="#333"/><use xlink:href="#Q" transform="matrix(1,0,0,1,1476.138853947025,2123.9994999964874) translate(0.0049999999999954525 17.4375)"/><use xlink:href="#R" transform="matrix(1,0,0,1,1476.138853947025,2123.9994999964874) translate(91.37609375 17.4375)"/><use xlink:href="#S" transform="matrix(1,0,0,1,1476.138853947025,2123.9994999964874) translate(140.014765625 17.4375)"/><use xlink:href="#u" transform="matrix(1,0,0,1,1476.138853947025,2123.9994999964874) translate(171.9981640625 17.4375)"/><use xlink:href="#v" transform="matrix(1,0,0,1,1476.138853947025,2123.9994999964874) translate(191.9141796875 17.4375)"/><path d="M1764.76 2180h-10.43m-10.42 0h-20.83m-10.43 0h-20.84m-10.42 0h-20.85m-10.42 0h-20.84m-10.42 0H1598m-10.43 0h-20.85m-10.42 0h-20.84m-10.43 0h-20.84m-10.43 0h-20.85m-10.42 0h-20.85m-10.42 0h-10.42M1764.74 2180h.52" stroke="#333" fill="none"/><path d="M1406.04 2180l14.27-4.64v9.28z" stroke="#333" fill="#333"/><use xlink:href="#T" transform="matrix(1,0,0,1,1462.882412725553,2184) translate(0.0049999999999954525 17.4375)"/><use xlink:href="#U" transform="matrix(1,0,0,1,1462.882412725553,2184) translate(115.2735546875 17.4375)"/><path d="M1403.92 2220h-10.42m-10.42 0h-20.85m-10.42 0h-20.84m-10.42 0h-20.85m-10.43 0h-20.84m-10.43 0h-20.84m-10.42 0h-20.85m-10.43 0h-20.85m-10.42 0h-20.85m-10.42 0h-20.84m-10.44 0h-20.84m-10.42 0h-10.43M1403.9 2220h.52" stroke="#333" fill="none"/><path d="M1045.2 2220l14.27-4.64v9.28z" stroke="#333" fill="#333"/><use xlink:href="#T" transform="matrix(1,0,0,1,1036.3281995535833,2228.6352549156245) translate(0.0049999999999954525 17.4375)"/><use xlink:href="#H" transform="matrix(1,0,0,1,1036.3281995535833,2228.6352549156245) translate(115.2735546875 17.4375)"/><use xlink:href="#I" transform="matrix(1,0,0,1,1036.3281995535833,2228.6352549156245) translate(141.8516796875 17.4375)"/><use xlink:href="#V" transform="matrix(1,0,0,1,1036.3281995535833,2228.6352549156245) translate(161.3809765625 17.4375)"/><use xlink:href="#W" transform="matrix(1,0,0,1,1036.3281995535833,2228.6352549156245) translate(206.565546875 17.4375)"/><use xlink:href="#X" transform="matrix(1,0,0,1,1036.3281995535833,2228.6352549156245) translate(221.73546875 17.4375)"/><use xlink:href="#H" transform="matrix(1,0,0,1,1036.3281995535833,2228.6352549156245) translate(259.370234375 17.4375)"/><use xlink:href="#Y" transform="matrix(1,0,0,1,1036.3281995535833,2228.6352549156245) translate(285.948359375 17.4375)"/><path d="M1043.1 2286.32h-9.9m-9.92.02l-19.8.03m-9.9 0l-19.8.04m-9.9.02l-19.82.02m-9.9.02l-19.8.02m-9.9 0l-19.8.04m-9.92 0l-19.8.04m-9.9 0l-19.8.04m-9.9 0l-19.82.03m-9.9.02l-19.8.02m-9.9 0l-9.9.03M1043.08 2286.32h.5" stroke="#333" fill="none"/><path d="M731.24 2286.72l14.26-4.66v9.27z" stroke="#333" fill="#333"/><use xlink:href="#Z" transform="matrix(1,0,0,1,777.8668591829992,2290.494538126272) translate(0.0049999999999954525 17.4375)"/><use xlink:href="#H" transform="matrix(1,0,0,1,777.8668591829992,2290.494538126272) translate(87.034296875 17.4375)"/><use xlink:href="#R" transform="matrix(1,0,0,1,777.8668591829992,2290.494538126272) translate(113.612421875 17.4375)"/><use xlink:href="#S" transform="matrix(1,0,0,1,777.8668591829992,2290.494538126272) translate(162.25109375 17.4375)"/><use xlink:href="#u" transform="matrix(1,0,0,1,777.8668591829992,2290.494538126272) translate(194.2344921875 17.4375)"/><use xlink:href="#aa" transform="matrix(1,0,0,1,777.8668591829992,2290.494538126272) translate(214.1505078125 17.4375)"/><path d="M2449.63 1528.07v9.9m0 9.9v19.82m0 9.9v19.8m0 9.9v19.82m0 9.9v19.8m0 9.92v19.8m0 9.9v19.82m0 9.9V1746m0 9.9v19.8m0 9.9v19.82m0 9.9v19.82m0 9.9v19.8m0 9.92v19.8m0 9.9v19.82m0 9.9v19.8m0 9.92v19.8m0 9.9v19.82m0 9.9v19.82m0 9.9v19.8m0 9.92v19.8m0 9.9v19.82m0 9.9V2162m0 9.9v19.8m0 9.9v19.82m0 9.9v19.82m0 9.9v19.8m0 9.92v19.8m0 9.9v19.82m0 9.9V2370m0 9.9v19.8m0 9.9v9.92M2449.63 2419.5v.5M2763.6 1521.5v10.02m0 10.03v20.04m0 10v20.06m0 10.02v20.05m0 10.02v20.05m0 10.02v20.04m0 10.03v20.03m0 10.02V1742m0 10.02v20.05m0 10.02v20.04m0 10.02v20.04m0 10.02v20.05m0 10.02v20.04m0 10.02v20.05m0 10.03v20.04m0 10.03v20.04m0 10.03v20.04m0 10.03v20.05m0 10.02v20.05m0 10.02v20.04m0 10.04v20.04m0 10.03v20.05m0 10.02v20.05m0 10.02v20.05m0 10v20.05m0 10.03v20.04m0 10.03v20.04m0 10v10.04" stroke="#333" fill="none"/><path d="M2764.06 1521.5h-.95v-.5h.96z" stroke="#333" stroke-width=".05" fill="#333"/><path d="M2763.6 2333.32v.52" stroke="#333" fill="none"/><path d="M3124.42 1521.5v10.15m0 10.13v20.28m0 10.13v20.26m0 10.14v20.27m0 10.14v20.28m0 10.14v20.27m0 10.13v20.27m0 10.13v20.28m0 10.14v20.28m0 10.13v20.28m0 10.13v20.27m0 10.14v20.27m0 10.14v20.27m0 10.14v20.26m0 10.13v20.27m0 10.13v20.28m0 10.13v20.28m0 10.14v20.27m0 10.13V2079m0 10.14v20.27m0 10.14v20.28m0 10.13v20.28m0 10.13v20.28m0 10.13v20.27m0 10.14v20.27m0 10.14v20.26m0 10.14v20.27m0 10.14v10.14" stroke="#333" stroke-linejoin="round" fill="none"/><path d="M3124.9 1521.53h-.95v-.53h.95z" stroke="#333" stroke-width=".05" fill="#333"/><path d="M3124.42 2342.53v.5M3485.26 1521.5v9.76m0 9.77v19.52m0 9.77v19.52m0 9.77v19.53m0 9.76v19.52m0 9.76v19.53m0 9.77V1707m0 9.76v19.53m0 9.75v19.53m0 9.76v19.53m0 9.76v19.53m0 9.76v19.53m0 9.76v19.54m0 9.76v19.53m0 9.76v19.52m0 9.76v19.53m0 9.77v19.52m0 9.76v19.52m0 9.77v19.52m0 9.77v19.52m0 9.77v19.52m0 9.76v19.54m0 9.76v19.53m0 9.76v19.52m0 9.76v19.53m0 9.77v19.53m0 9.76v19.53m0 9.75v19.53m0 9.76v9.76" stroke="#333" fill="none"/><path d="M3485.73 1521.5h-.95v-.5h.95z" stroke="#333" stroke-width=".05" fill="#333"/><path d="M3485.26 2341.6v.5M3124.92 1899.33h343.95M3124.93 1899.33h-.5" stroke="#333" fill="none"/><path d="M3483.64 1899.33l-14.27 4.64v-9.27z" stroke="#333" fill="#333"/><use xlink:href="#ab" transform="matrix(1,0,0,1,3167.202725225551,1903.3333333333326) translate(0.0049999999999954525 17.4375)"/><use xlink:href="#ac" transform="matrix(1,0,0,1,3167.202725225551,1903.3333333333326) translate(86.296015625 17.4375)"/><use xlink:href="#ad" transform="matrix(1,0,0,1,3167.202725225551,1903.3333333333326) translate(115.7130078125 17.4375)"/><use xlink:href="#H" transform="matrix(1,0,0,1,3167.202725225551,1903.3333333333326) translate(156.09875 17.4375)"/><use xlink:href="#ae" transform="matrix(1,0,0,1,3167.202725225551,1903.3333333333326) translate(182.676875 17.4375)"/><path d="M2668.55 1408a8 8 0 0 1 8-8h174.08a8 8 0 0 1 8 8v105a8 8 0 0 1-8 8h-174.08a8 8 0 0 1-8-8z" stroke="#000" stroke-opacity="0" fill="#6db1ff"/><g><use xlink:href="#w" transform="matrix(1,0,0,1,2676.5508274183,1408) translate(67.34192708333333 58.51432291666667)"/></g><path d="M3029.4 1408a8 8 0 0 1 8-8h174.06a8 8 0 0 1 8 8v105a8 8 0 0 1-8 8H3037.4a8 8 0 0 1-8-8z" stroke="#000" stroke-opacity="0" fill="#6db1ff"/><g><use xlink:href="#x" transform="matrix(1,0,0,1,3037.3848257465197,1408) translate(68.18958333333333 58.51432291666667)"/></g><path d="M3390.22 1408a8 8 0 0 1 8-8h174.07a8 8 0 0 1 8 8v105a8 8 0 0 1-8 8H3398.2a8 8 0 0 1-8-8z" stroke="#000" stroke-opacity="0" fill="#6db1ff"/><g><use xlink:href="#y" transform="matrix(1,0,0,1,3398.2188240747387,1408) translate(70.159375 58.51432291666667)"/></g><path d="M2429.88 1451.8v-.2a19.75 19.75 0 0 1 19.74-19.76 19.75 19.75 0 0 1 19.76 19.75 19.75 19.75 0 0 1-19.76 19.74 19.75 19.75 0 0 1-19.74-19.75v-.2" stroke="#333" fill="#fff"/><path d="M2409.63 1439.84a8 8 0 0 1 8-8h64a8 8 0 0 1 8 8v142a8 8 0 0 1-8 8h-64a8 8 0 0 1-8-8z" fill="none"/><path d="M2449.63 1471.34v55.3l40 63.2m-40-63.2l-40 63.2m0-98.75h80" stroke="#333" fill="none"/><g><use xlink:href="#z" transform="matrix(1,0,0,1,2329.6254450240394,1589.8370265082585) translate(80.68893229166666 17.014322916666668)"/></g><path d="M2450.13 1675.66h297.07M2450.14 1675.66h-.5" stroke="#333" fill="none"/><path d="M2761.97 1675.67l-14.26 4.63v-9.27z" stroke="#333" fill="#333"/><g><use xlink:href="#af" transform="matrix(1,0,0,1,2537.279413769321,1679.665051940193) translate(0.0049999999999954525 16.01666666666667)"/><use xlink:href="#ag" transform="matrix(1,0,0,1,2537.279413769321,1679.665051940193) translate(51.95421875 16.01666666666667)"/><use xlink:href="#ah" transform="matrix(1,0,0,1,2537.279413769321,1679.665051940193) translate(69.89223958333334 16.01666666666667)"/></g><path d="M3484.76 1977.33h-10.43m-10.42 0h-20.83m-10.43 0h-20.84m-10.43 0h-20.84m-10.42 0h-20.84m-10.42 0H3318m-10.43 0h-20.85m-10.42 0h-20.84m-10.43 0h-20.84m-10.43 0h-20.85m-10.42 0h-20.85m-10.42 0h-10.42M3484.74 1977.33h.52" stroke="#333" fill="none"/><path d="M3126.04 1977.33l14.27-4.63v9.27z" stroke="#333" fill="#333"/><g><use xlink:href="#ai" transform="matrix(1,0,0,1,3246.484463506802,1981.332333333333) translate(0.005000000000002558 17.4375)"/><use xlink:href="#aj" transform="matrix(1,0,0,1,3246.484463506802,1981.332333333333) translate(45.3126171875 17.4375)"/><use xlink:href="#ak" transform="matrix(1,0,0,1,3246.484463506802,1981.332333333333) translate(81.39171875 17.4375)"/></g><path d="M2764.1 1762.56h343.94M2764.1 1762.56h-.5" stroke="#333" fill="none"/><path d="M3122.8 1762.56l-14.26 4.63v-9.28z" stroke="#333" fill="#333"/><g><use xlink:href="#K" transform="matrix(1,0,0,1,2786.9750918193513,1766.5585500916698) translate(0.0049999999999954525 16.01666666666667)"/><use xlink:href="#L" transform="matrix(1,0,0,1,2786.9750918193513,1766.5585500916698) translate(77.8440625 16.01666666666667)"/><use xlink:href="#al" transform="matrix(1,0,0,1,2786.9750918193513,1766.5585500916698) translate(108.90057291666668 16.01666666666667)"/><use xlink:href="#N" transform="matrix(1,0,0,1,2786.9750918193513,1766.5585500916698) translate(146.49614583333334 16.01666666666667)"/><use xlink:href="#am" transform="matrix(1,0,0,1,2786.9750918193513,1766.5585500916698) translate(173.51619791666667 16.01666666666667)"/></g><path d="M3124.92 1798.67H3218a12 12 0 0 1 12 12v18a12 12 0 0 1-12 12h-77.2M3124.93 1798.67h-.5" stroke="#3a414a" fill="none"/><path d="M3126.04 1840.67l14.27-4.64v9.27z" stroke="#3a414a" fill="#3a414a"/><g><use xlink:href="#n" transform="matrix(1,0,0,1,3236.3622942496327,1830.8151300433522) translate(0.005000000000002558 17.4375)"/><use xlink:href="#P" transform="matrix(1,0,0,1,3236.3622942496327,1830.8151300433522) translate(44.6622265625 17.4375)"/></g><path d="M3124.92 2103.33h343.95M3124.93 2103.33h-.5" stroke="#333" fill="none"/><path d="M3483.64 2103.33l-14.27 4.64v-9.27z" stroke="#333" fill="#333"/><g><use xlink:href="#ab" transform="matrix(1,0,0,1,3188.426217665947,2107.3307709891583) translate(0.0049999999999954525 17.4375)"/><use xlink:href="#ac" transform="matrix(1,0,0,1,3188.426217665947,2107.3307709891583) translate(86.296015625 17.4375)"/><use xlink:href="#ad" transform="matrix(1,0,0,1,3188.426217665947,2107.3307709891583) translate(115.7130078125 17.4375)"/><use xlink:href="#an" transform="matrix(1,0,0,1,3188.426217665947,2107.3307709891583) translate(156.09875 17.4375)"/></g><path d="M3484.76 2182.55h-10m-10 0h-20m-9.98 0h-20m-10 0h-19.98m-10 0h-19.98m-10 0h-20m-10 0h-20.92m-10.93 0h-21.87m-10.94 0h-21.87m-10.95 0h-21.87m-10.93 0h-21.87m-10.94 0h-10.93M3484.74 2182.55h.52" stroke="#333" fill="none"/><path d="M3126.04 2182.55l14.27-4.64v9.3z" stroke="#333" fill="#333"/><g><use xlink:href="#ai" transform="matrix(1,0,0,1,3246.484474622488,2186.5503237833464) translate(0.005000000000002558 17.4375)"/><use xlink:href="#aj" transform="matrix(1,0,0,1,3246.484474622488,2186.5503237833464) translate(45.3126171875 17.4375)"/><use xlink:href="#ak" transform="matrix(1,0,0,1,3246.484474622488,2186.5503237833464) translate(81.39171875 17.4375)"/></g><path d="M3123.92 2222.55h-10m-10 0h-19.98m-10 0h-20m-9.98 0h-20m-10 0H2994m-10 0H2964m-10 0h-20.93m-10.94 0h-21.87m-10.93 0h-21.87m-10.94 0h-21.87m-10.93 0h-21.88m-10.93 0h-10.93M3123.9 2222.55h.52" stroke="#333" fill="none"/><path d="M2765.2 2222.55l14.27-4.64v9.28z" stroke="#333" fill="#333"/><g><use xlink:href="#ab" transform="matrix(1,0,0,1,2809.642648769192,2226.550204649311) translate(0.0049999999999954525 17.4375)"/><use xlink:href="#ac" transform="matrix(1,0,0,1,2809.642648769192,2226.550204649311) translate(86.296015625 17.4375)"/><use xlink:href="#ao" transform="matrix(1,0,0,1,2809.642648769192,2226.550204649311) translate(115.7130078125 17.4375)"/></g><path d="M2763.1 2288.87h-10.44m-10.44 0h-20.86m-10.43 0h-20.87m-10.43 0h-20.86m-10.43 0h-20.87m-10.43 0H2597.24m-9.37 0h-18.75m-9.36 0H2541m-9.38 0h-18.74m-9.38 0h-18.74m-9.38 0H2466M2763.08 2288.87h.5" stroke="#333" fill="none"/><path d="M2451.24 2288.86l14.27-4.63v9.27z" stroke="#333" fill="#333"/><g><use xlink:href="#Z" transform="matrix(1,0,0,1,2481.175723932683,2292.866158134613) translate(0.0049999999999954525 17.4375)"/><use xlink:href="#aj" transform="matrix(1,0,0,1,2481.175723932683,2292.866158134613) translate(87.034296875 17.4375)"/><use xlink:href="#ad" transform="matrix(1,0,0,1,2481.175723932683,2292.866158134613) translate(123.1133984375 17.4375)"/><use xlink:href="#ap" transform="matrix(1,0,0,1,2481.175723932683,2292.866158134613) translate(163.499140625 17.4375)"/></g><path d="M1404.92 1920.12h89.6a11.05 11.05 0 0 1 11.06 11.05 11.05 11.05 0 0 1-11.05 11.05h-73.72M1404.93 1920.12h-.5" stroke="#3a414a" fill="none"/><path d="M1406.04 1942.22l14.27-4.63v9.26z" stroke="#3a414a" fill="#3a414a"/><g><use xlink:href="#aq" transform="matrix(1,0,0,1,1513.5775551885567,1920.2827284762727) translate(0.0049999999999954525 17.4375)"/><use xlink:href="#H" transform="matrix(1,0,0,1,1513.5775551885567,1920.2827284762727) translate(78.36828125 17.4375)"/><use xlink:href="#ar" transform="matrix(1,0,0,1,1513.5775551885567,1920.2827284762727) translate(104.94640625 17.4375)"/><use xlink:href="#aj" transform="matrix(1,0,0,1,1513.5775551885567,1920.2827284762727) translate(169.9591015625 17.4375)"/><use xlink:href="#as" transform="matrix(1,0,0,1,1513.5775551885567,1920.2827284762727) translate(206.038203125 17.4375)"/></g><path d="M3124.92 2025.33h115.4a12 12 0 0 1 12 12v18a12 12 0 0 1-12 12h-99.5M3124.93 2025.33h-.5" stroke="#3a414a" fill="none"/><path d="M3126.04 2067.33l14.27-4.63v9.27z" stroke="#3a414a" fill="#3a414a"/><g><use xlink:href="#at" transform="matrix(1,0,0,1,3260.3102207542265,2035.4436848958323) translate(0.0049999999999954525 17.4375)"/><use xlink:href="#aj" transform="matrix(1,0,0,1,3260.3102207542265,2035.4436848958323) translate(72.7872265625 17.4375)"/><use xlink:href="#ad" transform="matrix(1,0,0,1,3260.3102207542265,2035.4436848958323) translate(108.866328125 17.4375)"/><use xlink:href="#au" transform="matrix(1,0,0,1,3260.3102207542265,2035.4436848958323) translate(149.2520703125 17.4375)"/><use xlink:href="#aj" transform="matrix(1,0,0,1,3260.3102207542265,2035.4436848958323) translate(170.6973828125 17.4375)"/><use xlink:href="#av" transform="matrix(1,0,0,1,3260.3102207542265,2035.4436848958323) translate(206.776484375 17.4375)"/><use xlink:href="#an" transform="matrix(1,0,0,1,3260.3102207542265,2035.4436848958323) translate(270.479609375 17.4375)"/></g><path d="M1403.92 1830.35h-10.42m-10.42 0h-20.85m-10.42 0h-20.84m-10.42 0h-20.85m-10.43 0h-20.84m-10.43 0h-20.84m-10.42 0h-20.85m-10.43 0h-20.85m-10.42 0h-20.85m-10.42 0h-20.84m-10.44 0h-20.84m-10.42 0h-10.43M1403.9 1830.35h.52" stroke="#333" fill="none"/><path d="M1045.2 1830.35l14.27-4.63v9.27z" stroke="#333" fill="#333"/><g><use xlink:href="#aw" transform="matrix(1,0,0,1,1125.690992522333,1804.5751828663892) translate(0.0049999999999954525 17.4375)"/><use xlink:href="#ax" transform="matrix(1,0,0,1,1125.690992522333,1804.5751828663892) translate(5.0674999999999955 17.4375)"/><use xlink:href="#ay" transform="matrix(1,0,0,1,1125.690992522333,1804.5751828663892) translate(62.398554687499995 17.4375)"/></g><path d="M1043.1 1866.6h-9.9m-9.92 0h-19.8m-9.9 0h-19.8m-9.9 0h-19.82m-9.9 0h-19.8m-9.9 0h-19.8m-9.92 0h-19.8m-9.9 0h-19.8m-9.9 0H795.5m-9.9 0h-19.8m-9.9 0H746M1043.08 1866.6h.5" stroke="#333" fill="none"/><path d="M731.24 1866.6l14.27-4.63v9.27z" stroke="#333" fill="#333"/><g><use xlink:href="#Z" transform="matrix(1,0,0,1,731.8667857576169,1875.2417171336456) translate(0.0049999999999954525 17.4375)"/><use xlink:href="#az" transform="matrix(1,0,0,1,731.8667857576169,1875.2417171336456) translate(87.034296875 17.4375)"/><use xlink:href="#aA" transform="matrix(1,0,0,1,731.8667857576169,1875.2417171336456) translate(152.7501171875 17.4375)"/></g><defs><path fill="#fff" d="M180 0v-1490h510c348 0 508 194 508 460 0 198-88 351-276 417L1256 0h-220L726-579c-117 2-238 0-356 1V0H180zm190-747h312c235 0 327-108 327-283 0-177-92-293-329-293H370v576" id="aB"/><path fill="#fff" d="M628 24c-324 0-524-230-524-574 0-343 198-582 503-582 237 0 487 146 487 559v75H286c9 234 145 362 343 362 132 0 231-58 273-172l174 48C1024-91 857 24 628 24zM287-650h624c-17-190-120-322-304-322-192 0-309 151-320 322zm237-614l140-294h201l-194 294H524" id="aC"/><path fill="#fff" d="M577 24c-279 0-473-224-473-580 0-354 195-576 474-576 218 0 287 134 324 193h14v-551h180V0H922v-173h-20C865-111 790 24 577 24zm27-161c203 0 314-172 314-421 0-247-108-413-314-413-212 0-317 181-317 413 0 235 108 421 317 421" id="aD"/><path fill="#fff" d="M158 0v-1118h180V0H158zm91-1301c-68 0-125-53-125-119s57-119 125-119c69 0 126 53 126 119s-57 119-126 119" id="aE"/><path fill="#fff" d="M611 442c-248 0-391-105-460-228l146-94c47 65 117 165 314 165 178 0 307-82 307-266v-224h-17C863-141 792-18 576-18c-268 0-472-195-472-546 0-346 197-568 476-568 216 0 288 133 326 193h17v-179h175V29c0 289-215 413-487 413zm-5-620c203 0 314-146 314-390 0-237-108-403-314-403-213 0-319 180-319 403 0 230 109 390 319 390" id="aF"/><path fill="#fff" d="M628 24c-324 0-524-230-524-574 0-343 198-582 503-582 237 0 487 146 487 559v75H286c9 234 145 362 343 362 132 0 231-58 273-172l174 48C1024-91 857 24 628 24zM287-650h624c-17-190-120-322-304-322-192 0-309 151-320 322" id="aG"/><path fill="#fff" d="M158 0v-1118h174v172h12c41-113 157-188 290-188 26 0 70 2 91 3v181c-11-2-60-10-108-10-161 0-279 109-279 260V0H158" id="aH"/><g id="a"><use transform="matrix(0.026041666666666668,0,0,0.026041666666666668,0,0)" xlink:href="#aB"/><use transform="matrix(0.026041666666666668,0,0,0.026041666666666668,33.54166666666667,0)" xlink:href="#aC"/><use transform="matrix(0.026041666666666668,0,0,0.026041666666666668,64.63541666666667,0)" xlink:href="#aD"/><use transform="matrix(0.026041666666666668,0,0,0.026041666666666668,97.29166666666667,0)" xlink:href="#aE"/><use transform="matrix(0.026041666666666668,0,0,0.026041666666666668,110.20833333333334,0)" xlink:href="#aF"/><use transform="matrix(0.026041666666666668,0,0,0.026041666666666668,142.91666666666669,0)" xlink:href="#aG"/><use transform="matrix(0.026041666666666668,0,0,0.026041666666666668,174.01041666666669,0)" xlink:href="#aH"/></g><path fill="#fff" d="M537 14c-226 0-379-139-379-422v-710h180v695c0 172 97 275 253 275 160 0 281-109 281-300v-670h181V0H879v-209C806-46 684 14 537 14" id="aI"/><path fill="#fff" d="M338-670V0H158v-1118h173l1 207c72-158 192-221 342-221 226 0 378 139 378 422V0H872v-695c0-172-96-275-252-275-161 0-282 109-282 300" id="aJ"/><g id="b"><use transform="matrix(0.026041666666666668,0,0,0.026041666666666668,0,0)" xlink:href="#aI"/><use transform="matrix(0.026041666666666668,0,0,0.026041666666666668,31.536458333333336,0)" xlink:href="#aJ"/></g><path fill="#fff" d="M471 26C259 26 90-98 90-318c0-256 228-303 435-329 202-27 287-16 287-108 0-139-79-219-234-219-161 0-248 86-283 164l-173-57c86-203 278-265 451-265 150 0 419 46 419 395V0H815v-152h-12C765-73 660 26 471 26zm31-159c199 0 310-134 310-271v-155c-30 35-226 55-295 64-131 17-246 59-246 186 0 116 97 176 231 176" id="aK"/><path fill="#fff" d="M481 0L54-1118h197c107 314 236 620 325 951 87-331 217-637 324-951h197L670 0H481" id="aL"/><path fill="#fff" d="M538 24C308 24 148-78 108-271l171-41c32 123 123 178 257 178 156 0 256-77 256-169 0-77-54-128-164-154l-186-44c-203-48-300-148-300-305 0-192 176-326 414-326 230 0 351 112 402 269l-163 42c-31-80-94-158-238-158-133 0-233 69-233 162 0 83 57 129 188 160l169 40c203 48 298 149 298 302 0 196-179 339-441 339" id="aM"/><g id="c"><use transform="matrix(0.026041666666666668,0,0,0.026041666666666668,0,0)" xlink:href="#aK"/><use transform="matrix(0.026041666666666668,0,0,0.026041666666666668,29.166666666666668,0)" xlink:href="#aL"/><use transform="matrix(0.026041666666666668,0,0,0.026041666666666668,59.140625,0)" xlink:href="#aE"/><use transform="matrix(0.026041666666666668,0,0,0.026041666666666668,72.05729166666667,0)" xlink:href="#aM"/></g><g id="d"><use transform="matrix(0.026041666666666668,0,0,0.026041666666666668,0,0)" xlink:href="#aM"/><use transform="matrix(0.026041666666666668,0,0,0.026041666666666668,28.151041666666668,0)" xlink:href="#aI"/><use transform="matrix(0.026041666666666668,0,0,0.026041666666666668,59.6875,0)" xlink:href="#aH"/></g><path fill="#fff" d="M157-1118h181V80c1 225-123 350-364 338V252c126 9 184-48 183-172v-1198zm91-183c-68 0-125-53-125-119s57-119 125-119c69 0 126 53 126 119s-57 119-126 119" id="aN"/><g id="e"><use transform="matrix(0.026041666666666668,0,0,0.026041666666666668,0,0)" xlink:href="#aN"/><use transform="matrix(0.026041666666666668,0,0,0.026041666666666668,12.916666666666668,0)" xlink:href="#aG"/><use transform="matrix(0.026041666666666668,0,0,0.026041666666666668,44.01041666666667,0)" xlink:href="#aI"/></g><path fill="#fff" d="M158 418v-1536h174v179h20c37-59 106-193 324-193 279 0 474 222 474 576 0 356-194 580-473 580-213 0-288-135-325-197h-14v591H158zm492-555c209 0 317-186 317-421 0-232-105-413-317-413-206 0-314 166-314 413 0 249 111 421 314 421" id="aO"/><path fill="#fff" d="M613 24c-304 0-509-231-509-576 0-350 205-580 509-580 305 0 511 230 511 580 0 345-206 576-511 576zm0-161c226 0 329-195 329-415 0-222-103-419-329-419-223 0-326 196-326 419 0 220 103 415 326 415" id="aP"/><g id="f"><use transform="matrix(0.026041666666666668,0,0,0.026041666666666668,0,0)" xlink:href="#aO"/><use transform="matrix(0.026041666666666668,0,0,0.026041666666666668,32.65625,0)" xlink:href="#aP"/><use transform="matrix(0.026041666666666668,0,0,0.026041666666666668,64.63541666666667,0)" xlink:href="#aM"/><use transform="matrix(0.026041666666666668,0,0,0.026041666666666668,92.78645833333334,0)" xlink:href="#aM"/><use transform="matrix(0.026041666666666668,0,0,0.026041666666666668,120.9375,0)" xlink:href="#aC"/><use transform="matrix(0.026041666666666668,0,0,0.026041666666666668,152.03125,0)" xlink:href="#aD"/><use transform="matrix(0.026041666666666668,0,0,0.026041666666666668,184.6875,0)" xlink:href="#aC"/></g><path fill="#979ea8" d="M657 26c-323 0-524-166-541-416h195c15 169 171 246 346 246 202 0 356-106 356-265 5-203-294-238-475-293-239-73-380-191-380-389 0-252 224-419 512-419 294 0 499 171 508 396H992c-17-145-151-228-328-228-193 0-321 102-321 242 0 156 175 211 284 241l149 41c160 44 422 134 422 412 0 244-197 432-541 432" id="aQ"/><path fill="#979ea8" d="M471 26C259 26 90-98 90-318c0-256 228-303 435-329 202-27 287-16 287-108 0-139-79-219-234-219-161 0-248 86-283 164l-173-57c86-203 278-265 451-265 150 0 419 46 419 395V0H815v-152h-12C765-73 660 26 471 26zm31-159c199 0 310-134 310-271v-155c-30 35-226 55-295 64-131 17-246 59-246 186 0 116 97 176 231 176" id="aR"/><path fill="#979ea8" d="M158 0v-1118h180V0H158zm91-1301c-68 0-125-53-125-119s57-119 125-119c69 0 126 53 126 119s-57 119-126 119" id="aS"/><path fill="#979ea8" d="M538 24C308 24 148-78 108-271l171-41c32 123 123 178 257 178 156 0 256-77 256-169 0-77-54-128-164-154l-186-44c-203-48-300-148-300-305 0-192 176-326 414-326 230 0 351 112 402 269l-163 42c-31-80-94-158-238-158-133 0-233 69-233 162 0 83 57 129 188 160l169 40c203 48 298 149 298 302 0 196-179 339-441 339" id="aT"/><path fill="#979ea8" d="M628 24c-324 0-524-230-524-574 0-343 198-582 503-582 237 0 487 146 487 559v75H286c9 234 145 362 343 362 132 0 231-58 273-172l174 48C1024-91 857 24 628 24zM287-650h624c-17-190-120-322-304-322-192 0-309 151-320 322" id="aU"/><path fill="#979ea8" d="M126 0v-134l627-806v-11H146v-167h839v143L376-178v11h629V0H126" id="aV"/><g id="g"><use transform="matrix(0.0087890625,0,0,0.0087890625,0,0)" xlink:href="#aQ"/><use transform="matrix(0.0087890625,0,0,0.0087890625,11.548828125,0)" xlink:href="#aR"/><use transform="matrix(0.0087890625,0,0,0.0087890625,21.65625,0)" xlink:href="#aS"/><use transform="matrix(0.0087890625,0,0,0.0087890625,26.015625,0)" xlink:href="#aT"/><use transform="matrix(0.0087890625,0,0,0.0087890625,35.5166015625,0)" xlink:href="#aS"/><use transform="matrix(0.0087890625,0,0,0.0087890625,39.8759765625,0)" xlink:href="#aT"/><use transform="matrix(0.0087890625,0,0,0.0087890625,49.376953125,0)" xlink:href="#aT"/><use transform="matrix(0.0087890625,0,0,0.0087890625,58.8779296875,0)" xlink:href="#aU"/><use transform="matrix(0.0087890625,0,0,0.0087890625,69.1083984375,0)" xlink:href="#aV"/></g><path fill="#979ea8" d="M577 24c-279 0-473-224-473-580 0-354 195-576 474-576 218 0 287 134 324 193h14v-551h180V0H922v-173h-20C865-111 790 24 577 24zm27-161c203 0 314-172 314-421 0-247-108-413-314-413-212 0-317 181-317 413 0 235 108 421 317 421" id="aW"/><path fill="#979ea8" d="M537 14c-226 0-379-139-379-422v-710h180v695c0 172 97 275 253 275 160 0 281-109 281-300v-670h181V0H879v-209C806-46 684 14 537 14" id="aX"/><g id="h"><use transform="matrix(0.0087890625,0,0,0.0087890625,0,0)" xlink:href="#aW"/><use transform="matrix(0.0087890625,0,0,0.0087890625,11.021484375,0)" xlink:href="#aX"/></g><path fill="#979ea8" d="M598-1118v154H368v674c0 100 37 144 132 144 23 0 62-6 92-12L629-6c-37 13-88 20-134 20-193 0-307-107-307-290v-688H20v-154h168v-266h180v266h230" id="aY"/><path fill="#979ea8" d="M65 0l393-574-370-544h210c88 136 192 297 267 435 67-142 176-302 264-435h206L661-564 1053 0H844c-94-144-206-310-287-458C484-308 366-142 273 0H65" id="aZ"/><g id="i"><use transform="matrix(0.0087890625,0,0,0.0087890625,0,0)" xlink:href="#aY"/><use transform="matrix(0.0087890625,0,0,0.0087890625,5.712890625,0)" xlink:href="#aU"/><use transform="matrix(0.0087890625,0,0,0.0087890625,15.802734375,0)" xlink:href="#aZ"/><use transform="matrix(0.0087890625,0,0,0.0087890625,25.98046875,0)" xlink:href="#aY"/><use transform="matrix(0.0087890625,0,0,0.0087890625,31.693359375,0)" xlink:href="#aU"/></g><path fill="#fff" d="M657 26c-323 0-524-166-541-416h195c15 169 171 246 346 246 202 0 356-106 356-265 5-203-294-238-475-293-239-73-380-191-380-389 0-252 224-419 512-419 294 0 499 171 508 396H992c-17-145-151-228-328-228-193 0-321 102-321 242 0 156 175 211 284 241l149 41c160 44 422 134 422 412 0 244-197 432-541 432" id="ba"/><path fill="#fff" d="M140 405l46-156c120 36 205 19 263-150l32-93L54-1118h197c107 313 237 620 324 950 87-331 219-637 326-950h196L606 167c-68 178-176 259-334 259-64 0-113-12-132-21" id="bb"/><path fill="#fff" d="M598-1118v154H368v674c0 100 37 144 132 144 23 0 62-6 92-12L629-6c-37 13-88 20-134 20-193 0-307-107-307-290v-688H20v-154h168v-266h180v266h230" id="bc"/><path fill="#fff" d="M628 24c-324 0-524-230-524-574 0-343 198-582 503-582 237 0 487 146 487 559v75H286c9 234 145 362 343 362 132 0 231-58 273-172l174 48C1024-91 857 24 628 24zM287-650h624c-17-190-120-322-304-322-192 0-309 151-320 322zm245-614l-193-294h201l140 294H532" id="bd"/><path fill="#fff" d="M158 0v-1118h175l1 205c55-151 181-225 313-225 147 0 245 90 285 228 53-141 190-228 352-228 194 0 352 125 352 384V0h-181v-749c0-161-105-225-225-225-151 0-243 103-243 244V0H807v-767c0-124-93-207-219-207-131 0-250 92-250 270V0H158" id="be"/><g id="j"><use transform="matrix(0.026041666666666668,0,0,0.026041666666666668,0,0)" xlink:href="#ba"/><use transform="matrix(0.026041666666666668,0,0,0.026041666666666668,34.21875,0)" xlink:href="#bb"/><use transform="matrix(0.026041666666666668,0,0,0.026041666666666668,64.19270833333334,0)" xlink:href="#aM"/><use transform="matrix(0.026041666666666668,0,0,0.026041666666666668,92.34375000000001,0)" xlink:href="#bc"/><use transform="matrix(0.026041666666666668,0,0,0.026041666666666668,109.27083333333336,0)" xlink:href="#bd"/><use transform="matrix(0.026041666666666668,0,0,0.026041666666666668,140.36458333333337,0)" xlink:href="#be"/><use transform="matrix(0.026041666666666668,0,0,0.026041666666666668,187.08333333333337,0)" xlink:href="#aG"/></g><g id="k"><use transform="matrix(0.026041666666666668,0,0,0.026041666666666668,0,0)" xlink:href="#aD"/><use transform="matrix(0.026041666666666668,0,0,0.026041666666666668,32.65625,0)" xlink:href="#aG"/></g><path fill="#fff" d="M613 24c-304 0-509-231-509-576 0-350 205-580 509-580 216 0 392 114 453 309l-173 49c-33-115-133-197-280-197-223 0-326 196-326 419 0 220 103 415 326 415 150 0 252-85 285-206l172 49C1010-95 832 24 613 24" id="bf"/><g id="l"><use transform="matrix(0.026041666666666668,0,0,0.026041666666666668,0,0)" xlink:href="#aH"/><use transform="matrix(0.026041666666666668,0,0,0.026041666666666668,19.192708333333332,0)" xlink:href="#aG"/><use transform="matrix(0.026041666666666668,0,0,0.026041666666666668,50.28645833333333,0)" xlink:href="#bf"/><use transform="matrix(0.026041666666666668,0,0,0.026041666666666668,80.75520833333333,0)" xlink:href="#aP"/><use transform="matrix(0.026041666666666668,0,0,0.026041666666666668,112.734375,0)" xlink:href="#be"/><use transform="matrix(0.026041666666666668,0,0,0.026041666666666668,159.453125,0)" xlink:href="#be"/><use transform="matrix(0.026041666666666668,0,0,0.026041666666666668,206.171875,0)" xlink:href="#aK"/><use transform="matrix(0.026041666666666668,0,0,0.026041666666666668,236.11979166666669,0)" xlink:href="#aJ"/><use transform="matrix(0.026041666666666668,0,0,0.026041666666666668,267.6302083333333,0)" xlink:href="#aD"/><use transform="matrix(0.026041666666666668,0,0,0.026041666666666668,301.0677083333333,0)" xlink:href="#bc"/><use transform="matrix(0.026041666666666668,0,0,0.026041666666666668,318.515625,0)" xlink:href="#aE"/><use transform="matrix(0.026041666666666668,0,0,0.026041666666666668,331.4322916666667,0)" xlink:href="#aP"/><use transform="matrix(0.026041666666666668,0,0,0.026041666666666668,363.41145833333337,0)" xlink:href="#aJ"/><use transform="matrix(0.026041666666666668,0,0,0.026041666666666668,394.92187500000006,0)" xlink:href="#aM"/></g><path fill="#3a414a" d="M52 0l541-1490h220L1361 0h-200l-149-416H398L254 0H52zm404-582h497c-103-290-145-390-251-756-108 377-145 460-246 756" id="bg"/><path fill="#3a414a" d="M338-1490V0H158v-1490h180" id="bh"/><path fill="#3a414a" d="M598-1118v154H368v674c0 100 37 144 132 144 23 0 62-6 92-12L629-6c-37 13-88 20-134 20-193 0-307-107-307-290v-688H20v-154h168v-266h180v266h230" id="bi"/><path fill="#3a414a" d="M628 24c-324 0-524-230-524-574 0-343 198-582 503-582 237 0 487 146 487 559v75H286c9 234 145 362 343 362 132 0 231-58 273-172l174 48C1024-91 857 24 628 24zM287-650h624c-17-190-120-322-304-322-192 0-309 151-320 322" id="bj"/><path fill="#3a414a" d="M158 0v-1118h174v172h12c41-113 157-188 290-188 26 0 70 2 91 3v181c-11-2-60-10-108-10-161 0-279 109-279 260V0H158" id="bk"/><path fill="#3a414a" d="M338-670V0H158v-1118h173l1 207c72-158 192-221 342-221 226 0 378 139 378 422V0H872v-695c0-172-96-275-252-275-161 0-282 109-282 300" id="bl"/><path fill="#3a414a" d="M471 26C259 26 90-98 90-318c0-256 228-303 435-329 202-27 287-16 287-108 0-139-79-219-234-219-161 0-248 86-283 164l-173-57c86-203 278-265 451-265 150 0 419 46 419 395V0H815v-152h-12C765-73 660 26 471 26zm31-159c199 0 310-134 310-271v-155c-30 35-226 55-295 64-131 17-246 59-246 186 0 116 97 176 231 176" id="bm"/><path fill="#3a414a" d="M158 0v-1118h180V0H158zm91-1301c-68 0-125-53-125-119s57-119 125-119c69 0 126 53 126 119s-57 119-126 119" id="bn"/><path fill="#3a414a" d="M481 0L54-1118h197c107 314 236 620 325 951 87-331 217-637 324-951h197L670 0H481" id="bo"/><g id="m"><use transform="matrix(0.0087890625,0,0,0.0087890625,0,0)" xlink:href="#bg"/><use transform="matrix(0.0087890625,0,0,0.0087890625,12.4189453125,0)" xlink:href="#bh"/><use transform="matrix(0.0087890625,0,0,0.0087890625,17.0419921875,0)" xlink:href="#bi"/><use transform="matrix(0.0087890625,0,0,0.0087890625,22.7548828125,0)" xlink:href="#bj"/><use transform="matrix(0.0087890625,0,0,0.0087890625,33.2490234375,0)" xlink:href="#bk"/><use transform="matrix(0.0087890625,0,0,0.0087890625,40.306640625,0)" xlink:href="#bl"/><use transform="matrix(0.0087890625,0,0,0.0087890625,50.94140625,0)" xlink:href="#bm"/><use transform="matrix(0.0087890625,0,0,0.0087890625,61.048828125,0)" xlink:href="#bi"/><use transform="matrix(0.0087890625,0,0,0.0087890625,66.9375,0)" xlink:href="#bn"/><use transform="matrix(0.0087890625,0,0,0.0087890625,71.296875,0)" xlink:href="#bo"/><use transform="matrix(0.0087890625,0,0,0.0087890625,81.0615234375,0)" xlink:href="#bj"/></g><path fill="#3a414a" d="M537 14c-226 0-379-139-379-422v-710h180v695c0 172 97 275 253 275 160 0 281-109 281-300v-670h181V0H879v-209C806-46 684 14 537 14" id="bp"/><path fill="#3a414a" d="M338-670V0H158v-1490h180v566c73-149 190-208 336-208 226 0 379 139 379 422V0H872v-695c0-172-96-275-252-275-161 0-282 109-282 300" id="bq"/><g id="n"><use transform="matrix(0.0087890625,0,0,0.0087890625,0,0)" xlink:href="#bg"/><use transform="matrix(0.0087890625,0,0,0.0087890625,12.4189453125,0)" xlink:href="#bp"/><use transform="matrix(0.0087890625,0,0,0.0087890625,23.0625,0)" xlink:href="#bi"/><use transform="matrix(0.0087890625,0,0,0.0087890625,28.951171875,0)" xlink:href="#bq"/></g><path fill="#3a414a" d="M180 0v-1490h901v168H370v510h643v168H370V0H180" id="br"/><path fill="#3a414a" d="M577 24c-279 0-473-224-473-580 0-354 195-576 474-576 218 0 287 134 324 193h14v-551h180V0H922v-173h-20C865-111 790 24 577 24zm27-161c203 0 314-172 314-421 0-247-108-413-314-413-212 0-317 181-317 413 0 235 108 421 317 421" id="bs"/><g id="o"><use transform="matrix(0.0087890625,0,0,0.0087890625,0,0)" xlink:href="#br"/><use transform="matrix(0.0087890625,0,0,0.0087890625,10.1865234375,0)" xlink:href="#bm"/><use transform="matrix(0.0087890625,0,0,0.0087890625,20.2939453125,0)" xlink:href="#bn"/><use transform="matrix(0.0087890625,0,0,0.0087890625,24.6533203125,0)" xlink:href="#bh"/><use transform="matrix(0.0087890625,0,0,0.0087890625,29.0126953125,0)" xlink:href="#bj"/><use transform="matrix(0.0087890625,0,0,0.0087890625,39.5068359375,0)" xlink:href="#bs"/></g><path fill="#3a414a" d="M226 279v-1860h398v153H398V126h226v153H226" id="bt"/><path fill="#3a414a" d="M657 26c-323 0-524-166-541-416h195c15 169 171 246 346 246 202 0 356-106 356-265 5-203-294-238-475-293-239-73-380-191-380-389 0-252 224-419 512-419 294 0 499 171 508 396H992c-17-145-151-228-328-228-193 0-321 102-321 242 0 156 175 211 284 241l149 41c160 44 422 134 422 412 0 244-197 432-541 432" id="bu"/><path fill="#3a414a" d="M613 24c-304 0-509-231-509-576 0-350 205-580 509-580 305 0 511 230 511 580 0 345-206 576-511 576zm0-161c226 0 329-195 329-415 0-222-103-419-329-419-223 0-326 196-326 419 0 220 103 415 326 415" id="bv"/><path fill="#3a414a" d="M123 279V126h226v-1554H123v-153h398V279H123" id="bw"/><g id="p"><use transform="matrix(0.0087890625,0,0,0.0087890625,0,0)" xlink:href="#bt"/><use transform="matrix(0.0087890625,0,0,0.0087890625,6.5654296875,0)" xlink:href="#bu"/><use transform="matrix(0.0087890625,0,0,0.0087890625,18.1142578125,0)" xlink:href="#bn"/><use transform="matrix(0.0087890625,0,0,0.0087890625,22.4736328125,0)" xlink:href="#bl"/><use transform="matrix(0.0087890625,0,0,0.0087890625,33.1083984375,0)" xlink:href="#bv"/><use transform="matrix(0.0087890625,0,0,0.0087890625,43.9013671875,0)" xlink:href="#bl"/><use transform="matrix(0.0087890625,0,0,0.0087890625,54.5361328125,0)" xlink:href="#bw"/></g><path fill="#3a414a" d="M600 0L52-1490h200c166 485 304 806 458 1336 156-533 285-846 449-1336h202L819 0H600" id="bx"/><path fill="#3a414a" d="M628 24c-324 0-524-230-524-574 0-343 198-582 503-582 237 0 487 146 487 559v75H286c9 234 145 362 343 362 132 0 231-58 273-172l174 48C1024-91 857 24 628 24zM287-650h624c-17-190-120-322-304-322-192 0-309 151-320 322zm237-614l140-294h201l-194 294H524" id="by"/><path fill="#3a414a" d="M678-1118v154H420V0H240v-964H20v-154h220v-149c0-194 155-293 318-293 85 0 141 18 168 30l-50 154c-19-6-47-17-97-17-111 0-159 58-159 166v109h258" id="bz"/><path fill="#3a414a" d="M613 24c-304 0-509-231-509-576 0-350 205-580 509-580 216 0 392 114 453 309l-173 49c-33-115-133-197-280-197-223 0-326 196-326 419 0 220 103 415 326 415 150 0 252-85 285-206l172 49C1010-95 832 24 613 24" id="bA"/><g id="q"><use transform="matrix(0.0087890625,0,0,0.0087890625,0,0)" xlink:href="#bx"/><use transform="matrix(0.0087890625,0,0,0.0087890625,11.5048828125,0)" xlink:href="#by"/><use transform="matrix(0.0087890625,0,0,0.0087890625,21.9990234375,0)" xlink:href="#bk"/><use transform="matrix(0.0087890625,0,0,0.0087890625,29.056640625,0)" xlink:href="#bn"/><use transform="matrix(0.0087890625,0,0,0.0087890625,33.416015625,0)" xlink:href="#bz"/><use transform="matrix(0.0087890625,0,0,0.0087890625,40.078125,0)" xlink:href="#bn"/><use transform="matrix(0.0087890625,0,0,0.0087890625,44.4375,0)" xlink:href="#bA"/><use transform="matrix(0.0087890625,0,0,0.0087890625,54.896484375,0)" xlink:href="#bm"/><use transform="matrix(0.0087890625,0,0,0.0087890625,65.00390625,0)" xlink:href="#bi"/><use transform="matrix(0.0087890625,0,0,0.0087890625,70.892578125,0)" xlink:href="#bn"/><use transform="matrix(0.0087890625,0,0,0.0087890625,75.251953125,0)" xlink:href="#bv"/><use transform="matrix(0.0087890625,0,0,0.0087890625,86.044921875,0)" xlink:href="#bl"/></g><path fill="#3a414a" d="M1096 418H916v-591h-14C865-111 790 24 577 24c-279 0-473-224-473-580 0-354 195-576 474-576 218 0 287 134 324 193h20v-179h174V418zM604-137c203 0 314-172 314-421 0-247-108-413-314-413-212 0-317 181-317 413 0 235 108 421 317 421" id="bB"/><g id="r"><use transform="matrix(0.0087890625,0,0,0.0087890625,0,0)" xlink:href="#bB"/><use transform="matrix(0.0087890625,0,0,0.0087890625,11.021484375,0)" xlink:href="#bp"/><use transform="matrix(0.0087890625,0,0,0.0087890625,21.6650390625,0)" xlink:href="#bj"/></g><path fill="#3a414a" d="M232-923l-22-567h194l-22 567H232" id="bC"/><path fill="#3a414a" d="M538 24C308 24 148-78 108-271l171-41c32 123 123 178 257 178 156 0 256-77 256-169 0-77-54-128-164-154l-186-44c-203-48-300-148-300-305 0-192 176-326 414-326 230 0 351 112 402 269l-163 42c-31-80-94-158-238-158-133 0-233 69-233 162 0 83 57 129 188 160l169 40c203 48 298 149 298 302 0 196-179 339-441 339" id="bD"/><g id="s"><use transform="matrix(0.0087890625,0,0,0.0087890625,0,0)" xlink:href="#bh"/><use transform="matrix(0.0087890625,0,0,0.0087890625,4.359375,0)" xlink:href="#bC"/><use transform="matrix(0.0087890625,0,0,0.0087890625,9.755859375,0)" xlink:href="#bp"/><use transform="matrix(0.0087890625,0,0,0.0087890625,20.3994140625,0)" xlink:href="#bi"/><use transform="matrix(0.0087890625,0,0,0.0087890625,26.2880859375,0)" xlink:href="#bn"/><use transform="matrix(0.0087890625,0,0,0.0087890625,30.6474609375,0)" xlink:href="#bh"/><use transform="matrix(0.0087890625,0,0,0.0087890625,35.0068359375,0)" xlink:href="#bn"/><use transform="matrix(0.0087890625,0,0,0.0087890625,39.3662109375,0)" xlink:href="#bD"/><use transform="matrix(0.0087890625,0,0,0.0087890625,48.8671875,0)" xlink:href="#bm"/><use transform="matrix(0.0087890625,0,0,0.0087890625,58.974609375,0)" xlink:href="#bi"/><use transform="matrix(0.0087890625,0,0,0.0087890625,64.6875,0)" xlink:href="#bj"/><use transform="matrix(0.0087890625,0,0,0.0087890625,75.181640625,0)" xlink:href="#bp"/><use transform="matrix(0.0087890625,0,0,0.0087890625,85.8251953125,0)" xlink:href="#bk"/></g><path fill="#3a414a" d="M158 418v-1536h174v179h20c37-59 106-193 324-193 279 0 474 222 474 576 0 356-194 580-473 580-213 0-288-135-325-197h-14v591H158zm492-555c209 0 317-186 317-421 0-232-105-413-317-413-206 0-314 166-314 413 0 249 111 421 314 421" id="bE"/><path fill="#3a414a" d="M628 24c-324 0-524-230-524-574 0-343 198-582 503-582 237 0 487 146 487 559v75H286c9 234 145 362 343 362 132 0 231-58 273-172l174 48C1024-91 857 24 628 24zM287-650h624c-17-190-120-322-304-322-192 0-309 151-320 322zm245-614l-193-294h201l140 294H532" id="bF"/><g id="t"><use transform="matrix(0.0087890625,0,0,0.0087890625,0,0)" xlink:href="#bE"/><use transform="matrix(0.0087890625,0,0,0.0087890625,11.021484375,0)" xlink:href="#bv"/><use transform="matrix(0.0087890625,0,0,0.0087890625,21.814453125,0)" xlink:href="#bD"/><use transform="matrix(0.0087890625,0,0,0.0087890625,31.3154296875,0)" xlink:href="#bD"/><use transform="matrix(0.0087890625,0,0,0.0087890625,40.81640625,0)" xlink:href="#bF"/><use transform="matrix(0.0087890625,0,0,0.0087890625,51.310546875,0)" xlink:href="#bs"/><use transform="matrix(0.0087890625,0,0,0.0087890625,62.33203125,0)" xlink:href="#bj"/></g><g id="u"><use transform="matrix(0.0087890625,0,0,0.0087890625,0,0)" xlink:href="#bh"/><use transform="matrix(0.0087890625,0,0,0.0087890625,4.359375,0)" xlink:href="#bj"/></g><path fill="#3a414a" d="M157-1118h181V80c1 225-123 350-364 338V252c126 9 184-48 183-172v-1198zm91-183c-68 0-125-53-125-119s57-119 125-119c69 0 126 53 126 119s-57 119-126 119" id="bG"/><g id="v"><use transform="matrix(0.0087890625,0,0,0.0087890625,0,0)" xlink:href="#bG"/><use transform="matrix(0.0087890625,0,0,0.0087890625,4.359375,0)" xlink:href="#bj"/><use transform="matrix(0.0087890625,0,0,0.0087890625,14.853515625,0)" xlink:href="#bp"/></g><path fill="#333" d="M180 0v-1490h901v168H370v510h643v168H370V0H180" id="bH"/><path fill="#333" d="M158 0v-1118h174v172h12c41-113 157-188 290-188 26 0 70 2 91 3v181c-11-2-60-10-108-10-161 0-279 109-279 260V0H158" id="bI"/><path fill="#333" d="M613 24c-304 0-509-231-509-576 0-350 205-580 509-580 305 0 511 230 511 580 0 345-206 576-511 576zm0-161c226 0 329-195 329-415 0-222-103-419-329-419-223 0-326 196-326 419 0 220 103 415 326 415" id="bJ"/><path fill="#333" d="M338-670V0H158v-1118h173l1 207c72-158 192-221 342-221 226 0 378 139 378 422V0H872v-695c0-172-96-275-252-275-161 0-282 109-282 300" id="bK"/><path fill="#333" d="M598-1118v154H368v674c0 100 37 144 132 144 23 0 62-6 92-12L629-6c-37 13-88 20-134 20-193 0-307-107-307-290v-688H20v-154h168v-266h180v266h230" id="bL"/><g id="w"><use transform="matrix(0.008072916666666667,0,0,0.008072916666666667,0,0)" xlink:href="#bH"/><use transform="matrix(0.008072916666666667,0,0,0.008072916666666667,9.275781250000001,0)" xlink:href="#bI"/><use transform="matrix(0.008072916666666667,0,0,0.008072916666666667,15.225520833333334,0)" xlink:href="#bJ"/><use transform="matrix(0.008072916666666667,0,0,0.008072916666666667,25.1390625,0)" xlink:href="#bK"/><use transform="matrix(0.008072916666666667,0,0,0.008072916666666667,34.907291666666666,0)" xlink:href="#bL"/><path fill="#333" d="M-.83 3.37h41.97V4.5H-.83z"/></g><path fill="#333" d="M180 0v-1490h528c311 0 458 177 458 395 0 191-114 278-244 313v14c139 9 302 137 302 371 0 225-148 397-499 397H180zm190-168h350c232 0 321-102 321-231 0-149-120-277-311-277H370v508zm0-668h328c160 0 286-101 286-255 0-129-87-231-280-231H370v486" id="bM"/><path fill="#333" d="M471 26C259 26 90-98 90-318c0-256 228-303 435-329 202-27 287-16 287-108 0-139-79-219-234-219-161 0-248 86-283 164l-173-57c86-203 278-265 451-265 150 0 419 46 419 395V0H815v-152h-12C765-73 660 26 471 26zm31-159c199 0 310-134 310-271v-155c-30 35-226 55-295 64-131 17-246 59-246 186 0 116 97 176 231 176" id="bN"/><path fill="#333" d="M613 24c-304 0-509-231-509-576 0-350 205-580 509-580 216 0 392 114 453 309l-173 49c-33-115-133-197-280-197-223 0-326 196-326 419 0 220 103 415 326 415 150 0 252-85 285-206l172 49C1010-95 832 24 613 24" id="bO"/><path fill="#333" d="M158 0v-1490h180v865h22l478-493h223L593-638 1096 0H865L456-523 338-412V0H158" id="bP"/><g id="x"><use transform="matrix(0.008072916666666667,0,0,0.008072916666666667,0,0)" xlink:href="#bM"/><use transform="matrix(0.008072916666666667,0,0,0.008072916666666667,10.817708333333334,0)" xlink:href="#bN"/><use transform="matrix(0.008072916666666667,0,0,0.008072916666666667,20.1015625,0)" xlink:href="#bO"/><use transform="matrix(0.008072916666666667,0,0,0.008072916666666667,29.546875,0)" xlink:href="#bP"/><path fill="#333" d="M-.83 3.37h40.27V4.5H-.83z"/></g><path fill="#333" d="M645 0H180v-1490h484c435 0 692 280 692 742 0 466-257 748-711 748zM370-168h263c363 0 539-218 539-580 0-358-176-574-521-574H370v1154" id="bQ"/><g id="y"><use transform="matrix(0.008072916666666667,0,0,0.008072916666666667,0,0)" xlink:href="#bM"/><use transform="matrix(0.008072916666666667,0,0,0.008072916666666667,10.817708333333334,0)" xlink:href="#bQ"/><use transform="matrix(0.008072916666666667,0,0,0.008072916666666667,22.74947916666667,0)" xlink:href="#bQ"/><path fill="#333" d="M-.83 3.37H35.5V4.5H-.83z"/></g><path fill="#3a414a" d="M763 24c-353 0-583-224-583-531v-983h190v968c0 214 149 370 393 370 243 0 391-156 391-370v-968h190v983c0 307-230 531-581 531" id="bR"/><g id="z"><use transform="matrix(0.008072916666666667,0,0,0.008072916666666667,0,0)" xlink:href="#bR"/><use transform="matrix(0.008072916666666667,0,0,0.008072916666666667,12.303125000000001,0)" xlink:href="#bi"/><use transform="matrix(0.008072916666666667,0,0,0.008072916666666667,17.71197916666667,0)" xlink:href="#bn"/><use transform="matrix(0.008072916666666667,0,0,0.008072916666666667,21.716145833333336,0)" xlink:href="#bh"/><use transform="matrix(0.008072916666666667,0,0,0.008072916666666667,25.720312500000002,0)" xlink:href="#bn"/><use transform="matrix(0.008072916666666667,0,0,0.008072916666666667,29.72447916666667,0)" xlink:href="#bD"/><use transform="matrix(0.008072916666666667,0,0,0.008072916666666667,38.45130208333334,0)" xlink:href="#bm"/><use transform="matrix(0.008072916666666667,0,0,0.008072916666666667,47.73515625,0)" xlink:href="#bi"/><use transform="matrix(0.008072916666666667,0,0,0.008072916666666667,52.98255208333333,0)" xlink:href="#bj"/><use transform="matrix(0.008072916666666667,0,0,0.008072916666666667,62.62161458333333,0)" xlink:href="#bp"/><use transform="matrix(0.008072916666666667,0,0,0.008072916666666667,72.39791666666667,0)" xlink:href="#bk"/></g><path fill="#3a414a" d="M180 0v-1490h510c348 0 508 194 508 460 0 198-88 351-276 417L1256 0h-220L726-579c-117 2-238 0-356 1V0H180zm190-747h312c235 0 327-108 327-283 0-177-92-293-329-293H370v576" id="bS"/><path fill="#3a414a" d="M611 442c-248 0-391-105-460-228l146-94c47 65 117 165 314 165 178 0 307-82 307-266v-224h-17C863-141 792-18 576-18c-268 0-472-195-472-546 0-346 197-568 476-568 216 0 288 133 326 193h17v-179h175V29c0 289-215 413-487 413zm-5-620c203 0 314-146 314-390 0-237-108-403-314-403-213 0-319 180-319 403 0 230 109 390 319 390" id="bT"/><g id="A"><use transform="matrix(0.008072916666666667,0,0,0.008072916666666667,0,0)" xlink:href="#bS"/><use transform="matrix(0.008072916666666667,0,0,0.008072916666666667,10.397916666666667,0)" xlink:href="#bj"/><use transform="matrix(0.008072916666666667,0,0,0.008072916666666667,20.03697916666667,0)" xlink:href="#bs"/><use transform="matrix(0.008072916666666667,0,0,0.008072916666666667,30.16041666666667,0)" xlink:href="#bn"/><use transform="matrix(0.008072916666666667,0,0,0.008072916666666667,34.16458333333334,0)" xlink:href="#bT"/><use transform="matrix(0.008072916666666667,0,0,0.008072916666666667,44.304166666666674,0)" xlink:href="#bj"/></g><g id="B"><use transform="matrix(0.008072916666666667,0,0,0.008072916666666667,0,0)" xlink:href="#bh"/><use transform="matrix(0.008072916666666667,0,0,0.008072916666666667,4.004166666666667,0)" xlink:href="#bC"/><use transform="matrix(0.008072916666666667,0,0,0.008072916666666667,8.960937500000002,0)" xlink:href="#bm"/><use transform="matrix(0.008072916666666667,0,0,0.008072916666666667,18.002604166666668,0)" xlink:href="#bo"/><use transform="matrix(0.008072916666666667,0,0,0.008072916666666667,27.294531250000002,0)" xlink:href="#bn"/><use transform="matrix(0.008072916666666667,0,0,0.008072916666666667,31.29869791666667,0)" xlink:href="#bD"/></g><g id="C"><use transform="matrix(0.008072916666666667,0,0,0.008072916666666667,0,0)" xlink:href="#bD"/><use transform="matrix(0.008072916666666667,0,0,0.008072916666666667,8.726822916666668,0)" xlink:href="#bp"/><use transform="matrix(0.008072916666666667,0,0,0.008072916666666667,18.503125000000004,0)" xlink:href="#bk"/></g><g id="D"><use transform="matrix(0.008072916666666667,0,0,0.008072916666666667,0,0)" xlink:href="#bh"/><use transform="matrix(0.008072916666666667,0,0,0.008072916666666667,4.004166666666667,0)" xlink:href="#bj"/></g><g id="E"><use transform="matrix(0.008072916666666667,0,0,0.008072916666666667,0,0)" xlink:href="#bz"/><use transform="matrix(0.008072916666666667,0,0,0.008072916666666667,6.119270833333334,0)" xlink:href="#bk"/><use transform="matrix(0.008072916666666667,0,0,0.008072916666666667,12.069010416666668,0)" xlink:href="#bv"/><use transform="matrix(0.008072916666666667,0,0,0.008072916666666667,21.982552083333335,0)" xlink:href="#bl"/><use transform="matrix(0.008072916666666667,0,0,0.008072916666666667,31.750781250000003,0)" xlink:href="#bi"/></g><path fill="#3a414a" d="M180 0v-1490h510c348 0 508 209 508 474 0 266-160 477-507 477H370V0H180zm190-706h312c236 0 327-133 327-310 0-176-91-307-329-307H370v617" id="bU"/><path fill="#3a414a" d="M180 0v-1490h908v168H370v486h669v168H370v500h727V0H180" id="bV"/><g id="F"><use transform="matrix(0.008072916666666667,0,0,0.008072916666666667,0,0)" xlink:href="#bx"/><use transform="matrix(0.008072916666666667,0,0,0.008072916666666667,10.276822916666667,0)" xlink:href="#bg"/><use transform="matrix(0.008072916666666667,0,0,0.008072916666666667,21.68385416666667,0)" xlink:href="#bU"/><use transform="matrix(0.008072916666666667,0,0,0.008072916666666667,32.24322916666667,0)" xlink:href="#bV"/><use transform="matrix(0.008072916666666667,0,0,0.008072916666666667,42.18098958333334,0)" xlink:href="#bR"/><use transform="matrix(0.008072916666666667,0,0,0.008072916666666667,54.484114583333344,0)" xlink:href="#bS"/></g><g id="G"><use transform="matrix(0.0087890625,0,0,0.0087890625,0,0)" xlink:href="#bS"/><use transform="matrix(0.0087890625,0,0,0.0087890625,11.3203125,0)" xlink:href="#by"/><use transform="matrix(0.0087890625,0,0,0.0087890625,21.814453125,0)" xlink:href="#bD"/><use transform="matrix(0.0087890625,0,0,0.0087890625,31.3154296875,0)" xlink:href="#bp"/><use transform="matrix(0.0087890625,0,0,0.0087890625,41.958984375,0)" xlink:href="#bh"/><use transform="matrix(0.0087890625,0,0,0.0087890625,46.58203125,0)" xlink:href="#bi"/><use transform="matrix(0.0087890625,0,0,0.0087890625,52.55859375,0)" xlink:href="#bm"/><use transform="matrix(0.0087890625,0,0,0.0087890625,62.666015625,0)" xlink:href="#bi"/></g><g id="H"><use transform="matrix(0.0087890625,0,0,0.0087890625,0,0)" xlink:href="#bs"/><use transform="matrix(0.0087890625,0,0,0.0087890625,11.021484375,0)" xlink:href="#bj"/></g><g id="I"><use transform="matrix(0.0087890625,0,0,0.0087890625,0,0)" xlink:href="#bh"/><use transform="matrix(0.0087890625,0,0,0.0087890625,4.359375,0)" xlink:href="#bm"/></g><g id="J"><use transform="matrix(0.0087890625,0,0,0.0087890625,0,0)" xlink:href="#bo"/><use transform="matrix(0.0087890625,0,0,0.0087890625,9.7646484375,0)" xlink:href="#by"/><use transform="matrix(0.0087890625,0,0,0.0087890625,20.2587890625,0)" xlink:href="#bk"/><use transform="matrix(0.0087890625,0,0,0.0087890625,27.31640625,0)" xlink:href="#bn"/><use transform="matrix(0.0087890625,0,0,0.0087890625,31.67578125,0)" xlink:href="#bz"/></g><g id="K"><use transform="matrix(0.008072916666666667,0,0,0.008072916666666667,0,0)" xlink:href="#bS"/><use transform="matrix(0.008072916666666667,0,0,0.008072916666666667,10.397916666666667,0)" xlink:href="#bj"/><use transform="matrix(0.008072916666666667,0,0,0.008072916666666667,20.03697916666667,0)" xlink:href="#bB"/><use transform="matrix(0.008072916666666667,0,0,0.008072916666666667,30.16041666666667,0)" xlink:href="#bp"/><use transform="matrix(0.008072916666666667,0,0,0.008072916666666667,39.936718750000004,0)" xlink:href="#bj"/><use transform="matrix(0.008072916666666667,0,0,0.008072916666666667,49.575781250000006,0)" xlink:href="#bi"/><use transform="matrix(0.008072916666666667,0,0,0.008072916666666667,54.823177083333334,0)" xlink:href="#bj"/><use transform="matrix(0.008072916666666667,0,0,0.008072916666666667,64.46223958333334,0)" xlink:href="#bD"/></g><path fill="#3a414a" d="M370-1490V0H180v-1490h190" id="bW"/><g id="L"><use transform="matrix(0.008072916666666667,0,0,0.008072916666666667,0,0)" xlink:href="#bg"/><use transform="matrix(0.008072916666666667,0,0,0.008072916666666667,11.407031250000001,0)" xlink:href="#bU"/><use transform="matrix(0.008072916666666667,0,0,0.008072916666666667,21.966406250000002,0)" xlink:href="#bW"/></g><path fill="#3a414a" d="M784 20c-382 0-662-292-662-764 0-473 280-766 662-766s660 293 660 766c0 472-278 764-660 764zm0-176c266 0 475-207 475-588 0-383-209-590-475-590-268 0-477 208-477 590 0 380 209 588 477 588" id="bX"/><path fill="#3a414a" d="M98-1322v-168h1126v168H757V0H567v-1322H98" id="bY"/><g id="M"><use transform="matrix(0.008072916666666667,0,0,0.008072916666666667,0,0)" xlink:href="#bU"/><use transform="matrix(0.008072916666666667,0,0,0.008072916666666667,10.559375000000001,0)" xlink:href="#bX"/><use transform="matrix(0.008072916666666667,0,0,0.008072916666666667,23.2015625,0)" xlink:href="#bu"/><use transform="matrix(0.008072916666666667,0,0,0.008072916666666667,33.809375,0)" xlink:href="#bY"/></g><g id="N"><use transform="matrix(0.008072916666666667,0,0,0.008072916666666667,0,0)" xlink:href="#bh"/><use transform="matrix(0.008072916666666667,0,0,0.008072916666666667,4.004166666666667,0)" xlink:href="#bj"/><use transform="matrix(0.008072916666666667,0,0,0.008072916666666667,13.643229166666668,0)" xlink:href="#bD"/></g><path fill="#3a414a" d="M409 0L70-1118h191c89 329 165 560 243 925 75-353 154-601 240-925h192c85 325 161 564 235 922 77-354 157-598 244-922h191L1267 0h-179c-86-307-176-590-250-913C763-588 675-308 588 0H409" id="bZ"/><g id="O"><use transform="matrix(0.008072916666666667,0,0,0.008072916666666667,0,0)" xlink:href="#bk"/><use transform="matrix(0.008072916666666667,0,0,0.008072916666666667,5.949739583333334,0)" xlink:href="#bj"/><use transform="matrix(0.008072916666666667,0,0,0.008072916666666667,15.265885416666668,0)" xlink:href="#bo"/><use transform="matrix(0.008072916666666667,0,0,0.008072916666666667,24.5578125,0)" xlink:href="#bn"/><use transform="matrix(0.008072916666666667,0,0,0.008072916666666667,28.56197916666667,0)" xlink:href="#bj"/><use transform="matrix(0.008072916666666667,0,0,0.008072916666666667,37.90234375000001,0)" xlink:href="#bZ"/><use transform="matrix(0.008072916666666667,0,0,0.008072916666666667,51.43255208333334,0)" xlink:href="#bD"/></g><path fill="#3a414a" d="M218-607c0-325 108-727 258-974h175c-155 315-250 682-250 974 0 265 78 531 250 886H476C306-10 218-315 218-607" id="ca"/><path fill="#3a414a" d="M545 20c-263 0-445-160-445-446v-80h190v80c0 182 102 279 255 279 152 0 254-97 254-279v-1064h190v1064c0 286-181 446-444 446" id="cb"/><path fill="#3a414a" d="M458 0L52-1490h194c108 439 233 855 324 1313 92-459 221-873 331-1313h216c110 438 234 854 330 1307 92-455 216-869 323-1307h196L1558 0h-221l-256-944c-26-95-50-200-73-331-22 122-44 223-73 331L680 0H458" id="cc"/><path fill="#3a414a" d="M96 279C273-86 346-350 346-607c0-292-95-659-250-974h175c150 246 258 650 258 974 0 297-91 602-258 886H96" id="cd"/><g id="P"><use transform="matrix(0.0087890625,0,0,0.0087890625,0,0)" xlink:href="#ca"/><use transform="matrix(0.0087890625,0,0,0.0087890625,6.5654296875,0)" xlink:href="#cb"/><use transform="matrix(0.0087890625,0,0,0.0087890625,16.83984375,0)" xlink:href="#cc"/><use transform="matrix(0.0087890625,0,0,0.0087890625,34.576171875,0)" xlink:href="#bY"/><use transform="matrix(0.0087890625,0,0,0.0087890625,46.1953125,0)" xlink:href="#cd"/></g><g id="Q"><use transform="matrix(0.0087890625,0,0,0.0087890625,0,0)" xlink:href="#bV"/><use transform="matrix(0.0087890625,0,0,0.0087890625,10.8193359375,0)" xlink:href="#bl"/><use transform="matrix(0.0087890625,0,0,0.0087890625,21.4541015625,0)" xlink:href="#bk"/><use transform="matrix(0.0087890625,0,0,0.0087890625,27.931640625,0)" xlink:href="#bj"/><use transform="matrix(0.0087890625,0,0,0.0087890625,38.42578125,0)" xlink:href="#bT"/><use transform="matrix(0.0087890625,0,0,0.0087890625,49.46484375,0)" xlink:href="#bn"/><use transform="matrix(0.0087890625,0,0,0.0087890625,53.82421875,0)" xlink:href="#bD"/><use transform="matrix(0.0087890625,0,0,0.0087890625,63.3251953125,0)" xlink:href="#bi"/><use transform="matrix(0.0087890625,0,0,0.0087890625,69.0380859375,0)" xlink:href="#bj"/><use transform="matrix(0.0087890625,0,0,0.0087890625,79.5322265625,0)" xlink:href="#bk"/></g><g id="R"><use transform="matrix(0.0087890625,0,0,0.0087890625,0,0)" xlink:href="#bh"/><use transform="matrix(0.0087890625,0,0,0.0087890625,4.359375,0)" xlink:href="#bC"/><use transform="matrix(0.0087890625,0,0,0.0087890625,9.755859375,0)" xlink:href="#bm"/><use transform="matrix(0.0087890625,0,0,0.0087890625,19.599609375,0)" xlink:href="#bo"/><use transform="matrix(0.0087890625,0,0,0.0087890625,29.7158203125,0)" xlink:href="#bn"/><use transform="matrix(0.0087890625,0,0,0.0087890625,34.0751953125,0)" xlink:href="#bD"/></g><g id="S"><use transform="matrix(0.0087890625,0,0,0.0087890625,0,0)" xlink:href="#bD"/><use transform="matrix(0.0087890625,0,0,0.0087890625,9.5009765625,0)" xlink:href="#bp"/><use transform="matrix(0.0087890625,0,0,0.0087890625,20.14453125,0)" xlink:href="#bk"/></g><path fill="#3a414a" d="M783 20c-382 0-661-292-661-764 0-473 279-766 661-766 302 0 548 182 601 489h-190c-42-204-217-313-411-313-268 0-476 208-476 590 0 381 209 588 476 588 195 0 369-110 411-313h190c-52 303-296 489-601 489" id="ce"/><path fill="#3a414a" d="M158 0v-1118h175l1 205c55-151 181-225 313-225 147 0 245 90 285 228 53-141 190-228 352-228 194 0 352 125 352 384V0h-181v-749c0-161-105-225-225-225-151 0-243 103-243 244V0H807v-767c0-124-93-207-219-207-131 0-250 92-250 270V0H158" id="cf"/><g id="T"><use transform="matrix(0.0087890625,0,0,0.0087890625,0,0)" xlink:href="#ce"/><use transform="matrix(0.0087890625,0,0,0.0087890625,13.1484375,0)" xlink:href="#bv"/><use transform="matrix(0.0087890625,0,0,0.0087890625,23.94140625,0)" xlink:href="#bl"/><use transform="matrix(0.0087890625,0,0,0.0087890625,34.576171875,0)" xlink:href="#bz"/><use transform="matrix(0.0087890625,0,0,0.0087890625,41.23828125,0)" xlink:href="#bn"/><use transform="matrix(0.0087890625,0,0,0.0087890625,45.59765625,0)" xlink:href="#bk"/><use transform="matrix(0.0087890625,0,0,0.0087890625,52.6552734375,0)" xlink:href="#cf"/><use transform="matrix(0.0087890625,0,0,0.0087890625,68.4228515625,0)" xlink:href="#bm"/><use transform="matrix(0.0087890625,0,0,0.0087890625,78.5302734375,0)" xlink:href="#bi"/><use transform="matrix(0.0087890625,0,0,0.0087890625,84.4189453125,0)" xlink:href="#bn"/><use transform="matrix(0.0087890625,0,0,0.0087890625,88.7783203125,0)" xlink:href="#bv"/><use transform="matrix(0.0087890625,0,0,0.0087890625,99.5712890625,0)" xlink:href="#bl"/></g><g id="U"><use transform="matrix(0.0087890625,0,0,0.0087890625,0,0)" xlink:href="#bj"/><use transform="matrix(0.0087890625,0,0,0.0087890625,10.494140625,0)" xlink:href="#bl"/><use transform="matrix(0.0087890625,0,0,0.0087890625,21.12890625,0)" xlink:href="#bk"/><use transform="matrix(0.0087890625,0,0,0.0087890625,27.6064453125,0)" xlink:href="#bj"/><use transform="matrix(0.0087890625,0,0,0.0087890625,38.1005859375,0)" xlink:href="#bT"/><use transform="matrix(0.0087890625,0,0,0.0087890625,49.1396484375,0)" xlink:href="#bn"/><use transform="matrix(0.0087890625,0,0,0.0087890625,53.4990234375,0)" xlink:href="#bD"/><use transform="matrix(0.0087890625,0,0,0.0087890625,63,0)" xlink:href="#bi"/><use transform="matrix(0.0087890625,0,0,0.0087890625,68.888671875,0)" xlink:href="#bk"/><use transform="matrix(0.0087890625,0,0,0.0087890625,75.3662109375,0)" xlink:href="#bj"/><use transform="matrix(0.0087890625,0,0,0.0087890625,85.8603515625,0)" xlink:href="#cf"/><use transform="matrix(0.0087890625,0,0,0.0087890625,101.6279296875,0)" xlink:href="#bj"/><use transform="matrix(0.0087890625,0,0,0.0087890625,112.1220703125,0)" xlink:href="#bl"/><use transform="matrix(0.0087890625,0,0,0.0087890625,122.7568359375,0)" xlink:href="#bi"/></g><g id="V"><use transform="matrix(0.0087890625,0,0,0.0087890625,0,0)" xlink:href="#cf"/><use transform="matrix(0.0087890625,0,0,0.0087890625,15.767578125,0)" xlink:href="#bn"/><use transform="matrix(0.0087890625,0,0,0.0087890625,20.126953125,0)" xlink:href="#bD"/><use transform="matrix(0.0087890625,0,0,0.0087890625,29.6279296875,0)" xlink:href="#bj"/></g><path fill="#3a414a" d="M471 26C259 26 90-98 90-318c0-256 228-303 435-329 202-27 287-16 287-108 0-139-79-219-234-219-161 0-248 86-283 164l-173-57c86-203 278-265 451-265 150 0 419 46 419 395V0H815v-152h-12C765-73 660 26 471 26zm31-159c199 0 310-134 310-271v-155c-30 35-226 55-295 64-131 17-246 59-246 186 0 116 97 176 231 176zm-15-1131l-193-294h201l140 294H487" id="cg"/><use transform="matrix(0.0087890625,0,0,0.0087890625,0,0)" xlink:href="#cg" id="W"/><g id="X"><use transform="matrix(0.0087890625,0,0,0.0087890625,0,0)" xlink:href="#bG"/><use transform="matrix(0.0087890625,0,0,0.0087890625,4.359375,0)" xlink:href="#bv"/><use transform="matrix(0.0087890625,0,0,0.0087890625,15.15234375,0)" xlink:href="#bp"/><use transform="matrix(0.0087890625,0,0,0.0087890625,25.7958984375,0)" xlink:href="#bk"/></g><g id="Y"><use transform="matrix(0.0087890625,0,0,0.0087890625,0,0)" xlink:href="#bh"/><use transform="matrix(0.0087890625,0,0,0.0087890625,4.359375,0)" xlink:href="#bC"/><use transform="matrix(0.0087890625,0,0,0.0087890625,9.755859375,0)" xlink:href="#bm"/><use transform="matrix(0.0087890625,0,0,0.0087890625,19.86328125,0)" xlink:href="#bz"/><use transform="matrix(0.0087890625,0,0,0.0087890625,25.822265625,0)" xlink:href="#bz"/><use transform="matrix(0.0087890625,0,0,0.0087890625,32.484375,0)" xlink:href="#bn"/><use transform="matrix(0.0087890625,0,0,0.0087890625,36.84375,0)" xlink:href="#bA"/><use transform="matrix(0.0087890625,0,0,0.0087890625,47.126953125,0)" xlink:href="#bq"/><use transform="matrix(0.0087890625,0,0,0.0087890625,57.7705078125,0)" xlink:href="#bm"/><use transform="matrix(0.0087890625,0,0,0.0087890625,67.8779296875,0)" xlink:href="#bT"/><use transform="matrix(0.0087890625,0,0,0.0087890625,78.9169921875,0)" xlink:href="#bj"/></g><g id="Z"><use transform="matrix(0.0087890625,0,0,0.0087890625,0,0)" xlink:href="#bg"/><use transform="matrix(0.0087890625,0,0,0.0087890625,12.4189453125,0)" xlink:href="#bz"/><use transform="matrix(0.0087890625,0,0,0.0087890625,18.3779296875,0)" xlink:href="#bz"/><use transform="matrix(0.0087890625,0,0,0.0087890625,25.0400390625,0)" xlink:href="#bn"/><use transform="matrix(0.0087890625,0,0,0.0087890625,29.3994140625,0)" xlink:href="#bA"/><use transform="matrix(0.0087890625,0,0,0.0087890625,39.6826171875,0)" xlink:href="#bq"/><use transform="matrix(0.0087890625,0,0,0.0087890625,50.326171875,0)" xlink:href="#bm"/><use transform="matrix(0.0087890625,0,0,0.0087890625,60.43359375,0)" xlink:href="#bT"/><use transform="matrix(0.0087890625,0,0,0.0087890625,71.47265625,0)" xlink:href="#bj"/></g><g id="aa"><use transform="matrix(0.0087890625,0,0,0.0087890625,0,0)" xlink:href="#bz"/><use transform="matrix(0.0087890625,0,0,0.0087890625,6.662109375,0)" xlink:href="#bk"/><use transform="matrix(0.0087890625,0,0,0.0087890625,13.1396484375,0)" xlink:href="#bv"/><use transform="matrix(0.0087890625,0,0,0.0087890625,23.9326171875,0)" xlink:href="#bl"/><use transform="matrix(0.0087890625,0,0,0.0087890625,34.5673828125,0)" xlink:href="#bi"/></g><g id="ab"><use transform="matrix(0.0087890625,0,0,0.0087890625,0,0)" xlink:href="#bS"/><use transform="matrix(0.0087890625,0,0,0.0087890625,11.3203125,0)" xlink:href="#by"/><use transform="matrix(0.0087890625,0,0,0.0087890625,21.814453125,0)" xlink:href="#bA"/><use transform="matrix(0.0087890625,0,0,0.0087890625,32.09765625,0)" xlink:href="#bp"/><use transform="matrix(0.0087890625,0,0,0.0087890625,42.7412109375,0)" xlink:href="#bE"/><use transform="matrix(0.0087890625,0,0,0.0087890625,53.7626953125,0)" xlink:href="#bF"/><use transform="matrix(0.0087890625,0,0,0.0087890625,64.2568359375,0)" xlink:href="#bk"/><use transform="matrix(0.0087890625,0,0,0.0087890625,70.734375,0)" xlink:href="#bj"/></g><g id="ac"><use transform="matrix(0.0087890625,0,0,0.0087890625,0,0)" xlink:href="#bh"/><use transform="matrix(0.0087890625,0,0,0.0087890625,4.359375,0)" xlink:href="#bj"/><use transform="matrix(0.0087890625,0,0,0.0087890625,14.853515625,0)" xlink:href="#bD"/></g><path fill="#3a414a" d="M65 0l393-574-370-544h210c88 136 192 297 267 435 67-142 176-302 264-435h206L661-564 1053 0H844c-94-144-206-310-287-458C484-308 366-142 273 0H65" id="ch"/><g id="ad"><use transform="matrix(0.0087890625,0,0,0.0087890625,0,0)" xlink:href="#bG"/><use transform="matrix(0.0087890625,0,0,0.0087890625,4.359375,0)" xlink:href="#bj"/><use transform="matrix(0.0087890625,0,0,0.0087890625,14.853515625,0)" xlink:href="#bp"/><use transform="matrix(0.0087890625,0,0,0.0087890625,25.4970703125,0)" xlink:href="#ch"/></g><g id="ae"><use transform="matrix(0.0087890625,0,0,0.0087890625,0,0)" xlink:href="#bh"/><use transform="matrix(0.0087890625,0,0,0.0087890625,4.359375,0)" xlink:href="#bC"/><use transform="matrix(0.0087890625,0,0,0.0087890625,9.755859375,0)" xlink:href="#bp"/><use transform="matrix(0.0087890625,0,0,0.0087890625,20.3994140625,0)" xlink:href="#bi"/><use transform="matrix(0.0087890625,0,0,0.0087890625,26.2880859375,0)" xlink:href="#bn"/><use transform="matrix(0.0087890625,0,0,0.0087890625,30.6474609375,0)" xlink:href="#bh"/><use transform="matrix(0.0087890625,0,0,0.0087890625,35.0068359375,0)" xlink:href="#bn"/><use transform="matrix(0.0087890625,0,0,0.0087890625,39.3662109375,0)" xlink:href="#bD"/><use transform="matrix(0.0087890625,0,0,0.0087890625,48.8671875,0)" xlink:href="#bm"/><use transform="matrix(0.0087890625,0,0,0.0087890625,58.974609375,0)" xlink:href="#bi"/><use transform="matrix(0.0087890625,0,0,0.0087890625,64.6875,0)" xlink:href="#bj"/><use transform="matrix(0.0087890625,0,0,0.0087890625,75.181640625,0)" xlink:href="#bp"/><use transform="matrix(0.0087890625,0,0,0.0087890625,85.8251953125,0)" xlink:href="#bk"/></g><g id="af"><use transform="matrix(0.008072916666666667,0,0,0.008072916666666667,0,0)" xlink:href="#bX"/><use transform="matrix(0.008072916666666667,0,0,0.008072916666666667,12.642187500000002,0)" xlink:href="#bp"/><use transform="matrix(0.008072916666666667,0,0,0.008072916666666667,22.418489583333336,0)" xlink:href="#bo"/><use transform="matrix(0.008072916666666667,0,0,0.008072916666666667,31.71041666666667,0)" xlink:href="#bk"/><use transform="matrix(0.008072916666666667,0,0,0.008072916666666667,37.66015625000001,0)" xlink:href="#bj"/></g><g id="ag"><use transform="matrix(0.008072916666666667,0,0,0.008072916666666667,0,0)" xlink:href="#bh"/><use transform="matrix(0.008072916666666667,0,0,0.008072916666666667,4.004166666666667,0)" xlink:href="#bm"/></g><path fill="#3a414a" d="M677 24c-213 0-288-135-325-197h-20V0H158v-1490h180v551h14c37-59 106-193 324-193 279 0 474 222 474 576 0 356-194 580-473 580zm-27-161c209 0 317-186 317-421 0-232-105-413-317-413-206 0-314 166-314 413 0 249 111 421 314 421" id="ci"/><g id="ah"><use transform="matrix(0.008072916666666667,0,0,0.008072916666666667,0,0)" xlink:href="#ci"/><use transform="matrix(0.008072916666666667,0,0,0.008072916666666667,10.123437500000001,0)" xlink:href="#bv"/><use transform="matrix(0.008072916666666667,0,0,0.008072916666666667,20.03697916666667,0)" xlink:href="#bp"/><use transform="matrix(0.008072916666666667,0,0,0.008072916666666667,29.813281250000003,0)" xlink:href="#bi"/><use transform="matrix(0.008072916666666667,0,0,0.008072916666666667,35.22213541666667,0)" xlink:href="#bn"/><use transform="matrix(0.008072916666666667,0,0,0.008072916666666667,39.22630208333334,0)" xlink:href="#bB"/><use transform="matrix(0.008072916666666667,0,0,0.008072916666666667,49.34973958333334,0)" xlink:href="#bp"/><use transform="matrix(0.008072916666666667,0,0,0.008072916666666667,59.12604166666667,0)" xlink:href="#bj"/></g><path fill="#3a414a" d="M180 0v-1490h190v1322h690V0H180" id="cj"/><g id="ai"><use transform="matrix(0.0087890625,0,0,0.0087890625,0,0)" xlink:href="#cj"/><use transform="matrix(0.0087890625,0,0,0.0087890625,10.177734375,0)" xlink:href="#bn"/><use transform="matrix(0.0087890625,0,0,0.0087890625,14.537109375,0)" xlink:href="#bD"/><use transform="matrix(0.0087890625,0,0,0.0087890625,24.0380859375,0)" xlink:href="#bi"/><use transform="matrix(0.0087890625,0,0,0.0087890625,29.7509765625,0)" xlink:href="#bj"/></g><g id="aj"><use transform="matrix(0.0087890625,0,0,0.0087890625,0,0)" xlink:href="#bs"/><use transform="matrix(0.0087890625,0,0,0.0087890625,11.021484375,0)" xlink:href="#bj"/><use transform="matrix(0.0087890625,0,0,0.0087890625,21.515625,0)" xlink:href="#bD"/></g><g id="ak"><use transform="matrix(0.0087890625,0,0,0.0087890625,0,0)" xlink:href="#bG"/><use transform="matrix(0.0087890625,0,0,0.0087890625,4.359375,0)" xlink:href="#bj"/><use transform="matrix(0.0087890625,0,0,0.0087890625,14.853515625,0)" xlink:href="#bp"/><use transform="matrix(0.0087890625,0,0,0.0087890625,25.4970703125,0)" xlink:href="#ch"/></g><path fill="#3a414a" d="M789 20c-398 0-667-293-667-764 0-473 273-766 655-766 315 0 558 198 612 487h-196c-61-191-204-311-415-311-262 0-471 207-471 590 0 380 208 588 482 588 249 0 420-165 425-427H828v-166h572v163c0 370-256 606-611 606" id="ck"/><g id="al"><use transform="matrix(0.008072916666666667,0,0,0.008072916666666667,0,0)" xlink:href="#ck"/><use transform="matrix(0.008072916666666667,0,0,0.008072916666666667,12.335416666666667,0)" xlink:href="#bV"/><use transform="matrix(0.008072916666666667,0,0,0.008072916666666667,22.273177083333337,0)" xlink:href="#bY"/></g><g id="am"><use transform="matrix(0.008072916666666667,0,0,0.008072916666666667,0,0)" xlink:href="#bk"/><use transform="matrix(0.008072916666666667,0,0,0.008072916666666667,5.949739583333334,0)" xlink:href="#bj"/><use transform="matrix(0.008072916666666667,0,0,0.008072916666666667,15.588802083333334,0)" xlink:href="#bA"/><use transform="matrix(0.008072916666666667,0,0,0.008072916666666667,25.034114583333334,0)" xlink:href="#bv"/><use transform="matrix(0.008072916666666667,0,0,0.008072916666666667,34.94765625,0)" xlink:href="#cf"/><use transform="matrix(0.008072916666666667,0,0,0.008072916666666667,49.43046875,0)" xlink:href="#cf"/><use transform="matrix(0.008072916666666667,0,0,0.008072916666666667,63.913281250000004,0)" xlink:href="#bj"/><use transform="matrix(0.008072916666666667,0,0,0.008072916666666667,73.55234375,0)" xlink:href="#bl"/><use transform="matrix(0.008072916666666667,0,0,0.008072916666666667,83.32057291666668,0)" xlink:href="#bs"/><use transform="matrix(0.008072916666666667,0,0,0.008072916666666667,93.44401041666669,0)" xlink:href="#bm"/><use transform="matrix(0.008072916666666667,0,0,0.008072916666666667,102.72786458333336,0)" xlink:href="#bi"/><use transform="matrix(0.008072916666666667,0,0,0.008072916666666667,108.13671875000003,0)" xlink:href="#bn"/><use transform="matrix(0.008072916666666667,0,0,0.008072916666666667,112.14088541666669,0)" xlink:href="#bv"/><use transform="matrix(0.008072916666666667,0,0,0.008072916666666667,122.05442708333337,0)" xlink:href="#bl"/><use transform="matrix(0.008072916666666667,0,0,0.008072916666666667,131.82265625000002,0)" xlink:href="#bD"/></g><g id="an"><use transform="matrix(0.0087890625,0,0,0.0087890625,0,0)" xlink:href="#bk"/><use transform="matrix(0.0087890625,0,0,0.0087890625,6.4775390625,0)" xlink:href="#bj"/><use transform="matrix(0.0087890625,0,0,0.0087890625,16.9716796875,0)" xlink:href="#bA"/><use transform="matrix(0.0087890625,0,0,0.0087890625,27.2548828125,0)" xlink:href="#bv"/><use transform="matrix(0.0087890625,0,0,0.0087890625,38.0478515625,0)" xlink:href="#cf"/><use transform="matrix(0.0087890625,0,0,0.0087890625,53.8154296875,0)" xlink:href="#cf"/><use transform="matrix(0.0087890625,0,0,0.0087890625,69.5830078125,0)" xlink:href="#bj"/><use transform="matrix(0.0087890625,0,0,0.0087890625,80.0771484375,0)" xlink:href="#bl"/><use transform="matrix(0.0087890625,0,0,0.0087890625,90.7119140625,0)" xlink:href="#bs"/><use transform="matrix(0.0087890625,0,0,0.0087890625,101.7333984375,0)" xlink:href="#by"/><use transform="matrix(0.0087890625,0,0,0.0087890625,112.2275390625,0)" xlink:href="#bD"/></g><g id="ao"><use transform="matrix(0.0087890625,0,0,0.0087890625,0,0)" xlink:href="#bk"/><use transform="matrix(0.0087890625,0,0,0.0087890625,6.4775390625,0)" xlink:href="#bj"/><use transform="matrix(0.0087890625,0,0,0.0087890625,16.9716796875,0)" xlink:href="#bA"/><use transform="matrix(0.0087890625,0,0,0.0087890625,27.2548828125,0)" xlink:href="#bv"/><use transform="matrix(0.0087890625,0,0,0.0087890625,38.0478515625,0)" xlink:href="#cf"/><use transform="matrix(0.0087890625,0,0,0.0087890625,53.8154296875,0)" xlink:href="#cf"/><use transform="matrix(0.0087890625,0,0,0.0087890625,69.5830078125,0)" xlink:href="#bj"/><use transform="matrix(0.0087890625,0,0,0.0087890625,80.0771484375,0)" xlink:href="#bl"/><use transform="matrix(0.0087890625,0,0,0.0087890625,90.7119140625,0)" xlink:href="#bs"/><use transform="matrix(0.0087890625,0,0,0.0087890625,101.7333984375,0)" xlink:href="#bm"/><use transform="matrix(0.0087890625,0,0,0.0087890625,111.8408203125,0)" xlink:href="#bi"/><use transform="matrix(0.0087890625,0,0,0.0087890625,117.7294921875,0)" xlink:href="#bn"/><use transform="matrix(0.0087890625,0,0,0.0087890625,122.0888671875,0)" xlink:href="#bv"/><use transform="matrix(0.0087890625,0,0,0.0087890625,132.8818359375,0)" xlink:href="#bl"/><use transform="matrix(0.0087890625,0,0,0.0087890625,143.5166015625,0)" xlink:href="#bD"/></g><g id="ap"><use transform="matrix(0.0087890625,0,0,0.0087890625,0,0)" xlink:href="#bk"/><use transform="matrix(0.0087890625,0,0,0.0087890625,6.4775390625,0)" xlink:href="#bj"/><use transform="matrix(0.0087890625,0,0,0.0087890625,16.9716796875,0)" xlink:href="#bA"/><use transform="matrix(0.0087890625,0,0,0.0087890625,27.2548828125,0)" xlink:href="#bv"/><use transform="matrix(0.0087890625,0,0,0.0087890625,38.0478515625,0)" xlink:href="#cf"/><use transform="matrix(0.0087890625,0,0,0.0087890625,53.8154296875,0)" xlink:href="#cf"/><use transform="matrix(0.0087890625,0,0,0.0087890625,69.5830078125,0)" xlink:href="#bm"/><use transform="matrix(0.0087890625,0,0,0.0087890625,79.6904296875,0)" xlink:href="#bl"/><use transform="matrix(0.0087890625,0,0,0.0087890625,90.3251953125,0)" xlink:href="#bs"/><use transform="matrix(0.0087890625,0,0,0.0087890625,101.3466796875,0)" xlink:href="#by"/><use transform="matrix(0.0087890625,0,0,0.0087890625,111.8408203125,0)" xlink:href="#bD"/></g><g id="aq"><use transform="matrix(0.0087890625,0,0,0.0087890625,0,0)" xlink:href="#br"/><use transform="matrix(0.0087890625,0,0,0.0087890625,9.9140625,0)" xlink:href="#bv"/><use transform="matrix(0.0087890625,0,0,0.0087890625,20.70703125,0)" xlink:href="#bl"/><use transform="matrix(0.0087890625,0,0,0.0087890625,31.341796875,0)" xlink:href="#bA"/><use transform="matrix(0.0087890625,0,0,0.0087890625,41.625,0)" xlink:href="#bi"/><use transform="matrix(0.0087890625,0,0,0.0087890625,47.513671875,0)" xlink:href="#bn"/><use transform="matrix(0.0087890625,0,0,0.0087890625,51.873046875,0)" xlink:href="#bv"/><use transform="matrix(0.0087890625,0,0,0.0087890625,62.666015625,0)" xlink:href="#bl"/></g><g id="ar"><use transform="matrix(0.0087890625,0,0,0.0087890625,0,0)" xlink:href="#bz"/><use transform="matrix(0.0087890625,0,0,0.0087890625,6.662109375,0)" xlink:href="#bn"/><use transform="matrix(0.0087890625,0,0,0.0087890625,11.021484375,0)" xlink:href="#bh"/><use transform="matrix(0.0087890625,0,0,0.0087890625,15.64453125,0)" xlink:href="#bi"/><use transform="matrix(0.0087890625,0,0,0.0087890625,21.533203125,0)" xlink:href="#bk"/><use transform="matrix(0.0087890625,0,0,0.0087890625,28.3095703125,0)" xlink:href="#bm"/><use transform="matrix(0.0087890625,0,0,0.0087890625,38.4169921875,0)" xlink:href="#bT"/><use transform="matrix(0.0087890625,0,0,0.0087890625,49.4560546875,0)" xlink:href="#bj"/></g><g id="as"><use transform="matrix(0.0087890625,0,0,0.0087890625,0,0)" xlink:href="#bA"/><use transform="matrix(0.0087890625,0,0,0.0087890625,10.283203125,0)" xlink:href="#bv"/><use transform="matrix(0.0087890625,0,0,0.0087890625,21.076171875,0)" xlink:href="#cf"/><use transform="matrix(0.0087890625,0,0,0.0087890625,36.84375,0)" xlink:href="#cf"/><use transform="matrix(0.0087890625,0,0,0.0087890625,52.611328125,0)" xlink:href="#bj"/><use transform="matrix(0.0087890625,0,0,0.0087890625,63.10546875,0)" xlink:href="#bl"/><use transform="matrix(0.0087890625,0,0,0.0087890625,73.740234375,0)" xlink:href="#bi"/><use transform="matrix(0.0087890625,0,0,0.0087890625,79.716796875,0)" xlink:href="#bm"/><use transform="matrix(0.0087890625,0,0,0.0087890625,89.82421875,0)" xlink:href="#bn"/><use transform="matrix(0.0087890625,0,0,0.0087890625,94.18359375,0)" xlink:href="#bk"/><use transform="matrix(0.0087890625,0,0,0.0087890625,100.6611328125,0)" xlink:href="#bj"/><use transform="matrix(0.0087890625,0,0,0.0087890625,111.1552734375,0)" xlink:href="#bD"/></g><path fill="#3a414a" d="M140 405l46-156c120 36 205 19 263-150l32-93L54-1118h197c107 313 237 620 324 950 87-331 219-637 326-950h196L606 167c-68 178-176 259-334 259-64 0-113-12-132-21" id="cl"/><g id="at"><use transform="matrix(0.0087890625,0,0,0.0087890625,0,0)" xlink:href="#bg"/><use transform="matrix(0.0087890625,0,0,0.0087890625,12.4189453125,0)" xlink:href="#bl"/><use transform="matrix(0.0087890625,0,0,0.0087890625,23.0537109375,0)" xlink:href="#bm"/><use transform="matrix(0.0087890625,0,0,0.0087890625,33.1611328125,0)" xlink:href="#bh"/><use transform="matrix(0.0087890625,0,0,0.0087890625,37.6083984375,0)" xlink:href="#cl"/><use transform="matrix(0.0087890625,0,0,0.0087890625,47.724609375,0)" xlink:href="#bD"/><use transform="matrix(0.0087890625,0,0,0.0087890625,57.2255859375,0)" xlink:href="#bj"/></g><g id="au"><use transform="matrix(0.0087890625,0,0,0.0087890625,0,0)" xlink:href="#bj"/><use transform="matrix(0.0087890625,0,0,0.0087890625,10.494140625,0)" xlink:href="#bi"/></g><g id="av"><use transform="matrix(0.0087890625,0,0,0.0087890625,0,0)" xlink:href="#bT"/><use transform="matrix(0.0087890625,0,0,0.0087890625,11.0390625,0)" xlink:href="#bj"/><use transform="matrix(0.0087890625,0,0,0.0087890625,21.533203125,0)" xlink:href="#bl"/><use transform="matrix(0.0087890625,0,0,0.0087890625,32.16796875,0)" xlink:href="#bk"/><use transform="matrix(0.0087890625,0,0,0.0087890625,38.6455078125,0)" xlink:href="#bj"/><use transform="matrix(0.0087890625,0,0,0.0087890625,49.1396484375,0)" xlink:href="#bD"/></g><g id="ax"><use transform="matrix(0.0087890625,0,0,0.0087890625,0,0)" xlink:href="#bV"/><use transform="matrix(0.0087890625,0,0,0.0087890625,10.8193359375,0)" xlink:href="#bk"/><use transform="matrix(0.0087890625,0,0,0.0087890625,17.876953125,0)" xlink:href="#bk"/><use transform="matrix(0.0087890625,0,0,0.0087890625,24.3544921875,0)" xlink:href="#bj"/><use transform="matrix(0.0087890625,0,0,0.0087890625,34.8486328125,0)" xlink:href="#bp"/><use transform="matrix(0.0087890625,0,0,0.0087890625,45.4921875,0)" xlink:href="#bk"/></g><g id="ay"><use transform="matrix(0.0087890625,0,0,0.0087890625,0,0)" xlink:href="#bg"/><use transform="matrix(0.0087890625,0,0,0.0087890625,12.4189453125,0)" xlink:href="#bp"/><use transform="matrix(0.0087890625,0,0,0.0087890625,23.0625,0)" xlink:href="#bi"/><use transform="matrix(0.0087890625,0,0,0.0087890625,28.951171875,0)" xlink:href="#bq"/><use transform="matrix(0.0087890625,0,0,0.0087890625,39.5947265625,0)" xlink:href="#bj"/><use transform="matrix(0.0087890625,0,0,0.0087890625,50.0888671875,0)" xlink:href="#bl"/><use transform="matrix(0.0087890625,0,0,0.0087890625,60.7236328125,0)" xlink:href="#bi"/><use transform="matrix(0.0087890625,0,0,0.0087890625,66.6123046875,0)" xlink:href="#bn"/><use transform="matrix(0.0087890625,0,0,0.0087890625,70.9716796875,0)" xlink:href="#bz"/><use transform="matrix(0.0087890625,0,0,0.0087890625,77.6337890625,0)" xlink:href="#bn"/><use transform="matrix(0.0087890625,0,0,0.0087890625,81.9931640625,0)" xlink:href="#bA"/><use transform="matrix(0.0087890625,0,0,0.0087890625,92.4521484375,0)" xlink:href="#bm"/><use transform="matrix(0.0087890625,0,0,0.0087890625,102.5595703125,0)" xlink:href="#bi"/><use transform="matrix(0.0087890625,0,0,0.0087890625,108.4482421875,0)" xlink:href="#bn"/><use transform="matrix(0.0087890625,0,0,0.0087890625,112.8076171875,0)" xlink:href="#bv"/><use transform="matrix(0.0087890625,0,0,0.0087890625,123.6005859375,0)" xlink:href="#bl"/></g><path fill="#3a414a" d="M232-923l-22-567h194l-22 567H232zm340 0l-22-567h194l-22 567H572" id="cm"/><g id="az"><use transform="matrix(0.0087890625,0,0,0.0087890625,0,0)" xlink:href="#cm"/><use transform="matrix(0.0087890625,0,0,0.0087890625,8.384765625,0)" xlink:href="#bV"/><use transform="matrix(0.0087890625,0,0,0.0087890625,19.2041015625,0)" xlink:href="#bk"/><use transform="matrix(0.0087890625,0,0,0.0087890625,26.26171875,0)" xlink:href="#bk"/><use transform="matrix(0.0087890625,0,0,0.0087890625,32.7392578125,0)" xlink:href="#bj"/><use transform="matrix(0.0087890625,0,0,0.0087890625,43.2333984375,0)" xlink:href="#bp"/><use transform="matrix(0.0087890625,0,0,0.0087890625,53.876953125,0)" xlink:href="#bk"/></g><g id="aA"><use transform="matrix(0.0087890625,0,0,0.0087890625,0,0)" xlink:href="#bs"/><use transform="matrix(0.0087890625,0,0,0.0087890625,11.021484375,0)" xlink:href="#bC"/><use transform="matrix(0.0087890625,0,0,0.0087890625,16.41796875,0)" xlink:href="#bm"/><use transform="matrix(0.0087890625,0,0,0.0087890625,26.525390625,0)" xlink:href="#bp"/><use transform="matrix(0.0087890625,0,0,0.0087890625,37.1689453125,0)" xlink:href="#bi"/><use transform="matrix(0.0087890625,0,0,0.0087890625,43.0576171875,0)" xlink:href="#bq"/><use transform="matrix(0.0087890625,0,0,0.0087890625,53.701171875,0)" xlink:href="#bj"/><use transform="matrix(0.0087890625,0,0,0.0087890625,64.1953125,0)" xlink:href="#bl"/><use transform="matrix(0.0087890625,0,0,0.0087890625,74.830078125,0)" xlink:href="#bi"/><use transform="matrix(0.0087890625,0,0,0.0087890625,80.71875,0)" xlink:href="#bn"/><use transform="matrix(0.0087890625,0,0,0.0087890625,85.078125,0)" xlink:href="#bz"/><use transform="matrix(0.0087890625,0,0,0.0087890625,91.740234375,0)" xlink:href="#bn"/><use transform="matrix(0.0087890625,0,0,0.0087890625,96.099609375,0)" xlink:href="#bA"/><use transform="matrix(0.0087890625,0,0,0.0087890625,106.55859375,0)" xlink:href="#bm"/><use transform="matrix(0.0087890625,0,0,0.0087890625,116.666015625,0)" xlink:href="#bi"/><use transform="matrix(0.0087890625,0,0,0.0087890625,122.5546875,0)" xlink:href="#bn"/><use transform="matrix(0.0087890625,0,0,0.0087890625,126.9140625,0)" xlink:href="#bv"/><use transform="matrix(0.0087890625,0,0,0.0087890625,137.70703125,0)" xlink:href="#bl"/><use transform="matrix(0.0087890625,0,0,0.0087890625,148.341796875,0)" xlink:href="#cm"/></g></defs></g></svg>