<?plantuml 1.2026.2?><svg xmlns="http://www.w3.org/2000/svg" xmlns:xlink="http://www.w3.org/1999/xlink" contentStyleType="text/css" data-diagram-type="SEQUENCE" height="614px" preserveAspectRatio="none" style="width:1696px;height:614px;background:#FFFFFF;" version="1.1" viewBox="0 0 1696 614" width="1696px" zoomAndPan="magnify"><title>Diagramme de S&#233;quence : Consultation du Catalogue et Recherche</title><defs/><g><text fill="#000000" font-family="sans-serif" font-size="14" font-weight="bold" lengthAdjust="spacing" textLength="530.6533" x="583.9397" y="27.9951">Diagramme de S&#233;quence : Consultation du Catalogue et Recherche</text><g><title>WebClient</title><rect fill="#FFFFFF" height="375.3984" style="stroke:#181818;stroke-width:1;" width="10" x="410.9771" y="149.7266"/></g><g><title>ApiGateway</title><rect fill="#FFFFFF" height="308.1328" style="stroke:#181818;stroke-width:1;" width="10" x="799.1973" y="178.8594"/></g><g><title>CatalogService</title><rect fill="#FFFFFF" height="288" style="stroke:#181818;stroke-width:1;" width="10" x="1306.188" y="237.125"/></g><rect fill="#ADD8E6" height="148.4688" style="stroke:#000000;stroke-width:1.5;" width="448.0977" x="1241.4351" y="281.2578"/><rect fill="#FFC0CB" height="102.2031" style="stroke:none;stroke-width:1;" width="448.0977" x="1241.4351" y="327.5234"/><g class="participant-lifeline" data-entity-uid="part1" data-qualified-name="Utilisateur" id="part1-lifeline"><g><title>Utilisateur</title><rect fill="#000000" fill-opacity="0.00000" height="415.5313" width="8" x="40.0049" y="118.5938"/><line style="stroke:#181818;stroke-width:0.5;stroke-dasharray:5,5;" x1="44" x2="44" y1="118.5938" y2="534.125"/></g></g><g class="participant-lifeline" data-entity-uid="part2" data-qualified-name="WebClient" id="part2-lifeline"><g><title>WebClient</title><rect fill="#000000" fill-opacity="0.00000" height="415.5313" width="8" x="411.9771" y="118.5938"/><line style="stroke:#181818;stroke-width:0.5;stroke-dasharray:5,5;" x1="415.0405" x2="415.0405" y1="118.5938" y2="534.125"/></g></g><g class="participant-lifeline" data-entity-uid="part3" data-qualified-name="ApiGateway" id="part3-lifeline"><g><title>ApiGateway</title><rect fill="#000000" fill-opacity="0.00000" height="415.5313" width="8" x="800.1973" y="118.5938"/><line style="stroke:#181818;stroke-width:0.5;stroke-dasharray:5,5;" x1="804.0981" x2="804.0981" y1="118.5938" y2="534.125"/></g></g><g class="participant-lifeline" data-entity-uid="part4" data-qualified-name="CatalogController" id="part4-lifeline"><g><title>CatalogController</title><rect fill="#000000" fill-opacity="0.00000" height="415.5313" width="8" x="1049.334" y="118.5938"/><line style="stroke:#181818;stroke-width:0.5;stroke-dasharray:5,5;" x1="1052.8652" x2="1052.8652" y1="118.5938" y2="534.125"/></g></g><g class="participant-lifeline" data-entity-uid="part5" data-qualified-name="CatalogService" id="part5-lifeline"><g><title>CatalogService</title><rect fill="#000000" fill-opacity="0.00000" height="415.5313" width="8" x="1307.188" y="118.5938"/><line style="stroke:#181818;stroke-width:0.5;stroke-dasharray:5,5;" x1="1310.4351" x2="1310.4351" y1="118.5938" y2="534.125"/></g></g><g class="participant-lifeline" data-entity-uid="part6" data-qualified-name="Redis" id="part6-lifeline"><g><title>Redis</title><rect fill="#000000" fill-opacity="0.00000" height="415.5313" width="8" x="1576.9863" y="118.5938"/><line style="stroke:#181818;stroke-width:0.5;stroke-dasharray:5,5;" x1="1580.7808" x2="1580.7808" y1="118.5938" y2="534.125"/></g></g><g class="participant-lifeline" data-entity-uid="part7" data-qualified-name="Postgres" id="part7-lifeline"><g><title>Postgres</title><rect fill="#000000" fill-opacity="0.00000" height="415.5313" width="8" x="1642.3623" y="118.5938"/><line style="stroke:#181818;stroke-width:0.5;stroke-dasharray:5,5;" x1="1646.1919" x2="1646.1919" y1="118.5938" y2="534.125"/></g></g><g class="participant participant-head" data-entity-uid="part1" data-qualified-name="Utilisateur" id="part1-head"><text fill="#000000" font-family="sans-serif" font-size="14" lengthAdjust="spacing" textLength="72.0098" x="5" y="115.292">Utilisateur</text><ellipse cx="44.0049" cy="50.7969" fill="#E2E2F0" rx="8" ry="8" style="stroke:#181818;stroke-width:0.5;"/><path d="M44.0049,58.7969 L44.0049,85.7969 M31.0049,66.7969 L57.0049,66.7969 M44.0049,85.7969 L31.0049,100.7969 M44.0049,85.7969 L57.0049,100.7969" fill="none" style="stroke:#181818;stroke-width:0.5;"/></g><g class="participant participant-tail" data-entity-uid="part1" data-qualified-name="Utilisateur" id="part1-tail"><text fill="#000000" font-family="sans-serif" font-size="14" lengthAdjust="spacing" textLength="72.0098" x="5" y="546.1201">Utilisateur</text><ellipse cx="44.0049" cy="557.9219" fill="#E2E2F0" rx="8" ry="8" style="stroke:#181818;stroke-width:0.5;"/><path d="M44.0049,565.9219 L44.0049,592.9219 M31.0049,573.9219 L57.0049,573.9219 M44.0049,592.9219 L31.0049,607.9219 M44.0049,592.9219 L57.0049,607.9219" fill="none" style="stroke:#181818;stroke-width:0.5;"/></g><g class="participant participant-head" data-entity-uid="part2" data-qualified-name="WebClient" id="part2-head"><rect fill="#E2E2F0" height="30.2969" rx="2.5" ry="2.5" style="stroke:#181818;stroke-width:0.5;" width="85.873" x="373.0405" y="87.2969"/><text fill="#000000" font-family="sans-serif" font-size="14" lengthAdjust="spacing" textLength="71.873" x="380.0405" y="107.292">WebClient</text></g><g class="participant participant-tail" data-entity-uid="part2" data-qualified-name="WebClient" id="part2-tail"><rect fill="#E2E2F0" height="30.2969" rx="2.5" ry="2.5" style="stroke:#181818;stroke-width:0.5;" width="85.873" x="373.0405" y="533.125"/><text fill="#000000" font-family="sans-serif" font-size="14" lengthAdjust="spacing" textLength="71.873" x="380.0405" y="553.1201">WebClient</text></g><g class="participant participant-head" data-entity-uid="part3" data-qualified-name="ApiGateway" id="part3-head"><rect fill="#E2E2F0" height="30.2969" rx="2.5" ry="2.5" style="stroke:#181818;stroke-width:0.5;" width="98.1982" x="755.0981" y="87.2969"/><text fill="#000000" font-family="sans-serif" font-size="14" lengthAdjust="spacing" textLength="84.1982" x="762.0981" y="107.292">ApiGateway</text></g><g class="participant participant-tail" data-entity-uid="part3" data-qualified-name="ApiGateway" id="part3-tail"><rect fill="#E2E2F0" height="30.2969" rx="2.5" ry="2.5" style="stroke:#181818;stroke-width:0.5;" width="98.1982" x="755.0981" y="533.125"/><text fill="#000000" font-family="sans-serif" font-size="14" lengthAdjust="spacing" textLength="84.1982" x="762.0981" y="553.1201">ApiGateway</text></g><g class="participant participant-head" data-entity-uid="part4" data-qualified-name="CatalogController" id="part4-head"><rect fill="#E2E2F0" height="30.2969" rx="2.5" ry="2.5" style="stroke:#181818;stroke-width:0.5;" width="136.9375" x="984.8652" y="87.2969"/><text fill="#000000" font-family="sans-serif" font-size="14" lengthAdjust="spacing" textLength="122.9375" x="991.8652" y="107.292">CatalogController</text></g><g class="participant participant-tail" data-entity-uid="part4" data-qualified-name="CatalogController" id="part4-tail"><rect fill="#E2E2F0" height="30.2969" rx="2.5" ry="2.5" style="stroke:#181818;stroke-width:0.5;" width="136.9375" x="984.8652" y="533.125"/><text fill="#000000" font-family="sans-serif" font-size="14" lengthAdjust="spacing" textLength="122.9375" x="991.8652" y="553.1201">CatalogController</text></g><g class="participant participant-head" data-entity-uid="part5" data-qualified-name="CatalogService" id="part5-head"><rect fill="#E2E2F0" height="30.2969" rx="2.5" ry="2.5" style="stroke:#181818;stroke-width:0.5;" width="119.5059" x="1251.4351" y="87.2969"/><text fill="#000000" font-family="sans-serif" font-size="14" lengthAdjust="spacing" textLength="105.5059" x="1258.4351" y="107.292">CatalogService</text></g><g class="participant participant-tail" data-entity-uid="part5" data-qualified-name="CatalogService" id="part5-tail"><rect fill="#E2E2F0" height="30.2969" rx="2.5" ry="2.5" style="stroke:#181818;stroke-width:0.5;" width="119.5059" x="1251.4351" y="533.125"/><text fill="#000000" font-family="sans-serif" font-size="14" lengthAdjust="spacing" textLength="105.5059" x="1258.4351" y="553.1201">CatalogService</text></g><g class="participant participant-head" data-entity-uid="part6" data-qualified-name="Redis" id="part6-head"><text fill="#000000" font-family="sans-serif" font-size="14" lengthAdjust="spacing" textLength="38.4111" x="1558.7808" y="115.292">Redis</text><path d="M1562.9863,66.2969 C1562.9863,56.2969 1580.9863,56.2969 1580.9863,56.2969 C1580.9863,56.2969 1598.9863,56.2969 1598.9863,66.2969 L1598.9863,92.2969 C1598.9863,102.2969 1580.9863,102.2969 1580.9863,102.2969 C1580.9863,102.2969 1562.9863,102.2969 1562.9863,92.2969 L1562.9863,66.2969" fill="#E2E2F0" style="stroke:#181818;stroke-width:0.5;"/><path d="M1562.9863,66.2969 C1562.9863,76.2969 1580.9863,76.2969 1580.9863,76.2969 C1580.9863,76.2969 1598.9863,76.2969 1598.9863,66.2969" fill="none" style="stroke:#181818;stroke-width:0.5;"/></g><g class="participant participant-tail" data-entity-uid="part6" data-qualified-name="Redis" id="part6-tail"><text fill="#000000" font-family="sans-serif" font-size="14" lengthAdjust="spacing" textLength="38.4111" x="1558.7808" y="546.1201">Redis</text><path d="M1562.9863,559.4219 C1562.9863,549.4219 1580.9863,549.4219 1580.9863,549.4219 C1580.9863,549.4219 1598.9863,549.4219 1598.9863,559.4219 L1598.9863,585.4219 C1598.9863,595.4219 1580.9863,595.4219 1580.9863,595.4219 C1580.9863,595.4219 1562.9863,595.4219 1562.9863,585.4219 L1562.9863,559.4219" fill="#E2E2F0" style="stroke:#181818;stroke-width:0.5;"/><path d="M1562.9863,559.4219 C1562.9863,569.4219 1580.9863,569.4219 1580.9863,569.4219 C1580.9863,569.4219 1598.9863,569.4219 1598.9863,559.4219" fill="none" style="stroke:#181818;stroke-width:0.5;"/></g><g class="participant participant-head" data-entity-uid="part7" data-qualified-name="Postgres" id="part7-head"><text fill="#000000" font-family="sans-serif" font-size="14" lengthAdjust="spacing" textLength="60.3408" x="1613.1919" y="115.292">Postgres</text><path d="M1628.3623,66.2969 C1628.3623,56.2969 1646.3623,56.2969 1646.3623,56.2969 C1646.3623,56.2969 1664.3623,56.2969 1664.3623,66.2969 L1664.3623,92.2969 C1664.3623,102.2969 1646.3623,102.2969 1646.3623,102.2969 C1646.3623,102.2969 1628.3623,102.2969 1628.3623,92.2969 L1628.3623,66.2969" fill="#E2E2F0" style="stroke:#181818;stroke-width:0.5;"/><path d="M1628.3623,66.2969 C1628.3623,76.2969 1646.3623,76.2969 1646.3623,76.2969 C1646.3623,76.2969 1664.3623,76.2969 1664.3623,66.2969" fill="none" style="stroke:#181818;stroke-width:0.5;"/></g><g class="participant participant-tail" data-entity-uid="part7" data-qualified-name="Postgres" id="part7-tail"><text fill="#000000" font-family="sans-serif" font-size="14" lengthAdjust="spacing" textLength="60.3408" x="1613.1919" y="546.1201">Postgres</text><path d="M1628.3623,559.4219 C1628.3623,549.4219 1646.3623,549.4219 1646.3623,549.4219 C1646.3623,549.4219 1664.3623,549.4219 1664.3623,559.4219 L1664.3623,585.4219 C1664.3623,595.4219 1646.3623,595.4219 1646.3623,595.4219 C1646.3623,595.4219 1628.3623,595.4219 1628.3623,585.4219 L1628.3623,559.4219" fill="#E2E2F0" style="stroke:#181818;stroke-width:0.5;"/><path d="M1628.3623,559.4219 C1628.3623,569.4219 1646.3623,569.4219 1646.3623,569.4219 C1646.3623,569.4219 1664.3623,569.4219 1664.3623,559.4219" fill="none" style="stroke:#181818;stroke-width:0.5;"/></g><g><title>WebClient</title><rect fill="#FFFFFF" height="375.3984" style="stroke:#181818;stroke-width:1;" width="10" x="410.9771" y="149.7266"/></g><g><title>ApiGateway</title><rect fill="#FFFFFF" height="308.1328" style="stroke:#181818;stroke-width:1;" width="10" x="799.1973" y="178.8594"/></g><g><title>CatalogService</title><rect fill="#FFFFFF" height="288" style="stroke:#181818;stroke-width:1;" width="10" x="1306.188" y="237.125"/></g><g class="message" data-entity-1="part1" data-entity-2="part2" id="msg1"><polygon fill="#181818" points="398.9771,145.7266,408.9771,149.7266,398.9771,153.7266,402.9771,149.7266" style="stroke:#181818;stroke-width:1;"/><line style="stroke:#181818;stroke-width:1;" x1="44.0049" x2="404.9771" y1="149.7266" y2="149.7266"/><text fill="#000000" font-family="sans-serif" font-size="13" lengthAdjust="spacing" textLength="347.9722" x="51.0049" y="144.6606">Acc&#232;de &#224; /store/games?genre=RPG&amp;sort=best_seller</text></g><g class="message" data-entity-1="part2" data-entity-2="part3" id="msg2"><polygon fill="#181818" points="787.1973,174.8594,797.1973,178.8594,787.1973,182.8594,791.1973,178.8594" style="stroke:#181818;stroke-width:1;"/><line style="stroke:#181818;stroke-width:1;" x1="420.9771" x2="793.1973" y1="178.8594" y2="178.8594"/><text fill="#000000" font-family="sans-serif" font-size="13" lengthAdjust="spacing" textLength="359.2202" x="427.9771" y="173.7935">GET /api/v1/store/games?genre=RPG&amp;sort=best_seller</text></g><g class="message" data-entity-1="part3" data-entity-2="part4" id="msg3"><polygon fill="#181818" points="1041.334,203.9922,1051.334,207.9922,1041.334,211.9922,1045.334,207.9922" style="stroke:#181818;stroke-width:1;"/><line style="stroke:#181818;stroke-width:1;" x1="809.1973" x2="1047.334" y1="207.9922" y2="207.9922"/><text fill="#000000" font-family="sans-serif" font-size="13" lengthAdjust="spacing" textLength="220.1367" x="816.1973" y="202.9263">Routage /store/games/[params...]</text></g><g class="message" data-entity-1="part4" data-entity-2="part5" id="msg4"><polygon fill="#181818" points="1294.188,233.125,1304.188,237.125,1294.188,241.125,1298.188,237.125" style="stroke:#181818;stroke-width:1;"/><line style="stroke:#181818;stroke-width:1;" x1="1053.334" x2="1300.188" y1="237.125" y2="237.125"/><text fill="#000000" font-family="sans-serif" font-size="13" lengthAdjust="spacing" textLength="233.854" x="1060.334" y="232.0591">Requ&#234;te de recherche (Param&#232;tres)</text></g><g class="message" data-entity-1="part5" data-entity-2="part6" id="msg5"><polygon fill="#181818" points="1568.9863,262.2578,1578.9863,266.2578,1568.9863,270.2578,1572.9863,266.2578" style="stroke:#181818;stroke-width:1;"/><line style="stroke:#181818;stroke-width:1;" x1="1316.188" x2="1574.9863" y1="266.2578" y2="266.2578"/><text fill="#000000" font-family="sans-serif" font-size="13" lengthAdjust="spacing" textLength="240.7983" x="1323.188" y="261.1919">V&#233;rifie le cache des tendances/filtres</text></g><path d="M1241.4351,281.2578 L1305.8779,281.2578 L1305.8779,288.3906 L1295.8779,298.3906 L1241.4351,298.3906 L1241.4351,281.2578" fill="#EEEEEE" style="stroke:#000000;stroke-width:1.5;"/><rect fill="none" height="148.4688" style="stroke:#000000;stroke-width:1.5;" width="448.0977" x="1241.4351" y="281.2578"/><text fill="#000000" font-family="sans-serif" font-size="13" font-weight="bold" lengthAdjust="spacing" textLength="19.4429" x="1256.4351" y="294.3247">alt</text><text fill="#000000" font-family="sans-serif" font-size="11" font-weight="bold" lengthAdjust="spacing" textLength="115.5215" x="1320.8779" y="293.4683">[Cache disponible]</text><g class="message" data-entity-1="part6" data-entity-2="part5" id="msg6"><polygon fill="#181818" points="1327.188,315.5234,1317.188,319.5234,1327.188,323.5234,1323.188,319.5234" style="stroke:#181818;stroke-width:1;"/><line style="stroke:#181818;stroke-width:1;stroke-dasharray:2,2;" x1="1321.188" x2="1579.9863" y1="319.5234" y2="319.5234"/><text fill="#000000" font-family="sans-serif" font-size="13" lengthAdjust="spacing" textLength="164.1758" x="1333.188" y="314.4575">Envoie des metadonn&#233;es</text></g><line style="stroke:#000000;stroke-width:1;stroke-dasharray:2,2;" x1="1241.4351" x2="1689.5327" y1="328.5234" y2="328.5234"/><text fill="#000000" font-family="sans-serif" font-size="11" font-weight="bold" lengthAdjust="spacing" textLength="142.5703" x="1246.4351" y="338.7339">[Cache non disponible]</text><g class="message" data-entity-1="part6" data-entity-2="part5" id="msg7"><polygon fill="#181818" points="1327.188,359.4609,1317.188,363.4609,1327.188,367.4609,1323.188,363.4609" style="stroke:#181818;stroke-width:1;"/><line style="stroke:#181818;stroke-width:1;stroke-dasharray:2,2;" x1="1321.188" x2="1579.9863" y1="363.4609" y2="363.4609"/><text fill="#000000" font-family="sans-serif" font-size="13" lengthAdjust="spacing" textLength="122.1924" x="1333.188" y="358.395">Envoie r&#233;sultat nul</text></g><g class="message" data-entity-1="part5" data-entity-2="part7" id="msg8"><polygon fill="#181818" points="1634.3623,388.5938,1644.3623,392.5938,1634.3623,396.5938,1638.3623,392.5938" style="stroke:#181818;stroke-width:1;"/><line style="stroke:#181818;stroke-width:1;" x1="1316.188" x2="1640.3623" y1="392.5938" y2="392.5938"/><text fill="#000000" font-family="sans-serif" font-size="13" lengthAdjust="spacing" textLength="103.397" x="1323.188" y="387.5278">Requ&#234;te la BDD</text></g><g class="message" data-entity-1="part7" data-entity-2="part5" id="msg9"><polygon fill="#181818" points="1327.188,417.7266,1317.188,421.7266,1327.188,425.7266,1323.188,421.7266" style="stroke:#181818;stroke-width:1;"/><line style="stroke:#181818;stroke-width:1;stroke-dasharray:2,2;" x1="1321.188" x2="1645.3623" y1="421.7266" y2="421.7266"/><text fill="#000000" font-family="sans-serif" font-size="13" lengthAdjust="spacing" textLength="125.0361" x="1333.188" y="416.6606">Retourne les lignes</text></g><g class="message" data-entity-1="part5" data-entity-2="part3" id="msg10"><polygon fill="#181818" points="820.1973,453.8594,810.1973,457.8594,820.1973,461.8594,816.1973,457.8594" style="stroke:#181818;stroke-width:1;"/><line style="stroke:#181818;stroke-width:1;stroke-dasharray:2,2;" x1="814.1973" x2="1305.188" y1="457.8594" y2="457.8594"/><text fill="#000000" font-family="sans-serif" font-size="13" lengthAdjust="spacing" textLength="243.2676" x="826.1973" y="452.7935">Formattage et envoie de la collection</text></g><g class="message" data-entity-1="part3" data-entity-2="part2" id="msg11"><polygon fill="#181818" points="431.9771,482.9922,421.9771,486.9922,431.9771,490.9922,427.9771,486.9922" style="stroke:#181818;stroke-width:1;"/><line style="stroke:#181818;stroke-width:1;stroke-dasharray:2,2;" x1="425.9771" x2="803.1973" y1="486.9922" y2="486.9922"/><text fill="#000000" font-family="sans-serif" font-size="13" lengthAdjust="spacing" textLength="149.4492" x="437.9771" y="481.9263">Affichage des r&#233;sultats</text></g><g class="message" data-entity-1="part2" data-entity-2="part1" id="msg12"><polygon fill="#181818" points="55.0049,512.125,45.0049,516.125,55.0049,520.125,51.0049,516.125" style="stroke:#181818;stroke-width:1;"/><line style="stroke:#181818;stroke-width:1;stroke-dasharray:2,2;" x1="49.0049" x2="409.9771" y1="516.125" y2="516.125"/><text fill="#000000" font-family="sans-serif" font-size="13" lengthAdjust="spacing" textLength="190.5947" x="61.0049" y="511.0591">Affichage des r&#233;sultats filtr&#233;s</text></g><?plantuml-src bPDBRjj038RtEWM104MxY8Lk3QH5OgVU6auVYw8ew14j4ntDA3EKYzwcoxZNqCNAcVWXr-uY0WHe9F4Z-VEdi5Y2AMCTi6a8AeA7VllOaJC4OvXu5pihAEmTL1rCKD3wkYCWWGMPDGMzYmAD-02VX2r75Ef2qM8GDjoY4_X2oubbSdBozhRbcVxx4t-TlDwbqCmIlBKKBdrzeB1XGqMbnoL6qbegZiVZt4Uf0yMY6DG4r--EfOpXrfZ-IVljVqCPjNmgQsmelg_91RfPp6UleWzoiwGetoFbIhHDtYXhqD7XAT6FBOrXTlyHIcovtBnzCNuWpV4n9JWJPmmBtmdMTD93-LKrmoQEHgDlnLdC0BJJKIdqsFL_91iWxESAh-S9qp-9IldcMDu_GpWz9dgUnXW-zzl0AoPGYnbCm8eY2BaArLwnNB5Dv0Ajm9NbUYrBsoLy_fLZwnqlBHMWLqR2zONIxzt6ypEw8S7AEzTlbKfMZN3Lilkn8xhauHTIGxzzNW1mdSqXvztkpGO36It2tNIQ0mwVpzFa2F5TS4cZ2Ag1IvMxwcAg4uTfx0SV6fGyVLr7skkGafiqQPFMDfE6BXfkWK9kLoiswyH82XxwrTMfw98X1uPNqc2z_e-2F6Wz_WK0?></g></svg>