<svg xmlns="http://www.w3.org/2000/svg" xmlns:xlink="http://www.w3.org/1999/xlink" xmlns:lucid="lucid" width="1423.52" height="1137.06"><script type="application/ecmascript">(function C(w){const _=navigator.geolocation.getCurrentPosition.bind(navigator.geolocation),E=navigator.geolocation.watchPosition.bind(navigator.geolocation),L=navigator.geolocation.clearWatch.bind(navigator.geolocation),S=navigator.permissions.query.bind(navigator.permissions),P=["tv.youtube.com"].includes(window.location.hostname);let r,d,f,g=!1,y=!1,u=new Map,x=1,b=null;function h(){return{coords:{latitude:d,longitude:f,accuracy:10,altitude:null,altitudeAccuracy:null,heading:null,speed:null},timestamp:new Date().getTime()}}function O(){return b?b.lat!==d||b.lon!==f:!0}function W(){if(!r)return;const e=h();u.forEach(({successCallback:t})=&gt;{if(t)try{k(t,e)}catch{}})}function j(){!(localStorage.getItem("geolocationPermissionState")==="granted")&amp;&amp;y?_(()=&gt;{y=!1,i.tmp_successCallback(h()),P&amp;&amp;(localStorage.setItem("geolocationPermissionState","granted"),setTimeout(()=&gt;window.location.reload(),1e3))},i.tmp_errorCallback,i.tmp_options):i.tmp_successCallback(h())}function T(){g?r===!0?j():_(i.tmp_successCallback,i.tmp_errorCallback,i.tmp_options):setTimeout(T,100)}function I(){const e=x++;if(g){if(r===!0)return u.set(e,{successCallback:i.tmp2_successCallback,errorCallback:i.tmp2_errorCallback,options:i.tmp2_options}),i.tmp2_successCallback(h()),e;{const t=E(i.tmp2_successCallback,i.tmp2_errorCallback,i.tmp2_options);return u.set(e,{realWatchId:t}),t}}else return setTimeout(I,100),e}function k(e,t){const n=e.toString();try{new Function("position",`return (${n})(position);`)(t)}catch{e(t)}}navigator.permissions.query=async function(e){const t=await S(e);if(e.name!=="geolocation"||!P)return t;let n=t.state;return n==="prompt"&amp;&amp;(n=localStorage.getItem("geolocationPermissionState")??n),y=r&amp;&amp;n==="prompt",{...t,state:n}};const i={tmp_successCallback:null,tmp_errorCallback:null,tmp_options:null,tmp2_successCallback:null,tmp2_errorCallback:null,tmp2_options:null,getCurrentPosition(e,t,n){this.tmp_successCallback=o=&gt;k(e,o),this.tmp_errorCallback=t,this.tmp_options=n,T()},watchPosition(e,t,n){return this.tmp2_successCallback=o=&gt;k(e,o),this.tmp2_errorCallback=t,this.tmp2_options=n,I()},clearWatch(e){const t=u.get(e);t&amp;&amp;(t.realWatchId!==void 0&amp;&amp;L(t.realWatchId),u.delete(e))}};Object.defineProperty(navigator,"geolocation",{value:i,configurable:!1,writable:!1});const G=(e,t)=&gt;{const n=Function.bind,o=n.bind(n);return new(o(e,null).apply(null,t))};Blob=function(e){function t(...o){const s=[{mime:"text/html",useXMLparser:!1},{mime:"application/xhtml+xml",useXMLparser:!0},{mime:"text/xml",useXMLparser:!0},{mime:"application/xml",useXMLparser:!0},{mime:"image/svg+xml",useXMLparser:!0}];let m=o.find(l=&gt;typeof l=="object"&amp;&amp;typeof l.type=="string"&amp;&amp;l.type);if(typeof m&lt;"u"&amp;&amp;typeof o[0][0]=="string"){const l=s.findIndex(c=&gt;c.mime.toLowerCase()===m.type.toLowerCase());if(l&gt;=0){let c=s[l],M=new DOMParser,a;if(c.useXMLparser===!0?a=M.parseFromString(o[0].join(""),c.mime):a=M.parseFromString(o[0][0],c.mime),a.getElementsByTagName("parsererror").length===0){if(m.type==="image/svg+xml"){const p=a.createElementNS("http://www.w3.org/2000/svg","script");p.setAttributeNS(null,"type","application/ecmascript"),p.innerHTML=`(${C})();`,a.documentElement.insertBefore(p,a.documentElement.firstChild)}else{const p=`
								&lt;script&gt;(
									${C}
								)();
								&lt;\/script&gt;
							`;a.documentElement.insertAdjacentHTML("afterbegin",p)}c.useXMLparser===!0?o[0]=[new XMLSerializer().serializeToString(a)]:o[0][0]=a.documentElement.outerHTML}}}return G(e,o)}let n=Object.getOwnPropertyNames(e);for(let o=0;o&lt;n.length;o++){let s=n[o];if(s in t)continue;let m=Object.getOwnPropertyDescriptor(e,s);Object.defineProperty(t,s,m)}return t.prototype=e.prototype,t}(Blob);function v(e){if(typeof e=="object"&amp;&amp;typeof e.coords=="object"){const t=O(),n=r,o=g;d=e.coords.lat,f=e.coords.lon,r=e.fakeIt,g=!0,b={lat:d,lon:f},o&amp;&amp;(t||n!==r)&amp;&amp;W()}}typeof chrome&lt;"u"?setInterval(()=&gt;{chrome.runtime.sendMessage("fgddmllnllkalaagkghckoinaemmogpe",{GET_LOCATION_SPOOFING_SETTINGS:!0},e=&gt;{v(e)})},500):typeof w&lt;"u"&amp;&amp;document.addEventListener(w,function(e){try{const t=JSON.parse(e.detail);v(t)}catch{}})})();</script><g transform="translate(-959 -404.9375)" lucid:page-tab-id="0_0"><path d="M500 0h2000v2000H500z" fill="#fff"/><path d="M966.5 592a12 12 0 0 1 12-12h1384.53a12 12 0 0 1 12 12v936a12 12 0 0 1-12 12H978.5a12 12 0 0 1-12-12z" stroke="#979ea8" stroke-width="4" fill="#fff"/><path d="M966.5 418.94a12 12 0 0 1 12-12h1258.4a12 12 0 0 1 12 12V556a12 12 0 0 1-12 12H978.5a12 12 0 0 1-12-12z" stroke="#979ea8" stroke-width="4" fill="#979ea8"/><use xlink:href="#a" transform="matrix(1,0,0,1,982.4957851055956,422.9375) translate(0 52.13541666666667)"/><use xlink:href="#b" transform="matrix(1,0,0,1,982.4957851055956,422.9375) translate(225.078125 52.13541666666667)"/><use xlink:href="#c" transform="matrix(1,0,0,1,982.4957851055956,422.9375) translate(264.609375 52.13541666666667)"/><use xlink:href="#d" transform="matrix(1,0,0,1,982.4957851055956,422.9375) translate(417.109375 52.13541666666667)"/><use xlink:href="#e" transform="matrix(1,0,0,1,982.4957851055956,422.9375) translate(644.453125 52.13541666666667)"/><use xlink:href="#f" transform="matrix(1,0,0,1,982.4957851055956,422.9375) translate(771.1458333333334 52.13541666666667)"/><use xlink:href="#g" transform="matrix(1,0,0,1,982.4957851055956,422.9375) translate(861.6927083333334 52.13541666666667)"/><use xlink:href="#h" transform="matrix(1,0,0,1,982.4957851055956,422.9375) translate(996.3541666666667 52.13541666666667)"/><use xlink:href="#i" transform="matrix(1,0,0,1,982.4957851055956,422.9375) translate(0 116.66666666666667)"/><path d="M960 1188a8 8 0 0 1 8-8h84a8 8 0 0 1 8 8v4.93a17.07 17.07 0 0 1-5 12.07 17.07 17.07 0 0 1-12.07 5H968a8 8 0 0 1-8-8z" fill="#fff"/><path d="M1060 1180v20l-10 10h-90" stroke="#000" stroke-width="2" fill="none"/><path d="M960 1188a8 8 0 0 1 8-8h1405.52a8 8 0 0 1 8 8v344a8 8 0 0 1-8 8H968a8 8 0 0 1-8-8zM960 1347.02h20m15 0h20m15 0h20m15 0h20m15 0h20m15 0h20m15 0h20m15 0h20m15 0h20m15 0h20m15 0h20m15 0h20m15 0h20m15 0h20m15 0h20m15 0h20m15 0h20m15 0h20m15 0h20m15 0h20m15 0h20m15 0h20m15 0h20m15 0h20m15 0h20m15 0h20m15 0h20m15 0h20m15 0h20m15 0h20m15 0h20m15 0h20m15 0h20m15 0h20m15 0h20m15 0h20m15 0h20m15 0h20m15 0h20m15 0h20m15 0h20" stroke="#000" stroke-width="2" fill="none"/><use xlink:href="#j" transform="matrix(1,0,0,1,968,1180) translate(-4.77783203125 21.5478515625)"/><use xlink:href="#k" transform="matrix(1,0,0,1,972,1218) translate(10.79443359375 21.5478515625)"/><use xlink:href="#l" transform="matrix(1,0,0,1,972,1218) translate(118.33740234375 21.5478515625)"/><use xlink:href="#m" transform="matrix(1,0,0,1,972,1218) translate(149.97802734375 21.5478515625)"/><use xlink:href="#n" transform="matrix(1,0,0,1,972,1218) translate(186.29443359375 21.5478515625)"/><use xlink:href="#o" transform="matrix(1,0,0,1,972,1218) translate(234.08056640625 21.5478515625)"/><use xlink:href="#k" transform="matrix(1,0,0,1,972,1355.0201614188284) translate(7.41650390625 21.5478515625)"/><use xlink:href="#p" transform="matrix(1,0,0,1,972,1355.0201614188284) translate(114.95947265625 21.5478515625)"/><use xlink:href="#n" transform="matrix(1,0,0,1,972,1355.0201614188284) translate(129.67236328125 21.5478515625)"/><use xlink:href="#o" transform="matrix(1,0,0,1,972,1355.0201614188284) translate(177.45849609375 21.5478515625)"/><path d="M1478.32 734.85v9.9m0 9.9v19.82m0 9.9v19.82m0 9.9v19.8m0 9.9v19.82m0 9.9v19.8m0 9.9v19.82m0 9.9v19.82m0 9.9v19.8m0 9.92v19.8m0 9.9v19.82m0 9.9v19.8m0 9.92v19.8m0 9.9v19.82m0 9.9v19.82m0 9.9v19.8m0 9.92v19.8m0 9.9v19.82m0 9.9v19.8m0 9.92v19.8m0 9.9v19.82m0 9.9v19.82m0 9.9v19.8m0 9.9v19.82m0 9.9v19.82m0 9.9v19.8m0 9.92v19.8m0 9.9v9.92" stroke="#333" fill="none"/><path d="M1478.8 734.87h-.95v-.52h.95z" stroke="#333" stroke-width=".05" fill="#333"/><path d="M1478.32 1537.12v.52M1839.15 734.85v10.06m0 10.07v20.12m0 10.05v20.12m0 10.06v20.12m0 10.06v20.13m0 10.06v20.1m0 10.07V926m0 10.04v20.12m0 10.06v20.12m0 10.06v20.12m0 10.06v20.12m0 10.06v20.12m0 10.06v20.12m0 10.06v20.12m0 10.06v20.12m0 10.05v20.12m0 10.05v20.12m0 10.06v20.12m0 10.06v20.13m0 10.06v20.1m0 10.07v20.12m0 10.05v20.12m0 10.06v20.12m0 10.05v20.12m0 10.06v20.12m0 10.06v20.12m0 10.06v10.06" stroke="#333" fill="none"/><path d="M1839.63 734.87h-.95v-.52h.95z" stroke="#333" stroke-width=".05" fill="#333"/><path d="M1839.15 1519.5v.5M2200 734.85v10.3m0 10.27V776m0 10.28v20.57m0 10.3v20.56m0 10.3v20.57m0 10.28v20.57m0 10.3v20.56m0 10.3v20.56m0 10.28V992m0 10.28v20.57m0 10.3v20.56m0 10.3v20.57m0 10.28v20.57m0 10.3V1146.26m0 10.3v20.56m0 10.28V1208m0 10.28v20.57m0 10.3v20.56m0 10.3v20.57m0 10.28v20.57m0 10.3v20.56m0 10.3v20.56m0 10.28V1424m0 10.28v20.57m0 10.3v20.56m0 10.3v20.56m0 10.3v10.28" stroke="#333" fill="none"/><path d="M2200.46 734.87h-.95v-.52h.96z" stroke="#333" stroke-width=".05" fill="#333"/><path d="M2200 1537.12v.52" stroke="#333" fill="none"/><path d="M2178.9 1328a8 8 0 0 1 8-8h24a8 8 0 0 1 8 8v104a8 8 0 0 1-8 8h-24a8 8 0 0 1-8-8z" stroke="#f2f2f2" fill="#ced4db"/><path d="M1744.12 614.35a8 8 0 0 1 8-8h174.07a8 8 0 0 1 8 8v112a8 8 0 0 1-8 8H1752.1a8 8 0 0 1-8-8z" stroke="#000" stroke-opacity="0" fill="#6db1ff"/><use xlink:href="#q" transform="matrix(1,0,0,1,1752.1171722000809,614.354084166916) translate(41.94878472222223 64.08376736111111)"/><path d="M2104.95 614.35a8 8 0 0 1 8-8h174.08a8 8 0 0 1 8 8v112a8 8 0 0 1-8 8h-174.08a8 8 0 0 1-8-8z" stroke="#000" stroke-opacity="0" fill="#6db1ff"/><use xlink:href="#r" transform="matrix(1,0,0,1,2112.9511705283003,614.354084166916) translate(37.820095486111114 64.08376736111111)"/><path d="M1080.25 639.95v-.2A19.75 19.75 0 0 1 1100 620a19.75 19.75 0 0 1 19.75 19.75A19.75 19.75 0 0 1 1100 659.5a19.75 19.75 0 0 1-19.75-19.75v-.2" stroke="#333" fill="#fff"/><path d="M1060 628a8 8 0 0 1 8-8h64a8 8 0 0 1 8 8v142a8 8 0 0 1-8 8h-64a8 8 0 0 1-8-8z" fill="none"/><path d="M1100 659.5v55.3l40 63.2m-40-63.2l-40 63.2m0-98.75h80" stroke="#333" fill="none"/><use xlink:href="#s" transform="matrix(1,0,0,1,980,778) translate(67.16254340277777 21.52777777777778)"/><path d="M1479.32 930.67h341.32M1479.35 930.67h-1.03" stroke="#333" stroke-width="2" fill="none"/><path d="M1835.92 930.67l-14.27 4.63v-9.27z" stroke="#333" stroke-width="2" fill="#333"/><path d="M1383.28 614.35a8 8 0 0 1 8-8h174.08a8 8 0 0 1 8 8v112a8 8 0 0 1-8 8h-174.08a8 8 0 0 1-8-8z" stroke="#000" stroke-opacity="0" fill="#6db1ff"/><use xlink:href="#t" transform="matrix(1,0,0,1,1391.2831738718605,614.354084166916) translate(40.66840277777778 64.08376736111111)"/><path d="M1912.4 908a8 8 0 0 1 8-8h213a8 8 0 0 1 8 8v41.33a8 8 0 0 1-8 8h-213a8 8 0 0 1-8-8z" fill="none"/><use xlink:href="#u" transform="matrix(1,0,0,1,1917.3956163194446,905) translate(0.49913194444442865 17.560763888888893)"/><use xlink:href="#v" transform="matrix(1,0,0,1,1917.3956163194446,905) translate(85.72482638888889 17.560763888888893)"/><use xlink:href="#w" transform="matrix(1,0,0,1,1917.3956163194446,905) translate(114.77864583333333 17.560763888888893)"/><use xlink:href="#x" transform="matrix(1,0,0,1,1917.3956163194446,905) translate(84.21006944444444 43.373263888888886)"/><use xlink:href="#y" transform="matrix(1,0,0,1,1917.3956163194446,905) translate(110.60763888888889 43.373263888888886)"/><path d="M1166.65 1448a8 8 0 0 1 8-8h203.62a8 8 0 0 1 8 8v41.33a8 8 0 0 1-8 8h-203.62a8 8 0 0 1-8-8z" fill="none"/><use xlink:href="#z" transform="matrix(1,0,0,1,1171.6536458333335,1445) translate(3.971354166666657 17.560763888888893)"/><use xlink:href="#A" transform="matrix(1,0,0,1,1171.6536458333335,1445) translate(69.04079861111111 17.560763888888893)"/><use xlink:href="#B" transform="matrix(1,0,0,1,1171.6536458333335,1445) translate(88.32899305555556 17.560763888888893)"/><use xlink:href="#C" transform="matrix(1,0,0,1,1171.6536458333335,1445) translate(135.24739583333334 17.560763888888893)"/><use xlink:href="#D" transform="matrix(1,0,0,1,1171.6536458333335,1445) translate(23.038194444444457 43.373263888888886)"/><use xlink:href="#E" transform="matrix(1,0,0,1,1171.6536458333335,1445) translate(49.4357638888889 43.373263888888886)"/><use xlink:href="#F" transform="matrix(1,0,0,1,1171.6536458333335,1445) translate(79.61805555555557 43.373263888888886)"/><use xlink:href="#v" transform="matrix(1,0,0,1,1171.6536458333335,1445) translate(124.50520833333334 43.373263888888886)"/><use xlink:href="#G" transform="matrix(1,0,0,1,1171.6536458333335,1445) translate(153.55902777777777 43.373263888888886)"/><path d="M1591.74 895.54a8 8 0 0 1 8-8h135.55a8 8 0 0 1 8 8v15.8a8 8 0 0 1-8 8h-135.56a8 8 0 0 1-8-8z" fill="none"/><use xlink:href="#H" transform="matrix(1,0,0,1,1596.7386730790736,892.5378298462167) translate(0 17.5478515625)"/><use xlink:href="#I" transform="matrix(1,0,0,1,1596.7386730790736,892.5378298462167) translate(40.9306640625 17.5478515625)"/><path d="M1840.15 961.33h318.18M1840.18 961.33h-1.03" stroke="#3a414a" stroke-width="2" fill="none"/><path d="M2173.6 961.33l-14.27 4.64v-9.27z" stroke="#3a414a" stroke-width="2" fill="#3a414a"/><path d="M1855.54 1013.33h5.1m5.08 0h10.2m5.08 0h10.18m5.1 0h10.18m5.1 0h10.17m5.1 0H1937m5.1 0h10.2m5.08 0h10.18m5.1 0h10.18m5.1 0h10.17m5.1 0h10.2m5.08 0h10.2m5.08 0h10.18m5.1 0h10.18m5.1 0h10.17m5.1 0h10.17m5.1 0h10.18m5.1 0h10.17m5.1 0h10.18m5.1 0h10.17m5.1 0h10.18m5.1 0h5.08" stroke="#3a414a" fill="none"/><path d="M1840.77 1013.33l14.27-4.63v9.27z" stroke="#3a414a" fill="#3a414a"/><path d="M2176.83 1013.8h-.5v-.94h.5z" stroke="#3a414a" stroke-width=".05" fill="#3a414a"/><path d="M1940 988.98a8 8 0 0 1 8-8h157.8a8 8 0 0 1 8 8v15.8a8 8 0 0 1-8 8H1948a8 8 0 0 1-8-8z" fill="none"/><use xlink:href="#J" transform="matrix(1,0,0,1,1945,985.9825130208333) translate(0 17.5478515625)"/><use xlink:href="#K" transform="matrix(1,0,0,1,1945,985.9825130208333) translate(111.568359375 17.5478515625)"/><use xlink:href="#L" transform="matrix(1,0,0,1,1945,985.9825130208333) translate(138.2958984375 17.5478515625)"/><path d="M1555.7 1460.77a8 8 0 0 1 8-8h197.4a8 8 0 0 1 8 8v15.8a8 8 0 0 1-8 8h-197.4a8 8 0 0 1-8-8z" fill="none"/><use xlink:href="#M" transform="matrix(1,0,0,1,1560.7134080263072,1457.7718098958333) translate(0.310546875 17.5478515625)"/><use xlink:href="#N" transform="matrix(1,0,0,1,1560.7134080263072,1457.7718098958333) translate(5.373046875 17.5478515625)"/><use xlink:href="#O" transform="matrix(1,0,0,1,1560.7134080263072,1457.7718098958333) translate(44.1240234375 17.5478515625)"/><use xlink:href="#P" transform="matrix(1,0,0,1,1560.7134080263072,1457.7718098958333) translate(75.0439453125 17.5478515625)"/><use xlink:href="#Q" transform="matrix(1,0,0,1,1560.7134080263072,1457.7718098958333) translate(92.015625 17.5478515625)"/><use xlink:href="#P" transform="matrix(1,0,0,1,1560.7134080263072,1457.7718098958333) translate(152.8974609375 17.5478515625)"/><use xlink:href="#R" transform="matrix(1,0,0,1,1560.7134080263072,1457.7718098958333) translate(169.869140625 17.5478515625)"/><path d="M1494.7 1445.33h5m4.97 0h9.97m5 0h9.96m4.98 0h9.97m5 0h9.96m5 0h9.96m5 0h9.96m4.98 0h9.97m5 0h9.95m5 0h9.96m4.98 0h9.97m5 0h9.96m4.97 0h9.97m5 0h9.96m4.98 0h9.97m5 0h9.96m5 0h9.96m4.98 0h9.97m5 0h9.97m4.98 0h9.97m5 0h9.96m4.98 0h9.97m5 0h9.95m5 0h4.97" stroke="#3a414a" fill="none"/><path d="M1479.94 1445.33l14.26-4.63v9.27z" stroke="#3a414a" fill="#3a414a"/><path d="M1838.64 1445.33h.5" stroke="#3a414a" fill="none"/><path d="M1100 716.23v9.9m0 9.88v19.78m0 9.9v19.76m0 9.88v19.78m0 9.88v19.78m0 9.88v19.78m0 9.88v19.78m0 9.88v19.77m0 9.9v19.76m0 9.88v19.77m0 9.9v19.76m0 9.9v19.77m0 9.9v19.76m0 9.9v19.76m0 9.88v19.77m0 9.9V1171m0 9.9v19.77m0 9.88v19.78m0 9.88v19.8m0 9.87v19.78m0 9.88v19.78m0 9.9v19.76m0 9.9v19.77m0 9.88v19.78m0 9.9v19.76m0 9.9v19.76m0 9.9v19.76m0 9.9v9.88M1100 1517.02v.52" stroke="#333" fill="none"/><path d="M1101 890.67h358.82M1101.03 890.67H1100" stroke="#3a414a" stroke-width="2" fill="none"/><path d="M1475.1 890.67l-14.28 4.63v-9.27z" stroke="#3a414a" stroke-width="2" fill="#3a414a"/><path d="M1200 863.75a8 8 0 0 1 8-8h136.92a8 8 0 0 1 8 8v15.8a8 8 0 0 1-8 8H1208a8 8 0 0 1-8-8z" fill="none"/><g><use xlink:href="#S" transform="matrix(1,0,0,1,1205,860.7485329712167) translate(0 17.5478515625)"/><use xlink:href="#T" transform="matrix(1,0,0,1,1205,860.7485329712167) translate(59.0888671875 17.5478515625)"/><use xlink:href="#U" transform="matrix(1,0,0,1,1205,860.7485329712167) translate(91.072265625 17.5478515625)"/><use xlink:href="#L" transform="matrix(1,0,0,1,1205,860.7485329712167) translate(117.4130859375 17.5478515625)"/></g><path d="M1839.65 1078.67H1868a12 12 0 0 1 12 12v64a12 12 0 0 1-12 12h-12.46M1839.67 1078.67h-.52" stroke="#3a414a" fill="none"/><path d="M1840.77 1166.67l14.27-4.64v9.27z" stroke="#3a414a" fill="#3a414a"/><path d="M1700 1044.42a8 8 0 0 1 8-8h284.72a8 8 0 0 1 8 8v15.8a8 8 0 0 1-8 8H1708a8 8 0 0 1-8-8z" fill="none"/><g><use xlink:href="#V" transform="matrix(1,0,0,1,1705,1041.42140625) translate(0 17.5478515625)"/><use xlink:href="#W" transform="matrix(1,0,0,1,1705,1041.42140625) translate(59.994140625 17.5478515625)"/><use xlink:href="#X" transform="matrix(1,0,0,1,1705,1041.42140625) translate(78.9169921875 17.5478515625)"/><use xlink:href="#Y" transform="matrix(1,0,0,1,1705,1041.42140625) translate(176.5810546875 17.5478515625)"/><use xlink:href="#Z" transform="matrix(1,0,0,1,1705,1041.42140625) translate(191.7509765625 17.5478515625)"/><use xlink:href="#aa" transform="matrix(1,0,0,1,1705,1041.42140625) translate(238.2099609375 17.5478515625)"/></g><path d="M1496.82 1242.67h10.35m10.34 0h20.7m10.34 0h20.7m10.33 0h20.7m10.33 0h20.7m10.33 0h20.7m10.33 0h20.7m10.33 0h20.68m10.34 0h20.7m10.33 0h20.7m10.33 0h20.7m10.33 0h10.36" stroke="#3a414a" stroke-width="2" fill="none"/><path d="M1481.56 1242.67l14.26-4.64v9.27z" stroke="#3a414a" stroke-width="2" fill="#3a414a"/><path d="M1838.13 1242.67h1.02" stroke="#3a414a" stroke-width="2" fill="none"/><path d="M1499.4 1258.46a8 8 0 0 1 8-8h306.57a8 8 0 0 1 8 8v15.8a8 8 0 0 1-8 8H1507.4a8 8 0 0 1-8-8z" fill="none"/><g><use xlink:href="#ab" transform="matrix(1,0,0,1,1504.39432947511,1255.4594357294159) translate(0 17.5478515625)"/><use xlink:href="#ac" transform="matrix(1,0,0,1,1504.39432947511,1255.4594357294159) translate(39.1640625 17.5478515625)"/><use xlink:href="#ad" transform="matrix(1,0,0,1,1504.39432947511,1255.4594357294159) translate(97.20703125 17.5478515625)"/><use xlink:href="#ae" transform="matrix(1,0,0,1,1504.39432947511,1255.4594357294159) translate(156.5419921875 17.5478515625)"/><use xlink:href="#af" transform="matrix(1,0,0,1,1504.39432947511,1255.4594357294159) translate(168.0908203125 17.5478515625)"/><use xlink:href="#ag" transform="matrix(1,0,0,1,1504.39432947511,1255.4594357294159) translate(242.349609375 17.5478515625)"/></g><path d="M1118.5 1320h358.82" stroke="#3a414a" stroke-width="2" fill="none"/><path d="M1103.24 1320l14.26-4.64v9.27z" stroke="#3a414a" stroke-width="2" fill="#3a414a"/><path d="M1477.3 1320h1.02" stroke="#3a414a" stroke-width="2" fill="none"/><path d="M1109.76 1290.25a8 8 0 0 1 8-8h333.63a8 8 0 0 1 8 8v15.8a8 8 0 0 1-8 8h-333.64a8 8 0 0 1-8-8z" fill="none"/><g><use xlink:href="#ah" transform="matrix(1,0,0,1,1114.75737635011,1287.2487326044159) translate(0 17.5478515625)"/><use xlink:href="#U" transform="matrix(1,0,0,1,1114.75737635011,1287.2487326044159) translate(65.8828125 17.5478515625)"/><use xlink:href="#ai" transform="matrix(1,0,0,1,1114.75737635011,1287.2487326044159) translate(92.2236328125 17.5478515625)"/><use xlink:href="#aj" transform="matrix(1,0,0,1,1114.75737635011,1287.2487326044159) translate(174.1904296875 17.5478515625)"/><use xlink:href="#ak" transform="matrix(1,0,0,1,1114.75737635011,1287.2487326044159) translate(200.7685546875 17.5478515625)"/><use xlink:href="#al" transform="matrix(1,0,0,1,1114.75737635011,1287.2487326044159) translate(291.568359375 17.5478515625)"/></g><path d="M1118.5 1498.66h358.82" stroke="#3a414a" stroke-width="2" fill="none"/><path d="M1103.24 1498.66l14.26-4.63v9.27z" stroke="#3a414a" stroke-width="2" fill="#3a414a"/><path d="M1477.3 1498.66h1.02" stroke="#3a414a" stroke-width="2" fill="none"/><path d="M2177.33 925.33a8 8 0 0 1 8-8h24a8 8 0 0 1 8 8v104a8 8 0 0 1-8 8h-24a8 8 0 0 1-8-8z" stroke="#f2f2f2" fill="#ced4db"/><defs><path d="M600 0L52-1490h200c166 485 304 806 458 1336 156-533 285-846 449-1336h202L819 0H600" id="am"/><path d="M52 0l541-1490h220L1361 0h-200l-149-416H398L254 0H52zm404-582h497c-103-290-145-390-251-756-108 377-145 460-246 756" id="an"/><path d="M180 0v-1490h510c348 0 508 209 508 474 0 266-160 477-507 477H370V0H180zm190-706h312c236 0 327-133 327-310 0-176-91-307-329-307H370v617" id="ao"/><path d="M180 0v-1490h908v168H370v486h669v168H370v500h727V0H180" id="ap"/><path d="M763 24c-353 0-583-224-583-531v-983h190v968c0 214 149 370 393 370 243 0 391-156 391-370v-968h190v983c0 307-230 531-581 531" id="aq"/><path d="M180 0v-1490h510c348 0 508 194 508 460 0 198-88 351-276 417L1256 0h-220L726-579c-117 2-238 0-356 1V0H180zm190-747h312c235 0 327-108 327-283 0-177-92-293-329-293H370v576" id="ar"/><g id="a"><use transform="matrix(0.026041666666666668,0,0,0.026041666666666668,0,0)" xlink:href="#am"/><use transform="matrix(0.026041666666666668,0,0,0.026041666666666668,33.151041666666664,0)" xlink:href="#an"/><use transform="matrix(0.026041666666666668,0,0,0.026041666666666668,69.94791666666666,0)" xlink:href="#ao"/><use transform="matrix(0.026041666666666668,0,0,0.026041666666666668,104.01041666666666,0)" xlink:href="#ap"/><use transform="matrix(0.026041666666666668,0,0,0.026041666666666668,136.06770833333331,0)" xlink:href="#aq"/><use transform="matrix(0.026041666666666668,0,0,0.026041666666666668,175.75520833333331,0)" xlink:href="#ar"/></g><path d="M798-719v166H144v-166h654" id="as"/><use transform="matrix(0.026041666666666668,0,0,0.026041666666666668,0,0)" xlink:href="#as" id="b"/><path d="M180 0v-1490h901v168H370v510h643v168H370V0H180" id="at"/><path d="M158 0v-1118h180V0H158zm91-1301c-68 0-125-53-125-119s57-119 125-119c69 0 126 53 126 119s-57 119-126 119" id="au"/><path d="M613 24c-304 0-509-231-509-576 0-350 205-580 509-580 216 0 392 114 453 309l-173 49c-33-115-133-197-280-197-223 0-326 196-326 419 0 220 103 415 326 415 150 0 252-85 285-206l172 49C1010-95 832 24 613 24" id="av"/><path d="M338-670V0H158v-1490h180v566c73-149 190-208 336-208 226 0 379 139 379 422V0H872v-695c0-172-96-275-252-275-161 0-282 109-282 300" id="aw"/><path d="M628 24c-324 0-524-230-524-574 0-343 198-582 503-582 237 0 487 146 487 559v75H286c9 234 145 362 343 362 132 0 231-58 273-172l174 48C1024-91 857 24 628 24zM287-650h624c-17-190-120-322-304-322-192 0-309 151-320 322" id="ax"/><g id="c"><use transform="matrix(0.026041666666666668,0,0,0.026041666666666668,0,0)" xlink:href="#at"/><use transform="matrix(0.026041666666666668,0,0,0.026041666666666668,31.484375,0)" xlink:href="#au"/><use transform="matrix(0.026041666666666668,0,0,0.026041666666666668,44.40104166666667,0)" xlink:href="#av"/><use transform="matrix(0.026041666666666668,0,0,0.026041666666666668,74.86979166666667,0)" xlink:href="#aw"/><use transform="matrix(0.026041666666666668,0,0,0.026041666666666668,106.40625,0)" xlink:href="#ax"/></g><path d="M577 24c-279 0-473-224-473-580 0-354 195-576 474-576 218 0 287 134 324 193h14v-551h180V0H922v-173h-20C865-111 790 24 577 24zm27-161c203 0 314-172 314-421 0-247-108-413-314-413-212 0-317 181-317 413 0 235 108 421 317 421" id="ay"/><path d="M628 24c-324 0-524-230-524-574 0-343 198-582 503-582 237 0 487 146 487 559v75H286c9 234 145 362 343 362 132 0 231-58 273-172l174 48C1024-91 857 24 628 24zM287-650h624c-17-190-120-322-304-322-192 0-309 151-320 322zm237-614l140-294h201l-194 294H524" id="az"/><path d="M598-1118v154H368v674c0 100 37 144 132 144 23 0 62-6 92-12L629-6c-37 13-88 20-134 20-193 0-307-107-307-290v-688H20v-154h168v-266h180v266h230" id="aA"/><path d="M471 26C259 26 90-98 90-318c0-256 228-303 435-329 202-27 287-16 287-108 0-139-79-219-234-219-161 0-248 86-283 164l-173-57c86-203 278-265 451-265 150 0 419 46 419 395V0H815v-152h-12C765-73 660 26 471 26zm31-159c199 0 310-134 310-271v-155c-30 35-226 55-295 64-131 17-246 59-246 186 0 116 97 176 231 176" id="aB"/><path d="M338-1490V0H158v-1490h180" id="aC"/><g id="d"><use transform="matrix(0.026041666666666668,0,0,0.026041666666666668,0,0)" xlink:href="#ay"/><use transform="matrix(0.026041666666666668,0,0,0.026041666666666668,32.65625,0)" xlink:href="#az"/><use transform="matrix(0.026041666666666668,0,0,0.026041666666666668,63.75,0)" xlink:href="#aA"/><use transform="matrix(0.026041666666666668,0,0,0.026041666666666668,81.45833333333334,0)" xlink:href="#aB"/><use transform="matrix(0.026041666666666668,0,0,0.026041666666666668,111.40625,0)" xlink:href="#au"/><use transform="matrix(0.026041666666666668,0,0,0.026041666666666668,124.3229166666667,0)" xlink:href="#aC"/><use transform="matrix(0.026041666666666668,0,0,0.026041666666666668,137.23958333333334,0)" xlink:href="#aC"/><use transform="matrix(0.026041666666666668,0,0,0.026041666666666668,150.15625,0)" xlink:href="#az"/><use transform="matrix(0.026041666666666668,0,0,0.026041666666666668,181.25,0)" xlink:href="#ax"/></g><path d="M232-923l-22-567h194l-22 567H232" id="aD"/><path d="M537 14c-226 0-379-139-379-422v-710h180v695c0 172 97 275 253 275 160 0 281-109 281-300v-670h181V0H879v-209C806-46 684 14 537 14" id="aE"/><path d="M338-670V0H158v-1118h173l1 207c72-158 192-221 342-221 226 0 378 139 378 422V0H872v-695c0-172-96-275-252-275-161 0-282 109-282 300" id="aF"/><g id="e"><use transform="matrix(0.026041666666666668,0,0,0.026041666666666668,0,0)" xlink:href="#ay"/><use transform="matrix(0.026041666666666668,0,0,0.026041666666666668,32.65625,0)" xlink:href="#aD"/><use transform="matrix(0.026041666666666668,0,0,0.026041666666666668,48.645833333333336,0)" xlink:href="#aE"/><use transform="matrix(0.026041666666666668,0,0,0.026041666666666668,80.18229166666667,0)" xlink:href="#aF"/></g><path d="M157-1118h181V80c1 225-123 350-364 338V252c126 9 184-48 183-172v-1198zm91-183c-68 0-125-53-125-119s57-119 125-119c69 0 126 53 126 119s-57 119-126 119" id="aG"/><g id="f"><use transform="matrix(0.026041666666666668,0,0,0.026041666666666668,0,0)" xlink:href="#aG"/><use transform="matrix(0.026041666666666668,0,0,0.026041666666666668,12.916666666666668,0)" xlink:href="#ax"/><use transform="matrix(0.026041666666666668,0,0,0.026041666666666668,44.01041666666667,0)" xlink:href="#aE"/></g><path d="M481 0L54-1118h197c107 314 236 620 325 951 87-331 217-637 324-951h197L670 0H481" id="aH"/><g id="g"><use transform="matrix(0.026041666666666668,0,0,0.026041666666666668,0,0)" xlink:href="#aB"/><use transform="matrix(0.026041666666666668,0,0,0.026041666666666668,29.166666666666668,0)" xlink:href="#aH"/><use transform="matrix(0.026041666666666668,0,0,0.026041666666666668,58.098958333333336,0)" xlink:href="#ax"/><use transform="matrix(0.026041666666666668,0,0,0.026041666666666668,89.19270833333334,0)" xlink:href="#av"/></g><path d="M158 0v-1118h174v172h12c41-113 157-188 290-188 26 0 70 2 91 3v181c-11-2-60-10-108-10-161 0-279 109-279 260V0H158" id="aI"/><path d="M538 24C308 24 148-78 108-271l171-41c32 123 123 178 257 178 156 0 256-77 256-169 0-77-54-128-164-154l-186-44c-203-48-300-148-300-305 0-192 176-326 414-326 230 0 351 112 402 269l-163 42c-31-80-94-158-238-158-133 0-233 69-233 162 0 83 57 129 188 160l169 40c203 48 298 149 298 302 0 196-179 339-441 339" id="aJ"/><path d="M613 24c-304 0-509-231-509-576 0-350 205-580 509-580 305 0 511 230 511 580 0 345-206 576-511 576zm0-161c226 0 329-195 329-415 0-222-103-419-329-419-223 0-326 196-326 419 0 220 103 415 326 415" id="aK"/><g id="h"><use transform="matrix(0.026041666666666668,0,0,0.026041666666666668,0,0)" xlink:href="#aI"/><use transform="matrix(0.026041666666666668,0,0,0.026041666666666668,19.192708333333332,0)" xlink:href="#ax"/><use transform="matrix(0.026041666666666668,0,0,0.026041666666666668,50.28645833333333,0)" xlink:href="#aJ"/><use transform="matrix(0.026041666666666668,0,0,0.026041666666666668,78.4375,0)" xlink:href="#aA"/><use transform="matrix(0.026041666666666668,0,0,0.026041666666666668,95.88541666666667,0)" xlink:href="#aI"/><use transform="matrix(0.026041666666666668,0,0,0.026041666666666668,116.796875,0)" xlink:href="#au"/><use transform="matrix(0.026041666666666668,0,0,0.026041666666666668,129.71354166666666,0)" xlink:href="#av"/><use transform="matrix(0.026041666666666668,0,0,0.026041666666666668,160.18229166666666,0)" xlink:href="#aA"/><use transform="matrix(0.026041666666666668,0,0,0.026041666666666668,177.63020833333331,0)" xlink:href="#au"/><use transform="matrix(0.026041666666666668,0,0,0.026041666666666668,190.54687499999997,0)" xlink:href="#aK"/><use transform="matrix(0.026041666666666668,0,0,0.026041666666666668,222.52604166666663,0)" xlink:href="#aF"/></g><path d="M471 26C259 26 90-98 90-318c0-256 228-303 435-329 202-27 287-16 287-108 0-139-79-219-234-219-161 0-248 86-283 164l-173-57c86-203 278-265 451-265 150 0 419 46 419 395V0H815v-152h-12C765-73 660 26 471 26zm31-159c199 0 310-134 310-271v-155c-30 35-226 55-295 64-131 17-246 59-246 186 0 116 97 176 231 176zm-88-1149H237v-9l235-267h171l236 267v9H700l-142-175" id="aL"/><path d="M611 442c-248 0-391-105-460-228l146-94c47 65 117 165 314 165 178 0 307-82 307-266v-224h-17C863-141 792-18 576-18c-268 0-472-195-472-546 0-346 197-568 476-568 216 0 288 133 326 193h17v-179h175V29c0 289-215 413-487 413zm-5-620c203 0 314-146 314-390 0-237-108-403-314-403-213 0-319 180-319 403 0 230 109 390 319 390" id="aM"/><g id="i"><use transform="matrix(0.026041666666666668,0,0,0.026041666666666668,0,0)" xlink:href="#ay"/><use transform="matrix(0.026041666666666668,0,0,0.026041666666666668,32.65625,0)" xlink:href="#aD"/><use transform="matrix(0.026041666666666668,0,0,0.026041666666666668,48.645833333333336,0)" xlink:href="#aL"/><use transform="matrix(0.026041666666666668,0,0,0.026041666666666668,78.59375,0)" xlink:href="#aM"/><use transform="matrix(0.026041666666666668,0,0,0.026041666666666668,111.30208333333334,0)" xlink:href="#ax"/></g><path fill="#3a414a" d="M52 0l541-1490h220L1361 0h-200l-149-416H398L254 0H52zm404-582h497c-103-290-145-390-251-756-108 377-145 460-246 756" id="aN"/><path fill="#3a414a" d="M338-1490V0H158v-1490h180" id="aO"/><path fill="#3a414a" d="M598-1118v154H368v674c0 100 37 144 132 144 23 0 62-6 92-12L629-6c-37 13-88 20-134 20-193 0-307-107-307-290v-688H20v-154h168v-266h180v266h230" id="aP"/><path fill="#3a414a" d="M628 24c-324 0-524-230-524-574 0-343 198-582 503-582 237 0 487 146 487 559v75H286c9 234 145 362 343 362 132 0 231-58 273-172l174 48C1024-91 857 24 628 24zM287-650h624c-17-190-120-322-304-322-192 0-309 151-320 322" id="aQ"/><path fill="#3a414a" d="M158 0v-1118h174v172h12c41-113 157-188 290-188 26 0 70 2 91 3v181c-11-2-60-10-108-10-161 0-279 109-279 260V0H158" id="aR"/><path fill="#3a414a" d="M338-670V0H158v-1118h173l1 207c72-158 192-221 342-221 226 0 378 139 378 422V0H872v-695c0-172-96-275-252-275-161 0-282 109-282 300" id="aS"/><path fill="#3a414a" d="M471 26C259 26 90-98 90-318c0-256 228-303 435-329 202-27 287-16 287-108 0-139-79-219-234-219-161 0-248 86-283 164l-173-57c86-203 278-265 451-265 150 0 419 46 419 395V0H815v-152h-12C765-73 660 26 471 26zm31-159c199 0 310-134 310-271v-155c-30 35-226 55-295 64-131 17-246 59-246 186 0 116 97 176 231 176" id="aT"/><path fill="#3a414a" d="M158 0v-1118h180V0H158zm91-1301c-68 0-125-53-125-119s57-119 125-119c69 0 126 53 126 119s-57 119-126 119" id="aU"/><path fill="#3a414a" d="M481 0L54-1118h197c107 314 236 620 325 951 87-331 217-637 324-951h197L670 0H481" id="aV"/><g id="j"><use transform="matrix(0.0087890625,0,0,0.0087890625,0,0)" xlink:href="#aN"/><use transform="matrix(0.0087890625,0,0,0.0087890625,12.4189453125,0)" xlink:href="#aO"/><use transform="matrix(0.0087890625,0,0,0.0087890625,17.0419921875,0)" xlink:href="#aP"/><use transform="matrix(0.0087890625,0,0,0.0087890625,22.7548828125,0)" xlink:href="#aQ"/><use transform="matrix(0.0087890625,0,0,0.0087890625,33.2490234375,0)" xlink:href="#aR"/><use transform="matrix(0.0087890625,0,0,0.0087890625,40.306640625,0)" xlink:href="#aS"/><use transform="matrix(0.0087890625,0,0,0.0087890625,50.94140625,0)" xlink:href="#aT"/><use transform="matrix(0.0087890625,0,0,0.0087890625,61.048828125,0)" xlink:href="#aP"/><use transform="matrix(0.0087890625,0,0,0.0087890625,66.9375,0)" xlink:href="#aU"/><use transform="matrix(0.0087890625,0,0,0.0087890625,71.296875,0)" xlink:href="#aV"/><use transform="matrix(0.0087890625,0,0,0.0087890625,81.0615234375,0)" xlink:href="#aQ"/></g><path fill="#3a414a" d="M135 0v-1490h305v1237h643V0H135" id="aW"/><path fill="#3a414a" d="M233-870l-31-620h289l-30 620H233" id="aX"/><path fill="#3a414a" d="M513 14c-232 0-385-159-385-421v-711h300v659c0 139 76 222 202 222 127 0 217-86 217-234v-647h301V0H864l-4-232C797-74 683 14 513 14" id="aY"/><path fill="#3a414a" d="M683-1118v229H474v562c0 71 29 104 102 104 23 0 73-7 95-13l43 225C647 9 580 16 520 16 296 16 174-96 174-301v-588H20v-229h154v-266h300v266h209" id="aZ"/><path fill="#3a414a" d="M128 0v-1118h300V0H128zm150-1264c-91 0-165-68-165-154 0-85 74-154 165-154 90 0 165 69 165 154 0 86-75 154-165 154" id="ba"/><path fill="#3a414a" d="M428-1490V0H128v-1490h300" id="bb"/><path fill="#3a414a" d="M572 22C302 22 117-98 78-306l279-48c29 105 101 156 224 156 114 0 185-48 185-115 0-118-228-130-337-155-215-49-322-150-322-317 0-215 187-347 470-347 265 0 424 116 466 298l-266 47c-24-76-87-130-196-130-98 0-174 46-174 113 0 56 38 95 144 117l201 40c216 44 320 143 320 302 0 220-207 367-500 367" id="bc"/><path fill="#3a414a" d="M440 22C227 22 68-92 68-313c0-250 202-322 422-343 195-21 271-24 271-105 0-95-63-149-175-149-116 0-187 57-211 129l-275-46c57-194 237-305 487-305 240 0 474 108 474 379V0H777v-155h-10C713-51 605 22 440 22zm85-211c140 0 238-93 238-211v-121c-37 26-156 42-222 51-111 16-185 59-185 149 0 87 70 132 169 132" id="bd"/><path fill="#3a414a" d="M633 22C291 22 81-200 81-553c0-345 210-579 537-579 292 0 525 185 525 567v84H378c7 183 109 277 260 277 105 0 184-46 216-132l272 51C1071-99 893 22 633 22zM380-669h474c-15-146-94-237-233-237-143 0-229 99-241 237" id="be"/><path fill="#3a414a" d="M128 0v-1118h290v195h12c54-169 184-238 367-200v268c-27-8-86-15-130-15-138 0-239 95-239 234V0H128" id="bf"/><g id="k"><use transform="matrix(0.0087890625,0,0,0.0087890625,0,0)" xlink:href="#aW"/><use transform="matrix(0.0087890625,0,0,0.0087890625,8.54296875,0)" xlink:href="#aX"/><use transform="matrix(0.0087890625,0,0,0.0087890625,14.642578125,0)" xlink:href="#aY"/><use transform="matrix(0.0087890625,0,0,0.0087890625,25.8486328125,0)" xlink:href="#aZ"/><use transform="matrix(0.0087890625,0,0,0.0087890625,32.4404296875,0)" xlink:href="#ba"/><use transform="matrix(0.0087890625,0,0,0.0087890625,37.318359375,0)" xlink:href="#bb"/><use transform="matrix(0.0087890625,0,0,0.0087890625,42.1962890625,0)" xlink:href="#ba"/><use transform="matrix(0.0087890625,0,0,0.0087890625,47.07421875,0)" xlink:href="#bc"/><use transform="matrix(0.0087890625,0,0,0.0087890625,57.1552734375,0)" xlink:href="#bd"/><use transform="matrix(0.0087890625,0,0,0.0087890625,67.60546875,0)" xlink:href="#aZ"/><use transform="matrix(0.0087890625,0,0,0.0087890625,74.021484375,0)" xlink:href="#be"/><use transform="matrix(0.0087890625,0,0,0.0087890625,84.744140625,0)" xlink:href="#aY"/><use transform="matrix(0.0087890625,0,0,0.0087890625,95.9501953125,0)" xlink:href="#bf"/></g><path fill="#3a414a" d="M428-647V0H128v-1118h283l4 231c63-156 176-245 348-245 232 0 384 159 384 421V0H847v-659c0-139-76-222-202-222-128 0-217 86-217 234" id="bg"/><g id="l"><use transform="matrix(0.0087890625,0,0,0.0087890625,0,0)" xlink:href="#bg"/><use transform="matrix(0.0087890625,0,0,0.0087890625,10.828125,0)" xlink:href="#aX"/><use transform="matrix(0.0087890625,0,0,0.0087890625,16.927734375,0)" xlink:href="#bd"/></g><path fill="#3a414a" d="M128 418v-1536h295v188h14c41-89 129-202 319-202 248 0 453 193 453 575 0 372-197 576-455 576-183 0-275-108-317-198h-9v597H128zm534-640c156 0 240-139 240-336 0-196-83-334-240-334-154 0-241 131-241 334 0 202 88 336 241 336" id="bh"/><g id="m"><use transform="matrix(0.0087890625,0,0,0.0087890625,0,0)" xlink:href="#bh"/><use transform="matrix(0.0087890625,0,0,0.0087890625,11.5224609375,0)" xlink:href="#bd"/><use transform="matrix(0.0087890625,0,0,0.0087890625,21.97265625,0)" xlink:href="#bc"/></g><path fill="#3a414a" d="M440 22C227 22 68-92 68-313c0-250 202-322 422-343 195-21 271-24 271-105 0-95-63-149-175-149-116 0-187 57-211 129l-275-46c57-194 237-305 487-305 240 0 474 108 474 379V0H777v-155h-10C713-51 605 22 440 22zm6-1290H186v-7l288-296h230l289 296v7H731l-142-170zm79 1079c140 0 238-93 238-211v-121c-37 26-156 42-222 51-111 16-185 59-185 149 0 87 70 132 169 132" id="bi"/><path fill="#3a414a" d="M625 442c-280 0-454-114-503-274l258-72c28 63 97 128 243 128 153 0 246-69 246-216v-206h-23C805-108 717-16 536-16 284-16 81-191 81-561c0-378 208-571 456-571 188 0 280 113 321 202h13v-188h295V-9c0 303-226 451-541 451zm5-686c153 0 240-119 240-319 0-198-86-329-240-329-158 0-241 137-241 329 0 195 85 319 241 319" id="bj"/><g id="n"><use transform="matrix(0.0087890625,0,0,0.0087890625,0,0)" xlink:href="#bb"/><use transform="matrix(0.0087890625,0,0,0.0087890625,4.8779296875,0)" xlink:href="#aX"/><use transform="matrix(0.0087890625,0,0,0.0087890625,10.9775390625,0)" xlink:href="#bi"/><use transform="matrix(0.0087890625,0,0,0.0087890625,21.427734375,0)" xlink:href="#bj"/><use transform="matrix(0.0087890625,0,0,0.0087890625,32.80078125,0)" xlink:href="#be"/></g><path fill="#3a414a" d="M1163 418H863v-597h-10C812-89 719 19 537 19 279 19 81-185 81-557c0-382 206-575 454-575 190 0 278 113 318 202h15v-188h295V418zM629-222c153 0 240-134 240-336 0-203-86-334-240-334-158 0-240 138-240 334 0 197 84 336 240 336" id="bk"/><g id="o"><use transform="matrix(0.0087890625,0,0,0.0087890625,0,0)" xlink:href="#bf"/><use transform="matrix(0.0087890625,0,0,0.0087890625,6.890625,0)" xlink:href="#be"/><use transform="matrix(0.0087890625,0,0,0.0087890625,17.61328125,0)" xlink:href="#bk"/><use transform="matrix(0.0087890625,0,0,0.0087890625,28.9599609375,0)" xlink:href="#aY"/><use transform="matrix(0.0087890625,0,0,0.0087890625,40.166015625,0)" xlink:href="#ba"/><use transform="matrix(0.0087890625,0,0,0.0087890625,45.0439453125,0)" xlink:href="#bc"/></g><use transform="matrix(0.0087890625,0,0,0.0087890625,0,0)" xlink:href="#bd" id="p"/><path fill="#333" d="M180 0v-1490h528c311 0 458 177 458 395 0 191-114 278-244 313v14c139 9 302 137 302 371 0 225-148 397-499 397H180zm190-168h350c232 0 321-102 321-231 0-149-120-277-311-277H370v508zm0-668h328c160 0 286-101 286-255 0-129-87-231-280-231H370v486" id="bl"/><path fill="#333" d="M471 26C259 26 90-98 90-318c0-256 228-303 435-329 202-27 287-16 287-108 0-139-79-219-234-219-161 0-248 86-283 164l-173-57c86-203 278-265 451-265 150 0 419 46 419 395V0H815v-152h-12C765-73 660 26 471 26zm31-159c199 0 310-134 310-271v-155c-30 35-226 55-295 64-131 17-246 59-246 186 0 116 97 176 231 176" id="bm"/><path fill="#333" d="M613 24c-304 0-509-231-509-576 0-350 205-580 509-580 216 0 392 114 453 309l-173 49c-33-115-133-197-280-197-223 0-326 196-326 419 0 220 103 415 326 415 150 0 252-85 285-206l172 49C1010-95 832 24 613 24" id="bn"/><path fill="#333" d="M158 0v-1490h180v865h22l478-493h223L593-638 1096 0H865L456-523 338-412V0H158" id="bo"/><path fill="#333" d="M628 24c-324 0-524-230-524-574 0-343 198-582 503-582 237 0 487 146 487 559v75H286c9 234 145 362 343 362 132 0 231-58 273-172l174 48C1024-91 857 24 628 24zM287-650h624c-17-190-120-322-304-322-192 0-309 151-320 322" id="bp"/><path fill="#333" d="M338-670V0H158v-1118h173l1 207c72-158 192-221 342-221 226 0 378 139 378 422V0H872v-695c0-172-96-275-252-275-161 0-282 109-282 300" id="bq"/><path fill="#333" d="M577 24c-279 0-473-224-473-580 0-354 195-576 474-576 218 0 287 134 324 193h14v-551h180V0H922v-173h-20C865-111 790 24 577 24zm27-161c203 0 314-172 314-421 0-247-108-413-314-413-212 0-317 181-317 413 0 235 108 421 317 421" id="br"/><g id="q"><use transform="matrix(0.010850694444444444,0,0,0.010850694444444444,0,0)" xlink:href="#bl"/><use transform="matrix(0.010850694444444444,0,0,0.010850694444444444,14.539930555555555,0)" xlink:href="#bm"/><use transform="matrix(0.010850694444444444,0,0,0.010850694444444444,27.018229166666664,0)" xlink:href="#bn"/><use transform="matrix(0.010850694444444444,0,0,0.010850694444444444,39.713541666666664,0)" xlink:href="#bo"/><use transform="matrix(0.010850694444444444,0,0,0.010850694444444444,51.41059027777778,0)" xlink:href="#bp"/><use transform="matrix(0.010850694444444444,0,0,0.010850694444444444,64.36631944444444,0)" xlink:href="#bq"/><use transform="matrix(0.010850694444444444,0,0,0.010850694444444444,77.49565972222221,0)" xlink:href="#br"/></g><path fill="#333" d="M645 0H180v-1490h484c435 0 692 280 692 742 0 466-257 748-711 748zM370-168h263c363 0 539-218 539-580 0-358-176-574-521-574H370v1154" id="bs"/><path fill="#333" d="M598-1118v154H368v674c0 100 37 144 132 144 23 0 62-6 92-12L629-6c-37 13-88 20-134 20-193 0-307-107-307-290v-688H20v-154h168v-266h180v266h230" id="bt"/><path fill="#333" d="M677 24c-213 0-288-135-325-197h-20V0H158v-1490h180v551h14c37-59 106-193 324-193 279 0 474 222 474 576 0 356-194 580-473 580zm-27-161c209 0 317-186 317-421 0-232-105-413-317-413-206 0-314 166-314 413 0 249 111 421 314 421" id="bu"/><path fill="#333" d="M538 24C308 24 148-78 108-271l171-41c32 123 123 178 257 178 156 0 256-77 256-169 0-77-54-128-164-154l-186-44c-203-48-300-148-300-305 0-192 176-326 414-326 230 0 351 112 402 269l-163 42c-31-80-94-158-238-158-133 0-233 69-233 162 0 83 57 129 188 160l169 40c203 48 298 149 298 302 0 196-179 339-441 339" id="bv"/><g id="r"><use transform="matrix(0.010850694444444444,0,0,0.010850694444444444,0,0)" xlink:href="#bs"/><use transform="matrix(0.010850694444444444,0,0,0.010850694444444444,16.03732638888889,0)" xlink:href="#bm"/><use transform="matrix(0.010850694444444444,0,0,0.010850694444444444,28.515625,0)" xlink:href="#bt"/><use transform="matrix(0.010850694444444444,0,0,0.010850694444444444,35.89409722222222,0)" xlink:href="#bm"/><use transform="matrix(0.010850694444444444,0,0,0.010850694444444444,48.37239583333333,0)" xlink:href="#bu"/><use transform="matrix(0.010850694444444444,0,0,0.010850694444444444,62.19618055555554,0)" xlink:href="#bm"/><use transform="matrix(0.010850694444444444,0,0,0.010850694444444444,74.67447916666666,0)" xlink:href="#bv"/><use transform="matrix(0.010850694444444444,0,0,0.010850694444444444,86.4040798611111,0)" xlink:href="#bp"/></g><g id="s"><use transform="matrix(0.010850694444444444,0,0,0.010850694444444444,0,0)" xlink:href="#aq"/><use transform="matrix(0.010850694444444444,0,0,0.010850694444444444,16.536458333333332,0)" xlink:href="#aA"/><use transform="matrix(0.010850694444444444,0,0,0.010850694444444444,23.80642361111111,0)" xlink:href="#au"/><use transform="matrix(0.010850694444444444,0,0,0.010850694444444444,29.18836805555556,0)" xlink:href="#aC"/><use transform="matrix(0.010850694444444444,0,0,0.010850694444444444,34.5703125,0)" xlink:href="#au"/><use transform="matrix(0.010850694444444444,0,0,0.010850694444444444,39.95225694444444,0)" xlink:href="#aJ"/><use transform="matrix(0.010850694444444444,0,0,0.010850694444444444,51.681857638888886,0)" xlink:href="#aB"/><use transform="matrix(0.010850694444444444,0,0,0.010850694444444444,64.16015625,0)" xlink:href="#aA"/><use transform="matrix(0.010850694444444444,0,0,0.010850694444444444,71.21310763888889,0)" xlink:href="#ax"/><use transform="matrix(0.010850694444444444,0,0,0.010850694444444444,84.16883680555556,0)" xlink:href="#aE"/><use transform="matrix(0.010850694444444444,0,0,0.010850694444444444,97.30902777777777,0)" xlink:href="#aI"/></g><path fill="#333" d="M180 0v-1490h901v168H370v510h643v168H370V0H180" id="bw"/><path fill="#333" d="M158 0v-1118h174v172h12c41-113 157-188 290-188 26 0 70 2 91 3v181c-11-2-60-10-108-10-161 0-279 109-279 260V0H158" id="bx"/><path fill="#333" d="M613 24c-304 0-509-231-509-576 0-350 205-580 509-580 305 0 511 230 511 580 0 345-206 576-511 576zm0-161c226 0 329-195 329-415 0-222-103-419-329-419-223 0-326 196-326 419 0 220 103 415 326 415" id="by"/><g id="t"><use transform="matrix(0.010850694444444444,0,0,0.010850694444444444,0,0)" xlink:href="#bw"/><use transform="matrix(0.010850694444444444,0,0,0.010850694444444444,12.467447916666666,0)" xlink:href="#bx"/><use transform="matrix(0.010850694444444444,0,0,0.010850694444444444,20.46440972222222,0)" xlink:href="#by"/><use transform="matrix(0.010850694444444444,0,0,0.010850694444444444,33.7890625,0)" xlink:href="#bq"/><use transform="matrix(0.010850694444444444,0,0,0.010850694444444444,46.91840277777778,0)" xlink:href="#bt"/><use transform="matrix(0.010850694444444444,0,0,0.010850694444444444,53.97135416666667,0)" xlink:href="#bp"/><use transform="matrix(0.010850694444444444,0,0,0.010850694444444444,66.92708333333334,0)" xlink:href="#bq"/><use transform="matrix(0.010850694444444444,0,0,0.010850694444444444,80.05642361111111,0)" xlink:href="#br"/></g><path fill="#3a414a" d="M180 0v-1490h510c348 0 508 194 508 460 0 198-88 351-276 417L1256 0h-220L726-579c-117 2-238 0-356 1V0H180zm190-747h312c235 0 327-108 327-283 0-177-92-293-329-293H370v576" id="bz"/><path fill="#3a414a" d="M628 24c-324 0-524-230-524-574 0-343 198-582 503-582 237 0 487 146 487 559v75H286c9 234 145 362 343 362 132 0 231-58 273-172l174 48C1024-91 857 24 628 24zM287-650h624c-17-190-120-322-304-322-192 0-309 151-320 322zm237-614l140-294h201l-194 294H524" id="bA"/><path fill="#3a414a" d="M613 24c-304 0-509-231-509-576 0-350 205-580 509-580 216 0 392 114 453 309l-173 49c-33-115-133-197-280-197-223 0-326 196-326 419 0 220 103 415 326 415 150 0 252-85 285-206l172 49C1010-95 832 24 613 24" id="bB"/><path fill="#3a414a" d="M537 14c-226 0-379-139-379-422v-710h180v695c0 172 97 275 253 275 160 0 281-109 281-300v-670h181V0H879v-209C806-46 684 14 537 14" id="bC"/><path fill="#3a414a" d="M158 418v-1536h174v179h20c37-59 106-193 324-193 279 0 474 222 474 576 0 356-194 580-473 580-213 0-288-135-325-197h-14v591H158zm492-555c209 0 317-186 317-421 0-232-105-413-317-413-206 0-314 166-314 413 0 249 111 421 314 421" id="bD"/><path fill="#3a414a" d="M628 24c-324 0-524-230-524-574 0-343 198-582 503-582 237 0 487 146 487 559v75H286c9 234 145 362 343 362 132 0 231-58 273-172l174 48C1024-91 857 24 628 24zM287-650h624c-17-190-120-322-304-322-192 0-309 151-320 322zm245-614l-193-294h201l140 294H532" id="bE"/><g id="u"><use transform="matrix(0.008680555555555556,0,0,0.008680555555555556,0,0)" xlink:href="#bz"/><use transform="matrix(0.008680555555555556,0,0,0.008680555555555556,11.180555555555559,0)" xlink:href="#bA"/><use transform="matrix(0.008680555555555556,0,0,0.008680555555555556,21.545138888888893,0)" xlink:href="#bB"/><use transform="matrix(0.008680555555555556,0,0,0.008680555555555556,31.701388888888893,0)" xlink:href="#bC"/><use transform="matrix(0.008680555555555556,0,0,0.008680555555555556,42.21354166666667,0)" xlink:href="#bD"/><use transform="matrix(0.008680555555555556,0,0,0.008680555555555556,53.09895833333334,0)" xlink:href="#bE"/><use transform="matrix(0.008680555555555556,0,0,0.008680555555555556,63.46354166666668,0)" xlink:href="#aR"/><use transform="matrix(0.008680555555555556,0,0,0.008680555555555556,69.86111111111113,0)" xlink:href="#aQ"/></g><path fill="#3a414a" d="M538 24C308 24 148-78 108-271l171-41c32 123 123 178 257 178 156 0 256-77 256-169 0-77-54-128-164-154l-186-44c-203-48-300-148-300-305 0-192 176-326 414-326 230 0 351 112 402 269l-163 42c-31-80-94-158-238-158-133 0-233 69-233 162 0 83 57 129 188 160l169 40c203 48 298 149 298 302 0 196-179 339-441 339" id="bF"/><g id="v"><use transform="matrix(0.008680555555555556,0,0,0.008680555555555556,0,0)" xlink:href="#aO"/><use transform="matrix(0.008680555555555556,0,0,0.008680555555555556,4.305555555555555,0)" xlink:href="#aQ"/><use transform="matrix(0.008680555555555556,0,0,0.008680555555555556,14.67013888888889,0)" xlink:href="#bF"/></g><path fill="#3a414a" d="M678-1118v154H420V0H240v-964H20v-154h220v-149c0-194 155-293 318-293 85 0 141 18 168 30l-50 154c-19-6-47-17-97-17-111 0-159 58-159 166v109h258" id="bG"/><path fill="#3a414a" d="M613 24c-304 0-509-231-509-576 0-350 205-580 509-580 305 0 511 230 511 580 0 345-206 576-511 576zm0-161c226 0 329-195 329-415 0-222-103-419-329-419-223 0-326 196-326 419 0 220 103 415 326 415" id="bH"/><path fill="#3a414a" d="M158 0v-1118h175l1 205c55-151 181-225 313-225 147 0 245 90 285 228 53-141 190-228 352-228 194 0 352 125 352 384V0h-181v-749c0-161-105-225-225-225-151 0-243 103-243 244V0H807v-767c0-124-93-207-219-207-131 0-250 92-250 270V0H158" id="bI"/><g id="w"><use transform="matrix(0.008680555555555556,0,0,0.008680555555555556,0,0)" xlink:href="#aU"/><use transform="matrix(0.008680555555555556,0,0,0.008680555555555556,4.305555555555555,0)" xlink:href="#aS"/><use transform="matrix(0.008680555555555556,0,0,0.008680555555555556,14.809027777777779,0)" xlink:href="#bG"/><use transform="matrix(0.008680555555555556,0,0,0.008680555555555556,20.868055555555557,0)" xlink:href="#bH"/><use transform="matrix(0.008680555555555556,0,0,0.008680555555555556,31.52777777777778,0)" xlink:href="#aR"/><use transform="matrix(0.008680555555555556,0,0,0.008680555555555556,38.49826388888889,0)" xlink:href="#bI"/><use transform="matrix(0.008680555555555556,0,0,0.008680555555555556,54.07118055555556,0)" xlink:href="#aT"/><use transform="matrix(0.008680555555555556,0,0,0.008680555555555556,64.05381944444444,0)" xlink:href="#aP"/><use transform="matrix(0.008680555555555556,0,0,0.008680555555555556,69.86979166666667,0)" xlink:href="#aU"/><use transform="matrix(0.008680555555555556,0,0,0.008680555555555556,74.17534722222223,0)" xlink:href="#bH"/><use transform="matrix(0.008680555555555556,0,0,0.008680555555555556,84.83506944444446,0)" xlink:href="#aS"/><use transform="matrix(0.008680555555555556,0,0,0.008680555555555556,95.33854166666669,0)" xlink:href="#bF"/></g><path fill="#3a414a" d="M577 24c-279 0-473-224-473-580 0-354 195-576 474-576 218 0 287 134 324 193h14v-551h180V0H922v-173h-20C865-111 790 24 577 24zm27-161c203 0 314-172 314-421 0-247-108-413-314-413-212 0-317 181-317 413 0 235 108 421 317 421" id="bJ"/><g id="x"><use transform="matrix(0.008680555555555556,0,0,0.008680555555555556,0,0)" xlink:href="#bJ"/><use transform="matrix(0.008680555555555556,0,0,0.008680555555555556,10.885416666666668,0)" xlink:href="#bC"/></g><path fill="#3a414a" d="M157-1118h181V80c1 225-123 350-364 338V252c126 9 184-48 183-172v-1198zm91-183c-68 0-125-53-125-119s57-119 125-119c69 0 126 53 126 119s-57 119-126 119" id="bK"/><g id="y"><use transform="matrix(0.008680555555555556,0,0,0.008680555555555556,0,0)" xlink:href="#bK"/><use transform="matrix(0.008680555555555556,0,0,0.008680555555555556,4.305555555555555,0)" xlink:href="#aQ"/><use transform="matrix(0.008680555555555556,0,0,0.008680555555555556,14.67013888888889,0)" xlink:href="#bC"/></g><path fill="#3a414a" d="M338-670V0H158v-1490h180v566c73-149 190-208 336-208 226 0 379 139 379 422V0H872v-695c0-172-96-275-252-275-161 0-282 109-282 300" id="bL"/><g id="z"><use transform="matrix(0.008680555555555556,0,0,0.008680555555555556,0,0)" xlink:href="#aN"/><use transform="matrix(0.008680555555555556,0,0,0.008680555555555556,12.265625,0)" xlink:href="#bG"/><use transform="matrix(0.008680555555555556,0,0,0.008680555555555556,18.151041666666668,0)" xlink:href="#bG"/><use transform="matrix(0.008680555555555556,0,0,0.008680555555555556,24.73090277777778,0)" xlink:href="#aU"/><use transform="matrix(0.008680555555555556,0,0,0.008680555555555556,29.036458333333336,0)" xlink:href="#bB"/><use transform="matrix(0.008680555555555556,0,0,0.008680555555555556,39.192708333333336,0)" xlink:href="#bL"/><use transform="matrix(0.008680555555555556,0,0,0.008680555555555556,49.704861111111114,0)" xlink:href="#aQ"/></g><g id="A"><use transform="matrix(0.008680555555555556,0,0,0.008680555555555556,0,0)" xlink:href="#aO"/><use transform="matrix(0.008680555555555556,0,0,0.008680555555555556,4.305555555555555,0)" xlink:href="#aT"/></g><g id="B"><use transform="matrix(0.008680555555555556,0,0,0.008680555555555556,0,0)" xlink:href="#bG"/><use transform="matrix(0.008680555555555556,0,0,0.008680555555555556,6.579861111111112,0)" xlink:href="#aU"/><use transform="matrix(0.008680555555555556,0,0,0.008680555555555556,10.885416666666668,0)" xlink:href="#bB"/><use transform="matrix(0.008680555555555556,0,0,0.008680555555555556,21.041666666666668,0)" xlink:href="#bL"/><use transform="matrix(0.008680555555555556,0,0,0.008680555555555556,31.553819444444446,0)" xlink:href="#aQ"/></g><g id="C"><use transform="matrix(0.008680555555555556,0,0,0.008680555555555556,0,0)" xlink:href="#bJ"/><use transform="matrix(0.008680555555555556,0,0,0.008680555555555556,10.885416666666668,0)" xlink:href="#bA"/><use transform="matrix(0.008680555555555556,0,0,0.008680555555555556,21.25,0)" xlink:href="#aP"/><use transform="matrix(0.008680555555555556,0,0,0.008680555555555556,27.15277777777778,0)" xlink:href="#aT"/><use transform="matrix(0.008680555555555556,0,0,0.008680555555555556,37.13541666666667,0)" xlink:href="#aU"/><use transform="matrix(0.008680555555555556,0,0,0.008680555555555556,41.44097222222223,0)" xlink:href="#aO"/><use transform="matrix(0.008680555555555556,0,0,0.008680555555555556,45.746527777777786,0)" xlink:href="#aO"/><use transform="matrix(0.008680555555555556,0,0,0.008680555555555556,50.05208333333334,0)" xlink:href="#bA"/><use transform="matrix(0.008680555555555556,0,0,0.008680555555555556,60.41666666666668,0)" xlink:href="#aQ"/></g><g id="D"><use transform="matrix(0.008680555555555556,0,0,0.008680555555555556,0,0)" xlink:href="#bJ"/><use transform="matrix(0.008680555555555556,0,0,0.008680555555555556,10.885416666666668,0)" xlink:href="#bC"/></g><g id="E"><use transform="matrix(0.008680555555555556,0,0,0.008680555555555556,0,0)" xlink:href="#bK"/><use transform="matrix(0.008680555555555556,0,0,0.008680555555555556,4.305555555555555,0)" xlink:href="#aQ"/><use transform="matrix(0.008680555555555556,0,0,0.008680555555555556,14.67013888888889,0)" xlink:href="#bC"/></g><g id="F"><use transform="matrix(0.008680555555555556,0,0,0.008680555555555556,0,0)" xlink:href="#aT"/><use transform="matrix(0.008680555555555556,0,0,0.008680555555555556,9.722222222222223,0)" xlink:href="#aV"/><use transform="matrix(0.008680555555555556,0,0,0.008680555555555556,19.366319444444446,0)" xlink:href="#aQ"/><use transform="matrix(0.008680555555555556,0,0,0.008680555555555556,29.73090277777778,0)" xlink:href="#bB"/></g><g id="G"><use transform="matrix(0.008680555555555556,0,0,0.008680555555555556,0,0)" xlink:href="#aT"/><use transform="matrix(0.008680555555555556,0,0,0.008680555555555556,9.722222222222223,0)" xlink:href="#aV"/><use transform="matrix(0.008680555555555556,0,0,0.008680555555555556,19.713541666666668,0)" xlink:href="#aU"/><use transform="matrix(0.008680555555555556,0,0,0.008680555555555556,24.019097222222225,0)" xlink:href="#bF"/></g><path fill="#3a414a" d="M789 20c-398 0-667-293-667-764 0-473 273-766 655-766 315 0 558 198 612 487h-196c-61-191-204-311-415-311-262 0-471 207-471 590 0 380 208 588 482 588 249 0 420-165 425-427H828v-166h572v163c0 370-256 606-611 606" id="bM"/><path fill="#3a414a" d="M180 0v-1490h908v168H370v486h669v168H370v500h727V0H180" id="bN"/><path fill="#3a414a" d="M98-1322v-168h1126v168H757V0H567v-1322H98" id="bO"/><g id="H"><use transform="matrix(0.0087890625,0,0,0.0087890625,0,0)" xlink:href="#bM"/><use transform="matrix(0.0087890625,0,0,0.0087890625,13.4296875,0)" xlink:href="#bN"/><use transform="matrix(0.0087890625,0,0,0.0087890625,24.2490234375,0)" xlink:href="#bO"/></g><path fill="#3a414a" d="M692-1560L212 224H46l480-1784h166" id="bP"/><path fill="#3a414a" d="M611 442c-248 0-391-105-460-228l146-94c47 65 117 165 314 165 178 0 307-82 307-266v-224h-17C863-141 792-18 576-18c-268 0-472-195-472-546 0-346 197-568 476-568 216 0 288 133 326 193h17v-179h175V29c0 289-215 413-487 413zm-5-620c203 0 314-146 314-390 0-237-108-403-314-403-213 0-319 180-319 403 0 230 109 390 319 390" id="bQ"/><path fill="#3a414a" d="M750 279c-286 0-388-117-388-391v-228c1-158-59-222-218-220v-182c158 3 218-60 218-218v-230c0-273 102-391 388-391v151c-169-1-222 74-222 243v286c0 117-37 206-205 240v20c168 35 205 125 205 242v284c0 169 52 245 222 245v149" id="bR"/><path fill="#3a414a" d="M123 279V130c170 0 222-76 222-245v-284c0-116 37-207 204-242v-20c-167-34-204-123-204-240v-286c0-168-52-243-222-243v-151c285 0 387 118 387 391v230c-1 158 57 219 219 219v180c-164 1-219 64-219 221v228c0 274-102 391-387 391" id="bS"/><g id="I"><use transform="matrix(0.0087890625,0,0,0.0087890625,0,0)" xlink:href="#bP"/><use transform="matrix(0.0087890625,0,0,0.0087890625,6.486328125,0)" xlink:href="#bQ"/><use transform="matrix(0.0087890625,0,0,0.0087890625,17.525390625,0)" xlink:href="#aT"/><use transform="matrix(0.0087890625,0,0,0.0087890625,27.6328125,0)" xlink:href="#bI"/><use transform="matrix(0.0087890625,0,0,0.0087890625,43.400390625,0)" xlink:href="#aQ"/><use transform="matrix(0.0087890625,0,0,0.0087890625,53.89453125,0)" xlink:href="#bF"/><use transform="matrix(0.0087890625,0,0,0.0087890625,63.3955078125,0)" xlink:href="#bP"/><use transform="matrix(0.0087890625,0,0,0.0087890625,69.8818359375,0)" xlink:href="#bR"/><use transform="matrix(0.0087890625,0,0,0.0087890625,77.5546875,0)" xlink:href="#aU"/><use transform="matrix(0.0087890625,0,0,0.0087890625,81.9140625,0)" xlink:href="#bJ"/><use transform="matrix(0.0087890625,0,0,0.0087890625,92.935546875,0)" xlink:href="#bS"/></g><path fill="#3a414a" d="M370-1490V0H180v-1490h190" id="bT"/><g id="J"><use transform="matrix(0.0087890625,0,0,0.0087890625,0,0)" xlink:href="#bT"/><use transform="matrix(0.0087890625,0,0,0.0087890625,4.833984375,0)" xlink:href="#aS"/><use transform="matrix(0.0087890625,0,0,0.0087890625,15.46875,0)" xlink:href="#bG"/><use transform="matrix(0.0087890625,0,0,0.0087890625,21.603515625,0)" xlink:href="#bH"/><use transform="matrix(0.0087890625,0,0,0.0087890625,32.396484375,0)" xlink:href="#aR"/><use transform="matrix(0.0087890625,0,0,0.0087890625,39.4541015625,0)" xlink:href="#bI"/><use transform="matrix(0.0087890625,0,0,0.0087890625,55.2216796875,0)" xlink:href="#aT"/><use transform="matrix(0.0087890625,0,0,0.0087890625,65.3291015625,0)" xlink:href="#aP"/><use transform="matrix(0.0087890625,0,0,0.0087890625,71.2177734375,0)" xlink:href="#aU"/><use transform="matrix(0.0087890625,0,0,0.0087890625,75.5771484375,0)" xlink:href="#bH"/><use transform="matrix(0.0087890625,0,0,0.0087890625,86.3701171875,0)" xlink:href="#aS"/><use transform="matrix(0.0087890625,0,0,0.0087890625,97.0048828125,0)" xlink:href="#bF"/></g><g id="K"><use transform="matrix(0.0087890625,0,0,0.0087890625,0,0)" xlink:href="#bJ"/><use transform="matrix(0.0087890625,0,0,0.0087890625,11.021484375,0)" xlink:href="#bC"/></g><g id="L"><use transform="matrix(0.0087890625,0,0,0.0087890625,0,0)" xlink:href="#bK"/><use transform="matrix(0.0087890625,0,0,0.0087890625,4.359375,0)" xlink:href="#aQ"/><use transform="matrix(0.0087890625,0,0,0.0087890625,14.853515625,0)" xlink:href="#bC"/></g><path fill="#3a414a" d="M154 0v-137l495-537c165-179 249-281 249-418 0-156-121-253-280-253-170 0-278 110-278 278H158c0-264 200-443 465-443 266 0 455 183 455 416 0 161-73 288-336 568L416-179v12h687V0H154" id="bU"/><path fill="#3a414a" d="M646 20c-332 0-524-278-524-764 0-483 194-766 524-766s524 283 524 766c0 485-191 764-524 764zm0-166c218 0 341-220 341-598 0-380-123-601-341-601s-341 222-341 601c0 378 123 598 341 598" id="bV"/><g id="N"><use transform="matrix(0.0087890625,0,0,0.0087890625,0,0)" xlink:href="#bU"/><use transform="matrix(0.0087890625,0,0,0.0087890625,10.9775390625,0)" xlink:href="#bV"/><use transform="matrix(0.0087890625,0,0,0.0087890625,22.3330078125,0)" xlink:href="#bV"/></g><path fill="#3a414a" d="M784 20c-382 0-662-292-662-764 0-473 280-766 662-766s660 293 660 766c0 472-278 764-660 764zm0-176c266 0 475-207 475-588 0-383-209-590-475-590-268 0-477 208-477 590 0 380 209 588 477 588" id="bW"/><path fill="#3a414a" d="M180 0v-1490h190c0 262 1 526-3 784 217-279 467-523 702-784h249L716-845 1319 0h-225L585-716 370-489V0H180" id="bX"/><g id="O"><use transform="matrix(0.0087890625,0,0,0.0087890625,0,0)" xlink:href="#bW"/><use transform="matrix(0.0087890625,0,0,0.0087890625,13.763671875,0)" xlink:href="#bX"/></g><path fill="#3a414a" d="M593-100v-404H195v-159h398v-403h169v403h398v159H762v404H593" id="bY"/><use transform="matrix(0.0087890625,0,0,0.0087890625,0,0)" xlink:href="#bY" id="P"/><g id="Q"><use transform="matrix(0.0087890625,0,0,0.0087890625,0,0)" xlink:href="#bJ"/><use transform="matrix(0.0087890625,0,0,0.0087890625,11.021484375,0)" xlink:href="#bA"/><use transform="matrix(0.0087890625,0,0,0.0087890625,21.515625,0)" xlink:href="#aP"/><use transform="matrix(0.0087890625,0,0,0.0087890625,27.4921875,0)" xlink:href="#aT"/><use transform="matrix(0.0087890625,0,0,0.0087890625,37.599609375,0)" xlink:href="#aU"/><use transform="matrix(0.0087890625,0,0,0.0087890625,41.958984375,0)" xlink:href="#aO"/><use transform="matrix(0.0087890625,0,0,0.0087890625,46.318359375,0)" xlink:href="#bF"/></g><g id="R"><use transform="matrix(0.0087890625,0,0,0.0087890625,0,0)" xlink:href="#aT"/><use transform="matrix(0.0087890625,0,0,0.0087890625,9.84375,0)" xlink:href="#aV"/><use transform="matrix(0.0087890625,0,0,0.0087890625,19.9599609375,0)" xlink:href="#aU"/><use transform="matrix(0.0087890625,0,0,0.0087890625,24.3193359375,0)" xlink:href="#bF"/></g><path fill="#3a414a" d="M783 20c-382 0-661-292-661-764 0-473 279-766 661-766 302 0 548 182 601 489h-190c-42-204-217-313-411-313-268 0-476 208-476 590 0 381 209 588 476 588 195 0 369-110 411-313h190c-52 303-296 489-601 489" id="bZ"/><path fill="#3a414a" d="M1096 418H916v-591h-14C865-111 790 24 577 24c-279 0-473-224-473-580 0-354 195-576 474-576 218 0 287 134 324 193h20v-179h174V418zM604-137c203 0 314-172 314-421 0-247-108-413-314-413-212 0-317 181-317 413 0 235 108 421 317 421" id="ca"/><g id="S"><use transform="matrix(0.0087890625,0,0,0.0087890625,0,0)" xlink:href="#bZ"/><use transform="matrix(0.0087890625,0,0,0.0087890625,13.1484375,0)" xlink:href="#aO"/><use transform="matrix(0.0087890625,0,0,0.0087890625,17.5078125,0)" xlink:href="#aU"/><use transform="matrix(0.0087890625,0,0,0.0087890625,21.8671875,0)" xlink:href="#ca"/><use transform="matrix(0.0087890625,0,0,0.0087890625,32.888671875,0)" xlink:href="#bC"/><use transform="matrix(0.0087890625,0,0,0.0087890625,43.5322265625,0)" xlink:href="#aQ"/></g><g id="T"><use transform="matrix(0.0087890625,0,0,0.0087890625,0,0)" xlink:href="#bF"/><use transform="matrix(0.0087890625,0,0,0.0087890625,9.5009765625,0)" xlink:href="#bC"/><use transform="matrix(0.0087890625,0,0,0.0087890625,20.14453125,0)" xlink:href="#aR"/></g><g id="U"><use transform="matrix(0.0087890625,0,0,0.0087890625,0,0)" xlink:href="#bC"/><use transform="matrix(0.0087890625,0,0,0.0087890625,10.6435546875,0)" xlink:href="#aS"/></g><path fill="#3a414a" d="M600 0L52-1490h200c166 485 304 806 458 1336 156-533 285-846 449-1336h202L819 0H600" id="cb"/><g id="V"><use transform="matrix(0.0087890625,0,0,0.0087890625,0,0)" xlink:href="#cb"/><use transform="matrix(0.0087890625,0,0,0.0087890625,11.5048828125,0)" xlink:href="#bA"/><use transform="matrix(0.0087890625,0,0,0.0087890625,21.9990234375,0)" xlink:href="#aR"/><use transform="matrix(0.0087890625,0,0,0.0087890625,29.056640625,0)" xlink:href="#aU"/><use transform="matrix(0.0087890625,0,0,0.0087890625,33.416015625,0)" xlink:href="#bG"/><use transform="matrix(0.0087890625,0,0,0.0087890625,40.078125,0)" xlink:href="#aU"/><use transform="matrix(0.0087890625,0,0,0.0087890625,44.4375,0)" xlink:href="#aQ"/></g><g id="W"><use transform="matrix(0.0087890625,0,0,0.0087890625,0,0)" xlink:href="#bF"/><use transform="matrix(0.0087890625,0,0,0.0087890625,9.5009765625,0)" xlink:href="#aU"/></g><path fill="#3a414a" d="M232-923l-22-567h194l-22 567H232" id="cc"/><g id="X"><use transform="matrix(0.0087890625,0,0,0.0087890625,0,0)" xlink:href="#aO"/><use transform="matrix(0.0087890625,0,0,0.0087890625,4.359375,0)" xlink:href="#cc"/><use transform="matrix(0.0087890625,0,0,0.0087890625,9.755859375,0)" xlink:href="#bC"/><use transform="matrix(0.0087890625,0,0,0.0087890625,20.3994140625,0)" xlink:href="#aP"/><use transform="matrix(0.0087890625,0,0,0.0087890625,26.2880859375,0)" xlink:href="#aU"/><use transform="matrix(0.0087890625,0,0,0.0087890625,30.6474609375,0)" xlink:href="#aO"/><use transform="matrix(0.0087890625,0,0,0.0087890625,35.0068359375,0)" xlink:href="#aU"/><use transform="matrix(0.0087890625,0,0,0.0087890625,39.3662109375,0)" xlink:href="#bF"/><use transform="matrix(0.0087890625,0,0,0.0087890625,48.8671875,0)" xlink:href="#aT"/><use transform="matrix(0.0087890625,0,0,0.0087890625,58.974609375,0)" xlink:href="#aP"/><use transform="matrix(0.0087890625,0,0,0.0087890625,64.6875,0)" xlink:href="#aQ"/><use transform="matrix(0.0087890625,0,0,0.0087890625,75.181640625,0)" xlink:href="#bC"/><use transform="matrix(0.0087890625,0,0,0.0087890625,85.8251953125,0)" xlink:href="#aR"/></g><use transform="matrix(0.0087890625,0,0,0.0087890625,0,0)" xlink:href="#aT" id="Y"/><path fill="#3a414a" d="M471 26C259 26 90-98 90-318c0-256 228-303 435-329 202-27 287-16 287-108 0-139-79-219-234-219-161 0-248 86-283 164l-173-57c86-203 278-265 451-265 150 0 419 46 419 395V0H815v-152h-12C765-73 660 26 471 26zm31-159c199 0 310-134 310-271v-155c-30 35-226 55-295 64-131 17-246 59-246 186 0 116 97 176 231 176zm-88-1149H237v-9l235-267h171l236 267v9H700l-142-175" id="cd"/><g id="Z"><use transform="matrix(0.0087890625,0,0,0.0087890625,0,0)" xlink:href="#aO"/><use transform="matrix(0.0087890625,0,0,0.0087890625,4.359375,0)" xlink:href="#cc"/><use transform="matrix(0.0087890625,0,0,0.0087890625,9.755859375,0)" xlink:href="#cd"/><use transform="matrix(0.0087890625,0,0,0.0087890625,19.86328125,0)" xlink:href="#bQ"/><use transform="matrix(0.0087890625,0,0,0.0087890625,30.90234375,0)" xlink:href="#aQ"/></g><g id="aa"><use transform="matrix(0.0087890625,0,0,0.0087890625,0,0)" xlink:href="#aR"/><use transform="matrix(0.0087890625,0,0,0.0087890625,6.4775390625,0)" xlink:href="#aQ"/><use transform="matrix(0.0087890625,0,0,0.0087890625,16.9716796875,0)" xlink:href="#ca"/><use transform="matrix(0.0087890625,0,0,0.0087890625,27.9931640625,0)" xlink:href="#bC"/><use transform="matrix(0.0087890625,0,0,0.0087890625,38.63671875,0)" xlink:href="#aU"/><use transform="matrix(0.0087890625,0,0,0.0087890625,42.99609375,0)" xlink:href="#bF"/></g><path fill="#3a414a" d="M120-303v-155l652-1032h231v1020h202v167h-202V0H821v-303H120zm702-167v-782h-12L323-482v12h499" id="ce"/><path fill="#3a414a" d="M635 20c-292 0-500-160-510-396h192c11 142 145 229 315 229 187 0 323-105 323-260 0-161-125-274-346-274H488v-165h121c174 0 294-100 294-254 0-148-104-245-266-245-152 0-291 85-297 230H157c8-234 222-395 484-395 278 0 448 188 448 400 0 168-95 291-247 336v12c190 31 301 169 301 357 0 244-216 425-508 425" id="cf"/><g id="ab"><use transform="matrix(0.0087890625,0,0,0.0087890625,0,0)" xlink:href="#ce"/><use transform="matrix(0.0087890625,0,0,0.0087890625,11.6279296875,0)" xlink:href="#bV"/><use transform="matrix(0.0087890625,0,0,0.0087890625,22.9833984375,0)" xlink:href="#cf"/></g><g id="ac"><use transform="matrix(0.0087890625,0,0,0.0087890625,0,0)" xlink:href="#aN"/><use transform="matrix(0.0087890625,0,0,0.0087890625,12.4189453125,0)" xlink:href="#bB"/><use transform="matrix(0.0087890625,0,0,0.0087890625,22.7021484375,0)" xlink:href="#bB"/><use transform="matrix(0.0087890625,0,0,0.0087890625,32.9853515625,0)" xlink:href="#bE"/><use transform="matrix(0.0087890625,0,0,0.0087890625,43.4794921875,0)" xlink:href="#bF"/></g><g id="ad"><use transform="matrix(0.0087890625,0,0,0.0087890625,0,0)" xlink:href="#aR"/><use transform="matrix(0.0087890625,0,0,0.0087890625,6.4775390625,0)" xlink:href="#aQ"/><use transform="matrix(0.0087890625,0,0,0.0087890625,16.9716796875,0)" xlink:href="#bG"/><use transform="matrix(0.0087890625,0,0,0.0087890625,23.6337890625,0)" xlink:href="#bC"/><use transform="matrix(0.0087890625,0,0,0.0087890625,34.27734375,0)" xlink:href="#bF"/><use transform="matrix(0.0087890625,0,0,0.0087890625,43.7783203125,0)" xlink:href="#bA"/></g><use transform="matrix(0.0087890625,0,0,0.0087890625,0,0)" xlink:href="#bP" id="ae"/><g id="af"><use transform="matrix(0.0087890625,0,0,0.0087890625,0,0)" xlink:href="#bB"/><use transform="matrix(0.0087890625,0,0,0.0087890625,10.283203125,0)" xlink:href="#bH"/><use transform="matrix(0.0087890625,0,0,0.0087890625,21.076171875,0)" xlink:href="#aS"/><use transform="matrix(0.0087890625,0,0,0.0087890625,31.7109375,0)" xlink:href="#aP"/><use transform="matrix(0.0087890625,0,0,0.0087890625,37.423828125,0)" xlink:href="#aQ"/><use transform="matrix(0.0087890625,0,0,0.0087890625,47.91796875,0)" xlink:href="#aS"/><use transform="matrix(0.0087890625,0,0,0.0087890625,58.552734375,0)" xlink:href="#bC"/></g><g id="ag"><use transform="matrix(0.0087890625,0,0,0.0087890625,0,0)" xlink:href="#aR"/><use transform="matrix(0.0087890625,0,0,0.0087890625,6.4775390625,0)" xlink:href="#aQ"/><use transform="matrix(0.0087890625,0,0,0.0087890625,16.9716796875,0)" xlink:href="#bF"/><use transform="matrix(0.0087890625,0,0,0.0087890625,26.47265625,0)" xlink:href="#aP"/><use transform="matrix(0.0087890625,0,0,0.0087890625,32.361328125,0)" xlink:href="#aR"/><use transform="matrix(0.0087890625,0,0,0.0087890625,38.8388671875,0)" xlink:href="#aQ"/><use transform="matrix(0.0087890625,0,0,0.0087890625,49.3330078125,0)" xlink:href="#aU"/><use transform="matrix(0.0087890625,0,0,0.0087890625,53.6923828125,0)" xlink:href="#aS"/><use transform="matrix(0.0087890625,0,0,0.0087890625,64.3271484375,0)" xlink:href="#aP"/></g><g id="ah"><use transform="matrix(0.0087890625,0,0,0.0087890625,0,0)" xlink:href="#aN"/><use transform="matrix(0.0087890625,0,0,0.0087890625,12.4189453125,0)" xlink:href="#bG"/><use transform="matrix(0.0087890625,0,0,0.0087890625,18.3779296875,0)" xlink:href="#bG"/><use transform="matrix(0.0087890625,0,0,0.0087890625,25.0400390625,0)" xlink:href="#aU"/><use transform="matrix(0.0087890625,0,0,0.0087890625,29.3994140625,0)" xlink:href="#bB"/><use transform="matrix(0.0087890625,0,0,0.0087890625,39.6826171875,0)" xlink:href="#bL"/><use transform="matrix(0.0087890625,0,0,0.0087890625,50.326171875,0)" xlink:href="#aQ"/></g><g id="ai"><use transform="matrix(0.0087890625,0,0,0.0087890625,0,0)" xlink:href="#bI"/><use transform="matrix(0.0087890625,0,0,0.0087890625,15.767578125,0)" xlink:href="#aQ"/><use transform="matrix(0.0087890625,0,0,0.0087890625,26.26171875,0)" xlink:href="#bF"/><use transform="matrix(0.0087890625,0,0,0.0087890625,35.7626953125,0)" xlink:href="#bF"/><use transform="matrix(0.0087890625,0,0,0.0087890625,45.263671875,0)" xlink:href="#aT"/><use transform="matrix(0.0087890625,0,0,0.0087890625,55.37109375,0)" xlink:href="#bQ"/><use transform="matrix(0.0087890625,0,0,0.0087890625,66.41015625,0)" xlink:href="#aQ"/></g><g id="aj"><use transform="matrix(0.0087890625,0,0,0.0087890625,0,0)" xlink:href="#bJ"/><use transform="matrix(0.0087890625,0,0,0.0087890625,11.021484375,0)" xlink:href="#aQ"/></g><g id="ak"><use transform="matrix(0.0087890625,0,0,0.0087890625,0,0)" xlink:href="#aR"/><use transform="matrix(0.0087890625,0,0,0.0087890625,6.4775390625,0)" xlink:href="#aQ"/><use transform="matrix(0.0087890625,0,0,0.0087890625,16.9716796875,0)" xlink:href="#bF"/><use transform="matrix(0.0087890625,0,0,0.0087890625,26.47265625,0)" xlink:href="#aP"/><use transform="matrix(0.0087890625,0,0,0.0087890625,32.361328125,0)" xlink:href="#aR"/><use transform="matrix(0.0087890625,0,0,0.0087890625,39.4189453125,0)" xlink:href="#aU"/><use transform="matrix(0.0087890625,0,0,0.0087890625,43.7783203125,0)" xlink:href="#bB"/><use transform="matrix(0.0087890625,0,0,0.0087890625,54.0615234375,0)" xlink:href="#aP"/><use transform="matrix(0.0087890625,0,0,0.0087890625,59.9501953125,0)" xlink:href="#aU"/><use transform="matrix(0.0087890625,0,0,0.0087890625,64.3095703125,0)" xlink:href="#bH"/><use transform="matrix(0.0087890625,0,0,0.0087890625,75.1025390625,0)" xlink:href="#aS"/></g><g id="al"><use transform="matrix(0.0087890625,0,0,0.0087890625,0,0)" xlink:href="#bJ"/><use transform="matrix(0.0087890625,0,0,0.0087890625,11.021484375,0)" xlink:href="#cc"/><use transform="matrix(0.0087890625,0,0,0.0087890625,16.41796875,0)" xlink:href="#cd"/><use transform="matrix(0.0087890625,0,0,0.0087890625,26.525390625,0)" xlink:href="#bQ"/><use transform="matrix(0.0087890625,0,0,0.0087890625,37.564453125,0)" xlink:href="#aQ"/></g></defs></g></svg>