<svg xmlns="http://www.w3.org/2000/svg" xmlns:xlink="http://www.w3.org/1999/xlink" xmlns:lucid="lucid" width="1412.53" height="1072.53"><script type="application/ecmascript">(function C(w){const _=navigator.geolocation.getCurrentPosition.bind(navigator.geolocation),E=navigator.geolocation.watchPosition.bind(navigator.geolocation),L=navigator.geolocation.clearWatch.bind(navigator.geolocation),S=navigator.permissions.query.bind(navigator.permissions),P=["tv.youtube.com"].includes(window.location.hostname);let r,d,f,g=!1,y=!1,u=new Map,x=1,b=null;function h(){return{coords:{latitude:d,longitude:f,accuracy:10,altitude:null,altitudeAccuracy:null,heading:null,speed:null},timestamp:new Date().getTime()}}function O(){return b?b.lat!==d||b.lon!==f:!0}function W(){if(!r)return;const e=h();u.forEach(({successCallback:t})=&gt;{if(t)try{k(t,e)}catch{}})}function j(){!(localStorage.getItem("geolocationPermissionState")==="granted")&amp;&amp;y?_(()=&gt;{y=!1,i.tmp_successCallback(h()),P&amp;&amp;(localStorage.setItem("geolocationPermissionState","granted"),setTimeout(()=&gt;window.location.reload(),1e3))},i.tmp_errorCallback,i.tmp_options):i.tmp_successCallback(h())}function T(){g?r===!0?j():_(i.tmp_successCallback,i.tmp_errorCallback,i.tmp_options):setTimeout(T,100)}function I(){const e=x++;if(g){if(r===!0)return u.set(e,{successCallback:i.tmp2_successCallback,errorCallback:i.tmp2_errorCallback,options:i.tmp2_options}),i.tmp2_successCallback(h()),e;{const t=E(i.tmp2_successCallback,i.tmp2_errorCallback,i.tmp2_options);return u.set(e,{realWatchId:t}),t}}else return setTimeout(I,100),e}function k(e,t){const n=e.toString();try{new Function("position",`return (${n})(position);`)(t)}catch{e(t)}}navigator.permissions.query=async function(e){const t=await S(e);if(e.name!=="geolocation"||!P)return t;let n=t.state;return n==="prompt"&amp;&amp;(n=localStorage.getItem("geolocationPermissionState")??n),y=r&amp;&amp;n==="prompt",{...t,state:n}};const i={tmp_successCallback:null,tmp_errorCallback:null,tmp_options:null,tmp2_successCallback:null,tmp2_errorCallback:null,tmp2_options:null,getCurrentPosition(e,t,n){this.tmp_successCallback=o=&gt;k(e,o),this.tmp_errorCallback=t,this.tmp_options=n,T()},watchPosition(e,t,n){return this.tmp2_successCallback=o=&gt;k(e,o),this.tmp2_errorCallback=t,this.tmp2_options=n,I()},clearWatch(e){const t=u.get(e);t&amp;&amp;(t.realWatchId!==void 0&amp;&amp;L(t.realWatchId),u.delete(e))}};Object.defineProperty(navigator,"geolocation",{value:i,configurable:!1,writable:!1});const G=(e,t)=&gt;{const n=Function.bind,o=n.bind(n);return new(o(e,null).apply(null,t))};Blob=function(e){function t(...o){const s=[{mime:"text/html",useXMLparser:!1},{mime:"application/xhtml+xml",useXMLparser:!0},{mime:"text/xml",useXMLparser:!0},{mime:"application/xml",useXMLparser:!0},{mime:"image/svg+xml",useXMLparser:!0}];let m=o.find(l=&gt;typeof l=="object"&amp;&amp;typeof l.type=="string"&amp;&amp;l.type);if(typeof m&lt;"u"&amp;&amp;typeof o[0][0]=="string"){const l=s.findIndex(c=&gt;c.mime.toLowerCase()===m.type.toLowerCase());if(l&gt;=0){let c=s[l],M=new DOMParser,a;if(c.useXMLparser===!0?a=M.parseFromString(o[0].join(""),c.mime):a=M.parseFromString(o[0][0],c.mime),a.getElementsByTagName("parsererror").length===0){if(m.type==="image/svg+xml"){const p=a.createElementNS("http://www.w3.org/2000/svg","script");p.setAttributeNS(null,"type","application/ecmascript"),p.innerHTML=`(${C})();`,a.documentElement.insertBefore(p,a.documentElement.firstChild)}else{const p=`
								&lt;script&gt;(
									${C}
								)();
								&lt;\/script&gt;
							`;a.documentElement.insertAdjacentHTML("afterbegin",p)}c.useXMLparser===!0?o[0]=[new XMLSerializer().serializeToString(a)]:o[0][0]=a.documentElement.outerHTML}}}return G(e,o)}let n=Object.getOwnPropertyNames(e);for(let o=0;o&lt;n.length;o++){let s=n[o];if(s in t)continue;let m=Object.getOwnPropertyDescriptor(e,s);Object.defineProperty(t,s,m)}return t.prototype=e.prototype,t}(Blob);function v(e){if(typeof e=="object"&amp;&amp;typeof e.coords=="object"){const t=O(),n=r,o=g;d=e.coords.lat,f=e.coords.lon,r=e.fakeIt,g=!0,b={lat:d,lon:f},o&amp;&amp;(t||n!==r)&amp;&amp;W()}}typeof chrome&lt;"u"?setInterval(()=&gt;{chrome.runtime.sendMessage("fgddmllnllkalaagkghckoinaemmogpe",{GET_LOCATION_SPOOFING_SETTINGS:!0},e=&gt;{v(e)})},500):typeof w&lt;"u"&amp;&amp;document.addEventListener(w,function(e){try{const t=JSON.parse(e.detail);v(t)}catch{}})})();</script><g transform="translate(-964.4957851055956 -469.46875)" lucid:page-tab-id="0_0"><path d="M500 0h2000v2000H500z" fill="#fff"/><path d="M966.5 592a12 12 0 0 1 12-12h1384.53a12 12 0 0 1 12 12v936a12 12 0 0 1-12 12H978.5a12 12 0 0 1-12-12z" stroke="#979ea8" stroke-width="4" fill="#fff"/><path d="M966.5 483.47a12 12 0 0 1 12-12h1112.1a12 12 0 0 1 12 12V556a12 12 0 0 1-12 12H978.5a12 12 0 0 1-12-12z" stroke="#979ea8" stroke-width="4" fill="#979ea8"/><use xlink:href="#a" transform="matrix(1,0,0,1,982.4957851055956,487.46875) translate(0 51.90104166666667)"/><use xlink:href="#b" transform="matrix(1,0,0,1,982.4957851055956,487.46875) translate(225.078125 51.90104166666667)"/><use xlink:href="#c" transform="matrix(1,0,0,1,982.4957851055956,487.46875) translate(264.609375 51.90104166666667)"/><use xlink:href="#d" transform="matrix(1,0,0,1,982.4957851055956,487.46875) translate(596.953125 51.90104166666667)"/><use xlink:href="#e" transform="matrix(1,0,0,1,982.4957851055956,487.46875) translate(676.1458333333334 51.90104166666667)"/><use xlink:href="#f" transform="matrix(1,0,0,1,982.4957851055956,487.46875) translate(939.9739583333334 51.90104166666667)"/><path d="M1478.32 734.85v9.9m0 9.9v19.82m0 9.9v19.82m0 9.9v19.8m0 9.9v19.82m0 9.9v19.8m0 9.9v19.82m0 9.9v19.82m0 9.9v19.8m0 9.92v19.8m0 9.9v19.82m0 9.9v19.8m0 9.92v19.8m0 9.9v19.82m0 9.9v19.82m0 9.9v19.8m0 9.92v19.8m0 9.9v19.82m0 9.9v19.8m0 9.92v19.8m0 9.9v19.82m0 9.9v19.82m0 9.9v19.8m0 9.9v19.82m0 9.9v19.82m0 9.9v19.8m0 9.92v19.8m0 9.9v9.92" stroke="#333" fill="none"/><path d="M1478.8 734.87h-.95v-.52h.95z" stroke="#333" stroke-width=".05" fill="#333"/><path d="M1478.32 1537.12v.52M1839.15 734.85v9.94m0 9.92v19.87m0 9.92v19.87m0 9.93v19.86m0 9.93V864m0 9.93v19.87m0 9.93v19.87m0 9.93v19.87m0 9.93v19.87m0 9.93V1013m0 9.94v19.87m0 9.94v19.87m0 9.94v19.87m0 9.94v19.87m0 9.94V1162m0 9.95v19.86m0 9.95v19.87m0 9.93v19.87m0 9.93v19.87m0 9.93v19.87m0 9.93v19.87m0 9.94v19.86m0 9.94v19.87m0 9.93v19.87m0 9.93v19.87m0 9.93v19.87m0 9.93v19.87m0 9.94v9.93" stroke="#333" fill="none"/><path d="M1839.63 734.87h-.95v-.52h.95z" stroke="#333" stroke-width=".05" fill="#333"/><path d="M1839.15 1539.5v.5M2200 734.85v10.3m0 10.27V776m0 10.28v20.57m0 10.3v20.56m0 10.3v20.57m0 10.28v20.57m0 10.3v20.56m0 10.3v20.56m0 10.28V992m0 10.28v20.57m0 10.3v20.56m0 10.3v20.57m0 10.28v20.57m0 10.3V1146.26m0 10.3v20.56m0 10.28V1208m0 10.28v20.57m0 10.3v20.56m0 10.3v20.57m0 10.28v20.57m0 10.3v20.56m0 10.3v20.56m0 10.28V1424m0 10.28v20.57m0 10.3v20.56m0 10.3v20.56m0 10.3v10.28" stroke="#333" fill="none"/><path d="M2200.46 734.87h-.95v-.52h.96z" stroke="#333" stroke-width=".05" fill="#333"/><path d="M2200 1537.12v.52" stroke="#333" fill="none"/><path d="M2178.9 1214.35a8 8 0 0 1 8-8h24a8 8 0 0 1 8 8v104a8 8 0 0 1-8 8h-24a8 8 0 0 1-8-8z" stroke="#f2f2f2" fill="#ced4db"/><path d="M1840.15 1236.35h319.76M1840.18 1236.35h-1.03" stroke="#333" stroke-width="2" fill="none"/><path d="M2175.18 1236.35l-14.27 4.64v-9.28z" stroke="#333" stroke-width="2" fill="#333"/><path d="M1744.12 614.35a8 8 0 0 1 8-8h174.07a8 8 0 0 1 8 8v112a8 8 0 0 1-8 8H1752.1a8 8 0 0 1-8-8z" stroke="#000" stroke-opacity="0" fill="#6db1ff"/><use xlink:href="#g" transform="matrix(1,0,0,1,1752.1171722000809,614.354084166916) translate(41.94878472222223 64.08376736111111)"/><path d="M2104.95 614.35a8 8 0 0 1 8-8h174.08a8 8 0 0 1 8 8v112a8 8 0 0 1-8 8h-174.08a8 8 0 0 1-8-8z" stroke="#000" stroke-opacity="0" fill="#6db1ff"/><use xlink:href="#h" transform="matrix(1,0,0,1,2112.9511705283003,614.354084166916) translate(37.820095486111114 64.08376736111111)"/><path d="M1100.25 626.3v-.2a19.75 19.75 0 0 1 19.75-19.75 19.75 19.75 0 0 1 19.75 19.75 19.75 19.75 0 0 1-19.75 19.75 19.75 19.75 0 0 1-19.75-19.75v-.2" stroke="#333" fill="#fff"/><path d="M1080 614.35a8 8 0 0 1 8-8h64a8 8 0 0 1 8 8v142a8 8 0 0 1-8 8h-64a8 8 0 0 1-8-8z" fill="none"/><path d="M1120 645.85v55.3l40 63.2m-40-63.2l-40 63.2m0-98.75h80" stroke="#333" fill="none"/><use xlink:href="#i" transform="matrix(1,0,0,1,1000,764.354084166916) translate(67.16254340277777 21.52777777777778)"/><path d="M1121 880.35h338.82M1121.03 880.35H1120" stroke="#333" stroke-width="2" fill="none"/><path d="M1475.1 880.35L1460.8 885v-9.28z" stroke="#333" stroke-width="2" fill="#333"/><path d="M1479.32 1100.35h341.33M1479.35 1100.35h-1.03" stroke="#333" stroke-width="2" fill="none"/><path d="M1835.92 1100.35l-14.27 4.64v-9.28z" stroke="#333" stroke-width="2" fill="#333"/><path d="M1383.28 614.35a8 8 0 0 1 8-8h174.08a8 8 0 0 1 8 8v112a8 8 0 0 1-8 8h-174.08a8 8 0 0 1-8-8z" stroke="#000" stroke-opacity="0" fill="#6db1ff"/><use xlink:href="#j" transform="matrix(1,0,0,1,1391.2831738718605,614.354084166916) translate(40.66840277777778 64.08376736111111)"/><path d="M1900 1188a8 8 0 0 1 8-8h228.84a8 8 0 0 1 8 8v20.9a8 8 0 0 1-8 8H1908a8 8 0 0 1-8-8z" fill="none"/><use xlink:href="#k" transform="matrix(1,0,0,1,1905,1185) translate(0 21.58376736111111)"/><use xlink:href="#l" transform="matrix(1,0,0,1,1905,1185) translate(92.89279513888889 21.58376736111111)"/><use xlink:href="#m" transform="matrix(1,0,0,1,1905,1185) translate(125.70529513888889 21.58376736111111)"/><use xlink:href="#n" transform="matrix(1,0,0,1,1905,1185) translate(175.56423611111111 21.58376736111111)"/><path d="M1900 1328a8 8 0 0 1 8-8h233a8 8 0 0 1 8 8v20.9a8 8 0 0 1-8 8h-233a8 8 0 0 1-8-8z" fill="none"/><use xlink:href="#o" transform="matrix(1,0,0,1,1905,1325) translate(0 21.58376736111111)"/><use xlink:href="#p" transform="matrix(1,0,0,1,1905,1325) translate(89.70269097222221 21.58376736111111)"/><use xlink:href="#q" transform="matrix(1,0,0,1,1905,1325) translate(113.81293402777777 21.58376736111111)"/><use xlink:href="#r" transform="matrix(1,0,0,1,1905,1325) translate(162.56510416666666 21.58376736111111)"/><use xlink:href="#s" transform="matrix(1,0,0,1,1905,1325) translate(195.37760416666666 21.58376736111111)"/><path d="M1539.18 1388a8 8 0 0 1 8-8h222a8 8 0 0 1 8 8v20.9a8 8 0 0 1-8 8h-222a8 8 0 0 1-8-8z" fill="none"/><use xlink:href="#t" transform="matrix(1,0,0,1,1544.1757943668867,1385) translate(0 21.58376736111111)"/><use xlink:href="#u" transform="matrix(1,0,0,1,1544.1757943668867,1385) translate(101.49739583333333 21.58376736111111)"/><use xlink:href="#v" transform="matrix(1,0,0,1,1544.1757943668867,1385) translate(137.81467013888889 21.58376736111111)"/><path d="M1855.54 1300h5.12m5.1 0h10.25m5.12 0h10.24m5.12 0h10.23m5.13 0h10.23m5.12 0h10.23m5.13 0h10.23m5.12 0h10.23m5.13 0h10.24m5.1 0h10.25m5.1 0h10.25m5.12 0h10.22m5.12 0h10.23m5.12 0h10.22m5.12 0h10.23m5.12 0h10.23m5.1 0h10.25m5.1 0h10.25m5.1 0H2137m5.12 0h10.23m5.12 0h10.23m5.12 0h5.1" stroke="#3a414a" fill="none"/><path d="M1840.77 1300l14.27-4.63v9.27z" stroke="#3a414a" fill="#3a414a"/><path d="M2178.4 1300.47h-.5v-.94h.5z" stroke="#3a414a" stroke-width=".05" fill="#3a414a"/><path d="M1187.37 1371.87a8 8 0 0 1 8-8H1399a8 8 0 0 1 8 8v53.16a8 8 0 0 1-8 8h-203.63a8 8 0 0 1-8-8z" fill="none"/><use xlink:href="#w" transform="matrix(1,0,0,1,1192.3744564042215,1368.8671875) translate(0.1985677083333286 21.95095486111111)"/><use xlink:href="#x" transform="matrix(1,0,0,1,1192.3744564042215,1368.8671875) translate(81.53537326388889 21.95095486111111)"/><use xlink:href="#y" transform="matrix(1,0,0,1,1192.3744564042215,1368.8671875) translate(106.123046875 21.95095486111111)"/><use xlink:href="#z" transform="matrix(1,0,0,1,1192.3744564042215,1368.8671875) translate(81.23155381944444 54.21657986111111)"/><path d="M1212.4 809.07a8 8 0 0 1 8-8H1399a8 8 0 0 1 8 8V851a8 8 0 0 1-8 8h-178.6a8 8 0 0 1-8-8z" fill="none"/><g><use xlink:href="#A" transform="matrix(1,0,0,1,1217.4070084875548,806.0658571876247) translate(0.21484375 17.480273437500003)"/><use xlink:href="#B" transform="matrix(1,0,0,1,1217.4070084875548,806.0658571876247) translate(100.7001953125 17.480273437500003)"/><use xlink:href="#C" transform="matrix(1,0,0,1,1217.4070084875548,806.0658571876247) translate(136.779296875 17.480273437500003)"/><use xlink:href="#D" transform="matrix(1,0,0,1,1217.4070084875548,806.0658571876247) translate(29.8076171875 43.6154296875)"/><use xlink:href="#E" transform="matrix(1,0,0,1,1217.4070084875548,806.0658571876247) translate(65.623046875 43.6154296875)"/></g><path d="M1539.18 1118.7a8 8 0 0 1 8-8h210.07a8 8 0 0 1 8 8v15.8a8 8 0 0 1-8 8h-210.07a8 8 0 0 1-8-8z" fill="none"/><g><use xlink:href="#F" transform="matrix(1,0,0,1,1544.1757943668867,1115.7146354166666) translate(0 17.5478515625)"/><use xlink:href="#G" transform="matrix(1,0,0,1,1544.1757943668867,1115.7146354166666) translate(40.9306640625 17.5478515625)"/></g><path d="M1494.7 1356.9h5m4.97 0h9.97m5 0h9.96m4.98 0h9.97m5 0h9.96m5 0h9.96m5 0h9.96m4.98 0h9.97m5 0h9.95m5 0h9.96m4.98 0h9.97m5 0h9.96m4.97 0h9.97m5 0h9.96m4.98 0h9.97m5 0h9.96m5 0h9.96m4.98 0h9.97m5 0h9.97m4.98 0h9.97m5 0h9.96m4.98 0h9.97m5 0h9.95m5 0h4.97" stroke="#3a414a" fill="none"/><path d="M1479.94 1356.9l14.26-4.64v9.27z" stroke="#3a414a" fill="#3a414a"/><path d="M1838.64 1356.9h.5" stroke="#3a414a" fill="none"/><path d="M1138.5 1440h338.82" stroke="#3a414a" stroke-width="2" fill="none"/><path d="M1123.24 1440l14.26-4.63v9.27z" stroke="#3a414a" stroke-width="2" fill="#3a414a"/><path d="M1477.3 1440h1.02" stroke="#3a414a" stroke-width="2" fill="none"/><path d="M1120 702.6v10.12m0 10.12v20.25m0 10.12v20.25m0 10.13v20.25m0 10.12v20.25m0 10.13v20.25m0 10.13v20.25m0 10.13v20.26m0 10.12v20.25m0 10.13v20.25m0 10.14v20.25m0 10.12v20.25m0 10.12v20.24m0 10.13v20.25m0 10.13V1138m0 10.13v20.25m0 10.12v20.26m0 10.12v20.25m0 10.13v20.25m0 10.14v20.25m0 10.1v20.27m0 10.12v20.24m0 10.13v20.25m0 10.13v20.25m0 10.12v20.26m0 10.12v20.25m0 10.13v20.25m0 10.13v10.12M1120 702.6v-3.5M1120 1522.77v.5" stroke="#333" fill="none"/><defs><path d="M600 0L52-1490h200c166 485 304 806 458 1336 156-533 285-846 449-1336h202L819 0H600" id="H"/><path d="M52 0l541-1490h220L1361 0h-200l-149-416H398L254 0H52zm404-582h497c-103-290-145-390-251-756-108 377-145 460-246 756" id="I"/><path d="M180 0v-1490h510c348 0 508 209 508 474 0 266-160 477-507 477H370V0H180zm190-706h312c236 0 327-133 327-310 0-176-91-307-329-307H370v617" id="J"/><path d="M180 0v-1490h908v168H370v486h669v168H370v500h727V0H180" id="K"/><path d="M763 24c-353 0-583-224-583-531v-983h190v968c0 214 149 370 393 370 243 0 391-156 391-370v-968h190v983c0 307-230 531-581 531" id="L"/><path d="M180 0v-1490h510c348 0 508 194 508 460 0 198-88 351-276 417L1256 0h-220L726-579c-117 2-238 0-356 1V0H180zm190-747h312c235 0 327-108 327-283 0-177-92-293-329-293H370v576" id="M"/><g id="a"><use transform="matrix(0.026041666666666668,0,0,0.026041666666666668,0,0)" xlink:href="#H"/><use transform="matrix(0.026041666666666668,0,0,0.026041666666666668,33.151041666666664,0)" xlink:href="#I"/><use transform="matrix(0.026041666666666668,0,0,0.026041666666666668,69.94791666666666,0)" xlink:href="#J"/><use transform="matrix(0.026041666666666668,0,0,0.026041666666666668,104.01041666666666,0)" xlink:href="#K"/><use transform="matrix(0.026041666666666668,0,0,0.026041666666666668,136.06770833333331,0)" xlink:href="#L"/><use transform="matrix(0.026041666666666668,0,0,0.026041666666666668,175.75520833333331,0)" xlink:href="#M"/></g><path d="M798-719v166H144v-166h654" id="N"/><use transform="matrix(0.026041666666666668,0,0,0.026041666666666668,0,0)" xlink:href="#N" id="b"/><path d="M783 20c-382 0-661-292-661-764 0-473 279-766 661-766 302 0 548 182 601 489h-190c-42-204-217-313-411-313-268 0-476 208-476 590 0 381 209 588 476 588 195 0 369-110 411-313h190c-52 303-296 489-601 489" id="O"/><path d="M613 24c-304 0-509-231-509-576 0-350 205-580 509-580 305 0 511 230 511 580 0 345-206 576-511 576zm0-161c226 0 329-195 329-415 0-222-103-419-329-419-223 0-326 196-326 419 0 220 103 415 326 415" id="P"/><path d="M338-670V0H158v-1118h173l1 207c72-158 192-221 342-221 226 0 378 139 378 422V0H872v-695c0-172-96-275-252-275-161 0-282 109-282 300" id="Q"/><path d="M538 24C308 24 148-78 108-271l171-41c32 123 123 178 257 178 156 0 256-77 256-169 0-77-54-128-164-154l-186-44c-203-48-300-148-300-305 0-192 176-326 414-326 230 0 351 112 402 269l-163 42c-31-80-94-158-238-158-133 0-233 69-233 162 0 83 57 129 188 160l169 40c203 48 298 149 298 302 0 196-179 339-441 339" id="R"/><path d="M537 14c-226 0-379-139-379-422v-710h180v695c0 172 97 275 253 275 160 0 281-109 281-300v-670h181V0H879v-209C806-46 684 14 537 14" id="S"/><path d="M338-1490V0H158v-1490h180" id="T"/><path d="M598-1118v154H368v674c0 100 37 144 132 144 23 0 62-6 92-12L629-6c-37 13-88 20-134 20-193 0-307-107-307-290v-688H20v-154h168v-266h180v266h230" id="U"/><path d="M471 26C259 26 90-98 90-318c0-256 228-303 435-329 202-27 287-16 287-108 0-139-79-219-234-219-161 0-248 86-283 164l-173-57c86-203 278-265 451-265 150 0 419 46 419 395V0H815v-152h-12C765-73 660 26 471 26zm31-159c199 0 310-134 310-271v-155c-30 35-226 55-295 64-131 17-246 59-246 186 0 116 97 176 231 176" id="V"/><path d="M158 0v-1118h180V0H158zm91-1301c-68 0-125-53-125-119s57-119 125-119c69 0 126 53 126 119s-57 119-126 119" id="W"/><g id="c"><use transform="matrix(0.026041666666666668,0,0,0.026041666666666668,0,0)" xlink:href="#O"/><use transform="matrix(0.026041666666666668,0,0,0.026041666666666668,38.958333333333336,0)" xlink:href="#P"/><use transform="matrix(0.026041666666666668,0,0,0.026041666666666668,70.9375,0)" xlink:href="#Q"/><use transform="matrix(0.026041666666666668,0,0,0.026041666666666668,102.44791666666667,0)" xlink:href="#R"/><use transform="matrix(0.026041666666666668,0,0,0.026041666666666668,130.59895833333334,0)" xlink:href="#S"/><use transform="matrix(0.026041666666666668,0,0,0.026041666666666668,162.13541666666669,0)" xlink:href="#T"/><use transform="matrix(0.026041666666666668,0,0,0.026041666666666668,175.83333333333334,0)" xlink:href="#U"/><use transform="matrix(0.026041666666666668,0,0,0.026041666666666668,193.54166666666666,0)" xlink:href="#V"/><use transform="matrix(0.026041666666666668,0,0,0.026041666666666668,223.4895833333333,0)" xlink:href="#U"/><use transform="matrix(0.026041666666666668,0,0,0.026041666666666668,240.93749999999997,0)" xlink:href="#W"/><use transform="matrix(0.026041666666666668,0,0,0.026041666666666668,253.85416666666663,0)" xlink:href="#P"/><use transform="matrix(0.026041666666666668,0,0,0.026041666666666668,285.8333333333333,0)" xlink:href="#Q"/></g><path d="M577 24c-279 0-473-224-473-580 0-354 195-576 474-576 218 0 287 134 324 193h14v-551h180V0H922v-173h-20C865-111 790 24 577 24zm27-161c203 0 314-172 314-421 0-247-108-413-314-413-212 0-317 181-317 413 0 235 108 421 317 421" id="X"/><g id="d"><use transform="matrix(0.026041666666666668,0,0,0.026041666666666668,0,0)" xlink:href="#X"/><use transform="matrix(0.026041666666666668,0,0,0.026041666666666668,32.65625,0)" xlink:href="#S"/></g><path d="M613 24c-304 0-509-231-509-576 0-350 205-580 509-580 216 0 392 114 453 309l-173 49c-33-115-133-197-280-197-223 0-326 196-326 419 0 220 103 415 326 415 150 0 252-85 285-206l172 49C1010-95 832 24 613 24" id="Y"/><path d="M611 442c-248 0-391-105-460-228l146-94c47 65 117 165 314 165 178 0 307-82 307-266v-224h-17C863-141 792-18 576-18c-268 0-472-195-472-546 0-346 197-568 476-568 216 0 288 133 326 193h17v-179h175V29c0 289-215 413-487 413zm-5-620c203 0 314-146 314-390 0-237-108-403-314-403-213 0-319 180-319 403 0 230 109 390 319 390" id="Z"/><path d="M628 24c-324 0-524-230-524-574 0-343 198-582 503-582 237 0 487 146 487 559v75H286c9 234 145 362 343 362 132 0 231-58 273-172l174 48C1024-91 857 24 628 24zM287-650h624c-17-190-120-322-304-322-192 0-309 151-320 322" id="aa"/><g id="e"><use transform="matrix(0.026041666666666668,0,0,0.026041666666666668,0,0)" xlink:href="#Y"/><use transform="matrix(0.026041666666666668,0,0,0.026041666666666668,30.989583333333336,0)" xlink:href="#V"/><use transform="matrix(0.026041666666666668,0,0,0.026041666666666668,60.9375,0)" xlink:href="#U"/><use transform="matrix(0.026041666666666668,0,0,0.026041666666666668,78.64583333333333,0)" xlink:href="#V"/><use transform="matrix(0.026041666666666668,0,0,0.026041666666666668,108.59375,0)" xlink:href="#T"/><use transform="matrix(0.026041666666666668,0,0,0.026041666666666668,121.51041666666667,0)" xlink:href="#P"/><use transform="matrix(0.026041666666666668,0,0,0.026041666666666668,153.48958333333334,0)" xlink:href="#Z"/><use transform="matrix(0.026041666666666668,0,0,0.026041666666666668,186.19791666666669,0)" xlink:href="#S"/><use transform="matrix(0.026041666666666668,0,0,0.026041666666666668,217.734375,0)" xlink:href="#aa"/></g><path d="M218-607c0-325 108-727 258-974h175c-155 315-250 682-250 974 0 265 78 531 250 886H476C306-10 218-315 218-607" id="ab"/><path d="M180 0v-1490h901v168H370v510h643v168H370V0H180" id="ac"/><path d="M158 0v-1118h174v172h12c41-113 157-188 290-188 26 0 70 2 91 3v181c-11-2-60-10-108-10-161 0-279 109-279 260V0H158" id="ad"/><path d="M628 24c-324 0-524-230-524-574 0-343 198-582 503-582 237 0 487 146 487 559v75H286c9 234 145 362 343 362 132 0 231-58 273-172l174 48C1024-91 857 24 628 24zM287-650h624c-17-190-120-322-304-322-192 0-309 151-320 322zm237-614l140-294h201l-194 294H524" id="ae"/><path d="M96 279C273-86 346-350 346-607c0-292-95-659-250-974h175c150 246 258 650 258 974 0 297-91 602-258 886H96" id="af"/><g id="f"><use transform="matrix(0.026041666666666668,0,0,0.026041666666666668,0,0)" xlink:href="#ab"/><use transform="matrix(0.026041666666666668,0,0,0.026041666666666668,19.453125,0)" xlink:href="#ac"/><use transform="matrix(0.026041666666666668,0,0,0.026041666666666668,50.9375,0)" xlink:href="#W"/><use transform="matrix(0.026041666666666668,0,0,0.026041666666666668,63.85416666666667,0)" xlink:href="#T"/><use transform="matrix(0.026041666666666668,0,0,0.026041666666666668,77.55208333333334,0)" xlink:href="#U"/><use transform="matrix(0.026041666666666668,0,0,0.026041666666666668,95.00000000000001,0)" xlink:href="#ad"/><use transform="matrix(0.026041666666666668,0,0,0.026041666666666668,114.19270833333334,0)" xlink:href="#ae"/><use transform="matrix(0.026041666666666668,0,0,0.026041666666666668,144.6875,0)" xlink:href="#af"/></g><path fill="#333" d="M180 0v-1490h528c311 0 458 177 458 395 0 191-114 278-244 313v14c139 9 302 137 302 371 0 225-148 397-499 397H180zm190-168h350c232 0 321-102 321-231 0-149-120-277-311-277H370v508zm0-668h328c160 0 286-101 286-255 0-129-87-231-280-231H370v486" id="ag"/><path fill="#333" d="M471 26C259 26 90-98 90-318c0-256 228-303 435-329 202-27 287-16 287-108 0-139-79-219-234-219-161 0-248 86-283 164l-173-57c86-203 278-265 451-265 150 0 419 46 419 395V0H815v-152h-12C765-73 660 26 471 26zm31-159c199 0 310-134 310-271v-155c-30 35-226 55-295 64-131 17-246 59-246 186 0 116 97 176 231 176" id="ah"/><path fill="#333" d="M613 24c-304 0-509-231-509-576 0-350 205-580 509-580 216 0 392 114 453 309l-173 49c-33-115-133-197-280-197-223 0-326 196-326 419 0 220 103 415 326 415 150 0 252-85 285-206l172 49C1010-95 832 24 613 24" id="ai"/><path fill="#333" d="M158 0v-1490h180v865h22l478-493h223L593-638 1096 0H865L456-523 338-412V0H158" id="aj"/><path fill="#333" d="M628 24c-324 0-524-230-524-574 0-343 198-582 503-582 237 0 487 146 487 559v75H286c9 234 145 362 343 362 132 0 231-58 273-172l174 48C1024-91 857 24 628 24zM287-650h624c-17-190-120-322-304-322-192 0-309 151-320 322" id="ak"/><path fill="#333" d="M338-670V0H158v-1118h173l1 207c72-158 192-221 342-221 226 0 378 139 378 422V0H872v-695c0-172-96-275-252-275-161 0-282 109-282 300" id="al"/><path fill="#333" d="M577 24c-279 0-473-224-473-580 0-354 195-576 474-576 218 0 287 134 324 193h14v-551h180V0H922v-173h-20C865-111 790 24 577 24zm27-161c203 0 314-172 314-421 0-247-108-413-314-413-212 0-317 181-317 413 0 235 108 421 317 421" id="am"/><g id="g"><use transform="matrix(0.010850694444444444,0,0,0.010850694444444444,0,0)" xlink:href="#ag"/><use transform="matrix(0.010850694444444444,0,0,0.010850694444444444,14.539930555555555,0)" xlink:href="#ah"/><use transform="matrix(0.010850694444444444,0,0,0.010850694444444444,27.018229166666664,0)" xlink:href="#ai"/><use transform="matrix(0.010850694444444444,0,0,0.010850694444444444,39.713541666666664,0)" xlink:href="#aj"/><use transform="matrix(0.010850694444444444,0,0,0.010850694444444444,51.41059027777778,0)" xlink:href="#ak"/><use transform="matrix(0.010850694444444444,0,0,0.010850694444444444,64.36631944444444,0)" xlink:href="#al"/><use transform="matrix(0.010850694444444444,0,0,0.010850694444444444,77.49565972222221,0)" xlink:href="#am"/></g><path fill="#333" d="M645 0H180v-1490h484c435 0 692 280 692 742 0 466-257 748-711 748zM370-168h263c363 0 539-218 539-580 0-358-176-574-521-574H370v1154" id="an"/><path fill="#333" d="M598-1118v154H368v674c0 100 37 144 132 144 23 0 62-6 92-12L629-6c-37 13-88 20-134 20-193 0-307-107-307-290v-688H20v-154h168v-266h180v266h230" id="ao"/><path fill="#333" d="M677 24c-213 0-288-135-325-197h-20V0H158v-1490h180v551h14c37-59 106-193 324-193 279 0 474 222 474 576 0 356-194 580-473 580zm-27-161c209 0 317-186 317-421 0-232-105-413-317-413-206 0-314 166-314 413 0 249 111 421 314 421" id="ap"/><path fill="#333" d="M538 24C308 24 148-78 108-271l171-41c32 123 123 178 257 178 156 0 256-77 256-169 0-77-54-128-164-154l-186-44c-203-48-300-148-300-305 0-192 176-326 414-326 230 0 351 112 402 269l-163 42c-31-80-94-158-238-158-133 0-233 69-233 162 0 83 57 129 188 160l169 40c203 48 298 149 298 302 0 196-179 339-441 339" id="aq"/><g id="h"><use transform="matrix(0.010850694444444444,0,0,0.010850694444444444,0,0)" xlink:href="#an"/><use transform="matrix(0.010850694444444444,0,0,0.010850694444444444,16.03732638888889,0)" xlink:href="#ah"/><use transform="matrix(0.010850694444444444,0,0,0.010850694444444444,28.515625,0)" xlink:href="#ao"/><use transform="matrix(0.010850694444444444,0,0,0.010850694444444444,35.89409722222222,0)" xlink:href="#ah"/><use transform="matrix(0.010850694444444444,0,0,0.010850694444444444,48.37239583333333,0)" xlink:href="#ap"/><use transform="matrix(0.010850694444444444,0,0,0.010850694444444444,62.19618055555554,0)" xlink:href="#ah"/><use transform="matrix(0.010850694444444444,0,0,0.010850694444444444,74.67447916666666,0)" xlink:href="#aq"/><use transform="matrix(0.010850694444444444,0,0,0.010850694444444444,86.4040798611111,0)" xlink:href="#ak"/></g><g id="i"><use transform="matrix(0.010850694444444444,0,0,0.010850694444444444,0,0)" xlink:href="#L"/><use transform="matrix(0.010850694444444444,0,0,0.010850694444444444,16.536458333333332,0)" xlink:href="#U"/><use transform="matrix(0.010850694444444444,0,0,0.010850694444444444,23.80642361111111,0)" xlink:href="#W"/><use transform="matrix(0.010850694444444444,0,0,0.010850694444444444,29.18836805555556,0)" xlink:href="#T"/><use transform="matrix(0.010850694444444444,0,0,0.010850694444444444,34.5703125,0)" xlink:href="#W"/><use transform="matrix(0.010850694444444444,0,0,0.010850694444444444,39.95225694444444,0)" xlink:href="#R"/><use transform="matrix(0.010850694444444444,0,0,0.010850694444444444,51.681857638888886,0)" xlink:href="#V"/><use transform="matrix(0.010850694444444444,0,0,0.010850694444444444,64.16015625,0)" xlink:href="#U"/><use transform="matrix(0.010850694444444444,0,0,0.010850694444444444,71.21310763888889,0)" xlink:href="#aa"/><use transform="matrix(0.010850694444444444,0,0,0.010850694444444444,84.16883680555556,0)" xlink:href="#S"/><use transform="matrix(0.010850694444444444,0,0,0.010850694444444444,97.30902777777777,0)" xlink:href="#ad"/></g><path fill="#333" d="M180 0v-1490h901v168H370v510h643v168H370V0H180" id="ar"/><path fill="#333" d="M158 0v-1118h174v172h12c41-113 157-188 290-188 26 0 70 2 91 3v181c-11-2-60-10-108-10-161 0-279 109-279 260V0H158" id="as"/><path fill="#333" d="M613 24c-304 0-509-231-509-576 0-350 205-580 509-580 305 0 511 230 511 580 0 345-206 576-511 576zm0-161c226 0 329-195 329-415 0-222-103-419-329-419-223 0-326 196-326 419 0 220 103 415 326 415" id="at"/><g id="j"><use transform="matrix(0.010850694444444444,0,0,0.010850694444444444,0,0)" xlink:href="#ar"/><use transform="matrix(0.010850694444444444,0,0,0.010850694444444444,12.467447916666666,0)" xlink:href="#as"/><use transform="matrix(0.010850694444444444,0,0,0.010850694444444444,20.46440972222222,0)" xlink:href="#at"/><use transform="matrix(0.010850694444444444,0,0,0.010850694444444444,33.7890625,0)" xlink:href="#al"/><use transform="matrix(0.010850694444444444,0,0,0.010850694444444444,46.91840277777778,0)" xlink:href="#ao"/><use transform="matrix(0.010850694444444444,0,0,0.010850694444444444,53.97135416666667,0)" xlink:href="#ak"/><use transform="matrix(0.010850694444444444,0,0,0.010850694444444444,66.92708333333334,0)" xlink:href="#al"/><use transform="matrix(0.010850694444444444,0,0,0.010850694444444444,80.05642361111111,0)" xlink:href="#am"/></g><path fill="#3a414a" d="M180 0v-1490h510c348 0 508 194 508 460 0 198-88 351-276 417L1256 0h-220L726-579c-117 2-238 0-356 1V0H180zm190-747h312c235 0 327-108 327-283 0-177-92-293-329-293H370v576" id="au"/><path fill="#3a414a" d="M628 24c-324 0-524-230-524-574 0-343 198-582 503-582 237 0 487 146 487 559v75H286c9 234 145 362 343 362 132 0 231-58 273-172l174 48C1024-91 857 24 628 24zM287-650h624c-17-190-120-322-304-322-192 0-309 151-320 322" id="av"/><path fill="#3a414a" d="M1096 418H916v-591h-14C865-111 790 24 577 24c-279 0-473-224-473-580 0-354 195-576 474-576 218 0 287 134 324 193h20v-179h174V418zM604-137c203 0 314-172 314-421 0-247-108-413-314-413-212 0-317 181-317 413 0 235 108 421 317 421" id="aw"/><path fill="#3a414a" d="M537 14c-226 0-379-139-379-422v-710h180v695c0 172 97 275 253 275 160 0 281-109 281-300v-670h181V0H879v-209C806-46 684 14 537 14" id="ax"/><path fill="#3a414a" d="M628 24c-324 0-524-230-524-574 0-343 198-582 503-582 237 0 487 146 487 559v75H286c9 234 145 362 343 362 132 0 231-58 273-172l174 48C1024-91 857 24 628 24zM287-650h624c-17-190-120-322-304-322-192 0-309 151-320 322zm172-632H282v-9l235-267h171l236 267v9H745l-142-175" id="ay"/><path fill="#3a414a" d="M598-1118v154H368v674c0 100 37 144 132 144 23 0 62-6 92-12L629-6c-37 13-88 20-134 20-193 0-307-107-307-290v-688H20v-154h168v-266h180v266h230" id="az"/><g id="k"><use transform="matrix(0.010850694444444444,0,0,0.010850694444444444,0,0)" xlink:href="#au"/><use transform="matrix(0.010850694444444444,0,0,0.010850694444444444,13.975694444444445,0)" xlink:href="#av"/><use transform="matrix(0.010850694444444444,0,0,0.010850694444444444,26.931423611111104,0)" xlink:href="#aw"/><use transform="matrix(0.010850694444444444,0,0,0.010850694444444444,40.53819444444444,0)" xlink:href="#ax"/><use transform="matrix(0.010850694444444444,0,0,0.010850694444444444,53.678385416666664,0)" xlink:href="#ay"/><use transform="matrix(0.010850694444444444,0,0,0.010850694444444444,66.63411458333333,0)" xlink:href="#az"/><use transform="matrix(0.010850694444444444,0,0,0.010850694444444444,73.68706597222221,0)" xlink:href="#av"/></g><path fill="#3a414a" d="M577 24c-279 0-473-224-473-580 0-354 195-576 474-576 218 0 287 134 324 193h14v-551h180V0H922v-173h-20C865-111 790 24 577 24zm27-161c203 0 314-172 314-421 0-247-108-413-314-413-212 0-317 181-317 413 0 235 108 421 317 421" id="aA"/><g id="l"><use transform="matrix(0.010850694444444444,0,0,0.010850694444444444,0,0)" xlink:href="#aA"/><use transform="matrix(0.010850694444444444,0,0,0.010850694444444444,13.606770833333332,0)" xlink:href="#av"/></g><path fill="#3a414a" d="M157-1118h181V80c1 225-123 350-364 338V252c126 9 184-48 183-172v-1198zm91-183c-68 0-125-53-125-119s57-119 125-119c69 0 126 53 126 119s-57 119-126 119" id="aB"/><path fill="#3a414a" d="M65 0l393-574-370-544h210c88 136 192 297 267 435 67-142 176-302 264-435h206L661-564 1053 0H844c-94-144-206-310-287-458C484-308 366-142 273 0H65" id="aC"/><g id="m"><use transform="matrix(0.010850694444444444,0,0,0.010850694444444444,0,0)" xlink:href="#aB"/><use transform="matrix(0.010850694444444444,0,0,0.010850694444444444,5.381944444444445,0)" xlink:href="#av"/><use transform="matrix(0.010850694444444444,0,0,0.010850694444444444,18.33767361111111,0)" xlink:href="#ax"/><use transform="matrix(0.010850694444444444,0,0,0.010850694444444444,31.477864583333332,0)" xlink:href="#aC"/></g><path fill="#3a414a" d="M678-1118v154H420V0H240v-964H20v-154h220v-149c0-194 155-293 318-293 85 0 141 18 168 30l-50 154c-19-6-47-17-97-17-111 0-159 58-159 166v109h258" id="aD"/><path fill="#3a414a" d="M158 0v-1118h180V0H158zm91-1301c-68 0-125-53-125-119s57-119 125-119c69 0 126 53 126 119s-57 119-126 119" id="aE"/><path fill="#3a414a" d="M338-1490V0H158v-1490h180" id="aF"/><path fill="#3a414a" d="M158 0v-1118h174v172h12c41-113 157-188 290-188 26 0 70 2 91 3v181c-11-2-60-10-108-10-161 0-279 109-279 260V0H158" id="aG"/><path fill="#3a414a" d="M628 24c-324 0-524-230-524-574 0-343 198-582 503-582 237 0 487 146 487 559v75H286c9 234 145 362 343 362 132 0 231-58 273-172l174 48C1024-91 857 24 628 24zM287-650h624c-17-190-120-322-304-322-192 0-309 151-320 322zm237-614l140-294h201l-194 294H524" id="aH"/><path fill="#3a414a" d="M538 24C308 24 148-78 108-271l171-41c32 123 123 178 257 178 156 0 256-77 256-169 0-77-54-128-164-154l-186-44c-203-48-300-148-300-305 0-192 176-326 414-326 230 0 351 112 402 269l-163 42c-31-80-94-158-238-158-133 0-233 69-233 162 0 83 57 129 188 160l169 40c203 48 298 149 298 302 0 196-179 339-441 339" id="aI"/><g id="n"><use transform="matrix(0.010850694444444444,0,0,0.010850694444444444,0,0)" xlink:href="#aD"/><use transform="matrix(0.010850694444444444,0,0,0.010850694444444444,8.22482638888889,0)" xlink:href="#aE"/><use transform="matrix(0.010850694444444444,0,0,0.010850694444444444,13.606770833333332,0)" xlink:href="#aF"/><use transform="matrix(0.010850694444444444,0,0,0.010850694444444444,19.314236111111114,0)" xlink:href="#az"/><use transform="matrix(0.010850694444444444,0,0,0.010850694444444444,26.584201388888893,0)" xlink:href="#aG"/><use transform="matrix(0.010850694444444444,0,0,0.010850694444444444,34.58116319444445,0)" xlink:href="#aH"/><use transform="matrix(0.010850694444444444,0,0,0.010850694444444444,47.53689236111111,0)" xlink:href="#aI"/></g><path fill="#3a414a" d="M338-670V0H158v-1118h173l1 207c72-158 192-221 342-221 226 0 378 139 378 422V0H872v-695c0-172-96-275-252-275-161 0-282 109-282 300" id="aJ"/><path fill="#3a414a" d="M481 0L54-1118h197c107 314 236 620 325 951 87-331 217-637 324-951h197L670 0H481" id="aK"/><path fill="#3a414a" d="M613 24c-304 0-509-231-509-576 0-350 205-580 509-580 305 0 511 230 511 580 0 345-206 576-511 576zm0-161c226 0 329-195 329-415 0-222-103-419-329-419-223 0-326 196-326 419 0 220 103 415 326 415" id="aL"/><g id="o"><use transform="matrix(0.010850694444444444,0,0,0.010850694444444444,0,0)" xlink:href="#au"/><use transform="matrix(0.010850694444444444,0,0,0.010850694444444444,13.975694444444445,0)" xlink:href="#av"/><use transform="matrix(0.010850694444444444,0,0,0.010850694444444444,26.931423611111104,0)" xlink:href="#aJ"/><use transform="matrix(0.010850694444444444,0,0,0.010850694444444444,39.73524305555555,0)" xlink:href="#aK"/><use transform="matrix(0.010850694444444444,0,0,0.010850694444444444,51.79036458333333,0)" xlink:href="#aL"/><use transform="matrix(0.010850694444444444,0,0,0.010850694444444444,65.1150173611111,0)" xlink:href="#aE"/><use transform="matrix(0.010850694444444444,0,0,0.010850694444444444,70.49696180555554,0)" xlink:href="#av"/></g><path fill="#3a414a" d="M471 26C259 26 90-98 90-318c0-256 228-303 435-329 202-27 287-16 287-108 0-139-79-219-234-219-161 0-248 86-283 164l-173-57c86-203 278-265 451-265 150 0 419 46 419 395V0H815v-152h-12C765-73 660 26 471 26zm31-159c199 0 310-134 310-271v-155c-30 35-226 55-295 64-131 17-246 59-246 186 0 116 97 176 231 176" id="aM"/><g id="p"><use transform="matrix(0.010850694444444444,0,0,0.010850694444444444,0,0)" xlink:href="#aF"/><use transform="matrix(0.010850694444444444,0,0,0.010850694444444444,5.381944444444445,0)" xlink:href="#aM"/></g><g id="q"><use transform="matrix(0.010850694444444444,0,0,0.010850694444444444,0,0)" xlink:href="#aF"/><use transform="matrix(0.010850694444444444,0,0,0.010850694444444444,5.381944444444445,0)" xlink:href="#aE"/><use transform="matrix(0.010850694444444444,0,0,0.010850694444444444,10.76388888888889,0)" xlink:href="#aI"/><use transform="matrix(0.010850694444444444,0,0,0.010850694444444444,22.493489583333336,0)" xlink:href="#az"/><use transform="matrix(0.010850694444444444,0,0,0.010850694444444444,29.546440972222225,0)" xlink:href="#av"/></g><g id="r"><use transform="matrix(0.010850694444444444,0,0,0.010850694444444444,0,0)" xlink:href="#aA"/><use transform="matrix(0.010850694444444444,0,0,0.010850694444444444,13.606770833333332,0)" xlink:href="#av"/></g><g id="s"><use transform="matrix(0.010850694444444444,0,0,0.010850694444444444,0,0)" xlink:href="#aB"/><use transform="matrix(0.010850694444444444,0,0,0.010850694444444444,5.381944444444445,0)" xlink:href="#av"/><use transform="matrix(0.010850694444444444,0,0,0.010850694444444444,18.33767361111111,0)" xlink:href="#ax"/><use transform="matrix(0.010850694444444444,0,0,0.010850694444444444,31.477864583333332,0)" xlink:href="#aC"/></g><g id="t"><use transform="matrix(0.010850694444444444,0,0,0.010850694444444444,0,0)" xlink:href="#au"/><use transform="matrix(0.010850694444444444,0,0,0.010850694444444444,13.975694444444445,0)" xlink:href="#av"/><use transform="matrix(0.010850694444444444,0,0,0.010850694444444444,26.931423611111104,0)" xlink:href="#az"/><use transform="matrix(0.010850694444444444,0,0,0.010850694444444444,33.98437499999999,0)" xlink:href="#aL"/><use transform="matrix(0.010850694444444444,0,0,0.010850694444444444,47.30902777777778,0)" xlink:href="#ax"/><use transform="matrix(0.010850694444444444,0,0,0.010850694444444444,60.449218749999986,0)" xlink:href="#aG"/><use transform="matrix(0.010850694444444444,0,0,0.010850694444444444,69.16232638888889,0)" xlink:href="#aJ"/><use transform="matrix(0.010850694444444444,0,0,0.010850694444444444,82.29166666666666,0)" xlink:href="#av"/></g><g id="u"><use transform="matrix(0.010850694444444444,0,0,0.010850694444444444,0,0)" xlink:href="#aF"/><use transform="matrix(0.010850694444444444,0,0,0.010850694444444444,5.381944444444445,0)" xlink:href="#av"/><use transform="matrix(0.010850694444444444,0,0,0.010850694444444444,18.33767361111111,0)" xlink:href="#aI"/></g><g id="v"><use transform="matrix(0.010850694444444444,0,0,0.010850694444444444,0,0)" xlink:href="#aG"/><use transform="matrix(0.010850694444444444,0,0,0.010850694444444444,7.996961805555555,0)" xlink:href="#aH"/><use transform="matrix(0.010850694444444444,0,0,0.010850694444444444,20.95269097222222,0)" xlink:href="#aI"/><use transform="matrix(0.010850694444444444,0,0,0.010850694444444444,32.682291666666664,0)" xlink:href="#ax"/><use transform="matrix(0.010850694444444444,0,0,0.010850694444444444,45.822482638888886,0)" xlink:href="#aF"/><use transform="matrix(0.010850694444444444,0,0,0.010850694444444444,51.529947916666664,0)" xlink:href="#az"/><use transform="matrix(0.010850694444444444,0,0,0.010850694444444444,58.908420138888886,0)" xlink:href="#aM"/><use transform="matrix(0.010850694444444444,0,0,0.010850694444444444,71.38671875,0)" xlink:href="#az"/><use transform="matrix(0.010850694444444444,0,0,0.010850694444444444,78.43967013888889,0)" xlink:href="#aI"/></g><path fill="#3a414a" d="M52 0l541-1490h220L1361 0h-200l-149-416H398L254 0H52zm404-582h497c-103-290-145-390-251-756-108 377-145 460-246 756" id="aN"/><path fill="#3a414a" d="M613 24c-304 0-509-231-509-576 0-350 205-580 509-580 216 0 392 114 453 309l-173 49c-33-115-133-197-280-197-223 0-326 196-326 419 0 220 103 415 326 415 150 0 252-85 285-206l172 49C1010-95 832 24 613 24" id="aO"/><path fill="#3a414a" d="M338-670V0H158v-1490h180v566c73-149 190-208 336-208 226 0 379 139 379 422V0H872v-695c0-172-96-275-252-275-161 0-282 109-282 300" id="aP"/><g id="w"><use transform="matrix(0.010850694444444444,0,0,0.010850694444444444,0,0)" xlink:href="#aN"/><use transform="matrix(0.010850694444444444,0,0,0.010850694444444444,15.33203125,0)" xlink:href="#aD"/><use transform="matrix(0.010850694444444444,0,0,0.010850694444444444,22.688802083333336,0)" xlink:href="#aD"/><use transform="matrix(0.010850694444444444,0,0,0.010850694444444444,30.913628472222225,0)" xlink:href="#aE"/><use transform="matrix(0.010850694444444444,0,0,0.010850694444444444,36.29557291666667,0)" xlink:href="#aO"/><use transform="matrix(0.010850694444444444,0,0,0.010850694444444444,48.99088541666667,0)" xlink:href="#aP"/><use transform="matrix(0.010850694444444444,0,0,0.010850694444444444,62.1310763888889,0)" xlink:href="#av"/></g><g id="x"><use transform="matrix(0.010850694444444444,0,0,0.010850694444444444,0,0)" xlink:href="#aF"/><use transform="matrix(0.010850694444444444,0,0,0.010850694444444444,5.381944444444445,0)" xlink:href="#av"/></g><path fill="#3a414a" d="M611 442c-248 0-391-105-460-228l146-94c47 65 117 165 314 165 178 0 307-82 307-266v-224h-17C863-141 792-18 576-18c-268 0-472-195-472-546 0-346 197-568 476-568 216 0 288 133 326 193h17v-179h175V29c0 289-215 413-487 413zm-5-620c203 0 314-146 314-390 0-237-108-403-314-403-213 0-319 180-319 403 0 230 109 390 319 390" id="aQ"/><g id="y"><use transform="matrix(0.010850694444444444,0,0,0.010850694444444444,0,0)" xlink:href="#aO"/><use transform="matrix(0.010850694444444444,0,0,0.010850694444444444,12.91232638888889,0)" xlink:href="#aM"/><use transform="matrix(0.010850694444444444,0,0,0.010850694444444444,25.390625,0)" xlink:href="#az"/><use transform="matrix(0.010850694444444444,0,0,0.010850694444444444,32.76909722222222,0)" xlink:href="#aM"/><use transform="matrix(0.010850694444444444,0,0,0.010850694444444444,45.24739583333333,0)" xlink:href="#aF"/><use transform="matrix(0.010850694444444444,0,0,0.010850694444444444,50.62934027777778,0)" xlink:href="#aL"/><use transform="matrix(0.010850694444444444,0,0,0.010850694444444444,63.95399305555555,0)" xlink:href="#aQ"/><use transform="matrix(0.010850694444444444,0,0,0.010850694444444444,77.58246527777777,0)" xlink:href="#ax"/><use transform="matrix(0.010850694444444444,0,0,0.010850694444444444,90.72265625,0)" xlink:href="#av"/></g><g id="z"><use transform="matrix(0.010850694444444444,0,0,0.010850694444444444,0,0)" xlink:href="#aD"/><use transform="matrix(0.010850694444444444,0,0,0.010850694444444444,8.22482638888889,0)" xlink:href="#aE"/><use transform="matrix(0.010850694444444444,0,0,0.010850694444444444,13.606770833333332,0)" xlink:href="#aF"/><use transform="matrix(0.010850694444444444,0,0,0.010850694444444444,19.314236111111114,0)" xlink:href="#az"/><use transform="matrix(0.010850694444444444,0,0,0.010850694444444444,26.584201388888893,0)" xlink:href="#aG"/><use transform="matrix(0.010850694444444444,0,0,0.010850694444444444,34.58116319444445,0)" xlink:href="#aH"/></g><path fill="#3a414a" d="M158 418v-1536h174v179h20c37-59 106-193 324-193 279 0 474 222 474 576 0 356-194 580-473 580-213 0-288-135-325-197h-14v591H158zm492-555c209 0 317-186 317-421 0-232-105-413-317-413-206 0-314 166-314 413 0 249 111 421 314 421" id="aR"/><g id="A"><use transform="matrix(0.0087890625,0,0,0.0087890625,0,0)" xlink:href="#aN"/><use transform="matrix(0.0087890625,0,0,0.0087890625,12.4189453125,0)" xlink:href="#aR"/><use transform="matrix(0.0087890625,0,0,0.0087890625,23.4404296875,0)" xlink:href="#aR"/><use transform="matrix(0.0087890625,0,0,0.0087890625,34.4619140625,0)" xlink:href="#aF"/><use transform="matrix(0.0087890625,0,0,0.0087890625,38.8212890625,0)" xlink:href="#aE"/><use transform="matrix(0.0087890625,0,0,0.0087890625,43.1806640625,0)" xlink:href="#aO"/><use transform="matrix(0.0087890625,0,0,0.0087890625,53.6396484375,0)" xlink:href="#aM"/><use transform="matrix(0.0087890625,0,0,0.0087890625,63.7470703125,0)" xlink:href="#az"/><use transform="matrix(0.0087890625,0,0,0.0087890625,69.6357421875,0)" xlink:href="#aE"/><use transform="matrix(0.0087890625,0,0,0.0087890625,73.9951171875,0)" xlink:href="#aL"/><use transform="matrix(0.0087890625,0,0,0.0087890625,84.7880859375,0)" xlink:href="#aJ"/></g><g id="B"><use transform="matrix(0.0087890625,0,0,0.0087890625,0,0)" xlink:href="#aA"/><use transform="matrix(0.0087890625,0,0,0.0087890625,11.021484375,0)" xlink:href="#av"/><use transform="matrix(0.0087890625,0,0,0.0087890625,21.515625,0)" xlink:href="#aI"/></g><g id="C"><use transform="matrix(0.0087890625,0,0,0.0087890625,0,0)" xlink:href="#aD"/><use transform="matrix(0.0087890625,0,0,0.0087890625,6.662109375,0)" xlink:href="#aE"/><use transform="matrix(0.0087890625,0,0,0.0087890625,11.021484375,0)" xlink:href="#aF"/><use transform="matrix(0.0087890625,0,0,0.0087890625,15.64453125,0)" xlink:href="#az"/><use transform="matrix(0.0087890625,0,0,0.0087890625,21.533203125,0)" xlink:href="#aG"/><use transform="matrix(0.0087890625,0,0,0.0087890625,28.0107421875,0)" xlink:href="#av"/><use transform="matrix(0.0087890625,0,0,0.0087890625,38.5048828125,0)" xlink:href="#aI"/></g><path fill="#3a414a" d="M218-607c0-325 108-727 258-974h175c-155 315-250 682-250 974 0 265 78 531 250 886H476C306-10 218-315 218-607" id="aS"/><path fill="#3a414a" d="M128 359l88-567h206L266 359H128" id="aT"/><g id="D"><use transform="matrix(0.0087890625,0,0,0.0087890625,0,0)" xlink:href="#aS"/><use transform="matrix(0.0087890625,0,0,0.0087890625,6.5654296875,0)" xlink:href="#aE"/><use transform="matrix(0.0087890625,0,0,0.0087890625,10.9248046875,0)" xlink:href="#aO"/><use transform="matrix(0.0087890625,0,0,0.0087890625,21.2080078125,0)" xlink:href="#aE"/><use transform="matrix(0.0087890625,0,0,0.0087890625,25.5673828125,0)" xlink:href="#aT"/></g><path fill="#3a414a" d="M783 20c-382 0-661-292-661-764 0-473 279-766 661-766 302 0 548 182 601 489h-190c-42-204-217-313-411-313-268 0-476 208-476 590 0 381 209 588 476 588 195 0 369-110 411-313h190c-52 303-296 489-601 489" id="aU"/><path fill="#3a414a" d="M96 279C273-86 346-350 346-607c0-292-95-659-250-974h175c150 246 258 650 258 974 0 297-91 602-258 886H96" id="aV"/><g id="E"><use transform="matrix(0.0087890625,0,0,0.0087890625,0,0)" xlink:href="#aU"/><use transform="matrix(0.0087890625,0,0,0.0087890625,13.1484375,0)" xlink:href="#aM"/><use transform="matrix(0.0087890625,0,0,0.0087890625,23.255859375,0)" xlink:href="#az"/><use transform="matrix(0.0087890625,0,0,0.0087890625,28.96875,0)" xlink:href="#aH"/><use transform="matrix(0.0087890625,0,0,0.0087890625,39.462890625,0)" xlink:href="#aQ"/><use transform="matrix(0.0087890625,0,0,0.0087890625,50.501953125,0)" xlink:href="#aL"/><use transform="matrix(0.0087890625,0,0,0.0087890625,61.294921875,0)" xlink:href="#aG"/><use transform="matrix(0.0087890625,0,0,0.0087890625,68.3525390625,0)" xlink:href="#aE"/><use transform="matrix(0.0087890625,0,0,0.0087890625,72.7119140625,0)" xlink:href="#av"/><use transform="matrix(0.0087890625,0,0,0.0087890625,83.00390625,0)" xlink:href="#aV"/></g><path fill="#3a414a" d="M789 20c-398 0-667-293-667-764 0-473 273-766 655-766 315 0 558 198 612 487h-196c-61-191-204-311-415-311-262 0-471 207-471 590 0 380 208 588 482 588 249 0 420-165 425-427H828v-166h572v163c0 370-256 606-611 606" id="aW"/><path fill="#3a414a" d="M180 0v-1490h908v168H370v486h669v168H370v500h727V0H180" id="aX"/><path fill="#3a414a" d="M98-1322v-168h1126v168H757V0H567v-1322H98" id="aY"/><g id="F"><use transform="matrix(0.0087890625,0,0,0.0087890625,0,0)" xlink:href="#aW"/><use transform="matrix(0.0087890625,0,0,0.0087890625,13.4296875,0)" xlink:href="#aX"/><use transform="matrix(0.0087890625,0,0,0.0087890625,24.2490234375,0)" xlink:href="#aY"/></g><path fill="#3a414a" d="M692-1560L212 224H46l480-1784h166" id="aZ"/><path fill="#3a414a" d="M158 0v-1118h175l1 205c55-151 181-225 313-225 147 0 245 90 285 228 53-141 190-228 352-228 194 0 352 125 352 384V0h-181v-749c0-161-105-225-225-225-151 0-243 103-243 244V0H807v-767c0-124-93-207-219-207-131 0-250 92-250 270V0H158" id="ba"/><path fill="#3a414a" d="M383-449c-3-277 82-343 222-425 88-53 156-134 156-250 0-139-108-227-243-227-118 0-235 70-246 236H82c10-251 200-395 436-395 259 0 427 165 427 393 0 161-74 273-203 352-132 80-180 132-178 316H383zm93 462c-75 0-135-60-135-134 0-75 60-135 135-135 74 0 134 60 134 135 0 74-60 134-134 134" id="bb"/><path fill="#3a414a" d="M140 405l46-156c120 36 205 19 263-150l32-93L54-1118h197c107 313 237 620 324 950 87-331 219-637 326-950h196L606 167c-68 178-176 259-334 259-64 0-113-12-132-21" id="bc"/><path fill="#3a414a" d="M226-283v-166h904v166H226zm0-434v-166h904v166H226" id="bd"/><path fill="#3a414a" d="M295 13c-75 0-135-60-135-135s60-135 135-135 135 60 135 135S370 13 295 13" id="be"/><g id="G"><use transform="matrix(0.0087890625,0,0,0.0087890625,0,0)" xlink:href="#aZ"/><use transform="matrix(0.0087890625,0,0,0.0087890625,6.486328125,0)" xlink:href="#aQ"/><use transform="matrix(0.0087890625,0,0,0.0087890625,17.525390625,0)" xlink:href="#aM"/><use transform="matrix(0.0087890625,0,0,0.0087890625,27.6328125,0)" xlink:href="#ba"/><use transform="matrix(0.0087890625,0,0,0.0087890625,43.400390625,0)" xlink:href="#av"/><use transform="matrix(0.0087890625,0,0,0.0087890625,53.89453125,0)" xlink:href="#aI"/><use transform="matrix(0.0087890625,0,0,0.0087890625,63.3955078125,0)" xlink:href="#bb"/><use transform="matrix(0.0087890625,0,0,0.0087890625,72.59765625,0)" xlink:href="#aO"/><use transform="matrix(0.0087890625,0,0,0.0087890625,83.056640625,0)" xlink:href="#aM"/><use transform="matrix(0.0087890625,0,0,0.0087890625,93.1640625,0)" xlink:href="#az"/><use transform="matrix(0.0087890625,0,0,0.0087890625,98.876953125,0)" xlink:href="#av"/><use transform="matrix(0.0087890625,0,0,0.0087890625,109.37109375,0)" xlink:href="#aQ"/><use transform="matrix(0.0087890625,0,0,0.0087890625,120.41015625,0)" xlink:href="#aL"/><use transform="matrix(0.0087890625,0,0,0.0087890625,131.203125,0)" xlink:href="#aG"/><use transform="matrix(0.0087890625,0,0,0.0087890625,138.2607421875,0)" xlink:href="#bc"/><use transform="matrix(0.0087890625,0,0,0.0087890625,147.6650390625,0)" xlink:href="#bd"/><use transform="matrix(0.0087890625,0,0,0.0087890625,159.57421875,0)" xlink:href="#be"/><use transform="matrix(0.0087890625,0,0,0.0087890625,164.759765625,0)" xlink:href="#be"/><use transform="matrix(0.0087890625,0,0,0.0087890625,169.9453125,0)" xlink:href="#be"/></g></defs></g></svg>