<?plantuml 1.2026.2?><svg xmlns="http://www.w3.org/2000/svg" xmlns:xlink="http://www.w3.org/1999/xlink" contentStyleType="text/css" data-diagram-type="DESCRIPTION" height="1197px" preserveAspectRatio="none" style="width:1173px;height:1197px;background:#FFFFFF;" version="1.1" viewBox="0 0 1173 1197" width="1173px" zoomAndPan="magnify"><title>Architecture D&#233;taill&#233;e - Plateforme VAPEUR</title><defs/><g><g class="title" data-source-line="4"><text fill="#000000" font-family="sans-serif" font-size="14" font-weight="bold" lengthAdjust="spacing" textLength="345.3311" x="406.8345" y="22.9951">Architecture D&#233;taill&#233;e - Plateforme VAPEUR</text></g><!--cluster Frontend [Django / Template Engine]--><g class="cluster" data-qualified-name="Frontend .Django . Template Engine." data-source-line="8" id="ent0003"><rect fill="#E0FFFF" height="97.3" rx="2.5" ry="2.5" style="stroke:#181818;stroke-width:1;" width="429" x="292" y="182.0869"/><text fill="#000000" font-family="sans-serif" font-size="14" font-weight="bold" lengthAdjust="spacing" textLength="293.0088" x="359.9956" y="197.082">Frontend [Django / Template Engine]</text></g><!--cluster Point d'entr?e s?curis?--><g class="cluster" data-qualified-name="Point d.entr.e s.curis." data-source-line="13" id="ent0008"><polygon fill="#FFFFE0" points="326,338.3869,336,328.3869,741,328.3869,741,436.9769,731,446.9769,326,446.9769,326,338.3869" style="stroke:#181818;stroke-width:1;"/><line style="stroke:#181818;stroke-width:1;" x1="731" x2="741" y1="338.3869" y2="328.3869"/><line style="stroke:#181818;stroke-width:1;" x1="326" x2="731" y1="338.3869" y2="338.3869"/><line style="stroke:#181818;stroke-width:1;" x1="731" x2="731" y1="338.3869" y2="446.9769"/><text fill="#000000" font-family="sans-serif" font-size="14" font-weight="bold" lengthAdjust="spacing" textLength="183.0664" x="437.9668" y="354.382">Point d'entr&#233;e s&#233;curis&#233;</text></g><!--cluster Backend [Python / FastAPI]--><g class="cluster" data-qualified-name="Backend .Python . FastAPI." data-source-line="18" id="ent0013"><rect fill="#90EE90" height="421.6" rx="2.5" ry="2.5" style="stroke:#181818;stroke-width:1;" width="1160" x="7" y="495.9769"/><text fill="#000000" font-family="sans-serif" font-size="14" font-weight="bold" lengthAdjust="spacing" textLength="215.7148" x="479.1426" y="510.972">Backend [Python / FastAPI]</text></g><!--cluster Module Biblioth?que (Library)--><g class="cluster" data-qualified-name="Backend .Python . FastAPI..Module Biblioth.que .Library." data-source-line="20" id="ent0014"><path d="M33.5,538.9769 L271.3447,538.9769 A3.75,3.75 0 0 1 273.8447,541.4769 L280.8447,561.2738 L280.5,561.2738 A2.5,2.5 0 0 1 283,563.7738 L283,891.0769 A2.5,2.5 0 0 1 280.5,893.5769 L33.5,893.5769 A2.5,2.5 0 0 1 31,891.0769 L31,541.4769 A2.5,2.5 0 0 1 33.5,538.9769" fill="none" style="stroke:#000000;stroke-width:1.5;"/><line style="stroke:#000000;stroke-width:1.5;" x1="31" x2="280.8447" y1="561.2738" y2="561.2738"/><text fill="#000000" font-family="sans-serif" font-size="14" font-weight="bold" lengthAdjust="spacing" textLength="236.8447" x="35" y="553.972">Module Biblioth&#232;que (Library)</text></g><!--cluster Module Communaut? (Commentaires)--><g class="cluster" data-qualified-name="Backend .Python . FastAPI..Module Communaut. .Commentaires." data-source-line="26" id="ent0018"><path d="M309.5,538.9769 L609.6816,538.9769 A3.75,3.75 0 0 1 612.1816,541.4769 L619.1816,561.2738 L659.5,561.2738 A2.5,2.5 0 0 1 662,563.7738 L662,891.0769 A2.5,2.5 0 0 1 659.5,893.5769 L309.5,893.5769 A2.5,2.5 0 0 1 307,891.0769 L307,541.4769 A2.5,2.5 0 0 1 309.5,538.9769" fill="none" style="stroke:#000000;stroke-width:1.5;"/><line style="stroke:#000000;stroke-width:1.5;" x1="307" x2="619.1816" y1="561.2738" y2="561.2738"/><text fill="#000000" font-family="sans-serif" font-size="14" font-weight="bold" lengthAdjust="spacing" textLength="299.1816" x="311" y="553.972">Module Communaut&#233; (Commentaires)</text></g><!--cluster Module Magasin & Authentification--><g class="cluster" data-qualified-name="Backend .Python . FastAPI..Module Magasin . Authentification" data-source-line="32" id="ent0022"><path d="M688.5,538.9769 L968.2354,538.9769 A3.75,3.75 0 0 1 970.7354,541.4769 L977.7354,561.2738 L1140.5,561.2738 A2.5,2.5 0 0 1 1143,563.7738 L1143,891.0769 A2.5,2.5 0 0 1 1140.5,893.5769 L688.5,893.5769 A2.5,2.5 0 0 1 686,891.0769 L686,541.4769 A2.5,2.5 0 0 1 688.5,538.9769" fill="none" style="stroke:#000000;stroke-width:1.5;"/><line style="stroke:#000000;stroke-width:1.5;" x1="686" x2="977.7354" y1="561.2738" y2="561.2738"/><text fill="#000000" font-family="sans-serif" font-size="14" font-weight="bold" lengthAdjust="spacing" textLength="278.7354" x="690" y="553.972">Module Magasin &amp; Authentification</text></g><!--cluster Couche de Persistance des Donn?es--><g class="cluster" data-qualified-name="Couche de Persistance des Donn.es" data-source-line="40" id="ent0027"><path d="M269,976.5769 C269,966.5769 673.5,966.5769 673.5,966.5769 C673.5,966.5769 1078,966.5769 1078,976.5769 L1078,1170.1369 C1078,1180.1369 673.5,1180.1369 673.5,1180.1369 C673.5,1180.1369 269,1180.1369 269,1170.1369 L269,976.5769" fill="#FFE4E1" style="stroke:#181818;stroke-width:1;"/><path d="M269,976.5769 C269,986.5769 673.5,986.5769 673.5,986.5769 C673.5,986.5769 1078,986.5769 1078,976.5769" fill="none" style="stroke:#181818;stroke-width:1;"/><text fill="#000000" font-family="sans-serif" font-size="14" font-weight="bold" lengthAdjust="spacing" textLength="285.0039" x="530.998" y="1001.572">Couche de Persistance des Donn&#233;es</text></g><!--entity UI--><g class="entity" data-qualified-name="Frontend .Django . Template Engine..UI" data-source-line="9" id="ent0004"><rect fill="#F1F1F1" height="46.2969" rx="2.5" ry="2.5" style="stroke:#181818;stroke-width:0.5;" width="208.8887" x="307.56" y="217.0869"/><rect fill="#F1F1F1" height="10" style="stroke:#181818;stroke-width:0.5;" width="15" x="496.4487" y="222.0869"/><rect fill="#F1F1F1" height="2" style="stroke:#181818;stroke-width:0.5;" width="4" x="494.4487" y="224.0869"/><rect fill="#F1F1F1" height="2" style="stroke:#181818;stroke-width:0.5;" width="4" x="494.4487" y="228.0869"/><text fill="#000000" font-family="sans-serif" font-size="14" lengthAdjust="spacing" textLength="168.8887" x="322.56" y="250.082">Interface Utilisateur (UI)</text></g><g class="entity" data-qualified-name="Frontend .Django . Template Engine..GMN5" data-source-line="10" id="ent0006"><path d="M551.3,220.1069 L551.3,236.2369 L516.62,240.2369 L551.3,244.2369 L551.3,260.3725 A0,0 0 0 0 551.3,260.3725 L704.7058,260.3725 A0,0 0 0 0 704.7058,260.3725 L704.7058,230.1069 L694.7058,220.1069 L551.3,220.1069 A0,0 0 0 0 551.3,220.1069" fill="#FEFFDD" style="stroke:#181818;stroke-width:0.5;"/><path d="M694.7058,220.1069 L694.7058,230.1069 L704.7058,230.1069 L694.7058,220.1069" fill="#FEFFDD" style="stroke:#181818;stroke-width:0.5;"/><text fill="#000000" font-family="sans-serif" font-size="13" lengthAdjust="spacing" textLength="132.4058" x="557.3" y="237.1738">Navigation Magasin,</text><text fill="#000000" font-family="sans-serif" font-size="13" lengthAdjust="spacing" textLength="122.9858" x="557.3" y="252.3066">Biblioth&#232;que, Profil</text></g><!--entity Gateway--><g class="entity" data-qualified-name="Point d.entr.e s.curis..Gateway" data-source-line="14" id="ent0009"><rect fill="#F1F1F1" height="62.5938" rx="2.5" ry="2.5" style="stroke:#181818;stroke-width:0.5;" width="139.873" x="342.06" y="368.3869"/><rect fill="#F1F1F1" height="10" style="stroke:#181818;stroke-width:0.5;" width="15" x="461.933" y="373.3869"/><rect fill="#F1F1F1" height="2" style="stroke:#181818;stroke-width:0.5;" width="4" x="459.933" y="375.3869"/><rect fill="#F1F1F1" height="2" style="stroke:#181818;stroke-width:0.5;" width="4" x="459.933" y="379.3869"/><text fill="#000000" font-family="sans-serif" font-size="14" lengthAdjust="spacing" textLength="88.4434" x="357.06" y="401.382">API Gateway</text><text fill="#000000" font-family="sans-serif" font-size="14" lengthAdjust="spacing" textLength="99.873" x="357.06" y="417.6789">Load Balancer</text></g><g class="entity" data-qualified-name="Point d.entr.e s.curis..GMN10" data-source-line="15" id="ent0011"><path d="M516.64,379.5469 L516.64,395.6869 L482.21,399.6869 L516.64,403.6869 L516.64,419.8125 A0,0 0 0 0 516.64,419.8125 L725.3529,419.8125 A0,0 0 0 0 725.3529,419.8125 L725.3529,389.5469 L715.3529,379.5469 L516.64,379.5469 A0,0 0 0 0 516.64,379.5469" fill="#FEFFDD" style="stroke:#181818;stroke-width:0.5;"/><path d="M715.3529,379.5469 L715.3529,389.5469 L725.3529,389.5469 L715.3529,379.5469" fill="#FEFFDD" style="stroke:#181818;stroke-width:0.5;"/><text fill="#000000" font-family="sans-serif" font-size="13" lengthAdjust="spacing" textLength="143.5269" x="522.64" y="396.6138">Routage des requ&#234;tes</text><text fill="#000000" font-family="sans-serif" font-size="13" lengthAdjust="spacing" textLength="187.7129" x="522.64" y="411.7466">et validation des Tokens JWT</text></g><!--entity LibCtrl--><g class="entity" data-qualified-name="Backend .Python . FastAPI..Module Biblioth.que .Library..LibCtrl" data-source-line="21" id="ent0015"><rect fill="#F1F1F1" height="46.2969" rx="2.5" ry="2.5" style="stroke:#181818;stroke-width:0.5;" width="158.125" x="108.94" y="573.9769"/><rect fill="#F1F1F1" height="10" style="stroke:#181818;stroke-width:0.5;" width="15" x="247.065" y="578.9769"/><rect fill="#F1F1F1" height="2" style="stroke:#181818;stroke-width:0.5;" width="4" x="245.065" y="580.9769"/><rect fill="#F1F1F1" height="2" style="stroke:#181818;stroke-width:0.5;" width="4" x="245.065" y="584.9769"/><text fill="#000000" font-family="sans-serif" font-size="14" lengthAdjust="spacing" textLength="118.125" x="123.94" y="606.972">LibraryController</text></g><!--entity LibSvc--><g class="entity" data-qualified-name="Backend .Python . FastAPI..Module Biblioth.que .Library..LibSvc" data-source-line="22" id="ent0016"><rect fill="#F1F1F1" height="46.2969" rx="2.5" ry="2.5" style="stroke:#181818;stroke-width:0.5;" width="140.6934" x="108.65" y="702.6269"/><rect fill="#F1F1F1" height="10" style="stroke:#181818;stroke-width:0.5;" width="15" x="229.3434" y="707.6269"/><rect fill="#F1F1F1" height="2" style="stroke:#181818;stroke-width:0.5;" width="4" x="227.3434" y="709.6269"/><rect fill="#F1F1F1" height="2" style="stroke:#181818;stroke-width:0.5;" width="4" x="227.3434" y="713.6269"/><text fill="#000000" font-family="sans-serif" font-size="14" lengthAdjust="spacing" textLength="100.6934" x="123.65" y="735.622">LibraryService</text></g><!--entity LibReg--><g class="entity" data-qualified-name="Backend .Python . FastAPI..Module Biblioth.que .Library..LibReg" data-source-line="23" id="ent0017"><rect fill="#F1F1F1" height="46.2969" rx="2.5" ry="2.5" style="stroke:#181818;stroke-width:0.5;" width="146.8936" x="114.55" y="831.2769"/><rect fill="#F1F1F1" height="10" style="stroke:#181818;stroke-width:0.5;" width="15" x="241.4436" y="836.2769"/><rect fill="#F1F1F1" height="2" style="stroke:#181818;stroke-width:0.5;" width="4" x="239.4436" y="838.2769"/><rect fill="#F1F1F1" height="2" style="stroke:#181818;stroke-width:0.5;" width="4" x="239.4436" y="842.2769"/><text fill="#000000" font-family="sans-serif" font-size="14" lengthAdjust="spacing" textLength="106.8936" x="129.55" y="864.272">LibraryRegistry</text></g><!--entity ComCtrl--><g class="entity" data-qualified-name="Backend .Python . FastAPI..Module Communaut. .Commentaires..ComCtrl" data-source-line="27" id="ent0019"><rect fill="#F1F1F1" height="46.2969" rx="2.5" ry="2.5" style="stroke:#181818;stroke-width:0.5;" width="177.7646" x="323.12" y="573.9769"/><rect fill="#F1F1F1" height="10" style="stroke:#181818;stroke-width:0.5;" width="15" x="480.8846" y="578.9769"/><rect fill="#F1F1F1" height="2" style="stroke:#181818;stroke-width:0.5;" width="4" x="478.8846" y="580.9769"/><rect fill="#F1F1F1" height="2" style="stroke:#181818;stroke-width:0.5;" width="4" x="478.8846" y="584.9769"/><text fill="#000000" font-family="sans-serif" font-size="14" lengthAdjust="spacing" textLength="137.7646" x="338.12" y="606.972">CommentController</text></g><!--entity ComSvc--><g class="entity" data-qualified-name="Backend .Python . FastAPI..Module Communaut. .Commentaires..ComSvc" data-source-line="28" id="ent0020"><rect fill="#F1F1F1" height="46.2969" rx="2.5" ry="2.5" style="stroke:#181818;stroke-width:0.5;" width="160.333" x="322.83" y="702.6269"/><rect fill="#F1F1F1" height="10" style="stroke:#181818;stroke-width:0.5;" width="15" x="463.163" y="707.6269"/><rect fill="#F1F1F1" height="2" style="stroke:#181818;stroke-width:0.5;" width="4" x="461.163" y="709.6269"/><rect fill="#F1F1F1" height="2" style="stroke:#181818;stroke-width:0.5;" width="4" x="461.163" y="713.6269"/><text fill="#000000" font-family="sans-serif" font-size="14" lengthAdjust="spacing" textLength="120.333" x="337.83" y="735.622">CommentService</text></g><!--entity ComReg--><g class="entity" data-qualified-name="Backend .Python . FastAPI..Module Communaut. .Commentaires..ComReg" data-source-line="29" id="ent0021"><rect fill="#F1F1F1" height="46.2969" rx="2.5" ry="2.5" style="stroke:#181818;stroke-width:0.5;" width="166.5332" x="322.73" y="831.2769"/><rect fill="#F1F1F1" height="10" style="stroke:#181818;stroke-width:0.5;" width="15" x="469.2632" y="836.2769"/><rect fill="#F1F1F1" height="2" style="stroke:#181818;stroke-width:0.5;" width="4" x="467.2632" y="838.2769"/><rect fill="#F1F1F1" height="2" style="stroke:#181818;stroke-width:0.5;" width="4" x="467.2632" y="842.2769"/><text fill="#000000" font-family="sans-serif" font-size="14" lengthAdjust="spacing" textLength="126.5332" x="337.73" y="864.272">CommentRegistry</text></g><!--entity CatAPI--><g class="entity" data-qualified-name="Backend .Python . FastAPI..Module Magasin . Authentification.CatAPI" data-source-line="33" id="ent0023"><rect fill="#F1F1F1" height="46.2969" rx="2.5" ry="2.5" style="stroke:#181818;stroke-width:0.5;" width="227.3115" x="702.34" y="573.9769"/><rect fill="#F1F1F1" height="10" style="stroke:#181818;stroke-width:0.5;" width="15" x="909.6515" y="578.9769"/><rect fill="#F1F1F1" height="2" style="stroke:#181818;stroke-width:0.5;" width="4" x="907.6515" y="580.9769"/><rect fill="#F1F1F1" height="2" style="stroke:#181818;stroke-width:0.5;" width="4" x="907.6515" y="584.9769"/><text fill="#000000" font-family="sans-serif" font-size="14" lengthAdjust="spacing" textLength="187.3115" x="717.34" y="606.972">Catalog &amp; Auth Controllers</text></g><!--entity CatCtrl--><g class="entity" data-qualified-name="Backend .Python . FastAPI..Module Magasin . Authentification.CatCtrl" data-source-line="34" id="ent0024"><rect fill="#F1F1F1" height="46.2969" rx="2.5" ry="2.5" style="stroke:#181818;stroke-width:0.5;" width="162.9375" x="964.53" y="573.9769"/><rect fill="#F1F1F1" height="10" style="stroke:#181818;stroke-width:0.5;" width="15" x="1107.4675" y="578.9769"/><rect fill="#F1F1F1" height="2" style="stroke:#181818;stroke-width:0.5;" width="4" x="1105.4675" y="580.9769"/><rect fill="#F1F1F1" height="2" style="stroke:#181818;stroke-width:0.5;" width="4" x="1105.4675" y="584.9769"/><text fill="#000000" font-family="sans-serif" font-size="14" lengthAdjust="spacing" textLength="122.9375" x="979.53" y="606.972">CatalogController</text></g><!--entity CatSvc--><g class="entity" data-qualified-name="Backend .Python . FastAPI..Module Magasin . Authentification.CatSvc" data-source-line="35" id="ent0025"><rect fill="#F1F1F1" height="46.2969" rx="2.5" ry="2.5" style="stroke:#181818;stroke-width:0.5;" width="145.5059" x="941.25" y="702.6269"/><rect fill="#F1F1F1" height="10" style="stroke:#181818;stroke-width:0.5;" width="15" x="1066.7559" y="707.6269"/><rect fill="#F1F1F1" height="2" style="stroke:#181818;stroke-width:0.5;" width="4" x="1064.7559" y="709.6269"/><rect fill="#F1F1F1" height="2" style="stroke:#181818;stroke-width:0.5;" width="4" x="1064.7559" y="713.6269"/><text fill="#000000" font-family="sans-serif" font-size="14" lengthAdjust="spacing" textLength="105.5059" x="956.25" y="735.622">CatalogService</text></g><!--entity CatReg--><g class="entity" data-qualified-name="Backend .Python . FastAPI..Module Magasin . Authentification.CatReg" data-source-line="36" id="ent0026"><rect fill="#F1F1F1" height="46.2969" rx="2.5" ry="2.5" style="stroke:#181818;stroke-width:0.5;" width="151.7061" x="927.15" y="831.2769"/><rect fill="#F1F1F1" height="10" style="stroke:#181818;stroke-width:0.5;" width="15" x="1058.8561" y="836.2769"/><rect fill="#F1F1F1" height="2" style="stroke:#181818;stroke-width:0.5;" width="4" x="1056.8561" y="838.2769"/><rect fill="#F1F1F1" height="2" style="stroke:#181818;stroke-width:0.5;" width="4" x="1056.8561" y="842.2769"/><text fill="#000000" font-family="sans-serif" font-size="14" lengthAdjust="spacing" textLength="111.7061" x="942.15" y="864.272">CatalogRegistry</text></g><!--entity Postgres--><g class="entity" data-qualified-name="Couche de Persistance des Donn.es.Postgres" data-source-line="41" id="ent0028"><rect fill="#F1F1F1" height="46.2969" rx="2.5" ry="2.5" style="stroke:#181818;stroke-width:0.5;" width="215.1299" x="285.44" y="1016.5769"/><rect fill="#F1F1F1" height="10" style="stroke:#181818;stroke-width:0.5;" width="15" x="480.5699" y="1021.5769"/><rect fill="#F1F1F1" height="2" style="stroke:#181818;stroke-width:0.5;" width="4" x="478.5699" y="1023.5769"/><rect fill="#F1F1F1" height="2" style="stroke:#181818;stroke-width:0.5;" width="4" x="478.5699" y="1027.5769"/><text fill="#000000" font-family="sans-serif" font-size="14" lengthAdjust="spacing" textLength="175.1299" x="300.44" y="1049.572">PostgreSQL (Relationnel)</text></g><g class="entity" data-qualified-name="Couche de Persistance des Donn.es.GMN29" data-source-line="42" id="ent0030"><path d="M285.39,1123.8669 L285.39,1164.1325 A0,0 0 0 0 285.39,1164.1325 L510.6004,1164.1325 A0,0 0 0 0 510.6004,1164.1325 L510.6004,1133.8669 L500.6004,1123.8669 L401.06,1123.8669 L394.1,1063.1669 L393.06,1123.8669 L285.39,1123.8669 A0,0 0 0 0 285.39,1123.8669" fill="#FEFFDD" style="stroke:#181818;stroke-width:0.5;"/><path d="M500.6004,1123.8669 L500.6004,1133.8669 L510.6004,1133.8669 L500.6004,1123.8669" fill="#FEFFDD" style="stroke:#181818;stroke-width:0.5;"/><text fill="#000000" font-family="sans-serif" font-size="13" lengthAdjust="spacing" textLength="204.2104" x="291.39" y="1140.9338">Tables: Utilisateur, Jeu, Succ&#232;s.</text><text fill="#000000" font-family="sans-serif" font-size="13" lengthAdjust="spacing" textLength="134.0815" x="291.39" y="1156.0666">Int&#233;grit&#233; des achats.</text></g><!--entity Mongo--><g class="entity" data-qualified-name="Couche de Persistance des Donn.es.Mongo" data-source-line="44" id="ent0032"><rect fill="#F1F1F1" height="46.2969" rx="2.5" ry="2.5" style="stroke:#181818;stroke-width:0.5;" width="169.4727" x="565.26" y="1016.5769"/><rect fill="#F1F1F1" height="10" style="stroke:#181818;stroke-width:0.5;" width="15" x="714.7327" y="1021.5769"/><rect fill="#F1F1F1" height="2" style="stroke:#181818;stroke-width:0.5;" width="4" x="712.7327" y="1023.5769"/><rect fill="#F1F1F1" height="2" style="stroke:#181818;stroke-width:0.5;" width="4" x="712.7327" y="1027.5769"/><text fill="#000000" font-family="sans-serif" font-size="14" lengthAdjust="spacing" textLength="129.4727" x="580.26" y="1049.572">MongoDB (NoSQL)</text></g><g class="entity" data-qualified-name="Couche de Persistance des Donn.es.GMN33" data-source-line="45" id="ent0034"><path d="M545.42,1123.8669 L545.42,1164.1325 A0,0 0 0 0 545.42,1164.1325 L748.5723,1164.1325 A0,0 0 0 0 748.5723,1164.1325 L748.5723,1133.8669 L738.5723,1123.8669 L651.57,1123.8669 L649.34,1063.1669 L643.57,1123.8669 L545.42,1123.8669 A0,0 0 0 0 545.42,1123.8669" fill="#FEFFDD" style="stroke:#181818;stroke-width:0.5;"/><path d="M738.5723,1123.8669 L738.5723,1133.8669 L748.5723,1133.8669 L738.5723,1123.8669" fill="#FEFFDD" style="stroke:#181818;stroke-width:0.5;"/><text fill="#000000" font-family="sans-serif" font-size="13" lengthAdjust="spacing" textLength="182.1523" x="551.42" y="1140.9338">Documents: Commentaires,</text><text fill="#000000" font-family="sans-serif" font-size="13" lengthAdjust="spacing" textLength="118.5234" x="551.42" y="1156.0666">Discussions, Logs.</text></g><!--entity Redis--><g class="entity" data-qualified-name="Couche de Persistance des Donn.es.Redis" data-source-line="47" id="ent0036"><rect fill="#F1F1F1" height="46.2969" rx="2.5" ry="2.5" style="stroke:#181818;stroke-width:0.5;" width="137.3232" x="881.34" y="1016.5769"/><rect fill="#F1F1F1" height="10" style="stroke:#181818;stroke-width:0.5;" width="15" x="998.6632" y="1021.5769"/><rect fill="#F1F1F1" height="2" style="stroke:#181818;stroke-width:0.5;" width="4" x="996.6632" y="1023.5769"/><rect fill="#F1F1F1" height="2" style="stroke:#181818;stroke-width:0.5;" width="4" x="996.6632" y="1027.5769"/><text fill="#000000" font-family="sans-serif" font-size="14" lengthAdjust="spacing" textLength="97.3232" x="896.34" y="1049.572">Redis (Cache)</text></g><g class="entity" data-qualified-name="Couche de Persistance des Donn.es.GMN37" data-source-line="48" id="ent0038"><path d="M783.89,1131.4369 L783.89,1156.5697 A0,0 0 0 0 783.89,1156.5697 L1062.1161,1156.5697 A0,0 0 0 0 1062.1161,1156.5697 L1062.1161,1141.4369 L1052.1161,1131.4369 L930.14,1131.4369 L944.07,1063.1669 L922.14,1131.4369 L783.89,1131.4369 A0,0 0 0 0 783.89,1131.4369" fill="#FEFFDD" style="stroke:#181818;stroke-width:0.5;"/><path d="M1052.1161,1131.4369 L1052.1161,1141.4369 L1062.1161,1141.4369 L1052.1161,1131.4369" fill="#FEFFDD" style="stroke:#181818;stroke-width:0.5;"/><text fill="#000000" font-family="sans-serif" font-size="13" lengthAdjust="spacing" textLength="257.2261" x="789.89" y="1148.5038">Cache pour les sessions et le catalogue</text></g><!--entity User--><g class="entity" data-qualified-name="User" data-source-line="6" id="ent0002"><ellipse cx="411.997" cy="51.2969" fill="#F1F1F1" rx="8" ry="8" style="stroke:#181818;stroke-width:0.5;"/><path d="M411.997,59.2969 L411.997,86.2969 M398.997,67.2969 L424.997,67.2969 M411.997,86.2969 L398.997,101.2969 M411.997,86.2969 L424.997,101.2969" fill="none" style="stroke:#181818;stroke-width:0.5;"/><text fill="#000000" font-family="sans-serif" font-size="14" lengthAdjust="spacing" textLength="127.9141" x="348.04" y="115.792">Utilisateur (Client)</text></g><!--link User to UI--><g class="link" data-entity-1="ent0002" data-entity-2="ent0004" data-link-type="dependency" data-source-line="53" id="lnk40"><path d="M412,119.2169 C412,149.5669 412,185.3869 412,210.8069" fill="none" id="User-to-UI" style="stroke:#181818;stroke-width:1;"/><polygon fill="#181818" points="412,216.8069,416,207.8069,412,211.8069,408,207.8069,412,216.8069" style="stroke:#181818;stroke-width:1;"/><text fill="#000000" font-family="sans-serif" font-size="13" lengthAdjust="spacing" textLength="55.4404" x="413" y="162.1538">Interagit</text></g><!--link UI to Gateway--><g class="link" data-entity-1="ent0004" data-entity-2="ent0009" data-link-type="dependency" data-source-line="54" id="lnk41"><path d="M412,263.7969 C412,291.1769 412,331.4669 412,362.0569" fill="none" id="UI-to-Gateway" style="stroke:#181818;stroke-width:1;"/><polygon fill="#181818" points="412,368.0569,416,359.0569,412,363.0569,408,359.0569,412,368.0569" style="stroke:#181818;stroke-width:1;"/><text fill="#000000" font-family="sans-serif" font-size="13" lengthAdjust="spacing" textLength="183.1553" x="413" y="308.4538">Requ&#234;tes HTTP/REST (JSON)</text></g><!--link Gateway to LibCtrl--><g class="link" data-entity-1="ent0009" data-entity-2="ent0015" data-link-type="dependency" data-source-line="57" id="lnk42"><path d="M341.77,411.1669 C306.36,419.7369 265.08,435.1969 237,462.9769 C206.36,493.2969 195.5815,538.4505 191.2815,567.7405" fill="none" id="Gateway-to-LibCtrl" style="stroke:#181818;stroke-width:1;"/><polygon fill="#181818" points="190.41,573.6769,195.6748,565.3533,191.1363,568.7299,187.7597,564.1913,190.41,573.6769" style="stroke:#181818;stroke-width:1;"/><text fill="#000000" font-family="sans-serif" font-size="13" lengthAdjust="spacing" textLength="165.3247" x="238" y="476.0438">GET /api/users/me/library</text></g><!--link Gateway to ComCtrl--><g class="link" data-entity-1="ent0009" data-entity-2="ent0019" data-link-type="dependency" data-source-line="58" id="lnk43"><path d="M412,431.2269 C412,470.7269 412,532.6369 412,567.7069" fill="none" id="Gateway-to-ComCtrl" style="stroke:#181818;stroke-width:1;"/><polygon fill="#181818" points="412,573.7069,416,564.7069,412,568.7069,408,564.7069,412,573.7069" style="stroke:#181818;stroke-width:1;"/><text fill="#000000" font-family="sans-serif" font-size="13" lengthAdjust="spacing" textLength="216.3408" x="413" y="476.0438">POST /api/games/{id}/comments</text></g><!--link Gateway to CatCtrl--><g class="link" data-entity-1="ent0009" data-entity-2="ent0024" data-link-type="dependency" data-source-line="59" id="lnk44"><path d="M451.95,431.4469 C466.06,440.6869 482.54,449.7469 499,454.9769 C528.49,464.3569 607.13,460.8469 638,462.9769 C775.45,472.4969 823.24,427.4169 947,487.9769 C985.64,506.8869 1013.1781,542.9117 1029.6281,568.6417" fill="none" id="Gateway-to-CatCtrl" style="stroke:#181818;stroke-width:1;"/><polygon fill="#181818" points="1032.86,573.6969,1031.3822,563.9595,1030.1667,569.4842,1024.642,568.2687,1032.86,573.6969" style="stroke:#181818;stroke-width:1;"/><text fill="#000000" font-family="sans-serif" font-size="13" lengthAdjust="spacing" textLength="154.978" x="926.51" y="476.0438">GET /api/catalog/games</text></g><!--link LibCtrl to LibSvc--><g class="link" data-entity-1="ent0015" data-entity-2="ent0016" data-link-type="dependency" data-source-line="62" id="lnk45"><path d="M186.39,620.7669 C184.75,643.8269 182.6545,673.3619 181.0245,696.3419" fill="none" id="LibCtrl-to-LibSvc" style="stroke:#181818;stroke-width:1;"/><polygon fill="#181818" points="180.6,702.3269,185.2268,693.6324,180.9538,697.3394,177.2468,693.0664,180.6,702.3269" style="stroke:#181818;stroke-width:1;"/><text fill="#000000" font-family="sans-serif" font-size="13" lengthAdjust="spacing" textLength="109.0908" x="185.04" y="663.3438">Route la requ&#234;te</text></g><!--link LibSvc to LibReg--><g class="link" data-entity-1="ent0016" data-entity-2="ent0017" data-link-type="dependency" data-source-line="63" id="lnk46"><path d="M180.61,749.4169 C182.25,772.4769 184.3455,802.0119 185.9755,824.9919" fill="none" id="LibSvc-to-LibReg" style="stroke:#181818;stroke-width:1;"/><polygon fill="#181818" points="186.4,830.9769,189.7532,821.7164,186.0462,825.9894,181.7732,822.2824,186.4,830.9769" style="stroke:#181818;stroke-width:1;"/><text fill="#000000" font-family="sans-serif" font-size="13" lengthAdjust="spacing" textLength="98.395" x="185.04" y="797.3438">Logique m&#233;tier</text></g><!--link LibReg to Postgres--><g class="link" data-entity-1="ent0017" data-entity-2="ent0028" data-link-type="dependency" data-source-line="64" id="lnk47"><path d="M191.73,877.8069 C196.22,898.7469 205.59,929.8369 224,950.5769 C250.69,980.6469 284.5703,999.7222 318.6303,1013.8922" fill="none" id="LibReg-to-Postgres" style="stroke:#181818;stroke-width:1;"/><polygon fill="#181818" points="324.17,1016.1969,317.3969,1009.0467,319.5536,1014.2763,314.324,1016.433,324.17,1016.1969" style="stroke:#181818;stroke-width:1;"/><text fill="#000000" font-family="sans-serif" font-size="13" lengthAdjust="spacing" textLength="155.9302" x="225" y="946.6438">Requ&#234;te SQL et jointure</text></g><!--link ComCtrl to ComSvc--><g class="link" data-entity-1="ent0019" data-entity-2="ent0020" data-link-type="dependency" data-source-line="67" id="lnk48"><path d="M410.39,620.7669 C408.75,643.8269 406.6545,673.3619 405.0245,696.3419" fill="none" id="ComCtrl-to-ComSvc" style="stroke:#181818;stroke-width:1;"/><polygon fill="#181818" points="404.6,702.3269,409.2268,693.6324,404.9538,697.3394,401.2468,693.0664,404.6,702.3269" style="stroke:#181818;stroke-width:1;"/><text fill="#000000" font-family="sans-serif" font-size="13" lengthAdjust="spacing" textLength="109.0908" x="409.04" y="663.3438">Route la requ&#234;te</text></g><!--link ComSvc to ComSvc--><g class="link" data-entity-1="ent0020" data-entity-2="ent0020" data-link-type="dependency" data-source-line="68" id="lnk49"><path d="M483.46,713.3969 C503.34,714.2869 518.17,718.4169 518.17,725.7769 C518.17,733.1369 509.334,736.9985 489.454,737.8885" fill="none" id="ComSvc-to-ComSvc" style="stroke:#181818;stroke-width:1;"/><polygon fill="#181818" points="483.46,738.1569,492.6299,741.7504,488.455,737.9333,492.2721,733.7584,483.46,738.1569" style="stroke:#181818;stroke-width:1;"/><text fill="#000000" font-family="sans-serif" font-size="13" lengthAdjust="spacing" textLength="88.1182" x="546.8407" y="715.3438">R&#232;gle m&#233;tier:</text><text fill="#000000" font-family="sans-serif" font-size="13" lengthAdjust="spacing" textLength="133.4595" x="524.17" y="730.4766">V&#233;rifie si l'utilisateur</text><text fill="#000000" font-family="sans-serif" font-size="13" lengthAdjust="spacing" textLength="93.7231" x="544.0382" y="745.6094">poss&#232;de le jeu</text></g><!--link ComSvc to ComReg--><g class="link" data-entity-1="ent0020" data-entity-2="ent0021" data-link-type="dependency" data-source-line="69" id="lnk50"><path d="M403.54,749.4169 C404.08,772.4769 404.7764,801.9986 405.3264,824.9786" fill="none" id="ComSvc-to-ComReg" style="stroke:#181818;stroke-width:1;"/><polygon fill="#181818" points="405.47,830.9769,409.2535,821.8837,405.3504,825.9783,401.2558,822.0752,405.47,830.9769" style="stroke:#181818;stroke-width:1;"/><text fill="#000000" font-family="sans-serif" font-size="13" lengthAdjust="spacing" textLength="88.0928" x="405.68" y="797.3438">Validation OK</text></g><!--link ComReg to Mongo--><g class="link" data-entity-1="ent0021" data-entity-2="ent0032" data-link-type="dependency" data-source-line="70" id="lnk51"><path d="M489.59,869.6369 C531.49,880.6669 580.17,899.9969 613,933.5769 C635.05,956.1269 643.1097,986.6563 646.7197,1010.1763" fill="none" id="ComReg-to-Mongo" style="stroke:#181818;stroke-width:1;"/><polygon fill="#181818" points="647.63,1016.1069,650.2183,1006.6042,646.8715,1011.1647,642.3109,1007.8179,647.63,1016.1069" style="stroke:#181818;stroke-width:1;"/><text fill="#000000" font-family="sans-serif" font-size="13" lengthAdjust="spacing" textLength="123.4556" x="626.73" y="946.6438">INSERT (New Com)</text></g><!--link ComReg to Postgres--><g class="link" data-entity-1="ent0021" data-entity-2="ent0028" data-link-type="dependency" data-source-line="71" id="lnk52"><path d="M400.16,877.8069 C396.43,893.3369 391.93,914.5569 390,933.5769 C387.13,961.9169 388.3655,988.7881 390.1655,1010.1181" fill="none" id="ComReg-to-Postgres" style="stroke:#181818;stroke-width:1;"/><polygon fill="#181818" points="390.67,1016.0969,393.899,1006.7924,390.2496,1011.1146,385.9274,1007.4651,390.67,1016.0969" style="stroke:#181818;stroke-width:1;"/><text fill="#000000" font-family="sans-serif" font-size="13" lengthAdjust="spacing" textLength="217.1914" x="391" y="946.6438">(Read) V&#233;rification de possession</text></g><!--link CatCtrl to CatSvc--><g class="link" data-entity-1="ent0024" data-entity-2="ent0025" data-link-type="dependency" data-source-line="74" id="lnk53"><path d="M1040.28,620.7669 C1034.45,643.8269 1026.9507,673.5299 1021.1407,696.5099" fill="none" id="CatCtrl-to-CatSvc" style="stroke:#181818;stroke-width:1;"/><polygon fill="#181818" points="1019.67,702.3269,1025.754,694.5819,1020.8956,697.4794,1017.9981,692.621,1019.67,702.3269" style="stroke:#181818;stroke-width:1;"/><text fill="#000000" font-family="sans-serif" font-size="13" lengthAdjust="spacing" textLength="109.0908" x="1032.92" y="663.3438">Route la requ&#234;te</text></g><!--link CatSvc to CatReg--><g class="link" data-entity-1="ent0025" data-entity-2="ent0026" data-link-type="dependency" data-source-line="75" id="lnk54"><path d="M1012.03,749.4169 C1010.03,772.4769 1007.4702,802.0195 1005.4702,824.9995" fill="none" id="CatSvc-to-CatReg" style="stroke:#181818;stroke-width:1;"/><polygon fill="#181818" points="1004.95,830.9769,1009.7153,822.3576,1005.3835,825.9957,1001.7454,821.664,1004.95,830.9769" style="stroke:#181818;stroke-width:1;"/><text fill="#000000" font-family="sans-serif" font-size="13" lengthAdjust="spacing" textLength="98.395" x="1009.83" y="797.3438">Logique m&#233;tier</text></g><!--link CatReg to Redis--><g class="link" data-entity-1="ent0026" data-entity-2="ent0036" data-link-type="dependency" data-source-line="76" id="lnk55"><path d="M996.5,877.8969 C986.3,913.1769 968.3165,975.3729 958.1365,1010.5829" fill="none" id="CatReg-to-Redis" style="stroke:#181818;stroke-width:1;"/><polygon fill="#181818" points="956.47,1016.3469,962.8123,1008.812,957.8587,1011.5436,955.1271,1006.59,956.47,1016.3469" style="stroke:#181818;stroke-width:1;"/><text fill="#000000" font-family="sans-serif" font-size="13" lengthAdjust="spacing" textLength="43.3926" x="980.67" y="946.6438">(Read)</text></g><?plantuml-src XLNTJYf94BwVfwYuoIe97fAzz68J1NLn4Jc0dcpaN3GpnT3Qqytf7rroull8liQysAcUxX56DEi5GjNNNLzLVLLj7hbSCSqAI5MnKXAbdTYrG725-2CnRzuLInzPZi6dCRLCvWAJn79BXbETBhabgzC8lN9Z6HUYt20SmqWmYmkb2uIxqz7vxJX9M6gLXeDRomKtv7KQZhg2K-ZM0J03jmPraiI8S72XbRGeCxZlFL1K1HsOOh7ozyAvpBd4xmVmsu3dIzjTCma_4w2_-puTqWkM8ZG2tVPRtwiW_Gec5TsY_LbG2pB22GpP4y-PvKh2DSkPuR8zasTyBhYoo_BrXyCsZBHQS96y98bK6N4SAIujP8UKW_PvctAJEitfNqtj7nH2FTVaJaTzk2H6psmzamF5CZXZWiaKTKKkkZvW63r4SwoSzVN9q513VhZoFujc9j724nCy2mbuvrGzeZHmzMtg-RwLzOo-L5KThUsIe1suOCOIiRTgNch4kfpLnqA93AbprofprFL6JU1emEUQwJNrC1of4et6BhLGAo5YVcJjMYtsO1FKJpp56ZDvIlSWOyoviNfTO-XtXNdvb6PN5OMJpDboGpgZ7zGanZMQ9jFeUSUKh4sc4RRBb4mDfX7IO4gs_sSQvGQ_mwcpIxg2BtXQDRB9b5acL1vXi6LiGYZckxW7VvyOi-yI2x16Oims4mkGPcBCRXCZVP7ms9mP4bXNkNJfzGaZeaOdlBuhHVQKb3GbXeHsJVRrM14-JiP86Pjhd7mTmD4OHPMzH166DZhDTZ3cobfL-CceVJGQKpONQ4vs1xyDL-ZQC75fMhwQBpD9ww7Sv9fxLNXEB5qoQxviUtD_hMZPzCxWQAY8JI1GsJwANZaeT4-bpZUVekzAZJP8ZvlK6KFfc3OCL4wnGfmnPjoGCea1XYYLvQCe0KfNUooi52qqIXGCXdk1Xfzab8OsEVJzE8JZusEebY7jtGf5XYJnIvQ-_HbsNl3dt2RqqrjtzaozM-2lwNJK6PzFfd1qDRaPjlpbzHRQMMX9VTRV4oUTxhaydqA7hNZ7KMJJAR0ZmaGty77U23-wcSG3EIlGT7xoxAMJXfgQvfaWvTqOiGJXgETv8To_m7sM4a-QcokfEKQ-9FcuNX44UzkjINH558cUKDH7xfTVGMyUfrShEZncHuzr2S6hcdhqu5yBUYhtYUtiggGkHIpBPxIYguagN-brhbcTpEHTkT6qJEXXuY0EtNOkPdAbZ2bVQKhfm0EwT_U5DE-sByhDtqaqUqGj-_vmSZucNGpnsPzgxM9s2a4JpR8MH3Pf_KQ1vn0ql5-Ik1IJkiknuv-M8xWYwkCkHOV7r1CLcFq2?></g></svg>