<?plantuml 1.2026.2?><svg xmlns="http://www.w3.org/2000/svg" xmlns:xlink="http://www.w3.org/1999/xlink" contentStyleType="text/css" data-diagram-type="DESCRIPTION" height="915px" preserveAspectRatio="none" style="width:1026px;height:915px;background:#FFFFFF;" version="1.1" viewBox="0 0 1026 915" width="1026px" zoomAndPan="magnify"><title>Diagramme de D&#233;ploiement - VAPEUR (Django &amp; FastAPI)</title><defs/><g><g class="title" data-source-line="8"><text fill="#000000" font-family="sans-serif" font-size="14" font-weight="bold" lengthAdjust="spacing" textLength="455.4102" x="278.2949" y="22.9951">Diagramme de D&#233;ploiement - VAPEUR (Django &amp; FastAPI)</text></g><!--cluster Client--><g class="cluster" data-qualified-name="Client" data-source-line="10" id="ent0002"><polygon fill="#FFFFFF" points="388,53.2969,398,43.2969,632,43.2969,632,135.5969,622,145.5969,388,145.5969,388,53.2969" style="stroke:#2F4F4F;stroke-width:1;"/><line style="stroke:#2F4F4F;stroke-width:1;" x1="622" x2="632" y1="53.2969" y2="43.2969"/><line style="stroke:#2F4F4F;stroke-width:1;" x1="388" x2="622" y1="53.2969" y2="53.2969"/><line style="stroke:#2F4F4F;stroke-width:1;" x1="622" x2="622" y1="53.2969" y2="145.5969"/><text fill="#000000" font-family="sans-serif" font-size="14" font-weight="bold" lengthAdjust="spacing" textLength="133.8887" x="439.0557" y="69.292">Appareils Clients</text></g><!--cluster Infrastructure Cloud--><g class="cluster" data-qualified-name="Infrastructure Cloud" data-source-line="16" id="ent0005"><polygon fill="#F9F9F9" points="16,327.8969,26,317.8969,1009,317.8969,1009,888.3769,999,898.3769,16,898.3769,16,327.8969" style="stroke:#2F4F4F;stroke-width:1;"/><line style="stroke:#2F4F4F;stroke-width:1;" x1="999" x2="1009" y1="327.8969" y2="317.8969"/><line style="stroke:#2F4F4F;stroke-width:1;" x1="16" x2="999" y1="327.8969" y2="327.8969"/><line style="stroke:#2F4F4F;stroke-width:1;" x1="999" x2="999" y1="327.8969" y2="898.3769"/><text fill="#000000" font-family="sans-serif" font-size="14" font-weight="bold" lengthAdjust="spacing" textLength="160.4258" x="428.2871" y="343.892">Infrastructure Cloud</text></g><!--cluster Zone Publique--><g class="cluster" data-qualified-name="Infrastructure Cloud.Zone Publique" data-source-line="18" id="ent0006"><polygon fill="#E8F8F5" points="430,375.8969,440,365.8969,756,365.8969,756,458.1869,746,468.1869,430,468.1869,430,375.8969" style="stroke:#2F4F4F;stroke-width:1;"/><line style="stroke:#2F4F4F;stroke-width:1;" x1="746" x2="756" y1="375.8969" y2="365.8969"/><line style="stroke:#2F4F4F;stroke-width:1;" x1="430" x2="746" y1="375.8969" y2="375.8969"/><line style="stroke:#2F4F4F;stroke-width:1;" x1="746" x2="746" y1="375.8969" y2="468.1869"/><text fill="#000000" font-family="sans-serif" font-size="14" font-weight="bold" lengthAdjust="spacing" textLength="113.4355" x="532.2822" y="391.892">Zone Publique</text></g><!--cluster Zone Backend (Conteneurs Docker/K8s)--><g class="cluster" data-qualified-name="Infrastructure Cloud.Zone Backend .Conteneurs Docker.K8s." data-source-line="23" id="ent0011"><polygon fill="#E9F7EF" points="40,527.1869,50,517.1869,985,517.1869,985,697.7869,975,707.7869,40,707.7869,40,527.1869" style="stroke:#2F4F4F;stroke-width:1;"/><line style="stroke:#2F4F4F;stroke-width:1;" x1="975" x2="985" y1="527.1869" y2="517.1869"/><line style="stroke:#2F4F4F;stroke-width:1;" x1="40" x2="975" y1="527.1869" y2="527.1869"/><line style="stroke:#2F4F4F;stroke-width:1;" x1="975" x2="975" y1="527.1869" y2="707.7869"/><text fill="#000000" font-family="sans-serif" font-size="14" font-weight="bold" lengthAdjust="spacing" textLength="313.8584" x="351.5708" y="543.182">Zone Backend (Conteneurs Docker/K8s)</text></g><!--cluster Pods Python / FastAPI--><g class="cluster" data-qualified-name="Infrastructure Cloud.Zone Backend .Conteneurs Docker.K8s..Pods Python . FastAPI" data-source-line="24" id="ent0012"><polygon fill="#FFFFFF" points="64,575.1869,74,565.1869,961,565.1869,961,673.7869,951,683.7869,64,683.7869,64,575.1869" style="stroke:#2F4F4F;stroke-width:1;"/><line style="stroke:#2F4F4F;stroke-width:1;" x1="951" x2="961" y1="575.1869" y2="565.1869"/><line style="stroke:#2F4F4F;stroke-width:1;" x1="64" x2="951" y1="575.1869" y2="575.1869"/><line style="stroke:#2F4F4F;stroke-width:1;" x1="951" x2="951" y1="575.1869" y2="683.7869"/><text fill="#000000" font-family="sans-serif" font-size="14" font-weight="bold" lengthAdjust="spacing" textLength="173.9404" x="421.5298" y="591.182">Pods Python / FastAPI</text></g><!--cluster Zone Donn?es--><g class="cluster" data-qualified-name="Infrastructure Cloud.Zone Donn.es" data-source-line="32" id="ent0017"><polygon fill="#FDEDEC" points="341,766.7869,351,756.7869,940,756.7869,940,864.3769,930,874.3769,341,874.3769,341,766.7869" style="stroke:#2F4F4F;stroke-width:1;"/><line style="stroke:#2F4F4F;stroke-width:1;" x1="930" x2="940" y1="766.7869" y2="756.7869"/><line style="stroke:#2F4F4F;stroke-width:1;" x1="341" x2="930" y1="766.7869" y2="766.7869"/><line style="stroke:#2F4F4F;stroke-width:1;" x1="930" x2="930" y1="766.7869" y2="874.3769"/><text fill="#000000" font-family="sans-serif" font-size="14" font-weight="bold" lengthAdjust="spacing" textLength="112.6016" x="580.1992" y="782.782">Zone Donn&#233;es</text></g><!--entity Browser--><g class="entity" data-qualified-name="Client.Browser" data-source-line="11" id="ent0003"><rect fill="#F1F1F1" height="46.2969" rx="2.5" ry="2.5" style="stroke:#181818;stroke-width:0.5;" width="212.7578" x="403.62" y="83.2969"/><rect fill="#F1F1F1" height="10" style="stroke:#181818;stroke-width:0.5;" width="15" x="596.3778" y="88.2969"/><rect fill="#F1F1F1" height="2" style="stroke:#181818;stroke-width:0.5;" width="4" x="594.3778" y="90.2969"/><rect fill="#F1F1F1" height="2" style="stroke:#181818;stroke-width:0.5;" width="4" x="594.3778" y="94.2969"/><text fill="#000000" font-family="sans-serif" font-size="14" lengthAdjust="spacing" textLength="172.7578" x="418.62" y="116.292">Navigateur Web / Mobile</text></g><!--entity Gateway--><g class="entity" data-qualified-name="Infrastructure Cloud.Zone Publique.Gateway" data-source-line="19" id="ent0007"><rect fill="#F1F1F1" height="46.2969" rx="2.5" ry="2.5" style="stroke:#181818;stroke-width:0.5;" width="128.4434" x="445.78" y="405.8969"/><rect fill="#F1F1F1" height="10" style="stroke:#181818;stroke-width:0.5;" width="15" x="554.2234" y="410.8969"/><rect fill="#F1F1F1" height="2" style="stroke:#181818;stroke-width:0.5;" width="4" x="552.2234" y="412.8969"/><rect fill="#F1F1F1" height="2" style="stroke:#181818;stroke-width:0.5;" width="4" x="552.2234" y="416.8969"/><text fill="#000000" font-family="sans-serif" font-size="14" lengthAdjust="spacing" textLength="88.4434" x="460.78" y="438.892">API Gateway</text></g><g class="entity" data-qualified-name="Infrastructure Cloud.Zone Publique.GMN8" data-source-line="20" id="ent0009"><path d="M609.62,408.9069 L609.62,425.0369 L574.45,429.0369 L609.62,433.0369 L609.62,449.1725 A0,0 0 0 0 609.62,449.1725 L740.3837,449.1725 A0,0 0 0 0 740.3837,449.1725 L740.3837,418.9069 L730.3837,408.9069 L609.62,408.9069 A0,0 0 0 0 609.62,408.9069" fill="#FEFFDD" style="stroke:#181818;stroke-width:0.5;"/><path d="M730.3837,408.9069 L730.3837,418.9069 L740.3837,418.9069 L730.3837,408.9069" fill="#FEFFDD" style="stroke:#181818;stroke-width:0.5;"/><text fill="#000000" font-family="sans-serif" font-size="13" lengthAdjust="spacing" textLength="99.9438" x="615.62" y="425.9738">"Validation JWT</text><text fill="#000000" font-family="sans-serif" font-size="13" lengthAdjust="spacing" textLength="109.7637" x="615.62" y="441.1066">et Rate Limiting"</text></g><!--entity Django_Front--><g class="entity" data-qualified-name="Infrastructure Cloud.Zone Backend .Conteneurs Docker.K8s..Pods Python . FastAPI.Django_Front" data-source-line="25" id="ent0013"><rect fill="#F1F1F1" height="62.5938" rx="2.5" ry="2.5" style="stroke:#181818;stroke-width:0.5;" width="176.9102" x="79.54" y="605.1869"/><rect fill="#F1F1F1" height="10" style="stroke:#181818;stroke-width:0.5;" width="15" x="236.4502" y="610.1869"/><rect fill="#F1F1F1" height="2" style="stroke:#181818;stroke-width:0.5;" width="4" x="234.4502" y="612.1869"/><rect fill="#F1F1F1" height="2" style="stroke:#181818;stroke-width:0.5;" width="4" x="234.4502" y="616.1869"/><text fill="#000000" font-family="sans-serif" font-size="14" lengthAdjust="spacing" textLength="132.248" x="94.54" y="638.182">Application Django</text><text fill="#000000" font-family="sans-serif" font-size="14" lengthAdjust="spacing" textLength="136.9102" x="94.54" y="654.4789">(Templates Engine)</text></g><!--entity FastAPI_Cat--><g class="entity" data-qualified-name="Infrastructure Cloud.Zone Backend .Conteneurs Docker.K8s..Pods Python . FastAPI.FastAPI_Cat" data-source-line="26" id="ent0014"><rect fill="#F1F1F1" height="46.2969" rx="2.5" ry="2.5" style="stroke:#181818;stroke-width:0.5;" width="207.002" x="291.5" y="613.3369"/><rect fill="#F1F1F1" height="10" style="stroke:#181818;stroke-width:0.5;" width="15" x="478.502" y="618.3369"/><rect fill="#F1F1F1" height="2" style="stroke:#181818;stroke-width:0.5;" width="4" x="476.502" y="620.3369"/><rect fill="#F1F1F1" height="2" style="stroke:#181818;stroke-width:0.5;" width="4" x="476.502" y="624.3369"/><text fill="#000000" font-family="sans-serif" font-size="14" lengthAdjust="spacing" textLength="167.002" x="306.5" y="646.332">Service Magasin &amp; Auth</text></g><!--entity FastAPI_Lib--><g class="entity" data-qualified-name="Infrastructure Cloud.Zone Backend .Conteneurs Docker.K8s..Pods Python . FastAPI.FastAPI_Lib" data-source-line="27" id="ent0015"><rect fill="#F1F1F1" height="46.2969" rx="2.5" ry="2.5" style="stroke:#181818;stroke-width:0.5;" width="184.2656" x="533.87" y="613.3369"/><rect fill="#F1F1F1" height="10" style="stroke:#181818;stroke-width:0.5;" width="15" x="698.1356" y="618.3369"/><rect fill="#F1F1F1" height="2" style="stroke:#181818;stroke-width:0.5;" width="4" x="696.1356" y="620.3369"/><rect fill="#F1F1F1" height="2" style="stroke:#181818;stroke-width:0.5;" width="4" x="696.1356" y="624.3369"/><text fill="#000000" font-family="sans-serif" font-size="14" lengthAdjust="spacing" textLength="144.2656" x="548.87" y="646.332">Service Biblioth&#232;que</text></g><!--entity FastAPI_Com--><g class="entity" data-qualified-name="Infrastructure Cloud.Zone Backend .Conteneurs Docker.K8s..Pods Python . FastAPI.FastAPI_Com" data-source-line="28" id="ent0016"><rect fill="#F1F1F1" height="46.2969" rx="2.5" ry="2.5" style="stroke:#181818;stroke-width:0.5;" width="191.1084" x="753.45" y="613.3369"/><rect fill="#F1F1F1" height="10" style="stroke:#181818;stroke-width:0.5;" width="15" x="924.5584" y="618.3369"/><rect fill="#F1F1F1" height="2" style="stroke:#181818;stroke-width:0.5;" width="4" x="922.5584" y="620.3369"/><rect fill="#F1F1F1" height="2" style="stroke:#181818;stroke-width:0.5;" width="4" x="922.5584" y="624.3369"/><text fill="#000000" font-family="sans-serif" font-size="14" lengthAdjust="spacing" textLength="151.1084" x="768.45" y="646.332">Service Communaut&#233;</text></g><!--entity DB_PG--><g class="entity" data-qualified-name="Infrastructure Cloud.Zone Donn.es.DB_PG" data-source-line="33" id="ent0018"><path d="M504.6,806.7869 C504.6,796.7869 625.995,796.7869 625.995,796.7869 C625.995,796.7869 747.39,796.7869 747.39,806.7869 L747.39,848.3806 C747.39,858.3806 625.995,858.3806 625.995,858.3806 C625.995,858.3806 504.6,858.3806 504.6,848.3806 L504.6,806.7869" fill="#F1F1F1" style="stroke:#181818;stroke-width:0.5;"/><path d="M504.6,806.7869 C504.6,816.7869 625.995,816.7869 625.995,816.7869 C625.995,816.7869 747.39,816.7869 747.39,806.7869" fill="none" style="stroke:#181818;stroke-width:0.5;"/><text fill="#000000" font-family="sans-serif" font-size="14" lengthAdjust="spacing" textLength="134.8936" x="514.6" y="833.782">Cluster PostgreSQL</text><text fill="#000000" font-family="sans-serif" font-size="14" lengthAdjust="spacing" textLength="222.79" x="514.6" y="850.0789">(Instance Primaire + R&#233;pliques)</text></g><!--entity DB_Mongo--><g class="entity" data-qualified-name="Infrastructure Cloud.Zone Donn.es.DB_Mongo" data-source-line="34" id="ent0019"><path d="M782.25,814.9269 C782.25,804.9269 852.9976,804.9269 852.9976,804.9269 C852.9976,804.9269 923.7451,804.9269 923.7451,814.9269 L923.7451,840.2238 C923.7451,850.2238 852.9976,850.2238 852.9976,850.2238 C852.9976,850.2238 782.25,850.2238 782.25,840.2238 L782.25,814.9269" fill="#F1F1F1" style="stroke:#181818;stroke-width:0.5;"/><path d="M782.25,814.9269 C782.25,824.9269 852.9976,824.9269 852.9976,824.9269 C852.9976,824.9269 923.7451,824.9269 923.7451,814.9269" fill="none" style="stroke:#181818;stroke-width:0.5;"/><text fill="#000000" font-family="sans-serif" font-size="14" lengthAdjust="spacing" textLength="121.4951" x="792.25" y="841.922">Cluster MongoDB</text></g><!--entity DB_Redis--><g class="entity" data-qualified-name="Infrastructure Cloud.Zone Donn.es.DB_Redis" data-source-line="35" id="ent0020"><path d="M356.72,814.9269 C356.72,804.9269 412.9959,804.9269 412.9959,804.9269 C412.9959,804.9269 469.2718,804.9269 469.2718,814.9269 L469.2718,840.2238 C469.2718,850.2238 412.9959,850.2238 412.9959,850.2238 C412.9959,850.2238 356.72,850.2238 356.72,840.2238 L356.72,814.9269" fill="#F1F1F1" style="stroke:#181818;stroke-width:0.5;"/><path d="M356.72,814.9269 C356.72,824.9269 412.9959,824.9269 412.9959,824.9269 C412.9959,824.9269 469.2718,824.9269 469.2718,814.9269" fill="none" style="stroke:#181818;stroke-width:0.5;"/><text fill="#000000" font-family="sans-serif" font-size="14" lengthAdjust="spacing" textLength="92.5518" x="366.72" y="841.922">Cluster Redis</text></g><!--entity Internet--><g class="entity" data-qualified-name="Internet" data-source-line="14" id="ent0004"><path d="M476.8518,217.4775 C479.9475,212.4434 483.8761,212.1783 487.6835,216.6681 C490.7915,210.4962 495.1358,210.5969 499.3775,215.4676 C502.2935,210.145 506.5613,209.6676 510.1413,214.7829 C513.8898,209.8585 517.7467,208.7578 521.734,214.5239 C526.7772,209.2605 531.0082,209.4092 533.8507,216.6555 C537.9083,211.488 542.5661,211.7625 546.2525,217.094 C553.5904,219.9334 555.3277,227.2895 549.0129,232.5649 C554.8175,238.9665 554.663,244.0502 546.667,248.4084 C544.7128,254.569 539.179,254.9771 535.4302,250.2627 C532.4904,258.536 528.0231,259.578 521.8992,253.2043 C520.9668,258.9205 516.2734,261.1034 511.3854,257.831 C506.7873,262.0292 501.5043,261.4893 499.5421,254.9292 C493.0223,259.7647 489.7972,257.1306 487.5899,250.4524 C483.3816,254.908 478.3143,254.4396 475.6427,248.6589 C465.9847,247.6862 462.7638,240.4627 469.3599,232.9777 C463.2429,223.9954 466.3357,218.4204 476.8518,217.4775" fill="#F1F1F1" style="stroke:#181818;stroke-width:0.5;"/><text fill="#000000" font-family="sans-serif" font-size="14" lengthAdjust="spacing" textLength="55.8359" x="482.08" y="236.592">Internet</text></g><!--link Browser to Internet--><g class="link" data-entity-1="ent0003" data-entity-2="ent0004" data-link-type="dependency" data-source-line="40" id="lnk21"><path d="M510,130.0569 C510,152.3069 510,180.0769 510,202.2769" fill="none" id="Browser-to-Internet" style="stroke:#181818;stroke-width:1;"/><polygon fill="#181818" points="510,208.2769,514,199.2769,510,203.2769,506,199.2769,510,208.2769" style="stroke:#181818;stroke-width:1;"/><text fill="#000000" font-family="sans-serif" font-size="13" lengthAdjust="spacing" textLength="41.7485" x="511" y="174.6638">HTTPS</text></g><!--link Internet to Gateway--><g class="link" data-entity-1="ent0004" data-entity-2="ent0007" data-link-type="dependency" data-source-line="41" id="lnk22"><path d="M510,255.1469 C510,292.7169 510,361.9969 510,399.5969" fill="none" id="Internet-to-Gateway" style="stroke:#181818;stroke-width:1;"/><polygon fill="#181818" points="510,405.5969,514,396.5969,510,400.5969,506,396.5969,510,405.5969" style="stroke:#181818;stroke-width:1;"/><text fill="#000000" font-family="sans-serif" font-size="13" lengthAdjust="spacing" textLength="128.2734" x="511" y="297.9638">Requ&#234;tes entrantes</text></g><!--link Gateway to Django_Front--><g class="link" data-entity-1="ent0007" data-entity-2="ent0013" data-link-type="dependency" data-source-line="43" id="lnk23"><path d="M445.71,438.2969 C402.75,445.7869 346.06,459.5569 301,484.1869 C249.14,512.5369 210.9714,564.3098 188.8514,599.6798" fill="none" id="Gateway-to-Django_Front" style="stroke:#181818;stroke-width:1;"/><polygon fill="#181818" points="185.67,604.7669,193.8335,599.2572,188.3212,600.5276,187.0507,595.0153,185.67,604.7669" style="stroke:#181818;stroke-width:1;"/><text fill="#000000" font-family="sans-serif" font-size="13" lengthAdjust="spacing" textLength="125.0234" x="302" y="497.2538">Externe (NodePort)</text></g><!--link Gateway to FastAPI_Lib--><g class="link" data-entity-1="ent0007" data-entity-2="ent0015" data-link-type="dependency" data-source-line="45" id="lnk24"><path d="M539.74,452.4969 C550.08,461.4569 561.06,472.4369 569,484.1869 C596.82,525.3569 611.9927,576.0991 619.5827,607.0891" fill="none" id="Gateway-to-FastAPI_Lib" style="stroke:#181818;stroke-width:1;"/><polygon fill="#181818" points="621.01,612.9169,622.7542,603.2237,619.8206,608.0604,614.9838,605.1268,621.01,612.9169" style="stroke:#181818;stroke-width:1;"/><text fill="#000000" font-family="sans-serif" font-size="13" lengthAdjust="spacing" textLength="118.8408" x="579.21" y="497.2538">Interne (ClusterIP)</text></g><!--link Gateway to FastAPI_Com--><g class="link" data-entity-1="ent0007" data-entity-2="ent0016" data-link-type="dependency" data-source-line="46" id="lnk25"><path d="M542.4,452.6769 C556.91,461.6169 574.63,470.9769 592,476.1869 C640.65,490.7769 658.88,465.2369 706,484.1869 C768.2,509.2069 812.2692,572.2523 833.5192,607.9223" fill="none" id="Gateway-to-FastAPI_Com" style="stroke:#181818;stroke-width:1;"/><polygon fill="#181818" points="836.59,613.0769,835.4202,603.2977,834.031,608.7814,828.5474,607.3921,836.59,613.0769" style="stroke:#181818;stroke-width:1;"/><text fill="#000000" font-family="sans-serif" font-size="13" lengthAdjust="spacing" textLength="118.8408" x="736.61" y="497.2538">Interne (ClusterIP)</text></g><!--link Gateway to FastAPI_Cat--><g class="link" data-entity-1="ent0007" data-entity-2="ent0014" data-link-type="dependency" data-source-line="47" id="lnk26"><path d="M475.88,452.5969 C464.76,461.3469 453.18,472.1669 445,484.1869 C417.37,524.7769 405.0791,575.9111 399.4891,607.0811" fill="none" id="Gateway-to-FastAPI_Cat" style="stroke:#181818;stroke-width:1;"/><polygon fill="#181818" points="398.43,612.9869,403.9559,604.8343,399.3126,608.0654,396.0815,603.4221,398.43,612.9869" style="stroke:#181818;stroke-width:1;"/><text fill="#000000" font-family="sans-serif" font-size="13" lengthAdjust="spacing" textLength="118.8408" x="446" y="497.2538">Interne (ClusterIP)</text></g><!--link FastAPI_Lib to DB_PG--><g class="link" data-entity-1="ent0015" data-entity-2="ent0018" data-link-type="dependency" data-source-line="49" id="lnk27"><path d="M624.74,660.0469 C623.72,680.9769 622.51,712.9769 623,740.7869 C623.32,759.2569 623.803,773.9716 624.453,790.4116" fill="none" id="FastAPI_Lib-to-DB_PG" style="stroke:#181818;stroke-width:1;"/><polygon fill="#181818" points="624.69,796.4069,628.3313,787.2559,624.4925,791.4108,620.3376,787.5719,624.69,796.4069" style="stroke:#181818;stroke-width:1;"/><text fill="#000000" font-family="sans-serif" font-size="13" lengthAdjust="spacing" textLength="93.9072" x="624" y="736.8538">postgres:5432</text></g><!--link FastAPI_Com to DB_Mongo--><g class="link" data-entity-1="ent0016" data-entity-2="ent0019" data-link-type="dependency" data-source-line="50" id="lnk28"><path d="M851.64,659.7969 C853.56,677.1969 855.99,701.9869 857,723.7869 C858.29,751.6169 856.974,777.7141 855.394,798.5341" fill="none" id="FastAPI_Com-to-DB_Mongo" style="stroke:#181818;stroke-width:1;"/><polygon fill="#181818" points="854.94,804.5169,859.6096,795.8454,855.3184,799.5312,851.6325,795.24,854.94,804.5169" style="stroke:#181818;stroke-width:1;"/><text fill="#000000" font-family="sans-serif" font-size="13" lengthAdjust="spacing" textLength="90.7969" x="858.43" y="736.8538">mongo:27017</text></g><!--link FastAPI_Com to DB_PG--><g class="link" data-entity-1="ent0016" data-entity-2="ent0018" data-link-type="dependency" data-source-line="51" id="lnk29"><path d="M822.54,659.9169 C782.51,693.8669 711.0358,754.4659 666.1858,792.5059" fill="none" id="FastAPI_Com-to-DB_PG" style="stroke:#181818;stroke-width:1;"/><polygon fill="#181818" points="661.61,796.3869,671.061,793.6159,665.4232,793.1527,665.8863,787.5148,661.61,796.3869" style="stroke:#181818;stroke-width:1;"/><text fill="#000000" font-family="sans-serif" font-size="13" lengthAdjust="spacing" textLength="93.9072" x="745.19" y="736.8538">postgres:5432</text></g><!--link FastAPI_Cat to DB_PG--><g class="link" data-entity-1="ent0014" data-entity-2="ent0018" data-link-type="dependency" data-source-line="52" id="lnk30"><path d="M421.76,659.7269 C447.02,680.7069 486,712.9769 520,740.7869 C542.73,759.3669 563.6423,776.3069 583.9723,792.7269" fill="none" id="FastAPI_Cat-to-DB_PG" style="stroke:#181818;stroke-width:1;"/><polygon fill="#181818" points="588.64,796.4969,584.1518,787.7301,584.7503,793.3552,579.1252,793.9537,588.64,796.4969" style="stroke:#181818;stroke-width:1;"/><text fill="#000000" font-family="sans-serif" font-size="13" lengthAdjust="spacing" textLength="93.9072" x="521" y="736.8538">postgres:5432</text></g><!--link FastAPI_Cat to DB_Redis--><g class="link" data-entity-1="ent0014" data-entity-2="ent0020" data-link-type="dependency" data-source-line="53" id="lnk31"><path d="M386.21,660.1169 C379.21,681.0869 371.43,713.1269 377,740.7869 C381.59,763.5869 389.6926,782.5375 398.2726,799.4275" fill="none" id="FastAPI_Cat-to-DB_Redis" style="stroke:#181818;stroke-width:1;"/><polygon fill="#181818" points="400.99,804.7769,400.4801,794.9412,398.7255,800.3191,393.3476,798.5645,400.99,804.7769" style="stroke:#181818;stroke-width:1;"/><text fill="#000000" font-family="sans-serif" font-size="13" lengthAdjust="spacing" textLength="69.4434" x="378" y="736.8538">redis:6379</text></g><?plantuml-src bPFRRjD048Rl_HGZ8z4K50LQIjfS82LnN09jPPBGIb1KRUB5MMhlkdje6w6-3-KrycBChkt8WQQeoSrwvvkPVmwhBXdFYIGPS15J-Ea1_dfaTfb8ONZS5wcGS3PdcXOM8MCgYzk0oCjnIZGzb6JXtNbg5MecibnmolLOBr8A9ajtQjOSevE45ZP9Pvhm9AMUfvd62pzW944ieu1wWkLzdWf6Cmm6JJZjHeFF8sW4Fz17m7C8YTBTQBZjUvxJxtTpJ49Pgg2VCdHIFf3gN5RtzOHSimHr6woCJg45nsBAKlhDaZqfRXILM8utIuM9mHzoJIMdsWMgFgfqG_vTeWHfPjf8YddGnOTduO7zOpwNi42_O4SWCjEKNHcAp60_t0_tIarE5nO2XwZhXYoSblAy0hZGs32Mp3M8xvKLEk2VafJ5H3F1uSFPv1prmGYjSCGofXbFV1VYxXyrTiwKnz3e2woBOqCK10BlPElZljgs8W_2zY2iYIoy8n4hY1PwZXbRrH3y6bRKa-SfcnMwYecTyyQ4PhbT6WK3dZ1EjrsfXVaYb2XaFSYOociset1C4g8OnvbtZPuxfpBlHPziyEanxBRGy-KlRFcQon6RFkpI5rbcE35wUR-UGsGhXxiDxGm4vyjxgkm218DWqAyr1CT3faGXsa-DmYM2I2YTI3h-T8HT6NA5pm3pHv9bXE4glOIHtNsxB7OIjaUzY-ZmaO370biOz2hMVJw2ZsZCL0MxZx8iB6mBciqcXAcvjIeK9SPUUENZmFExrKkm-_T-Ced6lhUwilRQUexebLd-jYF7HoW9KWhVQmLOk3v-wp6uTP6WSOBTZOJK-C2trgc_SZHQ96Uj5yZLuzR6RQ5I8EvxqODXj877QJ-D9teZxzL5k6Bj7147FozMG7Nstkpk-5uzUmcw8JesiwVEJllLw_Q3v7z24lraqEs4OwKzTTxkjW_yFm00?></g></svg>