<?plantuml 1.2026.2?><svg xmlns="http://www.w3.org/2000/svg" xmlns:xlink="http://www.w3.org/1999/xlink" contentStyleType="text/css" data-diagram-type="DESCRIPTION" height="1189px" preserveAspectRatio="none" style="width:1108px;height:1189px;background:#FFFFFF;" version="1.1" viewBox="0 0 1108 1189" width="1108px" zoomAndPan="magnify"><title>Diagramme de D&#233;ploiement - VAPEUR (Django &amp; FastAPI)</title><defs/><g><g class="title" data-source-line="8"><text fill="#000000" font-family="sans-serif" font-size="14" font-weight="bold" lengthAdjust="spacing" textLength="455.4102" x="319.2949" y="22.9951">Diagramme de D&#233;ploiement - VAPEUR (Django &amp; FastAPI)</text></g><!--cluster Client--><g class="cluster" data-qualified-name="Client" data-source-line="10" id="ent0002"><polygon fill="#FFFFFF" points="444,53.2969,454,43.2969,688,43.2969,688,135.5969,678,145.5969,444,145.5969,444,53.2969" style="stroke:#2F4F4F;stroke-width:1;"/><line style="stroke:#2F4F4F;stroke-width:1;" x1="678" x2="688" y1="53.2969" y2="43.2969"/><line style="stroke:#2F4F4F;stroke-width:1;" x1="444" x2="678" y1="53.2969" y2="53.2969"/><line style="stroke:#2F4F4F;stroke-width:1;" x1="678" x2="678" y1="53.2969" y2="145.5969"/><text fill="#000000" font-family="sans-serif" font-size="14" font-weight="bold" lengthAdjust="spacing" textLength="133.8887" x="495.0557" y="69.292">Appareils Clients</text></g><!--cluster Infrastructure Cloud (ex: AWS / GCP / Azure)--><g class="cluster" data-qualified-name="Infrastructure Cloud .ex. AWS . GCP . Azure." data-source-line="16" id="ent0005"><polygon fill="#F9F9F9" points="16,327.8869,26,317.8869,1091,317.8869,1091,1162.9669,1081,1172.9669,16,1172.9669,16,327.8869" style="stroke:#2F4F4F;stroke-width:1;"/><line style="stroke:#2F4F4F;stroke-width:1;" x1="1081" x2="1091" y1="327.8869" y2="317.8869"/><line style="stroke:#2F4F4F;stroke-width:1;" x1="16" x2="1081" y1="327.8869" y2="327.8869"/><line style="stroke:#2F4F4F;stroke-width:1;" x1="1081" x2="1081" y1="327.8869" y2="1172.9669"/><text fill="#000000" font-family="sans-serif" font-size="14" font-weight="bold" lengthAdjust="spacing" textLength="350.5537" x="374.2231" y="343.882">Infrastructure Cloud (ex: AWS / GCP / Azure)</text></g><!--cluster Zone Publique (DMZ)--><g class="cluster" data-qualified-name="Infrastructure Cloud .ex. AWS . GCP . Azure..Zone Publique .DMZ." data-source-line="18" id="ent0006"><polygon fill="#E8F8F5" points="385,375.8869,395,365.8869,944,365.8869,944,749.0769,934,759.0769,385,759.0769,385,375.8869" style="stroke:#2F4F4F;stroke-width:1;"/><line style="stroke:#2F4F4F;stroke-width:1;" x1="934" x2="944" y1="375.8869" y2="365.8869"/><line style="stroke:#2F4F4F;stroke-width:1;" x1="385" x2="934" y1="375.8869" y2="375.8869"/><line style="stroke:#2F4F4F;stroke-width:1;" x1="934" x2="934" y1="375.8869" y2="759.0769"/><text fill="#000000" font-family="sans-serif" font-size="14" font-weight="bold" lengthAdjust="spacing" textLength="166.8105" x="577.0947" y="391.882">Zone Publique (DMZ)</text></g><!--cluster Serveurs Web (Frontend)--><g class="cluster" data-qualified-name="Infrastructure Cloud .ex. AWS . GCP . Azure..Zone Publique .DMZ..Serveurs Web .Frontend." data-source-line="22" id="ent0011"><polygon fill="#FFFFFF" points="644,525.1869,654,515.1869,920,515.1869,920,623.7769,910,633.7769,644,633.7769,644,525.1869" style="stroke:#2F4F4F;stroke-width:1;"/><line style="stroke:#2F4F4F;stroke-width:1;" x1="910" x2="920" y1="525.1869" y2="515.1869"/><line style="stroke:#2F4F4F;stroke-width:1;" x1="644" x2="910" y1="525.1869" y2="525.1869"/><line style="stroke:#2F4F4F;stroke-width:1;" x1="910" x2="910" y1="525.1869" y2="633.7769"/><text fill="#000000" font-family="sans-serif" font-size="14" font-weight="bold" lengthAdjust="spacing" textLength="200.04" x="677.98" y="541.182">Serveurs Web (Frontend)</text></g><!--cluster Zone Backend (R?seau Priv? - Conteneurs Docker/K8s)--><g class="cluster" data-qualified-name="Infrastructure Cloud .ex. AWS . GCP . Azure..Zone Backend .R.seau Priv. - Conteneurs Docker.K8s." data-source-line="30" id="ent0017"><polygon fill="#E9F7EF" points="143,818.0769,153,808.0769,877,808.0769,877,972.3769,867,982.3769,143,982.3769,143,818.0769" style="stroke:#2F4F4F;stroke-width:1;"/><line style="stroke:#2F4F4F;stroke-width:1;" x1="867" x2="877" y1="818.0769" y2="808.0769"/><line style="stroke:#2F4F4F;stroke-width:1;" x1="143" x2="867" y1="818.0769" y2="818.0769"/><line style="stroke:#2F4F4F;stroke-width:1;" x1="867" x2="867" y1="818.0769" y2="982.3769"/><text fill="#000000" font-family="sans-serif" font-size="14" font-weight="bold" lengthAdjust="spacing" textLength="432.3936" x="289.8032" y="834.072">Zone Backend (R&#233;seau Priv&#233; - Conteneurs Docker/K8s)</text></g><!--cluster Pods Python / FastAPI--><g class="cluster" data-qualified-name="Infrastructure Cloud .ex. AWS . GCP . Azure..Zone Backend .R.seau Priv. - Conteneurs Docker.K8s..Pods Python . FastAPI" data-source-line="31" id="ent0018"><polygon fill="#FFFFFF" points="167,866.0769,177,856.0769,853,856.0769,853,948.3769,843,958.3769,167,958.3769,167,866.0769" style="stroke:#2F4F4F;stroke-width:1;"/><line style="stroke:#2F4F4F;stroke-width:1;" x1="843" x2="853" y1="866.0769" y2="856.0769"/><line style="stroke:#2F4F4F;stroke-width:1;" x1="167" x2="843" y1="866.0769" y2="866.0769"/><line style="stroke:#2F4F4F;stroke-width:1;" x1="843" x2="843" y1="866.0769" y2="958.3769"/><text fill="#000000" font-family="sans-serif" font-size="14" font-weight="bold" lengthAdjust="spacing" textLength="173.9404" x="419.0298" y="882.072">Pods Python / FastAPI</text></g><!--cluster Zone Donn?es (R?seau Priv? Isol?)--><g class="cluster" data-qualified-name="Infrastructure Cloud .ex. AWS . GCP . Azure..Zone Donn.es .R.seau Priv. Isol.." data-source-line="38" id="ent0022"><polygon fill="#FDEDEC" points="192,1041.3769,202,1031.3769,832,1031.3769,832,1138.9669,822,1148.9669,192,1148.9669,192,1041.3769" style="stroke:#2F4F4F;stroke-width:1;"/><line style="stroke:#2F4F4F;stroke-width:1;" x1="822" x2="832" y1="1041.3769" y2="1031.3769"/><line style="stroke:#2F4F4F;stroke-width:1;" x1="192" x2="822" y1="1041.3769" y2="1041.3769"/><line style="stroke:#2F4F4F;stroke-width:1;" x1="822" x2="822" y1="1041.3769" y2="1148.9669"/><text fill="#000000" font-family="sans-serif" font-size="14" font-weight="bold" lengthAdjust="spacing" textLength="275.5771" x="370.2114" y="1057.372">Zone Donn&#233;es (R&#233;seau Priv&#233; Isol&#233;)</text></g><!--entity Browser--><g class="entity" data-qualified-name="Client.Browser" data-source-line="11" id="ent0003"><rect fill="#F1F1F1" height="46.2969" rx="2.5" ry="2.5" style="stroke:#181818;stroke-width:0.5;" width="212.7578" x="459.62" y="83.2969"/><rect fill="#F1F1F1" height="10" style="stroke:#181818;stroke-width:0.5;" width="15" x="652.3778" y="88.2969"/><rect fill="#F1F1F1" height="2" style="stroke:#181818;stroke-width:0.5;" width="4" x="650.3778" y="90.2969"/><rect fill="#F1F1F1" height="2" style="stroke:#181818;stroke-width:0.5;" width="4" x="650.3778" y="94.2969"/><text fill="#000000" font-family="sans-serif" font-size="14" lengthAdjust="spacing" textLength="172.7578" x="474.62" y="116.292">Navigateur Web / Mobile</text></g><!--entity LB--><g class="entity" data-qualified-name="Infrastructure Cloud .ex. AWS . GCP . Azure..Zone Publique .DMZ..LB" data-source-line="19" id="ent0007"><rect fill="#F1F1F1" height="46.2969" rx="2.5" ry="2.5" style="stroke:#181818;stroke-width:0.5;" width="204.3359" x="463.83" y="405.8869"/><rect fill="#F1F1F1" height="10" style="stroke:#181818;stroke-width:0.5;" width="15" x="648.1659" y="410.8869"/><rect fill="#F1F1F1" height="2" style="stroke:#181818;stroke-width:0.5;" width="4" x="646.1659" y="412.8869"/><rect fill="#F1F1F1" height="2" style="stroke:#181818;stroke-width:0.5;" width="4" x="646.1659" y="416.8869"/><text fill="#000000" font-family="sans-serif" font-size="14" lengthAdjust="spacing" textLength="164.3359" x="478.83" y="438.882">Load Balancer / Ingress</text></g><g class="entity" data-qualified-name="Infrastructure Cloud .ex. AWS . GCP . Azure..Zone Publique .DMZ..GMN8" data-source-line="20" id="ent0009"><path d="M703.46,408.9069 L703.46,425.0369 L668.61,429.0369 L703.46,433.0369 L703.46,449.1725 A0,0 0 0 0 703.46,449.1725 L864.5464,449.1725 A0,0 0 0 0 864.5464,449.1725 L864.5464,418.9069 L854.5464,408.9069 L703.46,408.9069 A0,0 0 0 0 703.46,408.9069" fill="#FEFFDD" style="stroke:#181818;stroke-width:0.5;"/><path d="M854.5464,408.9069 L854.5464,418.9069 L864.5464,418.9069 L854.5464,408.9069" fill="#FEFFDD" style="stroke:#181818;stroke-width:0.5;"/><text fill="#000000" font-family="sans-serif" font-size="13" lengthAdjust="spacing" textLength="140.0864" x="709.46" y="425.9738">Point d'entr&#233;e unique</text><text fill="#000000" font-family="sans-serif" font-size="13" lengthAdjust="spacing" textLength="136.3667" x="709.46" y="441.1066">(Terminaison HTTPS)</text></g><!--entity Gateway--><g class="entity" data-qualified-name="Infrastructure Cloud .ex. AWS . GCP . Azure..Zone Publique .DMZ..Gateway" data-source-line="26" id="ent0013"><rect fill="#F1F1F1" height="46.2969" rx="2.5" ry="2.5" style="stroke:#181818;stroke-width:0.5;" width="128.4434" x="453.78" y="696.7769"/><rect fill="#F1F1F1" height="10" style="stroke:#181818;stroke-width:0.5;" width="15" x="562.2234" y="701.7769"/><rect fill="#F1F1F1" height="2" style="stroke:#181818;stroke-width:0.5;" width="4" x="560.2234" y="703.7769"/><rect fill="#F1F1F1" height="2" style="stroke:#181818;stroke-width:0.5;" width="4" x="560.2234" y="707.7769"/><text fill="#000000" font-family="sans-serif" font-size="14" lengthAdjust="spacing" textLength="88.4434" x="468.78" y="729.772">API Gateway</text></g><g class="entity" data-qualified-name="Infrastructure Cloud .ex. AWS . GCP . Azure..Zone Publique .DMZ..GMN14" data-source-line="27" id="ent0015"><path d="M617.61,699.7969 L617.61,715.9269 L582.55,719.9269 L617.61,723.9269 L617.61,740.0625 A0,0 0 0 0 617.61,740.0625 L742.3942,740.0625 A0,0 0 0 0 742.3942,740.0625 L742.3942,709.7969 L732.3942,699.7969 L617.61,699.7969 A0,0 0 0 0 617.61,699.7969" fill="#FEFFDD" style="stroke:#181818;stroke-width:0.5;"/><path d="M732.3942,699.7969 L732.3942,709.7969 L742.3942,709.7969 L732.3942,699.7969" fill="#FEFFDD" style="stroke:#181818;stroke-width:0.5;"/><text fill="#000000" font-family="sans-serif" font-size="13" lengthAdjust="spacing" textLength="93.9644" x="623.61" y="716.8638">Validation JWT</text><text fill="#000000" font-family="sans-serif" font-size="13" lengthAdjust="spacing" textLength="103.7842" x="623.61" y="731.9966">et Rate Limiting</text></g><!--entity DjangoApp--><g class="entity" data-qualified-name="Infrastructure Cloud .ex. AWS . GCP . Azure..Zone Publique .DMZ..Serveurs Web .Frontend..DjangoApp" data-source-line="23" id="ent0012"><rect fill="#F1F1F1" height="62.5938" rx="2.5" ry="2.5" style="stroke:#181818;stroke-width:0.5;" width="200.2549" x="662.87" y="555.1869"/><rect fill="#F1F1F1" height="10" style="stroke:#181818;stroke-width:0.5;" width="15" x="843.1249" y="560.1869"/><rect fill="#F1F1F1" height="2" style="stroke:#181818;stroke-width:0.5;" width="4" x="841.1249" y="562.1869"/><rect fill="#F1F1F1" height="2" style="stroke:#181818;stroke-width:0.5;" width="4" x="841.1249" y="566.1869"/><text fill="#000000" font-family="sans-serif" font-size="14" lengthAdjust="spacing" textLength="132.248" x="677.87" y="588.182">Application Django</text><text fill="#000000" font-family="sans-serif" font-size="14" lengthAdjust="spacing" textLength="160.2549" x="677.87" y="604.4789">(Moteur de Templates)</text></g><!--entity FastAPI_Cat--><g class="entity" data-qualified-name="Infrastructure Cloud .ex. AWS . GCP . Azure..Zone Backend .R.seau Priv. - Conteneurs Docker.K8s..Pods Python . FastAPI.FastAPI_Cat" data-source-line="32" id="ent0019"><rect fill="#F1F1F1" height="46.2969" rx="2.5" ry="2.5" style="stroke:#181818;stroke-width:0.5;" width="207.002" x="183.5" y="896.0769"/><rect fill="#F1F1F1" height="10" style="stroke:#181818;stroke-width:0.5;" width="15" x="370.502" y="901.0769"/><rect fill="#F1F1F1" height="2" style="stroke:#181818;stroke-width:0.5;" width="4" x="368.502" y="903.0769"/><rect fill="#F1F1F1" height="2" style="stroke:#181818;stroke-width:0.5;" width="4" x="368.502" y="907.0769"/><text fill="#000000" font-family="sans-serif" font-size="14" lengthAdjust="spacing" textLength="167.002" x="198.5" y="929.072">Service Magasin &amp; Auth</text></g><!--entity FastAPI_Lib--><g class="entity" data-qualified-name="Infrastructure Cloud .ex. AWS . GCP . Azure..Zone Backend .R.seau Priv. - Conteneurs Docker.K8s..Pods Python . FastAPI.FastAPI_Lib" data-source-line="33" id="ent0020"><rect fill="#F1F1F1" height="46.2969" rx="2.5" ry="2.5" style="stroke:#181818;stroke-width:0.5;" width="184.2656" x="425.87" y="896.0769"/><rect fill="#F1F1F1" height="10" style="stroke:#181818;stroke-width:0.5;" width="15" x="590.1356" y="901.0769"/><rect fill="#F1F1F1" height="2" style="stroke:#181818;stroke-width:0.5;" width="4" x="588.1356" y="903.0769"/><rect fill="#F1F1F1" height="2" style="stroke:#181818;stroke-width:0.5;" width="4" x="588.1356" y="907.0769"/><text fill="#000000" font-family="sans-serif" font-size="14" lengthAdjust="spacing" textLength="144.2656" x="440.87" y="929.072">Service Biblioth&#232;que</text></g><!--entity FastAPI_Com--><g class="entity" data-qualified-name="Infrastructure Cloud .ex. AWS . GCP . Azure..Zone Backend .R.seau Priv. - Conteneurs Docker.K8s..Pods Python . FastAPI.FastAPI_Com" data-source-line="34" id="ent0021"><rect fill="#F1F1F1" height="46.2969" rx="2.5" ry="2.5" style="stroke:#181818;stroke-width:0.5;" width="191.1084" x="645.45" y="896.0769"/><rect fill="#F1F1F1" height="10" style="stroke:#181818;stroke-width:0.5;" width="15" x="816.5584" y="901.0769"/><rect fill="#F1F1F1" height="2" style="stroke:#181818;stroke-width:0.5;" width="4" x="814.5584" y="903.0769"/><rect fill="#F1F1F1" height="2" style="stroke:#181818;stroke-width:0.5;" width="4" x="814.5584" y="907.0769"/><text fill="#000000" font-family="sans-serif" font-size="14" lengthAdjust="spacing" textLength="151.1084" x="660.45" y="929.072">Service Communaut&#233;</text></g><!--entity DB_PG--><g class="entity" data-qualified-name="Infrastructure Cloud .ex. AWS . GCP . Azure..Zone Donn.es .R.seau Priv. Isol...DB_PG" data-source-line="39" id="ent0023"><path d="M396.6,1081.3769 C396.6,1071.3769 517.995,1071.3769 517.995,1071.3769 C517.995,1071.3769 639.39,1071.3769 639.39,1081.3769 L639.39,1122.9706 C639.39,1132.9706 517.995,1132.9706 517.995,1132.9706 C517.995,1132.9706 396.6,1132.9706 396.6,1122.9706 L396.6,1081.3769" fill="#F1F1F1" style="stroke:#181818;stroke-width:0.5;"/><path d="M396.6,1081.3769 C396.6,1091.3769 517.995,1091.3769 517.995,1091.3769 C517.995,1091.3769 639.39,1091.3769 639.39,1081.3769" fill="none" style="stroke:#181818;stroke-width:0.5;"/><text fill="#000000" font-family="sans-serif" font-size="14" lengthAdjust="spacing" textLength="134.8936" x="406.6" y="1108.372">Cluster PostgreSQL</text><text fill="#000000" font-family="sans-serif" font-size="14" lengthAdjust="spacing" textLength="222.79" x="406.6" y="1124.6689">(Instance Primaire + R&#233;pliques)</text></g><!--entity DB_Mongo--><g class="entity" data-qualified-name="Infrastructure Cloud .ex. AWS . GCP . Azure..Zone Donn.es .R.seau Priv. Isol...DB_Mongo" data-source-line="40" id="ent0024"><path d="M674.25,1081.3769 C674.25,1071.3769 744.9976,1071.3769 744.9976,1071.3769 C744.9976,1071.3769 815.7451,1071.3769 815.7451,1081.3769 L815.7451,1122.9706 C815.7451,1132.9706 744.9976,1132.9706 744.9976,1132.9706 C744.9976,1132.9706 674.25,1132.9706 674.25,1122.9706 L674.25,1081.3769" fill="#F1F1F1" style="stroke:#181818;stroke-width:0.5;"/><path d="M674.25,1081.3769 C674.25,1091.3769 744.9976,1091.3769 744.9976,1091.3769 C744.9976,1091.3769 815.7451,1091.3769 815.7451,1081.3769" fill="none" style="stroke:#181818;stroke-width:0.5;"/><text fill="#000000" font-family="sans-serif" font-size="14" lengthAdjust="spacing" textLength="121.4951" x="684.25" y="1108.372">Cluster MongoDB</text><text fill="#000000" font-family="sans-serif" font-size="14" lengthAdjust="spacing" textLength="89.6465" x="684.25" y="1124.6689">(Replica Set)</text></g><!--entity DB_Redis--><g class="entity" data-qualified-name="Infrastructure Cloud .ex. AWS . GCP . Azure..Zone Donn.es .R.seau Priv. Isol...DB_Redis" data-source-line="41" id="ent0025"><path d="M208.05,1081.3769 C208.05,1071.3769 285.0012,1071.3769 285.0012,1071.3769 C285.0012,1071.3769 361.9523,1071.3769 361.9523,1081.3769 L361.9523,1122.9706 C361.9523,1132.9706 285.0012,1132.9706 285.0012,1132.9706 C285.0012,1132.9706 208.05,1132.9706 208.05,1122.9706 L208.05,1081.3769" fill="#F1F1F1" style="stroke:#181818;stroke-width:0.5;"/><path d="M208.05,1081.3769 C208.05,1091.3769 285.0012,1091.3769 285.0012,1091.3769 C285.0012,1091.3769 361.9523,1091.3769 361.9523,1081.3769" fill="none" style="stroke:#181818;stroke-width:0.5;"/><text fill="#000000" font-family="sans-serif" font-size="14" lengthAdjust="spacing" textLength="92.5518" x="218.05" y="1108.372">Cluster Redis</text><text fill="#000000" font-family="sans-serif" font-size="14" lengthAdjust="spacing" textLength="133.9023" x="218.05" y="1124.6689">(In-Memory Cache)</text></g><!--entity Internet--><g class="entity" data-qualified-name="Internet" data-source-line="14" id="ent0004"><path d="M532.8518,217.4775 C535.9475,212.4434 539.8761,212.1783 543.6835,216.6681 C546.7915,210.4962 551.1358,210.5969 555.3775,215.4676 C558.2935,210.145 562.5613,209.6676 566.1413,214.7829 C569.8898,209.8585 573.7467,208.7578 577.734,214.5239 C582.7772,209.2605 587.0082,209.4092 589.8507,216.6555 C593.9083,211.488 598.5661,211.7625 602.2525,217.094 C609.5904,219.9334 611.3277,227.2895 605.0129,232.5649 C610.8175,238.9665 610.663,244.0502 602.667,248.4084 C600.7128,254.569 595.179,254.9771 591.4302,250.2627 C588.4904,258.536 584.0231,259.578 577.8992,253.2043 C576.9668,258.9205 572.2734,261.1034 567.3854,257.831 C562.7873,262.0292 557.5043,261.4893 555.5421,254.9292 C549.0223,259.7647 545.7972,257.1306 543.5899,250.4524 C539.3816,254.908 534.3143,254.4396 531.6427,248.6589 C521.9847,247.6862 518.7638,240.4627 525.3599,232.9777 C519.2429,223.9954 522.3357,218.4204 532.8518,217.4775" fill="#F1F1F1" style="stroke:#181818;stroke-width:0.5;"/><text fill="#000000" font-family="sans-serif" font-size="14" lengthAdjust="spacing" textLength="55.8359" x="538.08" y="236.592">Internet</text></g><!--link Browser to Internet--><g class="link" data-entity-1="ent0003" data-entity-2="ent0004" data-link-type="dependency" data-source-line="46" id="lnk26"><path d="M566,130.0569 C566,152.3069 566,180.0769 566,202.2669" fill="none" id="Browser-to-Internet" style="stroke:#181818;stroke-width:1;"/><polygon fill="#181818" points="566,208.2669,570,199.2669,566,203.2669,562,199.2669,566,208.2669" style="stroke:#181818;stroke-width:1;"/><text fill="#000000" font-family="sans-serif" font-size="13" lengthAdjust="spacing" textLength="41.7485" x="567" y="174.6638">HTTPS</text></g><!--link Internet to LB--><g class="link" data-entity-1="ent0004" data-entity-2="ent0007" data-link-type="dependency" data-source-line="47" id="lnk27"><path d="M566,255.1469 C566,292.7169 566,361.9969 566,399.5969" fill="none" id="Internet-to-LB" style="stroke:#181818;stroke-width:1;"/><polygon fill="#181818" points="566,405.5969,570,396.5969,566,400.5969,562,396.5969,566,405.5969" style="stroke:#181818;stroke-width:1;"/><text fill="#000000" font-family="sans-serif" font-size="13" lengthAdjust="spacing" textLength="128.2734" x="567" y="297.9538">Requ&#234;tes entrantes</text></g><!--link LB to DjangoApp--><g class="link" data-entity-1="ent0007" data-entity-2="ent0012" data-link-type="dependency" data-source-line="50" id="lnk28"><path d="M594.65,452.6369 C628.79,479.5869 681.3098,521.0201 719.4298,551.1001" fill="none" id="LB-to-DjangoApp" style="stroke:#181818;stroke-width:1;"/><polygon fill="#181818" points="724.14,554.8169,719.5526,546.1016,720.2148,551.7196,714.5969,552.3819,724.14,554.8169" style="stroke:#181818;stroke-width:1;"/><text fill="#000000" font-family="sans-serif" font-size="13" lengthAdjust="spacing" textLength="172.2817" x="653.71" y="495.2538">Requ&#234;tes UI (Pages HTML)</text></g><!--link LB to Gateway--><g class="link" data-entity-1="ent0007" data-entity-2="ent0013" data-link-type="dependency" data-source-line="51" id="lnk29"><path d="M513.74,452.5369 C491.38,465.1169 467.56,483.1669 455,507.1869 C427.29,560.1969 434.92,585.4369 455,641.7769 C462.49,662.7869 474.2071,677.9546 488.1771,692.0546" fill="none" id="LB-to-Gateway" style="stroke:#181818;stroke-width:1;"/><polygon fill="#181818" points="492.4,696.3169,488.9071,687.1082,488.8809,692.765,483.2241,692.7388,492.4,696.3169" style="stroke:#181818;stroke-width:1;"/><text fill="#000000" font-family="sans-serif" font-size="13" lengthAdjust="spacing" textLength="190.0615" x="456" y="591.0538">Requ&#234;tes API clientes (/api/*)</text></g><!--link DjangoApp to Gateway--><g class="link" data-entity-1="ent0012" data-entity-2="ent0013" data-link-type="dependency" data-source-line="54" id="lnk30"><path d="M705.87,618.1369 C661.19,642.1069 605.3873,672.0507 565.1573,693.6307" fill="none" id="DjangoApp-to-Gateway" style="stroke:#181818;stroke-width:1;"/><polygon fill="#181818" points="559.87,696.4669,569.6918,695.7375,564.2761,694.1034,565.9102,688.6877,559.87,696.4669" style="stroke:#181818;stroke-width:1;"/><text fill="#000000" font-family="sans-serif" font-size="13" lengthAdjust="spacing" textLength="264.6719" x="641.5" y="662.8438">Requ&#234;tes serveur &#224; serveur (REST/JSON)</text></g><!--link Gateway to FastAPI_Lib--><g class="link" data-entity-1="ent0013" data-entity-2="ent0020" data-link-type="dependency" data-source-line="57" id="lnk31"><path d="M518,743.5569 C518,781.6169 518,851.9769 518,889.8569" fill="none" id="Gateway-to-FastAPI_Lib" style="stroke:#181818;stroke-width:1;"/><polygon fill="#181818" points="518,895.8569,522,886.8569,518,890.8569,514,886.8569,518,895.8569" style="stroke:#181818;stroke-width:1;"/><text fill="#000000" font-family="sans-serif" font-size="13" lengthAdjust="spacing" textLength="152.9722" x="519" y="788.1438">Routage interne (HTTP)</text></g><!--link Gateway to FastAPI_Com--><g class="link" data-entity-1="ent0013" data-entity-2="ent0021" data-link-type="dependency" data-source-line="58" id="lnk32"><path d="M550.87,743.5569 C565.32,752.3769 582.87,761.6569 600,767.0769 C617.04,772.4569 665.6,764.4969 680,775.0769 C719.29,803.9569 732.594,857.3457 737.554,889.8157" fill="none" id="Gateway-to-FastAPI_Com" style="stroke:#181818;stroke-width:1;"/><polygon fill="#181818" points="738.46,895.7469,741.0551,886.2461,737.705,890.8042,733.1468,887.4541,738.46,895.7469" style="stroke:#181818;stroke-width:1;"/><text fill="#000000" font-family="sans-serif" font-size="13" lengthAdjust="spacing" textLength="152.9722" x="696.25" y="788.1438">Routage interne (HTTP)</text></g><!--link Gateway to FastAPI_Cat--><g class="link" data-entity-1="ent0013" data-entity-2="ent0019" data-link-type="dependency" data-source-line="59" id="lnk33"><path d="M453.62,730.2469 C421.21,737.7469 383.15,751.1669 356,775.0769 C319.05,807.6269 301.5796,858.5673 293.4796,889.9473" fill="none" id="Gateway-to-FastAPI_Cat" style="stroke:#181818;stroke-width:1;"/><polygon fill="#181818" points="291.98,895.7569,298.1025,888.0422,293.2297,890.9156,290.3564,886.0428,291.98,895.7569" style="stroke:#181818;stroke-width:1;"/><text fill="#000000" font-family="sans-serif" font-size="13" lengthAdjust="spacing" textLength="152.9722" x="357" y="788.1438">Routage interne (HTTP)</text></g><!--link FastAPI_Lib to DB_PG--><g class="link" data-entity-1="ent0020" data-entity-2="ent0023" data-link-type="dependency" data-source-line="62" id="lnk34"><path d="M516.9,942.7869 C516.2,958.3969 515.36,979.6369 515,998.3769 C514.53,1022.8269 515.148,1044.553 516.078,1065.043" fill="none" id="FastAPI_Lib-to-DB_PG" style="stroke:#181818;stroke-width:1;"/><polygon fill="#181818" points="516.35,1071.0369,519.9378,1061.8648,516.1233,1066.042,511.946,1062.2275,516.35,1071.0369" style="stroke:#181818;stroke-width:1;"/><text fill="#000000" font-family="sans-serif" font-size="13" lengthAdjust="spacing" textLength="62.0737" x="516" y="1011.4438">TCP 5432</text></g><!--link FastAPI_Com to DB_Mongo--><g class="link" data-entity-1="ent0021" data-entity-2="ent0024" data-link-type="dependency" data-source-line="63" id="lnk35"><path d="M803.25,942.7269 C828.01,955.0969 853.92,973.1769 868,998.3769 C885.92,1030.4369 858.0404,1054.1114 821.6104,1072.0914" fill="none" id="FastAPI_Com-to-DB_Mongo" style="stroke:#181818;stroke-width:1;"/><polygon fill="#181818" points="816.23,1074.7469,826.0709,1074.3506,820.7136,1072.534,822.5302,1067.1767,816.23,1074.7469" style="stroke:#181818;stroke-width:1;"/><text fill="#000000" font-family="sans-serif" font-size="13" lengthAdjust="spacing" textLength="166.7212" x="873.82" y="1011.4438">TCP 27017 (&#201;criture Avis)</text></g><!--link FastAPI_Com to DB_PG--><g class="link" data-entity-1="ent0021" data-entity-2="ent0023" data-link-type="dependency" data-source-line="64" id="lnk36"><path d="M704.64,942.8469 C682.5,956.6069 653.63,974.5269 628,990.3769 C622.23,993.9369 620.26,994.0869 615,998.3769 C587.97,1020.3669 564.9854,1045.0319 546.4054,1066.7019" fill="none" id="FastAPI_Com-to-DB_PG" style="stroke:#181818;stroke-width:1;"/><polygon fill="#181818" points="542.5,1071.2569,551.3948,1067.0281,545.7545,1067.4611,545.3215,1061.8208,542.5,1071.2569" style="stroke:#181818;stroke-width:1;"/><text fill="#000000" font-family="sans-serif" font-size="13" lengthAdjust="spacing" textLength="243.7183" x="616" y="1011.4438">TCP 5432 (Lecture: V&#233;rif. possession)</text></g><!--link FastAPI_Cat to DB_PG--><g class="link" data-entity-1="ent0019" data-entity-2="ent0023" data-link-type="dependency" data-source-line="65" id="lnk37"><path d="M289.53,942.4669 C293.3,964.5569 302.53,997.6169 325,1015.3769 C344.03,1030.4169 356.04,1015.5369 379,1023.3769 C412.63,1034.8469 442.4431,1051.1993 468.8631,1067.8393" fill="none" id="FastAPI_Cat-to-DB_PG" style="stroke:#181818;stroke-width:1;"/><polygon fill="#181818" points="473.94,1071.0369,468.4563,1062.8559,469.7092,1068.3722,464.1928,1069.6251,473.94,1071.0369" style="stroke:#181818;stroke-width:1;"/><text fill="#000000" font-family="sans-serif" font-size="13" lengthAdjust="spacing" textLength="180.7939" x="326" y="1011.4438">TCP 5432 (Lecture/&#201;criture)</text></g><!--link FastAPI_Cat to DB_Redis--><g class="link" data-entity-1="ent0019" data-entity-2="ent0025" data-link-type="dependency" data-source-line="66" id="lnk38"><path d="M183.12,930.2769 C138.86,940.2969 91.23,959.9769 64,998.3769 C23.3,1055.7569 122.7308,1081.1146 201.6108,1092.4346" fill="none" id="FastAPI_Cat-to-DB_Redis" style="stroke:#181818;stroke-width:1;"/><polygon fill="#181818" points="207.55,1093.2869,199.2095,1088.049,202.6007,1092.5766,198.0731,1095.9678,207.55,1093.2869" style="stroke:#181818;stroke-width:1;"/><text fill="#000000" font-family="sans-serif" font-size="13" lengthAdjust="spacing" textLength="187.0718" x="65" y="1011.4438">TCP 6379 (Cache Catalogue)</text></g><?plantuml-src bLNRRXit47tVhnYuGBDgeQfrcjhEGm5T7QLIkfMK64XI1DIAbbZlaWh9LQ8M-O3-HH-Z_iR-M0-v5qknRA0sOAoNSywScJd3DJT2hfbcAKcruFHNGFZfiFXcgLKc5rsLA4rNAs5vSQBqWklYRO_fcsd2BB_KR1jy2anD5QjqhIINTcgt2QSiJKxtJjTWPqjUd6aUMoQN2Gy2AonUz0HR8Yhb13czVBTEbE0fkAX9hzfH_-M4mjuVW2ZwcWRCs7OqR0I1Lt_INYC55ucXRYA0CIV4gkUojZSls4OieJf3NNnEBHghkKZuxowoezK7mpMA2U94PGiw6KhBjUJM4rN_LEc6ybf3WSvYcscEF0uIyezFgNqr1VDbDyBVzfyuR9pGLuCBzmiTNaX1yHfzeYYR9-9znb7P-BMBx9yFpWTFIiLUzKYn1UQIC1bp3TAXN6fkZ5SzwjHnKbdqL2nNbjGr3kWfHKgW-CKZj43dEqn3kbHlPJZZEXMI2QCaFPlDeccZfjdZSoAdN6_GB-CR5WwqGX_a0a9l1NgHQ7yYOcO568iP8SrO-Lw3PyRJjVEBQNZPHGGmDScdkmBUOBnq2T07jlMeylcUYijJbFsA9M9HI7b-DNkBgT44XpGIgR12BeCYuPUZSDP7RHHEyftXBAD8Yqs-W_cwlchVXfv2a6xzScxyi2u6P_t1NYyAkaWj34LRkuA2LkNKEorphHKnfp5RCYCaFDtExCfNMaBUTPazZka8s4RPLVuP0ps0ZCJyEAIhqZIJBBFvxZ27Ih-OmjtMz9IKC92vqvkXKKc-ymxlzNlzxbwDc02RCmEARf8PR0_iQ2oiE_rj16yCfR7EqOufPG8xz2rDtCuxYxhcEfjqtaMN3n2E5LpKwu1jmhtzQCfj3VMd3w0dV26CLz8SyrJfBNLPlE8rtf-N3K5B7b6psQH1adsagWbu4PJt1fv_hYy9UD1lLL2_SAT-9IVyVPR_YqKWjvGCvyPHJrHcSJ5YLTQPC8JBy63h0s0THRqt1qmlXnH6G1ja7OyQLV3jGjo6kfMA_PteXjbYQz7wfk445EweDXYC6wwByB3QYsjS_FK54DnAkI-NAQuEol-f7yD9VpfhFP_--gAnNtM5zZd78jRA5AQjNHfK8IxPdjLTmf945BscqBM-SHI08lydWDdx0IYW7SVvPtmxu2lZFrhLdjHpBDhWIWdsPVjXEdU3VePFnPCV7vy6-pBB0E_XCkRqxFiVpYZC_uwry1-TzaQOnZ7K0Is58-u_KhWOyvqMrz_HMXa8DfZq7fpPX-6jEl5HaD-M4lVJuxCB2lqsOQSiIzGouut_0000?></g></svg>