<?plantuml 1.2026.2?><svg xmlns="http://www.w3.org/2000/svg" xmlns:xlink="http://www.w3.org/1999/xlink" contentStyleType="text/css" data-diagram-type="CLASS" height="860px" preserveAspectRatio="none" style="width:607px;height:860px;background:#FFFFFF;" version="1.1" viewBox="0 0 607 860" width="607px" zoomAndPan="magnify"><defs/><g><!--class User--><g class="entity" data-qualified-name="User" data-source-line="3" id="ent0002"><rect fill="#F1F1F1" height="162.0781" rx="2.5" ry="2.5" style="stroke:#181818;stroke-width:0.5;" width="133.8916" x="174.94" y="7"/><ellipse cx="221.6807" cy="23" fill="#ADD1B2" rx="11" ry="11" style="stroke:#181818;stroke-width:1;"/><path d="M224.6495,28.6406 Q224.0713,28.9375 223.4307,29.0781 Q222.7901,29.2344 222.087,29.2344 Q219.587,29.2344 218.2588,27.5938 Q216.9463,25.9375 216.9463,22.8125 Q216.9463,19.6875 218.2588,18.0313 Q219.587,16.375 222.087,16.375 Q222.7901,16.375 223.4307,16.5313 Q224.087,16.6875 224.6495,16.9844 L224.6495,19.7031 Q224.0245,19.125 223.4307,18.8594 Q222.837,18.5781 222.212,18.5781 Q220.8682,18.5781 220.1807,19.6563 Q219.4932,20.7188 219.4932,22.8125 Q219.4932,24.9063 220.1807,25.9844 Q220.8682,27.0469 222.212,27.0469 Q222.837,27.0469 223.4307,26.7813 Q224.0245,26.5 224.6495,25.9219 L224.6495,28.6406 Z " fill="#000000"/><text fill="#000000" font-family="sans-serif" font-size="14" lengthAdjust="spacing" textLength="31.9102" x="242.1807" y="27.8467">User</text><line style="stroke:#181818;stroke-width:0.5;" x1="175.94" x2="307.8316" y1="39" y2="39"/><text fill="#000000" font-family="sans-serif" font-size="14" lengthAdjust="spacing" textLength="102.4023" x="180.94" y="55.9951">-String pseudo</text><text fill="#000000" font-family="sans-serif" font-size="14" lengthAdjust="spacing" textLength="89.8926" x="180.94" y="72.292">-String email</text><text fill="#000000" font-family="sans-serif" font-size="14" lengthAdjust="spacing" textLength="117.9951" x="180.94" y="88.5889">-String password</text><text fill="#000000" font-family="sans-serif" font-size="14" lengthAdjust="spacing" textLength="121.8916" x="180.94" y="104.8857">-String biography</text><text fill="#000000" font-family="sans-serif" font-size="14" lengthAdjust="spacing" textLength="53.833" x="180.94" y="121.1826">-int age</text><line style="stroke:#181818;stroke-width:0.5;" x1="175.94" x2="307.8316" y1="128.4844" y2="128.4844"/><text fill="#000000" font-family="sans-serif" font-size="14" lengthAdjust="spacing" textLength="56.7588" x="180.94" y="145.4795">+login()</text><text fill="#000000" font-family="sans-serif" font-size="14" lengthAdjust="spacing" textLength="66.9238" x="180.94" y="161.7764">+logout()</text></g><!--class Game--><g class="entity" data-qualified-name="Game" data-source-line="14" id="ent0003"><rect fill="#F1F1F1" height="145.7813" rx="2.5" ry="2.5" style="stroke:#181818;stroke-width:0.5;" width="144.8906" x="219.44" y="436.27"/><ellipse cx="266.796" cy="452.27" fill="#ADD1B2" rx="11" ry="11" style="stroke:#181818;stroke-width:1;"/><path d="M269.7647,457.9106 Q269.1866,458.2075 268.546,458.3481 Q267.9053,458.5044 267.2022,458.5044 Q264.7022,458.5044 263.3741,456.8638 Q262.0616,455.2075 262.0616,452.0825 Q262.0616,448.9575 263.3741,447.3013 Q264.7022,445.645 267.2022,445.645 Q267.9053,445.645 268.546,445.8013 Q269.2022,445.9575 269.7647,446.2544 L269.7647,448.9731 Q269.1397,448.395 268.546,448.1294 Q267.9522,447.8481 267.3272,447.8481 Q265.9835,447.8481 265.296,448.9263 Q264.6085,449.9888 264.6085,452.0825 Q264.6085,454.1763 265.296,455.2544 Q265.9835,456.3169 267.3272,456.3169 Q267.9522,456.3169 268.546,456.0513 Q269.1397,455.77 269.7647,455.1919 L269.7647,457.9106 Z " fill="#000000"/><text fill="#000000" font-family="sans-serif" font-size="14" lengthAdjust="spacing" textLength="41.6787" x="287.296" y="457.1167">Game</text><line style="stroke:#181818;stroke-width:0.5;" x1="220.44" x2="363.3306" y1="468.27" y2="468.27"/><text fill="#000000" font-family="sans-serif" font-size="14" lengthAdjust="spacing" textLength="90.9863" x="225.44" y="485.2651">-String name</text><text fill="#000000" font-family="sans-serif" font-size="14" lengthAdjust="spacing" textLength="122.2744" x="225.44" y="501.562">-String thumbnail</text><text fill="#000000" font-family="sans-serif" font-size="14" lengthAdjust="spacing" textLength="129.124" x="225.44" y="517.8589">-String description</text><text fill="#000000" font-family="sans-serif" font-size="14" lengthAdjust="spacing" textLength="78.9209" x="225.44" y="534.1557">-Float price</text><text fill="#000000" font-family="sans-serif" font-size="14" lengthAdjust="spacing" textLength="132.8906" x="225.44" y="550.4526">-Date release_date</text><line style="stroke:#181818;stroke-width:0.5;" x1="220.44" x2="363.3306" y1="557.7544" y2="557.7544"/><text fill="#000000" font-family="sans-serif" font-size="14" lengthAdjust="spacing" textLength="121.5293" x="225.44" y="574.7495">+getComments()</text></g><!--class Comment--><g class="entity" data-qualified-name="Comment" data-source-line="23" id="ent0004"><rect fill="#F1F1F1" height="194.6719" rx="2.5" ry="2.5" style="stroke:#181818;stroke-width:0.5;" width="123.7676" x="7" y="659.05"/><ellipse cx="32.4291" cy="675.05" fill="#ADD1B2" rx="11" ry="11" style="stroke:#181818;stroke-width:1;"/><path d="M35.3979,680.6906 Q34.8197,680.9875 34.1791,681.1281 Q33.5385,681.2844 32.8354,681.2844 Q30.3354,681.2844 29.0072,679.6438 Q27.6947,677.9875 27.6947,674.8625 Q27.6947,671.7375 29.0072,670.0813 Q30.3354,668.425 32.8354,668.425 Q33.5385,668.425 34.1791,668.5813 Q34.8354,668.7375 35.3979,669.0344 L35.3979,671.7531 Q34.7729,671.175 34.1791,670.9094 Q33.5854,670.6281 32.9604,670.6281 Q31.6166,670.6281 30.9291,671.7063 Q30.2416,672.7688 30.2416,674.8625 Q30.2416,676.9563 30.9291,678.0344 Q31.6166,679.0969 32.9604,679.0969 Q33.5854,679.0969 34.1791,678.8313 Q34.7729,678.55 35.3979,677.9719 L35.3979,680.6906 Z " fill="#000000"/><text fill="#000000" font-family="sans-serif" font-size="14" lengthAdjust="spacing" textLength="68.5918" x="48.7467" y="679.8967">Comment</text><line style="stroke:#181818;stroke-width:0.5;" x1="8" x2="129.7676" y1="691.05" y2="691.05"/><text fill="#000000" font-family="sans-serif" font-size="14" lengthAdjust="spacing" textLength="104.8838" x="13" y="708.0451">-String content</text><text fill="#000000" font-family="sans-serif" font-size="14" lengthAdjust="spacing" textLength="97.4189" x="13" y="724.342">-String author</text><text fill="#000000" font-family="sans-serif" font-size="14" lengthAdjust="spacing" textLength="111.7676" x="13" y="740.6389">-Date post_date</text><text fill="#000000" font-family="sans-serif" font-size="14" lengthAdjust="spacing" textLength="83.7607" x="13" y="756.9357">-int upvotes</text><text fill="#000000" font-family="sans-serif" font-size="14" lengthAdjust="spacing" textLength="103.7764" x="13" y="773.2326">-int downvotes</text><line style="stroke:#181818;stroke-width:0.5;" x1="8" x2="129.7676" y1="780.5344" y2="780.5344"/><text fill="#000000" font-family="sans-serif" font-size="14" lengthAdjust="spacing" textLength="52.8896" x="13" y="797.5295">+post()</text><text fill="#000000" font-family="sans-serif" font-size="14" lengthAdjust="spacing" textLength="76.125" x="13" y="813.8264">+remove()</text><text fill="#000000" font-family="sans-serif" font-size="14" lengthAdjust="spacing" textLength="72.6592" x="13" y="830.1232">+upVote()</text><text fill="#000000" font-family="sans-serif" font-size="14" lengthAdjust="spacing" textLength="92.6748" x="13" y="846.4201">+downVote()</text></g><!--class Library--><g class="entity" data-qualified-name="Library" data-source-line="35" id="ent0005"><rect fill="#F1F1F1" height="80.5938" rx="2.5" ry="2.5" style="stroke:#181818;stroke-width:0.5;" width="163.2109" x="91.28" y="262.38"/><ellipse cx="144.1594" cy="278.38" fill="#ADD1B2" rx="11" ry="11" style="stroke:#181818;stroke-width:1;"/><path d="M147.1281,284.0206 Q146.55,284.3175 145.9094,284.4581 Q145.2688,284.6144 144.5656,284.6144 Q142.0656,284.6144 140.7375,282.9738 Q139.425,281.3175 139.425,278.1925 Q139.425,275.0675 140.7375,273.4113 Q142.0656,271.755 144.5656,271.755 Q145.2688,271.755 145.9094,271.9113 Q146.5656,272.0675 147.1281,272.3644 L147.1281,275.0831 Q146.5031,274.505 145.9094,274.2394 Q145.3156,273.9581 144.6906,273.9581 Q143.3469,273.9581 142.6594,275.0363 Q141.9719,276.0988 141.9719,278.1925 Q141.9719,280.2863 142.6594,281.3644 Q143.3469,282.4269 144.6906,282.4269 Q145.3156,282.4269 145.9094,282.1613 Q146.5031,281.88 147.1281,281.3019 L147.1281,284.0206 Z " fill="#000000"/><text fill="#000000" font-family="sans-serif" font-size="14" lengthAdjust="spacing" textLength="48.9521" x="164.6594" y="283.2267">Library</text><line style="stroke:#181818;stroke-width:0.5;" x1="92.28" x2="253.4909" y1="294.38" y2="294.38"/><line style="stroke:#181818;stroke-width:0.5;" x1="92.28" x2="253.4909" y1="302.38" y2="302.38"/><text fill="#000000" font-family="sans-serif" font-size="14" lengthAdjust="spacing" textLength="132.3643" x="97.28" y="319.3751">+addGame(Game)</text><text fill="#000000" font-family="sans-serif" font-size="14" lengthAdjust="spacing" textLength="151.2109" x="97.28" y="335.672">+getPlayTime(Game)</text></g><!--class Wishlist--><g class="entity" data-qualified-name="Wishlist" data-source-line="40" id="ent0006"><rect fill="#F1F1F1" height="80.5938" rx="2.5" ry="2.5" style="stroke:#181818;stroke-width:0.5;" width="129.8037" x="289.98" y="262.38"/><ellipse cx="324.4838" cy="278.38" fill="#ADD1B2" rx="11" ry="11" style="stroke:#181818;stroke-width:1;"/><path d="M327.4526,284.0206 Q326.8744,284.3175 326.2338,284.4581 Q325.5932,284.6144 324.8901,284.6144 Q322.3901,284.6144 321.0619,282.9738 Q319.7494,281.3175 319.7494,278.1925 Q319.7494,275.0675 321.0619,273.4113 Q322.3901,271.755 324.8901,271.755 Q325.5932,271.755 326.2338,271.9113 Q326.8901,272.0675 327.4526,272.3644 L327.4526,275.0831 Q326.8276,274.505 326.2338,274.2394 Q325.6401,273.9581 325.0151,273.9581 Q323.6713,273.9581 322.9838,275.0363 Q322.2963,276.0988 322.2963,278.1925 Q322.2963,280.2863 322.9838,281.3644 Q323.6713,282.4269 325.0151,282.4269 Q325.6401,282.4269 326.2338,282.1613 Q326.8276,281.88 327.4526,281.3019 L327.4526,284.0206 Z " fill="#000000"/><text fill="#000000" font-family="sans-serif" font-size="14" lengthAdjust="spacing" textLength="54.4619" x="342.818" y="283.2267">Wishlist</text><line style="stroke:#181818;stroke-width:0.5;" x1="290.98" x2="418.7837" y1="294.38" y2="294.38"/><line style="stroke:#181818;stroke-width:0.5;" x1="290.98" x2="418.7837" y1="302.38" y2="302.38"/><text fill="#000000" font-family="sans-serif" font-size="14" lengthAdjust="spacing" textLength="90.6855" x="295.98" y="319.3751">+add(Game)</text><text fill="#000000" font-family="sans-serif" font-size="14" lengthAdjust="spacing" textLength="117.8037" x="295.98" y="335.672">+remove(Game)</text></g><!--class Basket--><g class="entity" data-qualified-name="Basket" data-source-line="45" id="ent0007"><rect fill="#F1F1F1" height="113.1875" rx="2.5" ry="2.5" style="stroke:#181818;stroke-width:0.5;" width="145.9844" x="454.89" y="246.08"/><ellipse cx="499.7884" cy="262.08" fill="#ADD1B2" rx="11" ry="11" style="stroke:#181818;stroke-width:1;"/><path d="M502.7572,267.7206 Q502.1791,268.0175 501.5384,268.1581 Q500.8978,268.3144 500.1947,268.3144 Q497.6947,268.3144 496.3666,266.6738 Q495.0541,265.0175 495.0541,261.8925 Q495.0541,258.7675 496.3666,257.1113 Q497.6947,255.455 500.1947,255.455 Q500.8978,255.455 501.5384,255.6113 Q502.1947,255.7675 502.7572,256.0644 L502.7572,258.7831 Q502.1322,258.205 501.5384,257.9394 Q500.9447,257.6581 500.3197,257.6581 Q498.9759,257.6581 498.2884,258.7363 Q497.6009,259.7988 497.6009,261.8925 Q497.6009,263.9863 498.2884,265.0644 Q498.9759,266.1269 500.3197,266.1269 Q500.9447,266.1269 501.5384,265.8613 Q502.1322,265.58 502.7572,265.0019 L502.7572,267.7206 Z " fill="#000000"/><text fill="#000000" font-family="sans-serif" font-size="14" lengthAdjust="spacing" textLength="47.6875" x="520.2884" y="266.9267">Basket</text><line style="stroke:#181818;stroke-width:0.5;" x1="455.89" x2="599.8744" y1="278.08" y2="278.08"/><text fill="#000000" font-family="sans-serif" font-size="14" lengthAdjust="spacing" textLength="133.9844" x="460.89" y="295.0751">-float total_amount</text><line style="stroke:#181818;stroke-width:0.5;" x1="455.89" x2="599.8744" y1="302.3769" y2="302.3769"/><text fill="#000000" font-family="sans-serif" font-size="14" lengthAdjust="spacing" textLength="90.6855" x="460.89" y="319.372">+add(Game)</text><text fill="#000000" font-family="sans-serif" font-size="14" lengthAdjust="spacing" textLength="117.8037" x="460.89" y="335.6689">+remove(Game)</text><text fill="#000000" font-family="sans-serif" font-size="14" lengthAdjust="spacing" textLength="86.5703" x="460.89" y="351.9657">+checkout()</text></g><!--class Success--><g class="entity" data-qualified-name="Success" data-source-line="52" id="ent0008"><rect fill="#F1F1F1" height="96.8906" rx="2.5" ry="2.5" style="stroke:#181818;stroke-width:0.5;" width="141.124" x="202.32" y="707.94"/><ellipse cx="241.0658" cy="723.94" fill="#ADD1B2" rx="11" ry="11" style="stroke:#181818;stroke-width:1;"/><path d="M244.0346,729.5806 Q243.4565,729.8775 242.8158,730.0181 Q242.1752,730.1744 241.4721,730.1744 Q238.9721,730.1744 237.644,728.5338 Q236.3315,726.8775 236.3315,723.7525 Q236.3315,720.6275 237.644,718.9713 Q238.9721,717.315 241.4721,717.315 Q242.1752,717.315 242.8158,717.4713 Q243.4721,717.6275 244.0346,717.9244 L244.0346,720.6431 Q243.4096,720.065 242.8158,719.7994 Q242.2221,719.5181 241.5971,719.5181 Q240.2533,719.5181 239.5658,720.5963 Q238.8783,721.6588 238.8783,723.7525 Q238.8783,725.8463 239.5658,726.9244 Q240.2533,727.9869 241.5971,727.9869 Q242.2221,727.9869 242.8158,727.7213 Q243.4096,727.44 244.0346,726.8619 L244.0346,729.5806 Z " fill="#000000"/><text fill="#000000" font-family="sans-serif" font-size="14" lengthAdjust="spacing" textLength="56.3555" x="260.3427" y="728.7867">Success</text><line style="stroke:#181818;stroke-width:0.5;" x1="203.32" x2="342.444" y1="739.94" y2="739.94"/><text fill="#000000" font-family="sans-serif" font-size="14" lengthAdjust="spacing" textLength="90.9863" x="208.32" y="756.9351">-String name</text><text fill="#000000" font-family="sans-serif" font-size="14" lengthAdjust="spacing" textLength="129.124" x="208.32" y="773.232">-String description</text><text fill="#000000" font-family="sans-serif" font-size="14" lengthAdjust="spacing" textLength="128.9805" x="208.32" y="789.5289">-boolean unlocked</text><line style="stroke:#181818;stroke-width:0.5;" x1="203.32" x2="342.444" y1="796.8306" y2="796.8306"/></g><!--class Category--><g class="entity" data-qualified-name="Category" data-source-line="58" id="ent0009"><rect fill="#F1F1F1" height="64.2969" rx="2.5" ry="2.5" style="stroke:#181818;stroke-width:0.5;" width="102.9863" x="378.39" y="724.24"/><ellipse cx="396.5563" cy="740.24" fill="#ADD1B2" rx="11" ry="11" style="stroke:#181818;stroke-width:1;"/><path d="M399.525,745.8806 Q398.9469,746.1775 398.3063,746.3181 Q397.6656,746.4744 396.9625,746.4744 Q394.4625,746.4744 393.1344,744.8338 Q391.8219,743.1775 391.8219,740.0525 Q391.8219,736.9275 393.1344,735.2713 Q394.4625,733.615 396.9625,733.615 Q397.6656,733.615 398.3063,733.7713 Q398.9625,733.9275 399.525,734.2244 L399.525,736.9431 Q398.9,736.365 398.3063,736.0994 Q397.7125,735.8181 397.0875,735.8181 Q395.7438,735.8181 395.0563,736.8963 Q394.3688,737.9588 394.3688,740.0525 Q394.3688,742.1463 395.0563,743.2244 Q395.7438,744.2869 397.0875,744.2869 Q397.7125,744.2869 398.3063,744.0213 Q398.9,743.74 399.525,743.1619 L399.525,745.8806 Z " fill="#000000"/><text fill="#000000" font-family="sans-serif" font-size="14" lengthAdjust="spacing" textLength="63.9502" x="411.2599" y="745.0867">Category</text><line style="stroke:#181818;stroke-width:0.5;" x1="379.39" x2="480.3763" y1="756.24" y2="756.24"/><text fill="#000000" font-family="sans-serif" font-size="14" lengthAdjust="spacing" textLength="90.9863" x="384.39" y="773.2351">-String name</text><line style="stroke:#181818;stroke-width:0.5;" x1="379.39" x2="480.3763" y1="780.5369" y2="780.5369"/></g><!--reverse link User to Library--><g class="link" data-entity-1="ent0002" data-entity-2="ent0005" data-link-type="composition" data-source-line="63" id="lnk10"><path codeLine="63" d="M212.0941,180.8434 C201.8241,212.4734 194.21,235.96 185.77,261.96" fill="none" id="User-backto-Library" style="stroke:#181818;stroke-width:1;"/><polygon fill="#181818" points="215.8,169.43,210.1426,173.9014,212.0941,180.8434,217.7516,176.372,215.8,169.43" style="stroke:#181818;stroke-width:1;"/><text fill="#000000" font-family="sans-serif" font-size="13" lengthAdjust="spacing" textLength="53.9995" x="206.31" y="212.1469">poss&#232;de</text><text fill="#000000" font-family="sans-serif" font-size="13" lengthAdjust="spacing" textLength="8.271" x="205.2261" y="189.1417">1</text><text fill="#000000" font-family="sans-serif" font-size="13" lengthAdjust="spacing" textLength="8.271" x="179.2076" y="251.3529">1</text></g><!--reverse link User to Wishlist--><g class="link" data-entity-1="ent0002" data-entity-2="ent0006" data-link-type="composition" data-source-line="64" id="lnk11"><path codeLine="64" d="M290.2342,180.0251 C307.0542,211.6551 319.96,235.96 333.78,261.96" fill="none" id="User-backto-Wishlist" style="stroke:#181818;stroke-width:1;"/><polygon fill="#181818" points="284.6,169.43,283.8854,176.6056,290.2342,180.0251,290.9488,172.8495,284.6,169.43" style="stroke:#181818;stroke-width:1;"/><text fill="#000000" font-family="sans-serif" font-size="13" lengthAdjust="spacing" textLength="29.5928" x="309.5" y="212.1469">g&#232;re</text><text fill="#000000" font-family="sans-serif" font-size="13" lengthAdjust="spacing" textLength="8.271" x="279.9386" y="189.1417">1</text><text fill="#000000" font-family="sans-serif" font-size="13" lengthAdjust="spacing" textLength="8.271" x="321.801" y="251.3529">1</text></g><!--link User to Basket--><g class="link" data-entity-1="ent0002" data-entity-2="ent0007" data-link-type="association" data-source-line="65" id="lnk12"><path codeLine="65" d="M309.3,139.16 C352.9,171.58 409.65,213.77 454.4,247.04" fill="none" id="User-Basket" style="stroke:#181818;stroke-width:1;"/><text fill="#000000" font-family="sans-serif" font-size="13" lengthAdjust="spacing" textLength="38.9429" x="411.5" y="212.1469">utilise</text><text fill="#000000" font-family="sans-serif" font-size="13" lengthAdjust="spacing" textLength="8.271" x="316.6786" y="140.7322">1</text><text fill="#000000" font-family="sans-serif" font-size="13" lengthAdjust="spacing" textLength="8.271" x="438.4236" y="237.6031">1</text></g><!--link User to Comment--><g class="link" data-entity-1="ent0002" data-entity-2="ent0004" data-link-type="dependency" data-source-line="66" id="lnk13"><path codeLine="66" d="M174.61,131.51 C137.45,159.12 94.7,198.75 73.88,246.08 C15.13,379.63 29.0353,546.6847 47.0553,652.7847" fill="none" id="User-to-Comment" style="stroke:#181818;stroke-width:1;"/><polygon fill="#181818" points="48.06,658.7,50.4966,649.1573,47.2228,653.7706,42.6095,650.4968,48.06,658.7" style="stroke:#181818;stroke-width:1;"/><text fill="#000000" font-family="sans-serif" font-size="13" lengthAdjust="spacing" textLength="41.4565" x="37.42" y="402.3369">r&#233;dige</text><text fill="#000000" font-family="sans-serif" font-size="13" lengthAdjust="spacing" textLength="8.271" x="158.829" y="132.5185">1</text><text fill="#000000" font-family="sans-serif" font-size="13" lengthAdjust="spacing" textLength="6.5" x="40.3288" y="648.0472">*</text></g><!--reverse link Library to Game--><g class="link" data-entity-1="ent0005" data-entity-2="ent0003" data-link-type="aggregation" data-source-line="68" id="lnk14"><path codeLine="68" d="M201.8662,353.4713 C217.1962,379.8113 231.78,404.87 249.98,436.15" fill="none" id="Library-backto-Game" style="stroke:#181818;stroke-width:1;"/><polygon fill="none" points="195.83,343.1,195.391,350.2977,201.8662,353.4713,202.3052,346.2736,195.83,343.1" style="stroke:#181818;stroke-width:1;"/><text fill="#000000" font-family="sans-serif" font-size="13" lengthAdjust="spacing" textLength="53.3838" x="233.38" y="402.3369">contient</text><text fill="#000000" font-family="sans-serif" font-size="13" lengthAdjust="spacing" textLength="8.271" x="190.9901" y="363.1152">1</text><text fill="#000000" font-family="sans-serif" font-size="13" lengthAdjust="spacing" textLength="6.5" x="239.5842" y="425.2982">*</text></g><!--reverse link Wishlist to Game--><g class="link" data-entity-1="ent0006" data-entity-2="ent0003" data-link-type="aggregation" data-source-line="69" id="lnk15"><path codeLine="69" d="M339.2049,354.5675 C331.0849,380.9075 323.7,404.87 314.07,436.15" fill="none" id="Wishlist-backto-Game" style="stroke:#181818;stroke-width:1;"/><polygon fill="none" points="342.74,343.1,337.1499,347.6553,339.2049,354.5675,344.7949,350.0121,342.74,343.1" style="stroke:#181818;stroke-width:1;"/><text fill="#000000" font-family="sans-serif" font-size="13" lengthAdjust="spacing" textLength="53.3838" x="328.16" y="402.3369">contient</text><text fill="#000000" font-family="sans-serif" font-size="13" lengthAdjust="spacing" textLength="8.271" x="332.0889" y="363.1152">1</text><text fill="#000000" font-family="sans-serif" font-size="13" lengthAdjust="spacing" textLength="6.5" x="309.9831" y="425.2982">*</text></g><!--reverse link Basket to Game--><g class="link" data-entity-1="ent0007" data-entity-2="ent0003" data-link-type="aggregation" data-source-line="70" id="lnk16"><path codeLine="70" d="M454.3311,367.4085 C423.7611,393.8985 396.18,417.79 364.62,445.14" fill="none" id="Basket-backto-Game" style="stroke:#181818;stroke-width:1;"/><polygon fill="none" points="463.4,359.55,456.2461,360.4563,454.3311,367.4085,461.4851,366.5022,463.4,359.55" style="stroke:#181818;stroke-width:1;"/><text fill="#000000" font-family="sans-serif" font-size="13" lengthAdjust="spacing" textLength="53.3838" x="425.01" y="402.3369">contient</text><text fill="#000000" font-family="sans-serif" font-size="13" lengthAdjust="spacing" textLength="8.271" x="447.0702" y="379.4708">1</text><text fill="#000000" font-family="sans-serif" font-size="13" lengthAdjust="spacing" textLength="6.5" x="372.4559" y="434.8382">*</text></g><!--reverse link Game to Comment--><g class="link" data-entity-1="ent0003" data-entity-2="ent0004" data-link-type="aggregation" data-source-line="72" id="lnk17"><path codeLine="72" d="M218.1071,591.2886 C188.0471,624.3486 160.68,654.44 131.06,687.01" fill="none" id="Game-backto-Comment" style="stroke:#181818;stroke-width:1;"/><polygon fill="none" points="226.18,582.41,219.184,584.1583,218.1071,591.2886,225.1031,589.5402,226.18,582.41" style="stroke:#181818;stroke-width:1;"/><text fill="#000000" font-family="sans-serif" font-size="13" lengthAdjust="spacing" textLength="37.1528" x="194.74" y="625.1169">re&#231;oit</text><text fill="#000000" font-family="sans-serif" font-size="13" lengthAdjust="spacing" textLength="8.271" x="211.5491" y="602.1796">1</text><text fill="#000000" font-family="sans-serif" font-size="13" lengthAdjust="spacing" textLength="6.5" x="138.6249" y="675.1958">*</text></g><!--reverse link Game to Category--><g class="link" data-entity-1="ent0003" data-entity-2="ent0009" data-link-type="aggregation" data-source-line="73" id="lnk18"><path codeLine="73" d="M338.4265,592.867 C364.9065,639.907 392.23,688.47 412.22,723.99" fill="none" id="Game-backto-Category" style="stroke:#181818;stroke-width:1;"/><polygon fill="none" points="332.54,582.41,331.9976,589.6007,338.4265,592.867,338.9689,585.6763,332.54,582.41" style="stroke:#181818;stroke-width:1;"/><text fill="#000000" font-family="sans-serif" font-size="13" lengthAdjust="spacing" textLength="79.9233" x="357.75" y="625.1169">appartient &#224;</text><text fill="#000000" font-family="sans-serif" font-size="13" lengthAdjust="spacing" textLength="6.5" x="330.1528" y="602.1796">*</text><text fill="#000000" font-family="sans-serif" font-size="13" lengthAdjust="spacing" textLength="6.5" x="402.2012" y="713.215">*</text></g><!--reverse link Game to Success--><g class="link" data-entity-1="ent0003" data-entity-2="ent0008" data-link-type="composition" data-source-line="74" id="lnk19"><path codeLine="74" d="M285.3631,594.3741 C282.2331,634.7741 279.34,672.05 276.58,707.65" fill="none" id="Game-backto-Success" style="stroke:#181818;stroke-width:1;"/><polygon fill="#181818" points="286.29,582.41,281.8385,588.0831,285.3631,594.3741,289.8146,588.701,286.29,582.41" style="stroke:#181818;stroke-width:1;"/><text fill="#000000" font-family="sans-serif" font-size="13" lengthAdjust="spacing" textLength="52.5269" x="284.52" y="625.1169">propose</text><text fill="#000000" font-family="sans-serif" font-size="13" lengthAdjust="spacing" textLength="8.271" x="277.3884" y="602.1796">1</text><text fill="#000000" font-family="sans-serif" font-size="13" lengthAdjust="spacing" textLength="6.5" x="270.7133" y="696.8181">*</text></g><?plantuml-src VLHDZzCm4BtdLunwOMbL2Quv8C4Y4187HFauhjnuIAmwdiWVkog8_yADvNVaZp5sxQoxe5wIpCkRD-CtaxY3CfEmOeHE2-TUUc_LFdXyrv7PgUy8pveclO7F3YtyQ1g0BUoOPNgO70P9DOAZKFgCmgbtP6MDxHNrLap3CO7AU10zylC6DFNAN3qjpnGy1pzB1s_5YDm19sKXmq0L-Y6CUvCRo9X4rrarUKKcecyq2G-JLLrAV2qyWaMDmk6Dv21Mxj5VqpYYyQwkdh5J0-Kex99di8P4y0FPX2JvYPmlsgVJXkcMFBebbdHd2h99_6o1nP5kCGTX-iAS7CIK72uDlbTxA-mnDRW18MNqwofUJZbyhWzQ73-f1LrIloetQENyGswLbxjubF9Ak0CMDxubMprveM_4I24vSb4d0js0tU7HZ7UXwv3lPowNESF_Xmfx8XwXWM0qTGUKrT3OzvwoAUTwp7a27r6BAEEQjDwhvojORxVfNkniuqJSV2_nNyxYMmlzV6yhHYPabre8NZ7nZF02LklLibOjsFcFLFmXDALof54KObhQ_JRjcueBjrI-HChLBr6Q1DICgY6SVvFocRAkACNL5iJ4Vuya1VEl1x5rPfPniecMs4Vy2m00?></g></svg>