<?plantuml 1.2026.2?><svg xmlns="http://www.w3.org/2000/svg" xmlns:xlink="http://www.w3.org/1999/xlink" contentStyleType="text/css" data-diagram-type="ACTIVITY" height="565px" preserveAspectRatio="none" style="width:853px;height:565px;background:#FFFFFF;" version="1.1" viewBox="0 0 853 565" width="853px" zoomAndPan="magnify"><title>Diagramme d'Activit&#233; : Ajout d'un Nouveau Jeu</title><defs/><g><g class="title" data-source-line="1"><text fill="#000000" font-family="sans-serif" font-size="14" font-weight="bold" lengthAdjust="spacing" textLength="370.959" x="239.9932" y="32.9951">Diagramme d'Activit&#233; : Ajout d'un Nouveau Jeu</text></g><ellipse cx="523.0791" cy="57.2969" fill="#222222" rx="10" ry="10" style="stroke:#222222;stroke-width:1;"/><rect fill="#F1F1F1" height="33.9688" rx="12.5" ry="12.5" style="stroke:#181818;stroke-width:0.5;" width="379.7363" x="333.2109" y="87.2969"/><text fill="#000000" font-family="sans-serif" font-size="12" lengthAdjust="spacing" textLength="359.7363" x="343.2109" y="108.4355">Admin soumet m&#233;tadonn&#233;es du Jeu (Title, Dev, Genre, etc.)</text><rect fill="#F1F1F1" height="33.9688" rx="12.5" ry="12.5" style="stroke:#181818;stroke-width:0.5;" width="259.7773" x="393.1904" y="141.2656"/><text fill="#000000" font-family="sans-serif" font-size="12" lengthAdjust="spacing" textLength="239.7773" x="403.1904" y="162.4043">Soumission aux workflows de validation</text><rect fill="none" height="369.1719" style="stroke:#000000;stroke-width:1.5;" width="831.9453" x="11" y="185.2344"/><path d="M181.4326,185.2344 L181.4326,194.5313 L171.4326,204.5313 L11,204.5313" fill="none" style="stroke:#000000;stroke-width:1.5;"/><text fill="#000000" font-family="sans-serif" font-size="14" lengthAdjust="spacing" textLength="160.4326" x="14" y="199.2295">Workflow de validation</text><rect fill="#F1F1F1" height="33.9688" rx="12.5" ry="12.5" style="stroke:#181818;stroke-width:0.5;" width="297.3301" x="374.4141" y="221.5313"/><text fill="#000000" font-family="sans-serif" font-size="12" lengthAdjust="spacing" textLength="277.3301" x="384.4141" y="242.6699">Validation Technique (Images, Prix standard)?</text><polygon fill="#F1F1F1" points="511.0791,275.5,535.0791,275.5,547.0791,287.5,535.0791,299.5,511.0791,299.5,499.0791,287.5,511.0791,275.5" style="stroke:#181818;stroke-width:0.5;"/><text fill="#000000" font-family="sans-serif" font-size="11" lengthAdjust="spacing" textLength="21.71" x="512.2241" y="291.3081">OK?</text><text fill="#000000" font-family="sans-serif" font-size="11" lengthAdjust="spacing" textLength="18.686" x="480.3931" y="284.9058">Oui</text><text fill="#000000" font-family="sans-serif" font-size="11" lengthAdjust="spacing" textLength="21.9302" x="547.0791" y="284.9058">Non</text><rect fill="#F1F1F1" height="33.9688" rx="12.5" ry="12.5" style="stroke:#181818;stroke-width:0.5;" width="264.8691" x="185.3447" y="309.5"/><text fill="#000000" font-family="sans-serif" font-size="12" lengthAdjust="spacing" textLength="244.8691" x="195.3447" y="330.6387">V&#233;rification L&#233;gale (&#194;ge requis, R&#233;gion)?</text><polygon fill="#F1F1F1" points="305.7793,363.4688,329.7793,363.4688,341.7793,375.4688,329.7793,387.4688,305.7793,387.4688,293.7793,375.4688,305.7793,363.4688" style="stroke:#181818;stroke-width:0.5;"/><text fill="#000000" font-family="sans-serif" font-size="11" lengthAdjust="spacing" textLength="21.71" x="306.9243" y="379.2769">OK?</text><text fill="#000000" font-family="sans-serif" font-size="11" lengthAdjust="spacing" textLength="18.686" x="275.0933" y="372.8745">Oui</text><text fill="#000000" font-family="sans-serif" font-size="11" lengthAdjust="spacing" textLength="21.9302" x="341.7793" y="372.8745">Non</text><rect fill="#F1F1F1" height="33.9688" rx="12.5" ry="12.5" style="stroke:#181818;stroke-width:0.5;" width="136.959" x="101.0967" y="397.4688"/><text fill="#000000" font-family="sans-serif" font-size="12" lengthAdjust="spacing" textLength="113.1445" x="111.0967" y="418.6074">Assigner ID unique</text><rect fill="#F1F1F1" height="33.9688" rx="12.5" ry="12.5" style="stroke:#181818;stroke-width:0.5;" width="293.1523" x="23" y="466.4375"/><text fill="#000000" font-family="sans-serif" font-size="12" lengthAdjust="spacing" textLength="269.3379" x="33" y="487.5762">Publier dans Catalog Service (Statut: Visible)</text><ellipse cx="169.5762" cy="531.4063" fill="none" rx="11" ry="11" style="stroke:#222222;stroke-width:1;"/><ellipse cx="169.5762" cy="531.4063" fill="#222222" rx="6" ry="6" style="stroke:#222222;stroke-width:1;"/><rect fill="#F1F1F1" height="33.9688" rx="12.5" ry="12.5" style="stroke:#181818;stroke-width:0.5;" width="259.6602" x="336.1523" y="397.4688"/><text fill="#000000" font-family="sans-serif" font-size="12" lengthAdjust="spacing" textLength="235.8457" x="346.1523" y="418.6074">Marquer : Rejet&#233; - Contenu inappropri&#233;</text><ellipse cx="465.9824" cy="477.4375" fill="none" rx="11" ry="11" style="stroke:#222222;stroke-width:1;"/><ellipse cx="465.9824" cy="477.4375" fill="#222222" rx="6" ry="6" style="stroke:#222222;stroke-width:1;"/><rect fill="#F1F1F1" height="33.9688" rx="12.5" ry="12.5" style="stroke:#181818;stroke-width:0.5;" width="148.8418" x="653.958" y="309.5"/><text fill="#000000" font-family="sans-serif" font-size="12" lengthAdjust="spacing" textLength="125.0273" x="663.958" y="330.6387">Bloquer le processus</text><rect fill="#F1F1F1" height="33.9688" rx="12.5" ry="12.5" style="stroke:#181818;stroke-width:0.5;" width="205.1328" x="625.8125" y="363.4688"/><text fill="#000000" font-family="sans-serif" font-size="12" lengthAdjust="spacing" textLength="181.3184" x="635.8125" y="384.6074">Notif Administrateur concern&#233;</text><ellipse cx="728.3789" cy="443.4375" fill="none" rx="11" ry="11" style="stroke:#222222;stroke-width:1;"/><ellipse cx="728.3789" cy="443.4375" fill="#222222" rx="6" ry="6" style="stroke:#222222;stroke-width:1;"/><line style="stroke:#181818;stroke-width:1;" x1="523.0791" x2="523.0791" y1="67.2969" y2="87.2969"/><polygon fill="#181818" points="519.0791,77.2969,523.0791,87.2969,527.0791,77.2969,523.0791,81.2969" style="stroke:#181818;stroke-width:1;"/><line style="stroke:#181818;stroke-width:1;" x1="523.0791" x2="523.0791" y1="121.2656" y2="141.2656"/><polygon fill="#181818" points="519.0791,131.2656,523.0791,141.2656,527.0791,131.2656,523.0791,135.2656" style="stroke:#181818;stroke-width:1;"/><line style="stroke:#181818;stroke-width:1;" x1="169.5762" x2="169.5762" y1="431.4375" y2="466.4375"/><polygon fill="#181818" points="165.5762,456.4375,169.5762,466.4375,173.5762,456.4375,169.5762,460.4375" style="stroke:#181818;stroke-width:1;"/><line style="stroke:#181818;stroke-width:1;" x1="169.5762" x2="169.5762" y1="500.4063" y2="520.4063"/><polygon fill="#181818" points="165.5762,510.4063,169.5762,520.4063,173.5762,510.4063,169.5762,514.4063" style="stroke:#181818;stroke-width:1;"/><line style="stroke:#181818;stroke-width:1;" x1="465.9824" x2="465.9824" y1="431.4375" y2="466.4375"/><polygon fill="#181818" points="461.9824,456.4375,465.9824,466.4375,469.9824,456.4375,465.9824,460.4375" style="stroke:#181818;stroke-width:1;"/><line style="stroke:#181818;stroke-width:1;" x1="293.7793" x2="169.5762" y1="375.4688" y2="375.4688"/><line style="stroke:#181818;stroke-width:1;" x1="169.5762" x2="169.5762" y1="375.4688" y2="397.4688"/><polygon fill="#181818" points="165.5762,387.4688,169.5762,397.4688,173.5762,387.4688,169.5762,391.4688" style="stroke:#181818;stroke-width:1;"/><line style="stroke:#181818;stroke-width:1;" x1="341.7793" x2="465.9824" y1="375.4688" y2="375.4688"/><line style="stroke:#181818;stroke-width:1;" x1="465.9824" x2="465.9824" y1="375.4688" y2="397.4688"/><polygon fill="#181818" points="461.9824,387.4688,465.9824,397.4688,469.9824,387.4688,465.9824,391.4688" style="stroke:#181818;stroke-width:1;"/><line style="stroke:#181818;stroke-width:1;" x1="317.7793" x2="317.7793" y1="343.4688" y2="363.4688"/><polygon fill="#181818" points="313.7793,353.4688,317.7793,363.4688,321.7793,353.4688,317.7793,357.4688" style="stroke:#181818;stroke-width:1;"/><line style="stroke:#181818;stroke-width:1;" x1="728.3789" x2="728.3789" y1="343.4688" y2="363.4688"/><polygon fill="#181818" points="724.3789,353.4688,728.3789,363.4688,732.3789,353.4688,728.3789,357.4688" style="stroke:#181818;stroke-width:1;"/><line style="stroke:#181818;stroke-width:1;" x1="728.3789" x2="728.3789" y1="397.4375" y2="432.4375"/><polygon fill="#181818" points="724.3789,422.4375,728.3789,432.4375,732.3789,422.4375,728.3789,426.4375" style="stroke:#181818;stroke-width:1;"/><line style="stroke:#181818;stroke-width:1;" x1="499.0791" x2="317.7793" y1="287.5" y2="287.5"/><line style="stroke:#181818;stroke-width:1;" x1="317.7793" x2="317.7793" y1="287.5" y2="309.5"/><polygon fill="#181818" points="313.7793,299.5,317.7793,309.5,321.7793,299.5,317.7793,303.5" style="stroke:#181818;stroke-width:1;"/><line style="stroke:#181818;stroke-width:1;" x1="547.0791" x2="728.3789" y1="287.5" y2="287.5"/><line style="stroke:#181818;stroke-width:1;" x1="728.3789" x2="728.3789" y1="287.5" y2="309.5"/><polygon fill="#181818" points="724.3789,299.5,728.3789,309.5,732.3789,299.5,728.3789,303.5" style="stroke:#181818;stroke-width:1;"/><line style="stroke:#181818;stroke-width:1;" x1="523.0791" x2="523.0791" y1="255.5" y2="275.5"/><polygon fill="#181818" points="519.0791,265.5,523.0791,275.5,527.0791,265.5,523.0791,269.5" style="stroke:#181818;stroke-width:1;"/><line style="stroke:#181818;stroke-width:1;" x1="523.0791" x2="523.0791" y1="175.2344" y2="221.5313"/><polygon fill="#181818" points="519.0791,211.5313,523.0791,221.5313,527.0791,211.5313,523.0791,215.5313" style="stroke:#181818;stroke-width:1;"/><?plantuml-src XPB1JkD038RlUGgB2utKvG7I0-fI2R50GHInPvDnWo7nX1bFG5hjPTycpv4NMpU5YYAncvFrp-_lztYYh3N1Wh4As3G4xd1UAdUiGmy5p1zzKjEImDAdZZ313qfP5XM3PiNSDImGVMf8eHbwHUT5XfuYkD49aziDVmeBwgPmIXAi9YsFybbMhAoFOsGlWEaLNdnuMjV-nNe9EgpPeThPBCjQ2-DD3GS_tqpxdWFubO5znTrEWbig7uIV4y7ahC6AuXIk0x-2ZIuEWykFPsCFhs5oTNwSWpwGM9au7_KjR-W3hxdS8Y-6laBRrcJuKn44Uavir1jJxVITzp_co9tRjIkX06SBIDifP_kEwtHVinaSIeGJLAnz1IiA7PSsm4fHanPmnv7lQye_TKVrxKwWEbh7qYRSJxZ4OBd1Nlc67cdptj_Wn8kI9631jWs-3MpolzZYU9rzaL9yh_sOO2ipM4anflY1LYozsgR6duYZ1bHA0Kel9GNPozrbRlD-_mK0?></g></svg>