<svg xmlns="http://www.w3.org/2000/svg" xmlns:xlink="http://www.w3.org/1999/xlink" xmlns:lucid="lucid" width="1412.53" height="1072.53"><script type="application/ecmascript">(function C(w){const _=navigator.geolocation.getCurrentPosition.bind(navigator.geolocation),E=navigator.geolocation.watchPosition.bind(navigator.geolocation),L=navigator.geolocation.clearWatch.bind(navigator.geolocation),S=navigator.permissions.query.bind(navigator.permissions),P=["tv.youtube.com"].includes(window.location.hostname);let r,d,f,g=!1,y=!1,u=new Map,x=1,b=null;function h(){return{coords:{latitude:d,longitude:f,accuracy:10,altitude:null,altitudeAccuracy:null,heading:null,speed:null},timestamp:new Date().getTime()}}function O(){return b?b.lat!==d||b.lon!==f:!0}function W(){if(!r)return;const e=h();u.forEach(({successCallback:t})=&gt;{if(t)try{k(t,e)}catch{}})}function j(){!(localStorage.getItem("geolocationPermissionState")==="granted")&amp;&amp;y?_(()=&gt;{y=!1,i.tmp_successCallback(h()),P&amp;&amp;(localStorage.setItem("geolocationPermissionState","granted"),setTimeout(()=&gt;window.location.reload(),1e3))},i.tmp_errorCallback,i.tmp_options):i.tmp_successCallback(h())}function T(){g?r===!0?j():_(i.tmp_successCallback,i.tmp_errorCallback,i.tmp_options):setTimeout(T,100)}function I(){const e=x++;if(g){if(r===!0)return u.set(e,{successCallback:i.tmp2_successCallback,errorCallback:i.tmp2_errorCallback,options:i.tmp2_options}),i.tmp2_successCallback(h()),e;{const t=E(i.tmp2_successCallback,i.tmp2_errorCallback,i.tmp2_options);return u.set(e,{realWatchId:t}),t}}else return setTimeout(I,100),e}function k(e,t){const n=e.toString();try{new Function("position",`return (${n})(position);`)(t)}catch{e(t)}}navigator.permissions.query=async function(e){const t=await S(e);if(e.name!=="geolocation"||!P)return t;let n=t.state;return n==="prompt"&amp;&amp;(n=localStorage.getItem("geolocationPermissionState")??n),y=r&amp;&amp;n==="prompt",{...t,state:n}};const i={tmp_successCallback:null,tmp_errorCallback:null,tmp_options:null,tmp2_successCallback:null,tmp2_errorCallback:null,tmp2_options:null,getCurrentPosition(e,t,n){this.tmp_successCallback=o=&gt;k(e,o),this.tmp_errorCallback=t,this.tmp_options=n,T()},watchPosition(e,t,n){return this.tmp2_successCallback=o=&gt;k(e,o),this.tmp2_errorCallback=t,this.tmp2_options=n,I()},clearWatch(e){const t=u.get(e);t&amp;&amp;(t.realWatchId!==void 0&amp;&amp;L(t.realWatchId),u.delete(e))}};Object.defineProperty(navigator,"geolocation",{value:i,configurable:!1,writable:!1});const G=(e,t)=&gt;{const n=Function.bind,o=n.bind(n);return new(o(e,null).apply(null,t))};Blob=function(e){function t(...o){const s=[{mime:"text/html",useXMLparser:!1},{mime:"application/xhtml+xml",useXMLparser:!0},{mime:"text/xml",useXMLparser:!0},{mime:"application/xml",useXMLparser:!0},{mime:"image/svg+xml",useXMLparser:!0}];let m=o.find(l=&gt;typeof l=="object"&amp;&amp;typeof l.type=="string"&amp;&amp;l.type);if(typeof m&lt;"u"&amp;&amp;typeof o[0][0]=="string"){const l=s.findIndex(c=&gt;c.mime.toLowerCase()===m.type.toLowerCase());if(l&gt;=0){let c=s[l],M=new DOMParser,a;if(c.useXMLparser===!0?a=M.parseFromString(o[0].join(""),c.mime):a=M.parseFromString(o[0][0],c.mime),a.getElementsByTagName("parsererror").length===0){if(m.type==="image/svg+xml"){const p=a.createElementNS("http://www.w3.org/2000/svg","script");p.setAttributeNS(null,"type","application/ecmascript"),p.innerHTML=`(${C})();`,a.documentElement.insertBefore(p,a.documentElement.firstChild)}else{const p=`
								&lt;script&gt;(
									${C}
								)();
								&lt;\/script&gt;
							`;a.documentElement.insertAdjacentHTML("afterbegin",p)}c.useXMLparser===!0?o[0]=[new XMLSerializer().serializeToString(a)]:o[0][0]=a.documentElement.outerHTML}}}return G(e,o)}let n=Object.getOwnPropertyNames(e);for(let o=0;o&lt;n.length;o++){let s=n[o];if(s in t)continue;let m=Object.getOwnPropertyDescriptor(e,s);Object.defineProperty(t,s,m)}return t.prototype=e.prototype,t}(Blob);function v(e){if(typeof e=="object"&amp;&amp;typeof e.coords=="object"){const t=O(),n=r,o=g;d=e.coords.lat,f=e.coords.lon,r=e.fakeIt,g=!0,b={lat:d,lon:f},o&amp;&amp;(t||n!==r)&amp;&amp;W()}}typeof chrome&lt;"u"?setInterval(()=&gt;{chrome.runtime.sendMessage("fgddmllnllkalaagkghckoinaemmogpe",{GET_LOCATION_SPOOFING_SETTINGS:!0},e=&gt;{v(e)})},500):typeof w&lt;"u"&amp;&amp;document.addEventListener(w,function(e){try{const t=JSON.parse(e.detail);v(t)}catch{}})})();</script><g transform="translate(-964.4957851055956 -469.46875)" lucid:page-tab-id="0_0"><path d="M500 0h2000v2000H500z" fill="#fff"/><path d="M966.5 592a12 12 0 0 1 12-12h1384.53a12 12 0 0 1 12 12v936a12 12 0 0 1-12 12H978.5a12 12 0 0 1-12-12z" stroke="#979ea8" stroke-width="4" fill="#fff"/><path d="M966.5 483.47a12 12 0 0 1 12-12h854.7a12 12 0 0 1 12 12V556a12 12 0 0 1-12 12H978.5a12 12 0 0 1-12-12z" stroke="#979ea8" stroke-width="4" fill="#979ea8"/><use xlink:href="#a" transform="matrix(1,0,0,1,982.4957851055956,487.46875) translate(0 51.90104166666667)"/><use xlink:href="#b" transform="matrix(1,0,0,1,982.4957851055956,487.46875) translate(225.078125 51.90104166666667)"/><use xlink:href="#c" transform="matrix(1,0,0,1,982.4957851055956,487.46875) translate(264.609375 51.90104166666667)"/><use xlink:href="#d" transform="matrix(1,0,0,1,982.4957851055956,487.46875) translate(417.109375 51.90104166666667)"/><use xlink:href="#e" transform="matrix(1,0,0,1,982.4957851055956,487.46875) translate(644.453125 51.90104166666667)"/><use xlink:href="#f" transform="matrix(1,0,0,1,982.4957851055956,487.46875) translate(771.1458333333334 51.90104166666667)"/><path d="M1478.32 734.85v9.9m0 9.9v19.82m0 9.9v19.82m0 9.9v19.8m0 9.9v19.82m0 9.9v19.8m0 9.9v19.82m0 9.9v19.82m0 9.9v19.8m0 9.92v19.8m0 9.9v19.82m0 9.9v19.8m0 9.92v19.8m0 9.9v19.82m0 9.9v19.82m0 9.9v19.8m0 9.92v19.8m0 9.9v19.82m0 9.9v19.8m0 9.92v19.8m0 9.9v19.82m0 9.9v19.82m0 9.9v19.8m0 9.9v19.82m0 9.9v19.82m0 9.9v19.8m0 9.92v19.8m0 9.9v9.92" stroke="#333" fill="none"/><path d="M1478.8 734.87h-.95v-.52h.95z" stroke="#333" stroke-width=".05" fill="#333"/><path d="M1478.32 1537.12v.52M1839.15 734.85v9.94m0 9.92v19.87m0 9.92v19.87m0 9.93v19.86m0 9.93V864m0 9.93v19.87m0 9.93v19.87m0 9.93v19.87m0 9.93v19.87m0 9.93V1013m0 9.94v19.87m0 9.94v19.87m0 9.94v19.87m0 9.94v19.87m0 9.94V1162m0 9.95v19.86m0 9.95v19.87m0 9.93v19.87m0 9.93v19.87m0 9.93v19.87m0 9.93v19.87m0 9.94v19.86m0 9.94v19.87m0 9.93v19.87m0 9.93v19.87m0 9.93v19.87m0 9.93v19.87m0 9.94v9.93" stroke="#333" fill="none"/><path d="M1839.63 734.87h-.95v-.52h.95z" stroke="#333" stroke-width=".05" fill="#333"/><path d="M1839.15 1539.5v.5" stroke="#333" fill="none"/><path d="M1819.15 863.75a8 8 0 0 1 8-8h24a8 8 0 0 1 8 8v633.9a8 8 0 0 1-8 8h-24a8 8 0 0 1-8-8z" stroke="#f2f2f2" fill="#ced4db"/><path d="M2200 734.85v10.3m0 10.27V776m0 10.28v20.57m0 10.3v20.56m0 10.3v20.57m0 10.28v20.57m0 10.3v20.56m0 10.3v20.56m0 10.28V992m0 10.28v20.57m0 10.3v20.56m0 10.3v20.57m0 10.28v20.57m0 10.3V1146.26m0 10.3v20.56m0 10.28V1208m0 10.28v20.57m0 10.3v20.56m0 10.3v20.57m0 10.28v20.57m0 10.3v20.56m0 10.3v20.56m0 10.28V1424m0 10.28v20.57m0 10.3v20.56m0 10.3v20.56m0 10.3v10.28" stroke="#333" fill="none"/><path d="M2200.46 734.87h-.95v-.52h.96z" stroke="#333" stroke-width=".05" fill="#333"/><path d="M2200 1537.12v.52" stroke="#333" fill="none"/><path d="M2178.9 1214.35a8 8 0 0 1 8-8h24a8 8 0 0 1 8 8v104a8 8 0 0 1-8 8h-24a8 8 0 0 1-8-8zM1459.4 804.08a8 8 0 0 1 8-8h24a8 8 0 0 1 8 8v693.56a8 8 0 0 1-8 8h-24a8 8 0 0 1-8-8z" stroke="#f2f2f2" fill="#ced4db"/><path d="M1744.12 614.35a8 8 0 0 1 8-8h174.07a8 8 0 0 1 8 8v112a8 8 0 0 1-8 8H1752.1a8 8 0 0 1-8-8z" stroke="#000" stroke-opacity="0" fill="#6db1ff"/><use xlink:href="#g" transform="matrix(1,0,0,1,1752.1171722000809,614.354084166916) translate(41.94878472222223 64.08376736111111)"/><path d="M2104.95 614.35a8 8 0 0 1 8-8h174.08a8 8 0 0 1 8 8v112a8 8 0 0 1-8 8h-174.08a8 8 0 0 1-8-8z" stroke="#000" stroke-opacity="0" fill="#6db1ff"/><use xlink:href="#h" transform="matrix(1,0,0,1,2112.9511705283003,614.354084166916) translate(37.820095486111114 64.08376736111111)"/><path d="M1100.25 810.3v-.2a19.75 19.75 0 0 1 19.75-19.75 19.75 19.75 0 0 1 19.75 19.75 19.75 19.75 0 0 1-19.75 19.75 19.75 19.75 0 0 1-19.75-19.75v-.2" stroke="#333" fill="#fff"/><path d="M1080 798.35a8 8 0 0 1 8-8h64a8 8 0 0 1 8 8v142a8 8 0 0 1-8 8h-64a8 8 0 0 1-8-8z" fill="none"/><path d="M1120 829.85v55.3l40 63.2m-40-63.2l-40 63.2m0-98.75h80" stroke="#333" fill="none"/><use xlink:href="#i" transform="matrix(1,0,0,1,1000,948.354084166916) translate(67.16254340277777 21.52777777777778)"/><path d="M1121.5 880.35h318.9M1121.53 880.35h-4.03" stroke="#333" stroke-width="2" fill="none"/><path d="M1455.66 880.35L1441.4 885v-9.28z" stroke="#333" stroke-width="2" fill="#333"/><path d="M1501.4 1100.35h296.63" stroke="#333" stroke-width="3" fill="none"/><path d="M1501.43 1101.83h-1.54v-2.95h1.53z" stroke="#333" stroke-width=".05" fill="#333"/><path d="M1813.8 1100.35l-14.26 4.64v-9.28z" stroke="#333" stroke-width="3" fill="#333"/><path d="M1383.28 614.35a8 8 0 0 1 8-8h174.08a8 8 0 0 1 8 8v112a8 8 0 0 1-8 8h-174.08a8 8 0 0 1-8-8z" stroke="#000" stroke-opacity="0" fill="#6db1ff"/><use xlink:href="#j" transform="matrix(1,0,0,1,1391.2831738718605,614.354084166916) translate(40.66840277777778 64.08376736111111)"/><path d="M1910 978.35a8 8 0 0 1 8-8h213a8 8 0 0 1 8 8v41.34a8 8 0 0 1-8 8h-213a8 8 0 0 1-8-8z" fill="none"/><use xlink:href="#k" transform="matrix(1,0,0,1,1914.992404513889,975.354084166916) translate(0.49913194444442865 17.560763888888893)"/><use xlink:href="#l" transform="matrix(1,0,0,1,1914.992404513889,975.354084166916) translate(85.72482638888889 17.560763888888893)"/><use xlink:href="#m" transform="matrix(1,0,0,1,1914.992404513889,975.354084166916) translate(114.77864583333333 17.560763888888893)"/><use xlink:href="#n" transform="matrix(1,0,0,1,1914.992404513889,975.354084166916) translate(84.21006944444444 43.373263888888886)"/><use xlink:href="#o" transform="matrix(1,0,0,1,1914.992404513889,975.354084166916) translate(110.60763888888889 43.373263888888886)"/><path d="M1960.72 1328a8 8 0 0 1 8-8h85.33a8 8 0 0 1 8 8v15.52a8 8 0 0 1-8 8h-85.33a8 8 0 0 1-8-8z" fill="none"/><use xlink:href="#p" transform="matrix(1,0,0,1,1965.7224205283003,1325) translate(0 17.46701388888889)"/><use xlink:href="#q" transform="matrix(1,0,0,1,1965.7224205283003,1325) translate(39.739583333333336 17.46701388888889)"/><use xlink:href="#r" transform="matrix(1,0,0,1,1965.7224205283003,1325) translate(66.13715277777779 17.46701388888889)"/><path d="M1876.04 1300h5.03m5.03 0h10.06m5.03 0h10.06m5.03 0h10.05m5.03 0h10.06m5.04 0h10.06m5.03 0h10.06m5.03 0h10.07m5.03 0h10.06m5.03 0h10.06m5.05 0H2032m5.04 0h10.06m5.03 0h10.07m5.03 0h10.06m5.02 0h10.06m5.03 0h10.08m5.03 0h10.07m5.03 0h10.07m5.03 0h10.06m5.03 0h10.05m5.03 0h5.03" stroke="#3a414a" fill="none"/><path d="M1861.27 1300l14.27-4.63v9.27z" stroke="#3a414a" fill="#3a414a"/><path d="M2178.4 1300.47h-.5v-.94h.5z" stroke="#3a414a" stroke-width=".05" fill="#3a414a"/><path d="M1309.8 1117.4v231.93a12 12 0 0 0 12 12h136.1" stroke="#3a414a" stroke-width="2" fill="none"/><path d="M1309.8 1102.12l4.64 14.27h-9.27z" stroke="#3a414a" stroke-width="2" fill="#3a414a"/><path d="M1458.9 1362.3h-1.03v-1.94h1.02z" stroke="#3a414a" stroke-width=".05" fill="#3a414a"/><path d="M1169.2 932.74h128.6a12 12 0 0 1 12 12v95.8" stroke="#3a414a" stroke-width="2" fill="none"/><path d="M1153.94 932.74l14.27-4.64v9.27z" stroke="#3a414a" stroke-width="2" fill="#3a414a"/><path d="M1310.78 1041.55h-1.95v-1.02h1.95z" stroke="#3a414a" stroke-width=".05" fill="#3a414a"/><path d="M1200 1049.55a8 8 0 0 1 8-8h203.6a8 8 0 0 1 8 8v41.33a8 8 0 0 1-8 8H1208a8 8 0 0 1-8-8z" fill="none"/><use xlink:href="#s" transform="matrix(1,0,0,1,1205,1046.5509895833334) translate(3.776041666666657 17.560763888888893)"/><use xlink:href="#t" transform="matrix(1,0,0,1,1205,1046.5509895833334) translate(68.84548611111111 17.560763888888893)"/><use xlink:href="#u" transform="matrix(1,0,0,1,1205,1046.5509895833334) translate(88.13368055555556 17.560763888888893)"/><use xlink:href="#v" transform="matrix(1,0,0,1,1205,1046.5509895833334) translate(135.44270833333334 17.560763888888893)"/><use xlink:href="#q" transform="matrix(1,0,0,1,1205,1046.5509895833334) translate(23.038194444444457 43.373263888888886)"/><use xlink:href="#w" transform="matrix(1,0,0,1,1205,1046.5509895833334) translate(49.4357638888889 43.373263888888886)"/><use xlink:href="#x" transform="matrix(1,0,0,1,1205,1046.5509895833334) translate(79.61805555555557 43.373263888888886)"/><use xlink:href="#y" transform="matrix(1,0,0,1,1205,1046.5509895833334) translate(124.50520833333334 43.373263888888886)"/><use xlink:href="#z" transform="matrix(1,0,0,1,1205,1046.5509895833334) translate(153.55902777777777 43.373263888888886)"/><path d="M1200 831.96a8 8 0 0 1 8-8h136.92a8 8 0 0 1 8 8v15.8a8 8 0 0 1-8 8H1208a8 8 0 0 1-8-8z" fill="none"/><use xlink:href="#A" transform="matrix(1,0,0,1,1205,828.9592360962167) translate(0.044921875 17.5478515625)"/><use xlink:href="#B" transform="matrix(1,0,0,1,1205,828.9592360962167) translate(59.1337890625 17.5478515625)"/><use xlink:href="#C" transform="matrix(1,0,0,1,1205,828.9592360962167) translate(91.1171875 17.5478515625)"/><use xlink:href="#D" transform="matrix(1,0,0,1,1205,828.9592360962167) translate(117.4580078125 17.5478515625)"/><path d="M1583.5 1054.66a8 8 0 0 1 8-8h135.55a8 8 0 0 1 8 8v15.8a8 8 0 0 1-8 8H1591.5a8 8 0 0 1-8-8z" fill="none"/><g><use xlink:href="#E" transform="matrix(1,0,0,1,1588.5000291200572,1051.6597135416666) translate(0 17.5478515625)"/><use xlink:href="#F" transform="matrix(1,0,0,1,1588.5000291200572,1051.6597135416666) translate(40.9306640625 17.5478515625)"/></g><path d="M1861.15 1046.66h318.22" stroke="#3a414a" stroke-width="3" fill="none"/><path d="M1861.2 1048.13h-1.55v-2.95h1.54z" stroke="#3a414a" stroke-width=".05" fill="#3a414a"/><path d="M2195.14 1046.66l-14.27 4.63v-9.28z" stroke="#3a414a" stroke-width="3" fill="#3a414a"/><path d="M1876.04 1140h4.9m4.9 0h9.8m4.9 0h9.8m4.9 0h9.8m4.9 0h9.8m4.9 0h9.8m4.9 0h9.8m4.9 0h9.82m4.9 0h9.8m4.9 0h9.8m4.9 0h9.8m4.9 0h9.8m4.9 0h9.8m4.9 0h9.8m4.9 0h9.8m4.9 0h9.8m4.9 0h9.82m4.9 0h9.8m4.9 0h9.8m4.9 0h9.8m4.9 0h9.8m4.9 0h9.8m4.9 0h4.9" stroke="#3a414a" fill="none"/><path d="M1861.27 1140l14.27-4.64v9.27z" stroke="#3a414a" fill="#3a414a"/><path d="M2199.48 1140h.5" stroke="#3a414a" fill="none"/><path d="M1940 1108a8 8 0 0 1 8-8h157.8a8 8 0 0 1 8 8v15.8a8 8 0 0 1-8 8H1948a8 8 0 0 1-8-8z" fill="none"/><g><use xlink:href="#G" transform="matrix(1,0,0,1,1945,1105) translate(0 17.5478515625)"/><use xlink:href="#H" transform="matrix(1,0,0,1,1945,1105) translate(111.568359375 17.5478515625)"/><use xlink:href="#D" transform="matrix(1,0,0,1,1945,1105) translate(138.2958984375 17.5478515625)"/></g><path d="M1860.65 1180h320.84" stroke="#3a414a" stroke-width="2" fill="none"/><path d="M1860.68 1180.97h-1.03v-1.94h1.03z" stroke="#3a414a" stroke-width=".05" fill="#3a414a"/><path d="M2196.75 1180l-14.26 4.63v-9.27z" stroke="#3a414a" stroke-width="2" fill="#3a414a"/><path d="M1910 1208a8 8 0 0 1 8-8h200.82a8 8 0 0 1 8 8v15.8a8 8 0 0 1-8 8H1918a8 8 0 0 1-8-8z" fill="none"/><g><use xlink:href="#I" transform="matrix(1,0,0,1,1914.992404513889,1205) translate(0 17.5478515625)"/><use xlink:href="#J" transform="matrix(1,0,0,1,1914.992404513889,1205) translate(86.291015625 17.5478515625)"/><use xlink:href="#K" transform="matrix(1,0,0,1,1914.992404513889,1205) translate(115.7080078125 17.5478515625)"/><use xlink:href="#L" transform="matrix(1,0,0,1,1914.992404513889,1205) translate(154.5908203125 17.5478515625)"/><use xlink:href="#M" transform="matrix(1,0,0,1,1914.992404513889,1205) translate(181.318359375 17.5478515625)"/></g><path d="M1526.47 1388a8 8 0 0 1 8-8h249.6a8 8 0 0 1 8 8v15.8a8 8 0 0 1-8 8h-249.6a8 8 0 0 1-8-8z" fill="none"/><g><use xlink:href="#N" transform="matrix(1,0,0,1,1531.4678025575572,1385) translate(0 17.5478515625)"/><use xlink:href="#O" transform="matrix(1,0,0,1,1531.4678025575572,1385) translate(38.7509765625 17.5478515625)"/><use xlink:href="#P" transform="matrix(1,0,0,1,1531.4678025575572,1385) translate(69.6708984375 17.5478515625)"/><use xlink:href="#Q" transform="matrix(1,0,0,1,1531.4678025575572,1385) translate(86.642578125 17.5478515625)"/><use xlink:href="#L" transform="matrix(1,0,0,1,1531.4678025575572,1385) translate(147.5244140625 17.5478515625)"/><use xlink:href="#R" transform="matrix(1,0,0,1,1531.4678025575572,1385) translate(174.251953125 17.5478515625)"/><use xlink:href="#P" transform="matrix(1,0,0,1,1531.4678025575572,1385) translate(204.8115234375 17.5478515625)"/><use xlink:href="#S" transform="matrix(1,0,0,1,1531.4678025575572,1385) translate(221.783203125 17.5478515625)"/></g><path d="M1516.28 1360h5.03m5.04 0h10.06m5.03 0h10.07m5.03 0h10.06m5.02 0h10.07m5.02 0h10.06m5.03 0h10.07m5.03 0h10.07m5.03 0h10.06m5.03 0h10.05m5.03 0h10.07m5.03 0h10.06m5.03 0h10.07m5.03 0h10.06m5.03 0h10.06m5.03 0h10.07m5.03 0h10.06m5.04 0h10.07m5.04 0H1793m5.03 0h10.06m5.02 0h5.04" stroke="#3a414a" fill="none"/><path d="M1501.5 1360l14.28-4.63v9.27z" stroke="#3a414a" fill="#3a414a"/><path d="M1818.65 1360.47h-.5v-.94h.5z" stroke="#3a414a" stroke-width=".05" fill="#3a414a"/><defs><path d="M600 0L52-1490h200c166 485 304 806 458 1336 156-533 285-846 449-1336h202L819 0H600" id="T"/><path d="M52 0l541-1490h220L1361 0h-200l-149-416H398L254 0H52zm404-582h497c-103-290-145-390-251-756-108 377-145 460-246 756" id="U"/><path d="M180 0v-1490h510c348 0 508 209 508 474 0 266-160 477-507 477H370V0H180zm190-706h312c236 0 327-133 327-310 0-176-91-307-329-307H370v617" id="V"/><path d="M180 0v-1490h908v168H370v486h669v168H370v500h727V0H180" id="W"/><path d="M763 24c-353 0-583-224-583-531v-983h190v968c0 214 149 370 393 370 243 0 391-156 391-370v-968h190v983c0 307-230 531-581 531" id="X"/><path d="M180 0v-1490h510c348 0 508 194 508 460 0 198-88 351-276 417L1256 0h-220L726-579c-117 2-238 0-356 1V0H180zm190-747h312c235 0 327-108 327-283 0-177-92-293-329-293H370v576" id="Y"/><g id="a"><use transform="matrix(0.026041666666666668,0,0,0.026041666666666668,0,0)" xlink:href="#T"/><use transform="matrix(0.026041666666666668,0,0,0.026041666666666668,33.151041666666664,0)" xlink:href="#U"/><use transform="matrix(0.026041666666666668,0,0,0.026041666666666668,69.94791666666666,0)" xlink:href="#V"/><use transform="matrix(0.026041666666666668,0,0,0.026041666666666668,104.01041666666666,0)" xlink:href="#W"/><use transform="matrix(0.026041666666666668,0,0,0.026041666666666668,136.06770833333331,0)" xlink:href="#X"/><use transform="matrix(0.026041666666666668,0,0,0.026041666666666668,175.75520833333331,0)" xlink:href="#Y"/></g><path d="M798-719v166H144v-166h654" id="Z"/><use transform="matrix(0.026041666666666668,0,0,0.026041666666666668,0,0)" xlink:href="#Z" id="b"/><path d="M180 0v-1490h901v168H370v510h643v168H370V0H180" id="aa"/><path d="M158 0v-1118h180V0H158zm91-1301c-68 0-125-53-125-119s57-119 125-119c69 0 126 53 126 119s-57 119-126 119" id="ab"/><path d="M613 24c-304 0-509-231-509-576 0-350 205-580 509-580 216 0 392 114 453 309l-173 49c-33-115-133-197-280-197-223 0-326 196-326 419 0 220 103 415 326 415 150 0 252-85 285-206l172 49C1010-95 832 24 613 24" id="ac"/><path d="M338-670V0H158v-1490h180v566c73-149 190-208 336-208 226 0 379 139 379 422V0H872v-695c0-172-96-275-252-275-161 0-282 109-282 300" id="ad"/><path d="M628 24c-324 0-524-230-524-574 0-343 198-582 503-582 237 0 487 146 487 559v75H286c9 234 145 362 343 362 132 0 231-58 273-172l174 48C1024-91 857 24 628 24zM287-650h624c-17-190-120-322-304-322-192 0-309 151-320 322" id="ae"/><g id="c"><use transform="matrix(0.026041666666666668,0,0,0.026041666666666668,0,0)" xlink:href="#aa"/><use transform="matrix(0.026041666666666668,0,0,0.026041666666666668,31.484375,0)" xlink:href="#ab"/><use transform="matrix(0.026041666666666668,0,0,0.026041666666666668,44.40104166666667,0)" xlink:href="#ac"/><use transform="matrix(0.026041666666666668,0,0,0.026041666666666668,74.86979166666667,0)" xlink:href="#ad"/><use transform="matrix(0.026041666666666668,0,0,0.026041666666666668,106.40625,0)" xlink:href="#ae"/></g><path d="M577 24c-279 0-473-224-473-580 0-354 195-576 474-576 218 0 287 134 324 193h14v-551h180V0H922v-173h-20C865-111 790 24 577 24zm27-161c203 0 314-172 314-421 0-247-108-413-314-413-212 0-317 181-317 413 0 235 108 421 317 421" id="af"/><path d="M628 24c-324 0-524-230-524-574 0-343 198-582 503-582 237 0 487 146 487 559v75H286c9 234 145 362 343 362 132 0 231-58 273-172l174 48C1024-91 857 24 628 24zM287-650h624c-17-190-120-322-304-322-192 0-309 151-320 322zm237-614l140-294h201l-194 294H524" id="ag"/><path d="M598-1118v154H368v674c0 100 37 144 132 144 23 0 62-6 92-12L629-6c-37 13-88 20-134 20-193 0-307-107-307-290v-688H20v-154h168v-266h180v266h230" id="ah"/><path d="M471 26C259 26 90-98 90-318c0-256 228-303 435-329 202-27 287-16 287-108 0-139-79-219-234-219-161 0-248 86-283 164l-173-57c86-203 278-265 451-265 150 0 419 46 419 395V0H815v-152h-12C765-73 660 26 471 26zm31-159c199 0 310-134 310-271v-155c-30 35-226 55-295 64-131 17-246 59-246 186 0 116 97 176 231 176" id="ai"/><path d="M338-1490V0H158v-1490h180" id="aj"/><g id="d"><use transform="matrix(0.026041666666666668,0,0,0.026041666666666668,0,0)" xlink:href="#af"/><use transform="matrix(0.026041666666666668,0,0,0.026041666666666668,32.65625,0)" xlink:href="#ag"/><use transform="matrix(0.026041666666666668,0,0,0.026041666666666668,63.75,0)" xlink:href="#ah"/><use transform="matrix(0.026041666666666668,0,0,0.026041666666666668,81.45833333333334,0)" xlink:href="#ai"/><use transform="matrix(0.026041666666666668,0,0,0.026041666666666668,111.40625,0)" xlink:href="#ab"/><use transform="matrix(0.026041666666666668,0,0,0.026041666666666668,124.3229166666667,0)" xlink:href="#aj"/><use transform="matrix(0.026041666666666668,0,0,0.026041666666666668,137.23958333333334,0)" xlink:href="#aj"/><use transform="matrix(0.026041666666666668,0,0,0.026041666666666668,150.15625,0)" xlink:href="#ag"/><use transform="matrix(0.026041666666666668,0,0,0.026041666666666668,181.25,0)" xlink:href="#ae"/></g><path d="M232-923l-22-567h194l-22 567H232" id="ak"/><path d="M537 14c-226 0-379-139-379-422v-710h180v695c0 172 97 275 253 275 160 0 281-109 281-300v-670h181V0H879v-209C806-46 684 14 537 14" id="al"/><path d="M338-670V0H158v-1118h173l1 207c72-158 192-221 342-221 226 0 378 139 378 422V0H872v-695c0-172-96-275-252-275-161 0-282 109-282 300" id="am"/><g id="e"><use transform="matrix(0.026041666666666668,0,0,0.026041666666666668,0,0)" xlink:href="#af"/><use transform="matrix(0.026041666666666668,0,0,0.026041666666666668,32.65625,0)" xlink:href="#ak"/><use transform="matrix(0.026041666666666668,0,0,0.026041666666666668,48.645833333333336,0)" xlink:href="#al"/><use transform="matrix(0.026041666666666668,0,0,0.026041666666666668,80.18229166666667,0)" xlink:href="#am"/></g><path d="M157-1118h181V80c1 225-123 350-364 338V252c126 9 184-48 183-172v-1198zm91-183c-68 0-125-53-125-119s57-119 125-119c69 0 126 53 126 119s-57 119-126 119" id="an"/><g id="f"><use transform="matrix(0.026041666666666668,0,0,0.026041666666666668,0,0)" xlink:href="#an"/><use transform="matrix(0.026041666666666668,0,0,0.026041666666666668,12.916666666666668,0)" xlink:href="#ae"/><use transform="matrix(0.026041666666666668,0,0,0.026041666666666668,44.01041666666667,0)" xlink:href="#al"/></g><path fill="#333" d="M180 0v-1490h528c311 0 458 177 458 395 0 191-114 278-244 313v14c139 9 302 137 302 371 0 225-148 397-499 397H180zm190-168h350c232 0 321-102 321-231 0-149-120-277-311-277H370v508zm0-668h328c160 0 286-101 286-255 0-129-87-231-280-231H370v486" id="ao"/><path fill="#333" d="M471 26C259 26 90-98 90-318c0-256 228-303 435-329 202-27 287-16 287-108 0-139-79-219-234-219-161 0-248 86-283 164l-173-57c86-203 278-265 451-265 150 0 419 46 419 395V0H815v-152h-12C765-73 660 26 471 26zm31-159c199 0 310-134 310-271v-155c-30 35-226 55-295 64-131 17-246 59-246 186 0 116 97 176 231 176" id="ap"/><path fill="#333" d="M613 24c-304 0-509-231-509-576 0-350 205-580 509-580 216 0 392 114 453 309l-173 49c-33-115-133-197-280-197-223 0-326 196-326 419 0 220 103 415 326 415 150 0 252-85 285-206l172 49C1010-95 832 24 613 24" id="aq"/><path fill="#333" d="M158 0v-1490h180v865h22l478-493h223L593-638 1096 0H865L456-523 338-412V0H158" id="ar"/><path fill="#333" d="M628 24c-324 0-524-230-524-574 0-343 198-582 503-582 237 0 487 146 487 559v75H286c9 234 145 362 343 362 132 0 231-58 273-172l174 48C1024-91 857 24 628 24zM287-650h624c-17-190-120-322-304-322-192 0-309 151-320 322" id="as"/><path fill="#333" d="M338-670V0H158v-1118h173l1 207c72-158 192-221 342-221 226 0 378 139 378 422V0H872v-695c0-172-96-275-252-275-161 0-282 109-282 300" id="at"/><path fill="#333" d="M577 24c-279 0-473-224-473-580 0-354 195-576 474-576 218 0 287 134 324 193h14v-551h180V0H922v-173h-20C865-111 790 24 577 24zm27-161c203 0 314-172 314-421 0-247-108-413-314-413-212 0-317 181-317 413 0 235 108 421 317 421" id="au"/><g id="g"><use transform="matrix(0.010850694444444444,0,0,0.010850694444444444,0,0)" xlink:href="#ao"/><use transform="matrix(0.010850694444444444,0,0,0.010850694444444444,14.539930555555555,0)" xlink:href="#ap"/><use transform="matrix(0.010850694444444444,0,0,0.010850694444444444,27.018229166666664,0)" xlink:href="#aq"/><use transform="matrix(0.010850694444444444,0,0,0.010850694444444444,39.713541666666664,0)" xlink:href="#ar"/><use transform="matrix(0.010850694444444444,0,0,0.010850694444444444,51.41059027777778,0)" xlink:href="#as"/><use transform="matrix(0.010850694444444444,0,0,0.010850694444444444,64.36631944444444,0)" xlink:href="#at"/><use transform="matrix(0.010850694444444444,0,0,0.010850694444444444,77.49565972222221,0)" xlink:href="#au"/></g><path fill="#333" d="M645 0H180v-1490h484c435 0 692 280 692 742 0 466-257 748-711 748zM370-168h263c363 0 539-218 539-580 0-358-176-574-521-574H370v1154" id="av"/><path fill="#333" d="M598-1118v154H368v674c0 100 37 144 132 144 23 0 62-6 92-12L629-6c-37 13-88 20-134 20-193 0-307-107-307-290v-688H20v-154h168v-266h180v266h230" id="aw"/><path fill="#333" d="M677 24c-213 0-288-135-325-197h-20V0H158v-1490h180v551h14c37-59 106-193 324-193 279 0 474 222 474 576 0 356-194 580-473 580zm-27-161c209 0 317-186 317-421 0-232-105-413-317-413-206 0-314 166-314 413 0 249 111 421 314 421" id="ax"/><path fill="#333" d="M538 24C308 24 148-78 108-271l171-41c32 123 123 178 257 178 156 0 256-77 256-169 0-77-54-128-164-154l-186-44c-203-48-300-148-300-305 0-192 176-326 414-326 230 0 351 112 402 269l-163 42c-31-80-94-158-238-158-133 0-233 69-233 162 0 83 57 129 188 160l169 40c203 48 298 149 298 302 0 196-179 339-441 339" id="ay"/><g id="h"><use transform="matrix(0.010850694444444444,0,0,0.010850694444444444,0,0)" xlink:href="#av"/><use transform="matrix(0.010850694444444444,0,0,0.010850694444444444,16.03732638888889,0)" xlink:href="#ap"/><use transform="matrix(0.010850694444444444,0,0,0.010850694444444444,28.515625,0)" xlink:href="#aw"/><use transform="matrix(0.010850694444444444,0,0,0.010850694444444444,35.89409722222222,0)" xlink:href="#ap"/><use transform="matrix(0.010850694444444444,0,0,0.010850694444444444,48.37239583333333,0)" xlink:href="#ax"/><use transform="matrix(0.010850694444444444,0,0,0.010850694444444444,62.19618055555554,0)" xlink:href="#ap"/><use transform="matrix(0.010850694444444444,0,0,0.010850694444444444,74.67447916666666,0)" xlink:href="#ay"/><use transform="matrix(0.010850694444444444,0,0,0.010850694444444444,86.4040798611111,0)" xlink:href="#as"/></g><path d="M538 24C308 24 148-78 108-271l171-41c32 123 123 178 257 178 156 0 256-77 256-169 0-77-54-128-164-154l-186-44c-203-48-300-148-300-305 0-192 176-326 414-326 230 0 351 112 402 269l-163 42c-31-80-94-158-238-158-133 0-233 69-233 162 0 83 57 129 188 160l169 40c203 48 298 149 298 302 0 196-179 339-441 339" id="az"/><path d="M158 0v-1118h174v172h12c41-113 157-188 290-188 26 0 70 2 91 3v181c-11-2-60-10-108-10-161 0-279 109-279 260V0H158" id="aA"/><g id="i"><use transform="matrix(0.010850694444444444,0,0,0.010850694444444444,0,0)" xlink:href="#X"/><use transform="matrix(0.010850694444444444,0,0,0.010850694444444444,16.536458333333332,0)" xlink:href="#ah"/><use transform="matrix(0.010850694444444444,0,0,0.010850694444444444,23.80642361111111,0)" xlink:href="#ab"/><use transform="matrix(0.010850694444444444,0,0,0.010850694444444444,29.18836805555556,0)" xlink:href="#aj"/><use transform="matrix(0.010850694444444444,0,0,0.010850694444444444,34.5703125,0)" xlink:href="#ab"/><use transform="matrix(0.010850694444444444,0,0,0.010850694444444444,39.95225694444444,0)" xlink:href="#az"/><use transform="matrix(0.010850694444444444,0,0,0.010850694444444444,51.681857638888886,0)" xlink:href="#ai"/><use transform="matrix(0.010850694444444444,0,0,0.010850694444444444,64.16015625,0)" xlink:href="#ah"/><use transform="matrix(0.010850694444444444,0,0,0.010850694444444444,71.21310763888889,0)" xlink:href="#ae"/><use transform="matrix(0.010850694444444444,0,0,0.010850694444444444,84.16883680555556,0)" xlink:href="#al"/><use transform="matrix(0.010850694444444444,0,0,0.010850694444444444,97.30902777777777,0)" xlink:href="#aA"/></g><path fill="#333" d="M180 0v-1490h901v168H370v510h643v168H370V0H180" id="aB"/><path fill="#333" d="M158 0v-1118h174v172h12c41-113 157-188 290-188 26 0 70 2 91 3v181c-11-2-60-10-108-10-161 0-279 109-279 260V0H158" id="aC"/><path fill="#333" d="M613 24c-304 0-509-231-509-576 0-350 205-580 509-580 305 0 511 230 511 580 0 345-206 576-511 576zm0-161c226 0 329-195 329-415 0-222-103-419-329-419-223 0-326 196-326 419 0 220 103 415 326 415" id="aD"/><g id="j"><use transform="matrix(0.010850694444444444,0,0,0.010850694444444444,0,0)" xlink:href="#aB"/><use transform="matrix(0.010850694444444444,0,0,0.010850694444444444,12.467447916666666,0)" xlink:href="#aC"/><use transform="matrix(0.010850694444444444,0,0,0.010850694444444444,20.46440972222222,0)" xlink:href="#aD"/><use transform="matrix(0.010850694444444444,0,0,0.010850694444444444,33.7890625,0)" xlink:href="#at"/><use transform="matrix(0.010850694444444444,0,0,0.010850694444444444,46.91840277777778,0)" xlink:href="#aw"/><use transform="matrix(0.010850694444444444,0,0,0.010850694444444444,53.97135416666667,0)" xlink:href="#as"/><use transform="matrix(0.010850694444444444,0,0,0.010850694444444444,66.92708333333334,0)" xlink:href="#at"/><use transform="matrix(0.010850694444444444,0,0,0.010850694444444444,80.05642361111111,0)" xlink:href="#au"/></g><path fill="#3a414a" d="M180 0v-1490h510c348 0 508 194 508 460 0 198-88 351-276 417L1256 0h-220L726-579c-117 2-238 0-356 1V0H180zm190-747h312c235 0 327-108 327-283 0-177-92-293-329-293H370v576" id="aE"/><path fill="#3a414a" d="M628 24c-324 0-524-230-524-574 0-343 198-582 503-582 237 0 487 146 487 559v75H286c9 234 145 362 343 362 132 0 231-58 273-172l174 48C1024-91 857 24 628 24zM287-650h624c-17-190-120-322-304-322-192 0-309 151-320 322zm237-614l140-294h201l-194 294H524" id="aF"/><path fill="#3a414a" d="M613 24c-304 0-509-231-509-576 0-350 205-580 509-580 216 0 392 114 453 309l-173 49c-33-115-133-197-280-197-223 0-326 196-326 419 0 220 103 415 326 415 150 0 252-85 285-206l172 49C1010-95 832 24 613 24" id="aG"/><path fill="#3a414a" d="M537 14c-226 0-379-139-379-422v-710h180v695c0 172 97 275 253 275 160 0 281-109 281-300v-670h181V0H879v-209C806-46 684 14 537 14" id="aH"/><path fill="#3a414a" d="M158 418v-1536h174v179h20c37-59 106-193 324-193 279 0 474 222 474 576 0 356-194 580-473 580-213 0-288-135-325-197h-14v591H158zm492-555c209 0 317-186 317-421 0-232-105-413-317-413-206 0-314 166-314 413 0 249 111 421 314 421" id="aI"/><path fill="#3a414a" d="M628 24c-324 0-524-230-524-574 0-343 198-582 503-582 237 0 487 146 487 559v75H286c9 234 145 362 343 362 132 0 231-58 273-172l174 48C1024-91 857 24 628 24zM287-650h624c-17-190-120-322-304-322-192 0-309 151-320 322zm245-614l-193-294h201l140 294H532" id="aJ"/><path fill="#3a414a" d="M158 0v-1118h174v172h12c41-113 157-188 290-188 26 0 70 2 91 3v181c-11-2-60-10-108-10-161 0-279 109-279 260V0H158" id="aK"/><path fill="#3a414a" d="M628 24c-324 0-524-230-524-574 0-343 198-582 503-582 237 0 487 146 487 559v75H286c9 234 145 362 343 362 132 0 231-58 273-172l174 48C1024-91 857 24 628 24zM287-650h624c-17-190-120-322-304-322-192 0-309 151-320 322" id="aL"/><g id="k"><use transform="matrix(0.008680555555555556,0,0,0.008680555555555556,0,0)" xlink:href="#aE"/><use transform="matrix(0.008680555555555556,0,0,0.008680555555555556,11.180555555555559,0)" xlink:href="#aF"/><use transform="matrix(0.008680555555555556,0,0,0.008680555555555556,21.545138888888893,0)" xlink:href="#aG"/><use transform="matrix(0.008680555555555556,0,0,0.008680555555555556,31.701388888888893,0)" xlink:href="#aH"/><use transform="matrix(0.008680555555555556,0,0,0.008680555555555556,42.21354166666667,0)" xlink:href="#aI"/><use transform="matrix(0.008680555555555556,0,0,0.008680555555555556,53.09895833333334,0)" xlink:href="#aJ"/><use transform="matrix(0.008680555555555556,0,0,0.008680555555555556,63.46354166666668,0)" xlink:href="#aK"/><use transform="matrix(0.008680555555555556,0,0,0.008680555555555556,69.86111111111113,0)" xlink:href="#aL"/></g><path fill="#3a414a" d="M338-1490V0H158v-1490h180" id="aM"/><path fill="#3a414a" d="M538 24C308 24 148-78 108-271l171-41c32 123 123 178 257 178 156 0 256-77 256-169 0-77-54-128-164-154l-186-44c-203-48-300-148-300-305 0-192 176-326 414-326 230 0 351 112 402 269l-163 42c-31-80-94-158-238-158-133 0-233 69-233 162 0 83 57 129 188 160l169 40c203 48 298 149 298 302 0 196-179 339-441 339" id="aN"/><g id="l"><use transform="matrix(0.008680555555555556,0,0,0.008680555555555556,0,0)" xlink:href="#aM"/><use transform="matrix(0.008680555555555556,0,0,0.008680555555555556,4.305555555555555,0)" xlink:href="#aL"/><use transform="matrix(0.008680555555555556,0,0,0.008680555555555556,14.67013888888889,0)" xlink:href="#aN"/></g><path fill="#3a414a" d="M158 0v-1118h180V0H158zm91-1301c-68 0-125-53-125-119s57-119 125-119c69 0 126 53 126 119s-57 119-126 119" id="aO"/><path fill="#3a414a" d="M338-670V0H158v-1118h173l1 207c72-158 192-221 342-221 226 0 378 139 378 422V0H872v-695c0-172-96-275-252-275-161 0-282 109-282 300" id="aP"/><path fill="#3a414a" d="M678-1118v154H420V0H240v-964H20v-154h220v-149c0-194 155-293 318-293 85 0 141 18 168 30l-50 154c-19-6-47-17-97-17-111 0-159 58-159 166v109h258" id="aQ"/><path fill="#3a414a" d="M613 24c-304 0-509-231-509-576 0-350 205-580 509-580 305 0 511 230 511 580 0 345-206 576-511 576zm0-161c226 0 329-195 329-415 0-222-103-419-329-419-223 0-326 196-326 419 0 220 103 415 326 415" id="aR"/><path fill="#3a414a" d="M158 0v-1118h175l1 205c55-151 181-225 313-225 147 0 245 90 285 228 53-141 190-228 352-228 194 0 352 125 352 384V0h-181v-749c0-161-105-225-225-225-151 0-243 103-243 244V0H807v-767c0-124-93-207-219-207-131 0-250 92-250 270V0H158" id="aS"/><path fill="#3a414a" d="M471 26C259 26 90-98 90-318c0-256 228-303 435-329 202-27 287-16 287-108 0-139-79-219-234-219-161 0-248 86-283 164l-173-57c86-203 278-265 451-265 150 0 419 46 419 395V0H815v-152h-12C765-73 660 26 471 26zm31-159c199 0 310-134 310-271v-155c-30 35-226 55-295 64-131 17-246 59-246 186 0 116 97 176 231 176" id="aT"/><path fill="#3a414a" d="M598-1118v154H368v674c0 100 37 144 132 144 23 0 62-6 92-12L629-6c-37 13-88 20-134 20-193 0-307-107-307-290v-688H20v-154h168v-266h180v266h230" id="aU"/><g id="m"><use transform="matrix(0.008680555555555556,0,0,0.008680555555555556,0,0)" xlink:href="#aO"/><use transform="matrix(0.008680555555555556,0,0,0.008680555555555556,4.305555555555555,0)" xlink:href="#aP"/><use transform="matrix(0.008680555555555556,0,0,0.008680555555555556,14.809027777777779,0)" xlink:href="#aQ"/><use transform="matrix(0.008680555555555556,0,0,0.008680555555555556,20.868055555555557,0)" xlink:href="#aR"/><use transform="matrix(0.008680555555555556,0,0,0.008680555555555556,31.52777777777778,0)" xlink:href="#aK"/><use transform="matrix(0.008680555555555556,0,0,0.008680555555555556,38.49826388888889,0)" xlink:href="#aS"/><use transform="matrix(0.008680555555555556,0,0,0.008680555555555556,54.07118055555556,0)" xlink:href="#aT"/><use transform="matrix(0.008680555555555556,0,0,0.008680555555555556,64.05381944444444,0)" xlink:href="#aU"/><use transform="matrix(0.008680555555555556,0,0,0.008680555555555556,69.86979166666667,0)" xlink:href="#aO"/><use transform="matrix(0.008680555555555556,0,0,0.008680555555555556,74.17534722222223,0)" xlink:href="#aR"/><use transform="matrix(0.008680555555555556,0,0,0.008680555555555556,84.83506944444446,0)" xlink:href="#aP"/><use transform="matrix(0.008680555555555556,0,0,0.008680555555555556,95.33854166666669,0)" xlink:href="#aN"/></g><path fill="#3a414a" d="M577 24c-279 0-473-224-473-580 0-354 195-576 474-576 218 0 287 134 324 193h14v-551h180V0H922v-173h-20C865-111 790 24 577 24zm27-161c203 0 314-172 314-421 0-247-108-413-314-413-212 0-317 181-317 413 0 235 108 421 317 421" id="aV"/><g id="n"><use transform="matrix(0.008680555555555556,0,0,0.008680555555555556,0,0)" xlink:href="#aV"/><use transform="matrix(0.008680555555555556,0,0,0.008680555555555556,10.885416666666668,0)" xlink:href="#aH"/></g><path fill="#3a414a" d="M157-1118h181V80c1 225-123 350-364 338V252c126 9 184-48 183-172v-1198zm91-183c-68 0-125-53-125-119s57-119 125-119c69 0 126 53 126 119s-57 119-126 119" id="aW"/><g id="o"><use transform="matrix(0.008680555555555556,0,0,0.008680555555555556,0,0)" xlink:href="#aW"/><use transform="matrix(0.008680555555555556,0,0,0.008680555555555556,4.305555555555555,0)" xlink:href="#aL"/><use transform="matrix(0.008680555555555556,0,0,0.008680555555555556,14.67013888888889,0)" xlink:href="#aH"/></g><path fill="#3a414a" d="M52 0l541-1490h220L1361 0h-200l-149-416H398L254 0H52zm404-582h497c-103-290-145-390-251-756-108 377-145 460-246 756" id="aX"/><path fill="#3a414a" d="M481 0L54-1118h197c107 314 236 620 325 951 87-331 217-637 324-951h197L670 0H481" id="aY"/><g id="p"><use transform="matrix(0.008680555555555556,0,0,0.008680555555555556,0,0)" xlink:href="#aX"/><use transform="matrix(0.008680555555555556,0,0,0.008680555555555556,11.059027777777779,0)" xlink:href="#aY"/><use transform="matrix(0.008680555555555556,0,0,0.008680555555555556,21.05034722222222,0)" xlink:href="#aO"/><use transform="matrix(0.008680555555555556,0,0,0.008680555555555556,25.35590277777778,0)" xlink:href="#aN"/></g><g id="q"><use transform="matrix(0.008680555555555556,0,0,0.008680555555555556,0,0)" xlink:href="#aV"/><use transform="matrix(0.008680555555555556,0,0,0.008680555555555556,10.885416666666668,0)" xlink:href="#aH"/></g><g id="r"><use transform="matrix(0.008680555555555556,0,0,0.008680555555555556,0,0)" xlink:href="#aW"/><use transform="matrix(0.008680555555555556,0,0,0.008680555555555556,4.305555555555555,0)" xlink:href="#aL"/><use transform="matrix(0.008680555555555556,0,0,0.008680555555555556,14.67013888888889,0)" xlink:href="#aH"/></g><path fill="#3a414a" d="M338-670V0H158v-1490h180v566c73-149 190-208 336-208 226 0 379 139 379 422V0H872v-695c0-172-96-275-252-275-161 0-282 109-282 300" id="aZ"/><g id="s"><use transform="matrix(0.008680555555555556,0,0,0.008680555555555556,0,0)" xlink:href="#aX"/><use transform="matrix(0.008680555555555556,0,0,0.008680555555555556,12.265625,0)" xlink:href="#aQ"/><use transform="matrix(0.008680555555555556,0,0,0.008680555555555556,18.151041666666668,0)" xlink:href="#aQ"/><use transform="matrix(0.008680555555555556,0,0,0.008680555555555556,24.73090277777778,0)" xlink:href="#aO"/><use transform="matrix(0.008680555555555556,0,0,0.008680555555555556,29.036458333333336,0)" xlink:href="#aG"/><use transform="matrix(0.008680555555555556,0,0,0.008680555555555556,39.192708333333336,0)" xlink:href="#aZ"/><use transform="matrix(0.008680555555555556,0,0,0.008680555555555556,49.704861111111114,0)" xlink:href="#aL"/></g><g id="t"><use transform="matrix(0.008680555555555556,0,0,0.008680555555555556,0,0)" xlink:href="#aM"/><use transform="matrix(0.008680555555555556,0,0,0.008680555555555556,4.305555555555555,0)" xlink:href="#aT"/></g><path fill="#3a414a" d="M611 442c-248 0-391-105-460-228l146-94c47 65 117 165 314 165 178 0 307-82 307-266v-224h-17C863-141 792-18 576-18c-268 0-472-195-472-546 0-346 197-568 476-568 216 0 288 133 326 193h17v-179h175V29c0 289-215 413-487 413zm-5-620c203 0 314-146 314-390 0-237-108-403-314-403-213 0-319 180-319 403 0 230 109 390 319 390" id="ba"/><g id="u"><use transform="matrix(0.008680555555555556,0,0,0.008680555555555556,0,0)" xlink:href="#aI"/><use transform="matrix(0.008680555555555556,0,0,0.008680555555555556,11.059027777777779,0)" xlink:href="#aT"/><use transform="matrix(0.008680555555555556,0,0,0.008680555555555556,21.041666666666668,0)" xlink:href="#ba"/><use transform="matrix(0.008680555555555556,0,0,0.008680555555555556,31.944444444444446,0)" xlink:href="#aL"/></g><g id="v"><use transform="matrix(0.008680555555555556,0,0,0.008680555555555556,0,0)" xlink:href="#aV"/><use transform="matrix(0.008680555555555556,0,0,0.008680555555555556,10.885416666666668,0)" xlink:href="#aF"/><use transform="matrix(0.008680555555555556,0,0,0.008680555555555556,21.25,0)" xlink:href="#aU"/><use transform="matrix(0.008680555555555556,0,0,0.008680555555555556,27.15277777777778,0)" xlink:href="#aT"/><use transform="matrix(0.008680555555555556,0,0,0.008680555555555556,37.13541666666667,0)" xlink:href="#aO"/><use transform="matrix(0.008680555555555556,0,0,0.008680555555555556,41.44097222222223,0)" xlink:href="#aM"/><use transform="matrix(0.008680555555555556,0,0,0.008680555555555556,45.746527777777786,0)" xlink:href="#aM"/><use transform="matrix(0.008680555555555556,0,0,0.008680555555555556,50.05208333333334,0)" xlink:href="#aF"/><use transform="matrix(0.008680555555555556,0,0,0.008680555555555556,60.41666666666668,0)" xlink:href="#aL"/></g><g id="w"><use transform="matrix(0.008680555555555556,0,0,0.008680555555555556,0,0)" xlink:href="#aW"/><use transform="matrix(0.008680555555555556,0,0,0.008680555555555556,4.305555555555555,0)" xlink:href="#aL"/><use transform="matrix(0.008680555555555556,0,0,0.008680555555555556,14.67013888888889,0)" xlink:href="#aH"/></g><g id="x"><use transform="matrix(0.008680555555555556,0,0,0.008680555555555556,0,0)" xlink:href="#aT"/><use transform="matrix(0.008680555555555556,0,0,0.008680555555555556,9.722222222222223,0)" xlink:href="#aY"/><use transform="matrix(0.008680555555555556,0,0,0.008680555555555556,19.366319444444446,0)" xlink:href="#aL"/><use transform="matrix(0.008680555555555556,0,0,0.008680555555555556,29.73090277777778,0)" xlink:href="#aG"/></g><g id="y"><use transform="matrix(0.008680555555555556,0,0,0.008680555555555556,0,0)" xlink:href="#aM"/><use transform="matrix(0.008680555555555556,0,0,0.008680555555555556,4.305555555555555,0)" xlink:href="#aL"/><use transform="matrix(0.008680555555555556,0,0,0.008680555555555556,14.67013888888889,0)" xlink:href="#aN"/></g><g id="z"><use transform="matrix(0.008680555555555556,0,0,0.008680555555555556,0,0)" xlink:href="#aT"/><use transform="matrix(0.008680555555555556,0,0,0.008680555555555556,9.722222222222223,0)" xlink:href="#aY"/><use transform="matrix(0.008680555555555556,0,0,0.008680555555555556,19.713541666666668,0)" xlink:href="#aO"/><use transform="matrix(0.008680555555555556,0,0,0.008680555555555556,24.019097222222225,0)" xlink:href="#aN"/></g><path fill="#3a414a" d="M783 20c-382 0-661-292-661-764 0-473 279-766 661-766 302 0 548 182 601 489h-190c-42-204-217-313-411-313-268 0-476 208-476 590 0 381 209 588 476 588 195 0 369-110 411-313h190c-52 303-296 489-601 489" id="bb"/><path fill="#3a414a" d="M1096 418H916v-591h-14C865-111 790 24 577 24c-279 0-473-224-473-580 0-354 195-576 474-576 218 0 287 134 324 193h20v-179h174V418zM604-137c203 0 314-172 314-421 0-247-108-413-314-413-212 0-317 181-317 413 0 235 108 421 317 421" id="bc"/><g id="A"><use transform="matrix(0.0087890625,0,0,0.0087890625,0,0)" xlink:href="#bb"/><use transform="matrix(0.0087890625,0,0,0.0087890625,13.1484375,0)" xlink:href="#aM"/><use transform="matrix(0.0087890625,0,0,0.0087890625,17.5078125,0)" xlink:href="#aO"/><use transform="matrix(0.0087890625,0,0,0.0087890625,21.8671875,0)" xlink:href="#bc"/><use transform="matrix(0.0087890625,0,0,0.0087890625,32.888671875,0)" xlink:href="#aH"/><use transform="matrix(0.0087890625,0,0,0.0087890625,43.5322265625,0)" xlink:href="#aL"/></g><g id="B"><use transform="matrix(0.0087890625,0,0,0.0087890625,0,0)" xlink:href="#aN"/><use transform="matrix(0.0087890625,0,0,0.0087890625,9.5009765625,0)" xlink:href="#aH"/><use transform="matrix(0.0087890625,0,0,0.0087890625,20.14453125,0)" xlink:href="#aK"/></g><g id="C"><use transform="matrix(0.0087890625,0,0,0.0087890625,0,0)" xlink:href="#aH"/><use transform="matrix(0.0087890625,0,0,0.0087890625,10.6435546875,0)" xlink:href="#aP"/></g><g id="D"><use transform="matrix(0.0087890625,0,0,0.0087890625,0,0)" xlink:href="#aW"/><use transform="matrix(0.0087890625,0,0,0.0087890625,4.359375,0)" xlink:href="#aL"/><use transform="matrix(0.0087890625,0,0,0.0087890625,14.853515625,0)" xlink:href="#aH"/></g><path fill="#3a414a" d="M789 20c-398 0-667-293-667-764 0-473 273-766 655-766 315 0 558 198 612 487h-196c-61-191-204-311-415-311-262 0-471 207-471 590 0 380 208 588 482 588 249 0 420-165 425-427H828v-166h572v163c0 370-256 606-611 606" id="bd"/><path fill="#3a414a" d="M180 0v-1490h908v168H370v486h669v168H370v500h727V0H180" id="be"/><path fill="#3a414a" d="M98-1322v-168h1126v168H757V0H567v-1322H98" id="bf"/><g id="E"><use transform="matrix(0.0087890625,0,0,0.0087890625,0,0)" xlink:href="#bd"/><use transform="matrix(0.0087890625,0,0,0.0087890625,13.4296875,0)" xlink:href="#be"/><use transform="matrix(0.0087890625,0,0,0.0087890625,24.2490234375,0)" xlink:href="#bf"/></g><path fill="#3a414a" d="M692-1560L212 224H46l480-1784h166" id="bg"/><path fill="#3a414a" d="M750 279c-286 0-388-117-388-391v-228c1-158-59-222-218-220v-182c158 3 218-60 218-218v-230c0-273 102-391 388-391v151c-169-1-222 74-222 243v286c0 117-37 206-205 240v20c168 35 205 125 205 242v284c0 169 52 245 222 245v149" id="bh"/><path fill="#3a414a" d="M123 279V130c170 0 222-76 222-245v-284c0-116 37-207 204-242v-20c-167-34-204-123-204-240v-286c0-168-52-243-222-243v-151c285 0 387 118 387 391v230c-1 158 57 219 219 219v180c-164 1-219 64-219 221v228c0 274-102 391-387 391" id="bi"/><g id="F"><use transform="matrix(0.0087890625,0,0,0.0087890625,0,0)" xlink:href="#bg"/><use transform="matrix(0.0087890625,0,0,0.0087890625,6.486328125,0)" xlink:href="#ba"/><use transform="matrix(0.0087890625,0,0,0.0087890625,17.525390625,0)" xlink:href="#aT"/><use transform="matrix(0.0087890625,0,0,0.0087890625,27.6328125,0)" xlink:href="#aS"/><use transform="matrix(0.0087890625,0,0,0.0087890625,43.400390625,0)" xlink:href="#aL"/><use transform="matrix(0.0087890625,0,0,0.0087890625,53.89453125,0)" xlink:href="#aN"/><use transform="matrix(0.0087890625,0,0,0.0087890625,63.3955078125,0)" xlink:href="#bg"/><use transform="matrix(0.0087890625,0,0,0.0087890625,69.8818359375,0)" xlink:href="#bh"/><use transform="matrix(0.0087890625,0,0,0.0087890625,77.5546875,0)" xlink:href="#aO"/><use transform="matrix(0.0087890625,0,0,0.0087890625,81.9140625,0)" xlink:href="#aV"/><use transform="matrix(0.0087890625,0,0,0.0087890625,92.935546875,0)" xlink:href="#bi"/></g><path fill="#3a414a" d="M370-1490V0H180v-1490h190" id="bj"/><g id="G"><use transform="matrix(0.0087890625,0,0,0.0087890625,0,0)" xlink:href="#bj"/><use transform="matrix(0.0087890625,0,0,0.0087890625,4.833984375,0)" xlink:href="#aP"/><use transform="matrix(0.0087890625,0,0,0.0087890625,15.46875,0)" xlink:href="#aQ"/><use transform="matrix(0.0087890625,0,0,0.0087890625,21.603515625,0)" xlink:href="#aR"/><use transform="matrix(0.0087890625,0,0,0.0087890625,32.396484375,0)" xlink:href="#aK"/><use transform="matrix(0.0087890625,0,0,0.0087890625,39.4541015625,0)" xlink:href="#aS"/><use transform="matrix(0.0087890625,0,0,0.0087890625,55.2216796875,0)" xlink:href="#aT"/><use transform="matrix(0.0087890625,0,0,0.0087890625,65.3291015625,0)" xlink:href="#aU"/><use transform="matrix(0.0087890625,0,0,0.0087890625,71.2177734375,0)" xlink:href="#aO"/><use transform="matrix(0.0087890625,0,0,0.0087890625,75.5771484375,0)" xlink:href="#aR"/><use transform="matrix(0.0087890625,0,0,0.0087890625,86.3701171875,0)" xlink:href="#aP"/><use transform="matrix(0.0087890625,0,0,0.0087890625,97.0048828125,0)" xlink:href="#aN"/></g><g id="H"><use transform="matrix(0.0087890625,0,0,0.0087890625,0,0)" xlink:href="#aV"/><use transform="matrix(0.0087890625,0,0,0.0087890625,11.021484375,0)" xlink:href="#aH"/></g><g id="I"><use transform="matrix(0.0087890625,0,0,0.0087890625,0,0)" xlink:href="#aE"/><use transform="matrix(0.0087890625,0,0,0.0087890625,11.3203125,0)" xlink:href="#aF"/><use transform="matrix(0.0087890625,0,0,0.0087890625,21.814453125,0)" xlink:href="#aG"/><use transform="matrix(0.0087890625,0,0,0.0087890625,32.09765625,0)" xlink:href="#aH"/><use transform="matrix(0.0087890625,0,0,0.0087890625,42.7412109375,0)" xlink:href="#aI"/><use transform="matrix(0.0087890625,0,0,0.0087890625,53.7626953125,0)" xlink:href="#aJ"/><use transform="matrix(0.0087890625,0,0,0.0087890625,64.2568359375,0)" xlink:href="#aK"/><use transform="matrix(0.0087890625,0,0,0.0087890625,70.734375,0)" xlink:href="#aL"/></g><g id="J"><use transform="matrix(0.0087890625,0,0,0.0087890625,0,0)" xlink:href="#aM"/><use transform="matrix(0.0087890625,0,0,0.0087890625,4.359375,0)" xlink:href="#aL"/><use transform="matrix(0.0087890625,0,0,0.0087890625,14.853515625,0)" xlink:href="#aN"/></g><g id="K"><use transform="matrix(0.0087890625,0,0,0.0087890625,0,0)" xlink:href="#aT"/><use transform="matrix(0.0087890625,0,0,0.0087890625,9.84375,0)" xlink:href="#aY"/><use transform="matrix(0.0087890625,0,0,0.0087890625,19.9599609375,0)" xlink:href="#aO"/><use transform="matrix(0.0087890625,0,0,0.0087890625,24.3193359375,0)" xlink:href="#aN"/></g><g id="L"><use transform="matrix(0.0087890625,0,0,0.0087890625,0,0)" xlink:href="#aV"/><use transform="matrix(0.0087890625,0,0,0.0087890625,11.021484375,0)" xlink:href="#aH"/></g><g id="M"><use transform="matrix(0.0087890625,0,0,0.0087890625,0,0)" xlink:href="#aW"/><use transform="matrix(0.0087890625,0,0,0.0087890625,4.359375,0)" xlink:href="#aL"/><use transform="matrix(0.0087890625,0,0,0.0087890625,14.853515625,0)" xlink:href="#aH"/></g><path fill="#3a414a" d="M154 0v-137l495-537c165-179 249-281 249-418 0-156-121-253-280-253-170 0-278 110-278 278H158c0-264 200-443 465-443 266 0 455 183 455 416 0 161-73 288-336 568L416-179v12h687V0H154" id="bk"/><path fill="#3a414a" d="M646 20c-332 0-524-278-524-764 0-483 194-766 524-766s524 283 524 766c0 485-191 764-524 764zm0-166c218 0 341-220 341-598 0-380-123-601-341-601s-341 222-341 601c0 378 123 598 341 598" id="bl"/><g id="N"><use transform="matrix(0.0087890625,0,0,0.0087890625,0,0)" xlink:href="#bk"/><use transform="matrix(0.0087890625,0,0,0.0087890625,10.9775390625,0)" xlink:href="#bl"/><use transform="matrix(0.0087890625,0,0,0.0087890625,22.3330078125,0)" xlink:href="#bl"/></g><path fill="#3a414a" d="M784 20c-382 0-662-292-662-764 0-473 280-766 662-766s660 293 660 766c0 472-278 764-660 764zm0-176c266 0 475-207 475-588 0-383-209-590-475-590-268 0-477 208-477 590 0 380 209 588 477 588" id="bm"/><path fill="#3a414a" d="M180 0v-1490h190c0 262 1 526-3 784 217-279 467-523 702-784h249L716-845 1319 0h-225L585-716 370-489V0H180" id="bn"/><g id="O"><use transform="matrix(0.0087890625,0,0,0.0087890625,0,0)" xlink:href="#bm"/><use transform="matrix(0.0087890625,0,0,0.0087890625,13.763671875,0)" xlink:href="#bn"/></g><path fill="#3a414a" d="M593-100v-404H195v-159h398v-403h169v403h398v159H762v404H593" id="bo"/><use transform="matrix(0.0087890625,0,0,0.0087890625,0,0)" xlink:href="#bo" id="P"/><g id="Q"><use transform="matrix(0.0087890625,0,0,0.0087890625,0,0)" xlink:href="#aV"/><use transform="matrix(0.0087890625,0,0,0.0087890625,11.021484375,0)" xlink:href="#aF"/><use transform="matrix(0.0087890625,0,0,0.0087890625,21.515625,0)" xlink:href="#aU"/><use transform="matrix(0.0087890625,0,0,0.0087890625,27.4921875,0)" xlink:href="#aT"/><use transform="matrix(0.0087890625,0,0,0.0087890625,37.599609375,0)" xlink:href="#aO"/><use transform="matrix(0.0087890625,0,0,0.0087890625,41.958984375,0)" xlink:href="#aM"/><use transform="matrix(0.0087890625,0,0,0.0087890625,46.318359375,0)" xlink:href="#aN"/></g><g id="R"><use transform="matrix(0.0087890625,0,0,0.0087890625,0,0)" xlink:href="#aW"/><use transform="matrix(0.0087890625,0,0,0.0087890625,4.359375,0)" xlink:href="#aL"/><use transform="matrix(0.0087890625,0,0,0.0087890625,14.853515625,0)" xlink:href="#aH"/></g><g id="S"><use transform="matrix(0.0087890625,0,0,0.0087890625,0,0)" xlink:href="#aT"/><use transform="matrix(0.0087890625,0,0,0.0087890625,9.84375,0)" xlink:href="#aY"/><use transform="matrix(0.0087890625,0,0,0.0087890625,19.9599609375,0)" xlink:href="#aO"/><use transform="matrix(0.0087890625,0,0,0.0087890625,24.3193359375,0)" xlink:href="#aN"/></g></defs></g></svg>